<?xml version="1.0" encoding="UTF-8" standalone="no"?>
<svg
   width="16"
   height="6"
   fill="currentColor"
   class="bi bi-bug"
   viewBox="0 0 16 6"
   version="1.1"
   id="svg4"
   sodipodi:docname="bug.svg"
   inkscape:version="1.1.2 (0a00cf5339, 2022-02-04)"
   xmlns:inkscape="http://www.inkscape.org/namespaces/inkscape"
   xmlns:sodipodi="http://sodipodi.sourceforge.net/DTD/sodipodi-0.dtd"
   xmlns="http://www.w3.org/2000/svg"
   xmlns:svg="http://www.w3.org/2000/svg">
  <defs
     id="defs8" />
  <sodipodi:namedview
     id="namedview6"
     pagecolor="#ffffff"
     bordercolor="#cccccc"
     borderopacity="1"
     inkscape:pageshadow="0"
     inkscape:pageopacity="1"
     inkscape:pagecheckerboard="0"
     showgrid="false"
     inkscape:zoom="46.403883"
     inkscape:cx="14.190623"
     inkscape:cy="4.7517575"
     inkscape:window-width="1366"
     inkscape:window-height="699"
     inkscape:window-x="0"
     inkscape:window-y="0"
     inkscape:window-maximized="1"
     inkscape:current-layer="svg4"
     height="6px" />
  <path
     d="m 14.725336,0.28381969 a 0.17454691,0.17454691 0 0 1 0.217485,0.1162482 l 0.101587,0.3337337 a 1.7381381,1.7381381 0 0 1 0.953375,-0.2831151 c 0.351538,0 0.679337,0.1040299 0.953375,0.2831151 l 0.101237,-0.3337337 a 0.17454691,0.17454691 0 1 1 0.334083,0.1012372 L 17.24335,0.97327999 A 1.7402327,1.7402327 0 0 1 17.743252,2.1961556 H 17.9178 A 0.17454691,0.17454691 0 0 0 18.092346,2.0216087 V 1.8470618 a 0.17454706,0.17454706 0 0 1 0.349094,0 V 2.0216087 A 0.52364072,0.52364072 0 0 1 17.9178,2.5452494 h -0.174548 v 0.3490938 h 0.523641 a 0.17454695,0.17454695 0 0 1 0,0.3490939 H 17.743252 V 3.5925308 H 17.9178 a 0.52364072,0.52364072 0 0 1 0.52364,0.5236408 v 0.1745469 a 0.17454706,0.17454706 0 1 1 -0.349094,0 V 4.1161716 A 0.17454691,0.17454691 0 0 0 17.9178,3.9416247 h -0.174548 a 1.7454692,1.7454692 0 0 1 -3.490938,0 h -0.174547 a 0.17454691,0.17454691 0 0 0 -0.174546,0.1745469 v 0.1745469 a 0.1745475,0.1745475 0 1 1 -0.349095,0 V 4.1161716 a 0.52364072,0.52364072 0 0 1 0.523641,-0.5236408 h 0.174547 V 3.2434371 h -0.52364 a 0.17454695,0.17454695 0 0 1 0,-0.3490939 h 0.52364 V 2.5452494 H 14.077767 A 0.52364072,0.52364072 0 0 1 13.554126,2.0216087 V 1.8470618 a 0.1745475,0.1745475 0 0 1 0.349095,0 v 0.1745469 a 0.17454691,0.17454691 0 0 0 0.174546,0.1745469 h 0.174547 c 0,-0.476164 0.190955,-0.907993 0.499902,-1.22287561 l -0.143128,-0.4719749 a 0.17454691,0.17454691 0 0 1 0.116248,-0.2174854 z M 14.601408,2.5452494 v 1.3963753 a 1.3963752,1.3963752 0 0 0 1.221828,1.3859024 V 2.5452494 Z m 1.570922,0 V 5.3275271 A 1.3963752,1.3963752 0 0 0 17.394158,3.9416247 V 2.5452494 Z M 17.394158,2.1961556 A 1.3925352,1.3925352 0 0 0 16.928467,1.1551578 1.3904407,1.3904407 0 0 0 15.997783,0.79978029 1.3904407,1.3904407 0 0 0 15.06675,1.1551578 1.3925352,1.3925352 0 0 0 14.601408,2.1961556 Z"
     id="path2"
     style="fill:#ffffff;fill-opacity:0.25;stroke-width:0.349094" />
</svg>
