<?xml version="1.0" encoding="UTF-8" standalone="no"?>
<!-- Generator: Adobe Illustrator 16.0.3, SVG Export Plug-In . SVG Version: 6.00 Build 0)  -->

<svg
   version="1.1"
   id="Layer_1"
   x="0px"
   y="0px"
   width="400"
   height="250"
   viewBox="0 0 400 250"
   enable-background="new 0 0 500 500"
   xml:space="preserve"
   sodipodi:docname="ejusticia.svg"
   inkscape:version="1.1.2 (0a00cf5339, 2022-02-04)"
   xmlns:inkscape="http://www.inkscape.org/namespaces/inkscape"
   xmlns:sodipodi="http://sodipodi.sourceforge.net/DTD/sodipodi-0.dtd"
   xmlns="http://www.w3.org/2000/svg"
   xmlns:svg="http://www.w3.org/2000/svg"><defs
   id="defs13" /><sodipodi:namedview
   id="namedview11"
   pagecolor="#ffffff"
   bordercolor="#cccccc"
   borderopacity="1"
   inkscape:pageshadow="0"
   inkscape:pageopacity="1"
   inkscape:pagecheckerboard="0"
   showgrid="false"
   inkscape:zoom="1.4849242"
   inkscape:cx="304.05592"
   inkscape:cy="105.39258"
   inkscape:window-width="1366"
   inkscape:window-height="699"
   inkscape:window-x="0"
   inkscape:window-y="0"
   inkscape:window-maximized="1"
   inkscape:current-layer="Layer_1" />
<g
   id="g8"
   transform="matrix(0.13728514,0,0,0.13728514,322.39459,9.430783)"
   style="opacity:0.5">
	<path
   fill="#ffffff"
   d="m 201.85,237.039 c 0,0 -0.738,-48.365 49.903,-45.604 3.608,-4.472 44.411,6.355 49.801,37.594 l 0.447,8.01 H 201.85"
   id="path2" />
	<path
   fill="#ffffff"
   d="m 372.372,355.382 v 0 c 0,0 -16.428,-8.558 -29.278,-2.651 -12.874,5.916 -12.874,5.916 -12.874,5.916 v 0 c 0,0 -14.2,9.538 -20.461,11.578 -6.243,2.041 -122.171,37.109 -160.432,-55.77 0,0 -36.017,-117.465 29.623,-169.094 0,0 68.488,-46.475 149.513,-8.481 v 0 c 0,0 55.058,32.95 43.909,113.292 0.447,2.785 6.794,51.573 -49.448,54.883 v 0 c 0,0 -123.561,33.131 -120.972,-42.882 h 122.596 c 0,0 11.172,1.326 9.642,-17.972 -1.53,-19.299 -0.055,-3.154 -0.055,-3.154 0,0 -0.173,-80.507 -74.631,-81.04 0,0 -73.643,-6.182 -89.983,61.6 0,0 -20.194,110.091 67.248,116.916 0,0 137.611,10.527 158.747,-34.95 0,0 32.069,-103.594 -19.881,-171.353 0,0 -56.54,-68.653 -189.06,-31.231 -2.729,-0.157 -77.447,23.363 -81.086,133.124 0,0 -25.074,179.661 136.364,178.595 0,0 73.878,6.926 122.03,-36.362 0,0 11.635,-10.231 11.156,-14.421 -0.486,-4.203 -0.486,-4.203 -0.486,-4.203 v 0 l 18.263,87.031 v 0 c 0,0 -72.049,50.594 -138.137,45.715 0,0 -197.281,7.453 -238.515,-203.118 0,0 -37.813,-153.45 128.44,-249.294 0,0 178.092,-96.82 308.04,82.916 2.674,4.283 2.674,4.283 2.674,4.283 0,0 57.938,93.404 26.91,191.217 -0.707,2.471 -0.707,2.471 -0.707,2.471 0,0 -23.229,84.281 -86.516,124.188 l -27.662,-55.379 7.21,20.643"
   id="path4" />
	<polygon
   fill-rule="evenodd"
   clip-rule="evenodd"
   fill="#ffffff"
   points="384.932,449.862 361.247,392.404 372.537,379.732 408.608,433.409 "
   id="polygon6" />
</g>
</svg>
