<?xml version="1.0" encoding="UTF-8" standalone="no"?>
<!-- Creator: CorelDRAW 2017 -->

<svg
   xmlns:dc="http://purl.org/dc/elements/1.1/"
   xmlns:cc="http://creativecommons.org/ns#"
   xmlns:rdf="http://www.w3.org/1999/02/22-rdf-syntax-ns#"
   xmlns:svg="http://www.w3.org/2000/svg"
   xmlns="http://www.w3.org/2000/svg"
   xmlns:sodipodi="http://sodipodi.sourceforge.net/DTD/sodipodi-0.dtd"
   xmlns:inkscape="http://www.inkscape.org/namespaces/inkscape"
   xml:space="preserve"
   width="450mm"
   height="115mm"
   version="1.1"
   style="clip-rule:evenodd;fill-rule:evenodd;image-rendering:optimizeQuality;shape-rendering:geometricPrecision;text-rendering:geometricPrecision"
   viewBox="0 0 45000 11500"
   id="svg112"
   sodipodi:docname="logo.svg"
   inkscape:version="0.92.4 (5da689c313, 2019-01-14)"><metadata
   id="metadata116"><rdf:RDF><cc:Work
       rdf:about=""><dc:format>image/svg+xml</dc:format><dc:type
         rdf:resource="http://purl.org/dc/dcmitype/StillImage" /><dc:title></dc:title></cc:Work></rdf:RDF></metadata><sodipodi:namedview
   pagecolor="#ffffff"
   bordercolor="#666666"
   borderopacity="1"
   objecttolerance="10"
   gridtolerance="10"
   guidetolerance="10"
   inkscape:pageopacity="0"
   inkscape:pageshadow="2"
   inkscape:window-width="1366"
   inkscape:window-height="700"
   id="namedview114"
   showgrid="false"
   width="80mm"
   inkscape:zoom="0.4204826"
   inkscape:cx="675.22718"
   inkscape:cy="369.93807"
   inkscape:window-x="0"
   inkscape:window-y="0"
   inkscape:window-maximized="1"
   inkscape:current-layer="text209" />
 <defs
   id="defs7">
  <style
   type="text/css"
   id="style2">
   <![CDATA[
    .str0 {stroke:#305298;stroke-width:37.71;stroke-miterlimit:22.9256}
    .str1 {stroke:#305298;stroke-width:37.72;stroke-miterlimit:22.9256}
    .fil3 {fill:none}
    .fil0 {fill:#FEFEFE}
    .fil1 {fill:#FFCC29}
    .fil6 {fill:#77C14E}
    .fil7 {fill:#00A859}
    .fil4 {fill:#2659A1}
    .fil2 {fill:#7CBEFA}
    .fil8 {fill:#2659A1;fill-rule:nonzero}
    .fil5 {fill:#305298;fill-rule:nonzero}
   ]]>
  </style>
    <clipPath
   id="id0">
     <path
   d="m 9783.38,5003.79 c 1617.44,0 2928.65,1311.22 2928.65,2928.65 0,1617.44 -1311.21,2928.65 -2928.65,2928.65 -1617.44,0 -2928.65,-1311.21 -2928.65,-2928.65 0,-1617.43 1311.21,-2928.65 2928.65,-2928.65 z"
   id="path4"
   inkscape:connector-curvature="0" />
    </clipPath>
 </defs>
 <g
   id="Capa_x0020_1"
   transform="translate(0,-18200)">
  <metadata
   id="CorelCorpID_0Corel-Layer" />
  
  
 <g
   id="g280"
   transform="matrix(2.4125573,0,0,2.4125573,-7619.5544,-22371.101)"><g
     transform="matrix(0.5051833,0,0,0.5051833,217.1946,15186.602)"
     id="_607294136">
   
   
   
   
   
   
   
   
   
   
   
   
   
   
   
   
   
   
   
   <g
   id="g156"><circle
     style="fill:#fefefe;stroke:#305298;stroke-width:37.70999908;stroke-miterlimit:22.92560005"
     class="fil0 str0"
     cx="9805.5303"
     cy="7944.4399"
     r="3859.7"
     id="circle10" /><path
     style="fill:#ffcc29"
     inkscape:connector-curvature="0"
     class="fil1"
     d="m 6529.62,6583.84 c -31.56,203.02 -155.44,309.11 -350.07,340.9 227.35,40.05 310.43,165.3 344.25,337.65 35.81,-219.63 153.48,-313.1 348.26,-333.07 -218.2,-42.86 -316.76,-167.16 -342.44,-345.48 z"
     id="path12" /><path
     style="fill:#ffcc29"
     inkscape:connector-curvature="0"
     class="fil1"
     d="m 9854.2,4194.87 c -31.56,203.01 -155.44,309.1 -350.07,340.89 227.35,40.06 310.43,165.3 344.25,337.66 35.81,-219.63 153.47,-313.1 348.25,-333.07 -218.19,-42.87 -316.76,-167.17 -342.43,-345.48 z"
     id="path14" /><path
     style="fill:#ffcc29"
     inkscape:connector-curvature="0"
     class="fil1"
     d="m 8361.73,4528.3 c -31.56,203.01 -155.45,309.1 -350.08,340.89 227.36,40.06 310.44,165.3 344.26,337.65 35.81,-219.62 153.47,-313.09 348.25,-333.06 -218.2,-42.87 -316.76,-167.17 -342.43,-345.48 z"
     id="path16" /><path
     style="fill:#ffcc29"
     inkscape:connector-curvature="0"
     class="fil1"
     d="m 7165.69,5450.09 c -31.57,203.02 -155.45,309.11 -350.08,340.9 227.36,40.06 310.44,165.3 344.25,337.65 35.81,-219.63 153.48,-313.1 348.26,-333.06 -218.2,-42.87 -316.76,-167.17 -342.43,-345.49 z"
     id="path18" /><path
     style="fill:#ffcc29"
     inkscape:connector-curvature="0"
     class="fil1"
     d="m 6409.52,7748.15 c -31.56,203.02 -155.45,309.11 -350.08,340.9 227.36,40.05 310.44,165.3 344.25,337.65 35.82,-219.63 153.48,-313.1 348.26,-333.07 -218.2,-42.86 -316.76,-167.16 -342.43,-345.48 z"
     id="path20" /><path
     style="fill:#ffcc29"
     inkscape:connector-curvature="0"
     class="fil1"
     d="m 11251.64,4559.31 c -31.56,203.02 -155.45,309.11 -350.08,340.9 227.36,40.06 310.44,165.3 344.26,337.65 35.81,-219.63 153.47,-313.1 348.25,-333.06 -218.2,-42.87 -316.76,-167.17 -342.43,-345.49 z"
     id="path22" /><path
     style="fill:#ffcc29"
     inkscape:connector-curvature="0"
     class="fil1"
     d="m 12434.4,5455.52 c -31.56,203.02 -155.45,309.1 -350.08,340.9 227.36,40.05 310.44,165.29 344.26,337.65 35.81,-219.63 153.47,-313.1 348.25,-333.07 -218.19,-42.87 -316.76,-167.17 -342.43,-345.48 z"
     id="path24" /><path
     style="fill:#ffcc29"
     inkscape:connector-curvature="0"
     class="fil1"
     d="m 13060,6564.63 c -31.56,203.02 -155.45,309.1 -350.08,340.9 227.36,40.05 310.44,165.29 344.25,337.65 35.82,-219.63 153.48,-313.1 348.26,-333.07 -218.2,-42.87 -316.76,-167.17 -342.43,-345.48 z"
     id="path26" /><path
     style="fill:#ffcc29"
     inkscape:connector-curvature="0"
     class="fil1"
     d="m 13175.09,7777.01 c -31.56,203.02 -155.45,309.11 -350.08,340.9 227.36,40.05 310.44,165.3 344.26,337.65 35.81,-219.63 153.47,-313.1 348.25,-333.07 -218.2,-42.86 -316.76,-167.16 -342.43,-345.48 z"
     id="path28" /><path
     style="fill:#7cbefa"
     inkscape:connector-curvature="0"
     class="fil2"
     d="m 9783.38,5003.79 c 1617.44,0 2928.65,1311.22 2928.65,2928.65 0,1617.44 -1311.21,2928.65 -2928.65,2928.65 -1617.44,0 -2928.65,-1311.21 -2928.65,-2928.65 0,-1617.43 1311.21,-2928.65 2928.65,-2928.65 z"
     id="path30" /><g
     clip-path="url(#id0)"
     id="g35">
    <g
   id="g33">
     <path
   style="fill:#fefefe"
   inkscape:connector-curvature="0"
   id="1"
   class="fil0"
   d="m 7579.59,6112.6 c 1668.24,491.86 3212.94,598.09 4577.84,142.17 270.57,2176.66 -660.25,3652.86 -1833.98,4577.84 915.9,-1369.91 -247.6,-2970.91 -2743.86,-4720.01 z" />
    </g>
   </g><path
     style="fill:none;stroke:#305298;stroke-width:37.72000122;stroke-miterlimit:22.92560005"
     inkscape:connector-curvature="0"
     class="fil3 str1"
     d="m 9783.38,5003.79 c 1617.44,0 2928.65,1311.22 2928.65,2928.65 0,1617.44 -1311.21,2928.65 -2928.65,2928.65 -1617.44,0 -2928.65,-1311.21 -2928.65,-2928.65 0,-1617.43 1311.21,-2928.65 2928.65,-2928.65 z"
     id="path37" /><path
     style="fill:#2659a1"
     inkscape:connector-curvature="0"
     class="fil4"
     d="m 11565.13,6818.85 c -8.66,16.22 -19.69,32.27 0.15,49.53 -5.23,13.41 -21.63,31.42 -0.19,56.35 -7.37,15.81 -20.55,32.61 0.19,49.79 -4.26,11.72 -9.76,13.17 -10.29,28.89 -0.58,17.46 5.93,20.1 10.29,32.23 -14.55,11.8 -14.9,33.3 0,44.97 -12.55,36.26 -17.94,13.07 0.02,61.1 -20.25,17.27 -8.34,33.56 -0.15,49.67 -20.33,24.79 -8.12,29.96 0.15,56.42 -19.25,17.3 -9.6,32.98 -0.13,49.45 -11.18,14.87 -17.27,29.76 -0.47,50.98 -11.14,30.46 -16.99,27.69 0.47,54.9 -22.02,33.11 -4.5,29.47 -2.5,51.87 1.6,18.02 -20.99,20.68 2.47,54.01 -17.45,27.51 -11.64,24.35 -0.44,54.89 -16.75,21.14 -10.75,36.15 0.47,50.98 -9.18,16.28 -19.36,32.28 0.11,49.46 -8.03,26.26 -20.59,31.46 -0.17,56.42 -8.13,16.14 -20.04,32.34 0.17,49.67 -16.06,42.92 -14.22,19.85 0.02,61.17 -14.74,11.71 -14.74,33.27 -0.02,44.98 -12.87,36.46 -17.7,13.19 0,61.03 -20.88,17.05 -7.38,34.16 -0.2,49.8 -21.41,24.86 -5.02,42.87 0.2,56.36 -19.74,17.2 -8.92,33.28 -0.14,49.52 -22.58,28.67 -3.78,33.49 -2.39,51.65 1.35,17.48 -20.82,14.97 2.41,54.22 -10.56,14.82 -17.73,29.52 -0.55,50.98 -9.84,29.17 -17.99,27.56 0.56,54.9 -17.71,27.55 -11.32,24.44 -0.52,54.9 -16.99,21.33 -10.36,36.14 0.52,50.97 -9.57,16.5 -19.08,32.07 0.11,49.38 -8.1,26.39 -20.56,31.63 -0.15,56.5 -8.26,16.18 -19.99,32.32 0.15,49.63 -4.84,12.75 -21.79,31.67 -0.24,56.25 -24.25,55.26 1.29,15.79 -2.05,85.94 h -753.01 c 2.31,-28.78 -1.01,-32.95 -15.76,-47.82 15.92,-9.02 22.5,-25.83 15.74,-45.97 18.72,-18.39 26.65,-20.36 18.84,-51.79 23.26,-12.45 24.31,-21.88 19.84,-49.96 20.44,-7.83 24.82,-24.36 19.31,-47.26 22.29,-17.17 24.85,-23.7 19.02,-52.39 20.95,-7.04 25.61,-24.5 19.55,-45.64 7.71,-7.83 27.32,-9.94 19.77,-50.98 24.04,-18.77 21.67,-20.89 20.37,-50.97 19.21,-11.04 23.7,-25.21 17.9,-47.06 9.26,-7.56 13.9,-8.04 19,-21.4 4.48,-11.75 2.04,-18.25 1.29,-29.58 29.96,-20.07 15.44,-27.23 20.91,-46.34 4.16,-14.53 28.7,-17.55 16.18,-50.89 9.25,-8.05 29.49,-11.36 19.78,-50.43 18.63,-11.85 26.67,-25.32 18.81,-49.14 6.86,-5.76 30.31,-12.11 19.5,-50.44 18.36,-9.38 27.58,-22.77 19.61,-46.86 5.68,-6.09 29.53,-11.65 19.64,-50.98 23.13,-18.24 23.74,-21.77 18.96,-51.73 19.38,-7.35 26.39,-23.85 19.39,-46.3 10.98,-9.17 25.26,-6.08 20.03,-50.98 22.71,-16.01 22.88,-23.92 18.81,-51.8 21.65,-6.42 23.85,-24.32 19.38,-46.23 13.13,-9.05 19.74,-10.7 21.22,-32.54 1.04,-15.46 -6.65,-3.47 2.09,-18.65 8.61,-14.96 16.15,-5.37 17.17,-37.55 0.71,-22.24 -4.69,-4.25 6.82,-17.12 2.21,-2.47 19.59,-14.49 9.95,-41.88 13.03,-9.87 10.21,-0.68 17.88,-17.05 4.83,-10.33 5.29,-21.81 1.78,-31.28 14.64,-17.49 28.72,-18.72 18.78,-51.33 19.85,-14.22 26.72,-18.92 19.74,-50.21 18.91,-9.1 26.32,-23.33 19.44,-47.47 20.28,-17.8 26.46,-22.43 18.9,-52.18 24.91,-10.44 22.75,-24.6 19.89,-49.87 20.69,-7.61 25.18,-24.21 19.32,-46.96 25.34,-18.34 21.55,-22.63 20.25,-50.98 18.37,-11.16 25.12,-24.57 18.2,-47.05 11.66,-10.48 25.15,-8.75 20,-50.98 24.05,-17.04 22.88,-24.14 18.75,-52.35 21.93,-6.46 24.09,-23.7 19.39,-45.68 19.87,-15.04 22.96,-18.09 20.5,-50.98 25.67,-16.39 17.26,-28.33 19.85,-39.19 3.74,-15.66 -9.2,-5.72 9.57,-13.74 0.1,29.91 11.65,26.69 4.87,43.52 -9.21,22.89 -6.71,30.02 4.92,44.7 z m -3589.1,-35.29 c -0.19,30.53 -5.79,30.1 20.33,50.98 -8.43,40.14 13.02,43.92 19.69,50.97 -6.35,21.7 -0.99,38.28 19.6,45.77 -6.2,28.91 -3,34.77 18.92,52.27 -5.9,23.63 -0.49,38.84 19.36,47.41 -5.26,29.67 -2.3,36.5 19.84,50.02 -8.39,31.54 1.06,33.35 18.82,51.58 -3.46,10.09 -4.03,17.13 0.23,28.53 5.3,14.2 5.81,11.72 17.91,18.52 -1.28,11.82 -2.53,21.74 2.18,32.21 7.44,16.5 8.93,8.8 18.83,19.51 -8.85,19.93 0.41,36.33 17.07,46.32 -0.31,11.39 -2.13,20.8 2.53,32.93 5.05,13.16 7.36,11.27 17.97,18.04 -3.32,21.53 -2.61,40.2 19.47,46.41 -3.32,27.42 -5.32,35.72 18.68,51.63 -2.49,36.72 -0.28,35.53 20.2,50.97 -5.7,21.26 -1.58,40.46 19.34,46.34 -3.71,29.08 -5.19,33.73 18.94,51.7 -6.11,30.96 0.92,32.27 19.77,50.98 -6.85,23.39 -0.16,38.03 19.52,46.79 -6.83,30.25 -0.69,36.31 19.64,50.18 -6.96,24.09 -3.18,35.83 18.69,49.36 -7.14,36.53 4.96,39.53 19.84,50.29 -6.89,22.2 -1.26,39.82 18.42,45.7 -3.13,26.41 -4.07,37.45 18.44,51.78 -2.97,33.79 1.39,36.43 20.48,50.97 -5.22,22.13 -2.23,39.24 19.31,45.75 -2.98,29.12 -6.3,33.4 18.86,52.29 -1.66,11.39 -4.2,17.99 0.89,30.28 8.04,19.38 6.19,8.86 19.01,20.69 -6.84,21.02 -0.19,39.79 19.48,45.66 -5.32,31 -3.48,33.33 18.99,52.38 -3.53,12.88 -4.64,14.72 -0.22,27.99 5.37,16.09 5.3,13.59 19.55,19.16 -3.32,26.4 -4.63,38.62 19.86,49.98 -8.32,29.63 -0.46,34.45 18.89,51.88 -7.64,25.07 1.5,38.03 19.47,47.76 -8.5,32.98 2.44,35.93 19.68,50.4 -7.28,20.99 -2.16,39.43 18.62,45.5 -4.33,28.73 -4.28,38.71 18.65,52.41 -3.3,21.94 -2.94,31.79 12.96,45.39 l 4.73,3.73 c 0.53,0.41 1.69,1.17 2.45,1.85 -5.78,21.2 -1.62,31.49 13.06,45.72 -15.16,11.06 -20.13,21.68 -17.98,48.96 l -748.72,0.12 c -0.08,-62.23 15.6,-41.72 5.6,-73.68 -4.79,-15.29 -4.82,1.28 -3.95,-12.62 0.61,-9.67 17.32,-19.56 -3.05,-51.63 12.66,-26.35 15.67,-26.13 0.33,-54.9 15.83,-17.91 11.57,-33.7 -0.3,-50.98 10.88,-24.77 17.23,-26.52 0.17,-54.9 9.69,-12.05 13.08,-20.54 6.16,-40.98 -5.43,-16.05 -7.44,4.27 -2.81,-15.09 5.37,-22.41 11.68,-8 0.98,-42.09 -6.48,-20.64 -3.17,-2.58 1.89,-17.65 6.92,-20.61 3.29,-28.94 -6.25,-41.04 17.62,-28.23 10.13,-30.6 -0.13,-54.9 12.33,-17.44 15.56,-32.98 0.27,-50.98 15.59,-28.38 12.11,-29.07 -0.33,-54.89 11.22,-16.74 16.05,-33.59 0.4,-50.98 13.8,-28.05 13.86,-28.1 -0.45,-54.9 20.86,-34.68 4.96,-27.99 3.2,-51.76 -0.98,-13.14 19.06,-15.17 -3.17,-54.12 20.65,-36.64 5.31,-27.28 3.16,-51.9 -1.31,-15.08 19.03,-18.43 -3.15,-53.97 13.18,-26.44 15.25,-26.44 0.38,-54.9 15.83,-17.84 11.48,-33.8 -0.35,-50.98 11.43,-24.87 16.81,-26.73 0.26,-54.9 14.85,-17.88 12.76,-33.51 -0.19,-50.98 5.18,-9.44 8.79,-11.76 9.58,-23.69 1.3,-19.54 -5.76,-19.74 -6.69,-28.47 -1.23,-11.48 19.21,-25.19 -2.82,-53.71 21.28,-32.15 4.77,-35.2 2.78,-52.28 -1.34,-11.52 19.21,-27.08 -2.68,-53.6 16.53,-28.25 11.24,-29.82 -0.24,-54.9 4.9,-7.18 9.25,-10.17 9.8,-23.64 0.28,-6.74 -0.33,-8.67 -1.96,-14.57 -3.73,-13.45 -4.37,-5.16 -4.77,-13.26 -0.55,-11.11 6.48,-3.37 6.75,-26.88 0.23,-19.62 -3.44,-14.71 -9.86,-27.52 20.66,-32.91 4.35,-33.9 3.12,-51.69 -0.91,-13.34 19.12,-14.44 -3.13,-54.19 20.9,-35.76 4.99,-28.53 3.16,-51.82 -1.25,-15.76 18.8,-17.09 -3.15,-54.06 20.51,-38.65 5.58,-27.21 3.16,-52.02 -1.47,-15.01 19.14,-20.02 -3.14,-53.85 12.26,-25.79 16.09,-26.36 0.32,-54.9 15.37,-17.92 12,-33.62 -0.27,-50.98 15.49,-36.07 6.33,-24.79 11.92,-37.51 23.63,11.48 -13.08,29.82 27.2,53.2 z m -60.19,-52.55 c 4.16,26.78 2.46,18.46 10.76,36.86 -22.04,28.93 -3.51,46.23 -0.88,54.9 -17.72,20.59 -6.25,36.76 0.94,50.98 -11.55,16.21 -17.08,33.99 -0.43,50.98 -13.99,27.05 -14.22,29.01 0.45,54.89 -9.95,15.63 -18.38,34.15 -0.62,50.98 -9.25,20.89 -17.56,25.65 0.6,54.9 -4.76,7.96 -10.23,12.51 -10.12,27.5 0.11,15.42 4.96,17.54 9.6,27.4 -17.2,16.89 -10.25,35.02 0.54,50.98 -7.61,14.28 -18.42,30.39 -0.88,50.97 -2.95,8.86 -21.21,25.13 0.85,54.9 -12.03,24.71 -14.79,23.87 -0.28,54.9 -15.12,17.08 -13.12,34.26 0.18,50.98 -5.93,14.34 -20.44,34.73 0.23,49.04 -5.87,19.11 -1.47,1.72 -5.85,12.64 -3.39,8.43 -3.8,4.43 -4.34,16.84 -0.76,17.71 5.74,19.2 10.2,33.21 -20.63,14.42 -6.23,34.61 -0.23,49.04 -13.31,16.81 -15.32,33.86 -0.18,50.98 -14.52,31.23 -11.67,30.04 0.23,54.9 -12.08,16.5 -16.52,33.94 -0.34,50.98 -15.26,27.52 -13,29.45 0.39,54.9 -10.68,16.06 -17.78,33.9 -0.53,50.97 -10.65,22.81 -16.7,25.93 0.53,54.9 -17.65,29.21 -10.56,32.8 -0.6,54.9 -17.69,16.73 -9.41,35.37 0.62,50.98 -14.69,25.71 -14.39,27.97 -0.47,54.9 -16.6,16.98 -11.11,34.77 0.44,50.98 -7.29,14.24 -18.56,30.35 -0.92,50.97 -4.67,15.34 -8.38,5.21 -9.15,27.48 -0.52,15.01 4.42,20.08 10.01,27.42 -10.85,24.25 -15.75,23.79 -0.15,54.9 -20.78,24.46 -6.33,35.12 0.34,56.8 -20.57,14.45 -6.23,34.63 -0.25,49.08 -13.67,16.78 -14.91,33.97 -0.1,50.97 -15.56,32.03 -11.5,29.59 0.17,54.9 -21.99,29.84 -3.7,45.99 -0.83,54.9 -17.6,20.61 -6.54,36.65 0.86,50.98 -11.05,16.11 -17.42,34 -0.45,50.98 -22.92,46.67 -1.08,14.93 -1.18,85.78 l -753.17,1.21 c 1.98,-25.14 -6.93,-35.27 -14.48,-49.68 14.71,-11.14 21.32,-24.55 13.59,-44.19 10.11,-10.74 24.84,-6.34 21.16,-51.94 12.97,-6.83 12.32,-3.76 17.6,-18.59 4.13,-11.57 3.14,-19.82 0.33,-28.47 18.7,-17.57 26.88,-20.77 18.86,-51.32 22.64,-13.43 24.79,-20.5 19.89,-50.02 17.35,-8.48 26.4,-17.67 19.28,-47.67 21.34,-18.49 25.4,-20.74 19.03,-51.94 20.35,-7.54 25.7,-24.38 19.5,-46.09 13.04,-12.91 10.53,0.01 18.84,-20.34 5.02,-12.3 3.18,-18.84 1,-30.64 24.09,-18.41 22.38,-23.1 18.88,-52.21 20.62,-6.36 25.05,-23.78 19.33,-45.83 10.28,-8.11 13.49,-6.35 19.16,-20.91 4.86,-12.49 1.87,-18.65 1.12,-30.06 31.51,-21.55 13.75,-31.06 21.8,-48.82 3.37,-7.42 26.51,-15.29 15.3,-47.91 8.56,-7.85 27.42,-8.36 19.82,-54.22 21.87,-5.31 24.59,-26.54 19.35,-45.12 9.2,-8.48 29.68,-15.16 18.94,-50.72 15.95,-8.78 28.45,-20.45 19.59,-47.31 19.25,-20.24 26.65,-18.71 18.81,-52.36 23.55,-11.76 24.19,-22.87 19.83,-49.95 21.25,-7.53 24.77,-24.53 19.38,-46.7 21.38,-17.9 24.83,-23.6 18.94,-52.79 24.29,-7.79 23.29,-26.02 19.89,-49.8 21.87,-6.37 23.89,-24.45 19.39,-46.43 10.8,-7.27 12.31,-4.43 17.93,-17.83 6.29,-14.97 1.23,-20.47 3.32,-28.54 4.06,-15.7 26.94,-13.16 17.1,-51.66 10.42,-8.81 11.89,-4.47 18.17,-18.43 5.28,-11.72 3.7,-19.51 2.01,-32.55 22.41,-12.7 22.86,-22 18.62,-52.29 20.9,-6.04 25.71,-24.39 18.54,-45.52 17.22,-13.66 27.78,-16.49 19.75,-50.35 18.83,-9.6 26.4,-22.89 19.41,-47.9 19.8,-16.73 26.36,-23.26 18.91,-51.84 24.69,-11.22 23.01,-23.59 19.9,-49.81 13.62,-5.26 12.56,-1.97 18.48,-16.39 5.39,-13.14 4.02,-18.42 0.84,-30.97 25.08,-20.24 21.14,-20.54 20.25,-50.98 18.7,-10.82 25.07,-24.72 18.19,-47.06 11.15,-9.88 25.27,-7.48 20.02,-50.97 25.43,-18.51 21.4,-23.62 18.75,-52.15 12.43,-3.49 17.13,-6.85 20.66,-21.92 5.34,-22.79 -11.67,-22.54 9.03,-29.46 z m 3700.44,51.07 c -6.89,30.03 -1.96,34.34 18.92,52.46 -6.13,23.3 -0.19,38.78 19.42,47.14 -5.68,29.81 -1.95,36.45 19.76,50.14 -9.03,33.09 2.96,33.34 18.84,51.73 -3.61,10.01 -4.06,17.09 0.28,28.42 5.14,13.44 6.7,11.91 18,18.63 -5.35,42.94 11.16,41 20.88,51.53 -7.89,17.95 -2.05,39.57 18.78,44.66 -2.57,14.75 -5.2,19.83 0.81,34.7 4.76,11.78 8.76,11.8 18.08,18.12 -4.01,21.75 -2.46,39.8 19.42,46.2 -3.67,28.03 -5.05,35.36 18.68,51.84 -0.96,11.22 -3.33,18.53 1.16,30.39 5.66,14.96 8.68,12.35 18.99,20.58 -6.42,22.38 -0.82,39.16 19.38,46.12 -4.11,29.55 -4.76,33.59 18.94,51.92 -2.94,13.84 -5.03,16.04 1.16,30.82 9.02,21.54 4.65,6.19 18.57,20.15 -6.91,23.02 -0.06,38.04 19.56,46.55 -7.49,30.53 -0.18,34.28 18.94,51.49 -2.38,9.07 -3.56,18.35 0.02,28.52 5.83,16.54 5.67,11.55 19.35,19.62 -7.36,35.8 4.85,39.12 19.81,50.29 -6.48,20.22 -2.01,40.77 18.49,45.66 -3.44,26.84 -3.82,37.35 18.49,51.98 -3.54,33.89 2.08,36.5 20.4,50.97 -5.28,22.07 -2.15,39.23 19.34,45.6 -3.16,28.65 -6.9,33.65 18.82,52.44 -3.61,21.72 -3.17,40.4 19.49,46.62 -3.08,23.62 -4.6,42.16 19.89,49.83 -5.17,28.46 -3.85,35.33 19,52.56 -7.3,24.72 -1.18,38.61 19.31,47.05 -3.69,26.44 -4.26,38.4 19.87,49.81 -8.84,30.42 0.25,34.32 18.86,52.15 -7.64,24.72 1.58,38.06 19.53,47.59 -3.82,14.44 -6.22,15.43 0.67,31.24 6.5,14.93 6.88,9.58 18.29,19.2 -5.15,19.92 -2.75,35.75 17.45,47.06 -0.02,30.03 -1.88,36.74 20.61,50.98 -2.11,16.54 -5.85,23.89 7.1,39.16 12.57,14.81 7.8,-1.8 10.73,15.3 3.72,21.75 -8.59,12.38 13.75,39.01 20.13,24.01 -14.36,25.71 26.83,55.54 -5.25,22 -1.69,39.66 19.37,46.08 -3.82,37.83 -2.35,24.09 13.22,53.07 -16.1,9.73 -20.23,19.08 -18.05,45.18 l -748.38,0.44 c -2.06,-59.49 22.91,-47.94 -1.65,-85.95 12.02,-18.41 13.76,-32.24 0.17,-50.98 11.89,-22.1 16.44,-31.59 -0.26,-54.9 11.22,-18.07 14.76,-32.27 0.35,-50.98 10.18,-21.21 17.74,-31.73 -0.41,-54.9 12.88,-18.61 15.18,-33.02 0.53,-50.97 4.41,-10.53 9.33,-12.44 9.67,-27.59 0.38,-16.61 -4.5,-18.32 -10.18,-27.31 16.36,-25.05 9.97,-31.17 0.59,-54.9 14.82,-18.05 11.93,-32.4 -0.59,-50.98 18.45,-23.13 10.16,-33.92 0.42,-54.9 14.7,-18.67 10.52,-32.94 -0.4,-50.97 17.34,-23.2 11.44,-33.29 0.31,-54.9 13.83,-18.73 11.57,-32.73 -0.26,-50.98 15.49,-23.26 13.41,-32.21 0.17,-54.9 13.13,-18.68 12.43,-32.46 -0.07,-50.98 14.36,-22.84 14.35,-32.09 -0.03,-54.9 12.28,-18.46 13.49,-32.31 0.12,-50.97 12.11,-22.08 16.32,-31.72 -0.22,-54.9 11.33,-18.17 14.63,-32.25 0.34,-50.98 10.62,-21.32 17.38,-31.79 -0.38,-54.9 10.47,-17.85 15.56,-32.4 0.48,-50.98 7.16,-16.69 15.97,-26.54 4.95,-47.18 -0.46,-0.87 -1.22,-1.88 -1.68,-2.63 -0.46,-0.76 -1.43,-1.96 -1.83,-2.56 -0.39,-0.61 -1.35,-1.63 -1.91,-2.52 12.45,-18.51 15.44,-32.98 0.6,-50.98 3.82,-9.65 17.5,-23.68 4.86,-47.22 l -5.48,-7.68 c 0.56,-0.89 1.64,-3.13 1.92,-2.52 l 5.02,-7.95 c 2.7,-6.24 3.46,-7.37 3.25,-16.84 -0.33,-15.13 -5.19,-17.1 -9.7,-27.59 15.15,-18.66 9.88,-33.06 -0.47,-50.98 17.89,-23.07 10.79,-33.59 0.39,-54.9 14.37,-18.76 10.87,-32.84 -0.37,-50.97 16.48,-23.21 12.43,-32.72 0.24,-54.9 13.4,-18.74 12.07,-32.45 -0.1,-50.98 14.83,-23.17 13.86,-31.98 0.03,-54.9 12.77,-18.56 12.88,-32.37 0.02,-50.98 13.1,-22.54 15.49,-31.69 -0.14,-54.89 11.81,-18.28 14.09,-32.3 0.25,-50.98 11.23,-21.78 16.95,-31.57 -0.29,-54.9 10.93,-18.1 15.02,-32.28 0.39,-50.98 l 11.6,-33.1 c 0.27,-0.79 0.94,-2.13 1.17,-2.76 0.23,-0.61 0.66,-1.88 1.27,-2.65 17.17,14.13 -12.1,38.18 26.48,52.72 z M 9598.36,6310.75 c -48.78,8.64 -94.42,8.68 -145.14,19.91 -129.41,28.66 -236.19,91.44 -347.65,153.98 -165.66,92.96 -318.69,139.7 -539.71,86.34 -194.56,-46.97 -354.97,-148.19 -509.06,-239.78 -29.04,-17.27 -23.13,-10.75 -43.88,-38.41 -54.1,-72.15 -195.21,-39.24 -184.02,74.68 7.22,73.51 69.72,76.14 75.19,94.54 7.06,23.74 -7.71,171.02 3.24,195.28 7.57,16.77 7.89,0.92 9.52,20.39 -2.46,15.72 -34.7,18.45 -20.12,53.72 -21.38,19.58 -26.39,15.49 -19.84,54.08 -21.75,5.44 -24.61,26.58 -19.34,45.13 -17.71,16.28 -27.66,20.86 -18.97,50.84 -17.19,9.51 -27.71,22.67 -19.58,47.2 -18.75,20.48 -25.81,17.24 -19.63,50.97 -23.09,18.03 -23.86,21.51 -19,51.44 -19.47,6.58 -26.24,24.82 -19.37,46.6 -20.99,16.88 -24.18,13.76 -20.07,50.98 -22.8,15.69 -22.85,24.02 -18.77,51.66 -21.84,6.36 -23.83,24.48 -19.39,46.37 -27.48,18.44 -15.48,24.03 -21.23,46.36 -4.05,15.7 -27.27,13.96 -17.08,51.67 -5.92,5.17 -5.38,3.55 -9.5,7.38 -12.12,11.25 -13.13,26.52 -10.7,43.6 -21.1,12.34 -22.89,22.87 -18.67,52.21 -20.99,6.35 -25.47,24.49 -18.47,45.79 -19.99,15.01 -25.66,24.14 -19.83,50.26 -18.62,9.6 -26.49,23.02 -19.37,47.81 -20.44,17.23 -26.46,22.8 -18.92,51.85 -24.88,11.09 -22.81,24.05 -19.9,49.93 -20.75,7.94 -25.19,24.14 -19.33,47.23 -24.54,20.34 -21.48,20.27 -20.24,50.98 -18.48,10.9 -25.2,24.71 -18.17,47.05 -12.99,11.44 -11.19,1.36 -19.05,20.71 -5.01,12.33 -2.34,18.88 -0.94,30.27 -25.56,18.62 -21.33,23.77 -18.83,52.16 -21.93,6.46 -23.99,23.87 -19.37,45.87 -8.98,6.53 -13.22,6.73 -18.02,18.42 -4.93,12.04 -3.24,21 -2.4,32.56 -22.58,14.15 -21.4,25.56 -18.4,51.71 -20.77,6.2 -23.37,22.38 -19.61,46.32 -10.34,6.59 -13.15,6.32 -18.11,18.85 -5.49,13.84 -5.13,15.74 -0.43,28.21 -15.78,19.65 -28.59,17.79 -18.74,52.07 -21.23,13.41 -25.95,20.57 -19.7,50.15 -20,8.5 -26.13,23.62 -19.48,46.79 -19.6,18.5 -25.47,20.55 -19.84,50.98 -24.38,17.72 -22.34,23.04 -18.92,51.62 -21.12,5.97 -24.9,25.12 -19.34,46.41 -21.33,15.73 -21.84,24.4 -20.26,50.98 -24.12,15.81 -21.76,24.51 -18.64,51.61 -22.22,6.12 -22.59,25.01 -19.5,46.42 -15.48,9.55 -23.85,23.78 -21.06,43.29 -45.89,0.96 -72.46,40.66 -40.49,72.62 14.41,14.4 28.83,10.96 50.46,20.17 86.7,36.9 179.05,58.81 273.1,79.6 19.38,4.29 43.1,4.82 51.59,19.21 38.08,64.58 51.63,52.37 160.42,52.37 77.02,0 675.98,6.24 706.08,-4.8 17.45,-6.41 30.88,-19.93 38.33,-32.3 17.84,-29.6 2.45,-22.44 43.56,-30.83 78.83,-16.09 255.12,-59.57 327.13,-96.45 31.27,-16.01 31.44,-75.92 -28.36,-79.9 2.07,-22.4 -2.71,-33.03 -20.5,-42.98 3.99,-33.63 -1.21,-35.3 -20.33,-50.98 3.06,-11.84 5.22,-14.34 0.54,-26.49 -6.8,-17.64 -13.17,-14.17 -16.82,-22.8 -8.2,-19.33 9.62,-28.34 -21.93,-48.74 3.91,-21.89 2.89,-40.03 -19.45,-46.61 3.14,-23.4 4.48,-42.29 -19.9,-49.72 5.17,-27.25 2.12,-36.14 -18.97,-52.68 6.92,-21.89 0.21,-40.03 -19.32,-46.75 3.95,-26.18 4.08,-38.74 -19.86,-49.82 8.88,-31.27 -0.5,-34.03 -18.83,-52.44 7.75,-24.39 -1.82,-37.98 -19.56,-47.35 8.42,-30 -0.54,-34.29 -19.62,-50.42 6.81,-19.51 2.4,-36.3 -16.84,-47.32 0.07,-11.12 1.9,-20.5 -2.73,-32.43 -7.21,-18.62 -6.4,-9.26 -19,-19.76 5.92,-14.92 2.55,-28.39 -7.97,-39.92 l -8.12,-10.64 c -5.57,-18.48 9.51,-26.43 -20.9,-46.26 0.62,-11.23 3.15,-18.06 -1.26,-29.94 -5.57,-14.99 -8.44,-12.9 -19.05,-21.04 5.57,-22.03 1.45,-39.54 -19.32,-45.95 3.4,-29.76 6.16,-33.18 -18.92,-52.08 6.45,-36.5 -2.14,-34.24 -19.81,-50.98 5.98,-21.57 1.11,-38.75 -19.48,-46.12 5.9,-30.86 2.89,-33.35 -18.98,-51.91 4.61,-21.31 0.69,-38.37 -19.35,-47.66 4.59,-29.16 3.13,-36.71 -19.9,-50.05 7.97,-30.16 -0.01,-33.96 -18.87,-51.3 2.79,-8.58 3.83,-16.85 -0.29,-28.48 -5.31,-14.96 -4.52,-11.76 -17.6,-18.58 3,-38.84 -0.93,-31.84 -21.25,-51.84 5.11,-11.56 6.04,-14.08 0.22,-28.1 -5.48,-13.2 -13.46,-11.47 -16.39,-22.49 -6.37,-24.01 7.82,-29.35 -21.19,-46.58 1.35,-11.36 3.53,-17.94 -1.11,-29.58 -5.23,-13.09 -8.89,-12.25 -18.95,-21.4 6.75,-22.33 0.22,-35.73 -18.06,-47.05 0.89,-26.8 1.81,-35.47 -20.27,-50.98 5.36,-22.36 1.45,-39.68 -19.38,-46.64 2.53,-24.14 5.89,-40.15 -19.89,-49.81 7.13,-30.1 1.75,-34.5 -18.94,-52.56 6.43,-23.43 0.99,-38.41 -19.41,-47.01 5.99,-29.54 1.78,-36.81 -19.77,-50.18 8.13,-29.27 -1.08,-35.4 -18.79,-51.82 3.63,-10.03 4.06,-17.08 -0.3,-28.4 -5.13,-13.35 -6.79,-11.93 -18.01,-18.66 6.37,-46.02 -13.01,-35.49 -21.51,-54.9 -2.15,-12.61 12.27,-19.91 12.99,-39.14 1.27,-34.46 -4.67,-161.28 -0.16,-176.53 7.94,-12.26 17.96,-12.04 29.73,-19.23 13.21,-8.06 16.65,-14.04 26.67,-22.56 93.7,62.74 246.87,142.12 347.43,184.98 130.9,55.81 286.17,99.78 448.58,82.62 319.9,-33.8 501.91,-285.53 788.24,-277.37 2.9,84.06 -2.61,108.33 53.33,107.89 v 536.97 c -55.28,18.68 -41.07,66.4 -41.07,128.23 0,85.22 4.78,485.76 -2.36,511.56 -3,10.85 -35.61,8.48 -13.12,44.94 9.59,15.56 26.73,31.93 39.59,38.85 0.91,99.56 17.94,74.41 -49.68,108.54 -17.46,8.81 -35.58,18.76 -51.05,27.32 -29.91,16.58 -82.02,44.85 -83.68,77.8 45.31,37.92 126.02,31.57 189.84,39.85 l 0.27,753.73 c -4.61,38.26 -32.87,48.36 -42.56,67.9 v 380.37 c -2.97,14.07 -30.79,3.87 -27.09,34.97 2.12,17.87 19.38,25.94 35.44,32.17 -17.36,16.53 -40.19,30.19 -59.72,45.16 l -150.53,116.14 c -29.99,23.74 -52.13,54.45 -72.5,88.26 -22.81,37.87 -25.82,29.07 -66.8,43.04 -25.51,8.71 -52.57,18.48 -75.28,30.52 -30.4,16.11 -24.87,52.96 -25.19,85.14 l 1185.94,0.78 c -0.22,-35.52 5.14,-70.28 -23.85,-85.75 -34.44,-18.38 -76.41,-30.08 -114.36,-42.45 -25.82,-8.42 -37.88,-53.6 -71.96,-92.82 -39.15,-45.08 -153.9,-125.13 -208.74,-163.82 l -26.82,-20.71 c -0.58,-0.56 -1.64,-1.71 -2.12,-2.18 -0.48,-0.47 -1.45,-1.45 -2.11,-2.24 18.29,-4.72 31.74,-11.3 35.02,-28.35 1.87,-9.72 1.15,-17.27 -5.09,-23.69 -14.66,-15.11 -12.85,1.9 -21.66,-14.17 -0.08,-103.26 -0.01,-206.53 -0.01,-309.79 0,-133.03 -8,-53.08 -36.96,-119.56 -12.93,-29.68 -5.9,-530.15 -5.9,-617.65 0,-45.82 -3.88,-112.45 1.14,-155.77 30.25,-1.23 240.2,-5.89 175.94,-68.17 -22.5,-21.81 -50.99,-38.38 -82.13,-55.22 -18.13,-9.8 -78.52,-37.19 -89.05,-46.31 -3.31,-63.01 -6.7,-74.62 18.01,-97.76 6.01,-5.63 23.05,-22.23 26.39,-33.17 3,-9.8 3.51,-15.58 -1.16,-23.48 -4.94,-8.34 -15.8,-6.94 -18.76,-14.21 -4.15,-10.19 -0.26,-435.18 -0.26,-509.77 -0.01,-76.93 15.3,-97.64 -40.7,-130.18 l -0.1,-534.55 c 56.33,-2.08 50.32,-25.9 53.16,-108.92 457.58,20.5 581.87,468.63 1237.62,194.73 94.54,-39.48 177.32,-86.91 264.04,-135.96 27.12,-15.34 57.92,-36.87 83.53,-48.37 83.01,76.17 49.67,-34.72 55.17,214.51 0.72,32.66 12.67,25.82 13.4,39.91 -2.37,17.8 -24.97,7.45 -21.83,57.87 -23.93,16.2 -21.9,24.42 -18.6,51.81 -23.18,6.39 -22.76,24.62 -19.51,46.22 -19.78,12.83 -21.05,28.19 -20.56,50.98 -18.94,10.91 -24.79,27.25 -16.95,46.86 -17.6,16.95 -29.06,20.51 -19.63,50.53 -13.19,7.98 -10.81,1.15 -18.09,16.55 -5.28,11.19 -4.7,21.49 -1.45,31.15 -19.31,19.55 -26.8,19.3 -18.83,52.04 -23.31,12.25 -24.33,22.22 -19.84,49.99 -21.19,7.95 -24.87,24.37 -19.37,46.98 -21.96,17.65 -24.86,23.62 -18.94,52.53 -26.26,8.77 -21.77,27.08 -19.9,49.78 -22.05,6.78 -23.87,24.53 -19.39,46.7 -21.77,14.33 -21.81,24.64 -20.4,50.98 -19.64,11.7 -24.02,24.59 -17.87,47.06 -11.65,9.61 -11.27,2.94 -18.04,18.45 -5.25,12.03 -3.69,20.7 -2.24,32.52 -22.43,15.18 -22.43,24.29 -18.61,52.13 -18.97,5.81 -26.42,23.87 -18.46,45.35 -20.75,16.86 -26.91,20.67 -19.85,50.29 -19.79,12.27 -26.7,24.71 -18.78,49.25 -17.49,14.18 -28.25,19.01 -19.52,50.43 -18.37,9.27 -27.48,22.81 -19.65,46.65 -13.2,14.46 -9.14,-1.54 -18.43,20.05 -6.42,14.92 -4.66,16.95 -1.17,30.93 -23.31,18.5 -23.55,21.9 -18.96,51.87 -19.56,7.42 -26.53,23.55 -19.4,46.17 -20.95,17.83 -24.26,15.04 -20.06,50.97 -23.51,16.65 -22.84,23.41 -18.75,51.98 -21.16,6.06 -23.82,24.37 -19.4,46.06 -21.91,15.55 -20.64,25.26 -20.39,50.97 -31.55,19.42 -9.07,33.04 -24.89,52.96 -11.88,14.95 -16.68,21.6 -13.2,45.08 -17.44,10.58 -25.93,27.25 -18.42,47.05 -16.67,15.99 -27.76,22.55 -18.78,51.55 -19.75,14.02 -26.87,19.25 -19.77,50.19 -18.91,8.87 -26.17,23.44 -19.45,47.27 -20.07,18.27 -26.55,22.04 -18.86,52.53 -25.4,10.02 -22.93,24.95 -19.9,49.75 -20.38,7.37 -25.38,24.15 -19.34,46.73 -24.9,18.32 -21.78,22.54 -20.23,50.98 -15.31,9.52 -24.56,22.89 -20.15,42.28 -62.19,1.9 -68.04,57.25 -33.24,78.73 42.43,26.19 364.51,106.4 364.54,106.43 14.96,31.5 28.19,54.89 70.17,58.43 59.62,5.03 316.15,0.38 388.18,0.38 78.09,0 321.66,4.58 388.3,-0.29 20.82,-1.51 35.68,-8.98 47.04,-19.35 17.27,-15.79 15.55,-23.5 26.55,-40.89 34.76,-11.11 82.98,-18.66 120.01,-28 40.53,-10.22 80.82,-21.51 119.43,-33.68 l 113.15,-39.84 c 38.21,-15.66 37.88,-79.74 -22.55,-81.75 2.19,-23.81 -3.59,-32.04 -21.69,-43.49 5.08,-26.04 0.32,-35.76 -19.83,-50.29 6.28,-19.46 3.42,-40.69 -18.47,-45.7 3.48,-26.99 3.74,-37.29 -18.53,-51.98 1.25,-11.73 2.84,-20.39 -2.29,-32.4 -4.92,-11.52 -9.6,-11.97 -18.11,-18.58 5.33,-22.06 2.2,-39.25 -19.29,-45.62 3.13,-28.61 6.89,-33.55 -18.83,-52.41 1.85,-11.42 4.25,-17.95 -0.92,-30.14 -8.21,-19.33 -6.54,-8.57 -18.96,-20.84 7.02,-20.94 -0.09,-39.63 -19.5,-45.47 4.94,-28.23 4.07,-35.38 -18.97,-52.56 3.62,-12.54 4.5,-15.15 0.17,-27.83 -5.4,-15.83 -5.49,-13.64 -19.52,-19.1 3.56,-26.19 4.48,-38.69 -19.87,-49.89 8.4,-30.13 0.36,-34.38 -18.9,-52.19 7.4,-24.69 -1.19,-38.02 -19.44,-47.59 3.69,-14.41 6.24,-15.4 -0.69,-31.23 -5.6,-12.8 -10.38,-12.01 -18.99,-19.11 6.99,-19.53 2.66,-36.22 -16.76,-47.16 -0.18,-40.57 1.64,-32.37 -21.76,-52.38 4.37,-14.52 6.53,-22.97 -5.95,-37.75 -12.67,-15.01 -7.77,1.82 -10.72,-15.33 -1.24,-7.23 3.47,-8.51 -1.88,-22.76 -11.67,-31.13 -16.29,-0.46 -17.39,-36.39 -0.73,-23.75 -7.55,-25.32 -21.32,-35.38 5.1,-21.95 1.74,-39.79 -19.36,-46.04 4.42,-28.41 3.66,-35.76 -18.87,-51.99 1.72,-11.73 3.88,-18.31 -1.01,-30.78 -7.83,-19.91 -5.52,-8.36 -18.92,-20.2 6.26,-22.92 1.08,-37.49 -19.44,-46.29 5.66,-30.55 3.24,-33.39 -19,-51.74 2.1,-10.2 3.8,-19.78 -1.13,-31.15 -9.4,-21.69 -5.41,-5.06 -18.38,-19.83 7.28,-20.67 -2.78,-37.35 -19.72,-46.96 8.14,-32.55 -1.12,-33.41 -18.88,-51.07 6.09,-19.88 1.07,-35.34 -17.78,-47.06 0.63,-11.56 2.08,-21.98 -2.34,-32.5 -7.18,-17.08 -8.14,-9.21 -19.06,-19.51 5.12,-11.71 5.93,-14.1 0.29,-28.03 -4.75,-11.74 -4.52,-6.55 -10.68,-13.57 -18.05,-20.57 9.11,-30.44 -26.85,-55.4 2.47,-23.91 -2.63,-35.86 -20.12,-50.98 6.26,-22.03 0.83,-36.03 -18.01,-47.06 0.3,-27.14 5.76,-32.99 -20.33,-50.97 4.98,-22.39 1.98,-39.82 -19.37,-46.86 2.22,-24.06 6.09,-40.17 -19.91,-49.87 6.43,-29.08 2.71,-34.7 -18.9,-52.28 5.89,-23.4 0.48,-38.94 -19.41,-47.27 8.83,-45.23 -10.39,-35.62 -20.32,-54.69 1.76,-18.88 11.79,-9.59 12.74,-42.9 1.14,-40.44 -5.16,-146.35 -0.17,-172.77 4.67,-11.94 10.17,-9.69 22.19,-15.86 75.5,-38.73 65.3,-152.86 -6.88,-184.81 -85.81,-37.98 -123.99,37.47 -138.79,50.93 -16.63,15.12 -59.54,36.51 -80.55,48.79 -331.62,193.85 -632.84,337.91 -996.87,124.21 -155.74,-91.43 -272.17,-156.24 -493.17,-173.64 -5.49,-38.94 1.91,-67.06 -22.71,-90.9 -21.25,-20.58 -55.46,-21.91 -50.97,-62.06 7.18,-64.3 37.84,-167.04 -22.3,-185.05 -3.93,-53.03 -39.27,-111.13 -89.2,-68.07 -22.76,19.63 -18.38,34.42 -29.93,60.03 -12.52,27.74 -29.94,10.44 -30.46,64.94 -0.39,40.03 23.85,145.03 5.32,161.18 -15.96,13.9 -37.84,18 -51.71,38.54 -14.07,20.84 -10.65,54.41 -13.53,80.51 z"
     id="path39" /><g
     id="g45">
    <path
   style="fill:#305298;fill-rule:nonzero"
   inkscape:connector-curvature="0"
   class="fil5"
   d="m 6904.49,9275.81 c 23.64,-9.35 41.78,-20.4 54.42,-33.11 12.62,-12.71 21.18,-26.97 25.65,-42.79 4.43,-15.79 5.09,-33.09 1.92,-51.93 -3.17,-18.83 -9.01,-38.96 -17.5,-60.34 l -35.05,-88.45 c -7.17,-18.07 -14.22,-36.47 -21.11,-55.2 -6.89,-18.74 -13.53,-37.56 -19.97,-56.48 -0.57,-1.41 -1.57,-1.96 -3.08,-1.64 -1.46,0.29 -2.17,1.25 -2.08,2.87 1.08,6.71 1.42,14.01 1.05,21.89 -0.36,7.82 -1.71,15.24 -4.04,22.25 -2.32,6.96 -5.68,13.37 -10.06,19.21 -4.36,5.89 -10.02,10.18 -16.98,12.94 l -385.54,152.85 c -11.11,4.4 -20.58,7.89 -28.43,10.45 -7.83,2.53 -14.95,3.44 -21.41,2.71 -6.45,-0.73 -12.64,-3.79 -18.5,-9.17 -5.89,-5.39 -12.12,-13.62 -18.69,-24.78 -1.03,-1.26 -2.28,-1.44 -3.83,-0.55 -1.51,0.87 -2.01,2.03 -1.44,3.47 3.9,11.11 7.98,22.13 12.32,33.06 4.34,10.96 8.67,21.89 13.01,32.82 l 43.26,109.15 c 0.55,1.41 1.76,1.78 3.63,1.02 1.85,-0.73 2.51,-1.8 1.94,-3.22 -8.15,-23.2 -9.33,-41.44 -3.6,-54.72 5.72,-13.28 19.46,-24.21 41.21,-32.83 l 414.72,-164.44 c 14.59,15.15 25.08,30.78 31.5,46.96 6.96,17.59 9.28,34.96 6.98,52.12 -2.31,17.14 -7.92,33.11 -16.77,47.92 -8.86,14.79 -20.2,27.82 -33.96,39.05 -13.74,11.22 -28.52,19.99 -44.25,26.22 -17.59,6.98 -34.91,10.68 -51.89,11.06 -17,0.41 -32.81,-2.37 -47.53,-8.39 -14.7,-6.01 -27.89,-15.23 -39.5,-27.66 -11.67,-12.46 -21.16,-27.96 -28.48,-46.49 -1.14,-2.85 -2.29,-5.7 -3.4,-8.55 -0.94,-2.4 -1.76,-5.09 -2.42,-8.13 -0.09,-1.62 -1.12,-2.19 -3.08,-1.69 -1.97,0.51 -2.86,1.58 -2.74,3.18 1.94,15.74 5.54,30.26 10.82,43.56 8.69,21.88 21.38,40.09 38.13,54.63 16.77,14.56 35.41,25.44 55.97,32.7 20.54,7.26 42.08,10.86 64.56,10.75 22.46,-0.12 43.88,-4.2 64.24,-12.28 z m 42.24,462.44 c 28.27,-14.69 52.48,-34.04 72.59,-58.03 20.1,-23.98 34.73,-50.16 43.81,-78.52 9.15,-28.39 12.42,-57.76 9.84,-88.13 -2.58,-30.35 -12.51,-59.49 -29.81,-87.4 l -5.27,-8.49 c -23.36,-28.8 -46.02,-51.62 -67.98,-68.48 -21.93,-16.84 -44.52,-27.89 -67.7,-33.11 -23.23,-5.25 -48.02,-4.91 -74.42,1.03 -26.38,5.91 -55.72,17.25 -87.99,34 -21.25,11.02 -39,28.2 -53.29,51.45 -14.3,23.28 -24.69,48.7 -31.12,76.27 -6.44,27.56 -8.81,55.45 -7.1,83.66 1.74,28.2 8.15,52.98 19.24,74.32 13.42,25.85 30.67,48.19 51.64,67 20.97,18.78 44.02,32.88 69.12,42.33 25.12,9.45 51.39,13.8 78.84,13.12 27.41,-0.71 53.93,-7.71 79.6,-21.02 z m -23.05,-45.98 c -21.22,11.02 -42.92,18.39 -65.1,22.16 -22.23,3.74 -43.61,3.31 -64.22,-1.23 -20.63,-4.59 -39.87,-13.49 -57.67,-26.7 -17.82,-13.24 -32.72,-31.42 -44.74,-54.56 -12.76,-24.54 -18.65,-49.13 -17.69,-73.85 0.91,-24.67 6.62,-48.26 17.12,-70.72 10.51,-22.47 24.85,-42.72 42.94,-60.79 18.14,-18.05 38.27,-32.81 60.38,-44.29 21.23,-11.02 42.93,-18.14 65.13,-21.29 22.23,-3.2 43.7,-2.4 64.42,2.42 20.77,4.79 39.87,14.03 57.35,27.7 17.5,13.71 32.26,32.13 44.27,55.27 12.73,24.53 18.69,48.95 17.86,73.3 -0.84,24.34 -6.52,47.48 -17.04,69.37 -10.5,21.88 -24.9,41.76 -43.13,59.6 -18.28,17.82 -38.2,32.36 -59.88,43.61 z m 287.53,376.14 c 22.75,-16.18 41.12,-35.67 55.13,-58.51 14.01,-22.87 23.07,-47.03 27.2,-72.59 4.15,-25.56 3.15,-51.66 -3.01,-78.36 -6.18,-26.73 -17.85,-52.15 -35.05,-76.31 -5.64,-7.92 -11.59,-16.07 -17.87,-24.49 -6.27,-8.4 -12.69,-16.27 -19.1,-23.62 -6.75,-7.76 -13.3,-15.65 -19.62,-23.68 -6.35,-8.08 -12.49,-16.27 -18.42,-24.6 -4.72,-6.67 -9.58,-13.9 -14.51,-21.68 -4.96,-7.81 -9.43,-14.97 -13.47,-21.5 -3.47,-5.7 -6.84,-11.13 -10.2,-16.29 -3.37,-5.14 -6.98,-10.41 -10.86,-15.84 -2.05,-2.9 -3.7,-2.67 -4.95,0.73 -1.14,2.69 -1.23,5.59 -0.25,8.65 0.96,3.08 2.28,6.23 3.95,9.45 2.76,5.57 4.58,11.8 5.49,18.69 0.92,6.87 -3.28,13.64 -12.59,20.28 l -251.45,178.93 c -13.01,9.27 -23.87,14.63 -32.59,16.11 -8.74,1.51 -19.4,-3.62 -32.01,-15.33 -1.31,-0.98 -2.58,-0.84 -3.86,0.36 -1.26,1.24 -1.44,2.45 -0.57,3.7 9.01,11.82 17.48,24.14 25.42,37.01 7.94,12.88 15.79,25.65 23.6,38.32 6.89,11.41 14.01,23.14 21.35,35.19 7.35,12.02 14.86,23.46 22.6,34.32 20.76,29.16 43.28,53.3 67.59,72.43 24.3,19.12 49.77,32.08 76.31,38.91 26.56,6.84 54.33,7.18 83.27,1.02 28.93,-6.16 58.44,-19.92 88.47,-41.3 z m -47.31,-30.37 c -23.11,16.45 -46.09,27.15 -68.87,32.06 -22.82,4.93 -44.88,4.63 -66.22,-0.89 -21.36,-5.52 -41.71,-15.68 -61.11,-30.44 -19.37,-14.77 -37.24,-33.64 -53.56,-56.55 -8.01,-11.25 -14.4,-21.31 -19.17,-30.17 -4.74,-8.83 -7.25,-17.27 -7.44,-25.31 -0.2,-8.01 2.17,-15.81 7.15,-23.43 4.97,-7.62 13.32,-15.61 25.12,-23.99 l 241.71,-172.03 c 8.46,5.91 16.08,12.73 22.84,20.49 6.73,7.76 13.08,15.79 19.01,24.14 17.8,25.01 30.42,50.71 37.88,77.09 7.51,26.4 9.56,52.07 6.23,77.04 -3.33,24.96 -11.89,48.81 -25.7,71.51 -13.8,22.69 -33.11,42.84 -57.87,60.48 z m 117.21,312.19 -2.93,-5.61 c -15.44,8.03 -30.76,10.36 -45.95,6.96 -15.2,-3.4 -28.67,-11.84 -40.44,-25.35 -8.72,-10.02 -15.52,-22.23 -20.47,-36.61 -4.91,-14.35 -5.75,-28.04 -2.53,-41.03 l 116.08,-101.09 15.11,17.34 c 2.69,3.11 6.57,7.54 11.61,13.31 5.02,5.79 9.88,11.91 14.52,18.39 4.65,6.46 8.76,12.73 12.36,18.74 3.61,6.02 5.3,10.84 5.09,14.37 -0.18,3.59 -1.07,6.73 -2.67,9.47 -1.59,2.72 -3.15,5.46 -4.72,8.22 -1.6,2.71 -3.08,5.18 -4.45,7.39 -1.37,2.22 -2.17,5.11 -2.37,8.7 -0.05,1.41 0.52,2.44 1.71,3.08 1.21,0.64 2.39,0.45 3.51,-0.53 5.2,-3.15 10.38,-6.64 15.61,-10.52 5.2,-3.88 10.43,-7.39 15.61,-10.54 5.18,-3.15 10.66,-6.73 16.41,-10.73 5.75,-4.01 11.04,-7.78 15.9,-11.31 2.24,-1.97 2.17,-3.59 -0.27,-4.87 -4.82,-3.26 -10.2,-6.02 -16.16,-8.3 -3.79,-2.12 -7.62,-4.2 -11.43,-6.32 -3.83,-2.1 -6.57,-4.11 -8.26,-6.05 l -58.47,-67.11 115.54,-100.61 39.8,45.7 c 10.75,12.35 17.77,24.56 21.01,36.65 3.27,12.07 -1.34,24.24 -13.8,36.44 -1.14,1.01 -1.21,2.24 -0.23,3.77 0.98,1.51 2.24,1.96 3.7,1.37 10.29,-5.59 20.47,-11.21 30.39,-16.84 9.98,-5.62 20.36,-12.12 31.13,-19.44 2.26,-1.97 2.19,-3.61 -0.25,-4.86 -2.1,-0.92 -4.2,-1.97 -6.25,-3.22 -2.1,-1.26 -4.16,-2.31 -6.28,-3.2 l -143.63,-164.92 c -1,-1.14 -2.05,-1.41 -3.17,-0.77 -1.09,0.61 -1.71,1.62 -1.78,3.06 0.82,4.72 2.03,8.94 3.58,12.66 1.58,3.7 3.04,7.03 4.27,10.02 2.21,5.54 3.77,11.14 4.7,16.77 0.94,5.62 -2.35,11.71 -9.88,18.26 l -234.4,204.17 c -4.89,4.26 -9.93,8.14 -15.13,11.66 -5.21,3.49 -10.52,5.91 -15.95,7.28 -5.43,1.32 -10.96,1.23 -16.62,-0.3 -5.61,-1.53 -10.95,-5.2 -15.99,-11 l -4.5,3.95 c 9.43,10.06 18.85,20.33 28.3,30.78 9.42,10.45 18.66,20.88 27.75,31.29 6.73,7.71 13.19,15.33 19.37,22.82 6.18,7.48 12.67,15.08 19.37,22.82 7.74,8.85 15.45,17.89 23.17,27.13 7.71,9.22 15.4,18.28 23.14,27.16 1.66,1.94 4.42,3.94 8.26,6.04 l 1.07,0.12 c 1.32,1.53 2.56,1.8 3.7,0.8 9.65,-6.35 18.98,-12.49 28.09,-18.35 9.08,-5.89 18.8,-11.62 29.12,-17.21 z m 272.35,355.65 2.44,-5.91 c -12.51,-9.13 -21.63,-21.43 -27.45,-36.88 -5.78,-15.47 -9.27,-32.56 -10.52,-51.28 -1.26,-18.73 -1.03,-38.08 0.71,-58.09 1.71,-20.02 3.65,-39.3 5.77,-57.92 1.3,-12.48 2.74,-24.37 4.24,-35.62 1.56,-11.28 2.33,-21 2.38,-29.21 22.86,0.43 46.59,-2.44 71.19,-8.65 24.58,-6.16 45.12,-17.94 61.59,-35.28 12.33,-12.98 20.41,-26.65 24.13,-40.98 3.71,-14.31 4.06,-28.41 1.04,-42.29 -3.01,-13.9 -8.83,-27.47 -17.38,-40.75 -8.56,-13.31 -18.58,-25.38 -30.06,-36.31 l -109.6,-104.15 c -1.1,-1.05 -2.35,-1.03 -3.72,0.05 -1.39,1.09 -1.71,2.35 -0.94,3.76 6.46,10.27 9.77,21.47 9.89,33.59 0.09,12.14 -3.77,22.36 -11.67,30.67 l -205.42,216.13 c -7.92,8.3 -17.87,13.6 -29.94,15.88 -12.07,2.28 -23.69,1.53 -34.91,-2.26 -1.81,-0.34 -3.01,0.41 -3.65,2.19 -0.67,1.8 -0.23,3.04 1.21,3.74 9.56,7.01 18.66,13.95 27.33,20.79 8.65,6.89 17.23,14.38 25.77,22.48 8.53,8.1 16.7,16.36 24.53,24.85 7.83,8.49 15.65,17.11 23.53,25.95 l 4.1,-4.34 c -9.72,-11.32 -14.33,-23.73 -13.78,-37.31 0.57,-13.58 5.82,-25.58 15.77,-36.06 l 73.11,-76.9 c 3.63,2.08 6.78,4.36 9.38,6.83 2.97,2.83 5.91,5.63 8.9,8.46 9.97,9.49 17.28,19.88 21.79,31.06 4.57,11.18 7.42,23 8.63,35.51 1.19,12.48 1.14,25.14 -0.14,37.99 -1.3,12.87 -2.96,25.58 -4.97,38.06 -2.33,13.61 -4.22,27.3 -5.66,41.06 -1.42,13.74 -1.51,27.06 -0.32,39.89 1.21,12.82 4.38,25.46 9.52,37.9 5.13,12.44 13.23,23.92 24.37,34.5 6.66,6.35 14.19,11.96 22.61,16.84 8.38,4.91 17.12,8.9 26.2,12.01 z m 51.8,-336.32 c -18.53,19.51 -37.01,30.97 -55.43,34.41 -18.48,3.43 -38.09,-4.72 -58.83,-24.46 -6.3,-5.98 -12.25,-12 -17.84,-17.98 -5.6,-6 -11.03,-12.53 -16.3,-19.6 l 128.2,-134.89 c 5.8,2.08 11.19,4.95 16.14,8.65 4.95,3.69 9.7,7.64 14.12,11.86 10.75,10.23 17.87,21.66 21.41,34.28 3.51,12.62 4.45,25.37 2.8,38.24 -1.64,12.87 -5.54,25.33 -11.66,37.36 -6.16,12.03 -13.69,22.73 -22.61,32.13 z m 558.06,169.82 2.85,-5.31 -19.42,-13.79 -49.43,-35.07 -25.67,-18.23 c -8.31,-5.91 -16.73,-12.01 -25.1,-18.28 -8.42,-6.28 -16.94,-13.08 -25.54,-20.4 -1.23,-0.89 -2.44,-0.96 -3.58,-0.25 -1.14,0.73 -1.37,1.94 -0.69,3.63 2.58,6.09 5.21,11.02 7.85,14.76 2.72,3.72 5.44,7.19 8.2,10.38 2.46,3.56 4.86,7.26 7.18,11.07 2.33,3.77 3.98,7.67 4.89,11.68 0.91,4.02 0.8,8.38 -0.34,13.06 -1.14,4.7 -3.72,9.9 -7.76,15.58 l -256.06,360.74 c -15.59,21.93 -30.9,40.23 -46.03,54.86 -15.08,14.62 -31.17,26.72 -48.31,36.26 -17.11,9.54 -35.6,17.2 -55.36,23 -19.83,5.79 -42.56,10.88 -68.25,15.27 -1.72,0.61 -2.58,1.82 -2.61,3.65 -0.04,1.8 0.87,2.76 2.7,2.8 24.41,4.52 49.49,6.3 75.28,5.34 25.76,-0.96 50.52,-4.9 74.3,-11.89 23.76,-6.93 46.1,-17.2 67,-30.76 20.95,-13.57 38.88,-30.9 53.88,-52.03 l 260.85,-367.44 c 9.79,-13.81 20.29,-20.24 31.54,-19.28 11.27,0.96 23.82,4.49 37.63,10.65 z m 302.54,273.98 2.3,-5.57 c -7.73,-5 -15.65,-9.7 -23.8,-14.06 -8.1,-4.36 -15.93,-8.71 -23.46,-13.03 -3.53,-2.03 -7.25,-4.01 -11.15,-5.95 -3.93,-1.96 -7.63,-3.95 -11.16,-5.98 -12.01,-6.89 -23.83,-14.54 -35.51,-22.94 -1.35,-0.77 -2.56,-0.45 -3.63,0.92 -1.09,1.39 -1.09,2.67 -0.02,3.88 11.18,9.28 18.41,18.75 21.75,28.41 3.3,9.63 1.36,20.72 -5.82,33.27 l -110.91,196.55 c -8.67,15.12 -19.05,27.26 -31.08,36.44 -12.02,9.17 -25.19,15.4 -39.48,18.73 -14.28,3.29 -29.21,3.63 -44.81,0.98 -15.59,-2.62 -30.9,-8.23 -46.03,-16.91 -14.61,-8.39 -26.88,-18.57 -36.86,-30.6 -9.9,-12 -17.09,-24.87 -21.61,-38.65 -4.47,-13.76 -5.86,-28.05 -4.15,-42.88 1.71,-14.81 6.78,-29.55 15.22,-44.25 l 115.06,-197.62 c 4.45,-7.78 12.28,-12.91 23.43,-15.4 11.16,-2.51 21.27,-3.45 30.38,-2.83 1.82,-0.11 2.9,-0.94 3.17,-2.51 0.3,-1.53 -0.18,-2.69 -1.55,-3.45 -7.33,-3.65 -14.36,-7.37 -21,-11.18 -6.64,-3.81 -13.53,-7.76 -20.63,-11.84 -24.87,-14.24 -49.54,-29.28 -74.11,-45.07 -1.33,-0.75 -2.54,-0.46 -3.61,0.94 -1.12,1.39 -1.12,2.67 -0.02,3.87 10.24,9.89 17.3,19.4 21.22,28.53 3.9,9.13 2.26,19.97 -4.93,32.49 l -37.54,65.47 c -5.2,9.09 -10.97,18.97 -17.41,29.65 -6.41,10.68 -12.85,21.63 -19.3,32.86 -5.46,9.51 -10.77,19.1 -16,28.73 -5.23,9.63 -10.06,18.5 -14.42,26.61 -4.36,8.12 -8.01,15.54 -10.91,22.18 -2.94,6.66 -4.59,11.86 -5.02,15.65 -3.31,17.07 -3.4,34.5 -0.37,52.33 3.04,17.82 8.4,34.98 16.09,51.41 7.65,16.47 17.48,31.44 29.51,44.93 12.02,13.51 25.78,24.69 41.32,33.61 21.32,12.19 42.68,19.42 64.11,21.66 21.4,2.24 41.89,0.21 61.43,-6.12 19.53,-6.32 37.72,-16.4 54.56,-30.3 16.79,-13.92 30.9,-30.81 42.31,-50.68 l 99.6,-173.73 c 5.21,-9.1 12.97,-15.4 23.26,-18.99 10.31,-3.58 20.83,-3.4 31.58,0.44 z m 294.46,315.78 c 10.16,-25.99 14.84,-52.35 14.04,-79.16 -0.82,-26.79 -6.46,-51.99 -17,-75.63 -10.54,-23.64 -25.7,-44.93 -45.48,-63.87 -19.81,-18.99 -43.5,-33.84 -71.13,-44.64 -9.06,-3.53 -18.53,-7.07 -28.37,-10.68 -9.88,-3.58 -19.53,-6.66 -28.91,-9.28 -9.92,-2.79 -19.71,-5.82 -29.41,-9.06 -9.72,-3.29 -19.35,-6.78 -28.87,-10.5 -7.62,-2.97 -15.65,-6.37 -24.05,-10.15 -8.38,-3.84 -16.07,-7.38 -23.03,-10.62 -6.02,-2.89 -11.84,-5.56 -17.45,-8.03 -5.66,-2.46 -11.55,-4.9 -17.76,-7.32 -3.31,-1.28 -4.58,-0.19 -3.76,3.33 0.55,2.87 2.05,5.36 4.54,7.39 2.49,2.06 5.32,3.95 8.46,5.73 5.37,3.15 10.32,7.37 14.86,12.62 4.54,5.25 4.75,13.21 0.57,23.87 l -112.27,287.48 c -5.8,14.86 -11.94,25.29 -18.42,31.31 -6.48,6.05 -18.21,7.62 -35.19,4.72 -1.62,-0.11 -2.62,0.71 -3.03,2.45 -0.37,1.71 0.16,2.82 1.55,3.37 14.01,4.98 27.86,10.64 41.56,17.05 13.66,6.41 27.27,12.8 40.73,19.12 12,5.75 24.39,11.66 37.15,17.71 12.73,6.05 25.31,11.5 37.7,16.34 33.34,13.01 65.42,20.86 96.23,23.53 30.83,2.69 59.19,-0.41 85.18,-9.27 25.97,-8.83 49.39,-23.75 70.2,-44.77 20.83,-21.02 37.97,-48.7 51.36,-83.04 z m -56.2,0.52 c -10.34,26.45 -23.66,47.99 -40.05,64.58 -16.38,16.59 -35,28.46 -55.88,35.53 -20.88,7.1 -43.48,9.77 -67.82,8.04 -24.31,-1.74 -49.55,-7.74 -75.79,-17.96 -12.82,-5.02 -23.71,-9.93 -32.54,-14.72 -8.83,-4.79 -15.54,-10.48 -20.1,-17.09 -4.57,-6.6 -6.85,-14.43 -6.87,-23.53 0,-9.11 2.6,-20.38 7.87,-33.82 l 107.91,-276.37 c 10.34,0.3 20.41,1.83 30.33,4.61 9.88,2.83 19.58,6.07 29.12,9.79 28.59,11.16 53.24,25.74 73.96,43.72 20.7,17.96 36.53,38.32 47.42,61.02 10.91,22.71 16.79,47.35 17.68,73.91 0.89,26.54 -4.2,53.97 -15.24,82.29 z m 147.92,242.46 1.64,-5.75 c -17.3,-6.48 -28.36,-14.72 -33.23,-24.64 -4.88,-9.95 -4.7,-24.01 0.51,-42.22 l 84.7,-296.02 c 3.56,-12.43 9.13,-19.37 16.73,-20.83 7.62,-1.46 17.16,-1.83 28.66,-1.14 1.62,-0.05 2.47,-1.12 2.51,-3.17 0.05,-2.06 -0.73,-3.06 -2.35,-2.99 -10.24,-1.4 -20.6,-3.31 -31.08,-5.78 -10.45,-2.49 -20.86,-5.2 -31.17,-8.14 -10.82,-3.11 -21.34,-6.37 -31.49,-9.82 -10.22,-3.42 -20.33,-7.09 -30.4,-11 -1.48,-0.43 -2.55,0.16 -3.28,1.76 -0.73,1.62 -0.46,2.88 0.91,3.77 9.9,4.38 18.07,9.83 24.44,16.34 6.39,6.48 8.03,15.22 4.88,26.24 l -85.32,298.16 c -3.56,12.46 -9.45,22.3 -17.64,29.55 -8.19,7.24 -19.05,11.25 -32.59,12.03 -1.62,0.07 -2.53,0.96 -2.76,2.74 -0.23,1.73 0.39,2.8 1.85,3.21 13.44,3.34 26.56,6.71 39.41,10.14 12.87,3.42 25.92,7.02 39.2,10.84 9.34,2.67 18.56,5.4 27.59,8.26 8.99,2.83 18.46,5.66 28.28,8.46 z m 416.71,16.52 c 0.8,-3.4 1.39,-6.59 1.8,-9.56 0.41,-2.96 0.73,-5.95 0.89,-8.99 -0.16,-1.55 -0.8,-2.74 -1.94,-3.51 -1.14,-0.78 -2.37,-0.55 -3.72,0.68 -9.72,12.6 -19.1,23.23 -28.18,31.86 -9.06,8.65 -18.83,15.24 -29.32,19.74 -10.48,4.47 -21.96,7.07 -34.46,7.8 -12.48,0.71 -26.72,-0.77 -42.67,-4.45 -28.44,-6.52 -53.29,-18.23 -74.6,-35.14 -21.32,-16.89 -38.52,-36.83 -51.62,-59.77 -13.12,-22.93 -21.7,-47.78 -25.79,-74.55 -4.1,-26.74 -3.1,-53.49 3.04,-80.19 5.79,-25.23 15.2,-47.23 28.16,-65.97 12.94,-18.76 28.73,-33.66 47.28,-44.75 18.53,-11.07 39.34,-18.18 62.34,-21.33 23.05,-3.13 47.54,-1.74 73.44,4.22 15.47,3.56 29.82,8.99 43.08,16.41 13.28,7.37 24.58,16.36 33.98,26.97 9.36,10.59 16.54,22.82 21.47,36.74 4.93,13.89 6.83,29.16 5.64,45.75 0.16,1.58 1,2.53 2.49,2.88 1.48,0.34 2.64,-0.16 3.49,-1.51 6.16,-15.45 12.16,-31.31 18,-47.62 5.85,-16.3 11.23,-32.8 16.11,-49.57 0.44,-1.96 -0.32,-3.13 -2.32,-3.6 -9.25,-3.15 -18.46,-6.42 -27.66,-9.82 -9.2,-3.37 -18.6,-6.93 -28.25,-10.7 -12.51,-4.91 -25.22,-9.63 -38.09,-14.1 -12.87,-4.5 -26.31,-8.33 -40.25,-11.55 -34.39,-7.89 -66.52,-10.27 -96.37,-7.19 -29.85,3.13 -56.71,11.53 -80.6,25.22 -23.85,13.67 -44.22,32.65 -61.09,56.89 -16.84,24.26 -29.23,53.6 -37.15,88.08 -6.68,29.14 -7.57,57.05 -2.67,83.73 4.89,26.67 14.56,50.89 28.98,72.59 14.45,21.7 33.25,40.37 56.46,55.88 23.21,15.57 49.75,26.77 79.66,33.64 23.94,5.5 47.9,9.72 71.88,12.66 24.01,2.97 48.41,5.23 73.23,6.87 1.51,0.35 2.35,0.03 2.58,-0.96 7.81,-8.92 14.58,-18.87 20.24,-29.84 5.66,-10.96 9.84,-22.28 12.51,-33.94 z m 156.47,93.15 0.78,-5.93 c -18.07,-3.86 -30.26,-10.34 -36.54,-19.44 -6.29,-9.11 -8.19,-23.05 -5.77,-41.83 l 39.87,-305.31 c 1.69,-12.82 6.16,-20.53 13.46,-23.09 7.3,-2.58 16.71,-4.36 28.16,-5.36 1.62,-0.3 2.26,-1.48 2.03,-3.52 -0.25,-2.03 -1.19,-2.92 -2.76,-2.62 -10.36,0.16 -20.86,-0.21 -31.58,-1.1 -10.73,-0.89 -21.43,-2.05 -32.06,-3.42 -11.16,-1.46 -22.02,-3.15 -32.61,-5.02 -10.61,-1.89 -21.16,-4.04 -31.7,-6.39 -1.48,-0.2 -2.51,0.55 -2.97,2.24 -0.5,1.69 0,2.9 1.46,3.58 10.46,2.88 19.33,7.03 26.61,12.53 7.26,5.45 10.2,13.87 8.72,25.21 l -40.16,307.52 c -1.67,12.85 -6.03,23.46 -13.06,31.86 -7.03,8.37 -17.2,13.94 -30.44,16.73 -1.6,0.29 -2.37,1.32 -2.33,3.1 0.05,1.76 0.8,2.74 2.31,2.92 13.78,1.3 27.25,2.69 40.5,4.18 13.22,1.46 26.66,3.1 40.37,4.88 9.61,1.26 19.13,2.62 28.48,4.11 9.33,1.46 19.1,2.85 29.23,4.17 z m 448.52,18.37 0.14,-5.95 c -12.25,-1.28 -23.07,-4.52 -32.43,-9.7 -9.35,-5.2 -16.97,-13.58 -22.84,-25.17 -27.97,-54.43 -52.76,-110.01 -74.3,-166.79 -21.49,-56.8 -42.17,-113.3 -61.91,-169.53 -2.39,-7.05 -4.93,-13.94 -7.6,-20.74 -2.67,-6.78 -5.2,-13.69 -7.6,-20.7 -0.48,-1.53 -1.5,-2.3 -3.01,-2.33 -1.55,-0.04 -2.6,0.69 -3.13,2.19 -10.26,24.67 -20.01,49.25 -29.23,73.74 -9.24,24.46 -18.73,49.03 -28.48,73.73 -14.1,36.58 -28.48,72.88 -43.06,108.94 -14.6,36.07 -29.71,72.08 -45.34,108.14 l 0.02,-0.75 c -11.82,25.17 -31.83,39.18 -60.01,42.05 -1.58,0.48 -2.24,1.69 -2.01,3.68 0.23,2.01 1.09,2.78 2.62,2.32 10.25,-0.79 20.52,-1.43 30.74,-1.96 10.27,-0.52 20.49,-0.66 30.72,-0.45 10.24,0.22 20.47,0.82 30.67,1.8 10.22,0.96 20.15,2.05 29.84,3.26 l 0.16,-5.98 c -6.11,-1.14 -12.5,-2.89 -19.07,-5.27 -6.62,-2.37 -9.84,-7.3 -9.66,-14.79 0.12,-5.47 2.08,-14.26 5.94,-26.4 3.85,-12.12 8.24,-24.99 13.14,-38.59 4.86,-13.57 9.91,-26.69 15.04,-39.29 5.13,-12.58 9.04,-22.09 11.75,-28.5 l 118.89,2.6 c 8.22,24.1 16.78,47.55 25.74,70.42 8.95,22.89 17.53,46.1 25.7,69.71 l -30.21,13.56 c -1.56,0.93 -2.1,2.19 -1.6,3.67 0.45,1.53 1.46,2.31 2.99,2.33 11.8,-0.75 23.57,-1.48 35.37,-2.21 11.77,-0.76 23.55,-1.01 35.32,-0.73 4.61,0.09 9.09,0.32 13.42,0.68 4.34,0.34 8.54,0.8 12.62,1.39 7.17,0.64 13.92,1.28 20.31,1.92 6.39,0.64 13.14,0.55 20.35,-0.3 z m -170.96,-185.36 -98.95,-2.17 c 10.29,-26.68 19.67,-52.51 28.16,-77.47 8.47,-25.01 17.37,-50.57 26.61,-76.79 z m 457.6,91.89 -6.25,-1.02 c -7.32,18.02 -18.78,33.02 -34.25,44.93 -15.54,11.93 -32.98,18.64 -52.37,20.13 -19.88,1.5 -37.02,-2.83 -51.39,-12.97 -14.38,-10.15 -22.34,-25.67 -23.92,-46.52 l -21.08,-277.2 c -0.8,-10.42 2.87,-19.55 11,-27.43 8.1,-7.85 17.45,-13.19 28.04,-16.01 1.48,-0.6 2.01,-1.78 1.64,-3.5 -0.38,-1.71 -1.37,-2.51 -2.87,-2.39 -27.43,3.58 -54.43,6.39 -80.92,8.42 -9.7,0.73 -19.15,1.44 -28.34,2.14 -9.18,0.71 -18.62,1.17 -28.37,1.4 l 0.44,5.97 c 12.32,-0.43 22.79,2.49 31.47,8.84 8.71,6.34 13.5,15.44 14.39,27.38 l 23.05,303.27 c 0.37,4.48 0,9.75 -1.09,15.82 -1.05,6.07 -2.95,11.84 -5.62,17.29 -2.64,5.46 -6.14,10.09 -10.47,13.92 -4.31,3.82 -9.29,6.19 -14.86,7.12 -1.5,0.12 -2.21,1.17 -2.07,3.15 0.16,1.99 1,2.92 2.53,2.81 2.53,-0.18 5.23,-0.5 8.01,-0.98 2.78,-0.46 5.48,-0.8 8.01,-0.98 16.79,-1.78 33.59,-3.54 50.36,-5.32 16.84,-1.78 33.64,-3.31 50.46,-4.61 20.92,-1.57 41.48,-2.78 61.7,-3.56 20.2,-0.77 40.57,-0.96 61.14,-0.52 0,0 0.73,-0.44 2.19,-1.3 1.48,-0.87 2.14,-2.04 2.03,-3.52 -0.12,-1.5 -0.44,-2.46 -0.98,-2.92 4.33,-10.34 6.75,-20.63 7.28,-30.92 0.5,-10.27 0.84,-20.9 1.02,-31.9 -0.11,-1.51 -0.09,-2.99 0.05,-4.52 0.13,-1.51 0.13,-3.01 0.04,-4.5 z"
   id="path41" />
    <path
   style="fill:#305298;fill-rule:nonzero"
   inkscape:connector-curvature="0"
   class="fil5"
   d="m 10742.45,11163.03 c -6.28,-27.21 -17.3,-51.62 -33.07,-73.3 -15.77,-21.66 -34.66,-39.27 -56.71,-52.85 -22.02,-13.58 -46.55,-22.62 -73.57,-27.11 -27.04,-4.5 -54.99,-3.43 -83.91,3.26 -9.47,2.19 -19.28,4.59 -29.46,7.17 -10.15,2.6 -19.87,5.52 -29.09,8.65 -9.77,3.28 -19.58,6.32 -29.42,9.1 -9.85,2.78 -19.78,5.32 -29.73,7.62 -7.96,1.85 -16.52,3.56 -25.63,5.16 -9.06,1.6 -17.41,2.99 -24.96,4.22 -6.62,1.03 -12.92,2.1 -18.96,3.24 -6.05,1.14 -12.3,2.47 -18.79,3.95 -3.46,0.82 -3.9,2.42 -1.23,4.88 2.08,2.08 4.7,3.27 7.9,3.54 3.24,0.3 6.64,0.27 10.24,-0.05 6.21,-0.43 12.67,0.28 19.38,2.03 6.71,1.78 11.36,8.27 13.94,19.42 l 69.44,300.7 c 3.58,15.54 4.41,27.63 2.42,36.26 -1.94,8.65 -10.72,16.54 -26.38,23.76 -1.39,0.79 -1.78,2.03 -1.12,3.69 0.64,1.62 1.71,2.28 3.2,1.94 14.35,-3.81 28.98,-6.93 43.9,-9.38 14.93,-2.42 29.74,-4.81 44.43,-7.18 13.17,-2.01 26.7,-4.11 40.64,-6.33 13.95,-2.19 27.39,-4.77 40.37,-7.75 34.89,-8.06 65.79,-19.68 92.74,-34.85 26.97,-15.18 48.65,-33.75 65.08,-55.68 16.48,-21.95 27.41,-47.49 32.75,-76.58 5.34,-29.12 3.88,-61.64 -4.4,-97.53 z m -46.15,32.13 c 6.37,27.65 7.53,52.96 3.36,75.89 -4.15,22.96 -12.87,43.25 -26.11,60.89 -13.23,17.61 -30.39,32.56 -51.46,44.86 -21.06,12.28 -45.29,21.56 -72.7,27.91 -13.46,3.1 -25.19,5.18 -35.21,6.21 -9.97,1 -18.71,0.09 -26.22,-2.79 -7.48,-2.85 -13.78,-8.05 -18.92,-15.56 -5.15,-7.49 -9.35,-18.28 -12.62,-32.36 l -66.72,-289.08 c 8.67,-5.59 17.87,-9.99 27.61,-13.28 9.79,-3.26 19.63,-6.05 29.57,-8.35 29.94,-6.92 58.49,-8.77 85.72,-5.59 27.27,3.12 51.8,11.04 73.61,23.64 21.82,12.59 40.58,29.62 56.28,51.05 15.72,21.4 26.97,46.94 33.81,76.56 z m 334.22,14.01 -6.27,0.54 c 1.48,17.37 -2.19,32.41 -11.14,45.14 -8.92,12.74 -21.88,21.95 -38.86,27.68 -12.6,4.25 -26.47,5.89 -41.65,4.95 -15.15,-0.95 -28.13,-5.38 -38.88,-13.32 l -49.11,-145.91 21.79,-7.33 c 3.88,-1.32 9.47,-3.19 16.73,-5.63 7.28,-2.47 14.79,-4.59 22.55,-6.42 7.73,-1.8 15.08,-3.24 22.04,-4.26 6.94,-1.01 12,-0.76 15.24,0.8 3.22,1.52 5.78,3.56 7.72,6.07 1.91,2.51 3.83,4.99 5.77,7.5 1.89,2.51 3.63,4.82 5.16,6.94 1.53,2.1 3.88,3.93 7.09,5.5 1.33,0.59 2.47,0.48 3.52,-0.41 1.05,-0.87 1.34,-2.01 0.86,-3.45 -0.93,-6 -2.16,-12.11 -3.76,-18.44 -1.6,-6.29 -2.88,-12.43 -3.79,-18.43 -0.96,-5.98 -2.14,-12.42 -3.67,-19.26 -1.51,-6.85 -2.95,-13.19 -4.38,-19.03 -0.94,-2.83 -2.47,-3.36 -4.57,-1.63 -4.88,3.25 -9.49,7.15 -13.87,11.78 -3.4,2.72 -6.8,5.45 -10.2,8.17 -3.4,2.71 -6.3,4.49 -8.74,5.32 l -84.34,28.38 -48.88,-145.18 57.46,-19.32 c 15.47,-5.23 29.46,-7.05 41.87,-5.43 12.41,1.59 21.88,10.49 28.41,26.67 0.5,1.44 1.62,1.96 3.4,1.64 1.76,-0.34 2.65,-1.3 2.67,-2.87 -1.23,-11.68 -2.56,-23.21 -3.92,-34.55 -1.42,-11.36 -3.45,-23.44 -6.12,-36.19 -0.98,-2.83 -2.49,-3.38 -4.61,-1.6 -1.62,1.58 -3.4,3.1 -5.34,4.54 -1.96,1.46 -3.72,2.97 -5.36,4.57 l -207.25,69.78 c -1.44,0.5 -2.1,1.37 -1.94,2.65 0.16,1.23 0.84,2.19 2.17,2.8 4.68,1.05 9.01,1.55 13.07,1.51 4,-0.05 7.65,-0.09 10.87,-0.12 5.97,0.1 11.75,0.8 17.29,2.08 5.55,1.28 9.93,6.62 13.1,16.09 l 99.22,294.6 c 2.06,6.14 3.72,12.28 4.98,18.44 1.27,6.14 1.46,11.98 0.64,17.53 -0.83,5.52 -3.02,10.61 -6.6,15.22 -3.56,4.63 -9.01,8.17 -16.27,10.61 l 1.89,5.66 c 12.94,-4.89 26.04,-9.68 39.3,-14.4 13.23,-4.73 26.4,-9.31 39.48,-13.72 9.72,-3.26 19.21,-6.32 28.5,-9.17 9.29,-2.88 18.8,-5.93 28.5,-9.22 11.14,-3.74 22.43,-7.44 33.91,-11.02 11.48,-3.61 22.8,-7.28 33.93,-11.02 2.42,-0.83 5.37,-2.6 8.74,-5.34 l 0.51,-0.94 c 1.94,-0.64 2.64,-1.69 2.16,-3.1 -2.19,-11.34 -4.26,-22.32 -6.23,-32.98 -1.98,-10.63 -3.56,-21.81 -4.79,-33.47 z m 285.48,-609.5 c 0.02,-1.09 -0.85,-1.94 -2.56,-2.44 -1.71,-0.52 -2.76,-0.09 -3.24,1.26 -6.8,8.01 -15.63,15.7 -26.49,23.02 -10.91,7.35 -22.25,14.08 -34.05,20.22 -5,2.58 -9.93,5.02 -14.81,7.28 -4.88,2.26 -9.61,4.54 -14.13,6.89 -4.1,2.15 -8.14,4.11 -12.09,5.87 -3.99,1.8 -7.58,3.49 -10.73,5.15 l -48.37,25.11 c -41.31,21.47 -82.95,42.26 -124.96,62.39 -1.37,0.7 -1.97,1.73 -1.85,3.08 0.11,1.34 1.07,2.1 2.9,2.25 7.5,0.05 13.89,-0.47 19.12,-1.48 5.2,-1.05 9.88,-2.05 13.96,-3.06 4.55,-1.25 8.81,-2.19 12.81,-2.85 3.94,-0.64 7.82,-0.41 11.59,0.71 3.74,1.14 7.48,3.56 11.13,7.28 3.66,3.72 7.33,9.1 10.98,16.18 l 194.63,374.67 c 5.52,10.62 9.88,19.58 13.08,26.89 3.21,7.32 4.7,14.01 4.38,20.05 -0.32,6.05 -2.9,12.19 -7.78,18.35 -4.86,6.16 -12.71,13.21 -23.62,21.11 -1.12,1.14 -1.19,2.44 -0.14,3.88 1,1.41 2.21,1.78 3.58,1.07 l 8.88,-4.61 c 13.6,-7.07 26.65,-14.67 39.11,-22.84 5.89,-4.2 11.6,-7.96 17.03,-11.36 5.43,-3.38 11.36,-6.74 17.68,-10.05 12.28,-6.36 25.33,-12.3 39.18,-17.82 6.83,-2.42 13.51,-5.04 20.11,-7.89 6.59,-2.88 13.05,-5.96 19.39,-9.27 l 6.14,-3.17 -2.76,-5.32 c -7.94,4.7 -16.63,7.12 -26.06,7.26 -9.45,0.11 -18.48,-1.48 -27.15,-4.86 -8.68,-3.36 -16.62,-8.08 -23.8,-14.17 -7.19,-6.09 -12.88,-13.1 -17.01,-21.06 l -93.67,-180.37 78.32,-40.67 c 19.51,-10.15 36.74,-14.17 51.64,-12.09 14.92,2.08 27.29,13.17 37.19,33.29 0.67,1.35 1.88,1.69 3.59,1.1 1.71,-0.62 2.42,-1.69 2.19,-3.26 -4.41,-17.37 -9.66,-34.69 -15.77,-52.01 -6.12,-17.32 -12.94,-34.39 -20.54,-51.21 -0.71,-1.34 -1.71,-1.91 -3.1,-1.78 -1.33,0.14 -2.26,0.89 -2.7,2.26 -1.8,5.41 -4.49,11.59 -8.1,18.51 -3.6,6.94 -7.69,11.59 -12.23,13.94 l -124.62,64.72 -93.01,-179.07 c 7.28,-3.76 14.31,-7.99 21.13,-12.62 6.78,-4.65 13.37,-9.22 19.72,-13.62 l -0.71,0.36 c 7.71,-5.13 15.34,-10.2 22.82,-15.22 7.49,-5.02 15.31,-9.65 23.48,-13.89 19.97,-10.36 37.77,-14.4 53.38,-12.12 15.58,2.28 28.66,13.58 39.22,33.91 0.69,1.34 1.9,1.71 3.61,1.09 1.71,-0.59 2.42,-1.66 2.19,-3.24 -3.92,-14.24 -7.87,-28.18 -11.8,-41.85 -3.94,-13.69 -8.1,-27.54 -12.5,-41.53 z m 524.26,35.44 c -17.25,-26.81 -38.77,-49.1 -64.49,-66.9 -25.79,-17.8 -53.19,-29.92 -82.29,-36.38 -29.09,-6.46 -58.65,-6.98 -88.63,-1.6 -30.01,5.37 -58.08,17.96 -84.27,37.79 l -7.97,6.03 c -26.49,25.94 -47.12,50.61 -61.89,74.03 -14.74,23.41 -23.64,46.91 -26.67,70.51 -3.08,23.59 -0.46,48.26 7.92,73.98 8.33,25.72 22.31,53.9 42.03,84.48 12.94,20.1 31.67,36.19 56.16,48.26 24.49,12.1 50.77,20.06 78.84,23.94 28.02,3.86 56.02,3.61 83.93,-0.71 27.93,-4.33 51.99,-13.03 72.2,-26.03 24.51,-15.8 45.16,-35.01 61.94,-57.65 16.77,-22.63 28.66,-46.87 35.73,-72.75 7.08,-25.9 9.02,-52.44 5.75,-79.68 -3.24,-27.27 -12.66,-53.04 -28.29,-77.32 z m -43.66,27.18 c 12.96,20.11 22.32,41.05 28.12,62.8 5.77,21.75 7.34,43.11 4.7,64.03 -2.63,20.98 -9.7,40.94 -21.22,59.88 -11.53,18.99 -28.26,35.53 -50.19,49.66 -23.2,14.95 -47.19,23.09 -71.85,24.44 -24.67,1.39 -48.7,-2.12 -72.05,-10.5 -23.32,-8.4 -44.81,-20.76 -64.46,-37.13 -19.67,-16.38 -36.26,-35.05 -49.73,-55.97 -12.94,-20.13 -22.04,-41.08 -27.24,-62.92 -5.25,-21.81 -6.44,-43.26 -3.56,-64.35 2.85,-21.11 10.27,-40.98 22.27,-59.65 12.03,-18.71 29,-35.12 50.91,-49.22 23.25,-14.95 47.01,-23.14 71.33,-24.58 24.33,-1.44 47.9,2.08 70.68,10.52 22.75,8.44 43.86,20.93 63.32,37.45 19.44,16.52 35.76,35 48.97,55.54 z m 482.32,-161.63 -5.68,-2.97 c -10.2,11.64 -23.25,19.63 -39.18,24.01 -15.93,4.36 -33.27,6.32 -52.01,5.89 -18.78,-0.41 -38.04,-2.4 -57.8,-5.91 -19.79,-3.49 -38.84,-7.17 -57.16,-10.96 -12.33,-2.42 -24.03,-4.9 -35.1,-7.44 -11.09,-2.53 -20.72,-4.19 -28.89,-4.97 2.49,-22.73 1.76,-46.64 -2.21,-71.68 -3.93,-25.03 -13.81,-46.55 -29.6,-64.51 -11.85,-13.46 -24.74,-22.7 -38.68,-27.7 -13.9,-5 -27.93,-6.62 -42.01,-4.84 -14.11,1.76 -28.16,6.34 -42.15,13.65 -14.01,7.32 -26.95,16.24 -38.86,26.7 l -113.58,99.79 c -1.14,1 -1.23,2.23 -0.27,3.72 0.96,1.48 2.17,1.91 3.67,1.25 10.8,-5.5 22.25,-7.78 34.32,-6.8 12.1,0.98 21.96,5.75 29.51,14.35 l 196.82,223.98 c 7.55,8.63 11.94,19.03 13.14,31.26 1.17,12.21 -0.61,23.74 -5.38,34.55 -0.5,1.78 0.14,3.06 1.85,3.86 1.73,0.8 3.01,0.5 3.81,-0.87 7.85,-8.9 15.58,-17.34 23.18,-25.35 7.63,-8.01 15.86,-15.91 24.69,-23.67 8.84,-7.75 17.8,-15.15 26.98,-22.2 9.13,-7.03 18.44,-14.06 27.93,-21.08 l -3.95,-4.5 c -12.14,8.69 -24.92,12.12 -38.4,10.36 -13.45,-1.76 -24.95,-8.06 -34.49,-18.92 l -70.03,-79.71 c 2.37,-3.44 4.93,-6.36 7.62,-8.71 3.11,-2.72 6.16,-5.41 9.24,-8.13 10.36,-9.1 21.34,-15.4 32.91,-18.94 11.55,-3.51 23.57,-5.31 36.12,-5.36 12.53,-0.09 25.15,1.09 37.82,3.54 12.73,2.44 25.21,5.22 37.49,8.35 13.33,3.54 26.79,6.64 40.34,9.31 13.58,2.65 26.84,3.95 39.73,3.9 12.87,-0.04 25.74,-2.08 38.59,-6.07 12.85,-3.97 25.04,-11.02 36.56,-21.15 6.91,-6.1 13.17,-13.08 18.83,-21.02 5.61,-7.92 10.38,-16.27 14.28,-25.01 z m -330.29,-81.81 c 17.73,20.22 27.5,39.66 29.25,58.33 1.76,18.69 -8.1,37.49 -29.62,56.39 -6.52,5.72 -13.05,11.13 -19.51,16.15 -6.5,5.02 -13.48,9.84 -20.99,14.45 l -122.82,-139.77 c 2.58,-5.59 5.94,-10.68 10.04,-15.29 4.13,-4.61 8.49,-8.95 13.1,-13.01 11.14,-9.79 23.16,-15.86 36.06,-18.26 12.89,-2.37 25.67,-2.14 38.33,0.64 12.69,2.81 24.72,7.81 36.15,15 11.43,7.18 21.43,15.65 30.01,25.37 z m 713.25,-352.65 c -4.2,1.8 -7.64,4.06 -10.34,6.82 -2.69,2.71 -5.61,5.11 -8.67,7.16 -5.45,4.77 -10.7,8.36 -15.72,10.75 -5.07,2.42 -12.44,3.15 -22.16,2.19 -3.92,-0.02 -11.32,-3.06 -22.25,-9.13 -10.93,-6.02 -24.05,-13.85 -39.45,-23.45 -15.41,-9.61 -32.16,-20.52 -50.23,-32.77 -18.05,-12.23 -36.6,-24.88 -55.61,-37.93 -19.01,-13.05 -37.54,-25.9 -55.64,-38.47 -18.09,-12.6 -34.61,-24.35 -49.54,-35.24 -11.57,-7.96 -21.65,-15.17 -30.26,-21.58 -8.58,-6.44 -15.49,-11.21 -20.67,-14.36 -1.14,-0.98 -2.15,-1.16 -3.01,-0.55 -0.85,0.62 -1.24,1.62 -1.14,3.06 9.76,38.2 23.77,78.39 42.01,120.54 18.23,42.12 36.74,83.15 55.56,123.09 8.61,18.25 17.16,36.67 25.79,55.26 8.63,18.63 16.27,36.22 22.98,52.85 -9.4,-2.05 -20.68,-5.04 -33.8,-8.92 -13.07,-3.88 -29.05,-8.26 -47.94,-13.07 -26.18,-7.05 -54.61,-14.56 -85.28,-22.5 -30.69,-7.92 -59.88,-15.27 -87.63,-22 -27.77,-6.78 -52.57,-12.16 -74.43,-16.2 -21.89,-4.02 -37.27,-5.85 -46.19,-5.43 -1.42,0.13 -2.44,0.73 -3.1,1.87 -0.67,1.14 -0.42,2.19 0.73,3.17 3.46,4.36 9.67,11.07 18.59,20.17 8.97,9.08 18.97,19.76 30.1,32.06 12.96,13.95 27.2,29.28 42.68,46.03 15.47,16.77 31.21,33.77 47.26,51.03 16.01,17.25 31.62,34.27 46.73,51.04 15.13,16.8 28.59,31.86 40.48,45.16 11.87,13.31 21.57,24.4 29.05,33.25 7.51,8.83 11.48,14.15 11.96,15.88 1.78,6.3 1.82,11.41 0.09,15.32 -1.73,3.92 -4.06,8.33 -6.98,13.23 -1.35,1.55 -2.99,4.2 -4.91,7.94 -0.64,1.49 -0.02,2.7 1.83,3.61 1.82,0.91 3.08,0.61 3.72,-0.87 2.92,-4.88 5.88,-9.1 8.9,-12.57 3.35,-3.86 6.68,-7.74 10.04,-11.62 4.7,-5.41 9.44,-10.75 14.33,-15.99 4.86,-5.28 9.83,-10.43 14.9,-15.54 5.07,-5.09 9.93,-10.18 14.63,-15.23 4.72,-5.06 9.4,-10.29 14.12,-15.7 0.98,-1.16 1.1,-2.44 0.28,-3.81 -0.78,-1.37 -2.06,-1.78 -3.82,-1.25 -1.04,0.43 -3.19,1.6 -6.5,3.49 -3.28,1.89 -5.98,3.29 -8.05,4.18 -6.23,3.42 -12.1,5.79 -17.55,7.16 -5.46,1.35 -11.57,-0.89 -18.37,-6.75 -23.73,-20.52 -46.1,-41.9 -67.09,-64.1 -20.95,-22.18 -41.81,-44.94 -62.51,-68.23 -7.64,-8.68 -15.4,-17.39 -23.25,-26.22 -7.85,-8.81 -16,-17.87 -24.42,-27.18 18.51,4.52 35.21,8.99 50.14,13.41 14.9,4.45 31.63,9.29 50.23,14.5 35.25,10.22 71.03,19.67 107.32,28.38 36.23,8.72 74.16,14.61 113.66,17.67 1.39,-0.14 2.47,-0.6 3.1,-1.35 0.69,-0.78 0.8,-1.71 0.42,-2.74 -5.41,-12.78 -10.82,-25.37 -16.21,-37.81 -5.38,-12.44 -10.77,-25.06 -16.18,-37.86 -16.56,-37.97 -32.74,-75.62 -48.53,-112.96 -15.79,-37.31 -31.08,-75.23 -45.87,-113.73 13.83,10.63 26.36,19.6 37.51,26.86 11.14,7.3 23.81,15.7 37.95,25.21 23.46,15.57 46.56,31.29 69.31,47.26 22.77,15.93 44.88,33.21 66.36,51.78 3.01,2.6 5.7,5.96 8.1,10.07 2.37,4.08 4.77,8.16 7.16,12.27 0.39,1.03 0.92,1.96 1.53,2.83 0.55,0.82 1.08,1.78 1.49,2.81 1.21,2.42 2.83,2.44 4.83,0.11 13.81,-14.42 27.39,-29.39 40.78,-44.86 13.72,-15.86 27.27,-31.54 40.64,-47.01 z m 76.9,-465.28 c -26.83,-17.2 -55.65,-28.54 -86.46,-34.02 -30.85,-5.5 -60.81,-5.13 -89.93,1.1 -29.17,6.22 -56.28,18 -81.31,35.37 -25.03,17.36 -45.34,40.48 -60.95,69.41 l -4.75,8.79 c -13.3,34.59 -21.81,65.61 -25.49,93.03 -3.67,27.43 -2.01,52.51 5.02,75.24 7.03,22.75 19.65,44.07 37.95,63.99 18.28,19.94 42.72,39.75 73.34,59.37 20.13,12.92 43.86,19.77 71.16,20.57 27.29,0.82 54.51,-2.86 81.62,-11 27.11,-8.15 52.47,-19.99 76.06,-35.53 23.62,-15.54 41.88,-33.46 54.86,-53.7 15.75,-24.53 26.54,-50.61 32.38,-78.16 5.82,-27.54 6.6,-54.56 2.26,-81.03 -4.31,-26.49 -13.62,-51.43 -27.89,-74.87 -14.26,-23.44 -33.54,-42.95 -57.87,-58.56 z m -28.38,42.88 c 20.12,12.92 37.33,28.07 51.64,45.44 14.3,17.38 24.62,36.14 30.92,56.29 6.3,20.15 8.17,41.26 5.57,63.28 -2.61,22.05 -10.94,44.04 -24.99,66 -14.95,23.25 -33.36,40.62 -55.23,52.12 -21.86,11.5 -45.16,18.3 -69.87,20.37 -24.71,2.08 -49.4,-0.27 -74.1,-6.96 -24.69,-6.73 -47.51,-16.81 -68.48,-30.25 -20.12,-12.92 -37.1,-28.21 -50.91,-45.89 -13.83,-17.67 -23.84,-36.7 -29.98,-57.08 -6.19,-20.35 -7.69,-41.53 -4.54,-63.5 3.17,-22 11.79,-43.98 25.87,-65.93 14.9,-23.25 33.11,-40.57 54.63,-51.98 21.55,-11.44 44.43,-18.03 68.65,-19.81 24.23,-1.8 48.62,0.8 73.18,7.73 24.55,6.94 47.1,16.98 67.64,30.17 z m 206.01,-210.37 c -11.93,-6.16 -24.16,-9.61 -36.69,-10.32 -12.53,-0.68 -25.24,0.25 -38.04,2.83 -12.83,2.58 -25.77,6.44 -38.77,11.53 -12.99,5.11 -25.7,10.47 -38.13,16.13 -11.57,4.97 -22.89,9.79 -33.96,14.42 -11.09,4.66 -21.77,8.22 -31.99,10.68 -10.27,2.49 -20.15,3.72 -29.69,3.7 -9.52,-0.02 -18.69,-2.31 -27.55,-6.87 -16.81,-8.69 -27.65,-21.61 -32.54,-38.82 -4.83,-17.2 -2.8,-34.41 6.1,-51.68 8.67,-16.82 21.17,-27.52 37.53,-32.02 16.34,-4.52 33.21,-4.59 50.57,-0.25 1.58,0.25 2.7,-0.32 3.4,-1.69 0.71,-1.35 0.53,-2.6 -0.59,-3.76 -21.13,-15.5 -42.08,-29.76 -62.82,-42.79 -0.89,-0.46 -2.15,-0.23 -3.72,0.68 -12.19,12.71 -22.96,28.16 -32.34,46.35 -6.57,12.71 -12.07,27.45 -16.47,44.18 -4.45,16.68 -6.48,33.2 -6.21,49.45 0.27,16.29 3.63,31.54 10.02,45.75 6.41,14.24 17.11,25.26 32.17,33.05 10.18,5.24 21.32,8.1 33.41,8.58 12.05,0.48 24.74,-0.46 38.02,-2.81 13.28,-2.37 26.9,-5.98 40.91,-10.84 14.02,-4.86 27.91,-9.79 41.67,-14.76 13.12,-4.75 26.11,-9.29 38.96,-13.56 12.87,-4.31 25.26,-7.69 37.22,-10.18 11.93,-2.46 23.02,-3.65 33.34,-3.51 10.29,0.14 19.64,2.37 28.04,6.73 8.9,4.56 15.77,11 20.74,19.31 4.98,8.33 8.15,17.32 9.61,26.99 1.46,9.65 1.3,19.51 -0.5,29.53 -1.83,10 -4.82,19.08 -9.04,27.27 -4.45,8.65 -10.06,16.54 -16.84,23.69 -6.78,7.16 -14.38,12.59 -22.75,16.34 -8.37,3.72 -17.14,5.81 -26.36,6.25 -9.19,0.43 -18.44,-1.74 -27.72,-6.53 l -9.97,-5.13 c -1.33,-0.71 -2.45,-0.14 -3.41,1.69 -0.95,1.8 -0.73,3.08 0.6,3.76 l 14.17,11.62 c 4.43,3.42 8.99,7.07 13.69,10.95 4.75,3.88 9.75,7.21 15.06,9.95 8.4,4.34 16.36,6 23.92,4.97 7.5,-1 14.65,-3.65 21.33,-7.96 6.74,-4.31 12.81,-9.81 18.21,-16.52 5.41,-6.71 9.88,-13.46 13.4,-20.27 7.3,-14.1 12.44,-30.3 15.43,-48.6 3.01,-18.33 3.3,-36.31 0.91,-53.95 -2.4,-17.61 -7.83,-33.95 -16.34,-48.99 -8.47,-15.04 -20.47,-26.56 -35.99,-34.57 z m 265.9,-366.12 -5.57,-2.17 c -5.41,11.07 -12.12,20.1 -20.22,27.13 -8.08,6.99 -18.57,11.28 -31.49,12.83 -60.7,7.57 -121.42,11.75 -182.15,12.48 -60.72,0.71 -120.9,0.71 -180.48,-0.05 -7.46,-0.16 -14.79,-0.16 -22.11,0.03 -7.28,0.18 -14.63,0.18 -22.04,0.02 -1.6,-0.07 -2.67,0.62 -3.2,2.03 -0.57,1.46 -0.27,2.69 0.98,3.7 19.63,18.09 39.39,35.69 59.17,52.76 19.83,17.09 39.66,34.43 59.52,52.07 29.48,25.81 58.67,51.76 87.53,77.84 28.85,26.08 57.51,52.67 85.99,79.73 l -0.69,-0.27 c 19.58,19.71 25.86,43.33 18.88,70.78 -0.1,1.62 0.82,2.67 2.76,3.15 1.98,0.48 3.01,-0.07 3.1,-1.66 2.78,-9.91 5.68,-19.76 8.72,-29.55 3.01,-9.82 6.39,-19.49 10.13,-29.01 3.72,-9.54 7.76,-18.92 12.21,-28.18 4.43,-9.27 8.85,-18.23 13.33,-26.93 l -5.6,-2.17 c -3.14,5.34 -7,10.73 -11.5,16.09 -4.49,5.39 -10.22,6.71 -17.2,4 -5.09,-1.99 -12.69,-6.87 -22.75,-14.65 -10.07,-7.79 -20.66,-16.32 -31.75,-25.59 -11.09,-9.24 -21.65,-18.46 -31.72,-27.63 -10.06,-9.13 -17.66,-16.07 -22.72,-20.81 l 43.24,-110.79 c 25.44,0.59 50.43,0.61 74.98,0.02 24.56,-0.55 49.32,-0.64 74.31,-0.2 l 2.35,33.04 c 0.34,1.78 1.34,2.71 2.89,2.76 1.6,0.07 2.65,-0.59 3.22,-2.03 3.36,-11.32 6.71,-22.64 10.04,-33.96 3.36,-11.32 7.19,-22.45 11.48,-33.45 1.67,-4.27 3.42,-8.4 5.23,-12.35 1.82,-3.94 3.69,-7.75 5.63,-11.38 3.11,-6.51 6,-12.64 8.79,-18.42 2.78,-5.77 5.02,-12.16 6.71,-19.21 z m -232.79,96.94 -36.01,92.19 c -21.51,-18.85 -42.58,-36.51 -63.09,-53.06 -20.59,-16.54 -41.56,-33.66 -62.98,-51.37 z"
   id="path43" />
   </g><polygon
     style="fill:#77c14e"
     class="fil6"
     points="10028.24,7135.79 10036.55,7136.98 10036.55,7129.85 "
     id="polygon47" /><polygon
     style="fill:#77c14e"
     class="fil6"
     points="8536.25,7356.8 8540.16,7372.13 "
     id="polygon49" /><polygon
     style="fill:#77c14e"
     class="fil6"
     points="11127.84,7372.48 11119.65,7386.38 "
     id="polygon51" /><polygon
     style="fill:#77c14e"
     class="fil6"
     points="10042.61,7532.81 10057.93,7528.89 "
     id="polygon53" /><g
     id="g83">
    <polygon
   style="fill:#00a859"
   class="fil7"
   points="11779.64,9538.23 12282.11,9350.62 12324.45,9197.27 11843.26,9388.14 "
   id="polygon55" />
    <polygon
   style="fill:#00a859"
   class="fil7"
   points="11678.49,9531.7 11791.06,9614.91 11293.49,9799.25 11164.61,9714.42 "
   id="polygon57" />
    <polygon
   style="fill:#00a859"
   class="fil7"
   points="11244.55,9505.6 11730.7,9309.84 11686.65,9468.08 11158.08,9663.85 "
   id="polygon59" />
    <polygon
   style="fill:#00a859"
   class="fil7"
   points="10557.73,10099.43 11074.88,9879.19 10952.53,9797.62 10410.91,10014.6 "
   id="polygon61" />
    <polygon
   style="fill:#00a859"
   class="fil7"
   points="10450.06,9813.93 11016.15,9580.65 10992.96,9719.8 10379.91,9955.87 "
   id="polygon63" />
    <polygon
   style="fill:#00a859"
   class="fil7"
   points="9869.29,10355.45 10353.81,10156.53 10233.09,10081.48 9750.19,10267.46 "
   id="polygon65" />
    <polygon
   style="fill:#00a859"
   class="fil7"
   points="9800.77,10073.33 10275.5,9885.72 10242.87,10032.54 9748.56,10202.2 "
   id="polygon67" />
    <polygon
   style="fill:#00a859"
   class="fil7"
   points="9536.48,10355.45 9034.02,10177.73 9154.74,10099.43 9640.89,10272.35 "
   id="polygon69" />
    <polygon
   style="fill:#00a859"
   class="fil7"
   points="9156.37,10043.96 9123.74,9882.45 9578.9,10071.69 9640.89,10221.78 "
   id="polygon71" />
    <polygon
   style="fill:#00a859"
   class="fil7"
   points="8547.86,9864.51 9019.33,10043.96 8906.77,10119 8414.09,9929.76 "
   id="polygon73" />
    <polygon
   style="fill:#00a859"
   class="fil7"
   points="8528.29,9675.27 8968.76,9843.3 9038.91,10001.54 8567.44,9831.88 "
   id="polygon75" />
    <polygon
   style="fill:#00a859"
   class="fil7"
   points="7931.2,9627.96 8410.83,9804.15 8275.42,9893.87 7797.42,9703 "
   id="polygon77" />
    <polygon
   style="fill:#00a859"
   class="fil7"
   points="7914.88,9445.24 8379.83,9623.06 8433.67,9774.78 7945.88,9605.12 "
   id="polygon79" />
    <polygon
   style="fill:#00a859"
   class="fil7"
   points="7330.85,9414.24 7831.68,9593.7 7779.48,9428.93 7300.38,9270.68 "
   id="polygon81" />
   </g></g>
  </g><g
     transform="translate(0,2145.3879)"
     id="g233"><g
       aria-label="Poder Judicial Formosa"
       style="font-style:normal;font-weight:normal;font-size:1367.36877441px;line-height:1.25;font-family:sans-serif;letter-spacing:0px;word-spacing:0px;fill:#000000;fill-opacity:1;stroke:none;stroke-width:34.18421173"
       id="text209"><path
         d="m 8182.4749,16501.131 v 342.51 h -200.2982 v -972.114 h 379.2312 q 109.4963,0 192.2862,40.06 83.4576,40.059 128.1909,114.169 44.7332,73.443 44.7332,167.583 0,142.88 -98.1461,225.67 -97.4784,82.122 -270.4025,82.122 z m 0,-162.242 h 178.933 q 79.4516,0 120.8466,-37.389 42.0626,-37.389 42.0626,-106.825 0,-71.44 -42.0626,-115.506 -42.0626,-44.065 -116.173,-45.401 h -183.6066 z"
         style="font-style:normal;font-variant:normal;font-weight:bold;font-stretch:normal;font-family:Roboto;-inkscape-font-specification:'Roboto Bold';letter-spacing:-34.18421555px;stroke-width:34.18421173"
         id="path301" /><path
         d="m 8778.5622,16475.76 q 0,-107.494 41.395,-191.619 41.3949,-84.125 118.8436,-130.194 78.1162,-46.068 180.936,-46.068 146.2176,0 238.3548,89.466 92.8048,89.467 103.4874,243.029 l 1.3353,49.407 q 0,166.247 -92.8048,267.064 -92.8048,100.149 -249.0374,100.149 -156.2326,0 -249.705,-100.149 -92.8049,-100.149 -92.8049,-272.406 z m 192.9539,14.021 q 0,102.819 38.7243,157.567 38.7244,54.081 110.8317,54.081 70.1043,0 109.4963,-53.413 39.392,-54.08 39.392,-172.256 0,-100.817 -39.392,-156.233 -39.392,-55.416 -110.8316,-55.416 -70.772,0 -109.4964,55.416 -38.7243,54.748 -38.7243,170.254 z"
         style="font-style:normal;font-variant:normal;font-weight:bold;font-stretch:normal;font-family:Roboto;-inkscape-font-specification:'Roboto Bold';letter-spacing:-34.18421555px;stroke-width:34.18421173"
         id="path303" /><path
         d="m 9518.8642,16477.095 q 0,-168.918 75.4456,-269.067 76.1133,-100.149 207.6424,-100.149 105.4904,0 174.2594,78.784 v -368.549 h 193.6214 v 1025.527 h -174.2592 l -9.3472,-76.781 q -72.1074,90.134 -185.6097,90.134 -127.5231,0 -204.9718,-100.149 -76.7809,-100.817 -76.7809,-279.75 z m 192.9539,14.021 q 0,101.484 35.386,155.565 35.386,54.08 102.8197,54.08 89.4665,0 126.1878,-75.445 v -285.091 q -36.0536,-75.446 -124.8525,-75.446 -139.541,0 -139.541,226.337 z"
         style="font-style:normal;font-variant:normal;font-weight:bold;font-stretch:normal;font-family:Roboto;-inkscape-font-specification:'Roboto Bold';letter-spacing:-34.18421555px;stroke-width:34.18421173"
         id="path305" /><path
         d="m 10619.035,16856.994 q -158.903,0 -259.052,-97.479 -99.482,-97.478 -99.482,-259.72 v -18.694 q 0,-108.829 42.063,-194.289 42.063,-86.128 118.844,-132.197 77.448,-46.736 176.262,-46.736 148.221,0 233.014,93.472 85.46,93.473 85.46,265.061 v 78.784 h -460.018 q 9.347,70.772 56.084,113.503 47.403,42.73 119.511,42.73 111.499,0 174.259,-80.787 l 94.808,106.158 q -43.398,61.425 -117.508,96.143 -74.111,34.051 -164.245,34.051 z m -22.033,-592.883 q -57.418,0 -93.472,38.725 -35.386,38.724 -45.401,110.831 h 268.4 v -15.356 q -1.336,-64.095 -34.719,-98.814 -33.383,-35.386 -94.808,-35.386 z"
         style="font-style:normal;font-variant:normal;font-weight:bold;font-stretch:normal;font-family:Roboto;-inkscape-font-specification:'Roboto Bold';letter-spacing:-34.18421555px;stroke-width:34.18421173"
         id="path307" /><path
         d="m 11398.062,16302.168 q -39.392,-5.341 -69.437,-5.341 -109.496,0 -143.547,74.11 v 472.704 h -192.954 v -722.409 h 182.271 l 5.342,86.128 q 58.086,-99.481 160.906,-99.481 32.047,0 60.089,8.679 z"
         style="font-style:normal;font-variant:normal;font-weight:bold;font-stretch:normal;font-family:Roboto;-inkscape-font-specification:'Roboto Bold';letter-spacing:-34.18421555px;stroke-width:34.18421173"
         id="path309" /><path
         d="m 12169.61,15871.527 h 200.298 v 673.002 q 0,92.805 -41.395,164.244 -40.727,70.772 -115.505,109.497 -74.778,38.724 -168.918,38.724 -154.23,0 -240.358,-78.116 -86.128,-78.784 -86.128,-222.331 h 201.633 q 0,71.439 30.045,105.49 30.045,34.051 94.808,34.051 57.419,0 91.469,-39.392 34.051,-39.392 34.051,-112.167 z"
         style="font-style:normal;font-variant:normal;font-weight:bold;font-stretch:normal;font-family:Roboto;-inkscape-font-specification:'Roboto Bold';letter-spacing:-34.18421555px;stroke-width:34.18421173"
         id="path311" /><path
         d="m 12927.271,16770.198 q -71.439,86.796 -197.627,86.796 -116.173,0 -177.598,-66.766 -60.757,-66.766 -62.092,-195.625 v -473.371 h 192.954 v 466.695 q 0,112.834 102.819,112.834 98.147,0 134.868,-68.101 v -511.428 h 193.621 v 722.409 h -181.603 z"
         style="font-style:normal;font-variant:normal;font-weight:bold;font-stretch:normal;font-family:Roboto;-inkscape-font-specification:'Roboto Bold';letter-spacing:-34.18421555px;stroke-width:34.18421173"
         id="path313" /><path
         d="m 13196.873,16477.095 q 0,-168.918 75.445,-269.067 76.114,-100.149 207.643,-100.149 105.49,0 174.259,78.784 v -368.549 h 193.622 v 1025.527 h -174.26 l -9.347,-76.781 q -72.107,90.134 -185.61,90.134 -127.523,0 -204.971,-100.149 -76.781,-100.817 -76.781,-279.75 z m 192.954,14.021 q 0,101.484 35.386,155.565 35.386,54.08 102.819,54.08 89.467,0 126.188,-75.445 v -285.091 q -36.053,-75.446 -124.852,-75.446 -139.541,0 -139.541,226.337 z"
         style="font-style:normal;font-variant:normal;font-weight:bold;font-stretch:normal;font-family:Roboto;-inkscape-font-specification:'Roboto Bold';letter-spacing:-34.18421555px;stroke-width:34.18421173"
         id="path315" /><path
         d="m 14168.185,16843.641 h -193.621 v -722.409 h 193.621 z m -204.972,-909.354 q 0,-43.398 28.71,-71.44 29.377,-28.041 79.451,-28.041 49.407,0 78.784,28.041 29.377,28.042 29.377,71.44 0,44.066 -30.044,72.107 -29.377,28.042 -78.117,28.042 -48.739,0 -78.783,-28.042 -29.378,-28.041 -29.378,-72.107 z"
         style="font-style:normal;font-variant:normal;font-weight:bold;font-stretch:normal;font-family:Roboto;-inkscape-font-specification:'Roboto Bold';letter-spacing:-34.18421555px;stroke-width:34.18421173"
         id="path317" /><path
         d="m 14594.019,16701.429 q 53.413,0 86.796,-29.377 33.383,-29.377 34.718,-78.116 h 180.936 q -0.667,73.442 -40.059,134.867 -39.392,60.757 -108.161,94.808 -68.102,33.383 -150.892,33.383 -154.897,0 -244.363,-98.146 -89.467,-98.814 -89.467,-272.406 v -12.685 q 0,-166.915 88.799,-266.397 88.799,-99.481 243.696,-99.481 135.535,0 216.99,77.448 82.122,76.781 83.457,204.972 h -180.936 q -1.335,-56.083 -34.718,-90.802 -33.383,-35.386 -88.131,-35.386 -67.434,0 -102.152,49.407 -34.051,48.739 -34.051,158.903 v 20.03 q 0,111.499 34.051,160.239 34.05,48.739 103.487,48.739 z"
         style="font-style:normal;font-variant:normal;font-weight:bold;font-stretch:normal;font-family:Roboto;-inkscape-font-specification:'Roboto Bold';letter-spacing:-34.18421555px;stroke-width:34.18421173"
         id="path319" /><path
         d="m 15176.086,16843.641 h -193.622 v -722.409 h 193.622 z m -204.972,-909.354 q 0,-43.398 28.709,-71.44 29.377,-28.041 79.452,-28.041 49.407,0 78.784,28.041 29.377,28.042 29.377,71.44 0,44.066 -30.045,72.107 -29.377,28.042 -78.116,28.042 -48.739,0 -78.784,-28.042 -29.377,-28.041 -29.377,-72.107 z"
         style="font-style:normal;font-variant:normal;font-weight:bold;font-stretch:normal;font-family:Roboto;-inkscape-font-specification:'Roboto Bold';letter-spacing:-34.18421555px;stroke-width:34.18421173"
         id="path321" /><path
         d="m 15720.095,16843.641 q -13.353,-26.039 -19.362,-64.763 -70.104,78.116 -182.271,78.116 -106.158,0 -176.263,-61.425 -69.436,-61.425 -69.436,-154.897 0,-114.838 84.793,-176.263 85.46,-61.424 246.366,-62.092 h 88.799 v -41.395 q 0,-50.074 -26.039,-80.119 -25.371,-30.045 -80.786,-30.045 -48.74,0 -76.781,23.368 -27.375,23.368 -27.375,64.096 h -192.953 q 0,-62.76 38.724,-116.173 38.724,-53.413 109.496,-83.458 70.772,-30.712 158.903,-30.712 133.533,0 211.649,67.433 78.784,66.766 78.784,188.281 v 313.132 q 0.667,102.82 28.709,155.565 v 11.351 z m -159.571,-134.2 q 42.731,0 78.784,-18.695 36.054,-19.362 53.413,-51.409 v -124.185 h -72.107 q -144.882,0 -154.23,100.149 l -0.667,11.35 q 0,36.054 25.371,59.422 25.371,23.368 69.436,23.368 z"
         style="font-style:normal;font-variant:normal;font-weight:bold;font-stretch:normal;font-family:Roboto;-inkscape-font-specification:'Roboto Bold';letter-spacing:-34.18421555px;stroke-width:34.18421173"
         id="path323" /><path
         d="m 16205.351,16843.641 h -193.622 v -1025.527 h 193.622 z"
         style="font-style:normal;font-variant:normal;font-weight:bold;font-stretch:normal;font-family:Roboto;-inkscape-font-specification:'Roboto Bold';letter-spacing:-34.18421555px;stroke-width:34.18421173"
         id="path325" /><path
         d="m 17235.952,16446.383 h -384.573 v 397.258 h -200.298 v -972.114 h 632.942 v 162.241 h -432.644 v 251.041 h 384.573 z"
         style="font-style:normal;font-variant:normal;font-weight:bold;font-stretch:normal;font-family:Roboto;-inkscape-font-specification:'Roboto Bold';letter-spacing:-34.18421555px;stroke-width:34.18421173"
         id="path327" /><path
         d="m 17311.264,16475.76 q 0,-107.494 41.395,-191.619 41.395,-84.125 118.843,-130.194 78.117,-46.068 180.936,-46.068 146.218,0 238.355,89.466 92.805,89.467 103.488,243.029 l 1.335,49.407 q 0,166.247 -92.805,267.064 -92.805,100.149 -249.037,100.149 -156.233,0 -249.705,-100.149 -92.805,-100.149 -92.805,-272.406 z m 192.954,14.021 q 0,102.819 38.724,157.567 38.724,54.081 110.832,54.081 70.104,0 109.496,-53.413 39.392,-54.08 39.392,-172.256 0,-100.817 -39.392,-156.233 -39.392,-55.416 -110.832,-55.416 -70.772,0 -109.496,55.416 -38.724,54.748 -38.724,170.254 z"
         style="font-style:normal;font-variant:normal;font-weight:bold;font-stretch:normal;font-family:Roboto;-inkscape-font-specification:'Roboto Bold';letter-spacing:-34.18421555px;stroke-width:34.18421173"
         id="path329" /><path
         d="m 18487.548,16302.168 q -39.392,-5.341 -69.437,-5.341 -109.496,0 -143.547,74.11 v 472.704 h -192.954 v -722.409 h 182.272 l 5.341,86.128 q 58.086,-99.481 160.906,-99.481 32.048,0 60.09,8.679 z"
         style="font-style:normal;font-variant:normal;font-weight:bold;font-stretch:normal;font-family:Roboto;-inkscape-font-specification:'Roboto Bold';letter-spacing:-34.18421555px;stroke-width:34.18421173"
         id="path331" /><path
         d="m 18727.773,16121.232 6.009,80.787 q 76.781,-94.14 207.642,-94.14 139.541,0 191.619,110.164 76.113,-110.164 216.99,-110.164 117.508,0 174.927,68.769 57.418,68.101 57.418,205.639 v 461.354 h -193.621 v -460.686 q 0,-61.425 -24.036,-89.467 -24.036,-28.709 -84.793,-28.709 -86.796,0 -120.179,82.79 l 0.668,496.072 h -192.954 v -460.018 q 0,-62.761 -24.703,-90.802 -24.704,-28.042 -84.126,-28.042 -82.122,0 -118.843,68.101 v 510.761 h -192.954 v -722.409 z"
         style="font-style:normal;font-variant:normal;font-weight:bold;font-stretch:normal;font-family:Roboto;-inkscape-font-specification:'Roboto Bold';letter-spacing:-34.18421555px;stroke-width:34.18421173"
         id="path333" /><path
         d="m 19665.702,16475.76 q 0,-107.494 41.395,-191.619 41.395,-84.125 118.844,-130.194 78.116,-46.068 180.936,-46.068 146.218,0 238.355,89.466 92.804,89.467 103.487,243.029 l 1.335,49.407 q 0,166.247 -92.804,267.064 -92.805,100.149 -249.038,100.149 -156.232,0 -249.705,-100.149 -92.805,-100.149 -92.805,-272.406 z m 192.954,14.021 q 0,102.819 38.725,157.567 38.724,54.081 110.831,54.081 70.105,0 109.496,-53.413 39.392,-54.08 39.392,-172.256 0,-100.817 -39.392,-156.233 -39.391,-55.416 -110.831,-55.416 -70.772,0 -109.496,55.416 -38.725,54.748 -38.725,170.254 z"
         style="font-style:normal;font-variant:normal;font-weight:bold;font-stretch:normal;font-family:Roboto;-inkscape-font-specification:'Roboto Bold';letter-spacing:-34.18421555px;stroke-width:34.18421173"
         id="path335" /><path
         d="m 20827.298,16644.01 q 0,-35.386 -35.386,-55.416 -34.718,-20.697 -112.167,-36.721 -257.717,-54.081 -257.717,-218.993 0,-96.143 79.452,-160.238 80.119,-64.763 208.977,-64.763 137.538,0 219.661,64.763 82.789,64.763 82.789,168.25 h -192.953 q 0,-41.395 -26.707,-68.101 -26.706,-27.374 -83.457,-27.374 -48.74,0 -75.446,22.033 -26.706,22.032 -26.706,56.083 0,32.048 30.044,52.078 30.713,19.362 102.82,34.05 72.107,14.021 121.514,32.048 152.894,56.083 152.894,194.289 0,98.814 -84.792,160.239 -84.793,60.757 -218.993,60.757 -90.802,0 -161.574,-32.048 -70.104,-32.715 -110.164,-88.799 -40.06,-56.751 -40.06,-122.182 h 182.939 q 2.671,51.41 38.057,78.784 35.386,27.374 94.808,27.374 55.416,0 83.457,-20.697 28.71,-21.365 28.71,-55.416 z"
         style="font-style:normal;font-variant:normal;font-weight:bold;font-stretch:normal;font-family:Roboto;-inkscape-font-specification:'Roboto Bold';letter-spacing:-34.18421555px;stroke-width:34.18421173"
         id="path337" /><path
         d="m 21522.866,16843.641 q -13.353,-26.039 -19.362,-64.763 -70.104,78.116 -182.271,78.116 -106.158,0 -176.263,-61.425 -69.436,-61.425 -69.436,-154.897 0,-114.838 84.793,-176.263 85.46,-61.424 246.366,-62.092 h 88.799 v -41.395 q 0,-50.074 -26.039,-80.119 -25.371,-30.045 -80.786,-30.045 -48.74,0 -76.781,23.368 -27.375,23.368 -27.375,64.096 h -192.953 q 0,-62.76 38.724,-116.173 38.724,-53.413 109.496,-83.458 70.772,-30.712 158.903,-30.712 133.533,0 211.649,67.433 78.784,66.766 78.784,188.281 v 313.132 q 0.667,102.82 28.709,155.565 v 11.351 z m -159.571,-134.2 q 42.731,0 78.784,-18.695 36.054,-19.362 53.413,-51.409 v -124.185 h -72.107 q -144.882,0 -154.23,100.149 l -0.667,11.35 q 0,36.054 25.371,59.422 25.371,23.368 69.436,23.368 z"
         style="font-style:normal;font-variant:normal;font-weight:bold;font-stretch:normal;font-family:Roboto;-inkscape-font-specification:'Roboto Bold';letter-spacing:-34.18421555px;stroke-width:34.18421173"
         id="path339" /></g><g
       aria-label="Superior Tribunal de Justicia"
       style="font-style:normal;font-weight:normal;font-size:1164.6583252px;line-height:1.25;font-family:sans-serif;letter-spacing:0px;word-spacing:0px;clip-rule:evenodd;fill:#000000;fill-opacity:1;fill-rule:evenodd;stroke:none;stroke-width:29.11645508;image-rendering:optimizeQuality;shape-rendering:geometricPrecision;text-rendering:geometricPrecision"
       id="text209-3"><path
         d="m 8252.0516,17685.465 q -140.4642,-40.376 -204.7251,-98.95 -63.6922,-59.143 -63.6922,-145.583 0,-97.813 77.9092,-161.505 78.478,-64.261 203.5878,-64.261 85.3021,0 151.8377,32.984 67.1044,32.983 103.4999,90.989 36.9643,58.005 36.9643,126.815 h -109.7554 q 0,-75.065 -47.7692,-117.717 -47.7692,-43.219 -134.7773,-43.219 -80.7527,0 -126.2472,35.827 -44.9258,35.258 -44.9258,98.381 0,50.613 42.6511,85.871 43.2197,34.69 146.151,63.692 103.4999,29.003 161.5053,64.261 58.5741,34.69 86.4395,81.322 28.434,46.632 28.434,109.755 0,100.657 -78.4779,161.506 -78.478,60.28 -209.8432,60.28 -85.3022,0 -159.2307,-32.415 -73.9285,-32.984 -114.3048,-89.852 -39.8077,-56.868 -39.8077,-129.09 h 109.7554 q 0,75.066 55.1621,118.854 55.7307,43.22 148.4257,43.22 86.4395,0 132.5026,-35.258 46.0631,-35.259 46.0631,-96.107 0,-60.849 -42.651,-93.833 -42.6511,-33.552 -154.6812,-65.967 z"
         style="font-style:normal;font-variant:normal;font-weight:normal;font-stretch:normal;font-family:Roboto;-inkscape-font-specification:Roboto;letter-spacing:-29.11645508px;stroke-width:29.11645508"
         id="path342" /><path
         d="m 9033.874,17993.69 q -61.4175,72.223 -180.2718,72.223 -98.3818,0 -150.1318,-56.868 -51.1812,-57.437 -51.7499,-169.467 v -400.352 h 105.2059 v 397.508 q 0,139.896 113.7362,139.896 120.5603,0 160.368,-89.852 v -447.552 h 105.2059 v 615.313 h -100.0878 z"
         style="font-style:normal;font-variant:normal;font-weight:normal;font-stretch:normal;font-family:Roboto;-inkscape-font-specification:Roboto;letter-spacing:-29.11645508px;stroke-width:29.11645508"
         id="path344" /><path
         d="m 9786.1249,17753.707 q 0,140.464 -64.2609,226.335 -64.2609,85.871 -174.0163,85.871 -112.0301,0 -176.2911,-71.085 v 296.282 h -105.2059 v -851.884 h 96.107 l 5.1182,68.242 q 64.2609,-79.615 178.5657,-79.615 110.8928,0 175.1537,83.596 64.8296,83.596 64.8296,232.59 z m -105.2059,-11.942 q 0,-104.069 -44.3571,-164.349 -44.3571,-60.28 -121.6977,-60.28 -95.5384,0 -143.3076,84.733 v 294.008 q 47.2005,84.165 144.4449,84.165 75.6346,0 119.9917,-59.712 44.9258,-60.28 44.9258,-178.565 z"
         style="font-style:normal;font-variant:normal;font-weight:normal;font-stretch:normal;font-family:Roboto;-inkscape-font-specification:Roboto;letter-spacing:-29.11645508px;stroke-width:29.11645508"
         id="path346" /><path
         d="m 10145.418,18065.913 q -125.11,0 -203.5881,-81.89 -78.478,-82.459 -78.478,-220.08 v -19.335 q 0,-91.558 34.6895,-163.211 35.2583,-72.223 97.8131,-112.599 63.1235,-40.945 136.4835,-40.945 119.992,0 186.527,79.046 66.536,79.047 66.536,226.335 v 43.789 h -416.8431 q 2.2747,90.989 52.8871,147.288 51.181,55.731 129.659,55.731 55.731,0 94.401,-22.747 38.671,-22.748 67.673,-60.281 l 64.261,50.044 q -77.34,118.855 -232.021,118.855 z m -13.08,-551.621 q -63.692,0 -106.912,46.632 -43.2198,46.063 -53.456,129.659 h 308.225 v -7.961 q -4.549,-80.184 -43.22,-123.973 -38.67,-44.357 -104.637,-44.357 z"
         style="font-style:normal;font-variant:normal;font-weight:normal;font-stretch:normal;font-family:Roboto;-inkscape-font-specification:Roboto;letter-spacing:-29.11645508px;stroke-width:29.11645508"
         id="path348" /><path
         d="m 10774.833,17533.627 q -23.884,-3.98 -51.749,-3.98 -103.5,0 -140.465,88.145 v 436.747 h -105.206 v -615.313 h 102.363 l 1.706,71.086 q 51.75,-82.459 146.72,-82.459 30.708,0 46.631,7.961 z"
         style="font-style:normal;font-variant:normal;font-weight:normal;font-stretch:normal;font-family:Roboto;-inkscape-font-specification:Roboto;letter-spacing:-29.11645508px;stroke-width:29.11645508"
         id="path350" /><path
         d="m 10956.129,18054.539 h -105.206 v -615.313 h 105.206 z m -113.736,-778.524 q 0,-25.591 15.354,-43.22 15.923,-17.629 46.632,-17.629 30.709,0 46.632,17.629 15.923,17.629 15.923,43.22 0,25.591 -15.923,42.651 -15.923,17.061 -46.632,17.061 -30.709,0 -46.632,-17.061 -15.354,-17.06 -15.354,-42.651 z"
         style="font-style:normal;font-variant:normal;font-weight:normal;font-stretch:normal;font-family:Roboto;-inkscape-font-specification:Roboto;letter-spacing:-29.11645508px;stroke-width:29.11645508"
         id="path352" /><path
         d="m 11066.908,17741.196 q 0,-90.42 35.258,-162.643 35.827,-72.222 98.951,-111.461 63.692,-39.239 145.013,-39.239 125.679,0 203.019,87.008 77.91,87.008 77.91,231.453 v 7.393 q 0,89.851 -34.69,161.505 -34.121,71.085 -98.382,110.893 -63.692,39.808 -146.719,39.808 -125.11,0 -203.019,-87.008 -77.341,-87.009 -77.341,-230.316 z m 105.775,12.511 q 0,102.362 47.2,164.349 47.769,61.986 127.385,61.986 80.184,0 127.384,-62.555 47.201,-63.124 47.201,-176.291 0,-101.225 -48.338,-163.78 -47.769,-63.124 -127.385,-63.124 -77.909,0 -125.678,61.986 -47.769,61.987 -47.769,177.429 z"
         style="font-style:normal;font-variant:normal;font-weight:normal;font-stretch:normal;font-family:Roboto;-inkscape-font-specification:Roboto;letter-spacing:-29.11645508px;stroke-width:29.11645508"
         id="path354" /><path
         d="m 12027.296,17533.627 q -23.884,-3.98 -51.75,-3.98 -103.5,0 -140.464,88.145 v 436.747 h -105.206 v -615.313 h 102.363 l 1.706,71.086 q 51.75,-82.459 146.719,-82.459 30.709,0 46.632,7.961 z"
         style="font-style:normal;font-variant:normal;font-weight:normal;font-stretch:normal;font-family:Roboto;-inkscape-font-specification:Roboto;letter-spacing:-29.11645508px;stroke-width:29.11645508"
         id="path356" /><path
         d="m 12919.898,17316.391 h -266.143 v 738.148 h -108.618 v -738.148 h -265.574 v -89.851 h 640.335 z"
         style="font-style:normal;font-variant:normal;font-weight:normal;font-stretch:normal;font-family:Roboto;-inkscape-font-specification:Roboto;letter-spacing:-29.11645508px;stroke-width:29.11645508"
         id="path358" /><path
         d="m 13252.462,17533.627 q -23.884,-3.98 -51.75,-3.98 -103.5,0 -140.464,88.145 v 436.747 h -105.206 v -615.313 h 102.363 l 1.706,71.086 q 51.75,-82.459 146.719,-82.459 30.709,0 46.632,7.961 z"
         style="font-style:normal;font-variant:normal;font-weight:normal;font-stretch:normal;font-family:Roboto;-inkscape-font-specification:Roboto;letter-spacing:-29.11645508px;stroke-width:29.11645508"
         id="path360" /><path
         d="m 13433.758,18054.539 h -105.206 v -615.313 h 105.206 z m -113.737,-778.524 q 0,-25.591 15.355,-43.22 15.923,-17.629 46.632,-17.629 30.708,0 46.631,17.629 15.923,17.629 15.923,43.22 0,25.591 -15.923,42.651 -15.923,17.061 -46.631,17.061 -30.709,0 -46.632,-17.061 -15.355,-17.06 -15.355,-42.651 z"
         style="font-style:normal;font-variant:normal;font-weight:normal;font-stretch:normal;font-family:Roboto;-inkscape-font-specification:Roboto;letter-spacing:-29.11645508px;stroke-width:29.11645508"
         id="path362" /><path
         d="m 14093.314,17753.707 q 0,141.033 -64.83,226.904 -64.83,85.302 -174.016,85.302 -116.58,0 -180.272,-82.459 l -5.118,71.085 h -96.676 v -873.494 h 105.206 v 325.854 q 63.692,-79.046 175.722,-79.046 112.03,0 175.723,84.733 64.261,84.734 64.261,232.022 z m -105.206,-11.942 q 0,-107.481 -41.514,-166.055 -41.514,-58.574 -119.423,-58.574 -104.069,0 -149.563,96.675 v 266.143 q 48.338,96.676 150.7,96.676 75.635,0 117.717,-58.574 42.083,-58.574 42.083,-176.291 z"
         style="font-style:normal;font-variant:normal;font-weight:normal;font-stretch:normal;font-family:Roboto;-inkscape-font-specification:Roboto;letter-spacing:-29.11645508px;stroke-width:29.11645508"
         id="path364" /><path
         d="m 14576.01,17993.69 q -61.418,72.223 -180.272,72.223 -98.382,0 -150.132,-56.868 -51.181,-57.437 -51.75,-169.467 v -400.352 h 105.206 v 397.508 q 0,139.896 113.736,139.896 120.561,0 160.368,-89.852 v -447.552 h 105.206 v 615.313 h -100.088 z"
         style="font-style:normal;font-variant:normal;font-weight:normal;font-stretch:normal;font-family:Roboto;-inkscape-font-specification:Roboto;letter-spacing:-29.11645508px;stroke-width:29.11645508"
         id="path366" /><path
         d="m 14908.006,17439.226 3.412,77.341 q 70.516,-88.714 184.252,-88.714 195.058,0 196.764,220.079 v 406.607 h -105.206 v -407.175 q -0.569,-66.536 -30.709,-98.382 -29.571,-31.846 -92.695,-31.846 -51.181,0 -89.851,27.296 -38.671,27.297 -60.281,71.654 v 438.453 h -105.206 v -615.313 z"
         style="font-style:normal;font-variant:normal;font-weight:normal;font-stretch:normal;font-family:Roboto;-inkscape-font-specification:Roboto;letter-spacing:-29.11645508px;stroke-width:29.11645508"
         id="path368" /><path
         d="m 15802.996,18054.539 q -9.099,-18.198 -14.786,-64.83 -73.36,76.204 -175.154,76.204 -90.989,0 -149.563,-51.182 -58.005,-51.75 -58.005,-130.796 0,-96.107 72.791,-148.995 73.36,-53.456 205.862,-53.456 h 102.363 v -48.337 q 0,-55.162 -32.984,-87.577 -32.983,-32.984 -97.244,-32.984 -56.299,0 -94.401,28.434 -38.102,28.434 -38.102,68.811 h -105.774 q 0,-46.063 32.414,-88.715 32.984,-43.219 88.715,-68.241 56.299,-25.022 123.403,-25.022 106.344,0 166.624,53.456 60.28,52.887 62.555,146.151 v 283.203 q 0,84.733 21.61,134.777 v 9.099 z m -174.585,-80.184 q 49.475,0 93.832,-25.591 44.357,-25.59 64.261,-66.535 v -126.247 h -82.459 q -193.351,0 -193.351,113.167 0,49.475 32.983,77.341 32.984,27.865 84.734,27.865 z"
         style="font-style:normal;font-variant:normal;font-weight:normal;font-stretch:normal;font-family:Roboto;-inkscape-font-specification:Roboto;letter-spacing:-29.11645508px;stroke-width:29.11645508"
         id="path370" /><path
         d="m 16142.953,18054.539 h -105.206 v -873.494 h 105.206 z"
         style="font-style:normal;font-variant:normal;font-weight:normal;font-stretch:normal;font-family:Roboto;-inkscape-font-specification:Roboto;letter-spacing:-29.11645508px;stroke-width:29.11645508"
         id="path372" /><path
         d="m 16515.781,17741.765 q 0,-141.602 67.104,-227.473 67.104,-86.439 175.722,-86.439 108.05,0 171.173,73.928 v -320.736 h 105.206 v 873.494 h -96.676 l -5.118,-65.967 q -63.123,77.341 -175.722,77.341 -106.912,0 -174.585,-87.577 -67.104,-87.577 -67.104,-228.61 z m 105.205,11.942 q 0,104.637 43.22,163.78 43.22,59.143 119.423,59.143 100.088,0 146.151,-89.852 v -282.634 q -47.2,-87.008 -145.013,-87.008 -77.341,0 -120.561,59.711 -43.22,59.712 -43.22,176.86 z"
         style="font-style:normal;font-variant:normal;font-weight:normal;font-stretch:normal;font-family:Roboto;-inkscape-font-specification:Roboto;letter-spacing:-29.11645508px;stroke-width:29.11645508"
         id="path374" /><path
         d="m 17424.987,18065.913 q -125.11,0 -203.588,-81.89 -78.478,-82.459 -78.478,-220.08 v -19.335 q 0,-91.558 34.69,-163.211 35.258,-72.223 97.813,-112.599 63.124,-40.945 136.484,-40.945 119.991,0 186.527,79.046 66.535,79.047 66.535,226.335 v 43.789 h -416.843 q 2.275,90.989 52.888,147.288 51.181,55.731 129.659,55.731 55.731,0 94.401,-22.747 38.67,-22.748 67.673,-60.281 l 64.261,50.044 q -77.341,118.855 -232.022,118.855 z m -13.079,-551.621 q -63.693,0 -106.912,46.632 -43.22,46.063 -53.456,129.659 h 308.225 v -7.961 q -4.55,-80.184 -43.22,-123.973 -38.67,-44.357 -104.637,-44.357 z"
         style="font-style:normal;font-variant:normal;font-weight:normal;font-stretch:normal;font-family:Roboto;-inkscape-font-specification:Roboto;letter-spacing:-29.11645508px;stroke-width:29.11645508"
         id="path376" /><path
         d="m 18380.143,17226.54 h 109.755 v 586.31 q 0,118.854 -71.653,185.958 -71.086,67.105 -189.94,67.105 -123.404,0 -192.214,-63.124 -68.81,-63.123 -68.81,-176.86 h 109.186 q 0,71.085 38.671,110.893 39.239,39.808 113.167,39.808 67.673,0 109.187,-42.651 42.082,-42.651 42.651,-119.423 z"
         style="font-style:normal;font-variant:normal;font-weight:normal;font-stretch:normal;font-family:Roboto;-inkscape-font-specification:Roboto;letter-spacing:-29.11645508px;stroke-width:29.11645508"
         id="path378" /><path
         d="m 19011.266,17993.69 q -61.418,72.223 -180.272,72.223 -98.382,0 -150.132,-56.868 -51.181,-57.437 -51.75,-169.467 v -400.352 h 105.206 v 397.508 q 0,139.896 113.736,139.896 120.561,0 160.368,-89.852 v -447.552 h 105.206 v 615.313 h -100.088 z"
         style="font-style:normal;font-variant:normal;font-weight:normal;font-stretch:normal;font-family:Roboto;-inkscape-font-specification:Roboto;letter-spacing:-29.11645508px;stroke-width:29.11645508"
         id="path380" /><path
         d="m 19602.011,17891.328 q 0,-42.651 -32.415,-65.967 -31.846,-23.885 -112.03,-40.945 -79.615,-17.061 -126.816,-40.945 -46.631,-23.885 -69.379,-56.868 -22.178,-32.984 -22.178,-78.478 0,-75.635 63.692,-127.954 64.261,-52.318 163.78,-52.318 104.637,0 169.467,54.024 65.398,54.025 65.398,138.19 h -105.774 q 0,-43.22 -36.965,-74.497 -36.395,-31.278 -92.126,-31.278 -57.437,0 -89.851,25.022 -32.415,25.022 -32.415,65.399 0,38.101 30.14,57.436 30.14,19.335 108.618,36.965 79.047,17.629 127.953,42.082 48.907,24.453 72.223,59.143 23.884,34.121 23.884,83.596 0,82.459 -65.967,132.502 -65.967,49.476 -171.173,49.476 -73.928,0 -130.796,-26.16 -56.868,-26.159 -89.283,-72.791 -31.846,-47.2 -31.846,-101.794 h 105.206 q 2.843,52.888 42.082,84.165 39.808,30.709 104.637,30.709 59.712,0 95.539,-23.885 36.395,-24.453 36.395,-64.829 z"
         style="font-style:normal;font-variant:normal;font-weight:normal;font-stretch:normal;font-family:Roboto;-inkscape-font-specification:Roboto;letter-spacing:-29.11645508px;stroke-width:29.11645508"
         id="path382" /><path
         d="m 19957.891,17290.232 v 148.994 h 114.874 v 81.322 h -114.874 v 381.585 q 0,36.964 15.355,55.73 15.354,18.198 52.318,18.198 18.198,0 50.044,-6.824 v 85.302 q -41.513,11.374 -80.752,11.374 -70.517,0 -106.344,-42.651 -35.827,-42.651 -35.827,-121.129 v -381.585 h -112.03 v -81.322 h 112.03 v -148.994 z"
         style="font-style:normal;font-variant:normal;font-weight:normal;font-stretch:normal;font-family:Roboto;-inkscape-font-specification:Roboto;letter-spacing:-29.11645508px;stroke-width:29.11645508"
         id="path384" /><path
         d="m 20280.22,18054.539 h -105.206 v -615.313 h 105.206 z m -113.736,-778.524 q 0,-25.591 15.354,-43.22 15.923,-17.629 46.632,-17.629 30.709,0 46.632,17.629 15.923,17.629 15.923,43.22 0,25.591 -15.923,42.651 -15.923,17.061 -46.632,17.061 -30.709,0 -46.632,-17.061 -15.354,-17.06 -15.354,-42.651 z"
         style="font-style:normal;font-variant:normal;font-weight:normal;font-stretch:normal;font-family:Roboto;-inkscape-font-specification:Roboto;letter-spacing:-29.11645508px;stroke-width:29.11645508"
         id="path386" /><path
         d="m 20665.672,17980.042 q 56.299,0 98.382,-34.121 42.082,-34.121 46.631,-85.302 h 99.52 q -2.844,52.887 -36.396,100.656 -33.552,47.77 -89.852,76.204 -55.73,28.434 -118.285,28.434 -125.679,0 -200.176,-83.596 -73.928,-84.165 -73.928,-229.747 v -17.63 q 0,-89.851 32.983,-159.799 32.984,-69.948 94.401,-108.618 61.986,-38.67 146.151,-38.67 103.5,0 171.742,61.986 68.81,61.986 73.36,160.937 h -99.52 q -4.549,-59.712 -45.494,-97.813 -40.376,-38.671 -100.088,-38.671 -80.184,0 -124.541,58.006 -43.788,57.436 -43.788,166.623 v 19.904 q 0,106.343 43.788,163.78 43.788,57.437 125.11,57.437 z"
         style="font-style:normal;font-variant:normal;font-weight:normal;font-stretch:normal;font-family:Roboto;-inkscape-font-specification:Roboto;letter-spacing:-29.11645508px;stroke-width:29.11645508"
         id="path388" /><path
         d="m 21113.678,18054.539 h -105.206 v -615.313 h 105.206 z m -113.736,-778.524 q 0,-25.591 15.354,-43.22 15.923,-17.629 46.632,-17.629 30.709,0 46.632,17.629 15.923,17.629 15.923,43.22 0,25.591 -15.923,42.651 -15.923,17.061 -46.632,17.061 -30.709,0 -46.632,-17.061 -15.354,-17.06 -15.354,-42.651 z"
         style="font-style:normal;font-variant:normal;font-weight:normal;font-stretch:normal;font-family:Roboto;-inkscape-font-specification:Roboto;letter-spacing:-29.11645508px;stroke-width:29.11645508"
         id="path390" /><path
         d="m 21632.201,18054.539 q -9.099,-18.198 -14.786,-64.83 -73.359,76.204 -175.153,76.204 -90.989,0 -149.563,-51.182 -58.006,-51.75 -58.006,-130.796 0,-96.107 72.791,-148.995 73.36,-53.456 205.863,-53.456 h 102.362 v -48.337 q 0,-55.162 -32.983,-87.577 -32.984,-32.984 -97.245,-32.984 -56.299,0 -94.401,28.434 -38.101,28.434 -38.101,68.811 h -105.775 q 0,-46.063 32.415,-88.715 32.984,-43.219 88.714,-68.241 56.3,-25.022 123.404,-25.022 106.343,0 166.623,53.456 60.281,52.887 62.555,146.151 v 283.203 q 0,84.733 21.61,134.777 v 9.099 z m -174.585,-80.184 q 49.475,0 93.832,-25.591 44.358,-25.59 64.261,-66.535 v -126.247 h -82.458 q -193.352,0 -193.352,113.167 0,49.475 32.984,77.341 32.983,27.865 84.733,27.865 z"
         style="font-style:normal;font-variant:normal;font-weight:normal;font-stretch:normal;font-family:Roboto;-inkscape-font-specification:Roboto;letter-spacing:-29.11645508px;stroke-width:29.11645508"
         id="path392" /></g></g></g></g>
</svg>