<?xml version="1.0" encoding="UTF-8"?>
<svg xmlns="http://www.w3.org/2000/svg" xmlns:xlink="http://www.w3.org/1999/xlink" width="80pt" height="80pt" viewBox="0 0 80 80" version="1.1">
<g id="surface1">
<path style=" stroke:none;fill-rule:nonzero;fill:rgb(0%,0%,0%);fill-opacity:1;" d="M 16.875 80 C 12.738281 80 9.375 76.636719 9.375 72.5 C 9.375 68.363281 12.738281 65 16.875 65 C 17.566406 65 18.125 65.558594 18.125 66.25 C 18.125 66.941406 17.566406 67.5 16.875 67.5 C 14.117188 67.5 11.875 69.742188 11.875 72.5 C 11.875 75.257812 14.117188 77.5 16.875 77.5 C 17.566406 77.5 18.125 78.058594 18.125 78.75 C 18.125 79.441406 17.566406 80 16.875 80 Z M 16.875 80 "/>
<path style=" stroke:none;fill-rule:nonzero;fill:rgb(0%,0%,0%);fill-opacity:1;" d="M 69.375 67.5 L 16.875 67.5 C 16.183594 67.5 15.625 66.941406 15.625 66.25 C 15.625 65.558594 16.183594 65 16.875 65 L 69.375 65 C 70.066406 65 70.625 65.558594 70.625 66.25 C 70.625 66.941406 70.066406 67.5 69.375 67.5 Z M 69.375 67.5 "/>
<path style=" stroke:none;fill-rule:nonzero;fill:rgb(0%,0%,0%);fill-opacity:1;" d="M 69.375 80 L 16.875 80 C 16.183594 80 15.625 79.441406 15.625 78.75 C 15.625 78.058594 16.183594 77.5 16.875 77.5 L 69.375 77.5 C 70.066406 77.5 70.625 78.058594 70.625 78.75 C 70.625 79.441406 70.066406 80 69.375 80 Z M 69.375 80 "/>
<path style=" stroke:none;fill-rule:nonzero;fill:rgb(0%,0%,0%);fill-opacity:1;" d="M 10.625 8.75 C 9.933594 8.75 9.375 8.191406 9.375 7.5 C 9.375 3.363281 12.738281 0 16.875 0 C 17.566406 0 18.125 0.558594 18.125 1.25 C 18.125 1.941406 17.566406 2.5 16.875 2.5 C 14.117188 2.5 11.875 4.742188 11.875 7.5 C 11.875 8.191406 11.316406 8.75 10.625 8.75 Z M 10.625 8.75 "/>
<path style=" stroke:none;fill-rule:nonzero;fill:rgb(0%,0%,0%);fill-opacity:1;" d="M 10.625 73.75 C 9.933594 73.75 9.375 73.191406 9.375 72.5 L 9.375 7.5 C 9.375 6.808594 9.933594 6.25 10.625 6.25 C 11.316406 6.25 11.875 6.808594 11.875 7.5 L 11.875 72.5 C 11.875 73.191406 11.316406 73.75 10.625 73.75 Z M 10.625 73.75 "/>
<path style=" stroke:none;fill-rule:nonzero;fill:rgb(0%,0%,0%);fill-opacity:1;" d="M 69.375 2.5 L 16.875 2.5 C 16.183594 2.5 15.625 1.941406 15.625 1.25 C 15.625 0.558594 16.183594 0 16.875 0 L 69.375 0 C 70.066406 0 70.625 0.558594 70.625 1.25 C 70.625 1.941406 70.066406 2.5 69.375 2.5 Z M 69.375 2.5 "/>
<path style=" stroke:none;fill-rule:nonzero;fill:rgb(0%,0%,0%);fill-opacity:1;" d="M 69.375 67.5 C 68.683594 67.5 68.125 66.941406 68.125 66.25 L 68.125 1.25 C 68.125 0.558594 68.683594 0 69.375 0 C 70.066406 0 70.625 0.558594 70.625 1.25 L 70.625 66.25 C 70.625 66.941406 70.066406 67.5 69.375 67.5 Z M 69.375 67.5 "/>
<path style=" stroke:none;fill-rule:nonzero;fill:rgb(0%,0%,0%);fill-opacity:1;" d="M 69.375 80 C 68.683594 80 68.125 79.441406 68.125 78.75 L 68.125 66.25 C 68.125 65.558594 68.683594 65 69.375 65 C 70.066406 65 70.625 65.558594 70.625 66.25 L 70.625 78.75 C 70.625 79.441406 70.066406 80 69.375 80 Z M 69.375 80 "/>
<path style=" stroke:none;fill-rule:nonzero;fill:rgb(0%,0%,0%);fill-opacity:1;" d="M 19.375 67.5 C 18.683594 67.5 18.125 66.941406 18.125 66.25 L 18.125 1.25 C 18.125 0.558594 18.683594 0 19.375 0 C 20.066406 0 20.625 0.558594 20.625 1.25 L 20.625 66.25 C 20.625 66.941406 20.066406 67.5 19.375 67.5 Z M 19.375 67.5 "/>
<path style=" stroke:none;fill-rule:nonzero;fill:rgb(0%,0%,0%);fill-opacity:1;" d="M 64.375 73.753906 L 16.875 73.753906 C 16.183594 73.753906 15.625 73.195312 15.625 72.503906 C 15.625 71.8125 16.183594 71.253906 16.875 71.253906 L 64.375 71.253906 C 65.066406 71.253906 65.625 71.8125 65.625 72.503906 C 65.625 73.195312 65.066406 73.753906 64.375 73.753906 Z M 64.375 73.753906 "/>
<path style=" stroke:none;fill-rule:nonzero;fill:rgb(0%,0%,0%);fill-opacity:1;" d="M 64.375 80 C 63.683594 80 63.125 79.441406 63.125 78.75 L 63.125 66.25 C 63.125 65.558594 63.683594 65 64.375 65 C 65.066406 65 65.625 65.558594 65.625 66.25 L 65.625 78.75 C 65.625 79.441406 65.066406 80 64.375 80 Z M 64.375 80 "/>
<path style=" stroke:none;fill-rule:nonzero;fill:rgb(0%,0%,0%);fill-opacity:1;" d="M 59.398438 53.769531 L 29.390625 53.769531 C 28.699219 53.769531 28.140625 53.210938 28.140625 52.519531 C 28.140625 51.828125 28.699219 51.269531 29.390625 51.269531 L 59.398438 51.269531 C 60.089844 51.269531 60.648438 51.828125 60.648438 52.519531 C 60.648438 53.210938 60.089844 53.769531 59.398438 53.769531 Z M 59.398438 53.769531 "/>
<path style=" stroke:none;fill-rule:nonzero;fill:rgb(0%,0%,0%);fill-opacity:1;" d="M 51.898438 57.519531 L 36.894531 57.519531 C 36.203125 57.519531 35.644531 56.960938 35.644531 56.269531 C 35.644531 55.578125 36.203125 55.019531 36.894531 55.019531 L 51.898438 55.019531 C 52.589844 55.019531 53.148438 55.578125 53.148438 56.269531 C 53.148438 56.960938 52.589844 57.519531 51.898438 57.519531 Z M 51.898438 57.519531 "/>
<path style=" stroke:none;fill-rule:nonzero;fill:rgb(0%,0%,0%);fill-opacity:1;" d="M 55.644531 17.519531 L 33.144531 17.519531 C 32.453125 17.519531 31.894531 16.957031 31.894531 16.269531 C 31.894531 15.578125 32.453125 15.019531 33.144531 15.019531 L 55.644531 15.019531 C 56.332031 15.019531 56.894531 15.578125 56.894531 16.269531 C 56.894531 16.957031 56.332031 17.519531 55.644531 17.519531 Z M 55.644531 17.519531 "/>
<path style=" stroke:none;fill-rule:nonzero;fill:rgb(0%,0%,0%);fill-opacity:1;" d="M 44.394531 42.523438 C 43.703125 42.523438 43.144531 41.964844 43.144531 41.273438 L 43.144531 12.519531 C 43.144531 11.828125 43.703125 11.269531 44.394531 11.269531 C 45.085938 11.269531 45.644531 11.828125 45.644531 12.519531 L 45.644531 41.273438 C 45.644531 41.960938 45.085938 42.523438 44.394531 42.523438 Z M 44.394531 42.523438 "/>
<path style=" stroke:none;fill-rule:nonzero;fill:rgb(0%,0%,0%);fill-opacity:1;" d="M 54.394531 42.523438 L 34.394531 42.523438 C 33.703125 42.523438 33.144531 41.964844 33.144531 41.273438 C 33.144531 40.582031 33.703125 40.023438 34.394531 40.023438 L 54.394531 40.023438 C 55.085938 40.023438 55.644531 40.582031 55.644531 41.273438 C 55.644531 41.960938 55.085938 42.523438 54.394531 42.523438 Z M 54.394531 42.523438 "/>
<path style=" stroke:none;fill-rule:nonzero;fill:rgb(0%,0%,0%);fill-opacity:1;" d="M 33.144531 32.519531 C 30.386719 32.519531 28.144531 30.277344 28.144531 27.519531 C 28.144531 26.828125 28.703125 26.269531 29.394531 26.269531 C 30.085938 26.269531 30.644531 26.828125 30.644531 27.519531 C 30.644531 28.898438 31.765625 30.019531 33.144531 30.019531 C 34.523438 30.019531 35.644531 28.898438 35.644531 27.519531 C 35.644531 26.828125 36.203125 26.269531 36.894531 26.269531 C 37.585938 26.269531 38.144531 26.828125 38.144531 27.519531 C 38.144531 30.277344 35.902344 32.519531 33.144531 32.519531 Z M 33.144531 32.519531 "/>
<path style=" stroke:none;fill-rule:nonzero;fill:rgb(0%,0%,0%);fill-opacity:1;" d="M 36.894531 28.769531 L 29.394531 28.769531 C 28.703125 28.769531 28.144531 28.210938 28.144531 27.519531 C 28.144531 26.828125 28.703125 26.269531 29.394531 26.269531 L 36.894531 26.269531 C 37.585938 26.269531 38.144531 26.828125 38.144531 27.519531 C 38.144531 28.210938 37.585938 28.769531 36.894531 28.769531 Z M 36.894531 28.769531 "/>
<path style=" stroke:none;fill-rule:nonzero;fill:rgb(0%,0%,0%);fill-opacity:1;" d="M 29.394531 28.769531 C 29.265625 28.769531 29.132812 28.75 29 28.703125 C 28.347656 28.488281 27.992188 27.777344 28.210938 27.125 L 31.960938 15.871094 C 32.179688 15.21875 32.878906 14.859375 33.542969 15.082031 C 34.195312 15.300781 34.550781 16.007812 34.332031 16.664062 L 30.582031 27.914062 C 30.40625 28.4375 29.917969 28.769531 29.394531 28.769531 Z M 29.394531 28.769531 "/>
<path style=" stroke:none;fill-rule:nonzero;fill:rgb(0%,0%,0%);fill-opacity:1;" d="M 36.894531 28.769531 C 36.371094 28.769531 35.882812 28.4375 35.710938 27.914062 L 31.960938 16.664062 C 31.742188 16.007812 32.09375 15.300781 32.75 15.082031 C 33.410156 14.863281 34.113281 15.21875 34.332031 15.871094 L 38.082031 27.125 C 38.300781 27.777344 37.945312 28.488281 37.292969 28.703125 C 37.160156 28.75 37.023438 28.769531 36.894531 28.769531 Z M 36.894531 28.769531 "/>
<path style=" stroke:none;fill-rule:nonzero;fill:rgb(0%,0%,0%);fill-opacity:1;" d="M 55.644531 32.519531 C 52.886719 32.519531 50.644531 30.277344 50.644531 27.519531 C 50.644531 26.828125 51.203125 26.269531 51.894531 26.269531 C 52.582031 26.269531 53.144531 26.828125 53.144531 27.519531 C 53.144531 28.898438 54.265625 30.019531 55.644531 30.019531 C 57.023438 30.019531 58.144531 28.898438 58.144531 27.519531 C 58.144531 26.828125 58.703125 26.269531 59.394531 26.269531 C 60.082031 26.269531 60.644531 26.828125 60.644531 27.519531 C 60.644531 30.277344 58.398438 32.519531 55.644531 32.519531 Z M 55.644531 32.519531 "/>
<path style=" stroke:none;fill-rule:nonzero;fill:rgb(0%,0%,0%);fill-opacity:1;" d="M 59.394531 28.769531 L 51.894531 28.769531 C 51.203125 28.769531 50.644531 28.210938 50.644531 27.519531 C 50.644531 26.828125 51.203125 26.269531 51.894531 26.269531 L 59.394531 26.269531 C 60.082031 26.269531 60.644531 26.828125 60.644531 27.519531 C 60.644531 28.210938 60.082031 28.769531 59.394531 28.769531 Z M 59.394531 28.769531 "/>
<path style=" stroke:none;fill-rule:nonzero;fill:rgb(0%,0%,0%);fill-opacity:1;" d="M 51.894531 28.769531 C 51.761719 28.769531 51.628906 28.75 51.496094 28.703125 C 50.84375 28.488281 50.488281 27.777344 50.707031 27.125 L 54.457031 15.871094 C 54.675781 15.21875 55.378906 14.859375 56.039062 15.082031 C 56.691406 15.300781 57.046875 16.007812 56.828125 16.664062 L 53.078125 27.914062 C 52.902344 28.4375 52.417969 28.769531 51.894531 28.769531 Z M 51.894531 28.769531 "/>
<path style=" stroke:none;fill-rule:nonzero;fill:rgb(0%,0%,0%);fill-opacity:1;" d="M 59.394531 28.769531 C 58.867188 28.769531 58.382812 28.4375 58.207031 27.914062 L 54.457031 16.664062 C 54.238281 16.007812 54.59375 15.300781 55.246094 15.082031 C 55.90625 14.863281 56.613281 15.21875 56.828125 15.871094 L 60.578125 27.125 C 60.796875 27.777344 60.445312 28.488281 59.789062 28.703125 C 59.65625 28.75 59.523438 28.769531 59.394531 28.769531 Z M 59.394531 28.769531 "/>
</g>
</svg>
