<?xml version="1.0" encoding="UTF-8"?>
<svg xmlns="http://www.w3.org/2000/svg" xmlns:xlink="http://www.w3.org/1999/xlink" width="80pt" height="80pt" viewBox="0 0 80 80" version="1.1">
<g id="surface1">
<path style=" stroke:none;fill-rule:nonzero;fill:rgb(0%,0%,0%);fill-opacity:1;" d="M 23.125 80 C 20.367188 80 18.125 77.757812 18.125 75 C 18.125 72.242188 20.367188 70 23.125 70 C 23.816406 70 24.375 70.558594 24.375 71.25 C 24.375 71.941406 23.816406 72.5 23.125 72.5 C 21.746094 72.5 20.625 73.621094 20.625 75 C 20.625 76.378906 21.746094 77.5 23.125 77.5 C 23.816406 77.5 24.375 78.058594 24.375 78.75 C 24.375 79.441406 23.816406 80 23.125 80 Z M 23.125 80 "/>
<path style=" stroke:none;fill-rule:nonzero;fill:rgb(0%,0%,0%);fill-opacity:1;" d="M 69.375 72.5 L 23.125 72.5 C 22.433594 72.5 21.875 71.941406 21.875 71.25 C 21.875 70.558594 22.433594 70 23.125 70 L 69.375 70 C 70.066406 70 70.625 70.558594 70.625 71.25 C 70.625 71.941406 70.066406 72.5 69.375 72.5 Z M 69.375 72.5 "/>
<path style=" stroke:none;fill-rule:nonzero;fill:rgb(0%,0%,0%);fill-opacity:1;" d="M 69.375 80 L 23.125 80 C 22.433594 80 21.875 79.441406 21.875 78.75 C 21.875 78.058594 22.433594 77.5 23.125 77.5 L 69.375 77.5 C 70.066406 77.5 70.625 78.058594 70.625 78.75 C 70.625 79.441406 70.066406 80 69.375 80 Z M 69.375 80 "/>
<path style=" stroke:none;fill-rule:nonzero;fill:rgb(0%,0%,0%);fill-opacity:1;" d="M 69.375 72.5 C 68.683594 72.5 68.125 71.941406 68.125 71.25 C 68.125 70.558594 68.683594 70 69.375 70 C 70.753906 70 71.875 68.878906 71.875 67.5 C 71.875 66.808594 72.433594 66.25 73.125 66.25 C 73.816406 66.25 74.375 66.808594 74.375 67.5 C 74.375 70.257812 72.132812 72.5 69.375 72.5 Z M 69.375 72.5 "/>
<path style=" stroke:none;fill-rule:nonzero;fill:rgb(0%,0%,0%);fill-opacity:1;" d="M 73.125 6.25 C 72.433594 6.25 71.875 5.691406 71.875 5 C 71.875 3.621094 70.753906 2.5 69.375 2.5 C 68.683594 2.5 68.125 1.941406 68.125 1.25 C 68.125 0.558594 68.683594 0 69.375 0 C 72.132812 0 74.375 2.242188 74.375 5 C 74.375 5.691406 73.816406 6.25 73.125 6.25 Z M 73.125 6.25 "/>
<path style=" stroke:none;fill-rule:nonzero;fill:rgb(0%,0%,0%);fill-opacity:1;" d="M 19.375 6.25 C 18.683594 6.25 18.125 5.691406 18.125 5 C 18.125 2.242188 20.367188 0 23.125 0 C 23.816406 0 24.375 0.558594 24.375 1.25 C 24.375 1.941406 23.816406 2.5 23.125 2.5 C 21.746094 2.5 20.625 3.621094 20.625 5 C 20.625 5.691406 20.066406 6.25 19.375 6.25 Z M 19.375 6.25 "/>
<path style=" stroke:none;fill-rule:nonzero;fill:rgb(0%,0%,0%);fill-opacity:1;" d="M 69.375 80 C 68.683594 80 68.125 79.441406 68.125 78.75 C 68.125 78.058594 68.683594 77.5 69.375 77.5 C 70.753906 77.5 71.875 76.378906 71.875 75 C 71.875 74.308594 72.433594 73.75 73.125 73.75 C 73.816406 73.75 74.375 74.308594 74.375 75 C 74.375 77.757812 72.132812 80 69.375 80 Z M 69.375 80 "/>
<path style=" stroke:none;fill-rule:nonzero;fill:rgb(0%,0%,0%);fill-opacity:1;" d="M 73.125 30 C 72.804688 30 72.484375 29.878906 72.242188 29.632812 C 71.753906 29.144531 71.753906 28.355469 72.242188 27.867188 L 76.875 23.234375 L 76.875 8.75 L 73.125 8.75 C 72.433594 8.75 71.875 8.191406 71.875 7.5 C 71.875 6.808594 72.433594 6.25 73.125 6.25 L 78.125 6.25 C 78.816406 6.25 79.375 6.808594 79.375 7.5 L 79.375 23.75 C 79.375 24.082031 79.242188 24.398438 79.007812 24.632812 L 74.007812 29.632812 C 73.765625 29.878906 73.445312 30 73.125 30 Z M 73.125 30 "/>
<path style=" stroke:none;fill-rule:nonzero;fill:rgb(0%,0%,0%);fill-opacity:1;" d="M 69.375 2.5 L 23.125 2.5 C 22.433594 2.5 21.875 1.941406 21.875 1.25 C 21.875 0.558594 22.433594 0 23.125 0 L 69.375 0 C 70.066406 0 70.625 0.558594 70.625 1.25 C 70.625 1.941406 70.066406 2.5 69.375 2.5 Z M 69.375 2.5 "/>
<path style=" stroke:none;fill-rule:nonzero;fill:rgb(0%,0%,0%);fill-opacity:1;" d="M 19.375 76.25 C 18.683594 76.25 18.125 75.691406 18.125 75 L 18.125 5 C 18.125 4.308594 18.683594 3.75 19.375 3.75 C 20.066406 3.75 20.625 4.308594 20.625 5 L 20.625 75 C 20.625 75.691406 20.066406 76.25 19.375 76.25 Z M 19.375 76.25 "/>
<path style=" stroke:none;fill-rule:nonzero;fill:rgb(0%,0%,0%);fill-opacity:1;" d="M 68.125 76.25 L 24.375 76.25 C 23.683594 76.25 23.125 75.691406 23.125 75 C 23.125 74.308594 23.683594 73.75 24.375 73.75 L 68.125 73.75 C 68.816406 73.75 69.375 74.308594 69.375 75 C 69.375 75.691406 68.816406 76.25 68.125 76.25 Z M 68.125 76.25 "/>
<path style=" stroke:none;fill-rule:nonzero;fill:rgb(0%,0%,0%);fill-opacity:1;" d="M 68.125 76.25 C 67.433594 76.25 66.875 75.691406 66.875 75 L 66.875 71.25 C 66.875 70.558594 67.433594 70 68.125 70 C 68.816406 70 69.375 70.558594 69.375 71.25 L 69.375 75 C 69.375 75.691406 68.816406 76.25 68.125 76.25 Z M 68.125 76.25 "/>
<path style=" stroke:none;fill-rule:nonzero;fill:rgb(0%,0%,0%);fill-opacity:1;" d="M 24.375 76.25 C 23.683594 76.25 23.125 75.691406 23.125 75 L 23.125 71.25 C 23.125 70.558594 23.683594 70 24.375 70 C 25.066406 70 25.625 70.558594 25.625 71.25 L 25.625 75 C 25.625 75.691406 25.066406 76.25 24.375 76.25 Z M 24.375 76.25 "/>
<path style=" stroke:none;fill-rule:nonzero;fill:rgb(0%,0%,0%);fill-opacity:1;" d="M 73.125 76.25 C 72.433594 76.25 71.875 75.691406 71.875 75 L 71.875 5 C 71.875 4.308594 72.433594 3.75 73.125 3.75 C 73.816406 3.75 74.375 4.308594 74.375 5 L 74.375 75 C 74.375 75.691406 73.816406 76.25 73.125 76.25 Z M 73.125 76.25 "/>
<path style=" stroke:none;fill-rule:nonzero;fill:rgb(0%,0%,0%);fill-opacity:1;" d="M 19.375 8.75 L 1.875 8.75 C 1.183594 8.75 0.625 8.191406 0.625 7.5 C 0.625 6.808594 1.183594 6.25 1.875 6.25 L 19.375 6.25 C 20.066406 6.25 20.625 6.808594 20.625 7.5 C 20.625 8.191406 20.066406 8.75 19.375 8.75 Z M 19.375 8.75 "/>
<path style=" stroke:none;fill-rule:nonzero;fill:rgb(0%,0%,0%);fill-opacity:1;" d="M 19.375 71.25 L 8.125 71.25 C 7.433594 71.25 6.875 70.691406 6.875 70 C 6.875 69.308594 7.433594 68.75 8.125 68.75 L 19.375 68.75 C 20.066406 68.75 20.625 69.308594 20.625 70 C 20.625 70.691406 20.066406 71.25 19.375 71.25 Z M 19.375 71.25 "/>
<path style=" stroke:none;fill-rule:nonzero;fill:rgb(0%,0%,0%);fill-opacity:1;" d="M 1.875 65 C 1.183594 65 0.625 64.441406 0.625 63.75 L 0.625 7.5 C 0.625 6.808594 1.183594 6.25 1.875 6.25 C 2.566406 6.25 3.125 6.808594 3.125 7.5 L 3.125 63.75 C 3.125 64.441406 2.566406 65 1.875 65 Z M 1.875 65 "/>
<path style=" stroke:none;fill-rule:nonzero;fill:rgb(0%,0%,0%);fill-opacity:1;" d="M 8.125 71.25 C 7.804688 71.25 7.484375 71.128906 7.242188 70.882812 L 0.992188 64.632812 C 0.503906 64.144531 0.503906 63.355469 0.992188 62.867188 C 1.480469 62.378906 2.269531 62.378906 2.757812 62.867188 L 9.007812 69.117188 C 9.496094 69.605469 9.496094 70.394531 9.007812 70.882812 C 8.765625 71.128906 8.445312 71.25 8.125 71.25 Z M 8.125 71.25 "/>
<path style=" stroke:none;fill-rule:nonzero;fill:rgb(0%,0%,0%);fill-opacity:1;" d="M 8.125 71.25 C 7.433594 71.25 6.875 70.691406 6.875 70 L 6.875 63.75 C 6.875 63.058594 7.433594 62.5 8.125 62.5 C 8.816406 62.5 9.375 63.058594 9.375 63.75 L 9.375 70 C 9.375 70.691406 8.816406 71.25 8.125 71.25 Z M 8.125 71.25 "/>
<path style=" stroke:none;fill-rule:nonzero;fill:rgb(0%,0%,0%);fill-opacity:1;" d="M 8.125 65 L 1.875 65 C 1.183594 65 0.625 64.441406 0.625 63.75 C 0.625 63.058594 1.183594 62.5 1.875 62.5 L 8.125 62.5 C 8.816406 62.5 9.375 63.058594 9.375 63.75 C 9.375 64.441406 8.816406 65 8.125 65 Z M 8.125 65 "/>
<path style=" stroke:none;fill-rule:nonzero;fill:rgb(0%,0%,0%);fill-opacity:1;" d="M 19.375 26.25 L 10.625 26.25 C 9.933594 26.25 9.375 25.691406 9.375 25 C 9.375 24.308594 9.933594 23.75 10.625 23.75 L 19.375 23.75 C 20.066406 23.75 20.625 24.308594 20.625 25 C 20.625 25.691406 20.066406 26.25 19.375 26.25 Z M 19.375 26.25 "/>
<path style=" stroke:none;fill-rule:nonzero;fill:rgb(0%,0%,0%);fill-opacity:1;" d="M 19.375 33.75 L 10.625 33.75 C 9.933594 33.75 9.375 33.191406 9.375 32.5 C 9.375 31.808594 9.933594 31.25 10.625 31.25 L 19.375 31.25 C 20.066406 31.25 20.625 31.808594 20.625 32.5 C 20.625 33.191406 20.066406 33.75 19.375 33.75 Z M 19.375 33.75 "/>
<path style=" stroke:none;fill-rule:nonzero;fill:rgb(0%,0%,0%);fill-opacity:1;" d="M 19.375 41.25 L 10.625 41.25 C 9.933594 41.25 9.375 40.691406 9.375 40 C 9.375 39.308594 9.933594 38.75 10.625 38.75 L 19.375 38.75 C 20.066406 38.75 20.625 39.308594 20.625 40 C 20.625 40.691406 20.066406 41.25 19.375 41.25 Z M 19.375 41.25 "/>
<path style=" stroke:none;fill-rule:nonzero;fill:rgb(0%,0%,0%);fill-opacity:1;" d="M 19.375 48.75 L 10.625 48.75 C 9.933594 48.75 9.375 48.191406 9.375 47.5 C 9.375 46.808594 9.933594 46.25 10.625 46.25 L 19.375 46.25 C 20.066406 46.25 20.625 46.808594 20.625 47.5 C 20.625 48.191406 20.066406 48.75 19.375 48.75 Z M 19.375 48.75 "/>
<path style=" stroke:none;fill-rule:nonzero;fill:rgb(0%,0%,0%);fill-opacity:1;" d="M 58.117188 21.273438 L 35.617188 21.273438 C 34.929688 21.273438 34.367188 20.710938 34.367188 20.023438 C 34.367188 19.332031 34.929688 18.773438 35.617188 18.773438 L 58.117188 18.773438 C 58.808594 18.773438 59.367188 19.332031 59.367188 20.023438 C 59.367188 20.710938 58.808594 21.273438 58.117188 21.273438 Z M 58.117188 21.273438 "/>
<path style=" stroke:none;fill-rule:nonzero;fill:rgb(0%,0%,0%);fill-opacity:1;" d="M 46.867188 46.277344 C 46.179688 46.277344 45.617188 45.71875 45.617188 45.027344 L 45.617188 16.273438 C 45.617188 15.582031 46.179688 15.023438 46.867188 15.023438 C 47.558594 15.023438 48.117188 15.582031 48.117188 16.273438 L 48.117188 45.027344 C 48.117188 45.71875 47.558594 46.277344 46.867188 46.277344 Z M 46.867188 46.277344 "/>
<path style=" stroke:none;fill-rule:nonzero;fill:rgb(0%,0%,0%);fill-opacity:1;" d="M 56.867188 46.277344 L 36.867188 46.277344 C 36.179688 46.277344 35.617188 45.71875 35.617188 45.027344 C 35.617188 44.335938 36.179688 43.777344 36.867188 43.777344 L 56.867188 43.777344 C 57.558594 43.777344 58.117188 44.335938 58.117188 45.027344 C 58.117188 45.71875 57.558594 46.277344 56.867188 46.277344 Z M 56.867188 46.277344 "/>
<path style=" stroke:none;fill-rule:nonzero;fill:rgb(0%,0%,0%);fill-opacity:1;" d="M 61.875 55.023438 L 31.863281 55.023438 C 31.171875 55.023438 30.613281 54.464844 30.613281 53.773438 C 30.613281 53.082031 31.171875 52.523438 31.863281 52.523438 L 61.875 52.523438 C 62.566406 52.523438 63.125 53.082031 63.125 53.773438 C 63.125 54.464844 62.566406 55.023438 61.875 55.023438 Z M 61.875 55.023438 "/>
<path style=" stroke:none;fill-rule:nonzero;fill:rgb(0%,0%,0%);fill-opacity:1;" d="M 54.375 58.773438 L 39.367188 58.773438 C 38.675781 58.773438 38.117188 58.214844 38.117188 57.523438 C 38.117188 56.832031 38.675781 56.273438 39.367188 56.273438 L 54.375 56.273438 C 55.066406 56.273438 55.625 56.832031 55.625 57.523438 C 55.625 58.214844 55.066406 58.773438 54.375 58.773438 Z M 54.375 58.773438 "/>
<path style=" stroke:none;fill-rule:nonzero;fill:rgb(0%,0%,0%);fill-opacity:1;" d="M 35.617188 36.273438 C 32.863281 36.273438 30.617188 34.03125 30.617188 31.273438 C 30.617188 30.585938 31.179688 30.023438 31.867188 30.023438 C 32.558594 30.023438 33.117188 30.585938 33.117188 31.273438 C 33.117188 32.652344 34.238281 33.773438 35.617188 33.773438 C 36.996094 33.773438 38.117188 32.652344 38.117188 31.273438 C 38.117188 30.585938 38.679688 30.023438 39.367188 30.023438 C 40.058594 30.023438 40.617188 30.585938 40.617188 31.273438 C 40.617188 34.03125 38.375 36.273438 35.617188 36.273438 Z M 35.617188 36.273438 "/>
<path style=" stroke:none;fill-rule:nonzero;fill:rgb(0%,0%,0%);fill-opacity:1;" d="M 39.367188 32.523438 L 31.867188 32.523438 C 31.179688 32.523438 30.617188 31.964844 30.617188 31.273438 C 30.617188 30.585938 31.179688 30.023438 31.867188 30.023438 L 39.367188 30.023438 C 40.058594 30.023438 40.617188 30.585938 40.617188 31.273438 C 40.617188 31.964844 40.058594 32.523438 39.367188 32.523438 Z M 39.367188 32.523438 "/>
<path style=" stroke:none;fill-rule:nonzero;fill:rgb(0%,0%,0%);fill-opacity:1;" d="M 31.867188 32.523438 C 31.738281 32.523438 31.605469 32.503906 31.472656 32.460938 C 30.820312 32.242188 30.464844 31.535156 30.683594 30.878906 L 34.433594 19.625 C 34.652344 18.972656 35.355469 18.613281 36.015625 18.835938 C 36.667969 19.054688 37.023438 19.761719 36.804688 20.417969 L 33.054688 31.671875 C 32.878906 32.195312 32.390625 32.523438 31.867188 32.523438 Z M 31.867188 32.523438 "/>
<path style=" stroke:none;fill-rule:nonzero;fill:rgb(0%,0%,0%);fill-opacity:1;" d="M 39.367188 32.523438 C 38.84375 32.523438 38.359375 32.195312 38.183594 31.671875 L 34.433594 20.417969 C 34.214844 19.761719 34.570312 19.054688 35.222656 18.835938 C 35.882812 18.617188 36.585938 18.972656 36.804688 19.625 L 40.554688 30.878906 C 40.773438 31.535156 40.421875 32.242188 39.765625 32.460938 C 39.632812 32.503906 39.5 32.523438 39.367188 32.523438 Z M 39.367188 32.523438 "/>
<path style=" stroke:none;fill-rule:nonzero;fill:rgb(0%,0%,0%);fill-opacity:1;" d="M 58.117188 36.273438 C 55.359375 36.273438 53.117188 34.03125 53.117188 31.273438 C 53.117188 30.585938 53.675781 30.023438 54.367188 30.023438 C 55.058594 30.023438 55.617188 30.585938 55.617188 31.273438 C 55.617188 32.652344 56.738281 33.773438 58.117188 33.773438 C 59.496094 33.773438 60.617188 32.652344 60.617188 31.273438 C 60.617188 30.585938 61.175781 30.023438 61.867188 30.023438 C 62.558594 30.023438 63.117188 30.585938 63.117188 31.273438 C 63.117188 34.03125 60.875 36.273438 58.117188 36.273438 Z M 58.117188 36.273438 "/>
<path style=" stroke:none;fill-rule:nonzero;fill:rgb(0%,0%,0%);fill-opacity:1;" d="M 61.867188 32.523438 L 54.367188 32.523438 C 53.675781 32.523438 53.117188 31.964844 53.117188 31.273438 C 53.117188 30.585938 53.675781 30.023438 54.367188 30.023438 L 61.867188 30.023438 C 62.558594 30.023438 63.117188 30.585938 63.117188 31.273438 C 63.117188 31.964844 62.558594 32.523438 61.867188 32.523438 Z M 61.867188 32.523438 "/>
<path style=" stroke:none;fill-rule:nonzero;fill:rgb(0%,0%,0%);fill-opacity:1;" d="M 54.367188 32.523438 C 54.238281 32.523438 54.101562 32.503906 53.972656 32.460938 C 53.316406 32.242188 52.960938 31.535156 53.183594 30.878906 L 56.933594 19.625 C 57.148438 18.972656 57.851562 18.613281 58.511719 18.835938 C 59.167969 19.054688 59.519531 19.761719 59.304688 20.417969 L 55.554688 31.671875 C 55.378906 32.195312 54.890625 32.523438 54.367188 32.523438 Z M 54.367188 32.523438 "/>
<path style=" stroke:none;fill-rule:nonzero;fill:rgb(0%,0%,0%);fill-opacity:1;" d="M 61.867188 32.523438 C 61.34375 32.523438 60.855469 32.195312 60.683594 31.671875 L 56.933594 20.417969 C 56.710938 19.761719 57.066406 19.054688 57.722656 18.835938 C 58.378906 18.617188 59.082031 18.972656 59.304688 19.625 L 63.054688 30.878906 C 63.269531 31.535156 62.917969 32.242188 62.261719 32.460938 C 62.128906 32.503906 61.996094 32.523438 61.867188 32.523438 Z M 61.867188 32.523438 "/>
</g>
</svg>
