<?xml version="1.0" encoding="UTF-8"?>
<svg xmlns="http://www.w3.org/2000/svg" xmlns:xlink="http://www.w3.org/1999/xlink" width="80pt" height="80pt" viewBox="0 0 80 80" version="1.1">
<g id="surface1">
<path style=" stroke:none;fill-rule:nonzero;fill:rgb(0%,0%,0%);fill-opacity:1;" d="M 73.757812 48.742188 L 52.515625 48.742188 C 51.824219 48.742188 51.265625 48.183594 51.265625 47.492188 L 51.265625 42.492188 C 51.265625 41.800781 51.824219 41.242188 52.515625 41.242188 L 73.757812 41.242188 C 74.449219 41.242188 75.007812 41.800781 75.007812 42.492188 L 75.007812 47.492188 C 75.007812 48.183594 74.449219 48.742188 73.757812 48.742188 Z M 53.765625 46.242188 L 72.507812 46.242188 L 72.507812 43.742188 L 53.765625 43.742188 Z M 53.765625 46.242188 "/>
<path style=" stroke:none;fill-rule:nonzero;fill:rgb(0%,0%,0%);fill-opacity:1;" d="M 71.871094 75 C 70.148438 75 68.746094 73.601562 68.746094 71.878906 C 68.746094 70.152344 70.148438 68.753906 71.871094 68.753906 C 73.59375 68.753906 74.996094 70.152344 74.996094 71.878906 C 74.996094 73.601562 73.59375 75 71.871094 75 Z M 71.871094 71.253906 C 71.527344 71.253906 71.246094 71.535156 71.246094 71.878906 C 71.246094 72.222656 71.527344 72.503906 71.871094 72.503906 C 72.214844 72.503906 72.496094 72.222656 72.496094 71.878906 C 72.496094 71.535156 72.214844 71.253906 71.871094 71.253906 Z M 71.871094 71.253906 "/>
<path style=" stroke:none;fill-rule:nonzero;fill:rgb(0%,0%,0%);fill-opacity:1;" d="M 71.871094 66.230469 C 70.148438 66.230469 68.746094 64.828125 68.746094 63.105469 C 68.746094 61.382812 70.148438 59.980469 71.871094 59.980469 C 73.59375 59.980469 74.996094 61.382812 74.996094 63.105469 C 74.996094 64.828125 73.59375 66.230469 71.871094 66.230469 Z M 71.871094 62.480469 C 71.527344 62.480469 71.246094 62.761719 71.246094 63.105469 C 71.246094 63.449219 71.527344 63.730469 71.871094 63.730469 C 72.214844 63.730469 72.496094 63.449219 72.496094 63.105469 C 72.496094 62.761719 72.214844 62.480469 71.871094 62.480469 Z M 71.871094 62.480469 "/>
<path style=" stroke:none;fill-rule:nonzero;fill:rgb(0%,0%,0%);fill-opacity:1;" d="M 71.871094 57.472656 C 70.148438 57.472656 68.746094 56.070312 68.746094 54.347656 C 68.746094 52.625 70.148438 51.222656 71.871094 51.222656 C 73.59375 51.222656 74.996094 52.625 74.996094 54.347656 C 74.996094 56.070312 73.59375 57.472656 71.871094 57.472656 Z M 71.871094 53.722656 C 71.527344 53.722656 71.246094 54.003906 71.246094 54.347656 C 71.246094 54.691406 71.527344 54.972656 71.871094 54.972656 C 72.214844 54.972656 72.496094 54.691406 72.496094 54.347656 C 72.496094 54.003906 72.214844 53.722656 71.871094 53.722656 Z M 71.871094 53.722656 "/>
<path style=" stroke:none;fill-rule:nonzero;fill:rgb(0%,0%,0%);fill-opacity:1;" d="M 63.113281 75 C 61.390625 75 59.992188 73.601562 59.992188 71.878906 C 59.992188 70.152344 61.390625 68.753906 63.113281 68.753906 C 64.839844 68.753906 66.238281 70.152344 66.238281 71.878906 C 66.238281 73.601562 64.839844 75 63.113281 75 Z M 63.113281 71.253906 C 62.769531 71.253906 62.488281 71.535156 62.488281 71.878906 C 62.488281 72.222656 62.769531 72.503906 63.113281 72.503906 C 63.457031 72.503906 63.738281 72.222656 63.738281 71.878906 C 63.738281 71.535156 63.460938 71.253906 63.113281 71.253906 Z M 63.113281 71.253906 "/>
<path style=" stroke:none;fill-rule:nonzero;fill:rgb(0%,0%,0%);fill-opacity:1;" d="M 63.113281 66.230469 C 61.390625 66.230469 59.992188 64.828125 59.992188 63.105469 C 59.992188 61.382812 61.390625 59.980469 63.113281 59.980469 C 64.839844 59.980469 66.238281 61.382812 66.238281 63.105469 C 66.238281 64.828125 64.839844 66.230469 63.113281 66.230469 Z M 63.113281 62.480469 C 62.769531 62.480469 62.488281 62.761719 62.488281 63.105469 C 62.488281 63.449219 62.769531 63.730469 63.113281 63.730469 C 63.457031 63.730469 63.738281 63.449219 63.738281 63.105469 C 63.738281 62.761719 63.460938 62.480469 63.113281 62.480469 Z M 63.113281 62.480469 "/>
<path style=" stroke:none;fill-rule:nonzero;fill:rgb(0%,0%,0%);fill-opacity:1;" d="M 63.113281 57.472656 C 61.390625 57.472656 59.992188 56.070312 59.992188 54.347656 C 59.992188 52.625 61.390625 51.222656 63.113281 51.222656 C 64.839844 51.222656 66.238281 52.625 66.238281 54.347656 C 66.238281 56.070312 64.839844 57.472656 63.113281 57.472656 Z M 63.113281 53.722656 C 62.769531 53.722656 62.488281 54.003906 62.488281 54.347656 C 62.488281 54.691406 62.769531 54.972656 63.113281 54.972656 C 63.457031 54.972656 63.738281 54.691406 63.738281 54.347656 C 63.738281 54.003906 63.460938 53.722656 63.113281 53.722656 Z M 63.113281 53.722656 "/>
<path style=" stroke:none;fill-rule:nonzero;fill:rgb(0%,0%,0%);fill-opacity:1;" d="M 54.359375 75 C 52.636719 75 51.234375 73.601562 51.234375 71.878906 C 51.234375 70.152344 52.636719 68.753906 54.359375 68.753906 C 56.082031 68.753906 57.480469 70.152344 57.480469 71.878906 C 57.480469 73.601562 56.082031 75 54.359375 75 Z M 54.359375 71.253906 C 54.015625 71.253906 53.734375 71.535156 53.734375 71.878906 C 53.734375 72.222656 54.015625 72.503906 54.359375 72.503906 C 54.703125 72.503906 54.984375 72.222656 54.984375 71.878906 C 54.984375 71.535156 54.703125 71.253906 54.359375 71.253906 Z M 54.359375 71.253906 "/>
<path style=" stroke:none;fill-rule:nonzero;fill:rgb(0%,0%,0%);fill-opacity:1;" d="M 54.359375 66.230469 C 52.636719 66.230469 51.234375 64.828125 51.234375 63.105469 C 51.234375 61.382812 52.636719 59.980469 54.359375 59.980469 C 56.082031 59.980469 57.480469 61.382812 57.480469 63.105469 C 57.480469 64.828125 56.082031 66.230469 54.359375 66.230469 Z M 54.359375 62.480469 C 54.015625 62.480469 53.734375 62.761719 53.734375 63.105469 C 53.734375 63.449219 54.015625 63.730469 54.359375 63.730469 C 54.703125 63.730469 54.984375 63.449219 54.984375 63.105469 C 54.984375 62.761719 54.703125 62.480469 54.359375 62.480469 Z M 54.359375 62.480469 "/>
<path style=" stroke:none;fill-rule:nonzero;fill:rgb(0%,0%,0%);fill-opacity:1;" d="M 54.359375 57.472656 C 52.636719 57.472656 51.234375 56.070312 51.234375 54.347656 C 51.234375 52.625 52.636719 51.222656 54.359375 51.222656 C 56.082031 51.222656 57.480469 52.625 57.480469 54.347656 C 57.480469 56.070312 56.082031 57.472656 54.359375 57.472656 Z M 54.359375 53.722656 C 54.015625 53.722656 53.734375 54.003906 53.734375 54.347656 C 53.734375 54.691406 54.015625 54.972656 54.359375 54.972656 C 54.703125 54.972656 54.984375 54.691406 54.984375 54.347656 C 54.984375 54.003906 54.703125 53.722656 54.359375 53.722656 Z M 54.359375 53.722656 "/>
<path style=" stroke:none;fill-rule:nonzero;fill:rgb(0%,0%,0%);fill-opacity:1;" d="M 78.734375 80 L 47.5 80 C 46.808594 80 46.25 79.441406 46.25 78.75 L 46.25 37.5 C 46.25 36.808594 46.808594 36.25 47.5 36.25 L 78.734375 36.25 C 79.425781 36.25 79.984375 36.808594 79.984375 37.5 L 79.984375 78.75 C 79.984375 79.441406 79.425781 80 78.734375 80 Z M 48.75 77.5 L 77.488281 77.5 L 77.488281 38.75 L 48.75 38.75 Z M 48.75 77.5 "/>
<path style=" stroke:none;fill-rule:nonzero;fill:rgb(0%,0%,0%);fill-opacity:1;" d="M 26.269531 54.996094 C 25.578125 54.996094 25.019531 54.4375 25.019531 53.746094 L 25.019531 50 C 25.019531 49.308594 25.578125 48.75 26.269531 48.75 C 26.957031 48.75 27.519531 49.308594 27.519531 50 L 27.519531 53.746094 C 27.519531 54.4375 26.957031 54.996094 26.269531 54.996094 Z M 26.269531 54.996094 "/>
<path style=" stroke:none;fill-rule:nonzero;fill:rgb(0%,0%,0%);fill-opacity:1;" d="M 42.515625 54.996094 C 41.824219 54.996094 41.265625 54.4375 41.265625 53.746094 L 41.265625 50 C 41.265625 49.308594 41.824219 48.75 42.515625 48.75 C 43.207031 48.75 43.765625 49.308594 43.765625 50 L 43.765625 53.746094 C 43.765625 54.4375 43.207031 54.996094 42.515625 54.996094 Z M 42.515625 54.996094 "/>
<path style=" stroke:none;fill-rule:nonzero;fill:rgb(0%,0%,0%);fill-opacity:1;" d="M 42.515625 51.25 L 26.269531 51.25 C 25.578125 51.25 25.019531 50.691406 25.019531 50 C 25.019531 49.308594 25.578125 48.75 26.269531 48.75 L 42.515625 48.75 C 43.207031 48.75 43.765625 49.308594 43.765625 50 C 43.765625 50.691406 43.207031 51.25 42.515625 51.25 Z M 42.515625 51.25 "/>
<path style=" stroke:none;fill-rule:nonzero;fill:rgb(0%,0%,0%);fill-opacity:1;" d="M 31.898438 51.25 C 31.207031 51.25 30.652344 50.691406 30.652344 50 L 30.652344 12.507812 C 30.652344 11.816406 31.207031 11.257812 31.898438 11.257812 C 32.589844 11.257812 33.148438 11.816406 33.148438 12.507812 L 33.148438 50 C 33.148438 50.691406 32.589844 51.25 31.898438 51.25 Z M 31.898438 51.25 "/>
<path style=" stroke:none;fill-rule:nonzero;fill:rgb(0%,0%,0%);fill-opacity:1;" d="M 36.878906 51.25 C 36.1875 51.25 35.628906 50.691406 35.628906 50 L 35.628906 12.507812 C 35.628906 11.816406 36.1875 11.257812 36.878906 11.257812 C 37.570312 11.257812 38.128906 11.816406 38.128906 12.507812 L 38.128906 50 C 38.128906 50.691406 37.570312 51.25 36.878906 51.25 Z M 36.878906 51.25 "/>
<path style=" stroke:none;fill-rule:nonzero;fill:rgb(0%,0%,0%);fill-opacity:1;" d="M 36.878906 4.988281 C 36.1875 4.988281 35.628906 4.429688 35.628906 3.738281 C 35.628906 3.054688 35.074219 2.5 34.390625 2.5 C 33.707031 2.5 33.148438 3.054688 33.148438 3.738281 C 33.148438 4.429688 32.589844 4.988281 31.898438 4.988281 C 31.207031 4.988281 30.652344 4.429688 30.652344 3.738281 C 30.652344 1.679688 32.328125 0 34.390625 0 C 36.449219 0 38.128906 1.679688 38.128906 3.738281 C 38.128906 4.429688 37.570312 4.988281 36.878906 4.988281 Z M 36.878906 4.988281 "/>
<path style=" stroke:none;fill-rule:nonzero;fill:rgb(0%,0%,0%);fill-opacity:1;" d="M 57.542969 13.742188 C 56.851562 13.742188 56.292969 13.183594 56.292969 12.492188 C 56.292969 11.800781 56.851562 11.242188 57.542969 11.242188 C 58.226562 11.242188 58.78125 10.6875 58.78125 10.003906 C 58.78125 9.320312 58.226562 8.761719 57.542969 8.761719 C 56.851562 8.761719 56.292969 8.203125 56.292969 7.511719 C 56.292969 6.820312 56.851562 6.265625 57.542969 6.265625 C 59.605469 6.265625 61.28125 7.941406 61.28125 10.003906 C 61.28125 12.0625 59.605469 13.742188 57.542969 13.742188 Z M 57.542969 13.742188 "/>
<path style=" stroke:none;fill-rule:nonzero;fill:rgb(0%,0%,0%);fill-opacity:1;" d="M 57.542969 8.761719 L 11.253906 8.761719 C 10.5625 8.761719 10.003906 8.203125 10.003906 7.511719 C 10.003906 6.820312 10.5625 6.265625 11.253906 6.265625 L 57.542969 6.265625 C 58.234375 6.265625 58.792969 6.820312 58.792969 7.511719 C 58.792969 8.203125 58.234375 8.761719 57.542969 8.761719 Z M 57.542969 8.761719 "/>
<path style=" stroke:none;fill-rule:nonzero;fill:rgb(0%,0%,0%);fill-opacity:1;" d="M 57.542969 13.742188 L 11.234375 13.742188 C 10.542969 13.742188 9.984375 13.183594 9.984375 12.492188 C 9.984375 11.800781 10.542969 11.242188 11.234375 11.242188 L 57.542969 11.242188 C 58.234375 11.242188 58.792969 11.800781 58.792969 12.492188 C 58.792969 13.183594 58.234375 13.742188 57.542969 13.742188 Z M 57.542969 13.742188 "/>
<path style=" stroke:none;fill-rule:nonzero;fill:rgb(0%,0%,0%);fill-opacity:1;" d="M 11.269531 13.742188 C 9.207031 13.742188 7.53125 12.0625 7.53125 10.003906 C 7.53125 7.941406 9.207031 6.265625 11.269531 6.265625 C 11.960938 6.265625 12.519531 6.820312 12.519531 7.511719 C 12.519531 8.203125 11.960938 8.761719 11.269531 8.761719 C 10.585938 8.761719 10.03125 9.320312 10.03125 10.003906 C 10.03125 10.6875 10.585938 11.242188 11.269531 11.242188 C 11.960938 11.242188 12.519531 11.800781 12.519531 12.492188 C 12.519531 13.183594 11.960938 13.742188 11.269531 13.742188 Z M 11.269531 13.742188 "/>
<path style=" stroke:none;fill-rule:nonzero;fill:rgb(0%,0%,0%);fill-opacity:1;" d="M 31.898438 8.761719 C 31.207031 8.761719 30.652344 8.203125 30.652344 7.511719 L 30.652344 3.738281 C 30.652344 3.046875 31.207031 2.488281 31.898438 2.488281 C 32.589844 2.488281 33.148438 3.046875 33.148438 3.738281 L 33.148438 7.511719 C 33.148438 8.203125 32.589844 8.761719 31.898438 8.761719 Z M 31.898438 8.761719 "/>
<path style=" stroke:none;fill-rule:nonzero;fill:rgb(0%,0%,0%);fill-opacity:1;" d="M 36.878906 8.761719 C 36.1875 8.761719 35.628906 8.203125 35.628906 7.511719 L 35.628906 3.738281 C 35.628906 3.046875 36.1875 2.488281 36.878906 2.488281 C 37.570312 2.488281 38.128906 3.046875 38.128906 3.738281 L 38.128906 7.511719 C 38.128906 8.203125 37.570312 8.761719 36.878906 8.761719 Z M 36.878906 8.761719 "/>
<path style=" stroke:none;fill-rule:nonzero;fill:rgb(0%,0%,0%);fill-opacity:1;" d="M 11.265625 48.746094 C 5.066406 48.746094 0.0195312 43.703125 0.0195312 37.5 C 0.0195312 36.808594 0.578125 36.25 1.269531 36.25 C 1.960938 36.25 2.519531 36.808594 2.519531 37.5 C 2.519531 42.324219 6.445312 46.25 11.265625 46.25 C 16.089844 46.25 20.015625 42.324219 20.015625 37.5 C 20.015625 36.808594 20.574219 36.25 21.265625 36.25 C 21.957031 36.25 22.515625 36.808594 22.515625 37.5 C 22.515625 43.703125 17.46875 48.746094 11.265625 48.746094 Z M 11.265625 48.746094 "/>
<path style=" stroke:none;fill-rule:nonzero;fill:rgb(0%,0%,0%);fill-opacity:1;" d="M 21.265625 38.75 L 1.269531 38.75 C 0.578125 38.75 0.0195312 38.191406 0.0195312 37.5 C 0.0195312 36.808594 0.578125 36.25 1.269531 36.25 L 21.265625 36.25 C 21.957031 36.25 22.515625 36.808594 22.515625 37.5 C 22.515625 38.191406 21.957031 38.75 21.265625 38.75 Z M 21.265625 38.75 "/>
<path style=" stroke:none;fill-rule:nonzero;fill:rgb(0%,0%,0%);fill-opacity:1;" d="M 21.265625 38.75 C 20.769531 38.75 20.300781 38.453125 20.105469 37.964844 L 10.074219 12.957031 C 9.816406 12.316406 10.128906 11.589844 10.769531 11.332031 C 11.410156 11.070312 12.140625 11.386719 12.394531 12.027344 L 22.425781 37.035156 C 22.683594 37.675781 22.371094 38.402344 21.730469 38.660156 C 21.578125 38.722656 21.421875 38.75 21.265625 38.75 Z M 21.265625 38.75 "/>
<path style=" stroke:none;fill-rule:nonzero;fill:rgb(0%,0%,0%);fill-opacity:1;" d="M 1.269531 38.75 C 1.117188 38.75 0.957031 38.722656 0.808594 38.660156 C 0.167969 38.40625 -0.148438 37.679688 0.109375 37.039062 L 10.074219 12.03125 C 10.332031 11.386719 11.058594 11.074219 11.699219 11.332031 C 12.339844 11.585938 12.652344 12.3125 12.394531 12.957031 L 2.429688 37.964844 C 2.234375 38.453125 1.765625 38.75 1.269531 38.75 Z M 1.269531 38.75 "/>
<path style=" stroke:none;fill-rule:nonzero;fill:rgb(0%,0%,0%);fill-opacity:1;" d="M 67.515625 38.75 C 67.019531 38.75 66.550781 38.453125 66.355469 37.964844 L 56.324219 12.957031 C 56.066406 12.316406 56.378906 11.589844 57.019531 11.332031 C 57.664062 11.070312 58.386719 11.386719 58.644531 12.027344 L 68.675781 37.035156 C 68.933594 37.675781 68.621094 38.402344 67.980469 38.660156 C 67.828125 38.722656 67.671875 38.75 67.515625 38.75 Z M 67.515625 38.75 "/>
<path style=" stroke:none;fill-rule:nonzero;fill:rgb(0%,0%,0%);fill-opacity:1;" d="M 47.519531 38.75 C 47.367188 38.75 47.207031 38.722656 47.058594 38.660156 C 46.417969 38.40625 46.101562 37.679688 46.359375 37.039062 L 56.324219 12.03125 C 56.578125 11.386719 57.304688 11.074219 57.945312 11.332031 C 58.589844 11.585938 58.902344 12.3125 58.644531 12.953125 L 48.679688 37.964844 C 48.484375 38.453125 48.015625 38.75 47.519531 38.75 Z M 47.519531 38.75 "/>
<path style=" stroke:none;fill-rule:nonzero;fill:rgb(0%,0%,0%);fill-opacity:1;" d="M 47.507812 55.027344 L 12.523438 55.027344 C 11.832031 55.027344 11.273438 54.46875 11.273438 53.777344 C 11.273438 53.085938 11.832031 52.527344 12.523438 52.527344 L 47.507812 52.527344 C 48.199219 52.527344 48.757812 53.085938 48.757812 53.777344 C 48.757812 54.46875 48.199219 55.027344 47.507812 55.027344 Z M 47.507812 55.027344 "/>
<path style=" stroke:none;fill-rule:nonzero;fill:rgb(0%,0%,0%);fill-opacity:1;" d="M 47.507812 67.523438 L 12.523438 67.523438 C 11.832031 67.523438 11.273438 66.964844 11.273438 66.273438 C 11.273438 65.582031 11.832031 65.023438 12.523438 65.023438 L 47.507812 65.023438 C 48.199219 65.023438 48.757812 65.582031 48.757812 66.273438 C 48.757812 66.964844 48.199219 67.523438 47.507812 67.523438 Z M 47.507812 67.523438 "/>
<path style=" stroke:none;fill-rule:nonzero;fill:rgb(0%,0%,0%);fill-opacity:1;" d="M 12.523438 67.503906 C 10.457031 67.503906 8.773438 65.820312 8.773438 63.753906 C 8.773438 63.0625 9.332031 62.503906 10.023438 62.503906 C 10.714844 62.503906 11.273438 63.0625 11.273438 63.753906 C 11.273438 64.445312 11.832031 65.003906 12.523438 65.003906 C 13.214844 65.003906 13.773438 65.5625 13.773438 66.253906 C 13.773438 66.945312 13.214844 67.503906 12.523438 67.503906 Z M 12.523438 67.503906 "/>
<path style=" stroke:none;fill-rule:nonzero;fill:rgb(0%,0%,0%);fill-opacity:1;" d="M 10.023438 57.472656 C 9.332031 57.472656 8.773438 56.914062 8.773438 56.222656 C 8.773438 54.15625 10.457031 52.472656 12.523438 52.472656 C 13.214844 52.472656 13.773438 53.03125 13.773438 53.722656 C 13.773438 54.414062 13.214844 54.972656 12.523438 54.972656 C 11.832031 54.972656 11.273438 55.53125 11.273438 56.222656 C 11.273438 56.914062 10.714844 57.472656 10.023438 57.472656 Z M 10.023438 57.472656 "/>
<path style=" stroke:none;fill-rule:nonzero;fill:rgb(0%,0%,0%);fill-opacity:1;" d="M 10.023438 65.003906 C 9.332031 65.003906 8.773438 64.445312 8.773438 63.753906 L 8.773438 56.222656 C 8.773438 55.53125 9.332031 54.972656 10.023438 54.972656 C 10.714844 54.972656 11.273438 55.53125 11.273438 56.222656 L 11.273438 63.753906 C 11.273438 64.445312 10.714844 65.003906 10.023438 65.003906 Z M 10.023438 65.003906 "/>
<path style=" stroke:none;fill-rule:nonzero;fill:rgb(0%,0%,0%);fill-opacity:1;" d="M 15.023438 71.253906 C 14.332031 71.253906 13.773438 70.695312 13.773438 70.003906 L 13.773438 66.277344 C 13.773438 65.585938 14.332031 65.027344 15.023438 65.027344 C 15.714844 65.027344 16.273438 65.585938 16.273438 66.277344 L 16.273438 70.003906 C 16.273438 70.695312 15.710938 71.253906 15.023438 71.253906 Z M 15.023438 71.253906 "/>
<path style=" stroke:none;fill-rule:nonzero;fill:rgb(0%,0%,0%);fill-opacity:1;" d="M 26.273438 71.253906 L 15.023438 71.253906 C 14.332031 71.253906 13.773438 70.695312 13.773438 70.003906 C 13.773438 69.3125 14.332031 68.753906 15.023438 68.753906 L 26.273438 68.753906 C 26.960938 68.753906 27.519531 69.3125 27.519531 70.003906 C 27.519531 70.695312 26.960938 71.253906 26.273438 71.253906 Z M 26.273438 71.253906 "/>
<path style=" stroke:none;fill-rule:nonzero;fill:rgb(0%,0%,0%);fill-opacity:1;" d="M 26.273438 71.253906 C 25.582031 71.253906 25.023438 70.695312 25.023438 70.003906 L 25.023438 66.277344 C 25.023438 65.585938 25.582031 65.027344 26.273438 65.027344 C 26.960938 65.027344 27.519531 65.585938 27.519531 66.277344 L 27.519531 70.003906 C 27.519531 70.695312 26.960938 71.253906 26.273438 71.253906 Z M 26.273438 71.253906 "/>
</g>
</svg>
