<?xml version="1.0" encoding="UTF-8"?>
<svg xmlns="http://www.w3.org/2000/svg" xmlns:xlink="http://www.w3.org/1999/xlink" width="80pt" height="80pt" viewBox="0 0 80 80" version="1.1">
<g id="surface1">
<path style=" stroke:none;fill-rule:nonzero;fill:rgb(0%,0%,0%);fill-opacity:1;" d="M 46.25 69.375 C 45.558594 69.375 45 68.816406 45 68.125 C 45 63.988281 41.636719 60.625 37.5 60.625 C 36.808594 60.625 36.25 60.066406 36.25 59.375 C 36.25 58.683594 36.808594 58.125 37.5 58.125 C 43.015625 58.125 47.5 62.609375 47.5 68.125 C 47.5 68.816406 46.941406 69.375 46.25 69.375 Z M 46.25 69.375 "/>
<path style=" stroke:none;fill-rule:nonzero;fill:rgb(0%,0%,0%);fill-opacity:1;" d="M 37.5 60.625 L 31.25 60.621094 C 30.558594 60.621094 30 60.0625 30 59.371094 C 30 58.679688 30.558594 58.121094 31.25 58.121094 L 37.5 58.125 C 38.191406 58.125 38.75 58.683594 38.75 59.375 C 38.75 60.066406 38.191406 60.625 37.5 60.625 Z M 37.5 60.625 "/>
<path style=" stroke:none;fill-rule:nonzero;fill:rgb(0%,0%,0%);fill-opacity:1;" d="M 2.5 78.125 C 1.121094 78.125 0 77.003906 0 75.625 C 0 74.933594 0.558594 74.375 1.25 74.375 C 1.941406 74.375 2.5 74.933594 2.5 75.625 L 2.5 75.628906 C 3.191406 75.628906 3.75 76.183594 3.75 76.875 C 3.75 77.566406 3.191406 78.125 2.5 78.125 Z M 2.5 78.125 "/>
<path style=" stroke:none;fill-rule:nonzero;fill:rgb(0%,0%,0%);fill-opacity:1;" d="M 45 78.125 C 44.308594 78.125 43.75 77.566406 43.75 76.875 C 43.75 76.183594 44.308594 75.625 45 75.625 L 45.003906 75.625 C 45.003906 74.933594 45.558594 74.375 46.25 74.375 C 46.941406 74.375 47.5 74.933594 47.5 75.625 C 47.5 77.003906 46.378906 78.125 45 78.125 Z M 45 78.125 "/>
<path style=" stroke:none;fill-rule:nonzero;fill:rgb(0%,0%,0%);fill-opacity:1;" d="M 46.25 76.875 C 45.558594 76.875 45 76.316406 45 75.625 L 45 68.125 C 45 67.433594 45.558594 66.875 46.25 66.875 C 46.941406 66.875 47.5 67.433594 47.5 68.125 L 47.5 75.625 C 47.5 76.316406 46.941406 76.875 46.25 76.875 Z M 46.25 76.875 "/>
<path style=" stroke:none;fill-rule:nonzero;fill:rgb(0%,0%,0%);fill-opacity:1;" d="M 1.25 69.371094 C 0.558594 69.371094 0 68.8125 0 68.121094 C 0 62.609375 4.484375 58.121094 10 58.121094 C 10.691406 58.121094 11.25 58.679688 11.25 59.371094 C 11.25 60.0625 10.691406 60.621094 10 60.621094 C 5.863281 60.621094 2.5 63.984375 2.5 68.121094 C 2.5 68.8125 1.941406 69.371094 1.25 69.371094 Z M 1.25 69.371094 "/>
<path style=" stroke:none;fill-rule:nonzero;fill:rgb(0%,0%,0%);fill-opacity:1;" d="M 10 60.625 C 9.308594 60.625 8.75 60.066406 8.75 59.375 C 8.75 58.683594 9.308594 58.125 10 58.125 L 16.25 58.121094 C 16.941406 58.121094 17.5 58.679688 17.5 59.371094 C 17.5 60.0625 16.941406 60.621094 16.25 60.621094 Z M 10 60.625 "/>
<path style=" stroke:none;fill-rule:nonzero;fill:rgb(0%,0%,0%);fill-opacity:1;" d="M 1.25 76.871094 C 0.558594 76.871094 0 76.3125 0 75.621094 L 0 68.121094 C 0 67.429688 0.558594 66.871094 1.25 66.871094 C 1.941406 66.871094 2.5 67.429688 2.5 68.121094 L 2.5 75.621094 C 2.5 76.3125 1.941406 76.871094 1.25 76.871094 Z M 1.25 76.871094 "/>
<path style=" stroke:none;fill-rule:nonzero;fill:rgb(0%,0%,0%);fill-opacity:1;" d="M 45 78.125 L 2.5 78.125 C 1.808594 78.125 1.25 77.566406 1.25 76.875 C 1.25 76.183594 1.808594 75.625 2.5 75.625 L 45 75.625 C 45.691406 75.625 46.25 76.183594 46.25 76.875 C 46.25 77.566406 45.691406 78.125 45 78.125 Z M 45 78.125 "/>
<path style=" stroke:none;fill-rule:nonzero;fill:rgb(0%,0%,0%);fill-opacity:1;" d="M 16.25 60.621094 C 15.558594 60.621094 15 60.0625 15 59.371094 L 15 53.792969 C 15 53.101562 15.558594 52.542969 16.25 52.542969 C 16.941406 52.542969 17.5 53.101562 17.5 53.792969 L 17.5 59.371094 C 17.5 60.0625 16.941406 60.621094 16.25 60.621094 Z M 16.25 60.621094 "/>
<path style=" stroke:none;fill-rule:nonzero;fill:rgb(0%,0%,0%);fill-opacity:1;" d="M 31.25 60.621094 C 30.558594 60.621094 30 60.0625 30 59.371094 L 30 53.792969 C 30 53.101562 30.558594 52.542969 31.25 52.542969 C 31.941406 52.542969 32.5 53.101562 32.5 53.792969 L 32.5 59.371094 C 32.5 60.0625 31.941406 60.621094 31.25 60.621094 Z M 31.25 60.621094 "/>
<path style=" stroke:none;fill-rule:nonzero;fill:rgb(0%,0%,0%);fill-opacity:1;" d="M 23.75 56.875 C 14.101562 56.875 6.25 49.023438 6.25 39.375 C 6.25 38.683594 6.808594 38.125 7.5 38.125 C 8.191406 38.125 8.75 38.683594 8.75 39.375 C 8.75 47.644531 15.476562 54.375 23.75 54.375 C 32.019531 54.375 38.75 47.644531 38.75 39.375 C 38.75 38.683594 39.308594 38.125 40 38.125 C 40.691406 38.125 41.25 38.683594 41.25 39.375 C 41.25 49.023438 33.398438 56.875 23.75 56.875 Z M 23.75 56.875 "/>
<path style=" stroke:none;fill-rule:nonzero;fill:rgb(0%,0%,0%);fill-opacity:1;" d="M 7.5 40.625 C 6.808594 40.625 6.25 40.066406 6.25 39.375 L 6.25 28.125 C 6.25 27.433594 6.808594 26.875 7.5 26.875 C 8.191406 26.875 8.75 27.433594 8.75 28.125 L 8.75 39.375 C 8.75 40.066406 8.191406 40.625 7.5 40.625 Z M 7.5 40.625 "/>
<path style=" stroke:none;fill-rule:nonzero;fill:rgb(0%,0%,0%);fill-opacity:1;" d="M 40 40.625 C 39.308594 40.625 38.75 40.066406 38.75 39.375 L 38.75 25.625 C 38.75 24.933594 39.308594 24.375 40 24.375 C 40.691406 24.375 41.25 24.933594 41.25 25.625 L 41.25 39.375 C 41.25 40.066406 40.691406 40.625 40 40.625 Z M 40 40.625 "/>
<path style=" stroke:none;fill-rule:nonzero;fill:rgb(0%,0%,0%);fill-opacity:1;" d="M 40 26.875 C 39.308594 26.875 38.75 26.316406 38.75 25.625 C 38.75 22.179688 35.945312 19.375 32.5 19.375 C 31.808594 19.375 31.25 18.816406 31.25 18.125 C 31.25 17.433594 31.808594 16.875 32.5 16.875 C 37.324219 16.875 41.25 20.800781 41.25 25.625 C 41.25 26.316406 40.691406 26.875 40 26.875 Z M 40 26.875 "/>
<path style=" stroke:none;fill-rule:nonzero;fill:rgb(0%,0%,0%);fill-opacity:1;" d="M 32.5 19.375 C 31.808594 19.375 31.25 18.816406 31.25 18.125 L 31.25 13.125 C 31.25 12.433594 31.808594 11.875 32.5 11.875 C 33.191406 11.875 33.75 12.433594 33.75 13.125 L 33.75 18.125 C 33.75 18.816406 33.191406 19.375 32.5 19.375 Z M 32.5 19.375 "/>
<path style=" stroke:none;fill-rule:nonzero;fill:rgb(0%,0%,0%);fill-opacity:1;" d="M 32.5 14.375 L 22.5 14.375 C 21.808594 14.375 21.25 13.816406 21.25 13.125 C 21.25 12.433594 21.808594 11.875 22.5 11.875 L 32.5 11.875 C 33.191406 11.875 33.75 12.433594 33.75 13.125 C 33.75 13.816406 33.191406 14.375 32.5 14.375 Z M 32.5 14.375 "/>
<path style=" stroke:none;fill-rule:nonzero;fill:rgb(0%,0%,0%);fill-opacity:1;" d="M 7.496094 29.375 C 6.804688 29.375 6.246094 28.816406 6.246094 28.125 C 6.246094 19.164062 13.539062 11.875 22.5 11.875 C 23.191406 11.875 23.75 12.433594 23.75 13.125 C 23.75 13.816406 23.191406 14.375 22.5 14.375 C 14.917969 14.375 8.746094 20.542969 8.746094 28.125 C 8.746094 28.816406 8.1875 29.375 7.496094 29.375 Z M 7.496094 29.375 "/>
<path style=" stroke:none;fill-rule:nonzero;fill:rgb(0%,0%,0%);fill-opacity:1;" d="M 40 35.625 C 39.679688 35.625 39.359375 35.503906 39.117188 35.257812 L 35.367188 31.507812 C 34.878906 31.019531 34.878906 30.230469 35.367188 29.742188 C 35.855469 29.253906 36.644531 29.253906 37.132812 29.742188 L 40.882812 33.492188 C 41.371094 33.980469 41.371094 34.769531 40.882812 35.257812 C 40.640625 35.503906 40.320312 35.625 40 35.625 Z M 40 35.625 "/>
<path style=" stroke:none;fill-rule:nonzero;fill:rgb(0%,0%,0%);fill-opacity:1;" d="M 23.75 34.375 C 16.78125 34.375 10.992188 31.875 10.75 31.769531 C 10.117188 31.496094 9.828125 30.757812 10.105469 30.125 C 10.378906 29.492188 11.117188 29.207031 11.75 29.480469 C 11.804688 29.503906 17.324219 31.875 23.75 31.875 C 30.199219 31.875 35.695312 29.503906 35.75 29.480469 C 36.382812 29.199219 37.121094 29.492188 37.394531 30.125 C 37.671875 30.757812 37.382812 31.496094 36.75 31.769531 C 36.507812 31.875 30.714844 34.375 23.75 34.375 Z M 23.75 34.375 "/>
<path style=" stroke:none;fill-rule:nonzero;fill:rgb(0%,0%,0%);fill-opacity:1;" d="M 7.496094 35.625 C 7.175781 35.625 6.855469 35.503906 6.613281 35.257812 C 6.125 34.769531 6.125 33.980469 6.613281 33.492188 L 10.367188 29.742188 C 10.855469 29.253906 11.644531 29.253906 12.132812 29.742188 C 12.621094 30.230469 12.621094 31.019531 12.132812 31.507812 L 8.382812 35.257812 C 8.136719 35.503906 7.816406 35.625 7.496094 35.625 Z M 7.496094 35.625 "/>
<path style=" stroke:none;fill-rule:nonzero;fill:rgb(0%,0%,0%);fill-opacity:1;" d="M 20 63.125 C 19.761719 63.125 19.519531 63.054688 19.304688 62.914062 L 15.554688 60.414062 C 14.980469 60.027344 14.824219 59.253906 15.210938 58.679688 C 15.59375 58.105469 16.371094 57.949219 16.945312 58.332031 L 20.695312 60.835938 C 21.269531 61.21875 21.425781 61.996094 21.039062 62.570312 C 20.800781 62.929688 20.402344 63.125 20 63.125 Z M 20 63.125 "/>
<path style=" stroke:none;fill-rule:nonzero;fill:rgb(0%,0%,0%);fill-opacity:1;" d="M 20 63.125 C 19.476562 63.125 18.988281 62.792969 18.816406 62.269531 C 18.59375 61.617188 18.949219 60.90625 19.605469 60.6875 L 23.355469 59.433594 C 24.007812 59.214844 24.71875 59.566406 24.9375 60.222656 C 25.15625 60.875 24.800781 61.585938 24.148438 61.804688 L 20.398438 63.058594 C 20.265625 63.105469 20.132812 63.125 20 63.125 Z M 20 63.125 "/>
<path style=" stroke:none;fill-rule:nonzero;fill:rgb(0%,0%,0%);fill-opacity:1;" d="M 27.5 63.125 C 27.097656 63.125 26.699219 62.929688 26.460938 62.570312 C 26.074219 61.996094 26.230469 61.21875 26.804688 60.835938 L 30.554688 58.332031 C 31.128906 57.949219 31.90625 58.105469 32.289062 58.679688 C 32.675781 59.253906 32.519531 60.027344 31.945312 60.414062 L 28.195312 62.914062 C 27.980469 63.054688 27.738281 63.125 27.5 63.125 Z M 27.5 63.125 "/>
<path style=" stroke:none;fill-rule:nonzero;fill:rgb(0%,0%,0%);fill-opacity:1;" d="M 27.5 63.125 C 27.367188 63.125 27.234375 63.105469 27.105469 63.058594 L 23.355469 61.804688 C 22.699219 61.585938 22.34375 60.878906 22.566406 60.222656 C 22.785156 59.570312 23.496094 59.214844 24.148438 59.433594 L 27.898438 60.6875 C 28.550781 60.90625 28.90625 61.617188 28.6875 62.269531 C 28.511719 62.792969 28.023438 63.125 27.5 63.125 Z M 27.5 63.125 "/>
<path style=" stroke:none;fill-rule:nonzero;fill:rgb(0%,0%,0%);fill-opacity:1;" d="M 23.789062 68.125 C 23.097656 68.125 22.53125 67.566406 22.53125 66.875 C 22.53125 66.183594 23.082031 65.625 23.773438 65.625 L 23.789062 65.625 C 24.476562 65.625 25.039062 66.183594 25.039062 66.875 C 25.039062 67.566406 24.476562 68.125 23.789062 68.125 Z M 23.789062 68.125 "/>
<path style=" stroke:none;fill-rule:nonzero;fill:rgb(0%,0%,0%);fill-opacity:1;" d="M 23.789062 73.125 C 23.097656 73.125 22.53125 72.566406 22.53125 71.875 C 22.53125 71.183594 23.082031 70.625 23.773438 70.625 L 23.789062 70.625 C 24.476562 70.625 25.039062 71.183594 25.039062 71.875 C 25.039062 72.566406 24.476562 73.125 23.789062 73.125 Z M 23.789062 73.125 "/>
<path style=" stroke:none;fill-rule:nonzero;fill:rgb(0%,0%,0%);fill-opacity:1;" d="M 48.75 40.625 C 48.539062 40.625 48.324219 40.570312 48.132812 40.460938 C 47.742188 40.238281 47.5 39.824219 47.5 39.375 L 47.5 36.875 L 45 36.875 C 44.308594 36.875 43.75 36.316406 43.75 35.625 L 43.75 3.125 C 43.75 2.433594 44.308594 1.875 45 1.875 L 77.5 1.875 C 78.191406 1.875 78.75 2.433594 78.75 3.125 L 78.75 35.625 C 78.75 36.316406 78.191406 36.875 77.5 36.875 L 55.34375 36.875 L 49.394531 40.445312 C 49.195312 40.566406 48.972656 40.625 48.75 40.625 Z M 46.25 34.375 L 48.75 34.375 C 49.441406 34.375 50 34.933594 50 35.625 L 50 37.167969 L 54.355469 34.550781 C 54.546875 34.433594 54.769531 34.375 54.996094 34.375 L 76.25 34.375 L 76.25 4.375 L 46.25 4.375 Z M 46.25 34.375 "/>
<path style=" stroke:none;fill-rule:nonzero;fill:rgb(0%,0%,0%);fill-opacity:1;" d="M 75 54.371094 L 55.003906 54.371094 C 54.3125 54.371094 53.753906 53.8125 53.753906 53.121094 C 53.753906 52.429688 54.3125 51.871094 55.003906 51.871094 L 75 51.871094 C 75.691406 51.871094 76.25 52.429688 76.25 53.121094 C 76.25 53.8125 75.691406 54.371094 75 54.371094 Z M 75 54.371094 "/>
<path style=" stroke:none;fill-rule:nonzero;fill:rgb(0%,0%,0%);fill-opacity:1;" d="M 65.003906 78.125 C 64.3125 78.125 63.753906 77.566406 63.753906 76.875 L 63.753906 49.371094 C 63.753906 48.679688 64.3125 48.121094 65.003906 48.121094 C 65.695312 48.121094 66.253906 48.679688 66.253906 49.371094 L 66.253906 76.875 C 66.253906 77.566406 65.695312 78.125 65.003906 78.125 Z M 65.003906 78.125 "/>
<path style=" stroke:none;fill-rule:nonzero;fill:rgb(0%,0%,0%);fill-opacity:1;" d="M 75.003906 78.125 L 55.003906 78.125 C 54.3125 78.125 53.753906 77.566406 53.753906 76.875 C 53.753906 76.183594 54.3125 75.625 55.003906 75.625 L 75.003906 75.625 C 75.695312 75.625 76.253906 76.183594 76.253906 76.875 C 76.253906 77.566406 75.695312 78.125 75.003906 78.125 Z M 75.003906 78.125 "/>
<path style=" stroke:none;fill-rule:nonzero;fill:rgb(0%,0%,0%);fill-opacity:1;" d="M 55.003906 70.625 C 52.246094 70.625 50.003906 68.382812 50.003906 65.625 C 50.003906 64.933594 50.5625 64.375 51.253906 64.375 C 51.945312 64.375 52.503906 64.933594 52.503906 65.625 C 52.503906 67.003906 53.625 68.125 55.003906 68.125 C 56.382812 68.125 57.503906 67.003906 57.503906 65.625 C 57.503906 64.933594 58.0625 64.375 58.753906 64.375 C 59.445312 64.375 60.003906 64.933594 60.003906 65.625 C 60.003906 68.382812 57.761719 70.625 55.003906 70.625 Z M 55.003906 70.625 "/>
<path style=" stroke:none;fill-rule:nonzero;fill:rgb(0%,0%,0%);fill-opacity:1;" d="M 58.753906 66.875 L 51.253906 66.875 C 50.5625 66.875 50.003906 66.316406 50.003906 65.625 C 50.003906 64.933594 50.5625 64.375 51.253906 64.375 L 58.753906 64.375 C 59.445312 64.375 60.003906 64.933594 60.003906 65.625 C 60.003906 66.316406 59.445312 66.875 58.753906 66.875 Z M 58.753906 66.875 "/>
<path style=" stroke:none;fill-rule:nonzero;fill:rgb(0%,0%,0%);fill-opacity:1;" d="M 51.253906 66.875 C 51.136719 66.875 51.015625 66.855469 50.894531 66.824219 C 50.234375 66.625 49.859375 65.925781 50.058594 65.265625 L 53.808594 52.761719 C 54.003906 52.101562 54.699219 51.726562 55.363281 51.925781 C 56.023438 52.125 56.398438 52.820312 56.203125 53.480469 L 52.453125 65.984375 C 52.289062 66.527344 51.792969 66.875 51.253906 66.875 Z M 51.253906 66.875 "/>
<path style=" stroke:none;fill-rule:nonzero;fill:rgb(0%,0%,0%);fill-opacity:1;" d="M 58.753906 66.875 C 58.214844 66.875 57.71875 66.527344 57.558594 65.984375 L 53.808594 53.480469 C 53.609375 52.820312 53.984375 52.125 54.644531 51.925781 C 55.308594 51.726562 56.003906 52.101562 56.203125 52.761719 L 59.953125 65.265625 C 60.148438 65.925781 59.773438 66.625 59.113281 66.824219 C 58.992188 66.855469 58.875 66.875 58.753906 66.875 Z M 58.753906 66.875 "/>
<path style=" stroke:none;fill-rule:nonzero;fill:rgb(0%,0%,0%);fill-opacity:1;" d="M 75 70.625 C 72.242188 70.625 70 68.382812 70 65.625 C 70 64.933594 70.558594 64.375 71.25 64.375 C 71.941406 64.375 72.5 64.933594 72.5 65.625 C 72.5 67.003906 73.621094 68.125 75 68.125 C 76.378906 68.125 77.5 67.003906 77.5 65.625 C 77.5 64.933594 78.058594 64.375 78.75 64.375 C 79.441406 64.375 80 64.933594 80 65.625 C 80 68.382812 77.757812 70.625 75 70.625 Z M 75 70.625 "/>
<path style=" stroke:none;fill-rule:nonzero;fill:rgb(0%,0%,0%);fill-opacity:1;" d="M 78.75 66.875 L 71.25 66.875 C 70.558594 66.875 70 66.316406 70 65.625 C 70 64.933594 70.558594 64.375 71.25 64.375 L 78.75 64.375 C 79.441406 64.375 80 64.933594 80 65.625 C 80 66.316406 79.441406 66.875 78.75 66.875 Z M 78.75 66.875 "/>
<path style=" stroke:none;fill-rule:nonzero;fill:rgb(0%,0%,0%);fill-opacity:1;" d="M 71.25 66.875 C 71.128906 66.875 71.011719 66.855469 70.890625 66.824219 C 70.230469 66.625 69.855469 65.925781 70.050781 65.265625 L 73.800781 52.761719 C 74 52.101562 74.695312 51.726562 75.359375 51.925781 C 76.019531 52.125 76.394531 52.820312 76.199219 53.480469 L 72.449219 65.984375 C 72.285156 66.527344 71.789062 66.875 71.25 66.875 Z M 71.25 66.875 "/>
<path style=" stroke:none;fill-rule:nonzero;fill:rgb(0%,0%,0%);fill-opacity:1;" d="M 78.75 66.875 C 78.210938 66.875 77.714844 66.527344 77.550781 65.984375 L 73.800781 53.480469 C 73.605469 52.820312 73.980469 52.125 74.640625 51.925781 C 75.304688 51.726562 76 52.101562 76.199219 52.761719 L 79.949219 65.265625 C 80.144531 65.925781 79.769531 66.625 79.109375 66.824219 C 78.988281 66.855469 78.867188 66.875 78.75 66.875 Z M 78.75 66.875 "/>
<path style=" stroke:none;fill-rule:nonzero;fill:rgb(0%,0%,0%);fill-opacity:1;" d="M 61.25 30.625 C 55.046875 30.625 50 25.578125 50 19.375 C 50 13.171875 55.046875 8.125 61.25 8.125 C 67.453125 8.125 72.5 13.171875 72.5 19.375 C 72.5 25.578125 67.453125 30.625 61.25 30.625 Z M 61.25 10.625 C 56.425781 10.625 52.5 14.550781 52.5 19.375 C 52.5 24.199219 56.425781 28.125 61.25 28.125 C 66.074219 28.125 70 24.199219 70 19.375 C 70 14.550781 66.074219 10.625 61.25 10.625 Z M 61.25 10.625 "/>
<path style=" stroke:none;fill-rule:nonzero;fill:rgb(0%,0%,0%);fill-opacity:1;" d="M 61.25 21.65625 C 60.558594 21.65625 60 21.097656 60 20.40625 L 60 14.371094 C 60 13.683594 60.558594 13.121094 61.25 13.121094 C 61.941406 13.121094 62.5 13.683594 62.5 14.371094 L 62.5 20.40625 C 62.5 21.097656 61.941406 21.65625 61.25 21.65625 Z M 61.25 21.65625 "/>
<path style=" stroke:none;fill-rule:nonzero;fill:rgb(0%,0%,0%);fill-opacity:1;" d="M 61.285156 25.625 C 60.597656 25.625 60.03125 25.066406 60.03125 24.375 C 60.03125 23.683594 60.582031 23.125 61.273438 23.125 L 61.285156 23.125 C 61.976562 23.125 62.535156 23.683594 62.535156 24.375 C 62.535156 25.066406 61.976562 25.625 61.285156 25.625 Z M 61.285156 25.625 "/>
</g>
</svg>
