<?xml version="1.0" encoding="UTF-8"?>
<svg xmlns="http://www.w3.org/2000/svg" xmlns:xlink="http://www.w3.org/1999/xlink" width="80pt" height="80pt" viewBox="0 0 80 80" version="1.1">
<g id="surface1">
<path style=" stroke:none;fill-rule:nonzero;fill:rgb(0%,0%,0%);fill-opacity:1;" d="M 47.355469 57.839844 C 46.675781 57.839844 46.125 57.289062 46.125 56.609375 C 46.125 53.214844 43.363281 50.453125 39.972656 50.453125 C 39.289062 50.453125 38.738281 49.90625 38.738281 49.222656 C 38.738281 48.542969 39.289062 47.992188 39.972656 47.992188 C 44.71875 47.992188 48.585938 51.859375 48.585938 56.609375 C 48.585938 57.289062 48.035156 57.839844 47.355469 57.839844 Z M 47.355469 57.839844 "/>
<path style=" stroke:none;fill-rule:nonzero;fill:rgb(0%,0%,0%);fill-opacity:1;" d="M 39.972656 50.453125 L 35.046875 50.453125 C 34.367188 50.453125 33.816406 49.902344 33.816406 49.222656 C 33.816406 48.539062 34.371094 47.992188 35.046875 47.992188 L 39.972656 47.992188 C 40.652344 47.992188 41.203125 48.546875 41.203125 49.222656 C 41.203125 49.90625 40.648438 50.453125 39.972656 50.453125 Z M 39.972656 50.453125 "/>
<path style=" stroke:none;fill-rule:nonzero;fill:rgb(0%,0%,0%);fill-opacity:1;" d="M 47.355469 63.988281 C 46.675781 63.988281 46.125 63.4375 46.125 62.757812 L 46.125 56.609375 C 46.125 55.925781 46.675781 55.375 47.355469 55.375 C 48.035156 55.375 48.585938 55.925781 48.585938 56.609375 L 48.585938 62.757812 C 48.585938 63.4375 48.035156 63.988281 47.355469 63.988281 Z M 47.355469 63.988281 "/>
<path style=" stroke:none;fill-rule:nonzero;fill:rgb(0%,0%,0%);fill-opacity:1;" d="M 7.976562 57.835938 C 7.296875 57.835938 6.746094 57.285156 6.746094 56.605469 C 6.746094 51.855469 10.609375 47.992188 15.359375 47.992188 C 16.039062 47.992188 16.589844 48.539062 16.589844 49.222656 C 16.589844 49.902344 16.039062 50.453125 15.359375 50.453125 C 11.964844 50.453125 9.207031 53.210938 9.207031 56.605469 C 9.207031 57.285156 8.65625 57.835938 7.976562 57.835938 Z M 7.976562 57.835938 "/>
<path style=" stroke:none;fill-rule:nonzero;fill:rgb(0%,0%,0%);fill-opacity:1;" d="M 15.359375 50.453125 C 14.679688 50.453125 14.128906 49.90625 14.128906 49.222656 C 14.128906 48.546875 14.679688 47.992188 15.359375 47.992188 L 20.28125 47.992188 C 20.960938 47.992188 21.511719 48.539062 21.511719 49.222656 C 21.511719 49.902344 20.960938 50.453125 20.28125 50.453125 Z M 15.359375 50.453125 "/>
<path style=" stroke:none;fill-rule:nonzero;fill:rgb(0%,0%,0%);fill-opacity:1;" d="M 7.953125 63.984375 C 7.953125 63.984375 7.953125 63.984375 7.949219 63.984375 C 7.269531 63.984375 6.722656 63.429688 6.722656 62.75 L 6.746094 56.601562 C 6.75 55.921875 7.296875 55.375 7.976562 55.375 L 7.980469 55.375 C 8.660156 55.375 9.210938 55.929688 9.207031 56.609375 L 9.183594 62.761719 C 9.183594 63.4375 8.632812 63.984375 7.953125 63.984375 Z M 7.953125 63.984375 "/>
<path style=" stroke:none;fill-rule:nonzero;fill:rgb(0%,0%,0%);fill-opacity:1;" d="M 20.28125 50.453125 C 19.601562 50.453125 19.050781 49.902344 19.050781 49.222656 L 19.050781 43.730469 C 19.050781 43.046875 19.601562 42.5 20.28125 42.5 C 20.960938 42.5 21.511719 43.046875 21.511719 43.730469 L 21.511719 49.222656 C 21.511719 49.902344 20.960938 50.453125 20.28125 50.453125 Z M 20.28125 50.453125 "/>
<path style=" stroke:none;fill-rule:nonzero;fill:rgb(0%,0%,0%);fill-opacity:1;" d="M 35.046875 50.449219 C 34.367188 50.449219 33.816406 49.898438 33.816406 49.21875 L 33.816406 43.730469 C 33.816406 43.046875 34.367188 42.5 35.046875 42.5 C 35.730469 42.5 36.277344 43.046875 36.277344 43.730469 L 36.277344 49.21875 C 36.277344 49.898438 35.730469 50.449219 35.046875 50.449219 Z M 35.046875 50.449219 "/>
<path style=" stroke:none;fill-rule:nonzero;fill:rgb(0%,0%,0%);fill-opacity:1;" d="M 27.664062 46.761719 C 18.164062 46.761719 10.4375 39.035156 10.4375 29.535156 C 10.4375 28.855469 10.988281 28.304688 11.667969 28.304688 C 12.347656 28.304688 12.898438 28.855469 12.898438 29.535156 C 12.898438 37.675781 19.523438 44.300781 27.664062 44.300781 C 35.808594 44.300781 42.433594 37.675781 42.433594 29.535156 C 42.433594 28.855469 42.980469 28.304688 43.664062 28.304688 C 44.34375 28.304688 44.894531 28.855469 44.894531 29.535156 C 44.894531 39.035156 37.164062 46.761719 27.664062 46.761719 Z M 27.664062 46.761719 "/>
<path style=" stroke:none;fill-rule:nonzero;fill:rgb(0%,0%,0%);fill-opacity:1;" d="M 11.667969 30.765625 C 10.988281 30.765625 10.4375 30.214844 10.4375 29.535156 L 10.4375 20.921875 C 10.4375 20.238281 10.988281 19.691406 11.667969 19.691406 C 12.347656 19.691406 12.898438 20.238281 12.898438 20.921875 L 12.898438 29.535156 C 12.898438 30.214844 12.347656 30.765625 11.667969 30.765625 Z M 11.667969 30.765625 "/>
<path style=" stroke:none;fill-rule:nonzero;fill:rgb(0%,0%,0%);fill-opacity:1;" d="M 43.664062 30.765625 C 42.980469 30.765625 42.433594 30.214844 42.433594 29.535156 L 42.433594 20.921875 C 42.433594 20.238281 42.980469 19.691406 43.664062 19.691406 C 44.34375 19.691406 44.894531 20.238281 44.894531 20.921875 L 44.894531 29.535156 C 44.894531 30.214844 44.34375 30.765625 43.664062 30.765625 Z M 43.664062 30.765625 "/>
<path style=" stroke:none;fill-rule:nonzero;fill:rgb(0%,0%,0%);fill-opacity:1;" d="M 27.664062 56.609375 C 27.386719 56.609375 27.109375 56.515625 26.875 56.324219 L 19.492188 50.167969 C 18.96875 49.730469 18.902344 48.957031 19.335938 48.433594 C 19.769531 47.914062 20.542969 47.84375 21.070312 48.277344 L 28.453125 54.433594 C 28.976562 54.867188 29.042969 55.640625 28.609375 56.164062 C 28.367188 56.457031 28.015625 56.609375 27.664062 56.609375 Z M 27.664062 56.609375 "/>
<path style=" stroke:none;fill-rule:nonzero;fill:rgb(0%,0%,0%);fill-opacity:1;" d="M 27.667969 56.609375 C 27.3125 56.609375 26.964844 56.457031 26.71875 56.164062 C 26.285156 55.640625 26.355469 54.867188 26.875 54.433594 L 34.261719 48.277344 C 34.785156 47.839844 35.558594 47.914062 35.992188 48.433594 C 36.429688 48.957031 36.359375 49.730469 35.835938 50.167969 L 28.453125 56.324219 C 28.222656 56.515625 27.945312 56.609375 27.667969 56.609375 Z M 27.667969 56.609375 "/>
<path style=" stroke:none;fill-rule:nonzero;fill:rgb(0%,0%,0%);fill-opacity:1;" d="M 47.355469 22.152344 C 46.675781 22.152344 46.125 21.601562 46.125 20.921875 C 46.125 10.742188 37.84375 2.460938 27.664062 2.460938 C 17.488281 2.460938 9.207031 10.742188 9.207031 20.921875 C 9.207031 21.601562 8.65625 22.152344 7.976562 22.152344 C 7.296875 22.152344 6.746094 21.601562 6.746094 20.921875 C 6.746094 9.382812 16.128906 0 27.664062 0 C 39.199219 0 48.585938 9.382812 48.585938 20.921875 C 48.585938 21.601562 48.035156 22.152344 47.355469 22.152344 Z M 47.355469 22.152344 "/>
<path style=" stroke:none;fill-rule:nonzero;fill:rgb(0%,0%,0%);fill-opacity:1;" d="M 47.355469 22.152344 L 7.976562 22.152344 C 7.296875 22.152344 6.746094 21.601562 6.746094 20.921875 C 6.746094 20.238281 7.296875 19.691406 7.976562 19.691406 L 47.355469 19.691406 C 48.035156 19.691406 48.585938 20.238281 48.585938 20.921875 C 48.585938 21.601562 48.035156 22.152344 47.355469 22.152344 Z M 47.355469 22.152344 "/>
<path style=" stroke:none;fill-rule:nonzero;fill:rgb(0%,0%,0%);fill-opacity:1;" d="M 47.355469 57.839844 C 46.675781 57.839844 46.125 57.289062 46.125 56.609375 L 46.125 20.921875 C 46.125 20.238281 46.675781 19.691406 47.355469 19.691406 C 48.035156 19.691406 48.585938 20.238281 48.585938 20.921875 L 48.585938 56.609375 C 48.585938 57.289062 48.035156 57.839844 47.355469 57.839844 Z M 47.355469 57.839844 "/>
<path style=" stroke:none;fill-rule:nonzero;fill:rgb(0%,0%,0%);fill-opacity:1;" d="M 7.976562 57.835938 C 7.296875 57.835938 6.746094 57.285156 6.746094 56.605469 L 6.746094 20.921875 C 6.746094 20.238281 7.296875 19.691406 7.976562 19.691406 C 8.65625 19.691406 9.207031 20.238281 9.207031 20.921875 L 9.207031 56.605469 C 9.207031 57.285156 8.65625 57.835938 7.976562 57.835938 Z M 7.976562 57.835938 "/>
<path style=" stroke:none;fill-rule:nonzero;fill:rgb(0%,0%,0%);fill-opacity:1;" d="M 12.898438 22.152344 C 12.21875 22.152344 11.667969 21.601562 11.667969 20.921875 L 11.667969 19.691406 C 11.667969 19.007812 12.21875 18.457031 12.898438 18.457031 C 13.578125 18.457031 14.128906 19.007812 14.128906 19.691406 L 14.128906 20.921875 C 14.128906 21.601562 13.578125 22.152344 12.898438 22.152344 Z M 12.898438 22.152344 "/>
<path style=" stroke:none;fill-rule:nonzero;fill:rgb(0%,0%,0%);fill-opacity:1;" d="M 17.820312 22.152344 C 17.140625 22.152344 16.589844 21.601562 16.589844 20.921875 L 16.589844 19.691406 C 16.589844 19.007812 17.140625 18.457031 17.820312 18.457031 C 18.5 18.457031 19.050781 19.007812 19.050781 19.691406 L 19.050781 20.921875 C 19.050781 21.601562 18.5 22.152344 17.820312 22.152344 Z M 17.820312 22.152344 "/>
<path style=" stroke:none;fill-rule:nonzero;fill:rgb(0%,0%,0%);fill-opacity:1;" d="M 22.742188 22.152344 C 22.0625 22.152344 21.511719 21.601562 21.511719 20.921875 L 21.511719 19.691406 C 21.511719 19.007812 22.0625 18.457031 22.742188 18.457031 C 23.421875 18.457031 23.972656 19.007812 23.972656 19.691406 L 23.972656 20.921875 C 23.972656 21.601562 23.421875 22.152344 22.742188 22.152344 Z M 22.742188 22.152344 "/>
<path style=" stroke:none;fill-rule:nonzero;fill:rgb(0%,0%,0%);fill-opacity:1;" d="M 27.664062 22.152344 C 26.984375 22.152344 26.433594 21.601562 26.433594 20.921875 L 26.433594 19.691406 C 26.433594 19.007812 26.984375 18.457031 27.664062 18.457031 C 28.34375 18.457031 28.894531 19.007812 28.894531 19.691406 L 28.894531 20.921875 C 28.894531 21.601562 28.34375 22.152344 27.664062 22.152344 Z M 27.664062 22.152344 "/>
<path style=" stroke:none;fill-rule:nonzero;fill:rgb(0%,0%,0%);fill-opacity:1;" d="M 32.585938 22.152344 C 31.90625 22.152344 31.355469 21.601562 31.355469 20.921875 L 31.355469 19.691406 C 31.355469 19.007812 31.90625 18.457031 32.585938 18.457031 C 33.269531 18.457031 33.816406 19.007812 33.816406 19.691406 L 33.816406 20.921875 C 33.816406 21.601562 33.269531 22.152344 32.585938 22.152344 Z M 32.585938 22.152344 "/>
<path style=" stroke:none;fill-rule:nonzero;fill:rgb(0%,0%,0%);fill-opacity:1;" d="M 37.507812 22.152344 C 36.828125 22.152344 36.277344 21.601562 36.277344 20.921875 L 36.277344 19.691406 C 36.277344 19.007812 36.828125 18.457031 37.507812 18.457031 C 38.191406 18.457031 38.738281 19.007812 38.738281 19.691406 L 38.738281 20.921875 C 38.738281 21.601562 38.191406 22.152344 37.507812 22.152344 Z M 37.507812 22.152344 "/>
<path style=" stroke:none;fill-rule:nonzero;fill:rgb(0%,0%,0%);fill-opacity:1;" d="M 42.433594 22.152344 C 41.75 22.152344 41.203125 21.601562 41.203125 20.921875 L 41.203125 19.691406 C 41.203125 19.007812 41.75 18.457031 42.433594 18.457031 C 43.113281 18.457031 43.664062 19.007812 43.664062 19.691406 L 43.664062 20.921875 C 43.664062 21.601562 43.113281 22.152344 42.433594 22.152344 Z M 42.433594 22.152344 "/>
<path style=" stroke:none;fill-rule:nonzero;fill:rgb(0%,0%,0%);fill-opacity:1;" d="M 27.703125 60.300781 C 27.019531 60.300781 26.464844 59.75 26.464844 59.070312 C 26.464844 58.386719 27.007812 57.839844 27.6875 57.839844 L 27.703125 57.839844 C 28.382812 57.839844 28.933594 58.386719 28.933594 59.070312 C 28.933594 59.75 28.382812 60.300781 27.703125 60.300781 Z M 27.703125 60.300781 "/>
<path style=" stroke:none;fill-rule:nonzero;fill:rgb(0%,0%,0%);fill-opacity:1;" d="M 48.601562 79.96875 C 47.921875 79.96875 47.371094 79.417969 47.371094 78.738281 L 47.371094 70.125 C 47.371094 69.445312 47.921875 68.894531 48.601562 68.894531 C 49.28125 68.894531 49.832031 69.445312 49.832031 70.125 L 49.832031 78.738281 C 49.832031 79.417969 49.28125 79.96875 48.601562 79.96875 Z M 48.601562 79.96875 "/>
<path style=" stroke:none;fill-rule:nonzero;fill:rgb(0%,0%,0%);fill-opacity:1;" d="M 6.746094 79.96875 C 6.066406 79.96875 5.515625 79.417969 5.515625 78.738281 L 5.515625 70.125 C 5.515625 69.445312 6.066406 68.894531 6.746094 68.894531 C 7.425781 68.894531 7.976562 69.445312 7.976562 70.125 L 7.976562 78.738281 C 7.976562 79.417969 7.425781 79.96875 6.746094 79.96875 Z M 6.746094 79.96875 "/>
<path style=" stroke:none;fill-rule:nonzero;fill:rgb(0%,0%,0%);fill-opacity:1;" d="M 48.597656 77.511719 C 48.328125 77.511719 48.058594 77.421875 47.828125 77.242188 C 47.300781 76.816406 47.214844 76.042969 47.636719 75.511719 L 52.558594 69.355469 C 52.984375 68.828125 53.757812 68.738281 54.289062 69.164062 C 54.820312 69.585938 54.90625 70.363281 54.480469 70.894531 L 49.558594 77.046875 C 49.316406 77.351562 48.960938 77.511719 48.597656 77.511719 Z M 48.597656 77.511719 "/>
<path style=" stroke:none;fill-rule:nonzero;fill:rgb(0%,0%,0%);fill-opacity:1;" d="M 6.75 77.511719 C 6.386719 77.511719 6.03125 77.351562 5.789062 77.046875 L 0.863281 70.894531 C 0.441406 70.363281 0.527344 69.585938 1.058594 69.164062 C 1.589844 68.738281 2.363281 68.828125 2.789062 69.355469 L 7.710938 75.511719 C 8.132812 76.042969 8.046875 76.816406 7.519531 77.242188 C 7.289062 77.421875 7.019531 77.511719 6.75 77.511719 Z M 6.75 77.511719 "/>
<path style=" stroke:none;fill-rule:nonzero;fill:rgb(0%,0%,0%);fill-opacity:1;" d="M 53.519531 71.355469 L 1.828125 71.355469 C 1.144531 71.355469 0.597656 70.804688 0.597656 70.125 L 0.597656 62.742188 C 0.597656 62.058594 1.144531 61.511719 1.828125 61.511719 L 53.519531 61.511719 C 54.203125 61.511719 54.75 62.058594 54.75 62.742188 L 54.75 70.125 C 54.75 70.804688 54.203125 71.355469 53.519531 71.355469 Z M 3.058594 68.894531 L 52.289062 68.894531 L 52.289062 63.972656 L 3.058594 63.972656 Z M 3.058594 68.894531 "/>
<path style=" stroke:none;fill-rule:nonzero;fill:rgb(0%,0%,0%);fill-opacity:1;" d="M 55.980469 30.738281 C 55.773438 30.738281 55.5625 30.683594 55.375 30.578125 C 54.988281 30.359375 54.75 29.949219 54.75 29.507812 L 54.75 27.046875 L 52.289062 27.046875 C 51.609375 27.046875 51.058594 26.496094 51.058594 25.816406 L 51.058594 2.441406 C 51.058594 1.761719 51.609375 1.210938 52.289062 1.210938 L 78.128906 1.210938 C 78.808594 1.210938 79.359375 1.761719 79.359375 2.441406 L 79.359375 25.816406 C 79.359375 26.496094 78.808594 27.046875 78.128906 27.046875 L 62.472656 27.046875 L 56.613281 30.5625 C 56.417969 30.679688 56.203125 30.738281 55.980469 30.738281 Z M 53.519531 24.585938 L 55.980469 24.585938 C 56.660156 24.585938 57.210938 25.132812 57.210938 25.816406 L 57.210938 27.332031 L 61.496094 24.761719 C 61.6875 24.644531 61.90625 24.582031 62.132812 24.582031 L 76.898438 24.582031 L 76.898438 3.671875 L 53.519531 3.671875 Z M 53.519531 24.585938 "/>
<path style=" stroke:none;fill-rule:nonzero;fill:rgb(0%,0%,0%);fill-opacity:1;" d="M 65.210938 20.921875 C 60.988281 20.921875 57.140625 18.621094 54.914062 14.765625 C 54.695312 14.386719 54.695312 13.917969 54.914062 13.535156 C 57.140625 9.683594 60.988281 7.382812 65.210938 7.382812 C 69.429688 7.382812 73.277344 9.683594 75.503906 13.535156 C 75.726562 13.917969 75.726562 14.386719 75.503906 14.765625 C 73.277344 18.621094 69.429688 20.921875 65.210938 20.921875 Z M 57.429688 14.152344 C 59.246094 16.863281 62.105469 18.457031 65.210938 18.457031 C 68.3125 18.457031 71.171875 16.863281 72.988281 14.152344 C 71.171875 11.441406 68.3125 9.84375 65.210938 9.84375 C 62.105469 9.84375 59.246094 11.441406 57.429688 14.152344 Z M 57.429688 14.152344 "/>
<path style=" stroke:none;fill-rule:nonzero;fill:rgb(0%,0%,0%);fill-opacity:1;" d="M 65.207031 18.4375 C 62.832031 18.4375 60.902344 16.507812 60.902344 14.132812 C 60.902344 11.757812 62.832031 9.824219 65.207031 9.824219 C 67.582031 9.824219 69.515625 11.757812 69.515625 14.132812 C 69.515625 16.507812 67.582031 18.4375 65.207031 18.4375 Z M 65.207031 12.285156 C 64.191406 12.285156 63.363281 13.113281 63.363281 14.132812 C 63.363281 15.148438 64.191406 15.976562 65.207031 15.976562 C 66.226562 15.976562 67.054688 15.148438 67.054688 14.132812 C 67.054688 13.113281 66.226562 12.285156 65.207031 12.285156 Z M 65.207031 12.285156 "/>
</g>
</svg>
