<?xml version="1.0" encoding="UTF-8"?>
<svg xmlns="http://www.w3.org/2000/svg" xmlns:xlink="http://www.w3.org/1999/xlink" width="80pt" height="80pt" viewBox="0 0 80 80" version="1.1">
<g id="surface1">
<path style=" stroke:none;fill-rule:nonzero;fill:rgb(0%,0%,0%);fill-opacity:1;" d="M 18.75 36.253906 C 18.058594 36.253906 17.5 35.695312 17.5 35.003906 L 17.5 1.25 C 17.5 0.558594 18.058594 0 18.75 0 C 19.441406 0 20 0.558594 20 1.25 L 20 35.003906 C 20 35.695312 19.441406 36.253906 18.75 36.253906 Z M 18.75 36.253906 "/>
<path style=" stroke:none;fill-rule:nonzero;fill:rgb(0%,0%,0%);fill-opacity:1;" d="M 61.25 36.253906 C 60.558594 36.253906 60 35.695312 60 35.003906 L 60 7.5 C 60 6.808594 60.558594 6.25 61.25 6.25 C 61.941406 6.25 62.5 6.808594 62.5 7.5 L 62.5 35.003906 C 62.5 35.695312 61.941406 36.253906 61.25 36.253906 Z M 61.25 36.253906 "/>
<path style=" stroke:none;fill-rule:nonzero;fill:rgb(0%,0%,0%);fill-opacity:1;" d="M 55 2.5 L 18.75 2.5 C 18.058594 2.5 17.5 1.941406 17.5 1.25 C 17.5 0.558594 18.058594 0 18.75 0 L 55 0 C 55.691406 0 56.25 0.558594 56.25 1.25 C 56.25 1.941406 55.691406 2.5 55 2.5 Z M 55 2.5 "/>
<path style=" stroke:none;fill-rule:nonzero;fill:rgb(0%,0%,0%);fill-opacity:1;" d="M 61.25 8.75 C 60.929688 8.75 60.609375 8.625 60.367188 8.382812 L 54.117188 2.132812 C 53.628906 1.644531 53.628906 0.855469 54.117188 0.367188 C 54.605469 -0.121094 55.394531 -0.121094 55.886719 0.367188 L 62.132812 6.617188 C 62.621094 7.105469 62.621094 7.894531 62.132812 8.382812 C 61.890625 8.625 61.570312 8.75 61.25 8.75 Z M 61.25 8.75 "/>
<path style=" stroke:none;fill-rule:nonzero;fill:rgb(0%,0%,0%);fill-opacity:1;" d="M 61.25 8.75 L 55 8.75 C 54.308594 8.75 53.75 8.191406 53.75 7.5 C 53.75 6.808594 54.308594 6.25 55 6.25 L 61.25 6.25 C 61.941406 6.25 62.5 6.808594 62.5 7.5 C 62.5 8.191406 61.941406 8.75 61.25 8.75 Z M 61.25 8.75 "/>
<path style=" stroke:none;fill-rule:nonzero;fill:rgb(0%,0%,0%);fill-opacity:1;" d="M 55 8.75 C 54.308594 8.75 53.75 8.191406 53.75 7.5 L 53.75 1.25 C 53.75 0.558594 54.308594 0 55 0 C 55.691406 0 56.25 0.558594 56.25 1.25 L 56.25 7.5 C 56.25 8.191406 55.691406 8.75 55 8.75 Z M 55 8.75 "/>
<path style=" stroke:none;fill-rule:nonzero;fill:rgb(0%,0%,0%);fill-opacity:1;" d="M 4.449219 40.777344 C 4.132812 40.777344 3.820312 40.660156 3.578125 40.421875 C 3.082031 39.941406 3.070312 39.148438 3.550781 38.65625 L 11.605469 30.382812 C 12.085938 29.886719 12.878906 29.875 13.371094 30.355469 C 13.867188 30.839844 13.875 31.628906 13.398438 32.125 L 5.34375 40.398438 C 5.097656 40.648438 4.773438 40.777344 4.449219 40.777344 Z M 4.449219 40.777344 "/>
<path style=" stroke:none;fill-rule:nonzero;fill:rgb(0%,0%,0%);fill-opacity:1;" d="M 18.75 32.503906 L 12.5 32.503906 C 11.808594 32.503906 11.25 31.945312 11.25 31.253906 C 11.25 30.5625 11.808594 30.003906 12.5 30.003906 L 18.75 30.003906 C 19.441406 30.003906 20 30.5625 20 31.253906 C 20 31.945312 19.441406 32.503906 18.75 32.503906 Z M 18.75 32.503906 "/>
<path style=" stroke:none;fill-rule:nonzero;fill:rgb(0%,0%,0%);fill-opacity:1;" d="M 75.550781 40.777344 C 75.226562 40.777344 74.902344 40.648438 74.65625 40.398438 L 66.605469 32.125 C 66.121094 31.628906 66.132812 30.839844 66.628906 30.355469 C 67.125 29.875 67.914062 29.886719 68.398438 30.382812 L 76.449219 38.65625 C 76.929688 39.148438 76.917969 39.941406 76.421875 40.421875 C 76.179688 40.660156 75.867188 40.777344 75.550781 40.777344 Z M 75.550781 40.777344 "/>
<path style=" stroke:none;fill-rule:nonzero;fill:rgb(0%,0%,0%);fill-opacity:1;" d="M 67.5 32.503906 L 61.25 32.503906 C 60.558594 32.503906 60 31.945312 60 31.253906 C 60 30.5625 60.558594 30.003906 61.25 30.003906 L 67.5 30.003906 C 68.191406 30.003906 68.75 30.5625 68.75 31.253906 C 68.75 31.945312 68.191406 32.503906 67.5 32.503906 Z M 67.5 32.503906 "/>
<path style=" stroke:none;fill-rule:nonzero;fill:rgb(0%,0%,0%);fill-opacity:1;" d="M 63.75 36.253906 L 16.25 36.253906 C 15.558594 36.253906 15 35.695312 15 35.003906 C 15 34.3125 15.558594 33.753906 16.25 33.753906 L 63.75 33.753906 C 64.441406 33.753906 65 34.3125 65 35.003906 C 65 35.695312 64.441406 36.253906 63.75 36.253906 Z M 63.75 36.253906 "/>
<path style=" stroke:none;fill-rule:nonzero;fill:rgb(0%,0%,0%);fill-opacity:1;" d="M 67.5 63.753906 L 12.5 63.753906 C 11.808594 63.753906 11.25 63.195312 11.25 62.503906 C 11.25 61.8125 11.808594 61.253906 12.5 61.253906 L 67.5 61.253906 C 68.191406 61.253906 68.75 61.8125 68.75 62.503906 C 68.75 63.195312 68.191406 63.753906 67.5 63.753906 Z M 67.5 63.753906 "/>
<path style=" stroke:none;fill-rule:nonzero;fill:rgb(0%,0%,0%);fill-opacity:1;" d="M 73.75 67.503906 C 73.058594 67.503906 72.5 66.945312 72.5 66.253906 C 72.5 65.5625 73.058594 65.003906 73.75 65.003906 C 74.441406 65.003906 75 64.441406 75 63.753906 L 75 41.253906 C 75 40.5625 74.441406 40.003906 73.75 40.003906 L 6.25 40.003906 C 5.558594 40.003906 5 40.5625 5 41.253906 L 5 63.753906 C 5 64.441406 5.558594 65.003906 6.25 65.003906 C 6.941406 65.003906 7.5 65.5625 7.5 66.253906 C 7.5 66.945312 6.941406 67.503906 6.25 67.503906 C 4.183594 67.503906 2.5 65.820312 2.5 63.753906 L 2.5 41.253906 C 2.5 39.183594 4.183594 37.503906 6.25 37.503906 L 73.75 37.503906 C 75.816406 37.503906 77.5 39.183594 77.5 41.253906 L 77.5 63.753906 C 77.5 65.820312 75.816406 67.503906 73.75 67.503906 Z M 73.75 67.503906 "/>
<path style=" stroke:none;fill-rule:nonzero;fill:rgb(0%,0%,0%);fill-opacity:1;" d="M 12.5 67.503906 C 11.808594 67.503906 11.25 66.945312 11.25 66.253906 L 11.25 62.503906 C 11.25 61.8125 11.808594 61.253906 12.5 61.253906 C 13.191406 61.253906 13.75 61.8125 13.75 62.503906 L 13.75 66.253906 C 13.75 66.945312 13.191406 67.503906 12.5 67.503906 Z M 12.5 67.503906 "/>
<path style=" stroke:none;fill-rule:nonzero;fill:rgb(0%,0%,0%);fill-opacity:1;" d="M 67.5 67.503906 C 66.808594 67.503906 66.25 66.945312 66.25 66.253906 L 66.25 62.503906 C 66.25 61.8125 66.808594 61.253906 67.5 61.253906 C 68.191406 61.253906 68.75 61.8125 68.75 62.503906 L 68.75 66.253906 C 68.75 66.945312 68.191406 67.503906 67.5 67.503906 Z M 67.5 67.503906 "/>
<path style=" stroke:none;fill-rule:nonzero;fill:rgb(0%,0%,0%);fill-opacity:1;" d="M 17.5 80 C 16.808594 80 16.25 79.441406 16.25 78.75 L 16.25 62.5 C 16.25 61.808594 16.808594 61.25 17.5 61.25 C 18.191406 61.25 18.75 61.808594 18.75 62.5 L 18.75 78.75 C 18.75 79.441406 18.191406 80 17.5 80 Z M 17.5 80 "/>
<path style=" stroke:none;fill-rule:nonzero;fill:rgb(0%,0%,0%);fill-opacity:1;" d="M 22.5 80 C 21.808594 80 21.25 79.441406 21.25 78.75 L 21.25 62.5 C 21.25 61.808594 21.808594 61.25 22.5 61.25 C 23.191406 61.25 23.75 61.808594 23.75 62.5 L 23.75 78.75 C 23.75 79.441406 23.191406 80 22.5 80 Z M 22.5 80 "/>
<path style=" stroke:none;fill-rule:nonzero;fill:rgb(0%,0%,0%);fill-opacity:1;" d="M 27.5 80 C 26.808594 80 26.25 79.441406 26.25 78.75 L 26.25 62.5 C 26.25 61.808594 26.808594 61.25 27.5 61.25 C 28.191406 61.25 28.75 61.808594 28.75 62.5 L 28.75 78.75 C 28.75 79.441406 28.191406 80 27.5 80 Z M 27.5 80 "/>
<path style=" stroke:none;fill-rule:nonzero;fill:rgb(0%,0%,0%);fill-opacity:1;" d="M 32.5 80 C 31.808594 80 31.25 79.441406 31.25 78.75 L 31.25 62.5 C 31.25 61.808594 31.808594 61.25 32.5 61.25 C 33.191406 61.25 33.75 61.808594 33.75 62.5 L 33.75 78.75 C 33.75 79.441406 33.191406 80 32.5 80 Z M 32.5 80 "/>
<path style=" stroke:none;fill-rule:nonzero;fill:rgb(0%,0%,0%);fill-opacity:1;" d="M 37.5 80 C 36.808594 80 36.25 79.441406 36.25 78.75 L 36.25 62.5 C 36.25 61.808594 36.808594 61.25 37.5 61.25 C 38.191406 61.25 38.75 61.808594 38.75 62.5 L 38.75 78.75 C 38.75 79.441406 38.191406 80 37.5 80 Z M 37.5 80 "/>
<path style=" stroke:none;fill-rule:nonzero;fill:rgb(0%,0%,0%);fill-opacity:1;" d="M 42.5 80 C 41.808594 80 41.25 79.441406 41.25 78.75 L 41.25 62.5 C 41.25 61.808594 41.808594 61.25 42.5 61.25 C 43.191406 61.25 43.75 61.808594 43.75 62.5 L 43.75 78.75 C 43.75 79.441406 43.191406 80 42.5 80 Z M 42.5 80 "/>
<path style=" stroke:none;fill-rule:nonzero;fill:rgb(0%,0%,0%);fill-opacity:1;" d="M 47.5 80 C 46.808594 80 46.25 79.441406 46.25 78.75 L 46.25 62.5 C 46.25 61.808594 46.808594 61.25 47.5 61.25 C 48.191406 61.25 48.75 61.808594 48.75 62.5 L 48.75 78.75 C 48.75 79.441406 48.191406 80 47.5 80 Z M 47.5 80 "/>
<path style=" stroke:none;fill-rule:nonzero;fill:rgb(0%,0%,0%);fill-opacity:1;" d="M 52.5 80 C 51.808594 80 51.25 79.441406 51.25 78.75 L 51.25 62.5 C 51.25 61.808594 51.808594 61.25 52.5 61.25 C 53.191406 61.25 53.75 61.808594 53.75 62.5 L 53.75 78.75 C 53.75 79.441406 53.191406 80 52.5 80 Z M 52.5 80 "/>
<path style=" stroke:none;fill-rule:nonzero;fill:rgb(0%,0%,0%);fill-opacity:1;" d="M 57.5 80 C 56.808594 80 56.25 79.441406 56.25 78.75 L 56.25 62.5 C 56.25 61.808594 56.808594 61.25 57.5 61.25 C 58.191406 61.25 58.75 61.808594 58.75 62.5 L 58.75 78.75 C 58.75 79.441406 58.191406 80 57.5 80 Z M 57.5 80 "/>
<path style=" stroke:none;fill-rule:nonzero;fill:rgb(0%,0%,0%);fill-opacity:1;" d="M 62.5 80 C 61.808594 80 61.25 79.441406 61.25 78.75 L 61.25 62.5 C 61.25 61.808594 61.808594 61.25 62.5 61.25 C 63.191406 61.25 63.75 61.808594 63.75 62.5 L 63.75 78.75 C 63.75 79.441406 63.191406 80 62.5 80 Z M 62.5 80 "/>
<path style=" stroke:none;fill-rule:nonzero;fill:rgb(0%,0%,0%);fill-opacity:1;" d="M 12.539062 48.753906 C 11.847656 48.753906 11.28125 48.195312 11.28125 47.503906 C 11.28125 46.8125 11.835938 46.253906 12.523438 46.253906 L 12.539062 46.253906 C 13.226562 46.253906 13.789062 46.8125 13.789062 47.503906 C 13.789062 48.195312 13.226562 48.753906 12.539062 48.753906 Z M 12.539062 48.753906 "/>
<path style=" stroke:none;fill-rule:nonzero;fill:rgb(0%,0%,0%);fill-opacity:1;" d="M 17.539062 48.753906 C 16.847656 48.753906 16.28125 48.195312 16.28125 47.503906 C 16.28125 46.8125 16.835938 46.253906 17.523438 46.253906 L 17.539062 46.253906 C 18.226562 46.253906 18.789062 46.8125 18.789062 47.503906 C 18.789062 48.195312 18.226562 48.753906 17.539062 48.753906 Z M 17.539062 48.753906 "/>
<path style=" stroke:none;fill-rule:nonzero;fill:rgb(0%,0%,0%);fill-opacity:1;" d="M 67.539062 48.753906 C 66.847656 48.753906 66.28125 48.195312 66.28125 47.503906 C 66.28125 46.8125 66.835938 46.253906 67.523438 46.253906 L 67.539062 46.253906 C 68.226562 46.253906 68.789062 46.8125 68.789062 47.503906 C 68.789062 48.195312 68.226562 48.753906 67.539062 48.753906 Z M 67.539062 48.753906 "/>
<path style=" stroke:none;fill-rule:nonzero;fill:rgb(0%,0%,0%);fill-opacity:1;" d="M 62.539062 48.753906 C 61.847656 48.753906 61.28125 48.195312 61.28125 47.503906 C 61.28125 46.8125 61.835938 46.253906 62.523438 46.253906 L 62.539062 46.253906 C 63.226562 46.253906 63.789062 46.8125 63.789062 47.503906 C 63.789062 48.195312 63.226562 48.753906 62.539062 48.753906 Z M 62.539062 48.753906 "/>
<path style=" stroke:none;fill-rule:nonzero;fill:rgb(0%,0%,0%);fill-opacity:1;" d="M 50 51.253906 L 30 51.253906 C 29.308594 51.253906 28.75 50.695312 28.75 50.003906 L 28.75 45.003906 C 28.75 44.3125 29.308594 43.753906 30 43.753906 L 50 43.753906 C 50.691406 43.753906 51.25 44.3125 51.25 45.003906 L 51.25 50.003906 C 51.25 50.695312 50.691406 51.253906 50 51.253906 Z M 31.25 48.753906 L 48.75 48.753906 L 48.75 46.253906 L 31.25 46.253906 Z M 31.25 48.753906 "/>
<path style=" stroke:none;fill-rule:nonzero;fill:rgb(0%,0%,0%);fill-opacity:1;" d="M 62.5 80 L 17.5 80 C 16.808594 80 16.25 79.441406 16.25 78.75 C 16.25 78.058594 16.808594 77.5 17.5 77.5 L 62.5 77.5 C 63.191406 77.5 63.75 78.058594 63.75 78.75 C 63.75 79.441406 63.191406 80 62.5 80 Z M 62.5 80 "/>
<path style=" stroke:none;fill-rule:nonzero;fill:rgb(0%,0%,0%);fill-opacity:1;" d="M 17.5 67.503906 L 6.25 67.503906 C 5.558594 67.503906 5 66.945312 5 66.253906 C 5 65.5625 5.558594 65.003906 6.25 65.003906 L 17.5 65.003906 C 18.191406 65.003906 18.75 65.5625 18.75 66.253906 C 18.75 66.945312 18.191406 67.503906 17.5 67.503906 Z M 17.5 67.503906 "/>
<path style=" stroke:none;fill-rule:nonzero;fill:rgb(0%,0%,0%);fill-opacity:1;" d="M 73.75 67.503906 L 62.519531 67.503906 C 61.828125 67.503906 61.269531 66.945312 61.269531 66.253906 C 61.269531 65.5625 61.828125 65.003906 62.519531 65.003906 L 73.75 65.003906 C 74.441406 65.003906 75 65.5625 75 66.253906 C 75 66.945312 74.441406 67.503906 73.75 67.503906 Z M 73.75 67.503906 "/>
<path style=" stroke:none;fill-rule:nonzero;fill:rgb(0%,0%,0%);fill-opacity:1;" d="M 40 31.269531 C 33.796875 31.269531 28.75 26.222656 28.75 20.019531 C 28.75 13.816406 33.796875 8.769531 40 8.769531 C 46.203125 8.769531 51.25 13.816406 51.25 20.019531 C 51.25 26.222656 46.203125 31.269531 40 31.269531 Z M 40 11.269531 C 35.175781 11.269531 31.25 15.195312 31.25 20.019531 C 31.25 24.84375 35.175781 28.769531 40 28.769531 C 44.824219 28.769531 48.75 24.84375 48.75 20.019531 C 48.75 15.195312 44.824219 11.269531 40 11.269531 Z M 40 11.269531 "/>
<path style=" stroke:none;fill-rule:nonzero;fill:rgb(0%,0%,0%);fill-opacity:1;" d="M 40 22.304688 C 39.308594 22.304688 38.75 21.742188 38.75 21.054688 L 38.75 15.019531 C 38.75 14.328125 39.308594 13.769531 40 13.769531 C 40.691406 13.769531 41.25 14.328125 41.25 15.019531 L 41.25 21.054688 C 41.25 21.742188 40.691406 22.304688 40 22.304688 Z M 40 22.304688 "/>
<path style=" stroke:none;fill-rule:nonzero;fill:rgb(0%,0%,0%);fill-opacity:1;" d="M 40.039062 26.269531 C 39.347656 26.269531 38.78125 25.710938 38.78125 25.019531 C 38.78125 24.328125 39.335938 23.769531 40.023438 23.769531 L 40.039062 23.769531 C 40.726562 23.769531 41.289062 24.328125 41.289062 25.019531 C 41.289062 25.710938 40.726562 26.269531 40.039062 26.269531 Z M 40.039062 26.269531 "/>
</g>
</svg>
