<?xml version="1.0" encoding="UTF-8"?>
<svg xmlns="http://www.w3.org/2000/svg" xmlns:xlink="http://www.w3.org/1999/xlink" width="80pt" height="80pt" viewBox="0 0 80 80" version="1.1">
<g id="surface1">
<path style=" stroke:none;fill-rule:nonzero;fill:rgb(0%,0%,0%);fill-opacity:1;" d="M 35.011719 44.988281 L 5.019531 44.988281 C 4.328125 44.988281 3.769531 44.429688 3.769531 43.738281 L 3.769531 1.25 C 3.769531 0.558594 4.328125 0 5.019531 0 L 28.761719 0 C 29.09375 0 29.410156 0.132812 29.644531 0.367188 L 35.894531 6.613281 C 36.128906 6.847656 36.261719 7.164062 36.261719 7.5 L 36.261719 43.738281 C 36.261719 44.429688 35.703125 44.988281 35.011719 44.988281 Z M 6.269531 42.488281 L 33.761719 42.488281 L 33.761719 8.015625 L 28.242188 2.5 L 6.269531 2.5 Z M 6.269531 42.488281 "/>
<path style=" stroke:none;fill-rule:nonzero;fill:rgb(0%,0%,0%);fill-opacity:1;" d="M 35.011719 8.746094 L 28.761719 8.746094 C 28.070312 8.746094 27.511719 8.191406 27.511719 7.5 C 27.511719 6.808594 28.070312 6.25 28.761719 6.25 L 35.011719 6.25 C 35.703125 6.25 36.261719 6.808594 36.261719 7.5 C 36.261719 8.191406 35.703125 8.746094 35.011719 8.746094 Z M 35.011719 8.746094 "/>
<path style=" stroke:none;fill-rule:nonzero;fill:rgb(0%,0%,0%);fill-opacity:1;" d="M 28.761719 8.746094 C 28.070312 8.746094 27.511719 8.191406 27.511719 7.5 L 27.511719 1.25 C 27.511719 0.558594 28.070312 0 28.761719 0 C 29.453125 0 30.011719 0.558594 30.011719 1.25 L 30.011719 7.5 C 30.011719 8.191406 29.453125 8.746094 28.761719 8.746094 Z M 28.761719 8.746094 "/>
<path style=" stroke:none;fill-rule:nonzero;fill:rgb(0%,0%,0%);fill-opacity:1;" d="M 75.015625 72.503906 L 52.53125 72.503906 C 51.839844 72.503906 51.28125 71.941406 51.28125 71.253906 L 51.28125 36.269531 C 51.28125 35.578125 51.839844 35.019531 52.53125 35.019531 L 75.015625 35.011719 C 75.351562 35.011719 75.667969 35.144531 75.902344 35.378906 C 76.132812 35.613281 76.265625 35.929688 76.265625 36.261719 L 76.265625 71.253906 C 76.265625 71.941406 75.707031 72.503906 75.015625 72.503906 Z M 53.78125 70.003906 L 73.769531 70.003906 L 73.769531 37.511719 L 53.78125 37.519531 Z M 53.78125 70.003906 "/>
<path style=" stroke:none;fill-rule:nonzero;fill:rgb(0%,0%,0%);fill-opacity:1;" d="M 20.015625 64.984375 C 19.324219 64.984375 18.765625 64.425781 18.765625 63.734375 L 18.765625 48.738281 C 18.765625 48.046875 19.324219 47.488281 20.015625 47.488281 C 20.707031 47.488281 21.265625 48.046875 21.265625 48.738281 L 21.265625 63.734375 C 21.265625 64.425781 20.707031 64.984375 20.015625 64.984375 Z M 20.015625 64.984375 "/>
<path style=" stroke:none;fill-rule:nonzero;fill:rgb(0%,0%,0%);fill-opacity:1;" d="M 47.507812 64.984375 L 20.015625 64.984375 C 19.324219 64.984375 18.765625 64.425781 18.765625 63.734375 C 18.765625 63.042969 19.324219 62.484375 20.015625 62.484375 L 47.507812 62.484375 C 48.199219 62.484375 48.757812 63.042969 48.757812 63.734375 C 48.757812 64.425781 48.199219 64.984375 47.507812 64.984375 Z M 47.507812 64.984375 "/>
<path style=" stroke:none;fill-rule:nonzero;fill:rgb(0%,0%,0%);fill-opacity:1;" d="M 43.757812 68.734375 C 43.4375 68.734375 43.121094 68.609375 42.875 68.367188 C 42.386719 67.878906 42.386719 67.089844 42.875 66.597656 L 46.625 62.851562 C 47.113281 62.363281 47.902344 62.363281 48.390625 62.851562 C 48.878906 63.339844 48.878906 64.128906 48.390625 64.617188 L 44.640625 68.367188 C 44.398438 68.613281 44.078125 68.734375 43.757812 68.734375 Z M 43.757812 68.734375 "/>
<path style=" stroke:none;fill-rule:nonzero;fill:rgb(0%,0%,0%);fill-opacity:1;" d="M 47.507812 64.984375 C 47.1875 64.984375 46.867188 64.859375 46.625 64.617188 L 42.875 60.867188 C 42.386719 60.378906 42.386719 59.589844 42.875 59.101562 C 43.363281 58.613281 44.152344 58.613281 44.640625 59.101562 L 48.390625 62.851562 C 48.878906 63.339844 48.878906 64.128906 48.390625 64.617188 C 48.148438 64.863281 47.828125 64.984375 47.507812 64.984375 Z M 47.507812 64.984375 "/>
<path style=" stroke:none;fill-rule:nonzero;fill:rgb(0%,0%,0%);fill-opacity:1;" d="M 63.75 32.492188 C 63.058594 32.492188 62.5 31.933594 62.5 31.242188 L 62.5 16.246094 C 62.5 15.554688 63.058594 14.996094 63.75 14.996094 C 64.441406 14.996094 65 15.554688 65 16.246094 L 65 31.242188 C 65 31.933594 64.441406 32.492188 63.75 32.492188 Z M 63.75 32.492188 "/>
<path style=" stroke:none;fill-rule:nonzero;fill:rgb(0%,0%,0%);fill-opacity:1;" d="M 63.75 17.496094 L 40.007812 17.496094 C 39.320312 17.496094 38.761719 16.9375 38.761719 16.246094 C 38.761719 15.554688 39.320312 14.996094 40.007812 14.996094 L 63.75 14.996094 C 64.441406 14.996094 65 15.554688 65 16.246094 C 65 16.9375 64.441406 17.496094 63.75 17.496094 Z M 63.75 17.496094 "/>
<path style=" stroke:none;fill-rule:nonzero;fill:rgb(0%,0%,0%);fill-opacity:1;" d="M 40.007812 17.496094 C 39.691406 17.496094 39.371094 17.371094 39.125 17.128906 C 38.636719 16.640625 38.636719 15.851562 39.125 15.363281 L 42.875 11.613281 C 43.363281 11.125 44.152344 11.125 44.640625 11.613281 C 45.132812 12.101562 45.132812 12.890625 44.640625 13.378906 L 40.894531 17.128906 C 40.648438 17.375 40.332031 17.496094 40.007812 17.496094 Z M 40.007812 17.496094 "/>
<path style=" stroke:none;fill-rule:nonzero;fill:rgb(0%,0%,0%);fill-opacity:1;" d="M 43.757812 21.246094 C 43.4375 21.246094 43.121094 21.121094 42.875 20.878906 L 39.125 17.128906 C 38.636719 16.640625 38.636719 15.851562 39.125 15.363281 C 39.613281 14.875 40.40625 14.875 40.894531 15.363281 L 44.640625 19.113281 C 45.132812 19.601562 45.132812 20.390625 44.640625 20.878906 C 44.398438 21.125 44.078125 21.246094 43.757812 21.246094 Z M 43.757812 21.246094 "/>
<path style=" stroke:none;fill-rule:nonzero;fill:rgb(0%,0%,0%);fill-opacity:1;" d="M 75.011719 76.25 L 52.515625 76.25 C 51.824219 76.25 51.265625 75.691406 51.265625 75 L 51.265625 71.253906 C 51.265625 70.5625 51.824219 70.003906 52.515625 70.003906 C 53.207031 70.003906 53.765625 70.5625 53.765625 71.253906 L 53.765625 73.75 L 73.761719 73.75 L 73.761719 71.253906 C 73.761719 70.5625 74.320312 70.003906 75.011719 70.003906 C 75.703125 70.003906 76.261719 70.5625 76.261719 71.253906 L 76.261719 75 C 76.261719 75.691406 75.703125 76.25 75.011719 76.25 Z M 75.011719 76.25 "/>
<path style=" stroke:none;fill-rule:nonzero;fill:rgb(0%,0%,0%);fill-opacity:1;" d="M 75.011719 80 L 52.515625 80 C 51.824219 80 51.265625 79.441406 51.265625 78.75 L 51.265625 75 C 51.265625 74.308594 51.824219 73.75 52.515625 73.75 C 53.207031 73.75 53.765625 74.308594 53.765625 75 L 53.765625 77.5 L 73.761719 77.5 L 73.761719 75 C 73.761719 74.308594 74.320312 73.75 75.011719 73.75 C 75.703125 73.75 76.261719 74.308594 76.261719 75 L 76.261719 78.75 C 76.261719 79.441406 75.703125 80 75.011719 80 Z M 75.011719 80 "/>
<path style=" stroke:none;fill-rule:nonzero;fill:rgb(0%,0%,0%);fill-opacity:1;" d="M 63.773438 60.011719 C 60.328125 60.011719 57.523438 57.207031 57.523438 53.761719 C 57.523438 50.316406 60.328125 47.515625 63.773438 47.515625 C 67.214844 47.515625 70.019531 50.316406 70.019531 53.761719 C 70.019531 57.207031 67.214844 60.011719 63.773438 60.011719 Z M 63.773438 50.015625 C 61.703125 50.015625 60.023438 51.695312 60.023438 53.761719 C 60.023438 55.828125 61.703125 57.511719 63.773438 57.511719 C 65.839844 57.511719 67.519531 55.828125 67.519531 53.761719 C 67.519531 51.695312 65.839844 50.015625 63.773438 50.015625 Z M 63.773438 50.015625 "/>
<path style=" stroke:none;fill-rule:nonzero;fill:rgb(0%,0%,0%);fill-opacity:1;" d="M 52.527344 41.261719 C 51.835938 41.261719 51.277344 40.699219 51.277344 40.011719 C 51.277344 39.320312 51.835938 38.761719 52.527344 38.761719 C 53.902344 38.761719 55.019531 37.640625 55.019531 36.269531 C 55.019531 35.578125 55.578125 35.019531 56.269531 35.019531 C 56.960938 35.019531 57.519531 35.578125 57.519531 36.269531 C 57.519531 39.019531 55.28125 41.261719 52.527344 41.261719 Z M 52.527344 41.261719 "/>
<path style=" stroke:none;fill-rule:nonzero;fill:rgb(0%,0%,0%);fill-opacity:1;" d="M 75.015625 41.261719 C 72.265625 41.261719 70.023438 39.019531 70.023438 36.269531 C 70.023438 35.578125 70.582031 35.019531 71.273438 35.019531 C 71.964844 35.019531 72.523438 35.578125 72.523438 36.269531 C 72.523438 37.644531 73.644531 38.761719 75.015625 38.761719 C 75.707031 38.761719 76.265625 39.320312 76.265625 40.011719 C 76.265625 40.699219 75.707031 41.261719 75.015625 41.261719 Z M 75.015625 41.261719 "/>
<path style=" stroke:none;fill-rule:nonzero;fill:rgb(0%,0%,0%);fill-opacity:1;" d="M 71.273438 72.5 C 70.582031 72.5 70.023438 71.941406 70.023438 71.25 C 70.023438 68.496094 72.265625 66.257812 75.019531 66.257812 C 75.710938 66.257812 76.269531 66.8125 76.269531 67.503906 C 76.269531 68.195312 75.710938 68.753906 75.019531 68.753906 C 73.644531 68.753906 72.523438 69.875 72.523438 71.25 C 72.523438 71.941406 71.964844 72.5 71.273438 72.5 Z M 71.273438 72.5 "/>
<path style=" stroke:none;fill-rule:nonzero;fill:rgb(0%,0%,0%);fill-opacity:1;" d="M 56.277344 72.503906 C 55.585938 72.503906 55.027344 71.945312 55.027344 71.253906 C 55.027344 69.875 53.90625 68.753906 52.527344 68.753906 C 51.835938 68.753906 51.277344 68.195312 51.277344 67.503906 C 51.277344 66.8125 51.835938 66.253906 52.527344 66.253906 C 55.285156 66.253906 57.527344 68.496094 57.527344 71.253906 C 57.527344 71.945312 56.96875 72.503906 56.277344 72.503906 Z M 56.277344 72.503906 "/>
<path style=" stroke:none;fill-rule:nonzero;fill:rgb(0%,0%,0%);fill-opacity:1;" d="M 10.023438 26.242188 C 9.332031 26.242188 8.773438 25.683594 8.773438 24.992188 L 8.773438 23.742188 C 8.773438 23.050781 9.332031 22.492188 10.023438 22.492188 C 10.714844 22.492188 11.273438 23.050781 11.273438 23.742188 L 11.273438 24.992188 C 11.273438 25.683594 10.714844 26.242188 10.023438 26.242188 Z M 10.023438 26.242188 "/>
<path style=" stroke:none;fill-rule:nonzero;fill:rgb(0%,0%,0%);fill-opacity:1;" d="M 30.011719 26.242188 C 29.324219 26.242188 28.765625 25.6875 28.761719 24.996094 L 28.761719 23.746094 C 28.757812 23.054688 29.316406 22.496094 30.007812 22.492188 L 30.011719 22.492188 C 30.699219 22.492188 31.257812 23.050781 31.257812 23.742188 L 31.261719 24.992188 C 31.261719 25.683594 30.707031 26.242188 30.015625 26.242188 C 30.011719 26.242188 30.011719 26.242188 30.011719 26.242188 Z M 30.011719 26.242188 "/>
<path style=" stroke:none;fill-rule:nonzero;fill:rgb(0%,0%,0%);fill-opacity:1;" d="M 27.507812 17.496094 L 12.523438 17.496094 C 11.832031 17.496094 11.273438 16.9375 11.273438 16.246094 C 11.273438 15.554688 11.832031 14.996094 12.523438 14.996094 L 27.507812 14.996094 C 28.199219 14.996094 28.757812 15.554688 28.757812 16.246094 C 28.757812 16.9375 28.199219 17.496094 27.507812 17.496094 Z M 27.507812 17.496094 "/>
<path style=" stroke:none;fill-rule:nonzero;fill:rgb(0%,0%,0%);fill-opacity:1;" d="M 20.015625 34.992188 C 19.328125 34.992188 18.765625 34.433594 18.765625 33.742188 L 18.765625 13.75 C 18.765625 13.058594 19.328125 12.5 20.015625 12.5 C 20.707031 12.5 21.265625 13.058594 21.265625 13.75 L 21.265625 33.742188 C 21.265625 34.433594 20.707031 34.992188 20.015625 34.992188 Z M 20.015625 34.992188 "/>
<path style=" stroke:none;fill-rule:nonzero;fill:rgb(0%,0%,0%);fill-opacity:1;" d="M 26.261719 34.992188 L 13.773438 34.992188 C 13.082031 34.992188 12.523438 34.433594 12.523438 33.742188 C 12.523438 33.050781 13.082031 32.492188 13.773438 32.492188 L 26.261719 32.492188 C 26.953125 32.492188 27.511719 33.050781 27.511719 33.742188 C 27.511719 34.433594 26.953125 34.992188 26.261719 34.992188 Z M 26.261719 34.992188 "/>
<path style=" stroke:none;fill-rule:nonzero;fill:rgb(0%,0%,0%);fill-opacity:1;" d="M 27.511719 28.742188 C 25.445312 28.742188 23.761719 27.058594 23.761719 24.992188 C 23.761719 24.300781 24.320312 23.742188 25.011719 23.742188 C 25.703125 23.742188 26.261719 24.300781 26.261719 24.992188 C 26.261719 25.683594 26.820312 26.242188 27.511719 26.242188 C 28.199219 26.242188 28.761719 25.683594 28.761719 24.992188 C 28.761719 24.300781 29.320312 23.742188 30.011719 23.742188 C 30.703125 23.742188 31.257812 24.300781 31.257812 24.992188 C 31.257812 27.058594 29.578125 28.742188 27.511719 28.742188 Z M 27.511719 28.742188 "/>
<path style=" stroke:none;fill-rule:nonzero;fill:rgb(0%,0%,0%);fill-opacity:1;" d="M 25.011719 24.992188 C 24.882812 24.992188 24.746094 24.972656 24.617188 24.925781 C 23.960938 24.710938 23.609375 24.003906 23.828125 23.347656 L 26.324219 15.851562 C 26.542969 15.199219 27.246094 14.839844 27.90625 15.0625 C 28.558594 15.277344 28.914062 15.984375 28.695312 16.640625 L 26.199219 24.136719 C 26.023438 24.664062 25.535156 24.992188 25.011719 24.992188 Z M 25.011719 24.992188 "/>
<path style=" stroke:none;fill-rule:nonzero;fill:rgb(0%,0%,0%);fill-opacity:1;" d="M 30.007812 24.992188 C 29.484375 24.992188 28.996094 24.660156 28.824219 24.136719 L 26.324219 16.640625 C 26.105469 15.988281 26.460938 15.277344 27.113281 15.0625 C 27.773438 14.839844 28.476562 15.195312 28.695312 15.851562 L 31.195312 23.347656 C 31.410156 24 31.058594 24.710938 30.402344 24.925781 C 30.269531 24.972656 30.136719 24.992188 30.007812 24.992188 Z M 30.007812 24.992188 "/>
<path style=" stroke:none;fill-rule:nonzero;fill:rgb(0%,0%,0%);fill-opacity:1;" d="M 12.523438 28.742188 C 10.457031 28.742188 8.773438 27.058594 8.773438 24.992188 C 8.773438 24.300781 9.332031 23.742188 10.023438 23.742188 C 10.714844 23.742188 11.273438 24.300781 11.273438 24.992188 C 11.273438 25.683594 11.832031 26.242188 12.523438 26.242188 C 13.210938 26.242188 13.773438 25.683594 13.773438 24.992188 C 13.773438 24.300781 14.332031 23.742188 15.023438 23.742188 C 15.714844 23.742188 16.273438 24.300781 16.273438 24.992188 C 16.273438 27.058594 14.589844 28.742188 12.523438 28.742188 Z M 12.523438 28.742188 "/>
<path style=" stroke:none;fill-rule:nonzero;fill:rgb(0%,0%,0%);fill-opacity:1;" d="M 10.023438 24.992188 C 9.894531 24.992188 9.757812 24.972656 9.628906 24.925781 C 8.976562 24.710938 8.621094 24.003906 8.839844 23.347656 L 11.335938 15.851562 C 11.554688 15.199219 12.253906 14.839844 12.917969 15.0625 C 13.570312 15.277344 13.925781 15.984375 13.707031 16.640625 L 11.210938 24.136719 C 11.035156 24.664062 10.546875 24.992188 10.023438 24.992188 Z M 10.023438 24.992188 "/>
<path style=" stroke:none;fill-rule:nonzero;fill:rgb(0%,0%,0%);fill-opacity:1;" d="M 15.019531 24.992188 C 14.496094 24.992188 14.007812 24.660156 13.835938 24.136719 L 11.335938 16.644531 C 11.117188 15.988281 11.472656 15.28125 12.125 15.0625 C 12.789062 14.84375 13.488281 15.199219 13.707031 15.851562 L 16.207031 23.347656 C 16.425781 24.003906 16.070312 24.710938 15.417969 24.929688 C 15.285156 24.972656 15.152344 24.992188 15.019531 24.992188 Z M 15.019531 24.992188 "/>
<path style=" stroke:none;fill-rule:nonzero;fill:rgb(0%,0%,0%);fill-opacity:1;" d="M 15.019531 24.992188 L 10.023438 24.992188 C 9.332031 24.992188 8.773438 24.433594 8.773438 23.742188 C 8.773438 23.050781 9.332031 22.492188 10.023438 22.492188 L 15.019531 22.492188 C 15.710938 22.492188 16.269531 23.050781 16.269531 23.742188 C 16.269531 24.433594 15.710938 24.992188 15.019531 24.992188 Z M 15.019531 24.992188 "/>
<path style=" stroke:none;fill-rule:nonzero;fill:rgb(0%,0%,0%);fill-opacity:1;" d="M 30.007812 24.992188 L 25.011719 24.992188 C 24.320312 24.992188 23.761719 24.433594 23.761719 23.742188 C 23.761719 23.050781 24.320312 22.492188 25.011719 22.492188 L 30.007812 22.492188 C 30.699219 22.492188 31.257812 23.050781 31.257812 23.742188 C 31.257812 24.433594 30.699219 24.992188 30.007812 24.992188 Z M 30.007812 24.992188 "/>
<path style=" stroke:none;fill-rule:nonzero;fill:rgb(0%,0%,0%);fill-opacity:1;" d="M 15.023438 26.242188 C 14.332031 26.242188 13.773438 25.6875 13.773438 24.996094 L 13.769531 23.746094 C 13.769531 23.054688 14.328125 22.496094 15.015625 22.492188 L 15.019531 22.492188 C 15.710938 22.492188 16.269531 23.050781 16.269531 23.742188 L 16.273438 24.992188 C 16.273438 25.683594 15.714844 26.242188 15.023438 26.242188 Z M 15.023438 26.242188 "/>
<path style=" stroke:none;fill-rule:nonzero;fill:rgb(0%,0%,0%);fill-opacity:1;" d="M 25.011719 26.242188 C 24.324219 26.242188 23.765625 25.683594 23.765625 24.992188 L 23.765625 23.742188 C 23.765625 23.050781 24.324219 22.492188 25.011719 22.492188 C 25.703125 22.492188 26.261719 23.050781 26.261719 23.742188 L 26.261719 24.992188 C 26.261719 25.683594 25.703125 26.242188 25.011719 26.242188 Z M 25.011719 26.242188 "/>
</g>
</svg>
