<?xml version="1.0" encoding="UTF-8"?>
<svg xmlns="http://www.w3.org/2000/svg" xmlns:xlink="http://www.w3.org/1999/xlink" width="80pt" height="80pt" viewBox="0 0 80 80" version="1.1">
<g id="surface1">
<path style=" stroke:none;fill-rule:nonzero;fill:rgb(0%,0%,0%);fill-opacity:1;" d="M 61.847656 72.476562 L 11.863281 72.472656 C 11.171875 72.472656 10.613281 71.910156 10.613281 71.222656 L 10.613281 1.25 C 10.613281 0.558594 11.171875 0 11.863281 0 L 54.351562 0 C 54.683594 0 55 0.132812 55.234375 0.367188 L 62.734375 7.855469 C 62.96875 8.089844 63.097656 8.40625 63.097656 8.738281 L 63.097656 71.230469 C 63.097656 71.5625 62.96875 71.878906 62.734375 72.113281 C 62.496094 72.347656 62.183594 72.476562 61.847656 72.476562 Z M 13.113281 69.972656 L 60.597656 69.980469 L 60.597656 9.257812 L 53.835938 2.5 L 13.113281 2.5 Z M 13.113281 69.972656 "/>
<path style=" stroke:none;fill-rule:nonzero;fill:rgb(0%,0%,0%);fill-opacity:1;" d="M 58.105469 76.222656 L 8.117188 76.214844 C 7.425781 76.214844 6.871094 75.65625 6.871094 74.964844 L 6.871094 4.996094 C 6.871094 4.304688 7.425781 3.746094 8.117188 3.746094 L 11.863281 3.746094 C 12.554688 3.746094 13.113281 4.304688 13.113281 4.996094 C 13.113281 5.6875 12.554688 6.246094 11.863281 6.246094 L 9.367188 6.246094 L 9.367188 73.71875 L 56.855469 73.722656 L 56.855469 71.222656 C 56.855469 70.53125 57.414062 69.972656 58.105469 69.972656 C 58.796875 69.972656 59.355469 70.53125 59.355469 71.222656 L 59.355469 74.972656 C 59.355469 75.304688 59.222656 75.625 58.988281 75.859375 C 58.753906 76.089844 58.4375 76.222656 58.105469 76.222656 Z M 58.105469 76.222656 "/>
<path style=" stroke:none;fill-rule:nonzero;fill:rgb(0%,0%,0%);fill-opacity:1;" d="M 54.351562 79.96875 L 4.367188 79.960938 C 3.675781 79.960938 3.117188 79.402344 3.117188 78.710938 L 3.117188 8.738281 C 3.117188 8.046875 3.675781 7.492188 4.367188 7.492188 L 8.113281 7.492188 C 8.800781 7.492188 9.359375 8.046875 9.359375 8.738281 C 9.359375 9.429688 8.800781 9.988281 8.113281 9.988281 L 5.617188 9.988281 L 5.617188 77.460938 L 53.101562 77.46875 L 53.101562 74.964844 C 53.101562 74.273438 53.660156 73.71875 54.351562 73.71875 C 55.042969 73.71875 55.601562 74.273438 55.601562 74.964844 L 55.601562 78.71875 C 55.601562 79.050781 55.46875 79.367188 55.234375 79.601562 C 55 79.835938 54.683594 79.96875 54.351562 79.96875 Z M 54.351562 79.96875 "/>
<path style=" stroke:none;fill-rule:nonzero;fill:rgb(0%,0%,0%);fill-opacity:1;" d="M 61.847656 9.988281 L 54.351562 9.988281 C 53.660156 9.988281 53.101562 9.429688 53.101562 8.738281 C 53.101562 8.046875 53.660156 7.492188 54.351562 7.492188 L 61.847656 7.492188 C 62.539062 7.492188 63.097656 8.046875 63.097656 8.738281 C 63.097656 9.429688 62.539062 9.988281 61.847656 9.988281 Z M 61.847656 9.988281 "/>
<path style=" stroke:none;fill-rule:nonzero;fill:rgb(0%,0%,0%);fill-opacity:1;" d="M 54.351562 9.988281 C 53.660156 9.988281 53.101562 9.429688 53.101562 8.738281 L 53.101562 1.25 C 53.101562 0.558594 53.660156 0 54.351562 0 C 55.042969 0 55.601562 0.558594 55.601562 1.25 L 55.601562 8.738281 C 55.601562 9.429688 55.042969 9.988281 54.351562 9.988281 Z M 54.351562 9.988281 "/>
<path style=" stroke:none;fill-rule:nonzero;fill:rgb(0%,0%,0%);fill-opacity:1;" d="M 71.847656 17.480469 C 71.15625 17.480469 70.597656 16.921875 70.597656 16.230469 C 70.597656 15.539062 70.035156 14.980469 69.347656 14.980469 C 68.65625 14.980469 68.097656 15.539062 68.097656 16.230469 C 68.097656 16.921875 67.539062 17.480469 66.847656 17.480469 C 66.15625 17.480469 65.597656 16.921875 65.597656 16.230469 C 65.597656 14.164062 67.28125 12.480469 69.347656 12.480469 C 71.414062 12.480469 73.097656 14.164062 73.097656 16.230469 C 73.097656 16.921875 72.535156 17.480469 71.847656 17.480469 Z M 71.847656 17.480469 "/>
<path style=" stroke:none;fill-rule:nonzero;fill:rgb(0%,0%,0%);fill-opacity:1;" d="M 66.847656 59.96875 C 66.15625 59.96875 65.597656 59.410156 65.597656 58.71875 L 65.597656 16.230469 C 65.597656 15.539062 66.15625 14.980469 66.847656 14.980469 C 67.539062 14.980469 68.097656 15.539062 68.097656 16.230469 L 68.097656 58.71875 C 68.097656 59.410156 67.539062 59.96875 66.847656 59.96875 Z M 66.847656 59.96875 "/>
<path style=" stroke:none;fill-rule:nonzero;fill:rgb(0%,0%,0%);fill-opacity:1;" d="M 71.847656 59.96875 C 71.15625 59.96875 70.597656 59.410156 70.597656 58.71875 L 70.597656 16.230469 C 70.597656 15.539062 71.15625 14.980469 71.847656 14.980469 C 72.535156 14.980469 73.097656 15.539062 73.097656 16.230469 L 73.097656 58.71875 C 73.097656 59.410156 72.535156 59.96875 71.847656 59.96875 Z M 71.847656 59.96875 "/>
<path style=" stroke:none;fill-rule:nonzero;fill:rgb(0%,0%,0%);fill-opacity:1;" d="M 69.347656 63.714844 C 68.945312 63.714844 68.546875 63.519531 68.308594 63.160156 L 65.808594 59.410156 C 65.425781 58.835938 65.578125 58.0625 66.152344 57.675781 C 66.730469 57.296875 67.503906 57.449219 67.886719 58.023438 L 70.386719 61.773438 C 70.769531 62.347656 70.617188 63.121094 70.039062 63.507812 C 69.828125 63.648438 69.585938 63.714844 69.347656 63.714844 Z M 69.347656 63.714844 "/>
<path style=" stroke:none;fill-rule:nonzero;fill:rgb(0%,0%,0%);fill-opacity:1;" d="M 69.347656 63.714844 C 69.109375 63.714844 68.867188 63.648438 68.652344 63.507812 C 68.078125 63.121094 67.921875 62.347656 68.308594 61.773438 L 70.804688 58.023438 C 71.1875 57.449219 71.960938 57.296875 72.539062 57.675781 C 73.113281 58.0625 73.269531 58.835938 72.886719 59.410156 L 70.386719 63.160156 C 70.148438 63.519531 69.75 63.714844 69.347656 63.714844 Z M 69.347656 63.714844 "/>
<path style=" stroke:none;fill-rule:nonzero;fill:rgb(0%,0%,0%);fill-opacity:1;" d="M 69.347656 64.964844 C 68.65625 64.964844 68.097656 64.40625 68.097656 63.714844 L 68.097656 62.464844 C 68.097656 61.777344 68.65625 61.214844 69.347656 61.214844 C 70.039062 61.214844 70.597656 61.777344 70.597656 62.464844 L 70.597656 63.714844 C 70.597656 64.40625 70.039062 64.964844 69.347656 64.964844 Z M 69.347656 64.964844 "/>
<path style=" stroke:none;fill-rule:nonzero;fill:rgb(0%,0%,0%);fill-opacity:1;" d="M 71.847656 57.46875 L 66.847656 57.46875 C 66.15625 57.46875 65.597656 56.910156 65.597656 56.21875 C 65.597656 55.527344 66.15625 54.96875 66.847656 54.96875 L 71.847656 54.96875 C 72.535156 54.96875 73.097656 55.527344 73.097656 56.21875 C 73.097656 56.910156 72.535156 57.46875 71.847656 57.46875 Z M 71.847656 57.46875 "/>
<path style=" stroke:none;fill-rule:nonzero;fill:rgb(0%,0%,0%);fill-opacity:1;" d="M 75.59375 21.226562 C 74.902344 21.226562 74.34375 20.671875 74.34375 19.980469 C 74.34375 19.289062 73.785156 18.730469 73.097656 18.730469 C 72.40625 18.730469 71.847656 18.171875 71.847656 17.480469 C 71.847656 16.789062 72.40625 16.230469 73.097656 16.230469 C 75.164062 16.230469 76.84375 17.914062 76.84375 19.980469 C 76.84375 20.671875 76.285156 21.226562 75.59375 21.226562 Z M 75.59375 21.226562 "/>
<path style=" stroke:none;fill-rule:nonzero;fill:rgb(0%,0%,0%);fill-opacity:1;" d="M 75.59375 36.222656 C 74.902344 36.222656 74.34375 35.664062 74.34375 34.972656 L 74.34375 19.980469 C 74.34375 19.289062 74.902344 18.730469 75.59375 18.730469 C 76.285156 18.730469 76.84375 19.289062 76.84375 19.980469 L 76.84375 34.972656 C 76.84375 35.664062 76.285156 36.222656 75.59375 36.222656 Z M 75.59375 36.222656 "/>
<path style=" stroke:none;fill-rule:nonzero;fill:rgb(0%,0%,0%);fill-opacity:1;" d="M 73.097656 18.730469 L 71.847656 18.730469 C 71.15625 18.730469 70.597656 18.171875 70.597656 17.480469 C 70.597656 16.789062 71.15625 16.230469 71.847656 16.230469 L 73.097656 16.230469 C 73.785156 16.230469 74.34375 16.789062 74.34375 17.480469 C 74.34375 18.171875 73.785156 18.730469 73.097656 18.730469 Z M 73.097656 18.730469 "/>
<path style=" stroke:none;fill-rule:nonzero;fill:rgb(0%,0%,0%);fill-opacity:1;" d="M 71.847656 29.976562 L 66.847656 29.976562 C 66.15625 29.976562 65.597656 29.417969 65.597656 28.726562 C 65.597656 28.035156 66.15625 27.476562 66.847656 27.476562 L 71.847656 27.476562 C 72.535156 27.476562 73.097656 28.035156 73.097656 28.726562 C 73.097656 29.417969 72.535156 29.976562 71.847656 29.976562 Z M 71.847656 29.976562 "/>
<path style=" stroke:none;fill-rule:nonzero;fill:rgb(0%,0%,0%);fill-opacity:1;" d="M 53.101562 33.734375 L 20.613281 33.734375 C 19.921875 33.734375 19.363281 33.171875 19.363281 32.484375 C 19.363281 31.792969 19.921875 31.234375 20.613281 31.234375 L 53.101562 31.234375 C 53.792969 31.234375 54.351562 31.792969 54.351562 32.484375 C 54.351562 33.171875 53.792969 33.734375 53.101562 33.734375 Z M 53.101562 33.734375 "/>
<path style=" stroke:none;fill-rule:nonzero;fill:rgb(0%,0%,0%);fill-opacity:1;" d="M 53.101562 39.980469 L 20.613281 39.980469 C 19.921875 39.980469 19.363281 39.421875 19.363281 38.730469 C 19.363281 38.039062 19.921875 37.480469 20.613281 37.480469 L 53.101562 37.480469 C 53.792969 37.480469 54.351562 38.039062 54.351562 38.730469 C 54.351562 39.421875 53.792969 39.980469 53.101562 39.980469 Z M 53.101562 39.980469 "/>
<path style=" stroke:none;fill-rule:nonzero;fill:rgb(0%,0%,0%);fill-opacity:1;" d="M 53.101562 46.230469 L 20.613281 46.230469 C 19.921875 46.230469 19.363281 45.671875 19.363281 44.980469 C 19.363281 44.289062 19.921875 43.730469 20.613281 43.730469 L 53.101562 43.730469 C 53.792969 43.730469 54.351562 44.289062 54.351562 44.980469 C 54.351562 45.671875 53.792969 46.230469 53.101562 46.230469 Z M 53.101562 46.230469 "/>
<path style=" stroke:none;fill-rule:nonzero;fill:rgb(0%,0%,0%);fill-opacity:1;" d="M 36.855469 52.476562 L 20.613281 52.476562 C 19.921875 52.476562 19.363281 51.917969 19.363281 51.226562 C 19.363281 50.535156 19.921875 49.976562 20.613281 49.976562 L 36.855469 49.976562 C 37.546875 49.976562 38.105469 50.535156 38.105469 51.226562 C 38.105469 51.917969 37.546875 52.476562 36.855469 52.476562 Z M 36.855469 52.476562 "/>
<path style=" stroke:none;fill-rule:nonzero;fill:rgb(0%,0%,0%);fill-opacity:1;" d="M 53.101562 63.722656 L 44.355469 63.722656 C 43.664062 63.722656 43.105469 63.164062 43.105469 62.472656 C 43.105469 61.78125 43.664062 61.222656 44.355469 61.222656 L 53.101562 61.222656 C 53.792969 61.222656 54.351562 61.78125 54.351562 62.472656 C 54.351562 63.164062 53.792969 63.722656 53.101562 63.722656 Z M 53.101562 63.722656 "/>
<path style=" stroke:none;fill-rule:nonzero;fill:rgb(0%,0%,0%);fill-opacity:1;" d="M 46.855469 66.222656 C 46.164062 66.222656 45.605469 65.664062 45.605469 64.972656 L 45.605469 59.976562 C 45.605469 59.285156 46.164062 58.726562 46.855469 58.726562 C 47.542969 58.726562 48.101562 59.285156 48.101562 59.976562 L 48.101562 64.972656 C 48.101562 65.664062 47.542969 66.222656 46.855469 66.222656 Z M 46.855469 66.222656 "/>
<path style=" stroke:none;fill-rule:nonzero;fill:rgb(0%,0%,0%);fill-opacity:1;" d="M 46.851562 66.222656 C 46.589844 66.222656 46.328125 66.140625 46.105469 65.972656 C 45.550781 65.558594 45.4375 64.777344 45.855469 64.226562 L 49.601562 59.226562 C 50.015625 58.671875 50.800781 58.5625 51.351562 58.976562 C 51.902344 59.390625 52.015625 60.171875 51.601562 60.726562 L 47.851562 65.722656 C 47.609375 66.050781 47.234375 66.222656 46.851562 66.222656 Z M 46.851562 66.222656 "/>
<path style=" stroke:none;fill-rule:nonzero;fill:rgb(0%,0%,0%);fill-opacity:1;" d="M 50.601562 66.222656 C 49.910156 66.222656 49.351562 65.664062 49.351562 64.972656 L 49.351562 59.976562 C 49.351562 59.285156 49.910156 58.726562 50.601562 58.726562 C 51.292969 58.726562 51.851562 59.285156 51.851562 59.976562 L 51.851562 64.972656 C 51.851562 65.664062 51.292969 66.222656 50.601562 66.222656 Z M 50.601562 66.222656 "/>
<path style=" stroke:none;fill-rule:nonzero;fill:rgb(0%,0%,0%);fill-opacity:1;" d="M 30.609375 25.011719 L 20.613281 25.011719 C 19.921875 25.011719 19.363281 24.453125 19.363281 23.761719 C 19.363281 23.070312 19.921875 22.511719 20.613281 22.511719 L 30.609375 22.511719 C 31.300781 22.511719 31.859375 23.070312 31.859375 23.761719 C 31.859375 24.453125 31.300781 25.011719 30.609375 25.011719 Z M 30.609375 25.011719 "/>
<path style=" stroke:none;fill-rule:nonzero;fill:rgb(0%,0%,0%);fill-opacity:1;" d="M 25.609375 25.011719 C 24.917969 25.011719 24.359375 24.453125 24.359375 23.761719 L 24.359375 12.515625 C 24.359375 11.824219 24.917969 11.265625 25.609375 11.265625 C 26.300781 11.265625 26.859375 11.824219 26.859375 12.515625 L 26.859375 23.761719 C 26.859375 24.449219 26.300781 25.011719 25.609375 25.011719 Z M 25.609375 25.011719 "/>
<path style=" stroke:none;fill-rule:nonzero;fill:rgb(0%,0%,0%);fill-opacity:1;" d="M 30.609375 15.015625 L 20.613281 15.015625 C 19.921875 15.015625 19.363281 14.457031 19.363281 13.765625 C 19.363281 13.074219 19.921875 12.515625 20.613281 12.515625 L 30.609375 12.515625 C 31.300781 12.515625 31.859375 13.074219 31.859375 13.765625 C 31.859375 14.457031 31.300781 15.015625 30.609375 15.015625 Z M 30.609375 15.015625 "/>
<path style=" stroke:none;fill-rule:nonzero;fill:rgb(0%,0%,0%);fill-opacity:1;" d="M 31.859375 18.761719 L 29.359375 18.761719 C 28.667969 18.761719 28.109375 18.203125 28.109375 17.515625 C 28.109375 16.824219 28.667969 16.265625 29.359375 16.265625 L 31.859375 16.265625 C 32.546875 16.265625 33.109375 16.824219 33.109375 17.515625 C 33.109375 18.203125 32.546875 18.761719 31.859375 18.761719 Z M 31.859375 18.761719 "/>
<path style=" stroke:none;fill-rule:nonzero;fill:rgb(0%,0%,0%);fill-opacity:1;" d="M 21.859375 18.761719 L 19.363281 18.761719 C 18.671875 18.761719 18.113281 18.203125 18.113281 17.515625 C 18.113281 16.824219 18.671875 16.265625 19.363281 16.265625 L 21.859375 16.265625 C 22.550781 16.265625 23.109375 16.824219 23.109375 17.515625 C 23.109375 18.203125 22.550781 18.761719 21.859375 18.761719 Z M 21.859375 18.761719 "/>
</g>
</svg>
