<?xml version="1.0" encoding="UTF-8"?>
<svg xmlns="http://www.w3.org/2000/svg" xmlns:xlink="http://www.w3.org/1999/xlink" width="80pt" height="80pt" viewBox="0 0 80 80" version="1.1">
<g id="surface1">
<path style=" stroke:none;fill-rule:nonzero;fill:rgb(0%,0%,0%);fill-opacity:1;" d="M 41.253906 76.265625 L 1.25 76.265625 C 0.558594 76.265625 0 75.707031 0 75.015625 L 0 71.265625 C 0 70.574219 0.558594 70.015625 1.25 70.015625 L 41.253906 70.015625 C 41.945312 70.015625 42.503906 70.574219 42.503906 71.265625 L 42.503906 75.015625 C 42.503906 75.707031 41.945312 76.265625 41.253906 76.265625 Z M 2.5 73.765625 L 40.003906 73.765625 L 40.003906 72.515625 L 2.5 72.515625 Z M 2.5 73.765625 "/>
<path style=" stroke:none;fill-rule:nonzero;fill:rgb(0%,0%,0%);fill-opacity:1;" d="M 38.753906 72.515625 L 3.75 72.515625 C 3.058594 72.515625 2.5 71.957031 2.5 71.265625 L 2.5 66.265625 C 2.5 65.574219 3.058594 65.015625 3.75 65.015625 L 38.753906 65.015625 C 39.445312 65.015625 40.003906 65.574219 40.003906 66.265625 L 40.003906 71.265625 C 40.003906 71.957031 39.445312 72.515625 38.753906 72.515625 Z M 5 70.015625 L 37.503906 70.015625 L 37.503906 67.515625 L 5 67.515625 Z M 5 70.015625 "/>
<path style=" stroke:none;fill-rule:nonzero;fill:rgb(0%,0%,0%);fill-opacity:1;" d="M 33.753906 57.515625 L 8.75 57.515625 C 8.058594 57.515625 7.5 56.953125 7.5 56.265625 L 7.5 26.261719 C 7.5 25.570312 8.058594 25.011719 8.75 25.011719 L 33.753906 25.011719 C 34.445312 25.011719 35.003906 25.570312 35.003906 26.261719 L 35.003906 56.265625 C 35.003906 56.953125 34.445312 57.515625 33.753906 57.515625 Z M 10 55.015625 L 32.503906 55.015625 L 32.503906 27.511719 L 10 27.511719 Z M 10 55.015625 "/>
<path style=" stroke:none;fill-rule:nonzero;fill:rgb(0%,0%,0%);fill-opacity:1;" d="M 36.253906 63.765625 L 6.25 63.765625 C 5.558594 63.765625 5 63.207031 5 62.515625 L 5 56.265625 C 5 55.574219 5.558594 55.015625 6.25 55.015625 L 36.253906 55.015625 C 36.945312 55.015625 37.503906 55.574219 37.503906 56.265625 L 37.503906 62.515625 C 37.503906 63.207031 36.945312 63.765625 36.253906 63.765625 Z M 7.5 61.265625 L 35.003906 61.265625 L 35.003906 57.515625 L 7.5 57.515625 Z M 7.5 61.265625 "/>
<path style=" stroke:none;fill-rule:nonzero;fill:rgb(0%,0%,0%);fill-opacity:1;" d="M 36.253906 27.511719 L 6.25 27.511719 C 5.558594 27.511719 5 26.953125 5 26.261719 L 5 20.007812 C 5 19.320312 5.558594 18.757812 6.25 18.757812 L 36.253906 18.757812 C 36.945312 18.757812 37.503906 19.320312 37.503906 20.007812 L 37.503906 26.261719 C 37.503906 26.953125 36.945312 27.511719 36.253906 27.511719 Z M 7.5 25.011719 L 35.003906 25.011719 L 35.003906 21.257812 L 7.5 21.257812 Z M 7.5 25.011719 "/>
<path style=" stroke:none;fill-rule:nonzero;fill:rgb(0%,0%,0%);fill-opacity:1;" d="M 38.753906 37.511719 L 33.753906 37.511719 C 33.0625 37.511719 32.503906 36.953125 32.503906 36.261719 C 32.503906 35.570312 33.0625 35.011719 33.753906 35.011719 L 38.753906 35.011719 C 39.445312 35.011719 40.003906 35.570312 40.003906 36.261719 C 40.003906 36.953125 39.445312 37.511719 38.753906 37.511719 Z M 38.753906 37.511719 "/>
<path style=" stroke:none;fill-rule:nonzero;fill:rgb(0%,0%,0%);fill-opacity:1;" d="M 38.753906 47.511719 L 33.753906 47.511719 C 33.0625 47.511719 32.503906 46.953125 32.503906 46.261719 C 32.503906 45.570312 33.0625 45.011719 33.753906 45.011719 L 38.753906 45.011719 C 39.445312 45.011719 40.003906 45.570312 40.003906 46.261719 C 40.003906 46.953125 39.445312 47.511719 38.753906 47.511719 Z M 38.753906 47.511719 "/>
<path style=" stroke:none;fill-rule:nonzero;fill:rgb(0%,0%,0%);fill-opacity:1;" d="M 38.753906 47.511719 C 38.0625 47.511719 37.503906 46.953125 37.503906 46.261719 L 37.503906 36.261719 C 37.503906 35.570312 38.0625 35.011719 38.753906 35.011719 C 39.445312 35.011719 40.003906 35.570312 40.003906 36.261719 L 40.003906 46.261719 C 40.003906 46.953125 39.445312 47.511719 38.753906 47.511719 Z M 38.753906 47.511719 "/>
<path style=" stroke:none;fill-rule:nonzero;fill:rgb(0%,0%,0%);fill-opacity:1;" d="M 75 38.761719 L 38.753906 38.761719 C 38.0625 38.761719 37.503906 38.203125 37.503906 37.511719 C 37.503906 36.820312 38.0625 36.261719 38.753906 36.261719 L 75 36.261719 C 75.691406 36.261719 76.25 36.820312 76.25 37.511719 C 76.25 38.203125 75.691406 38.761719 75 38.761719 Z M 75 38.761719 "/>
<path style=" stroke:none;fill-rule:nonzero;fill:rgb(0%,0%,0%);fill-opacity:1;" d="M 75 46.261719 L 38.753906 46.261719 C 38.0625 46.261719 37.503906 45.703125 37.503906 45.011719 C 37.503906 44.320312 38.0625 43.761719 38.753906 43.761719 L 75 43.761719 C 75.691406 43.761719 76.25 44.320312 76.25 45.011719 C 76.25 45.703125 75.691406 46.261719 75 46.261719 Z M 75 46.261719 "/>
<path style=" stroke:none;fill-rule:nonzero;fill:rgb(0%,0%,0%);fill-opacity:1;" d="M 75 46.261719 C 74.308594 46.261719 73.75 45.703125 73.75 45.011719 C 73.75 44.320312 74.308594 43.761719 75 43.761719 C 76.378906 43.761719 77.5 42.640625 77.5 41.261719 C 77.5 39.882812 76.378906 38.761719 75 38.761719 C 74.308594 38.761719 73.75 38.203125 73.75 37.511719 C 73.75 36.820312 74.308594 36.261719 75 36.261719 C 77.757812 36.261719 80 38.503906 80 41.261719 C 80 44.019531 77.757812 46.261719 75 46.261719 Z M 75 46.261719 "/>
<path style=" stroke:none;fill-rule:nonzero;fill:rgb(0%,0%,0%);fill-opacity:1;" d="M 21.25 48.761719 C 17.113281 48.761719 13.75 45.398438 13.75 41.261719 C 13.75 37.125 17.113281 33.761719 21.25 33.761719 C 25.386719 33.761719 28.75 37.125 28.75 41.261719 C 28.75 45.398438 25.386719 48.761719 21.25 48.761719 Z M 21.25 36.261719 C 18.492188 36.261719 16.25 38.503906 16.25 41.261719 C 16.25 44.019531 18.492188 46.261719 21.25 46.261719 C 24.007812 46.261719 26.25 44.019531 26.25 41.261719 C 26.25 38.503906 24.007812 36.261719 21.25 36.261719 Z M 21.25 36.261719 "/>
<path style=" stroke:none;fill-rule:nonzero;fill:rgb(0%,0%,0%);fill-opacity:1;" d="M 21.25 45.011719 C 19.183594 45.011719 17.5 43.328125 17.5 41.261719 C 17.5 39.195312 19.183594 37.511719 21.25 37.511719 C 23.320312 37.511719 25 39.195312 25 41.261719 C 25 43.328125 23.320312 45.011719 21.25 45.011719 Z M 21.25 40.011719 C 20.5625 40.011719 20 40.574219 20 41.261719 C 20 41.953125 20.5625 42.511719 21.25 42.511719 C 21.941406 42.511719 22.5 41.953125 22.5 41.261719 C 22.5 40.574219 21.941406 40.011719 21.25 40.011719 Z M 21.25 40.011719 "/>
<path style=" stroke:none;fill-rule:nonzero;fill:rgb(0%,0%,0%);fill-opacity:1;" d="M 69.394531 8.75 L 48.148438 8.75 C 47.457031 8.75 46.898438 8.191406 46.898438 7.5 C 46.898438 6.808594 47.457031 6.25 48.148438 6.25 L 69.394531 6.25 C 70.082031 6.25 70.644531 6.808594 70.644531 7.5 C 70.644531 8.191406 70.082031 8.75 69.394531 8.75 Z M 69.394531 8.75 "/>
<path style=" stroke:none;fill-rule:nonzero;fill:rgb(0%,0%,0%);fill-opacity:1;" d="M 58.769531 35.007812 C 58.078125 35.007812 57.519531 34.449219 57.519531 33.757812 L 57.519531 5 C 57.519531 4.308594 58.078125 3.75 58.769531 3.75 C 59.460938 3.75 60.019531 4.308594 60.019531 5 L 60.019531 33.757812 C 60.019531 34.449219 59.460938 35.007812 58.769531 35.007812 Z M 58.769531 35.007812 "/>
<path style=" stroke:none;fill-rule:nonzero;fill:rgb(0%,0%,0%);fill-opacity:1;" d="M 67.519531 35.007812 L 50.019531 35.007812 C 49.328125 35.007812 48.769531 34.449219 48.769531 33.757812 C 48.769531 33.066406 49.328125 32.507812 50.019531 32.507812 L 67.519531 32.507812 C 68.210938 32.507812 68.769531 33.066406 68.769531 33.757812 C 68.769531 34.449219 68.207031 35.007812 67.519531 35.007812 Z M 67.519531 35.007812 "/>
<path style=" stroke:none;fill-rule:nonzero;fill:rgb(0%,0%,0%);fill-opacity:1;" d="M 69.394531 26.273438 C 66.289062 26.273438 63.765625 23.75 63.765625 20.644531 C 63.765625 19.953125 64.324219 19.394531 65.015625 19.394531 C 65.703125 19.394531 66.265625 19.953125 66.265625 20.644531 C 66.265625 22.371094 67.667969 23.773438 69.394531 23.773438 C 71.117188 23.773438 72.519531 22.371094 72.519531 20.644531 C 72.519531 19.953125 73.078125 19.394531 73.769531 19.394531 C 74.460938 19.394531 75.019531 19.953125 75.019531 20.644531 C 75.019531 23.75 72.496094 26.273438 69.394531 26.273438 Z M 69.394531 26.273438 "/>
<path style=" stroke:none;fill-rule:nonzero;fill:rgb(0%,0%,0%);fill-opacity:1;" d="M 73.769531 21.253906 L 65.015625 21.253906 C 64.324219 21.253906 63.765625 20.695312 63.765625 20.003906 C 63.765625 19.3125 64.324219 18.753906 65.015625 18.753906 L 73.769531 18.753906 C 74.457031 18.753906 75.019531 19.3125 75.019531 20.003906 C 75.019531 20.695312 74.457031 21.253906 73.769531 21.253906 Z M 73.769531 21.253906 "/>
<path style=" stroke:none;fill-rule:nonzero;fill:rgb(0%,0%,0%);fill-opacity:1;" d="M 65.015625 21.253906 C 64.878906 21.253906 64.738281 21.230469 64.605469 21.183594 C 63.953125 20.953125 63.609375 20.242188 63.835938 19.589844 L 68.210938 7.085938 C 68.441406 6.433594 69.152344 6.089844 69.804688 6.320312 C 70.457031 6.546875 70.800781 7.261719 70.574219 7.910156 L 66.195312 20.414062 C 66.015625 20.929688 65.53125 21.253906 65.015625 21.253906 Z M 65.015625 21.253906 "/>
<path style=" stroke:none;fill-rule:nonzero;fill:rgb(0%,0%,0%);fill-opacity:1;" d="M 73.769531 21.253906 C 73.25 21.253906 72.765625 20.929688 72.585938 20.414062 L 68.210938 7.910156 C 67.984375 7.261719 68.328125 6.546875 68.980469 6.320312 C 69.636719 6.09375 70.34375 6.433594 70.574219 7.085938 L 74.949219 19.589844 C 75.175781 20.242188 74.832031 20.957031 74.179688 21.183594 C 74.042969 21.230469 73.902344 21.253906 73.769531 21.253906 Z M 73.769531 21.253906 "/>
<path style=" stroke:none;fill-rule:nonzero;fill:rgb(0%,0%,0%);fill-opacity:1;" d="M 73.769531 21.894531 C 73.078125 21.894531 72.519531 21.335938 72.519531 20.644531 L 72.519531 20.003906 C 72.519531 19.3125 73.078125 18.753906 73.769531 18.753906 C 74.457031 18.753906 75.019531 19.3125 75.019531 20.003906 L 75.019531 20.644531 C 75.019531 21.335938 74.457031 21.894531 73.769531 21.894531 Z M 73.769531 21.894531 "/>
<path style=" stroke:none;fill-rule:nonzero;fill:rgb(0%,0%,0%);fill-opacity:1;" d="M 65.015625 21.894531 C 64.324219 21.894531 63.765625 21.335938 63.765625 20.644531 L 63.765625 20.003906 C 63.765625 19.3125 64.324219 18.753906 65.015625 18.753906 C 65.707031 18.753906 66.265625 19.3125 66.265625 20.003906 L 66.265625 20.644531 C 66.265625 21.335938 65.707031 21.894531 65.015625 21.894531 Z M 65.015625 21.894531 "/>
<path style=" stroke:none;fill-rule:nonzero;fill:rgb(0%,0%,0%);fill-opacity:1;" d="M 48.148438 26.273438 C 45.046875 26.273438 42.519531 23.75 42.519531 20.644531 C 42.519531 19.953125 43.078125 19.394531 43.769531 19.394531 C 44.460938 19.394531 45.019531 19.953125 45.019531 20.644531 C 45.019531 22.371094 46.425781 23.773438 48.148438 23.773438 C 49.875 23.773438 51.277344 22.371094 51.277344 20.644531 C 51.277344 19.953125 51.835938 19.394531 52.527344 19.394531 C 53.21875 19.394531 53.777344 19.953125 53.777344 20.644531 C 53.777344 23.75 51.253906 26.273438 48.148438 26.273438 Z M 48.148438 26.273438 "/>
<path style=" stroke:none;fill-rule:nonzero;fill:rgb(0%,0%,0%);fill-opacity:1;" d="M 52.523438 21.253906 L 43.773438 21.253906 C 43.082031 21.253906 42.523438 20.695312 42.523438 20.003906 C 42.523438 19.3125 43.082031 18.753906 43.773438 18.753906 L 52.523438 18.753906 C 53.214844 18.753906 53.773438 19.3125 53.773438 20.003906 C 53.773438 20.695312 53.214844 21.253906 52.523438 21.253906 Z M 52.523438 21.253906 "/>
<path style=" stroke:none;fill-rule:nonzero;fill:rgb(0%,0%,0%);fill-opacity:1;" d="M 43.773438 21.253906 C 43.636719 21.253906 43.496094 21.230469 43.359375 21.183594 C 42.707031 20.953125 42.363281 20.242188 42.59375 19.589844 L 46.96875 7.085938 C 47.199219 6.433594 47.910156 6.089844 48.5625 6.320312 C 49.210938 6.546875 49.554688 7.261719 49.328125 7.910156 L 44.953125 20.414062 C 44.769531 20.929688 44.289062 21.253906 43.773438 21.253906 Z M 43.773438 21.253906 "/>
<path style=" stroke:none;fill-rule:nonzero;fill:rgb(0%,0%,0%);fill-opacity:1;" d="M 52.523438 21.253906 C 52.007812 21.253906 51.523438 20.929688 51.34375 20.414062 L 46.96875 7.910156 C 46.742188 7.261719 47.085938 6.546875 47.734375 6.320312 C 48.390625 6.09375 49.101562 6.433594 49.328125 7.085938 L 53.703125 19.589844 C 53.929688 20.242188 53.585938 20.957031 52.9375 21.183594 C 52.796875 21.230469 52.660156 21.253906 52.523438 21.253906 Z M 52.523438 21.253906 "/>
<path style=" stroke:none;fill-rule:nonzero;fill:rgb(0%,0%,0%);fill-opacity:1;" d="M 52.523438 21.894531 C 51.832031 21.894531 51.273438 21.335938 51.273438 20.644531 L 51.273438 20.003906 C 51.273438 19.3125 51.832031 18.753906 52.523438 18.753906 C 53.214844 18.753906 53.773438 19.3125 53.773438 20.003906 L 53.773438 20.644531 C 53.773438 21.335938 53.214844 21.894531 52.523438 21.894531 Z M 52.523438 21.894531 "/>
<path style=" stroke:none;fill-rule:nonzero;fill:rgb(0%,0%,0%);fill-opacity:1;" d="M 43.773438 21.894531 C 43.082031 21.894531 42.523438 21.335938 42.523438 20.644531 L 42.523438 20.003906 C 42.523438 19.3125 43.082031 18.753906 43.773438 18.753906 C 44.464844 18.753906 45.023438 19.3125 45.023438 20.003906 L 45.023438 20.644531 C 45.023438 21.335938 44.460938 21.894531 43.773438 21.894531 Z M 43.773438 21.894531 "/>
</g>
</svg>
