<?xml version="1.0" encoding="UTF-8"?>
<svg xmlns="http://www.w3.org/2000/svg" xmlns:xlink="http://www.w3.org/1999/xlink" width="80pt" height="80pt" viewBox="0 0 80 80" version="1.1">
<g id="surface1">
<path style=" stroke:none;fill-rule:nonzero;fill:rgb(0%,0%,0%);fill-opacity:1;" d="M 70 78.75 C 69.308594 78.75 68.75 78.191406 68.75 77.5 L 68.75 73.75 C 68.75 73.058594 69.308594 72.5 70 72.5 C 70.691406 72.5 71.25 73.058594 71.25 73.75 L 71.25 77.5 C 71.25 78.191406 70.691406 78.75 70 78.75 Z M 70 78.75 "/>
<path style=" stroke:none;fill-rule:nonzero;fill:rgb(0%,0%,0%);fill-opacity:1;" d="M 10 78.75 C 9.308594 78.75 8.75 78.191406 8.75 77.5 L 8.75 73.75 C 8.75 73.058594 9.308594 72.5 10 72.5 C 10.691406 72.5 11.25 73.058594 11.25 73.75 L 11.25 77.5 C 11.25 78.191406 10.691406 78.75 10 78.75 Z M 10 78.75 "/>
<path style=" stroke:none;fill-rule:nonzero;fill:rgb(0%,0%,0%);fill-opacity:1;" d="M 67.5 72.5 L 12.5 72.5 C 11.808594 72.5 11.25 71.941406 11.25 71.25 C 11.25 70.558594 11.808594 70 12.5 70 L 67.5 70 C 68.191406 70 68.75 70.558594 68.75 71.25 C 68.75 71.941406 68.191406 72.5 67.5 72.5 Z M 67.5 72.5 "/>
<path style=" stroke:none;fill-rule:nonzero;fill:rgb(0%,0%,0%);fill-opacity:1;" d="M 70 75 C 67.933594 75 66.25 73.316406 66.25 71.25 C 66.25 70.558594 66.808594 70 67.5 70 C 68.191406 70 68.75 70.558594 68.75 71.25 C 68.75 71.941406 69.308594 72.5 70 72.5 C 70.691406 72.5 71.25 73.058594 71.25 73.75 C 71.25 74.441406 70.691406 75 70 75 Z M 70 75 "/>
<path style=" stroke:none;fill-rule:nonzero;fill:rgb(0%,0%,0%);fill-opacity:1;" d="M 10 75 C 9.308594 75 8.75 74.441406 8.75 73.75 C 8.75 73.058594 9.308594 72.5 10 72.5 C 10.691406 72.5 11.25 71.941406 11.25 71.25 C 11.25 70.558594 11.808594 70 12.5 70 C 13.191406 70 13.75 70.558594 13.75 71.25 C 13.75 73.316406 12.066406 75 10 75 Z M 10 75 "/>
<path style=" stroke:none;fill-rule:nonzero;fill:rgb(0%,0%,0%);fill-opacity:1;" d="M 76.25 78.75 C 75.558594 78.75 75 78.191406 75 77.5 L 75 65 C 75 64.308594 75.558594 63.75 76.25 63.75 C 76.941406 63.75 77.5 64.308594 77.5 65 L 77.5 77.5 C 77.5 78.191406 76.941406 78.75 76.25 78.75 Z M 76.25 78.75 "/>
<path style=" stroke:none;fill-rule:nonzero;fill:rgb(0%,0%,0%);fill-opacity:1;" d="M 3.75 78.75 C 3.058594 78.75 2.5 78.191406 2.5 77.5 L 2.5 65 C 2.5 64.308594 3.058594 63.75 3.75 63.75 C 4.441406 63.75 5 64.308594 5 65 L 5 77.5 C 5 78.191406 4.441406 78.75 3.75 78.75 Z M 3.75 78.75 "/>
<path style=" stroke:none;fill-rule:nonzero;fill:rgb(0%,0%,0%);fill-opacity:1;" d="M 78.75 66.25 L 1.25 66.25 C 0.558594 66.25 0 65.691406 0 65 L 0 60 C 0 59.308594 0.558594 58.75 1.25 58.75 L 78.75 58.75 C 79.441406 58.75 80 59.308594 80 60 L 80 65 C 80 65.691406 79.441406 66.25 78.75 66.25 Z M 2.5 63.75 L 77.5 63.75 L 77.5 61.25 L 2.5 61.25 Z M 2.5 63.75 "/>
<path style=" stroke:none;fill-rule:nonzero;fill:rgb(0%,0%,0%);fill-opacity:1;" d="M 6.25 61.25 C 5.558594 61.25 5 60.691406 5 60 L 5 56.25 C 5 55.558594 5.558594 55 6.25 55 C 6.941406 55 7.5 55.558594 7.5 56.25 L 7.5 60 C 7.5 60.691406 6.941406 61.25 6.25 61.25 Z M 6.25 61.25 "/>
<path style=" stroke:none;fill-rule:nonzero;fill:rgb(0%,0%,0%);fill-opacity:1;" d="M 28.75 61.25 C 28.058594 61.25 27.5 60.691406 27.5 60 L 27.5 56.25 C 27.5 55.558594 28.058594 55 28.75 55 C 29.441406 55 30 55.558594 30 56.25 L 30 60 C 30 60.691406 29.441406 61.25 28.75 61.25 Z M 28.75 61.25 "/>
<path style=" stroke:none;fill-rule:nonzero;fill:rgb(0%,0%,0%);fill-opacity:1;" d="M 28.75 57.5 L 6.25 57.5 C 5.558594 57.5 5 56.941406 5 56.25 C 5 55.558594 5.558594 55 6.25 55 L 28.75 55 C 29.441406 55 30 55.558594 30 56.25 C 30 56.941406 29.441406 57.5 28.75 57.5 Z M 28.75 57.5 "/>
<path style=" stroke:none;fill-rule:nonzero;fill:rgb(0%,0%,0%);fill-opacity:1;" d="M 6.25 57.5 C 5.558594 57.5 5 56.941406 5 56.25 L 5 52.5 C 5 51.808594 5.558594 51.25 6.25 51.25 C 6.941406 51.25 7.5 51.808594 7.5 52.5 L 7.5 56.25 C 7.5 56.941406 6.941406 57.5 6.25 57.5 Z M 6.25 57.5 "/>
<path style=" stroke:none;fill-rule:nonzero;fill:rgb(0%,0%,0%);fill-opacity:1;" d="M 28.75 57.5 C 28.058594 57.5 27.5 56.941406 27.5 56.25 L 27.5 52.5 C 27.5 51.808594 28.058594 51.25 28.75 51.25 C 29.441406 51.25 30 51.808594 30 52.5 L 30 56.25 C 30 56.941406 29.441406 57.5 28.75 57.5 Z M 28.75 57.5 "/>
<path style=" stroke:none;fill-rule:nonzero;fill:rgb(0%,0%,0%);fill-opacity:1;" d="M 28.75 53.75 L 6.25 53.75 C 5.558594 53.75 5 53.191406 5 52.5 C 5 51.808594 5.558594 51.25 6.25 51.25 L 28.75 51.25 C 29.441406 51.25 30 51.808594 30 52.5 C 30 53.191406 29.441406 53.75 28.75 53.75 Z M 28.75 53.75 "/>
<path style=" stroke:none;fill-rule:nonzero;fill:rgb(0%,0%,0%);fill-opacity:1;" d="M 6.25 53.75 C 5.558594 53.75 5 53.191406 5 52.5 L 5 48.75 C 5 48.058594 5.558594 47.5 6.25 47.5 C 6.941406 47.5 7.5 48.058594 7.5 48.75 L 7.5 52.5 C 7.5 53.191406 6.941406 53.75 6.25 53.75 Z M 6.25 53.75 "/>
<path style=" stroke:none;fill-rule:nonzero;fill:rgb(0%,0%,0%);fill-opacity:1;" d="M 28.75 53.75 C 28.058594 53.75 27.5 53.191406 27.5 52.5 L 27.5 48.75 C 27.5 48.058594 28.058594 47.5 28.75 47.5 C 29.441406 47.5 30 48.058594 30 48.75 L 30 52.5 C 30 53.191406 29.441406 53.75 28.75 53.75 Z M 28.75 53.75 "/>
<path style=" stroke:none;fill-rule:nonzero;fill:rgb(0%,0%,0%);fill-opacity:1;" d="M 28.75 50 L 6.25 50 C 5.558594 50 5 49.441406 5 48.75 C 5 48.058594 5.558594 47.5 6.25 47.5 L 28.75 47.5 C 29.441406 47.5 30 48.058594 30 48.75 C 30 49.441406 29.441406 50 28.75 50 Z M 28.75 50 "/>
<path style=" stroke:none;fill-rule:nonzero;fill:rgb(0%,0%,0%);fill-opacity:1;" d="M 17.5 50 C 16.808594 50 16.25 49.441406 16.25 48.75 L 16.25 45 C 16.25 44.308594 16.808594 43.75 17.5 43.75 C 18.191406 43.75 18.75 44.308594 18.75 45 L 18.75 48.75 C 18.75 49.441406 18.191406 50 17.5 50 Z M 17.5 50 "/>
<path style=" stroke:none;fill-rule:nonzero;fill:rgb(0%,0%,0%);fill-opacity:1;" d="M 40 50 C 39.308594 50 38.75 49.441406 38.75 48.75 L 38.75 45 C 38.75 44.308594 39.308594 43.75 40 43.75 C 40.691406 43.75 41.25 44.308594 41.25 45 L 41.25 48.75 C 41.25 49.441406 40.691406 50 40 50 Z M 40 50 "/>
<path style=" stroke:none;fill-rule:nonzero;fill:rgb(0%,0%,0%);fill-opacity:1;" d="M 40 46.25 L 17.5 46.25 C 16.808594 46.25 16.25 45.691406 16.25 45 C 16.25 44.308594 16.808594 43.75 17.5 43.75 L 40 43.75 C 40.691406 43.75 41.25 44.308594 41.25 45 C 41.25 45.691406 40.691406 46.25 40 46.25 Z M 40 46.25 "/>
<path style=" stroke:none;fill-rule:nonzero;fill:rgb(0%,0%,0%);fill-opacity:1;" d="M 17.5 46.25 C 16.808594 46.25 16.25 45.691406 16.25 45 L 16.25 41.25 C 16.25 40.558594 16.808594 40 17.5 40 C 18.191406 40 18.75 40.558594 18.75 41.25 L 18.75 45 C 18.75 45.691406 18.191406 46.25 17.5 46.25 Z M 17.5 46.25 "/>
<path style=" stroke:none;fill-rule:nonzero;fill:rgb(0%,0%,0%);fill-opacity:1;" d="M 40 46.25 C 39.308594 46.25 38.75 45.691406 38.75 45 L 38.75 41.25 C 38.75 40.558594 39.308594 40 40 40 C 40.691406 40 41.25 40.558594 41.25 41.25 L 41.25 45 C 41.25 45.691406 40.691406 46.25 40 46.25 Z M 40 46.25 "/>
<path style=" stroke:none;fill-rule:nonzero;fill:rgb(0%,0%,0%);fill-opacity:1;" d="M 40 42.5 L 17.5 42.5 C 16.808594 42.5 16.25 41.941406 16.25 41.25 C 16.25 40.558594 16.808594 40 17.5 40 L 40 40 C 40.691406 40 41.25 40.558594 41.25 41.25 C 41.25 41.941406 40.691406 42.5 40 42.5 Z M 40 42.5 "/>
<path style=" stroke:none;fill-rule:nonzero;fill:rgb(0%,0%,0%);fill-opacity:1;" d="M 17.5 42.5 C 16.808594 42.5 16.25 41.941406 16.25 41.25 L 16.25 37.5 C 16.25 36.808594 16.808594 36.25 17.5 36.25 C 18.191406 36.25 18.75 36.808594 18.75 37.5 L 18.75 41.25 C 18.75 41.941406 18.191406 42.5 17.5 42.5 Z M 17.5 42.5 "/>
<path style=" stroke:none;fill-rule:nonzero;fill:rgb(0%,0%,0%);fill-opacity:1;" d="M 40 42.5 C 39.308594 42.5 38.75 41.941406 38.75 41.25 L 38.75 37.5 C 38.75 36.808594 39.308594 36.25 40 36.25 C 40.691406 36.25 41.25 36.808594 41.25 37.5 L 41.25 41.25 C 41.25 41.941406 40.691406 42.5 40 42.5 Z M 40 42.5 "/>
<path style=" stroke:none;fill-rule:nonzero;fill:rgb(0%,0%,0%);fill-opacity:1;" d="M 40 38.75 L 17.5 38.75 C 16.808594 38.75 16.25 38.191406 16.25 37.5 C 16.25 36.808594 16.808594 36.25 17.5 36.25 L 40 36.25 C 40.691406 36.25 41.25 36.808594 41.25 37.5 C 41.25 38.191406 40.691406 38.75 40 38.75 Z M 40 38.75 "/>
<path style=" stroke:none;fill-rule:nonzero;fill:rgb(0%,0%,0%);fill-opacity:1;" d="M 40 50 C 39.308594 50 38.75 49.441406 38.75 48.75 L 38.75 45 C 38.75 44.308594 39.308594 43.75 40 43.75 C 40.691406 43.75 41.25 44.308594 41.25 45 L 41.25 48.75 C 41.25 49.441406 40.691406 50 40 50 Z M 40 50 "/>
<path style=" stroke:none;fill-rule:nonzero;fill:rgb(0%,0%,0%);fill-opacity:1;" d="M 62.5 50 C 61.808594 50 61.25 49.441406 61.25 48.75 L 61.25 45 C 61.25 44.308594 61.808594 43.75 62.5 43.75 C 63.191406 43.75 63.75 44.308594 63.75 45 L 63.75 48.75 C 63.75 49.441406 63.191406 50 62.5 50 Z M 62.5 50 "/>
<path style=" stroke:none;fill-rule:nonzero;fill:rgb(0%,0%,0%);fill-opacity:1;" d="M 62.5 46.25 L 40 46.25 C 39.308594 46.25 38.75 45.691406 38.75 45 C 38.75 44.308594 39.308594 43.75 40 43.75 L 62.5 43.75 C 63.191406 43.75 63.75 44.308594 63.75 45 C 63.75 45.691406 63.191406 46.25 62.5 46.25 Z M 62.5 46.25 "/>
<path style=" stroke:none;fill-rule:nonzero;fill:rgb(0%,0%,0%);fill-opacity:1;" d="M 40 46.25 C 39.308594 46.25 38.75 45.691406 38.75 45 L 38.75 41.25 C 38.75 40.558594 39.308594 40 40 40 C 40.691406 40 41.25 40.558594 41.25 41.25 L 41.25 45 C 41.25 45.691406 40.691406 46.25 40 46.25 Z M 40 46.25 "/>
<path style=" stroke:none;fill-rule:nonzero;fill:rgb(0%,0%,0%);fill-opacity:1;" d="M 62.5 46.25 C 61.808594 46.25 61.25 45.691406 61.25 45 L 61.25 41.25 C 61.25 40.558594 61.808594 40 62.5 40 C 63.191406 40 63.75 40.558594 63.75 41.25 L 63.75 45 C 63.75 45.691406 63.191406 46.25 62.5 46.25 Z M 62.5 46.25 "/>
<path style=" stroke:none;fill-rule:nonzero;fill:rgb(0%,0%,0%);fill-opacity:1;" d="M 62.5 42.5 L 40 42.5 C 39.308594 42.5 38.75 41.941406 38.75 41.25 C 38.75 40.558594 39.308594 40 40 40 L 62.5 40 C 63.191406 40 63.75 40.558594 63.75 41.25 C 63.75 41.941406 63.191406 42.5 62.5 42.5 Z M 62.5 42.5 "/>
<path style=" stroke:none;fill-rule:nonzero;fill:rgb(0%,0%,0%);fill-opacity:1;" d="M 40 42.5 C 39.308594 42.5 38.75 41.941406 38.75 41.25 L 38.75 37.5 C 38.75 36.808594 39.308594 36.25 40 36.25 C 40.691406 36.25 41.25 36.808594 41.25 37.5 L 41.25 41.25 C 41.25 41.941406 40.691406 42.5 40 42.5 Z M 40 42.5 "/>
<path style=" stroke:none;fill-rule:nonzero;fill:rgb(0%,0%,0%);fill-opacity:1;" d="M 62.5 42.5 C 61.808594 42.5 61.25 41.941406 61.25 41.25 L 61.25 37.5 C 61.25 36.808594 61.808594 36.25 62.5 36.25 C 63.191406 36.25 63.75 36.808594 63.75 37.5 L 63.75 41.25 C 63.75 41.941406 63.191406 42.5 62.5 42.5 Z M 62.5 42.5 "/>
<path style=" stroke:none;fill-rule:nonzero;fill:rgb(0%,0%,0%);fill-opacity:1;" d="M 62.5 38.75 L 40 38.75 C 39.308594 38.75 38.75 38.191406 38.75 37.5 C 38.75 36.808594 39.308594 36.25 40 36.25 L 62.5 36.25 C 63.191406 36.25 63.75 36.808594 63.75 37.5 C 63.75 38.191406 63.191406 38.75 62.5 38.75 Z M 62.5 38.75 "/>
<path style=" stroke:none;fill-rule:nonzero;fill:rgb(0%,0%,0%);fill-opacity:1;" d="M 28.75 61.25 C 28.058594 61.25 27.5 60.691406 27.5 60 L 27.5 56.25 C 27.5 55.558594 28.058594 55 28.75 55 C 29.441406 55 30 55.558594 30 56.25 L 30 60 C 30 60.691406 29.441406 61.25 28.75 61.25 Z M 28.75 61.25 "/>
<path style=" stroke:none;fill-rule:nonzero;fill:rgb(0%,0%,0%);fill-opacity:1;" d="M 51.25 61.25 C 50.558594 61.25 50 60.691406 50 60 L 50 56.25 C 50 55.558594 50.558594 55 51.25 55 C 51.941406 55 52.5 55.558594 52.5 56.25 L 52.5 60 C 52.5 60.691406 51.941406 61.25 51.25 61.25 Z M 51.25 61.25 "/>
<path style=" stroke:none;fill-rule:nonzero;fill:rgb(0%,0%,0%);fill-opacity:1;" d="M 51.25 57.5 L 28.75 57.5 C 28.058594 57.5 27.5 56.941406 27.5 56.25 C 27.5 55.558594 28.058594 55 28.75 55 L 51.25 55 C 51.941406 55 52.5 55.558594 52.5 56.25 C 52.5 56.941406 51.941406 57.5 51.25 57.5 Z M 51.25 57.5 "/>
<path style=" stroke:none;fill-rule:nonzero;fill:rgb(0%,0%,0%);fill-opacity:1;" d="M 28.75 57.5 C 28.058594 57.5 27.5 56.941406 27.5 56.25 L 27.5 52.5 C 27.5 51.808594 28.058594 51.25 28.75 51.25 C 29.441406 51.25 30 51.808594 30 52.5 L 30 56.25 C 30 56.941406 29.441406 57.5 28.75 57.5 Z M 28.75 57.5 "/>
<path style=" stroke:none;fill-rule:nonzero;fill:rgb(0%,0%,0%);fill-opacity:1;" d="M 51.25 57.5 C 50.558594 57.5 50 56.941406 50 56.25 L 50 52.5 C 50 51.808594 50.558594 51.25 51.25 51.25 C 51.941406 51.25 52.5 51.808594 52.5 52.5 L 52.5 56.25 C 52.5 56.941406 51.941406 57.5 51.25 57.5 Z M 51.25 57.5 "/>
<path style=" stroke:none;fill-rule:nonzero;fill:rgb(0%,0%,0%);fill-opacity:1;" d="M 51.25 53.75 L 28.75 53.75 C 28.058594 53.75 27.5 53.191406 27.5 52.5 C 27.5 51.808594 28.058594 51.25 28.75 51.25 L 51.25 51.25 C 51.941406 51.25 52.5 51.808594 52.5 52.5 C 52.5 53.191406 51.941406 53.75 51.25 53.75 Z M 51.25 53.75 "/>
<path style=" stroke:none;fill-rule:nonzero;fill:rgb(0%,0%,0%);fill-opacity:1;" d="M 28.75 53.75 C 28.058594 53.75 27.5 53.191406 27.5 52.5 L 27.5 48.75 C 27.5 48.058594 28.058594 47.5 28.75 47.5 C 29.441406 47.5 30 48.058594 30 48.75 L 30 52.5 C 30 53.191406 29.441406 53.75 28.75 53.75 Z M 28.75 53.75 "/>
<path style=" stroke:none;fill-rule:nonzero;fill:rgb(0%,0%,0%);fill-opacity:1;" d="M 51.25 53.75 C 50.558594 53.75 50 53.191406 50 52.5 L 50 48.75 C 50 48.058594 50.558594 47.5 51.25 47.5 C 51.941406 47.5 52.5 48.058594 52.5 48.75 L 52.5 52.5 C 52.5 53.191406 51.941406 53.75 51.25 53.75 Z M 51.25 53.75 "/>
<path style=" stroke:none;fill-rule:nonzero;fill:rgb(0%,0%,0%);fill-opacity:1;" d="M 51.25 50 L 28.75 50 C 28.058594 50 27.5 49.441406 27.5 48.75 C 27.5 48.058594 28.058594 47.5 28.75 47.5 L 51.25 47.5 C 51.941406 47.5 52.5 48.058594 52.5 48.75 C 52.5 49.441406 51.941406 50 51.25 50 Z M 51.25 50 "/>
<path style=" stroke:none;fill-rule:nonzero;fill:rgb(0%,0%,0%);fill-opacity:1;" d="M 51.25 61.25 C 50.558594 61.25 50 60.691406 50 60 L 50 56.25 C 50 55.558594 50.558594 55 51.25 55 C 51.941406 55 52.5 55.558594 52.5 56.25 L 52.5 60 C 52.5 60.691406 51.941406 61.25 51.25 61.25 Z M 51.25 61.25 "/>
<path style=" stroke:none;fill-rule:nonzero;fill:rgb(0%,0%,0%);fill-opacity:1;" d="M 73.75 61.25 C 73.058594 61.25 72.5 60.691406 72.5 60 L 72.5 56.25 C 72.5 55.558594 73.058594 55 73.75 55 C 74.441406 55 75 55.558594 75 56.25 L 75 60 C 75 60.691406 74.441406 61.25 73.75 61.25 Z M 73.75 61.25 "/>
<path style=" stroke:none;fill-rule:nonzero;fill:rgb(0%,0%,0%);fill-opacity:1;" d="M 73.75 57.5 L 51.25 57.5 C 50.558594 57.5 50 56.941406 50 56.25 C 50 55.558594 50.558594 55 51.25 55 L 73.75 55 C 74.441406 55 75 55.558594 75 56.25 C 75 56.941406 74.441406 57.5 73.75 57.5 Z M 73.75 57.5 "/>
<path style=" stroke:none;fill-rule:nonzero;fill:rgb(0%,0%,0%);fill-opacity:1;" d="M 51.25 57.5 C 50.558594 57.5 50 56.941406 50 56.25 L 50 52.5 C 50 51.808594 50.558594 51.25 51.25 51.25 C 51.941406 51.25 52.5 51.808594 52.5 52.5 L 52.5 56.25 C 52.5 56.941406 51.941406 57.5 51.25 57.5 Z M 51.25 57.5 "/>
<path style=" stroke:none;fill-rule:nonzero;fill:rgb(0%,0%,0%);fill-opacity:1;" d="M 73.75 57.5 C 73.058594 57.5 72.5 56.941406 72.5 56.25 L 72.5 52.5 C 72.5 51.808594 73.058594 51.25 73.75 51.25 C 74.441406 51.25 75 51.808594 75 52.5 L 75 56.25 C 75 56.941406 74.441406 57.5 73.75 57.5 Z M 73.75 57.5 "/>
<path style=" stroke:none;fill-rule:nonzero;fill:rgb(0%,0%,0%);fill-opacity:1;" d="M 73.75 53.75 L 51.25 53.75 C 50.558594 53.75 50 53.191406 50 52.5 C 50 51.808594 50.558594 51.25 51.25 51.25 L 73.75 51.25 C 74.441406 51.25 75 51.808594 75 52.5 C 75 53.191406 74.441406 53.75 73.75 53.75 Z M 73.75 53.75 "/>
<path style=" stroke:none;fill-rule:nonzero;fill:rgb(0%,0%,0%);fill-opacity:1;" d="M 51.25 53.75 C 50.558594 53.75 50 53.191406 50 52.5 L 50 48.75 C 50 48.058594 50.558594 47.5 51.25 47.5 C 51.941406 47.5 52.5 48.058594 52.5 48.75 L 52.5 52.5 C 52.5 53.191406 51.941406 53.75 51.25 53.75 Z M 51.25 53.75 "/>
<path style=" stroke:none;fill-rule:nonzero;fill:rgb(0%,0%,0%);fill-opacity:1;" d="M 73.75 53.75 C 73.058594 53.75 72.5 53.191406 72.5 52.5 L 72.5 48.75 C 72.5 48.058594 73.058594 47.5 73.75 47.5 C 74.441406 47.5 75 48.058594 75 48.75 L 75 52.5 C 75 53.191406 74.441406 53.75 73.75 53.75 Z M 73.75 53.75 "/>
<path style=" stroke:none;fill-rule:nonzero;fill:rgb(0%,0%,0%);fill-opacity:1;" d="M 73.75 50 L 51.25 50 C 50.558594 50 50 49.441406 50 48.75 C 50 48.058594 50.558594 47.5 51.25 47.5 L 73.75 47.5 C 74.441406 47.5 75 48.058594 75 48.75 C 75 49.441406 74.441406 50 73.75 50 Z M 73.75 50 "/>
<path style=" stroke:none;fill-rule:nonzero;fill:rgb(0%,0%,0%);fill-opacity:1;" d="M 51.25 33.75 L 28.75 33.75 C 28.058594 33.75 27.5 33.191406 27.5 32.5 L 27.5 2.5 C 27.5 1.808594 28.058594 1.25 28.75 1.25 L 45 1.25 C 45.332031 1.25 45.648438 1.382812 45.882812 1.617188 L 52.132812 7.863281 C 52.367188 8.097656 52.5 8.414062 52.5 8.746094 L 52.5 32.5 C 52.5 33.191406 51.941406 33.75 51.25 33.75 Z M 30 31.25 L 50 31.25 L 50 9.265625 L 44.484375 3.75 L 30 3.75 Z M 30 31.25 "/>
<path style=" stroke:none;fill-rule:nonzero;fill:rgb(0%,0%,0%);fill-opacity:1;" d="M 51.25 9.996094 L 45 9.996094 C 44.308594 9.996094 43.75 9.4375 43.75 8.746094 C 43.75 8.054688 44.308594 7.496094 45 7.496094 L 51.25 7.496094 C 51.941406 7.496094 52.5 8.054688 52.5 8.746094 C 52.5 9.4375 51.941406 9.996094 51.25 9.996094 Z M 51.25 9.996094 "/>
<path style=" stroke:none;fill-rule:nonzero;fill:rgb(0%,0%,0%);fill-opacity:1;" d="M 45 9.996094 C 44.308594 9.996094 43.75 9.4375 43.75 8.746094 L 43.75 2.5 C 43.75 1.808594 44.308594 1.25 45 1.25 C 45.691406 1.25 46.25 1.808594 46.25 2.5 L 46.25 8.746094 C 46.25 9.4375 45.691406 9.996094 45 9.996094 Z M 45 9.996094 "/>
<path style=" stroke:none;fill-rule:nonzero;fill:rgb(0%,0%,0%);fill-opacity:1;" d="M 45.019531 26.25 L 35.019531 26.25 C 34.328125 26.25 33.769531 25.691406 33.769531 25 C 33.769531 24.308594 34.328125 23.75 35.019531 23.75 L 45.019531 23.75 C 45.710938 23.75 46.269531 24.308594 46.269531 25 C 46.269531 25.691406 45.707031 26.25 45.019531 26.25 Z M 45.019531 26.25 "/>
<path style=" stroke:none;fill-rule:nonzero;fill:rgb(0%,0%,0%);fill-opacity:1;" d="M 40.019531 26.25 C 39.328125 26.25 38.769531 25.691406 38.769531 25 L 38.769531 13.75 C 38.769531 13.058594 39.328125 12.5 40.019531 12.5 C 40.710938 12.5 41.269531 13.058594 41.269531 13.75 L 41.269531 25 C 41.269531 25.691406 40.707031 26.25 40.019531 26.25 Z M 40.019531 26.25 "/>
<path style=" stroke:none;fill-rule:nonzero;fill:rgb(0%,0%,0%);fill-opacity:1;" d="M 45.019531 16.25 L 35.019531 16.25 C 34.328125 16.25 33.769531 15.691406 33.769531 15 C 33.769531 14.308594 34.328125 13.75 35.019531 13.75 L 45.019531 13.75 C 45.710938 13.75 46.269531 14.308594 46.269531 15 C 46.269531 15.691406 45.707031 16.25 45.019531 16.25 Z M 45.019531 16.25 "/>
<path style=" stroke:none;fill-rule:nonzero;fill:rgb(0%,0%,0%);fill-opacity:1;" d="M 46.269531 20 L 43.769531 20 C 43.078125 20 42.519531 19.441406 42.519531 18.75 C 42.519531 18.058594 43.078125 17.5 43.769531 17.5 L 46.269531 17.5 C 46.960938 17.5 47.519531 18.058594 47.519531 18.75 C 47.519531 19.441406 46.957031 20 46.269531 20 Z M 46.269531 20 "/>
<path style=" stroke:none;fill-rule:nonzero;fill:rgb(0%,0%,0%);fill-opacity:1;" d="M 36.269531 20 L 33.769531 20 C 33.078125 20 32.519531 19.441406 32.519531 18.75 C 32.519531 18.058594 33.078125 17.5 33.769531 17.5 L 36.269531 17.5 C 36.960938 17.5 37.519531 18.058594 37.519531 18.75 C 37.519531 19.441406 36.957031 20 36.269531 20 Z M 36.269531 20 "/>
</g>
</svg>
