<?xml version="1.0" encoding="UTF-8"?>
<svg xmlns="http://www.w3.org/2000/svg" xmlns:xlink="http://www.w3.org/1999/xlink" width="80pt" height="80pt" viewBox="0 0 80 80" version="1.1">
<g id="surface1">
<path style=" stroke:none;fill-rule:nonzero;fill:rgb(0%,0%,0%);fill-opacity:1;" d="M 12.480469 69.972656 C 11.789062 69.972656 11.230469 69.414062 11.230469 68.722656 C 11.230469 62.519531 16.277344 57.476562 22.480469 57.476562 C 23.171875 57.476562 23.730469 58.035156 23.730469 58.722656 C 23.730469 59.414062 23.171875 59.972656 22.480469 59.972656 C 17.65625 59.972656 13.730469 63.898438 13.730469 68.722656 C 13.730469 69.414062 13.171875 69.972656 12.480469 69.972656 Z M 12.480469 69.972656 "/>
<path style=" stroke:none;fill-rule:nonzero;fill:rgb(0%,0%,0%);fill-opacity:1;" d="M 67.464844 69.972656 C 66.773438 69.972656 66.214844 69.414062 66.214844 68.722656 C 66.214844 63.902344 62.289062 59.976562 57.46875 59.976562 C 56.777344 59.976562 56.21875 59.417969 56.21875 58.726562 C 56.21875 58.035156 56.777344 57.476562 57.46875 57.476562 C 63.667969 57.476562 68.714844 62.523438 68.714844 68.722656 C 68.714844 69.414062 68.15625 69.972656 67.464844 69.972656 Z M 67.464844 69.972656 "/>
<path style=" stroke:none;fill-rule:nonzero;fill:rgb(0%,0%,0%);fill-opacity:1;" d="M 28.726562 59.972656 L 22.480469 59.972656 C 21.789062 59.972656 21.230469 59.414062 21.230469 58.722656 C 21.230469 58.035156 21.789062 57.476562 22.480469 57.476562 L 28.726562 57.476562 C 29.417969 57.476562 29.976562 58.035156 29.976562 58.722656 C 29.976562 59.414062 29.417969 59.972656 28.726562 59.972656 Z M 28.726562 59.972656 "/>
<path style=" stroke:none;fill-rule:nonzero;fill:rgb(0%,0%,0%);fill-opacity:1;" d="M 12.480469 78.71875 C 11.789062 78.71875 11.230469 78.160156 11.230469 77.46875 L 11.230469 68.722656 C 11.230469 68.035156 11.789062 67.476562 12.480469 67.476562 C 13.167969 67.476562 13.730469 68.03125 13.730469 68.722656 L 13.730469 77.46875 C 13.730469 78.160156 13.171875 78.71875 12.480469 78.71875 Z M 12.480469 78.71875 "/>
<path style=" stroke:none;fill-rule:nonzero;fill:rgb(0%,0%,0%);fill-opacity:1;" d="M 13.730469 79.96875 C 12.351562 79.96875 11.230469 78.847656 11.230469 77.46875 C 11.230469 76.777344 11.789062 76.21875 12.480469 76.21875 C 13.171875 76.21875 13.730469 76.777344 13.730469 77.46875 L 13.730469 77.472656 C 14.421875 77.472656 14.980469 78.027344 14.980469 78.71875 C 14.980469 79.410156 14.421875 79.96875 13.730469 79.96875 Z M 13.730469 79.96875 "/>
<path style=" stroke:none;fill-rule:nonzero;fill:rgb(0%,0%,0%);fill-opacity:1;" d="M 66.214844 79.96875 C 65.523438 79.96875 64.964844 79.410156 64.964844 78.71875 C 64.964844 78.027344 65.523438 77.46875 66.214844 77.46875 L 66.21875 77.46875 C 66.21875 76.777344 66.773438 76.21875 67.464844 76.21875 C 68.15625 76.21875 68.714844 76.777344 68.714844 77.46875 C 68.714844 78.847656 67.59375 79.96875 66.214844 79.96875 Z M 66.214844 79.96875 "/>
<path style=" stroke:none;fill-rule:nonzero;fill:rgb(0%,0%,0%);fill-opacity:1;" d="M 67.464844 78.71875 C 66.773438 78.71875 66.214844 78.160156 66.214844 77.46875 L 66.214844 68.722656 C 66.214844 68.03125 66.773438 67.476562 67.464844 67.476562 C 68.15625 67.476562 68.714844 68.03125 68.714844 68.722656 L 68.714844 77.46875 C 68.714844 78.160156 68.15625 78.71875 67.464844 78.71875 Z M 67.464844 78.71875 "/>
<path style=" stroke:none;fill-rule:nonzero;fill:rgb(0%,0%,0%);fill-opacity:1;" d="M 66.214844 79.96875 L 13.730469 79.96875 C 13.039062 79.96875 12.480469 79.410156 12.480469 78.71875 C 12.480469 78.027344 13.039062 77.46875 13.730469 77.46875 L 66.214844 77.46875 C 66.90625 77.46875 67.464844 78.027344 67.464844 78.71875 C 67.464844 79.410156 66.90625 79.96875 66.214844 79.96875 Z M 66.214844 79.96875 "/>
<path style=" stroke:none;fill-rule:nonzero;fill:rgb(0%,0%,0%);fill-opacity:1;" d="M 31.222656 57.476562 C 30.53125 57.476562 29.976562 56.914062 29.976562 56.226562 L 29.976562 52.496094 C 29.976562 51.804688 30.53125 51.246094 31.222656 51.246094 C 31.914062 51.246094 32.472656 51.804688 32.472656 52.496094 L 32.472656 56.226562 C 32.472656 56.914062 31.914062 57.476562 31.222656 57.476562 Z M 31.222656 57.476562 "/>
<path style=" stroke:none;fill-rule:nonzero;fill:rgb(0%,0%,0%);fill-opacity:1;" d="M 48.71875 57.476562 C 48.027344 57.476562 47.46875 56.914062 47.46875 56.226562 L 47.46875 52.496094 C 47.46875 51.804688 48.027344 51.246094 48.71875 51.246094 C 49.410156 51.246094 49.96875 51.804688 49.96875 52.496094 L 49.96875 56.226562 C 49.96875 56.914062 49.410156 57.476562 48.71875 57.476562 Z M 48.71875 57.476562 "/>
<path style=" stroke:none;fill-rule:nonzero;fill:rgb(0%,0%,0%);fill-opacity:1;" d="M 33.171875 62.476562 C 32.730469 62.476562 32.304688 62.242188 32.074219 61.828125 C 31.742188 61.226562 31.960938 60.464844 32.566406 60.132812 L 39.367188 56.378906 C 39.972656 56.046875 40.734375 56.265625 41.066406 56.871094 C 41.402344 57.476562 41.179688 58.238281 40.574219 58.570312 L 33.773438 62.320312 C 33.582031 62.425781 33.375 62.476562 33.171875 62.476562 Z M 33.171875 62.476562 "/>
<path style=" stroke:none;fill-rule:nonzero;fill:rgb(0%,0%,0%);fill-opacity:1;" d="M 46.773438 62.476562 C 46.570312 62.476562 46.363281 62.425781 46.171875 62.320312 L 39.371094 58.570312 C 38.765625 58.234375 38.546875 57.476562 38.878906 56.871094 C 39.214844 56.269531 39.972656 56.050781 40.578125 56.378906 L 47.378906 60.132812 C 47.980469 60.464844 48.203125 61.226562 47.871094 61.828125 C 47.640625 62.242188 47.214844 62.476562 46.773438 62.476562 Z M 46.773438 62.476562 "/>
<path style=" stroke:none;fill-rule:nonzero;fill:rgb(0%,0%,0%);fill-opacity:1;" d="M 26.226562 62.476562 C 25.90625 62.476562 25.585938 62.351562 25.34375 62.109375 C 24.851562 61.621094 24.851562 60.832031 25.34375 60.34375 L 30.339844 55.339844 C 30.828125 54.851562 31.621094 54.851562 32.109375 55.339844 C 32.597656 55.828125 32.597656 56.621094 32.109375 57.109375 L 27.109375 62.109375 C 26.867188 62.351562 26.546875 62.476562 26.226562 62.476562 Z M 26.226562 62.476562 "/>
<path style=" stroke:none;fill-rule:nonzero;fill:rgb(0%,0%,0%);fill-opacity:1;" d="M 31.222656 67.472656 C 30.90625 67.472656 30.585938 67.351562 30.339844 67.105469 L 25.34375 62.109375 C 24.851562 61.621094 24.851562 60.832031 25.34375 60.34375 C 25.832031 59.855469 26.621094 59.855469 27.109375 60.34375 L 32.109375 65.339844 C 32.597656 65.828125 32.597656 66.617188 32.109375 67.105469 C 31.863281 67.351562 31.542969 67.472656 31.222656 67.472656 Z M 31.222656 67.472656 "/>
<path style=" stroke:none;fill-rule:nonzero;fill:rgb(0%,0%,0%);fill-opacity:1;" d="M 28.726562 69.972656 C 28.40625 69.972656 28.085938 69.847656 27.839844 69.605469 C 27.351562 69.117188 27.351562 68.328125 27.839844 67.839844 L 30.339844 65.339844 C 30.828125 64.851562 31.621094 64.851562 32.109375 65.339844 C 32.597656 65.828125 32.597656 66.617188 32.109375 67.105469 L 29.609375 69.605469 C 29.363281 69.847656 29.042969 69.972656 28.726562 69.972656 Z M 28.726562 69.972656 "/>
<path style=" stroke:none;fill-rule:nonzero;fill:rgb(0%,0%,0%);fill-opacity:1;" d="M 36.222656 79.96875 C 35.84375 79.96875 35.46875 79.796875 35.222656 79.46875 L 27.726562 69.472656 C 27.308594 68.921875 27.421875 68.136719 27.976562 67.722656 C 28.527344 67.308594 29.308594 67.417969 29.722656 67.972656 L 37.222656 77.96875 C 37.636719 78.523438 37.523438 79.304688 36.972656 79.71875 C 36.746094 79.886719 36.484375 79.96875 36.222656 79.96875 Z M 36.222656 79.96875 "/>
<path style=" stroke:none;fill-rule:nonzero;fill:rgb(0%,0%,0%);fill-opacity:1;" d="M 39.972656 79.96875 C 39.472656 79.96875 39 79.667969 38.808594 79.171875 L 30.058594 56.675781 C 29.808594 56.035156 30.128906 55.308594 30.769531 55.058594 C 31.414062 54.808594 32.140625 55.128906 32.386719 55.769531 L 41.136719 78.265625 C 41.386719 78.910156 41.066406 79.632812 40.425781 79.882812 C 40.277344 79.941406 40.125 79.96875 39.972656 79.96875 Z M 39.972656 79.96875 "/>
<path style=" stroke:none;fill-rule:nonzero;fill:rgb(0%,0%,0%);fill-opacity:1;" d="M 53.71875 62.476562 C 53.398438 62.476562 53.078125 62.351562 52.835938 62.109375 L 47.835938 57.109375 C 47.347656 56.621094 47.347656 55.828125 47.835938 55.339844 C 48.324219 54.851562 49.113281 54.851562 49.601562 55.339844 L 54.601562 60.34375 C 55.089844 60.832031 55.089844 61.621094 54.601562 62.109375 C 54.359375 62.351562 54.039062 62.476562 53.71875 62.476562 Z M 53.71875 62.476562 "/>
<path style=" stroke:none;fill-rule:nonzero;fill:rgb(0%,0%,0%);fill-opacity:1;" d="M 48.71875 67.472656 C 48.398438 67.472656 48.078125 67.351562 47.835938 67.105469 C 47.347656 66.617188 47.347656 65.828125 47.835938 65.339844 L 52.835938 60.34375 C 53.324219 59.855469 54.113281 59.855469 54.601562 60.34375 C 55.089844 60.832031 55.089844 61.621094 54.601562 62.109375 L 49.601562 67.105469 C 49.359375 67.351562 49.039062 67.472656 48.71875 67.472656 Z M 48.71875 67.472656 "/>
<path style=" stroke:none;fill-rule:nonzero;fill:rgb(0%,0%,0%);fill-opacity:1;" d="M 51.21875 69.972656 C 50.898438 69.972656 50.578125 69.847656 50.335938 69.605469 L 47.835938 67.105469 C 47.347656 66.617188 47.347656 65.828125 47.835938 65.339844 C 48.324219 64.851562 49.113281 64.851562 49.601562 65.339844 L 52.101562 67.839844 C 52.589844 68.328125 52.589844 69.117188 52.101562 69.605469 C 51.859375 69.847656 51.539062 69.972656 51.21875 69.972656 Z M 51.21875 69.972656 "/>
<path style=" stroke:none;fill-rule:nonzero;fill:rgb(0%,0%,0%);fill-opacity:1;" d="M 43.71875 79.96875 C 43.457031 79.96875 43.195312 79.886719 42.972656 79.71875 C 42.417969 79.304688 42.304688 78.523438 42.722656 77.96875 L 50.21875 67.972656 C 50.632812 67.421875 51.417969 67.3125 51.96875 67.722656 C 52.519531 68.136719 52.632812 68.921875 52.21875 69.472656 L 44.71875 79.46875 C 44.476562 79.796875 44.101562 79.96875 43.71875 79.96875 Z M 43.71875 79.96875 "/>
<path style=" stroke:none;fill-rule:nonzero;fill:rgb(0%,0%,0%);fill-opacity:1;" d="M 39.972656 79.96875 C 39.820312 79.96875 39.667969 79.941406 39.519531 79.882812 C 38.875 79.632812 38.558594 78.910156 38.808594 78.265625 L 47.554688 55.773438 C 47.804688 55.128906 48.53125 54.808594 49.171875 55.0625 C 49.816406 55.3125 50.136719 56.035156 49.882812 56.679688 L 41.136719 79.171875 C 40.945312 79.667969 40.472656 79.96875 39.972656 79.96875 Z M 39.972656 79.96875 "/>
<path style=" stroke:none;fill-rule:nonzero;fill:rgb(0%,0%,0%);fill-opacity:1;" d="M 57.46875 59.976562 L 51.21875 59.976562 C 50.527344 59.976562 49.96875 59.417969 49.96875 58.726562 C 49.96875 58.035156 50.527344 57.476562 51.21875 57.476562 L 57.46875 57.476562 C 58.160156 57.476562 58.71875 58.035156 58.71875 58.726562 C 58.71875 59.417969 58.160156 59.976562 57.46875 59.976562 Z M 57.46875 59.976562 "/>
<path style=" stroke:none;fill-rule:nonzero;fill:rgb(0%,0%,0%);fill-opacity:1;" d="M 36.085938 69.972656 C 35.921875 69.972656 35.757812 69.941406 35.597656 69.871094 C 34.960938 69.605469 34.664062 68.871094 34.933594 68.234375 L 37.570312 61.988281 C 37.839844 61.355469 38.574219 61.058594 39.207031 61.324219 C 39.84375 61.59375 40.140625 62.328125 39.875 62.960938 L 37.234375 69.207031 C 37.035156 69.683594 36.570312 69.972656 36.085938 69.972656 Z M 36.085938 69.972656 "/>
<path style=" stroke:none;fill-rule:nonzero;fill:rgb(0%,0%,0%);fill-opacity:1;" d="M 43.859375 69.972656 C 43.371094 69.972656 42.910156 69.6875 42.707031 69.210938 L 40.070312 62.960938 C 39.804688 62.324219 40.101562 61.589844 40.738281 61.320312 C 41.371094 61.050781 42.105469 61.351562 42.375 61.988281 L 45.011719 68.238281 C 45.28125 68.875 44.980469 69.609375 44.347656 69.875 C 44.1875 69.941406 44.019531 69.972656 43.859375 69.972656 Z M 43.859375 69.972656 "/>
<path style=" stroke:none;fill-rule:nonzero;fill:rgb(0%,0%,0%);fill-opacity:1;" d="M 41.222656 63.726562 L 38.722656 63.726562 C 38.03125 63.726562 37.472656 63.167969 37.472656 62.476562 C 37.472656 61.785156 38.03125 61.226562 38.722656 61.226562 L 41.222656 61.226562 C 41.914062 61.226562 42.472656 61.785156 42.472656 62.476562 C 42.472656 63.167969 41.914062 63.726562 41.222656 63.726562 Z M 41.222656 63.726562 "/>
<path style=" stroke:none;fill-rule:nonzero;fill:rgb(0%,0%,0%);fill-opacity:1;" d="M 41.222656 63.726562 C 40.9375 63.726562 40.648438 63.628906 40.410156 63.425781 C 39.886719 62.980469 39.824219 62.191406 40.273438 61.667969 L 42.769531 58.730469 C 43.21875 58.203125 44.007812 58.140625 44.53125 58.59375 C 45.058594 59.039062 45.121094 59.828125 44.671875 60.351562 L 42.171875 63.285156 C 41.925781 63.578125 41.574219 63.726562 41.222656 63.726562 Z M 41.222656 63.726562 "/>
<path style=" stroke:none;fill-rule:nonzero;fill:rgb(0%,0%,0%);fill-opacity:1;" d="M 38.722656 63.726562 C 38.371094 63.726562 38.019531 63.578125 37.769531 63.285156 L 35.273438 60.351562 C 34.824219 59.828125 34.886719 59.035156 35.414062 58.589844 C 35.9375 58.140625 36.726562 58.203125 37.171875 58.730469 L 39.671875 61.664062 C 40.121094 62.191406 40.058594 62.980469 39.53125 63.425781 C 39.296875 63.628906 39.011719 63.726562 38.722656 63.726562 Z M 38.722656 63.726562 "/>
<path style=" stroke:none;fill-rule:nonzero;fill:rgb(0%,0%,0%);fill-opacity:1;" d="M 48.71875 53.746094 L 31.222656 53.746094 C 30.53125 53.746094 29.976562 53.1875 29.976562 52.496094 C 29.976562 51.804688 30.53125 51.246094 31.222656 51.246094 L 48.71875 51.246094 C 49.410156 51.246094 49.96875 51.804688 49.96875 52.496094 C 49.96875 53.1875 49.410156 53.746094 48.71875 53.746094 Z M 48.71875 53.746094 "/>
<path style=" stroke:none;fill-rule:nonzero;fill:rgb(0%,0%,0%);fill-opacity:1;" d="M 33.742188 53.746094 C 33.050781 53.746094 32.496094 53.1875 32.496094 52.496094 L 32.496094 47.496094 C 32.496094 46.804688 33.050781 46.246094 33.742188 46.246094 C 34.433594 46.246094 34.992188 46.804688 34.992188 47.496094 L 34.992188 52.496094 C 34.992188 53.1875 34.433594 53.746094 33.742188 53.746094 Z M 33.742188 53.746094 "/>
<path style=" stroke:none;fill-rule:nonzero;fill:rgb(0%,0%,0%);fill-opacity:1;" d="M 46.242188 53.746094 C 45.550781 53.746094 44.992188 53.1875 44.992188 52.496094 L 44.992188 47.496094 C 44.992188 46.804688 45.550781 46.246094 46.242188 46.246094 C 46.929688 46.246094 47.492188 46.804688 47.492188 47.496094 L 47.492188 52.496094 C 47.492188 53.1875 46.929688 53.746094 46.242188 53.746094 Z M 46.242188 53.746094 "/>
<path style=" stroke:none;fill-rule:nonzero;fill:rgb(0%,0%,0%);fill-opacity:1;" d="M 46.242188 48.746094 L 33.742188 48.746094 C 33.050781 48.746094 32.496094 48.1875 32.496094 47.496094 C 32.496094 46.804688 33.050781 46.246094 33.742188 46.246094 L 46.242188 46.246094 C 46.929688 46.246094 47.492188 46.804688 47.492188 47.496094 C 47.492188 48.1875 46.929688 48.746094 46.242188 48.746094 Z M 46.242188 48.746094 "/>
<path style=" stroke:none;fill-rule:nonzero;fill:rgb(0%,0%,0%);fill-opacity:1;" d="M 37.492188 48.746094 C 36.800781 48.746094 36.242188 48.1875 36.242188 47.496094 L 36.242188 12.507812 C 36.242188 11.816406 36.800781 11.257812 37.492188 11.257812 C 38.183594 11.257812 38.742188 11.816406 38.742188 12.507812 L 38.742188 47.496094 C 38.742188 48.1875 38.183594 48.746094 37.492188 48.746094 Z M 37.492188 48.746094 "/>
<path style=" stroke:none;fill-rule:nonzero;fill:rgb(0%,0%,0%);fill-opacity:1;" d="M 42.46875 48.746094 C 41.777344 48.746094 41.21875 48.1875 41.21875 47.496094 L 41.21875 12.507812 C 41.21875 11.816406 41.777344 11.257812 42.46875 11.257812 C 43.160156 11.257812 43.71875 11.816406 43.71875 12.507812 L 43.71875 47.496094 C 43.71875 48.1875 43.160156 48.746094 42.46875 48.746094 Z M 42.46875 48.746094 "/>
<path style=" stroke:none;fill-rule:nonzero;fill:rgb(0%,0%,0%);fill-opacity:1;" d="M 42.46875 4.988281 C 41.777344 4.988281 41.21875 4.429688 41.21875 3.738281 C 41.21875 3.054688 40.664062 2.5 39.980469 2.5 C 39.296875 2.5 38.742188 3.054688 38.742188 3.738281 C 38.742188 4.429688 38.183594 4.988281 37.492188 4.988281 C 36.800781 4.988281 36.242188 4.429688 36.242188 3.738281 C 36.242188 1.679688 37.921875 0 39.980469 0 C 42.042969 0 43.71875 1.679688 43.71875 3.738281 C 43.71875 4.429688 43.160156 4.988281 42.46875 4.988281 Z M 42.46875 4.988281 "/>
<path style=" stroke:none;fill-rule:nonzero;fill:rgb(0%,0%,0%);fill-opacity:1;" d="M 62.507812 13.742188 C 61.820312 13.742188 61.261719 13.183594 61.261719 12.492188 C 61.261719 11.800781 61.820312 11.242188 62.507812 11.242188 C 63.195312 11.242188 63.75 10.6875 63.75 10.003906 C 63.75 9.320312 63.195312 8.761719 62.507812 8.761719 C 61.820312 8.761719 61.261719 8.203125 61.261719 7.511719 C 61.261719 6.820312 61.820312 6.261719 62.507812 6.261719 C 64.570312 6.261719 66.25 7.941406 66.25 10.003906 C 66.25 12.0625 64.570312 13.742188 62.507812 13.742188 Z M 62.507812 13.742188 "/>
<path style=" stroke:none;fill-rule:nonzero;fill:rgb(0%,0%,0%);fill-opacity:1;" d="M 62.507812 8.761719 L 17.472656 8.761719 C 16.78125 8.761719 16.222656 8.203125 16.222656 7.511719 C 16.222656 6.820312 16.78125 6.261719 17.472656 6.261719 L 62.507812 6.261719 C 63.199219 6.261719 63.757812 6.820312 63.757812 7.511719 C 63.757812 8.203125 63.199219 8.761719 62.507812 8.761719 Z M 62.507812 8.761719 "/>
<path style=" stroke:none;fill-rule:nonzero;fill:rgb(0%,0%,0%);fill-opacity:1;" d="M 62.507812 13.742188 L 17.453125 13.742188 C 16.761719 13.742188 16.203125 13.183594 16.203125 12.492188 C 16.203125 11.800781 16.761719 11.242188 17.453125 11.242188 L 62.511719 11.242188 C 63.203125 11.242188 63.761719 11.800781 63.761719 12.492188 C 63.761719 13.183594 63.199219 13.742188 62.507812 13.742188 Z M 62.507812 13.742188 "/>
<path style=" stroke:none;fill-rule:nonzero;fill:rgb(0%,0%,0%);fill-opacity:1;" d="M 17.488281 13.742188 C 15.425781 13.742188 13.75 12.0625 13.75 10.003906 C 13.75 7.941406 15.425781 6.261719 17.488281 6.261719 C 18.179688 6.261719 18.738281 6.820312 18.738281 7.511719 C 18.738281 8.203125 18.179688 8.761719 17.488281 8.761719 C 16.804688 8.761719 16.246094 9.320312 16.246094 10.003906 C 16.246094 10.6875 16.804688 11.242188 17.488281 11.242188 C 18.179688 11.242188 18.738281 11.800781 18.738281 12.492188 C 18.738281 13.183594 18.179688 13.742188 17.488281 13.742188 Z M 17.488281 13.742188 "/>
<path style=" stroke:none;fill-rule:nonzero;fill:rgb(0%,0%,0%);fill-opacity:1;" d="M 37.492188 8.761719 C 36.800781 8.761719 36.242188 8.203125 36.242188 7.511719 L 36.242188 3.738281 C 36.242188 3.046875 36.800781 2.488281 37.492188 2.488281 C 38.183594 2.488281 38.742188 3.046875 38.742188 3.738281 L 38.742188 7.511719 C 38.742188 8.203125 38.183594 8.761719 37.492188 8.761719 Z M 37.492188 8.761719 "/>
<path style=" stroke:none;fill-rule:nonzero;fill:rgb(0%,0%,0%);fill-opacity:1;" d="M 42.46875 8.761719 C 41.777344 8.761719 41.21875 8.203125 41.21875 7.511719 L 41.21875 3.738281 C 41.21875 3.046875 41.777344 2.488281 42.46875 2.488281 C 43.160156 2.488281 43.71875 3.046875 43.71875 3.738281 L 43.71875 7.511719 C 43.71875 8.203125 43.160156 8.761719 42.46875 8.761719 Z M 42.46875 8.761719 "/>
<path style=" stroke:none;fill-rule:nonzero;fill:rgb(0%,0%,0%);fill-opacity:1;" d="M 17.484375 46.246094 C 11.285156 46.246094 6.238281 41.199219 6.238281 34.996094 C 6.238281 34.308594 6.796875 33.75 7.488281 33.75 C 8.179688 33.75 8.738281 34.308594 8.738281 34.996094 C 8.738281 39.820312 12.664062 43.746094 17.484375 43.746094 C 22.308594 43.746094 26.234375 39.820312 26.234375 34.996094 C 26.234375 34.308594 26.792969 33.75 27.484375 33.75 C 28.175781 33.75 28.734375 34.308594 28.734375 34.996094 C 28.734375 41.199219 23.6875 46.246094 17.484375 46.246094 Z M 17.484375 46.246094 "/>
<path style=" stroke:none;fill-rule:nonzero;fill:rgb(0%,0%,0%);fill-opacity:1;" d="M 27.484375 36.246094 L 7.488281 36.246094 C 6.796875 36.246094 6.238281 35.6875 6.238281 34.996094 C 6.238281 34.308594 6.796875 33.75 7.488281 33.75 L 27.484375 33.75 C 28.175781 33.75 28.734375 34.308594 28.734375 34.996094 C 28.734375 35.6875 28.175781 36.246094 27.484375 36.246094 Z M 27.484375 36.246094 "/>
<path style=" stroke:none;fill-rule:nonzero;fill:rgb(0%,0%,0%);fill-opacity:1;" d="M 27.484375 36.246094 C 27.003906 36.246094 26.550781 35.972656 26.339844 35.507812 L 16.3125 13 C 16.03125 12.371094 16.316406 11.628906 16.945312 11.351562 C 17.578125 11.066406 18.3125 11.351562 18.59375 11.984375 L 28.625 34.488281 C 28.90625 35.121094 28.621094 35.859375 27.992188 36.140625 C 27.828125 36.210938 27.652344 36.246094 27.484375 36.246094 Z M 27.484375 36.246094 "/>
<path style=" stroke:none;fill-rule:nonzero;fill:rgb(0%,0%,0%);fill-opacity:1;" d="M 7.488281 36.246094 C 7.320312 36.246094 7.148438 36.214844 6.980469 36.140625 C 6.351562 35.859375 6.066406 35.125 6.347656 34.492188 L 16.3125 11.984375 C 16.589844 11.355469 17.328125 11.070312 17.957031 11.347656 C 18.589844 11.628906 18.875 12.363281 18.59375 12.996094 L 8.628906 35.503906 C 8.425781 35.96875 7.964844 36.246094 7.488281 36.246094 Z M 7.488281 36.246094 "/>
<path style=" stroke:none;fill-rule:nonzero;fill:rgb(0%,0%,0%);fill-opacity:1;" d="M 62.484375 46.246094 C 56.28125 46.246094 51.234375 41.199219 51.234375 34.996094 C 51.234375 34.308594 51.796875 33.75 52.484375 33.75 C 53.175781 33.75 53.734375 34.308594 53.734375 34.996094 C 53.734375 39.820312 57.660156 43.746094 62.484375 43.746094 C 67.304688 43.746094 71.230469 39.820312 71.230469 34.996094 C 71.230469 34.308594 71.789062 33.75 72.480469 33.75 C 73.171875 33.75 73.730469 34.308594 73.730469 34.996094 C 73.730469 41.199219 68.6875 46.246094 62.484375 46.246094 Z M 62.484375 46.246094 "/>
<path style=" stroke:none;fill-rule:nonzero;fill:rgb(0%,0%,0%);fill-opacity:1;" d="M 72.480469 36.246094 L 52.484375 36.246094 C 51.796875 36.246094 51.234375 35.6875 51.234375 34.996094 C 51.234375 34.308594 51.796875 33.75 52.484375 33.75 L 72.480469 33.75 C 73.171875 33.75 73.730469 34.308594 73.730469 34.996094 C 73.730469 35.6875 73.171875 36.246094 72.480469 36.246094 Z M 72.480469 36.246094 "/>
<path style=" stroke:none;fill-rule:nonzero;fill:rgb(0%,0%,0%);fill-opacity:1;" d="M 72.480469 36.246094 C 72.003906 36.246094 71.546875 35.972656 71.339844 35.507812 L 61.308594 13 C 61.027344 12.371094 61.3125 11.628906 61.941406 11.351562 C 62.574219 11.066406 63.3125 11.351562 63.59375 11.984375 L 73.621094 34.488281 C 73.902344 35.121094 73.621094 35.859375 72.988281 36.140625 C 72.824219 36.210938 72.652344 36.246094 72.480469 36.246094 Z M 72.480469 36.246094 "/>
<path style=" stroke:none;fill-rule:nonzero;fill:rgb(0%,0%,0%);fill-opacity:1;" d="M 52.484375 36.246094 C 52.316406 36.246094 52.144531 36.214844 51.980469 36.140625 C 51.347656 35.859375 51.066406 35.125 51.34375 34.492188 L 61.308594 11.984375 C 61.589844 11.355469 62.324219 11.070312 62.957031 11.347656 C 63.589844 11.628906 63.871094 12.367188 63.59375 12.996094 L 53.628906 35.503906 C 53.421875 35.96875 52.964844 36.246094 52.484375 36.246094 Z M 52.484375 36.246094 "/>
</g>
</svg>
