<?xml version="1.0" encoding="UTF-8"?>
<svg xmlns="http://www.w3.org/2000/svg" xmlns:xlink="http://www.w3.org/1999/xlink" width="80pt" height="80pt" viewBox="0 0 80 80" version="1.1">
<g id="surface1">
<path style=" stroke:none;fill-rule:nonzero;fill:rgb(0%,0%,0%);fill-opacity:1;" d="M 31.25 16.253906 C 30.558594 16.253906 30 15.691406 30 15.003906 L 30 11.417969 C 30 10.726562 30.558594 10.167969 31.25 10.167969 C 31.941406 10.167969 32.5 10.726562 32.5 11.417969 L 32.5 15.003906 C 32.5 15.691406 31.941406 16.253906 31.25 16.253906 Z M 31.25 16.253906 "/>
<path style=" stroke:none;fill-rule:nonzero;fill:rgb(0%,0%,0%);fill-opacity:1;" d="M 48.75 16.253906 C 48.058594 16.253906 47.5 15.691406 47.5 15.003906 L 47.5 10.625 C 47.5 9.9375 48.058594 9.375 48.75 9.375 C 49.441406 9.375 50 9.9375 50 10.625 L 50 15.003906 C 50 15.691406 49.441406 16.253906 48.75 16.253906 Z M 48.75 16.253906 "/>
<path style=" stroke:none;fill-rule:nonzero;fill:rgb(0%,0%,0%);fill-opacity:1;" d="M 48.75 11.875 C 48.058594 11.875 47.5 11.316406 47.5 10.625 C 47.5 6.148438 43.855469 2.503906 39.371094 2.503906 C 34.894531 2.503906 31.25 6.148438 31.25 10.625 C 31.25 11.316406 30.691406 11.875 30 11.875 C 29.308594 11.875 28.75 11.316406 28.75 10.625 C 28.75 4.769531 33.515625 0.00390625 39.371094 0.00390625 C 45.234375 0.00390625 50 4.769531 50 10.625 C 50 11.316406 49.441406 11.875 48.75 11.875 Z M 48.75 11.875 "/>
<path style=" stroke:none;fill-rule:nonzero;fill:rgb(0%,0%,0%);fill-opacity:1;" d="M 48.75 13.589844 C 48.375 13.589844 48.003906 13.421875 47.757812 13.101562 C 45.34375 9.949219 44.6875 10.207031 42.238281 11.179688 C 39.894531 12.105469 36.34375 13.511719 29.804688 12.480469 C 29.125 12.371094 28.65625 11.734375 28.765625 11.050781 C 28.875 10.371094 29.515625 9.90625 30.195312 10.011719 C 36.058594 10.9375 39.101562 9.734375 41.320312 8.851562 C 44.332031 7.65625 46.351562 7.152344 49.742188 11.578125 C 50.160156 12.125 50.058594 12.910156 49.507812 13.332031 C 49.28125 13.507812 49.015625 13.589844 48.75 13.589844 Z M 48.75 13.589844 "/>
<path style=" stroke:none;fill-rule:nonzero;fill:rgb(0%,0%,0%);fill-opacity:1;" d="M 43.746094 10.597656 C 43.5625 10.597656 43.375 10.554688 43.199219 10.46875 C 42.578125 10.164062 42.324219 9.414062 42.628906 8.796875 L 45.128906 3.707031 C 45.429688 3.089844 46.175781 2.832031 46.800781 3.136719 C 47.421875 3.441406 47.675781 4.191406 47.371094 4.808594 L 44.871094 9.898438 C 44.652344 10.339844 44.207031 10.597656 43.746094 10.597656 Z M 43.746094 10.597656 "/>
<path style=" stroke:none;fill-rule:nonzero;fill:rgb(0%,0%,0%);fill-opacity:1;" d="M 36.25 27.503906 C 35.558594 27.503906 35 26.945312 35 26.253906 L 35 22.898438 C 35 22.210938 35.558594 21.648438 36.25 21.648438 C 36.941406 21.648438 37.5 22.210938 37.5 22.898438 L 37.5 26.253906 C 37.5 26.945312 36.941406 27.503906 36.25 27.503906 Z M 36.25 27.503906 "/>
<path style=" stroke:none;fill-rule:nonzero;fill:rgb(0%,0%,0%);fill-opacity:1;" d="M 43.75 27.496094 C 43.058594 27.496094 42.5 26.9375 42.5 26.246094 L 42.5 22.898438 C 42.5 22.210938 43.058594 21.648438 43.75 21.648438 C 44.441406 21.648438 45 22.210938 45 22.898438 L 45 26.246094 C 45 26.9375 44.441406 27.496094 43.75 27.496094 Z M 43.75 27.496094 "/>
<path style=" stroke:none;fill-rule:nonzero;fill:rgb(0%,0%,0%);fill-opacity:1;" d="M 40 24.992188 C 34.484375 24.992188 30 20.507812 30 14.996094 C 30 14.304688 30.558594 13.746094 31.25 13.746094 C 31.941406 13.746094 32.5 14.304688 32.5 14.996094 C 32.5 19.128906 35.863281 22.492188 40 22.492188 C 44.136719 22.492188 47.5 19.128906 47.5 14.996094 C 47.5 14.304688 48.058594 13.746094 48.75 13.746094 C 49.441406 13.746094 50 14.304688 50 14.996094 C 50 20.507812 45.511719 24.992188 40 24.992188 Z M 40 24.992188 "/>
<path style=" stroke:none;fill-rule:nonzero;fill:rgb(0%,0%,0%);fill-opacity:1;" d="M 37.5 28.746094 C 37.042969 28.746094 36.601562 28.492188 36.378906 28.054688 C 36.070312 27.4375 36.320312 26.6875 36.9375 26.375 L 39.4375 25.125 C 40.054688 24.816406 40.804688 25.066406 41.117188 25.6875 C 41.425781 26.304688 41.175781 27.054688 40.558594 27.363281 L 38.058594 28.613281 C 37.878906 28.703125 37.6875 28.746094 37.5 28.746094 Z M 37.5 28.746094 "/>
<path style=" stroke:none;fill-rule:nonzero;fill:rgb(0%,0%,0%);fill-opacity:1;" d="M 42.5 28.746094 C 42.179688 28.746094 41.859375 28.625 41.617188 28.378906 C 41.125 27.890625 41.125 27.101562 41.617188 26.613281 L 42.863281 25.363281 C 43.355469 24.875 44.144531 24.875 44.632812 25.363281 C 45.121094 25.851562 45.121094 26.640625 44.632812 27.128906 L 43.382812 28.378906 C 43.136719 28.625 42.820312 28.746094 42.5 28.746094 Z M 42.5 28.746094 "/>
<path style=" stroke:none;fill-rule:nonzero;fill:rgb(0%,0%,0%);fill-opacity:1;" d="M 37.5 28.746094 C 37.179688 28.746094 36.859375 28.625 36.617188 28.378906 L 35.367188 27.128906 C 34.875 26.640625 34.875 25.851562 35.367188 25.363281 C 35.855469 24.875 36.644531 24.875 37.132812 25.363281 L 38.382812 26.613281 C 38.871094 27.101562 38.871094 27.890625 38.382812 28.378906 C 38.140625 28.625 37.820312 28.746094 37.5 28.746094 Z M 37.5 28.746094 "/>
<path style=" stroke:none;fill-rule:nonzero;fill:rgb(0%,0%,0%);fill-opacity:1;" d="M 42.496094 28.746094 C 42.308594 28.746094 42.117188 28.703125 41.941406 28.613281 L 39.441406 27.363281 C 38.824219 27.054688 38.574219 26.304688 38.882812 25.6875 C 39.191406 25.070312 39.941406 24.820312 40.558594 25.128906 L 43.058594 26.378906 C 43.675781 26.6875 43.925781 27.4375 43.617188 28.054688 C 43.398438 28.492188 42.957031 28.746094 42.496094 28.746094 Z M 42.496094 28.746094 "/>
<path style=" stroke:none;fill-rule:nonzero;fill:rgb(0%,0%,0%);fill-opacity:1;" d="M 36.25 27.503906 L 11.25 27.503906 C 10.558594 27.503906 10 26.945312 10 26.253906 C 10 25.566406 10.558594 25.003906 11.25 25.003906 L 36.25 25.003906 C 36.941406 25.003906 37.5 25.566406 37.5 26.253906 C 37.5 26.945312 36.941406 27.503906 36.25 27.503906 Z M 36.25 27.503906 "/>
<path style=" stroke:none;fill-rule:nonzero;fill:rgb(0%,0%,0%);fill-opacity:1;" d="M 11.25 32.5 C 11.195312 32.5 11.140625 32.496094 11.082031 32.492188 C 9.34375 32.257812 7.5 30.871094 7.5 28.753906 C 7.5 26.6875 9.183594 25.003906 11.25 25.003906 C 11.941406 25.003906 12.5 25.566406 12.5 26.253906 C 12.5 26.945312 11.941406 27.503906 11.25 27.503906 C 10.558594 27.503906 10 28.0625 10 28.753906 C 10 29.421875 10.71875 29.921875 11.414062 30.011719 C 12.097656 30.105469 12.582031 30.734375 12.488281 31.417969 C 12.402344 32.046875 11.867188 32.5 11.25 32.5 Z M 11.25 32.5 "/>
<path style=" stroke:none;fill-rule:nonzero;fill:rgb(0%,0%,0%);fill-opacity:1;" d="M 30 35 C 29.945312 35 29.890625 34.996094 29.835938 34.992188 L 11.082031 32.492188 C 10.398438 32.398438 9.917969 31.769531 10.011719 31.085938 C 10.101562 30.402344 10.722656 29.921875 11.414062 30.011719 L 30.164062 32.511719 C 30.847656 32.601562 31.332031 33.230469 31.238281 33.917969 C 31.152344 34.546875 30.617188 35 30 35 Z M 30 35 "/>
<path style=" stroke:none;fill-rule:nonzero;fill:rgb(0%,0%,0%);fill-opacity:1;" d="M 30 52.5 C 29.308594 52.5 28.75 51.941406 28.75 51.25 L 28.75 33.75 C 28.75 33.0625 29.308594 32.5 30 32.5 C 30.691406 32.5 31.25 33.0625 31.25 33.75 L 31.25 51.25 C 31.25 51.941406 30.691406 52.5 30 52.5 Z M 30 52.5 "/>
<path style=" stroke:none;fill-rule:nonzero;fill:rgb(0%,0%,0%);fill-opacity:1;" d="M 50 52.5 C 49.308594 52.5 48.75 51.941406 48.75 51.25 L 48.75 33.75 C 48.75 33.0625 49.308594 32.5 50 32.5 C 50.691406 32.5 51.25 33.0625 51.25 33.75 L 51.25 51.25 C 51.25 51.941406 50.691406 52.5 50 52.5 Z M 50 52.5 "/>
<path style=" stroke:none;fill-rule:nonzero;fill:rgb(0%,0%,0%);fill-opacity:1;" d="M 50 52.5 L 30 52.5 C 29.308594 52.5 28.75 51.941406 28.75 51.25 C 28.75 50.558594 29.308594 50 30 50 L 50 50 C 50.691406 50 51.25 50.558594 51.25 51.25 C 51.25 51.941406 50.691406 52.5 50 52.5 Z M 50 52.5 "/>
<path style=" stroke:none;fill-rule:nonzero;fill:rgb(0%,0%,0%);fill-opacity:1;" d="M 48.75 80 C 48.730469 80 48.710938 80 48.691406 80 C 48.003906 79.96875 47.46875 79.382812 47.5 78.695312 L 48.75 51.195312 C 48.78125 50.503906 49.417969 49.972656 50.054688 50.003906 C 50.746094 50.035156 51.277344 50.617188 51.246094 51.308594 L 49.996094 78.804688 C 49.96875 79.476562 49.414062 80 48.75 80 Z M 48.75 80 "/>
<path style=" stroke:none;fill-rule:nonzero;fill:rgb(0%,0%,0%);fill-opacity:1;" d="M 40 80 C 39.308594 80 38.75 79.441406 38.75 78.75 L 38.75 57.5 C 38.75 56.808594 39.308594 56.25 40 56.25 C 40.691406 56.25 41.25 56.808594 41.25 57.5 L 41.25 78.75 C 41.25 79.441406 40.691406 80 40 80 Z M 40 80 "/>
<path style=" stroke:none;fill-rule:nonzero;fill:rgb(0%,0%,0%);fill-opacity:1;" d="M 48.75 79.375 C 48.058594 79.375 47.5 78.816406 47.5 78.125 C 47.5 76.402344 46.097656 75 44.375 75 C 42.648438 75 41.25 76.402344 41.25 78.125 C 41.25 78.816406 40.691406 79.375 40 79.375 C 39.308594 79.375 38.75 78.816406 38.75 78.125 C 38.75 75.023438 41.273438 72.5 44.375 72.5 C 47.476562 72.5 50 75.023438 50 78.125 C 50 78.816406 49.441406 79.375 48.75 79.375 Z M 48.75 79.375 "/>
<path style=" stroke:none;fill-rule:nonzero;fill:rgb(0%,0%,0%);fill-opacity:1;" d="M 48.75 80 L 40 80 C 39.308594 80 38.75 79.441406 38.75 78.75 C 38.75 78.058594 39.308594 77.5 40 77.5 L 48.75 77.5 C 49.441406 77.5 50 78.058594 50 78.75 C 50 79.441406 49.441406 80 48.75 80 Z M 48.75 80 "/>
<path style=" stroke:none;fill-rule:nonzero;fill:rgb(0%,0%,0%);fill-opacity:1;" d="M 48.75 80 C 48.058594 80 47.5 79.441406 47.5 78.75 L 47.5 78.125 C 47.5 77.433594 48.058594 76.875 48.75 76.875 C 49.441406 76.875 50 77.433594 50 78.125 L 50 78.75 C 50 79.441406 49.441406 80 48.75 80 Z M 48.75 80 "/>
<path style=" stroke:none;fill-rule:nonzero;fill:rgb(0%,0%,0%);fill-opacity:1;" d="M 31.25 80 C 30.585938 80 30.03125 79.476562 30 78.804688 L 28.75 51.308594 C 28.71875 50.617188 29.253906 50.035156 29.941406 50.003906 C 30.574219 49.964844 31.21875 50.503906 31.25 51.195312 L 32.5 78.695312 C 32.53125 79.382812 31.996094 79.96875 31.304688 80 C 31.285156 80 31.269531 80 31.25 80 Z M 31.25 80 "/>
<path style=" stroke:none;fill-rule:nonzero;fill:rgb(0%,0%,0%);fill-opacity:1;" d="M 40 79.375 C 39.308594 79.375 38.75 78.816406 38.75 78.125 C 38.75 76.402344 37.347656 75 35.625 75 C 33.902344 75 32.5 76.402344 32.5 78.125 C 32.5 78.816406 31.941406 79.375 31.25 79.375 C 30.558594 79.375 30 78.816406 30 78.125 C 30 75.023438 32.523438 72.5 35.625 72.5 C 38.726562 72.5 41.25 75.023438 41.25 78.125 C 41.25 78.816406 40.691406 79.375 40 79.375 Z M 40 79.375 "/>
<path style=" stroke:none;fill-rule:nonzero;fill:rgb(0%,0%,0%);fill-opacity:1;" d="M 40 80 L 31.25 80 C 30.558594 80 30 79.441406 30 78.75 C 30 78.058594 30.558594 77.5 31.25 77.5 L 40 77.5 C 40.691406 77.5 41.25 78.058594 41.25 78.75 C 41.25 79.441406 40.691406 80 40 80 Z M 40 80 "/>
<path style=" stroke:none;fill-rule:nonzero;fill:rgb(0%,0%,0%);fill-opacity:1;" d="M 31.25 80 C 30.558594 80 30 79.441406 30 78.75 L 30 78.125 C 30 77.433594 30.558594 76.875 31.25 76.875 C 31.941406 76.875 32.5 77.433594 32.5 78.125 L 32.5 78.75 C 32.5 79.441406 31.941406 80 31.25 80 Z M 31.25 80 "/>
<path style=" stroke:none;fill-rule:nonzero;fill:rgb(0%,0%,0%);fill-opacity:1;" d="M 8.753906 55 C 3.925781 55 0 51.078125 0 46.25 C 0 45.558594 0.558594 45 1.25 45 C 1.941406 45 2.5 45.558594 2.5 46.25 C 2.5 49.699219 5.304688 52.503906 8.753906 52.503906 C 12.199219 52.503906 15.003906 49.699219 15.003906 46.25 C 15.003906 45.558594 15.5625 45 16.253906 45 C 16.945312 45 17.503906 45.558594 17.503906 46.25 C 17.503906 51.078125 13.578125 55 8.753906 55 Z M 8.753906 55 "/>
<path style=" stroke:none;fill-rule:nonzero;fill:rgb(0%,0%,0%);fill-opacity:1;" d="M 16.253906 47.5 L 1.25 47.5 C 0.558594 47.5 0 46.941406 0 46.25 C 0 45.558594 0.558594 45 1.25 45 L 16.253906 45 C 16.945312 45 17.503906 45.558594 17.503906 46.25 C 17.503906 46.941406 16.945312 47.5 16.253906 47.5 Z M 16.253906 47.5 "/>
<path style=" stroke:none;fill-rule:nonzero;fill:rgb(0%,0%,0%);fill-opacity:1;" d="M 1.25 47.5 C 1.085938 47.5 0.917969 47.46875 0.757812 47.398438 C 0.125 47.125 -0.171875 46.390625 0.101562 45.757812 L 7.601562 28.257812 C 7.871094 27.625 8.613281 27.332031 9.242188 27.601562 C 9.878906 27.875 10.171875 28.609375 9.898438 29.246094 L 2.398438 46.738281 C 2.195312 47.214844 1.734375 47.5 1.25 47.5 Z M 1.25 47.5 "/>
<path style=" stroke:none;fill-rule:nonzero;fill:rgb(0%,0%,0%);fill-opacity:1;" d="M 16.253906 47.5 C 15.769531 47.5 15.308594 47.214844 15.105469 46.742188 L 7.601562 29.246094 C 7.328125 28.613281 7.625 27.878906 8.257812 27.605469 C 8.890625 27.332031 9.625 27.625 9.898438 28.261719 L 17.402344 45.757812 C 17.675781 46.390625 17.378906 47.125 16.746094 47.398438 C 16.585938 47.46875 16.417969 47.5 16.253906 47.5 Z M 16.253906 47.5 "/>
<path style=" stroke:none;fill-rule:nonzero;fill:rgb(0%,0%,0%);fill-opacity:1;" d="M 71.246094 55 C 66.421875 55 62.496094 51.078125 62.496094 46.25 C 62.496094 45.558594 63.054688 45 63.746094 45 C 64.4375 45 64.996094 45.558594 64.996094 46.25 C 64.996094 49.699219 67.800781 52.503906 71.246094 52.503906 C 74.695312 52.503906 77.5 49.699219 77.5 46.25 C 77.5 45.558594 78.058594 45 78.75 45 C 79.441406 45 80 45.558594 80 46.25 C 80 51.078125 76.074219 55 71.246094 55 Z M 71.246094 55 "/>
<path style=" stroke:none;fill-rule:nonzero;fill:rgb(0%,0%,0%);fill-opacity:1;" d="M 78.75 47.5 L 63.746094 47.5 C 63.054688 47.5 62.496094 46.941406 62.496094 46.25 C 62.496094 45.558594 63.054688 45 63.746094 45 L 78.75 45 C 79.441406 45 80 45.558594 80 46.25 C 80 46.941406 79.441406 47.5 78.75 47.5 Z M 78.75 47.5 "/>
<path style=" stroke:none;fill-rule:nonzero;fill:rgb(0%,0%,0%);fill-opacity:1;" d="M 63.746094 47.5 C 63.582031 47.5 63.414062 47.46875 63.253906 47.398438 C 62.617188 47.125 62.324219 46.390625 62.597656 45.757812 L 70.097656 28.257812 C 70.367188 27.625 71.109375 27.332031 71.738281 27.601562 C 72.371094 27.875 72.667969 28.609375 72.394531 29.246094 L 64.894531 46.738281 C 64.691406 47.214844 64.230469 47.5 63.746094 47.5 Z M 63.746094 47.5 "/>
<path style=" stroke:none;fill-rule:nonzero;fill:rgb(0%,0%,0%);fill-opacity:1;" d="M 78.75 47.5 C 78.265625 47.5 77.804688 47.214844 77.601562 46.742188 L 70.097656 29.246094 C 69.824219 28.613281 70.117188 27.878906 70.75 27.605469 C 71.382812 27.332031 72.121094 27.625 72.394531 28.261719 L 79.898438 45.757812 C 80.167969 46.390625 79.875 47.125 79.242188 47.398438 C 79.082031 47.46875 78.914062 47.5 78.75 47.5 Z M 78.75 47.5 "/>
<path style=" stroke:none;fill-rule:nonzero;fill:rgb(0%,0%,0%);fill-opacity:1;" d="M 68.746094 27.503906 L 43.75 27.503906 C 43.058594 27.503906 42.5 26.945312 42.5 26.253906 C 42.5 25.566406 43.058594 25.003906 43.75 25.003906 L 68.746094 25.003906 C 69.4375 25.003906 69.996094 25.566406 69.996094 26.253906 C 69.996094 26.945312 69.4375 27.503906 68.746094 27.503906 Z M 68.746094 27.503906 "/>
<path style=" stroke:none;fill-rule:nonzero;fill:rgb(0%,0%,0%);fill-opacity:1;" d="M 68.746094 32.5 C 68.128906 32.5 67.59375 32.046875 67.511719 31.417969 C 67.417969 30.734375 67.898438 30.105469 68.582031 30.011719 C 69.277344 29.917969 69.996094 29.421875 69.996094 28.75 C 69.996094 28.0625 69.4375 27.503906 68.75 27.503906 C 68.058594 27.503906 67.5 26.941406 67.5 26.253906 C 67.5 25.5625 68.058594 25.003906 68.75 25.003906 C 70.816406 25.003906 72.496094 26.683594 72.496094 28.75 C 72.496094 30.867188 70.652344 32.257812 68.914062 32.488281 C 68.859375 32.496094 68.804688 32.5 68.746094 32.5 Z M 68.746094 32.5 "/>
<path style=" stroke:none;fill-rule:nonzero;fill:rgb(0%,0%,0%);fill-opacity:1;" d="M 49.996094 35 C 49.378906 35 48.84375 34.546875 48.761719 33.917969 C 48.667969 33.230469 49.148438 32.601562 49.832031 32.511719 L 68.585938 30.011719 C 69.269531 29.921875 69.898438 30.402344 69.988281 31.085938 C 70.078125 31.769531 69.597656 32.398438 68.914062 32.492188 L 50.164062 34.992188 C 50.105469 34.996094 50.050781 35 49.996094 35 Z M 49.996094 35 "/>
</g>
</svg>
