<?xml version="1.0" encoding="UTF-8"?>
<svg xmlns="http://www.w3.org/2000/svg" xmlns:xlink="http://www.w3.org/1999/xlink" width="80pt" height="80pt" viewBox="0 0 80 80" version="1.1">
<g id="surface1">
<path style=" stroke:none;fill-rule:nonzero;fill:rgb(0%,0%,0%);fill-opacity:1;" d="M 58.734375 60.003906 C 58.042969 60.003906 57.484375 59.445312 57.484375 58.753906 L 57.484375 53.921875 C 57.484375 53.230469 58.042969 52.671875 58.734375 52.671875 C 59.425781 52.671875 59.984375 53.230469 59.984375 53.921875 L 59.984375 58.753906 C 59.984375 59.445312 59.425781 60.003906 58.734375 60.003906 Z M 58.734375 60.003906 "/>
<path style=" stroke:none;fill-rule:nonzero;fill:rgb(0%,0%,0%);fill-opacity:1;" d="M 76.230469 60.003906 C 75.539062 60.003906 74.980469 59.445312 74.980469 58.753906 L 74.980469 53.128906 C 74.980469 52.441406 75.539062 51.878906 76.230469 51.878906 C 76.921875 51.878906 77.480469 52.441406 77.480469 53.128906 L 77.480469 58.753906 C 77.480469 59.445312 76.921875 60.003906 76.230469 60.003906 Z M 76.230469 60.003906 "/>
<path style=" stroke:none;fill-rule:nonzero;fill:rgb(0%,0%,0%);fill-opacity:1;" d="M 76.230469 54.378906 C 75.539062 54.378906 74.980469 53.820312 74.980469 53.128906 C 74.980469 48.652344 71.335938 45.007812 66.855469 45.007812 C 62.378906 45.007812 58.734375 48.652344 58.734375 53.128906 C 58.734375 53.820312 58.175781 54.378906 57.484375 54.378906 C 56.792969 54.378906 56.234375 53.820312 56.234375 53.128906 C 56.234375 47.273438 61 42.507812 66.855469 42.507812 C 72.714844 42.507812 77.480469 47.273438 77.480469 53.128906 C 77.480469 53.820312 76.921875 54.378906 76.230469 54.378906 Z M 76.230469 54.378906 "/>
<path style=" stroke:none;fill-rule:nonzero;fill:rgb(0%,0%,0%);fill-opacity:1;" d="M 76.230469 56.09375 C 75.855469 56.09375 75.484375 55.925781 75.238281 55.601562 C 72.828125 52.453125 72.167969 52.710938 69.722656 53.683594 C 67.378906 54.613281 63.832031 56.019531 57.289062 54.984375 C 56.609375 54.875 56.144531 54.238281 56.253906 53.554688 C 56.359375 52.871094 57.007812 52.40625 57.683594 52.515625 C 63.542969 53.4375 66.585938 52.238281 68.804688 51.355469 C 71.816406 50.164062 73.835938 49.65625 77.222656 54.082031 C 77.644531 54.628906 77.539062 55.414062 76.992188 55.835938 C 76.765625 56.011719 76.496094 56.09375 76.230469 56.09375 Z M 76.230469 56.09375 "/>
<path style=" stroke:none;fill-rule:nonzero;fill:rgb(0%,0%,0%);fill-opacity:1;" d="M 71.230469 53.101562 C 71.046875 53.101562 70.859375 53.0625 70.679688 52.972656 C 70.0625 52.667969 69.808594 51.917969 70.109375 51.300781 L 72.609375 46.214844 C 72.914062 45.59375 73.660156 45.339844 74.285156 45.640625 C 74.902344 45.945312 75.15625 46.695312 74.855469 47.316406 L 72.355469 52.402344 C 72.136719 52.84375 71.691406 53.101562 71.230469 53.101562 Z M 71.230469 53.101562 "/>
<path style=" stroke:none;fill-rule:nonzero;fill:rgb(0%,0%,0%);fill-opacity:1;" d="M 56.234375 76.246094 C 55.542969 76.246094 54.984375 75.6875 54.984375 74.996094 C 54.984375 72.238281 57.226562 69.996094 59.984375 69.996094 C 60.675781 69.996094 61.234375 70.554688 61.234375 71.246094 C 61.234375 71.9375 60.675781 72.496094 59.984375 72.496094 C 58.605469 72.496094 57.484375 73.617188 57.484375 74.996094 C 57.484375 75.6875 56.925781 76.246094 56.234375 76.246094 Z M 56.234375 76.246094 "/>
<path style=" stroke:none;fill-rule:nonzero;fill:rgb(0%,0%,0%);fill-opacity:1;" d="M 63.734375 72.503906 L 59.984375 72.503906 C 59.292969 72.503906 58.734375 71.945312 58.734375 71.253906 C 58.734375 70.5625 59.292969 70.003906 59.984375 70.003906 L 63.734375 70.003906 C 64.425781 70.003906 64.984375 70.5625 64.984375 71.253906 C 64.984375 71.945312 64.425781 72.503906 63.734375 72.503906 Z M 63.734375 72.503906 "/>
<path style=" stroke:none;fill-rule:nonzero;fill:rgb(0%,0%,0%);fill-opacity:1;" d="M 56.234375 80 C 55.542969 80 54.984375 79.441406 54.984375 78.75 L 54.984375 74.996094 C 54.984375 74.304688 55.542969 73.746094 56.234375 73.746094 C 56.925781 73.746094 57.484375 74.304688 57.484375 74.996094 L 57.484375 78.75 C 57.484375 79.441406 56.925781 80 56.234375 80 Z M 56.234375 80 "/>
<path style=" stroke:none;fill-rule:nonzero;fill:rgb(0%,0%,0%);fill-opacity:1;" d="M 78.730469 76.246094 C 78.039062 76.246094 77.480469 75.6875 77.480469 74.996094 C 77.480469 73.617188 76.359375 72.496094 74.980469 72.496094 C 74.289062 72.496094 73.730469 71.9375 73.730469 71.246094 C 73.730469 70.554688 74.289062 69.996094 74.980469 69.996094 C 77.738281 69.996094 79.980469 72.238281 79.980469 74.996094 C 79.980469 75.6875 79.421875 76.246094 78.730469 76.246094 Z M 78.730469 76.246094 "/>
<path style=" stroke:none;fill-rule:nonzero;fill:rgb(0%,0%,0%);fill-opacity:1;" d="M 74.980469 72.503906 L 71.230469 72.503906 C 70.539062 72.503906 69.984375 71.945312 69.984375 71.253906 C 69.984375 70.5625 70.539062 70.003906 71.230469 70.003906 L 74.980469 70.003906 C 75.671875 70.003906 76.230469 70.5625 76.230469 71.253906 C 76.230469 71.945312 75.671875 72.503906 74.980469 72.503906 Z M 74.980469 72.503906 "/>
<path style=" stroke:none;fill-rule:nonzero;fill:rgb(0%,0%,0%);fill-opacity:1;" d="M 78.730469 80 C 78.039062 80 77.480469 79.441406 77.480469 78.75 L 77.480469 74.996094 C 77.480469 74.304688 78.039062 73.746094 78.730469 73.746094 C 79.421875 73.746094 79.980469 74.304688 79.980469 74.996094 L 79.980469 78.75 C 79.980469 79.441406 79.421875 80 78.730469 80 Z M 78.730469 80 "/>
<path style=" stroke:none;fill-rule:nonzero;fill:rgb(0%,0%,0%);fill-opacity:1;" d="M 78.730469 80 L 56.234375 80 C 55.542969 80 54.984375 79.441406 54.984375 78.75 C 54.984375 78.058594 55.542969 77.5 56.234375 77.5 L 78.730469 77.5 C 79.421875 77.5 79.980469 78.058594 79.980469 78.75 C 79.980469 79.441406 79.421875 80 78.730469 80 Z M 78.730469 80 "/>
<path style=" stroke:none;fill-rule:nonzero;fill:rgb(0%,0%,0%);fill-opacity:1;" d="M 63.734375 72.503906 C 63.042969 72.503906 62.484375 71.945312 62.484375 71.253906 L 62.484375 66.652344 C 62.484375 65.960938 63.042969 65.402344 63.734375 65.402344 C 64.425781 65.402344 64.984375 65.960938 64.984375 66.652344 L 64.984375 71.253906 C 64.984375 71.945312 64.425781 72.503906 63.734375 72.503906 Z M 63.734375 72.503906 "/>
<path style=" stroke:none;fill-rule:nonzero;fill:rgb(0%,0%,0%);fill-opacity:1;" d="M 71.230469 72.496094 C 70.539062 72.496094 69.984375 71.9375 69.984375 71.246094 L 69.984375 66.652344 C 69.984375 65.960938 70.539062 65.402344 71.230469 65.402344 C 71.921875 65.402344 72.480469 65.960938 72.480469 66.652344 L 72.480469 71.246094 C 72.480469 71.9375 71.921875 72.496094 71.230469 72.496094 Z M 71.230469 72.496094 "/>
<path style=" stroke:none;fill-rule:nonzero;fill:rgb(0%,0%,0%);fill-opacity:1;" d="M 67.484375 68.742188 C 61.96875 68.742188 57.484375 64.257812 57.484375 58.75 C 57.484375 58.058594 58.042969 57.5 58.734375 57.5 C 59.425781 57.5 59.984375 58.058594 59.984375 58.75 C 59.984375 62.882812 63.347656 66.242188 67.484375 66.242188 C 71.617188 66.242188 74.980469 62.882812 74.980469 58.75 C 74.980469 58.058594 75.539062 57.5 76.230469 57.5 C 76.921875 57.5 77.480469 58.058594 77.480469 58.75 C 77.480469 64.257812 72.996094 68.742188 67.484375 68.742188 Z M 67.484375 68.742188 "/>
<path style=" stroke:none;fill-rule:nonzero;fill:rgb(0%,0%,0%);fill-opacity:1;" d="M 64.984375 73.746094 C 64.527344 73.746094 64.085938 73.492188 63.867188 73.054688 C 63.554688 72.4375 63.808594 71.6875 64.421875 71.378906 L 66.921875 70.128906 C 67.539062 69.820312 68.289062 70.070312 68.601562 70.6875 C 68.910156 71.304688 68.660156 72.054688 68.042969 72.363281 L 65.542969 73.613281 C 65.363281 73.703125 65.171875 73.746094 64.984375 73.746094 Z M 64.984375 73.746094 "/>
<path style=" stroke:none;fill-rule:nonzero;fill:rgb(0%,0%,0%);fill-opacity:1;" d="M 69.984375 73.746094 C 69.664062 73.746094 69.34375 73.621094 69.097656 73.378906 C 68.609375 72.890625 68.609375 72.101562 69.097656 71.613281 L 70.347656 70.363281 C 70.835938 69.875 71.628906 69.875 72.117188 70.363281 C 72.605469 70.851562 72.605469 71.640625 72.117188 72.128906 L 70.867188 73.378906 C 70.621094 73.621094 70.300781 73.746094 69.984375 73.746094 Z M 69.984375 73.746094 "/>
<path style=" stroke:none;fill-rule:nonzero;fill:rgb(0%,0%,0%);fill-opacity:1;" d="M 64.984375 73.746094 C 64.664062 73.746094 64.34375 73.621094 64.101562 73.378906 L 62.851562 72.128906 C 62.363281 71.640625 62.363281 70.851562 62.851562 70.363281 C 63.339844 69.875 64.128906 69.875 64.617188 70.363281 L 65.867188 71.613281 C 66.355469 72.101562 66.355469 72.890625 65.867188 73.378906 C 65.625 73.621094 65.304688 73.746094 64.984375 73.746094 Z M 64.984375 73.746094 "/>
<path style=" stroke:none;fill-rule:nonzero;fill:rgb(0%,0%,0%);fill-opacity:1;" d="M 69.980469 73.746094 C 69.792969 73.746094 69.601562 73.703125 69.425781 73.613281 L 66.925781 72.363281 C 66.308594 72.054688 66.058594 71.304688 66.367188 70.6875 C 66.675781 70.070312 67.425781 69.820312 68.042969 70.128906 L 70.542969 71.378906 C 71.160156 71.6875 71.410156 72.4375 71.101562 73.054688 C 70.882812 73.492188 70.441406 73.746094 69.980469 73.746094 Z M 69.980469 73.746094 "/>
<path style=" stroke:none;fill-rule:nonzero;fill:rgb(0%,0%,0%);fill-opacity:1;" d="M 3.75 60.003906 C 3.058594 60.003906 2.5 59.445312 2.5 58.753906 L 2.5 48.75 C 2.5 48.0625 3.058594 47.5 3.75 47.5 C 4.441406 47.5 5 48.0625 5 48.75 L 5 58.753906 C 5 59.445312 4.441406 60.003906 3.75 60.003906 Z M 3.75 60.003906 "/>
<path style=" stroke:none;fill-rule:nonzero;fill:rgb(0%,0%,0%);fill-opacity:1;" d="M 21.246094 60.003906 C 20.554688 60.003906 19.996094 59.445312 19.996094 58.753906 L 19.996094 58.386719 C 19.996094 57.695312 20.554688 57.136719 21.246094 57.136719 C 21.9375 57.136719 22.496094 57.695312 22.496094 58.386719 L 22.496094 58.753906 C 22.496094 59.445312 21.9375 60.003906 21.246094 60.003906 Z M 21.246094 60.003906 "/>
<path style=" stroke:none;fill-rule:nonzero;fill:rgb(0%,0%,0%);fill-opacity:1;" d="M 1.25 76.246094 C 0.558594 76.246094 0 75.6875 0 74.996094 C 0 72.238281 2.242188 69.996094 5 69.996094 C 5.691406 69.996094 6.25 70.554688 6.25 71.246094 C 6.25 71.9375 5.691406 72.496094 5 72.496094 C 3.621094 72.496094 2.5 73.617188 2.5 74.996094 C 2.5 75.6875 1.941406 76.246094 1.25 76.246094 Z M 1.25 76.246094 "/>
<path style=" stroke:none;fill-rule:nonzero;fill:rgb(0%,0%,0%);fill-opacity:1;" d="M 8.746094 72.503906 L 5 72.503906 C 4.308594 72.503906 3.75 71.945312 3.75 71.253906 C 3.75 70.5625 4.308594 70.003906 5 70.003906 L 8.746094 70.003906 C 9.4375 70.003906 9.996094 70.5625 9.996094 71.253906 C 9.996094 71.945312 9.4375 72.503906 8.746094 72.503906 Z M 8.746094 72.503906 "/>
<path style=" stroke:none;fill-rule:nonzero;fill:rgb(0%,0%,0%);fill-opacity:1;" d="M 1.25 80 C 0.558594 80 0 79.441406 0 78.75 L 0 74.996094 C 0 74.304688 0.558594 73.746094 1.25 73.746094 C 1.941406 73.746094 2.5 74.304688 2.5 74.996094 L 2.5 78.75 C 2.5 79.441406 1.941406 80 1.25 80 Z M 1.25 80 "/>
<path style=" stroke:none;fill-rule:nonzero;fill:rgb(0%,0%,0%);fill-opacity:1;" d="M 23.742188 76.246094 C 23.050781 76.246094 22.496094 75.6875 22.496094 74.996094 C 22.496094 73.617188 21.375 72.496094 19.996094 72.496094 C 19.304688 72.496094 18.746094 71.9375 18.746094 71.246094 C 18.746094 70.554688 19.304688 69.996094 19.996094 69.996094 C 22.75 69.996094 24.992188 72.238281 24.992188 74.996094 C 24.992188 75.6875 24.433594 76.246094 23.742188 76.246094 Z M 23.742188 76.246094 "/>
<path style=" stroke:none;fill-rule:nonzero;fill:rgb(0%,0%,0%);fill-opacity:1;" d="M 19.996094 72.503906 L 16.246094 72.503906 C 15.554688 72.503906 14.996094 71.945312 14.996094 71.253906 C 14.996094 70.5625 15.554688 70.003906 16.246094 70.003906 L 19.996094 70.003906 C 20.6875 70.003906 21.246094 70.5625 21.246094 71.253906 C 21.246094 71.945312 20.6875 72.503906 19.996094 72.503906 Z M 19.996094 72.503906 "/>
<path style=" stroke:none;fill-rule:nonzero;fill:rgb(0%,0%,0%);fill-opacity:1;" d="M 23.742188 80 C 23.050781 80 22.496094 79.441406 22.496094 78.75 L 22.496094 74.996094 C 22.496094 74.304688 23.050781 73.746094 23.742188 73.746094 C 24.433594 73.746094 24.992188 74.304688 24.992188 74.996094 L 24.992188 78.75 C 24.992188 79.441406 24.433594 80 23.742188 80 Z M 23.742188 80 "/>
<path style=" stroke:none;fill-rule:nonzero;fill:rgb(0%,0%,0%);fill-opacity:1;" d="M 23.742188 80 L 1.25 80 C 0.558594 80 0 79.441406 0 78.75 C 0 78.058594 0.558594 77.5 1.25 77.5 L 23.742188 77.5 C 24.433594 77.5 24.992188 78.058594 24.992188 78.75 C 24.992188 79.441406 24.433594 80 23.742188 80 Z M 23.742188 80 "/>
<path style=" stroke:none;fill-rule:nonzero;fill:rgb(0%,0%,0%);fill-opacity:1;" d="M 8.746094 72.503906 C 8.054688 72.503906 7.5 71.945312 7.5 71.253906 L 7.5 66.652344 C 7.5 65.960938 8.054688 65.402344 8.746094 65.402344 C 9.4375 65.402344 9.996094 65.960938 9.996094 66.652344 L 9.996094 71.253906 C 9.996094 71.945312 9.4375 72.503906 8.746094 72.503906 Z M 8.746094 72.503906 "/>
<path style=" stroke:none;fill-rule:nonzero;fill:rgb(0%,0%,0%);fill-opacity:1;" d="M 16.246094 72.496094 C 15.554688 72.496094 14.996094 71.9375 14.996094 71.246094 L 14.996094 66.652344 C 14.996094 65.960938 15.554688 65.402344 16.246094 65.402344 C 16.9375 65.402344 17.496094 65.960938 17.496094 66.652344 L 17.496094 71.246094 C 17.496094 71.9375 16.9375 72.496094 16.246094 72.496094 Z M 16.246094 72.496094 "/>
<path style=" stroke:none;fill-rule:nonzero;fill:rgb(0%,0%,0%);fill-opacity:1;" d="M 12.496094 68.742188 C 6.984375 68.742188 2.5 64.257812 2.5 58.75 C 2.5 58.058594 3.058594 57.5 3.75 57.5 C 4.441406 57.5 5 58.058594 5 58.75 C 5 62.882812 8.363281 66.242188 12.496094 66.242188 C 16.632812 66.242188 19.996094 62.882812 19.996094 58.75 C 19.996094 58.058594 20.554688 57.5 21.246094 57.5 C 21.9375 57.5 22.496094 58.058594 22.496094 58.75 C 22.496094 64.257812 18.007812 68.742188 12.496094 68.742188 Z M 12.496094 68.742188 "/>
<path style=" stroke:none;fill-rule:nonzero;fill:rgb(0%,0%,0%);fill-opacity:1;" d="M 12.496094 74.996094 C 12.257812 74.996094 12.015625 74.925781 11.804688 74.785156 L 8.054688 72.285156 C 7.480469 71.902344 7.324219 71.128906 7.707031 70.550781 C 8.089844 69.976562 8.863281 69.820312 9.441406 70.207031 L 13.191406 72.707031 C 13.765625 73.089844 13.921875 73.863281 13.535156 74.4375 C 13.296875 74.800781 12.898438 74.996094 12.496094 74.996094 Z M 12.496094 74.996094 "/>
<path style=" stroke:none;fill-rule:nonzero;fill:rgb(0%,0%,0%);fill-opacity:1;" d="M 12.5 74.996094 C 12.09375 74.996094 11.695312 74.800781 11.457031 74.4375 C 11.074219 73.863281 11.226562 73.089844 11.804688 72.707031 L 15.550781 70.207031 C 16.125 69.820312 16.902344 69.976562 17.285156 70.550781 C 17.667969 71.128906 17.515625 71.902344 16.941406 72.285156 L 13.191406 74.785156 C 12.976562 74.925781 12.738281 74.996094 12.5 74.996094 Z M 12.5 74.996094 "/>
<path style=" stroke:none;fill-rule:nonzero;fill:rgb(0%,0%,0%);fill-opacity:1;" d="M 23.742188 53.75 C 23.050781 53.75 22.496094 53.191406 22.496094 52.5 C 22.496094 47.679688 18.570312 43.753906 13.746094 43.753906 C 11.523438 43.753906 9.546875 44.960938 8.28125 45.976562 C 7.742188 46.410156 6.953125 46.320312 6.523438 45.785156 C 6.089844 45.246094 6.179688 44.457031 6.714844 44.027344 C 8.980469 42.214844 11.410156 41.253906 13.746094 41.253906 C 19.949219 41.253906 24.992188 46.296875 24.992188 52.5 C 24.992188 53.191406 24.433594 53.75 23.742188 53.75 Z M 23.742188 53.75 "/>
<path style=" stroke:none;fill-rule:nonzero;fill:rgb(0%,0%,0%);fill-opacity:1;" d="M 23.742188 66.246094 C 23.050781 66.246094 22.496094 65.6875 22.496094 64.996094 C 22.496094 60.175781 18.570312 56.25 13.746094 56.25 C 13.054688 56.25 12.496094 55.691406 12.496094 55 C 12.496094 54.308594 13.054688 53.75 13.746094 53.75 C 19.949219 53.75 24.992188 58.796875 24.992188 64.996094 C 24.992188 65.6875 24.433594 66.246094 23.742188 66.246094 Z M 23.742188 66.246094 "/>
<path style=" stroke:none;fill-rule:nonzero;fill:rgb(0%,0%,0%);fill-opacity:1;" d="M 3.75 56.25 C 3.058594 56.25 2.5 55.691406 2.5 55 C 2.5 54.308594 3.058594 53.75 3.75 53.75 C 5.128906 53.75 6.25 52.628906 6.25 51.25 C 6.25 50.558594 6.808594 50 7.5 50 C 8.191406 50 8.746094 50.558594 8.746094 51.25 C 8.746094 54.007812 6.507812 56.25 3.75 56.25 Z M 3.75 56.25 "/>
<path style=" stroke:none;fill-rule:nonzero;fill:rgb(0%,0%,0%);fill-opacity:1;" d="M 3.75 50 C 3.058594 50 2.5 49.441406 2.5 48.75 C 2.5 45.996094 4.742188 43.753906 7.5 43.753906 C 8.191406 43.753906 8.746094 44.3125 8.746094 45.003906 C 8.746094 45.695312 8.191406 46.253906 7.5 46.253906 C 6.121094 46.253906 5 47.371094 5 48.75 C 5 49.441406 4.441406 50 3.75 50 Z M 3.75 50 "/>
<path style=" stroke:none;fill-rule:nonzero;fill:rgb(0%,0%,0%);fill-opacity:1;" d="M 11.246094 56.25 C 8.492188 56.25 6.25 54.007812 6.25 51.25 C 6.25 50.558594 6.808594 50 7.5 50 C 8.191406 50 8.746094 50.558594 8.746094 51.25 C 8.746094 52.628906 9.867188 53.75 11.246094 53.75 C 11.9375 53.75 12.496094 54.308594 12.496094 55 C 12.496094 55.691406 11.9375 56.25 11.246094 56.25 Z M 11.246094 56.25 "/>
<path style=" stroke:none;fill-rule:nonzero;fill:rgb(0%,0%,0%);fill-opacity:1;" d="M 7.5 52.5 C 6.808594 52.5 6.25 51.941406 6.25 51.25 L 6.25 45.003906 C 6.25 44.3125 6.808594 43.753906 7.5 43.753906 C 8.191406 43.753906 8.746094 44.3125 8.746094 45.003906 L 8.746094 51.25 C 8.746094 51.941406 8.191406 52.5 7.5 52.5 Z M 7.5 52.5 "/>
<path style=" stroke:none;fill-rule:nonzero;fill:rgb(0%,0%,0%);fill-opacity:1;" d="M 23.742188 66.246094 C 23.050781 66.246094 22.496094 65.6875 22.496094 64.996094 L 22.496094 52.5 C 22.496094 51.808594 23.050781 51.25 23.742188 51.25 C 24.433594 51.25 24.992188 51.808594 24.992188 52.5 L 24.992188 64.996094 C 24.992188 65.6875 24.433594 66.246094 23.742188 66.246094 Z M 23.742188 66.246094 "/>
<path style=" stroke:none;fill-rule:nonzero;fill:rgb(0%,0%,0%);fill-opacity:1;" d="M 13.746094 56.25 L 11.246094 56.25 C 10.554688 56.25 9.996094 55.691406 9.996094 55 C 9.996094 54.308594 10.554688 53.75 11.246094 53.75 L 13.746094 53.75 C 14.4375 53.75 14.996094 54.308594 14.996094 55 C 14.996094 55.691406 14.4375 56.25 13.746094 56.25 Z M 13.746094 56.25 "/>
<path style=" stroke:none;fill-rule:nonzero;fill:rgb(0%,0%,0%);fill-opacity:1;" d="M 31.242188 60.003906 C 30.550781 60.003906 29.992188 59.445312 29.992188 58.753906 L 29.992188 52.5 C 29.992188 51.8125 30.550781 51.253906 31.242188 51.253906 C 31.933594 51.253906 32.492188 51.8125 32.492188 52.5 L 32.492188 58.753906 C 32.492188 59.445312 31.933594 60.003906 31.242188 60.003906 Z M 31.242188 60.003906 "/>
<path style=" stroke:none;fill-rule:nonzero;fill:rgb(0%,0%,0%);fill-opacity:1;" d="M 48.738281 60.003906 C 48.046875 60.003906 47.488281 59.445312 47.488281 58.753906 L 47.488281 52.5 C 47.488281 51.8125 48.046875 51.253906 48.738281 51.253906 C 49.429688 51.253906 49.988281 51.8125 49.988281 52.5 L 49.988281 58.753906 C 49.988281 59.445312 49.429688 60.003906 48.738281 60.003906 Z M 48.738281 60.003906 "/>
<path style=" stroke:none;fill-rule:nonzero;fill:rgb(0%,0%,0%);fill-opacity:1;" d="M 28.742188 76.246094 C 28.050781 76.246094 27.492188 75.6875 27.492188 74.996094 C 27.492188 72.238281 29.734375 69.996094 32.492188 69.996094 C 33.183594 69.996094 33.742188 70.554688 33.742188 71.246094 C 33.742188 71.9375 33.183594 72.496094 32.492188 72.496094 C 31.113281 72.496094 29.992188 73.617188 29.992188 74.996094 C 29.992188 75.6875 29.433594 76.246094 28.742188 76.246094 Z M 28.742188 76.246094 "/>
<path style=" stroke:none;fill-rule:nonzero;fill:rgb(0%,0%,0%);fill-opacity:1;" d="M 36.242188 72.503906 L 32.492188 72.503906 C 31.800781 72.503906 31.242188 71.945312 31.242188 71.253906 C 31.242188 70.5625 31.800781 70.003906 32.492188 70.003906 L 36.242188 70.003906 C 36.933594 70.003906 37.492188 70.5625 37.492188 71.253906 C 37.492188 71.945312 36.933594 72.503906 36.242188 72.503906 Z M 36.242188 72.503906 "/>
<path style=" stroke:none;fill-rule:nonzero;fill:rgb(0%,0%,0%);fill-opacity:1;" d="M 28.742188 80 C 28.050781 80 27.492188 79.441406 27.492188 78.75 L 27.492188 74.996094 C 27.492188 74.304688 28.050781 73.746094 28.742188 73.746094 C 29.433594 73.746094 29.992188 74.304688 29.992188 74.996094 L 29.992188 78.75 C 29.992188 79.441406 29.433594 80 28.742188 80 Z M 28.742188 80 "/>
<path style=" stroke:none;fill-rule:nonzero;fill:rgb(0%,0%,0%);fill-opacity:1;" d="M 51.238281 76.246094 C 50.546875 76.246094 49.988281 75.6875 49.988281 74.996094 C 49.988281 73.617188 48.867188 72.496094 47.488281 72.496094 C 46.796875 72.496094 46.238281 71.9375 46.238281 71.246094 C 46.238281 70.554688 46.796875 69.996094 47.488281 69.996094 C 50.246094 69.996094 52.488281 72.238281 52.488281 74.996094 C 52.488281 75.6875 51.929688 76.246094 51.238281 76.246094 Z M 51.238281 76.246094 "/>
<path style=" stroke:none;fill-rule:nonzero;fill:rgb(0%,0%,0%);fill-opacity:1;" d="M 47.488281 72.503906 L 43.738281 72.503906 C 43.046875 72.503906 42.488281 71.945312 42.488281 71.253906 C 42.488281 70.5625 43.046875 70.003906 43.738281 70.003906 L 47.488281 70.003906 C 48.179688 70.003906 48.738281 70.5625 48.738281 71.253906 C 48.738281 71.945312 48.179688 72.503906 47.488281 72.503906 Z M 47.488281 72.503906 "/>
<path style=" stroke:none;fill-rule:nonzero;fill:rgb(0%,0%,0%);fill-opacity:1;" d="M 51.238281 80 C 50.546875 80 49.988281 79.441406 49.988281 78.75 L 49.988281 74.996094 C 49.988281 74.304688 50.546875 73.746094 51.238281 73.746094 C 51.929688 73.746094 52.488281 74.304688 52.488281 74.996094 L 52.488281 78.75 C 52.488281 79.441406 51.929688 80 51.238281 80 Z M 51.238281 80 "/>
<path style=" stroke:none;fill-rule:nonzero;fill:rgb(0%,0%,0%);fill-opacity:1;" d="M 51.238281 80 L 28.742188 80 C 28.050781 80 27.492188 79.441406 27.492188 78.75 C 27.492188 78.058594 28.050781 77.5 28.742188 77.5 L 51.238281 77.5 C 51.929688 77.5 52.488281 78.058594 52.488281 78.75 C 52.488281 79.441406 51.929688 80 51.238281 80 Z M 51.238281 80 "/>
<path style=" stroke:none;fill-rule:nonzero;fill:rgb(0%,0%,0%);fill-opacity:1;" d="M 36.242188 72.503906 C 35.550781 72.503906 34.992188 71.945312 34.992188 71.253906 L 34.992188 66.652344 C 34.992188 65.960938 35.550781 65.402344 36.242188 65.402344 C 36.933594 65.402344 37.492188 65.960938 37.492188 66.652344 L 37.492188 71.253906 C 37.492188 71.945312 36.933594 72.503906 36.242188 72.503906 Z M 36.242188 72.503906 "/>
<path style=" stroke:none;fill-rule:nonzero;fill:rgb(0%,0%,0%);fill-opacity:1;" d="M 43.738281 72.496094 C 43.046875 72.496094 42.488281 71.9375 42.488281 71.246094 L 42.488281 66.652344 C 42.488281 65.960938 43.046875 65.402344 43.738281 65.402344 C 44.429688 65.402344 44.988281 65.960938 44.988281 66.652344 L 44.988281 71.246094 C 44.988281 71.9375 44.429688 72.496094 43.738281 72.496094 Z M 43.738281 72.496094 "/>
<path style=" stroke:none;fill-rule:nonzero;fill:rgb(0%,0%,0%);fill-opacity:1;" d="M 39.988281 68.742188 C 34.476562 68.742188 29.992188 64.257812 29.992188 58.75 C 29.992188 58.058594 30.550781 57.5 31.242188 57.5 C 31.933594 57.5 32.492188 58.058594 32.492188 58.75 C 32.492188 62.882812 35.855469 66.242188 39.988281 66.242188 C 44.125 66.242188 47.488281 62.882812 47.488281 58.75 C 47.488281 58.058594 48.046875 57.5 48.738281 57.5 C 49.429688 57.5 49.988281 58.058594 49.988281 58.75 C 49.988281 64.257812 45.503906 68.742188 39.988281 68.742188 Z M 39.988281 68.742188 "/>
<path style=" stroke:none;fill-rule:nonzero;fill:rgb(0%,0%,0%);fill-opacity:1;" d="M 48.738281 53.75 C 48.046875 53.75 47.488281 53.191406 47.488281 52.5 C 47.488281 48.367188 44.125 45.007812 39.988281 45.007812 C 35.855469 45.007812 32.492188 48.367188 32.492188 52.5 C 32.492188 53.191406 31.933594 53.75 31.242188 53.75 C 30.550781 53.75 29.992188 53.191406 29.992188 52.5 C 29.992188 46.992188 34.476562 42.507812 39.988281 42.507812 C 45.503906 42.507812 49.988281 46.992188 49.988281 52.5 C 49.988281 53.191406 49.429688 53.75 48.738281 53.75 Z M 48.738281 53.75 "/>
<path style=" stroke:none;fill-rule:nonzero;fill:rgb(0%,0%,0%);fill-opacity:1;" d="M 37.492188 73.746094 C 37.03125 73.746094 36.59375 73.492188 36.371094 73.054688 C 36.0625 72.4375 36.3125 71.6875 36.929688 71.378906 L 39.429688 70.128906 C 40.046875 69.820312 40.796875 70.070312 41.105469 70.6875 C 41.417969 71.304688 41.164062 72.054688 40.546875 72.363281 L 38.050781 73.613281 C 37.871094 73.703125 37.679688 73.746094 37.492188 73.746094 Z M 37.492188 73.746094 "/>
<path style=" stroke:none;fill-rule:nonzero;fill:rgb(0%,0%,0%);fill-opacity:1;" d="M 42.488281 73.746094 C 42.167969 73.746094 41.847656 73.621094 41.605469 73.378906 C 41.117188 72.890625 41.117188 72.101562 41.605469 71.613281 L 42.855469 70.363281 C 43.34375 69.875 44.132812 69.875 44.621094 70.363281 C 45.113281 70.851562 45.113281 71.640625 44.621094 72.128906 L 43.371094 73.378906 C 43.128906 73.621094 42.808594 73.746094 42.488281 73.746094 Z M 42.488281 73.746094 "/>
<path style=" stroke:none;fill-rule:nonzero;fill:rgb(0%,0%,0%);fill-opacity:1;" d="M 37.492188 73.746094 C 37.171875 73.746094 36.851562 73.621094 36.605469 73.378906 L 35.355469 72.128906 C 34.867188 71.640625 34.867188 70.851562 35.355469 70.363281 C 35.847656 69.875 36.636719 69.875 37.125 70.363281 L 38.375 71.613281 C 38.863281 72.101562 38.863281 72.890625 38.375 73.378906 C 38.128906 73.621094 37.808594 73.746094 37.492188 73.746094 Z M 37.492188 73.746094 "/>
<path style=" stroke:none;fill-rule:nonzero;fill:rgb(0%,0%,0%);fill-opacity:1;" d="M 42.488281 73.746094 C 42.300781 73.746094 42.109375 73.703125 41.929688 73.613281 L 39.433594 72.363281 C 38.8125 72.054688 38.5625 71.304688 38.871094 70.6875 C 39.179688 70.070312 39.933594 69.820312 40.550781 70.128906 L 43.050781 71.378906 C 43.667969 71.6875 43.917969 72.4375 43.609375 73.054688 C 43.386719 73.492188 42.945312 73.746094 42.488281 73.746094 Z M 42.488281 73.746094 "/>
<path style=" stroke:none;fill-rule:nonzero;fill:rgb(0%,0%,0%);fill-opacity:1;" d="M 39.910156 55.023438 C 36.285156 55.023438 33.34375 53.6875 33.21875 53.628906 C 32.59375 53.339844 32.320312 52.601562 32.609375 51.972656 C 32.894531 51.351562 33.636719 51.074219 34.265625 51.359375 C 34.289062 51.371094 36.855469 52.527344 39.914062 52.527344 C 42.992188 52.527344 45.71875 51.371094 45.746094 51.359375 C 46.382812 51.082031 47.117188 51.382812 47.386719 52.011719 C 47.660156 52.648438 47.367188 53.382812 46.734375 53.652344 C 46.605469 53.710938 43.523438 55.023438 39.910156 55.023438 Z M 39.910156 55.023438 "/>
<path style=" stroke:none;fill-rule:nonzero;fill:rgb(0%,0%,0%);fill-opacity:1;" d="M 48.738281 56.253906 C 48.421875 56.253906 48.101562 56.136719 47.859375 55.894531 L 45.359375 53.421875 C 44.867188 52.933594 44.863281 52.144531 45.351562 51.652344 C 45.835938 51.164062 46.625 51.160156 47.117188 51.644531 L 49.617188 54.117188 C 50.109375 54.605469 50.113281 55.394531 49.625 55.886719 C 49.382812 56.132812 49.058594 56.253906 48.738281 56.253906 Z M 48.738281 56.253906 "/>
<path style=" stroke:none;fill-rule:nonzero;fill:rgb(0%,0%,0%);fill-opacity:1;" d="M 31.242188 56.28125 C 30.921875 56.28125 30.601562 56.160156 30.359375 55.917969 C 29.871094 55.429688 29.867188 54.640625 30.355469 54.152344 L 32.855469 51.636719 C 33.34375 51.148438 34.136719 51.144531 34.621094 51.632812 C 35.113281 52.121094 35.113281 52.910156 34.628906 53.402344 L 32.128906 55.914062 C 31.882812 56.15625 31.5625 56.28125 31.242188 56.28125 Z M 31.242188 56.28125 "/>
<path style=" stroke:none;fill-rule:nonzero;fill:rgb(0%,0%,0%);fill-opacity:1;" d="M 39.988281 40.007812 C 39.671875 40.007812 39.351562 39.886719 39.105469 39.644531 L 36.972656 37.511719 L 15.511719 37.511719 L 13.378906 39.644531 C 13.144531 39.878906 12.828125 40.007812 12.496094 40.007812 C 12.164062 40.007812 11.847656 39.878906 11.613281 39.644531 L 9.480469 37.511719 L 1.269531 37.511719 C 0.578125 37.511719 0.0195312 36.953125 0.0195312 36.261719 L 0.0195312 1.269531 C 0.0195312 0.578125 0.578125 0.0195312 1.269531 0.0195312 L 78.75 0.0195312 C 79.441406 0.0195312 80 0.578125 80 1.269531 L 80 36.261719 C 80 36.953125 79.441406 37.511719 78.75 37.511719 L 70.5 37.511719 L 68.367188 39.644531 C 67.875 40.132812 67.085938 40.132812 66.597656 39.644531 L 64.464844 37.511719 L 43.007812 37.511719 L 40.875 39.644531 C 40.628906 39.886719 40.308594 40.007812 39.988281 40.007812 Z M 42.488281 35.011719 L 64.984375 35.011719 C 65.316406 35.011719 65.632812 35.140625 65.867188 35.378906 L 67.480469 36.992188 L 69.097656 35.378906 C 69.332031 35.140625 69.652344 35.011719 69.984375 35.011719 L 77.5 35.011719 L 77.5 2.519531 L 2.519531 2.519531 L 2.519531 35.011719 L 9.996094 35.011719 C 10.328125 35.011719 10.648438 35.140625 10.882812 35.378906 L 12.496094 36.992188 L 14.113281 35.378906 C 14.347656 35.140625 14.664062 35.011719 14.996094 35.011719 L 37.492188 35.011719 C 37.824219 35.011719 38.140625 35.140625 38.375 35.378906 L 39.988281 36.992188 L 41.605469 35.378906 C 41.839844 35.140625 42.15625 35.011719 42.488281 35.011719 Z M 42.488281 35.011719 "/>
<path style=" stroke:none;fill-rule:nonzero;fill:rgb(0%,0%,0%);fill-opacity:1;" d="M 72.503906 17.535156 C 71.8125 17.535156 71.257812 16.976562 71.257812 16.285156 C 71.257812 15.597656 70.695312 15.035156 70.007812 15.035156 C 69.316406 15.035156 68.757812 14.476562 68.757812 13.785156 C 68.757812 13.097656 69.316406 12.535156 70.007812 12.535156 C 72.074219 12.535156 73.753906 14.21875 73.753906 16.285156 C 73.753906 16.976562 73.195312 17.535156 72.503906 17.535156 Z M 72.503906 17.535156 "/>
<path style=" stroke:none;fill-rule:nonzero;fill:rgb(0%,0%,0%);fill-opacity:1;" d="M 70.007812 26.285156 C 69.316406 26.285156 68.757812 25.726562 68.757812 25.035156 C 68.757812 24.34375 69.316406 23.785156 70.007812 23.785156 C 70.695312 23.785156 71.257812 23.222656 71.257812 22.535156 C 71.257812 21.84375 71.8125 21.285156 72.503906 21.285156 C 73.195312 21.285156 73.753906 21.84375 73.753906 22.535156 C 73.753906 24.601562 72.074219 26.285156 70.007812 26.285156 Z M 70.007812 26.285156 "/>
<path style=" stroke:none;fill-rule:nonzero;fill:rgb(0%,0%,0%);fill-opacity:1;" d="M 72.503906 23.785156 C 71.8125 23.785156 71.257812 23.226562 71.257812 22.535156 L 71.257812 16.285156 C 71.257812 15.59375 71.8125 15.035156 72.503906 15.035156 C 73.195312 15.035156 73.753906 15.59375 73.753906 16.285156 L 73.753906 22.535156 C 73.753906 23.222656 73.195312 23.785156 72.503906 23.785156 Z M 72.503906 23.785156 "/>
<path style=" stroke:none;fill-rule:nonzero;fill:rgb(0%,0%,0%);fill-opacity:1;" d="M 70.007812 15.035156 L 67.507812 15.035156 C 66.816406 15.035156 66.257812 14.476562 66.257812 13.785156 C 66.257812 13.097656 66.816406 12.535156 67.507812 12.535156 L 70.007812 12.535156 C 70.695312 12.535156 71.257812 13.097656 71.257812 13.785156 C 71.257812 14.476562 70.695312 15.035156 70.007812 15.035156 Z M 70.007812 15.035156 "/>
<path style=" stroke:none;fill-rule:nonzero;fill:rgb(0%,0%,0%);fill-opacity:1;" d="M 70.007812 26.285156 L 62.507812 26.285156 C 61.816406 26.285156 61.257812 25.726562 61.257812 25.035156 C 61.257812 24.34375 61.816406 23.785156 62.507812 23.785156 L 70.007812 23.785156 C 70.695312 23.785156 71.257812 24.34375 71.257812 25.035156 C 71.257812 25.726562 70.695312 26.285156 70.007812 26.285156 Z M 70.007812 26.285156 "/>
<path style=" stroke:none;fill-rule:nonzero;fill:rgb(0%,0%,0%);fill-opacity:1;" d="M 67.507812 15.035156 C 66.816406 15.035156 66.257812 14.476562 66.257812 13.785156 L 66.257812 9.414062 C 66.257812 8.722656 66.816406 8.164062 67.507812 8.164062 C 68.199219 8.164062 68.757812 8.722656 68.757812 9.414062 L 68.757812 13.785156 C 68.757812 14.476562 68.195312 15.035156 67.507812 15.035156 Z M 67.507812 15.035156 "/>
<path style=" stroke:none;fill-rule:nonzero;fill:rgb(0%,0%,0%);fill-opacity:1;" d="M 62.507812 15.035156 C 62.394531 15.035156 62.28125 15.019531 62.164062 14.988281 C 61.503906 14.796875 61.117188 14.105469 61.304688 13.445312 L 62.554688 9.070312 C 62.746094 8.40625 63.445312 8.027344 64.101562 8.210938 C 64.765625 8.398438 65.148438 9.09375 64.960938 9.753906 L 63.710938 14.128906 C 63.554688 14.675781 63.050781 15.035156 62.507812 15.035156 Z M 62.507812 15.035156 "/>
<path style=" stroke:none;fill-rule:nonzero;fill:rgb(0%,0%,0%);fill-opacity:1;" d="M 63.757812 10.664062 C 63.644531 10.664062 63.527344 10.644531 63.414062 10.613281 C 62.75 10.421875 62.367188 9.730469 62.558594 9.070312 C 62.773438 8.308594 63.355469 6.289062 65.632812 6.289062 C 67.355469 6.289062 68.757812 7.6875 68.757812 9.414062 C 68.757812 10.105469 68.199219 10.664062 67.507812 10.664062 C 66.816406 10.664062 66.257812 10.105469 66.257812 9.414062 C 66.257812 9.070312 65.976562 8.789062 65.632812 8.789062 C 65.402344 8.789062 65.238281 8.789062 64.957031 9.757812 C 64.800781 10.304688 64.300781 10.664062 63.757812 10.664062 Z M 63.757812 10.664062 "/>
<path style=" stroke:none;fill-rule:nonzero;fill:rgb(0%,0%,0%);fill-opacity:1;" d="M 62.507812 26.285156 C 62.1875 26.285156 61.867188 26.160156 61.625 25.917969 L 60.375 24.667969 C 59.886719 24.179688 59.886719 23.390625 60.375 22.902344 C 60.863281 22.410156 61.652344 22.410156 62.140625 22.902344 L 63.390625 24.148438 C 63.878906 24.640625 63.878906 25.429688 63.390625 25.917969 C 63.144531 26.160156 62.828125 26.285156 62.507812 26.285156 Z M 62.507812 26.285156 "/>
<path style=" stroke:none;fill-rule:nonzero;fill:rgb(0%,0%,0%);fill-opacity:1;" d="M 62.507812 15.035156 L 58.757812 15.035156 C 58.066406 15.035156 57.507812 14.476562 57.507812 13.785156 C 57.507812 13.097656 58.066406 12.535156 58.757812 12.535156 L 62.507812 12.535156 C 63.199219 12.535156 63.757812 13.097656 63.757812 13.785156 C 63.757812 14.476562 63.199219 15.035156 62.507812 15.035156 Z M 62.507812 15.035156 "/>
<path style=" stroke:none;fill-rule:nonzero;fill:rgb(0%,0%,0%);fill-opacity:1;" d="M 61.257812 25.035156 L 58.757812 25.035156 C 58.066406 25.035156 57.507812 24.476562 57.507812 23.785156 C 57.507812 23.09375 58.066406 22.535156 58.757812 22.535156 L 61.257812 22.535156 C 61.949219 22.535156 62.507812 23.09375 62.507812 23.785156 C 62.507812 24.476562 61.949219 25.035156 61.257812 25.035156 Z M 61.257812 25.035156 "/>
<path style=" stroke:none;fill-rule:nonzero;fill:rgb(0%,0%,0%);fill-opacity:1;" d="M 58.757812 26.285156 L 53.761719 26.285156 C 53.070312 26.285156 52.511719 25.726562 52.511719 25.035156 L 52.511719 12.535156 C 52.511719 11.847656 53.070312 11.285156 53.761719 11.285156 L 58.757812 11.285156 C 59.449219 11.285156 60.007812 11.847656 60.007812 12.535156 L 60.007812 25.035156 C 60.007812 25.722656 59.449219 26.285156 58.757812 26.285156 Z M 55.011719 23.785156 L 57.507812 23.785156 L 57.507812 13.785156 L 55.011719 13.785156 Z M 55.011719 23.785156 "/>
<path style=" stroke:none;fill-rule:nonzero;fill:rgb(0%,0%,0%);fill-opacity:1;" d="M 9.996094 25.039062 C 7.929688 25.039062 6.246094 23.355469 6.246094 21.289062 C 6.246094 20.597656 6.804688 20.039062 7.496094 20.039062 C 8.1875 20.039062 8.746094 20.597656 8.746094 21.289062 C 8.746094 21.980469 9.304688 22.539062 9.996094 22.539062 C 10.6875 22.539062 11.246094 23.097656 11.246094 23.789062 C 11.246094 24.480469 10.6875 25.039062 9.996094 25.039062 Z M 9.996094 25.039062 "/>
<path style=" stroke:none;fill-rule:nonzero;fill:rgb(0%,0%,0%);fill-opacity:1;" d="M 7.496094 16.289062 C 6.804688 16.289062 6.246094 15.730469 6.246094 15.042969 C 6.246094 12.972656 7.929688 11.292969 9.996094 11.292969 C 10.6875 11.292969 11.246094 11.851562 11.246094 12.542969 C 11.246094 13.234375 10.6875 13.792969 9.996094 13.792969 C 9.304688 13.792969 8.746094 14.351562 8.746094 15.042969 C 8.746094 15.730469 8.1875 16.289062 7.496094 16.289062 Z M 7.496094 16.289062 "/>
<path style=" stroke:none;fill-rule:nonzero;fill:rgb(0%,0%,0%);fill-opacity:1;" d="M 7.496094 22.539062 C 6.804688 22.539062 6.246094 21.980469 6.246094 21.289062 L 6.246094 15.042969 C 6.246094 14.351562 6.804688 13.792969 7.496094 13.792969 C 8.1875 13.792969 8.746094 14.351562 8.746094 15.042969 L 8.746094 21.289062 C 8.746094 21.980469 8.1875 22.539062 7.496094 22.539062 Z M 7.496094 22.539062 "/>
<path style=" stroke:none;fill-rule:nonzero;fill:rgb(0%,0%,0%);fill-opacity:1;" d="M 12.496094 25.039062 L 9.996094 25.039062 C 9.304688 25.039062 8.746094 24.480469 8.746094 23.789062 C 8.746094 23.097656 9.304688 22.539062 9.996094 22.539062 L 12.496094 22.539062 C 13.1875 22.539062 13.746094 23.097656 13.746094 23.789062 C 13.746094 24.480469 13.1875 25.039062 12.496094 25.039062 Z M 12.496094 25.039062 "/>
<path style=" stroke:none;fill-rule:nonzero;fill:rgb(0%,0%,0%);fill-opacity:1;" d="M 17.496094 13.792969 L 9.996094 13.792969 C 9.304688 13.792969 8.746094 13.234375 8.746094 12.542969 C 8.746094 11.851562 9.304688 11.292969 9.996094 11.292969 L 17.496094 11.292969 C 18.183594 11.292969 18.742188 11.851562 18.742188 12.542969 C 18.742188 13.234375 18.183594 13.792969 17.496094 13.792969 Z M 17.496094 13.792969 "/>
<path style=" stroke:none;fill-rule:nonzero;fill:rgb(0%,0%,0%);fill-opacity:1;" d="M 12.496094 29.414062 C 11.804688 29.414062 11.246094 28.855469 11.246094 28.164062 L 11.246094 23.789062 C 11.246094 23.097656 11.804688 22.539062 12.496094 22.539062 C 13.1875 22.539062 13.746094 23.097656 13.746094 23.789062 L 13.746094 28.164062 C 13.746094 28.851562 13.1875 29.414062 12.496094 29.414062 Z M 12.496094 29.414062 "/>
<path style=" stroke:none;fill-rule:nonzero;fill:rgb(0%,0%,0%);fill-opacity:1;" d="M 16.246094 29.414062 C 16.132812 29.414062 16.015625 29.398438 15.902344 29.367188 C 15.238281 29.175781 14.855469 28.484375 15.042969 27.820312 L 16.292969 23.445312 C 16.480469 22.78125 17.179688 22.40625 17.835938 22.585938 C 18.5 22.777344 18.886719 23.46875 18.695312 24.132812 L 17.445312 28.503906 C 17.289062 29.054688 16.789062 29.414062 16.246094 29.414062 Z M 16.246094 29.414062 "/>
<path style=" stroke:none;fill-rule:nonzero;fill:rgb(0%,0%,0%);fill-opacity:1;" d="M 14.371094 31.285156 C 12.648438 31.285156 11.246094 29.886719 11.246094 28.164062 C 11.246094 27.472656 11.804688 26.914062 12.496094 26.914062 C 13.1875 26.914062 13.746094 27.472656 13.746094 28.164062 C 13.746094 28.507812 14.027344 28.789062 14.371094 28.789062 C 14.601562 28.789062 14.765625 28.789062 15.042969 27.820312 C 15.234375 27.15625 15.921875 26.769531 16.589844 26.960938 C 17.253906 27.152344 17.636719 27.84375 17.445312 28.507812 C 17.226562 29.265625 16.648438 31.285156 14.371094 31.285156 Z M 14.371094 31.285156 "/>
<path style=" stroke:none;fill-rule:nonzero;fill:rgb(0%,0%,0%);fill-opacity:1;" d="M 18.742188 15.042969 C 18.425781 15.042969 18.105469 14.917969 17.859375 14.675781 L 16.609375 13.425781 C 16.121094 12.9375 16.121094 12.148438 16.609375 11.65625 C 17.097656 11.171875 17.890625 11.171875 18.378906 11.65625 L 19.628906 12.90625 C 20.117188 13.398438 20.117188 14.1875 19.628906 14.675781 C 19.382812 14.917969 19.0625 15.042969 18.742188 15.042969 Z M 18.742188 15.042969 "/>
<path style=" stroke:none;fill-rule:nonzero;fill:rgb(0%,0%,0%);fill-opacity:1;" d="M 21.242188 25.039062 L 17.496094 25.039062 C 16.804688 25.039062 16.246094 24.480469 16.246094 23.789062 C 16.246094 23.097656 16.804688 22.539062 17.496094 22.539062 L 21.242188 22.539062 C 21.933594 22.539062 22.492188 23.097656 22.492188 23.789062 C 22.492188 24.480469 21.933594 25.039062 21.242188 25.039062 Z M 21.242188 25.039062 "/>
<path style=" stroke:none;fill-rule:nonzero;fill:rgb(0%,0%,0%);fill-opacity:1;" d="M 21.242188 15.042969 L 18.742188 15.042969 C 18.054688 15.042969 17.496094 14.484375 17.496094 13.792969 C 17.496094 13.101562 18.054688 12.542969 18.742188 12.542969 L 21.242188 12.542969 C 21.933594 12.542969 22.492188 13.101562 22.492188 13.792969 C 22.492188 14.484375 21.933594 15.042969 21.242188 15.042969 Z M 21.242188 15.042969 "/>
<path style=" stroke:none;fill-rule:nonzero;fill:rgb(0%,0%,0%);fill-opacity:1;" d="M 26.242188 26.289062 L 21.242188 26.289062 C 20.550781 26.289062 19.992188 25.730469 19.992188 25.039062 L 19.992188 12.542969 C 19.992188 11.851562 20.550781 11.292969 21.242188 11.292969 L 26.242188 11.292969 C 26.933594 11.292969 27.492188 11.851562 27.492188 12.542969 L 27.492188 25.039062 C 27.492188 25.730469 26.933594 26.289062 26.242188 26.289062 Z M 22.492188 23.789062 L 24.992188 23.789062 L 24.992188 13.792969 L 22.492188 13.792969 Z M 22.492188 23.789062 "/>
<path style=" stroke:none;fill-rule:nonzero;fill:rgb(0%,0%,0%);fill-opacity:1;" d="M 40.011719 26.289062 C 39.320312 26.289062 38.761719 25.730469 38.761719 25.039062 C 38.761719 22.773438 40.367188 21.535156 41.785156 20.4375 C 43.441406 19.152344 45.007812 17.941406 45.007812 15.039062 C 45.007812 12.28125 42.765625 10.039062 40.011719 10.039062 C 37.253906 10.039062 35.011719 12.28125 35.011719 15.039062 C 35.011719 15.730469 34.453125 16.285156 33.761719 16.285156 C 33.070312 16.285156 32.511719 15.730469 32.511719 15.039062 C 32.511719 10.902344 35.875 7.539062 40.011719 7.539062 C 44.144531 7.539062 47.507812 10.902344 47.507812 15.039062 C 47.507812 19.167969 45.082031 21.042969 43.3125 22.414062 C 41.964844 23.457031 41.261719 24.046875 41.261719 25.039062 C 41.261719 25.730469 40.699219 26.289062 40.011719 26.289062 Z M 40.011719 26.289062 "/>
<path style=" stroke:none;fill-rule:nonzero;fill:rgb(0%,0%,0%);fill-opacity:1;" d="M 40.046875 30.035156 C 39.355469 30.035156 38.792969 29.476562 38.792969 28.785156 C 38.792969 28.09375 39.34375 27.535156 40.035156 27.535156 L 40.046875 27.535156 C 40.738281 27.535156 41.296875 28.09375 41.296875 28.785156 C 41.296875 29.476562 40.738281 30.035156 40.046875 30.035156 Z M 40.046875 30.035156 "/>
</g>
</svg>
