<?xml version="1.0" encoding="UTF-8"?>
<svg xmlns="http://www.w3.org/2000/svg" xmlns:xlink="http://www.w3.org/1999/xlink" width="80pt" height="80pt" viewBox="0 0 80 80" version="1.1">
<g id="surface1">
<path style=" stroke:none;fill-rule:nonzero;fill:rgb(0%,0%,0%);fill-opacity:1;" d="M 5.035156 8.769531 C 4.34375 8.769531 3.78125 8.210938 3.78125 7.519531 C 3.78125 6.828125 4.332031 6.269531 5.023438 6.269531 L 5.035156 6.269531 C 5.726562 6.269531 6.285156 6.828125 6.285156 7.519531 C 6.285156 8.210938 5.726562 8.769531 5.035156 8.769531 Z M 5.035156 8.769531 "/>
<path style=" stroke:none;fill-rule:nonzero;fill:rgb(0%,0%,0%);fill-opacity:1;" d="M 8.785156 8.769531 C 8.09375 8.769531 7.527344 8.210938 7.527344 7.519531 C 7.527344 6.828125 8.082031 6.269531 8.769531 6.269531 L 8.785156 6.269531 C 9.476562 6.269531 10.035156 6.828125 10.035156 7.519531 C 10.035156 8.210938 9.476562 8.769531 8.785156 8.769531 Z M 8.785156 8.769531 "/>
<path style=" stroke:none;fill-rule:nonzero;fill:rgb(0%,0%,0%);fill-opacity:1;" d="M 12.535156 8.769531 C 11.84375 8.769531 11.277344 8.210938 11.277344 7.519531 C 11.277344 6.828125 11.832031 6.269531 12.519531 6.269531 L 12.535156 6.269531 C 13.222656 6.269531 13.785156 6.828125 13.785156 7.519531 C 13.785156 8.210938 13.222656 8.769531 12.535156 8.769531 Z M 12.535156 8.769531 "/>
<path style=" stroke:none;fill-rule:nonzero;fill:rgb(0%,0%,0%);fill-opacity:1;" d="M 78.75 76.246094 L 1.273438 76.246094 C 0.582031 76.246094 0.0234375 75.6875 0.0234375 74.996094 L 0.0234375 10.019531 C 0.0234375 9.328125 0.582031 8.769531 1.273438 8.769531 L 78.75 8.769531 C 79.441406 8.769531 80 9.328125 80 10.019531 L 80 74.996094 C 80 75.6875 79.441406 76.246094 78.75 76.246094 Z M 2.523438 73.746094 L 77.5 73.746094 L 77.5 11.269531 L 2.523438 11.269531 Z M 2.523438 73.746094 "/>
<path style=" stroke:none;fill-rule:nonzero;fill:rgb(0%,0%,0%);fill-opacity:1;" d="M 1.25 8.769531 C 0.558594 8.769531 0 8.210938 0 7.519531 C 0 5.453125 1.683594 3.769531 3.75 3.769531 C 4.441406 3.769531 5 4.332031 5 5.019531 C 5 5.710938 4.441406 6.269531 3.75 6.269531 C 3.058594 6.269531 2.5 6.832031 2.5 7.519531 C 2.5 8.210938 1.941406 8.769531 1.25 8.769531 Z M 1.25 8.769531 "/>
<path style=" stroke:none;fill-rule:nonzero;fill:rgb(0%,0%,0%);fill-opacity:1;" d="M 1.25 11.269531 C 0.558594 11.269531 0 10.710938 0 10.019531 L 0 7.519531 C 0 6.828125 0.558594 6.269531 1.25 6.269531 C 1.941406 6.269531 2.5 6.828125 2.5 7.519531 L 2.5 10.019531 C 2.5 10.710938 1.941406 11.269531 1.25 11.269531 Z M 1.25 11.269531 "/>
<path style=" stroke:none;fill-rule:nonzero;fill:rgb(0%,0%,0%);fill-opacity:1;" d="M 78.726562 8.769531 C 78.035156 8.769531 77.476562 8.210938 77.476562 7.519531 C 77.476562 6.832031 76.917969 6.269531 76.230469 6.269531 C 75.539062 6.269531 74.980469 5.710938 74.980469 5.019531 C 74.980469 4.332031 75.539062 3.769531 76.230469 3.769531 C 78.296875 3.769531 79.976562 5.453125 79.976562 7.519531 C 79.976562 8.210938 79.417969 8.769531 78.726562 8.769531 Z M 78.726562 8.769531 "/>
<path style=" stroke:none;fill-rule:nonzero;fill:rgb(0%,0%,0%);fill-opacity:1;" d="M 78.726562 11.269531 C 78.035156 11.269531 77.476562 10.710938 77.476562 10.019531 L 77.476562 7.519531 C 77.476562 6.828125 78.035156 6.269531 78.726562 6.269531 C 79.417969 6.269531 79.976562 6.828125 79.976562 7.519531 L 79.976562 10.019531 C 79.976562 10.710938 79.417969 11.269531 78.726562 11.269531 Z M 78.726562 11.269531 "/>
<path style=" stroke:none;fill-rule:nonzero;fill:rgb(0%,0%,0%);fill-opacity:1;" d="M 76.230469 6.269531 L 3.75 6.269531 C 3.058594 6.269531 2.5 5.710938 2.5 5.019531 C 2.5 4.332031 3.058594 3.769531 3.75 3.769531 L 76.230469 3.769531 C 76.917969 3.769531 77.476562 4.332031 77.476562 5.019531 C 77.476562 5.710938 76.917969 6.269531 76.230469 6.269531 Z M 76.230469 6.269531 "/>
<path style=" stroke:none;fill-rule:nonzero;fill:rgb(0%,0%,0%);fill-opacity:1;" d="M 73.757812 51.273438 L 6.28125 51.273438 C 5.589844 51.273438 5.03125 50.714844 5.03125 50.023438 L 5.03125 15.039062 C 5.03125 14.347656 5.589844 13.789062 6.28125 13.789062 L 73.757812 13.789062 C 74.449219 13.789062 75.007812 14.347656 75.007812 15.039062 L 75.007812 50.023438 C 75.007812 50.714844 74.449219 51.273438 73.757812 51.273438 Z M 7.527344 48.773438 L 72.507812 48.773438 L 72.507812 16.289062 L 7.527344 16.289062 Z M 7.527344 48.773438 "/>
<path style=" stroke:none;fill-rule:nonzero;fill:rgb(0%,0%,0%);fill-opacity:1;" d="M 68.765625 33.777344 L 43.753906 33.777344 C 43.0625 33.777344 42.503906 33.21875 42.503906 32.527344 C 42.503906 31.835938 43.0625 31.277344 43.753906 31.277344 L 68.765625 31.277344 C 69.457031 31.277344 70.015625 31.835938 70.015625 32.527344 C 70.015625 33.21875 69.453125 33.777344 68.765625 33.777344 Z M 68.765625 33.777344 "/>
<path style=" stroke:none;fill-rule:nonzero;fill:rgb(0%,0%,0%);fill-opacity:1;" d="M 68.765625 30.023438 L 43.753906 30.023438 C 43.0625 30.023438 42.503906 29.464844 42.503906 28.773438 C 42.503906 28.082031 43.0625 27.523438 43.753906 27.523438 L 68.765625 27.523438 C 69.457031 27.523438 70.015625 28.082031 70.015625 28.773438 C 70.015625 29.464844 69.453125 30.023438 68.765625 30.023438 Z M 68.765625 30.023438 "/>
<path style=" stroke:none;fill-rule:nonzero;fill:rgb(0%,0%,0%);fill-opacity:1;" d="M 68.765625 26.273438 L 43.753906 26.273438 C 43.0625 26.273438 42.503906 25.714844 42.503906 25.023438 C 42.503906 24.332031 43.0625 23.773438 43.753906 23.773438 L 68.765625 23.773438 C 69.457031 23.773438 70.015625 24.332031 70.015625 25.023438 C 70.015625 25.714844 69.453125 26.273438 68.765625 26.273438 Z M 68.765625 26.273438 "/>
<path style=" stroke:none;fill-rule:nonzero;fill:rgb(0%,0%,0%);fill-opacity:1;" d="M 68.765625 37.523438 L 43.753906 37.523438 C 43.0625 37.523438 42.503906 36.964844 42.503906 36.273438 C 42.503906 35.582031 43.0625 35.023438 43.753906 35.023438 L 68.765625 35.023438 C 69.457031 35.023438 70.015625 35.582031 70.015625 36.273438 C 70.015625 36.964844 69.453125 37.523438 68.765625 37.523438 Z M 68.765625 37.523438 "/>
<path style=" stroke:none;fill-rule:nonzero;fill:rgb(0%,0%,0%);fill-opacity:1;" d="M 57.507812 41.277344 L 43.753906 41.277344 C 43.0625 41.277344 42.503906 40.71875 42.503906 40.027344 C 42.503906 39.335938 43.0625 38.777344 43.753906 38.777344 L 57.507812 38.777344 C 58.195312 38.777344 58.757812 39.335938 58.757812 40.027344 C 58.757812 40.71875 58.195312 41.277344 57.507812 41.277344 Z M 57.507812 41.277344 "/>
<path style=" stroke:none;fill-rule:nonzero;fill:rgb(0%,0%,0%);fill-opacity:1;" d="M 32.523438 26.257812 L 15.035156 26.257812 C 14.34375 26.257812 13.785156 25.699219 13.785156 25.007812 C 13.785156 24.316406 14.34375 23.757812 15.035156 23.757812 L 32.523438 23.757812 C 33.214844 23.757812 33.773438 24.316406 33.773438 25.007812 C 33.773438 25.699219 33.214844 26.257812 32.523438 26.257812 Z M 32.523438 26.257812 "/>
<path style=" stroke:none;fill-rule:nonzero;fill:rgb(0%,0%,0%);fill-opacity:1;" d="M 23.78125 45.003906 C 23.089844 45.003906 22.53125 44.445312 22.53125 43.753906 L 22.53125 21.257812 C 22.53125 20.566406 23.089844 20.007812 23.78125 20.007812 C 24.472656 20.007812 25.03125 20.566406 25.03125 21.257812 L 25.03125 43.753906 C 25.03125 44.445312 24.472656 45.003906 23.78125 45.003906 Z M 23.78125 45.003906 "/>
<path style=" stroke:none;fill-rule:nonzero;fill:rgb(0%,0%,0%);fill-opacity:1;" d="M 30.027344 45.003906 L 17.539062 45.003906 C 16.847656 45.003906 16.289062 44.445312 16.289062 43.753906 C 16.289062 43.0625 16.847656 42.503906 17.539062 42.503906 L 30.027344 42.503906 C 30.71875 42.503906 31.277344 43.0625 31.277344 43.753906 C 31.277344 44.445312 30.714844 45.003906 30.027344 45.003906 Z M 30.027344 45.003906 "/>
<path style=" stroke:none;fill-rule:nonzero;fill:rgb(0%,0%,0%);fill-opacity:1;" d="M 15.035156 38.753906 C 12.277344 38.753906 10.039062 36.511719 10.039062 33.753906 C 10.039062 33.066406 10.597656 32.503906 11.285156 32.503906 C 11.976562 32.503906 12.535156 33.066406 12.535156 33.753906 C 12.535156 35.132812 13.65625 36.253906 15.035156 36.253906 C 16.414062 36.253906 17.535156 35.132812 17.535156 33.753906 C 17.535156 33.066406 18.09375 32.503906 18.785156 32.503906 C 19.476562 32.503906 20.035156 33.066406 20.035156 33.753906 C 20.035156 36.511719 17.792969 38.753906 15.035156 38.753906 Z M 15.035156 38.753906 "/>
<path style=" stroke:none;fill-rule:nonzero;fill:rgb(0%,0%,0%);fill-opacity:1;" d="M 18.785156 35.003906 L 11.285156 35.003906 C 10.597656 35.003906 10.039062 34.445312 10.039062 33.753906 C 10.039062 33.066406 10.597656 32.503906 11.285156 32.503906 L 18.785156 32.503906 C 19.476562 32.503906 20.035156 33.066406 20.035156 33.753906 C 20.035156 34.445312 19.476562 35.003906 18.785156 35.003906 Z M 18.785156 35.003906 "/>
<path style=" stroke:none;fill-rule:nonzero;fill:rgb(0%,0%,0%);fill-opacity:1;" d="M 11.285156 35.003906 C 11.121094 35.003906 10.953125 34.972656 10.792969 34.902344 C 10.160156 34.632812 9.867188 33.898438 10.136719 33.261719 L 13.886719 24.515625 C 14.160156 23.878906 14.898438 23.585938 15.527344 23.859375 C 16.164062 24.132812 16.457031 24.867188 16.183594 25.5 L 12.433594 34.246094 C 12.234375 34.722656 11.773438 35.003906 11.285156 35.003906 Z M 11.285156 35.003906 "/>
<path style=" stroke:none;fill-rule:nonzero;fill:rgb(0%,0%,0%);fill-opacity:1;" d="M 18.785156 35.003906 C 18.300781 35.003906 17.839844 34.722656 17.636719 34.246094 L 13.886719 25.5 C 13.613281 24.867188 13.910156 24.132812 14.542969 23.859375 C 15.171875 23.582031 15.910156 23.878906 16.183594 24.515625 L 19.933594 33.261719 C 20.207031 33.898438 19.910156 34.632812 19.277344 34.902344 C 19.117188 34.972656 18.949219 35.003906 18.785156 35.003906 Z M 18.785156 35.003906 "/>
<path style=" stroke:none;fill-rule:nonzero;fill:rgb(0%,0%,0%);fill-opacity:1;" d="M 32.523438 38.753906 C 29.769531 38.753906 27.527344 36.511719 27.527344 33.753906 C 27.527344 33.066406 28.085938 32.503906 28.777344 32.503906 C 29.46875 32.503906 30.023438 33.066406 30.023438 33.753906 C 30.023438 35.132812 31.144531 36.253906 32.523438 36.253906 C 33.902344 36.253906 35.023438 35.132812 35.023438 33.753906 C 35.023438 33.066406 35.582031 32.503906 36.273438 32.503906 C 36.964844 32.503906 37.523438 33.066406 37.523438 33.753906 C 37.523438 36.511719 35.28125 38.753906 32.523438 38.753906 Z M 32.523438 38.753906 "/>
<path style=" stroke:none;fill-rule:nonzero;fill:rgb(0%,0%,0%);fill-opacity:1;" d="M 36.273438 35.003906 L 28.777344 35.003906 C 28.085938 35.003906 27.527344 34.445312 27.527344 33.753906 C 27.527344 33.066406 28.085938 32.503906 28.777344 32.503906 L 36.273438 32.503906 C 36.964844 32.503906 37.523438 33.066406 37.523438 33.753906 C 37.523438 34.445312 36.964844 35.003906 36.273438 35.003906 Z M 36.273438 35.003906 "/>
<path style=" stroke:none;fill-rule:nonzero;fill:rgb(0%,0%,0%);fill-opacity:1;" d="M 28.777344 35.003906 C 28.609375 35.003906 28.445312 34.972656 28.28125 34.902344 C 27.648438 34.632812 27.355469 33.898438 27.628906 33.261719 L 31.375 24.515625 C 31.648438 23.878906 32.386719 23.585938 33.015625 23.859375 C 33.652344 24.132812 33.945312 24.867188 33.671875 25.5 L 29.925781 34.246094 C 29.71875 34.722656 29.257812 35.003906 28.777344 35.003906 Z M 28.777344 35.003906 "/>
<path style=" stroke:none;fill-rule:nonzero;fill:rgb(0%,0%,0%);fill-opacity:1;" d="M 36.273438 35.003906 C 35.789062 35.003906 35.328125 34.722656 35.125 34.246094 L 31.375 25.5 C 31.105469 24.867188 31.398438 24.132812 32.03125 23.859375 C 32.660156 23.582031 33.402344 23.878906 33.671875 24.515625 L 37.421875 33.261719 C 37.695312 33.898438 37.398438 34.632812 36.765625 34.902344 C 36.605469 34.972656 36.4375 35.003906 36.273438 35.003906 Z M 36.273438 35.003906 "/>
<path style=" stroke:none;fill-rule:nonzero;fill:rgb(0%,0%,0%);fill-opacity:1;" d="M 16.90625 60.003906 C 15.183594 60.003906 13.785156 58.605469 13.785156 56.882812 C 13.785156 55.15625 15.183594 53.757812 16.90625 53.757812 C 18.632812 53.757812 20.03125 55.15625 20.03125 56.882812 C 20.03125 58.605469 18.632812 60.003906 16.90625 60.003906 Z M 16.90625 56.257812 C 16.5625 56.257812 16.28125 56.539062 16.28125 56.882812 C 16.28125 57.226562 16.5625 57.507812 16.90625 57.507812 C 17.25 57.507812 17.53125 57.226562 17.53125 56.882812 C 17.53125 56.539062 17.253906 56.257812 16.90625 56.257812 Z M 16.90625 56.257812 "/>
<path style=" stroke:none;fill-rule:nonzero;fill:rgb(0%,0%,0%);fill-opacity:1;" d="M 20.03125 63.128906 C 19.339844 63.128906 18.78125 62.570312 18.78125 61.878906 C 18.78125 60.847656 17.941406 60.003906 16.90625 60.003906 C 15.875 60.003906 15.03125 60.847656 15.03125 61.878906 C 15.03125 62.570312 14.476562 63.128906 13.785156 63.128906 C 13.09375 63.128906 12.535156 62.570312 12.535156 61.878906 C 12.535156 59.46875 14.496094 57.507812 16.90625 57.507812 C 19.320312 57.507812 21.28125 59.46875 21.28125 61.878906 C 21.28125 62.570312 20.722656 63.128906 20.03125 63.128906 Z M 20.03125 63.128906 "/>
<path style=" stroke:none;fill-rule:nonzero;fill:rgb(0%,0%,0%);fill-opacity:1;" d="M 13.785156 63.753906 C 13.09375 63.753906 12.535156 63.195312 12.535156 62.503906 L 12.535156 61.878906 C 12.535156 61.1875 13.09375 60.628906 13.785156 60.628906 C 14.476562 60.628906 15.03125 61.1875 15.03125 61.878906 L 15.03125 62.503906 C 15.03125 63.195312 14.476562 63.753906 13.785156 63.753906 Z M 13.785156 63.753906 "/>
<path style=" stroke:none;fill-rule:nonzero;fill:rgb(0%,0%,0%);fill-opacity:1;" d="M 20.03125 63.753906 L 13.785156 63.753906 C 13.09375 63.753906 12.535156 63.195312 12.535156 62.503906 C 12.535156 61.8125 13.09375 61.253906 13.785156 61.253906 L 20.03125 61.253906 C 20.722656 61.253906 21.28125 61.8125 21.28125 62.503906 C 21.28125 63.195312 20.722656 63.753906 20.03125 63.753906 Z M 20.03125 63.753906 "/>
<path style=" stroke:none;fill-rule:nonzero;fill:rgb(0%,0%,0%);fill-opacity:1;" d="M 20.03125 63.753906 C 19.339844 63.753906 18.78125 63.195312 18.78125 62.503906 L 18.78125 61.878906 C 18.78125 61.1875 19.339844 60.628906 20.03125 60.628906 C 20.722656 60.628906 21.28125 61.1875 21.28125 61.878906 L 21.28125 62.503906 C 21.28125 63.195312 20.722656 63.753906 20.03125 63.753906 Z M 20.03125 63.753906 "/>
<path style=" stroke:none;fill-rule:nonzero;fill:rgb(0%,0%,0%);fill-opacity:1;" d="M 25.023438 67.507812 L 8.78125 67.507812 C 8.089844 67.507812 7.53125 66.949219 7.53125 66.257812 C 7.53125 65.566406 8.089844 65.007812 8.78125 65.007812 L 25.023438 65.007812 C 25.714844 65.007812 26.273438 65.566406 26.273438 66.257812 C 26.273438 66.949219 25.714844 67.507812 25.023438 67.507812 Z M 25.023438 67.507812 "/>
<path style=" stroke:none;fill-rule:nonzero;fill:rgb(0%,0%,0%);fill-opacity:1;" d="M 21.277344 71.257812 L 12.53125 71.257812 C 11.839844 71.257812 11.28125 70.699219 11.28125 70.007812 C 11.28125 69.316406 11.839844 68.757812 12.53125 68.757812 L 21.277344 68.757812 C 21.96875 68.757812 22.527344 69.316406 22.527344 70.007812 C 22.527344 70.699219 21.964844 71.257812 21.277344 71.257812 Z M 21.277344 71.257812 "/>
<path style=" stroke:none;fill-rule:nonzero;fill:rgb(0%,0%,0%);fill-opacity:1;" d="M 40.015625 60.003906 C 38.289062 60.003906 36.890625 58.605469 36.890625 56.882812 C 36.890625 55.15625 38.289062 53.757812 40.015625 53.757812 C 41.738281 53.757812 43.136719 55.15625 43.136719 56.882812 C 43.136719 58.605469 41.738281 60.003906 40.015625 60.003906 Z M 40.015625 56.257812 C 39.671875 56.257812 39.390625 56.539062 39.390625 56.882812 C 39.390625 57.226562 39.671875 57.507812 40.015625 57.507812 C 40.355469 57.507812 40.636719 57.226562 40.636719 56.882812 C 40.636719 56.539062 40.355469 56.257812 40.015625 56.257812 Z M 40.015625 56.257812 "/>
<path style=" stroke:none;fill-rule:nonzero;fill:rgb(0%,0%,0%);fill-opacity:1;" d="M 43.136719 63.128906 C 42.445312 63.128906 41.886719 62.570312 41.886719 61.878906 C 41.886719 60.847656 41.046875 60.003906 40.015625 60.003906 C 38.980469 60.003906 38.140625 60.847656 38.140625 61.878906 C 38.140625 62.570312 37.582031 63.128906 36.890625 63.128906 C 36.199219 63.128906 35.640625 62.570312 35.640625 61.878906 C 35.640625 59.46875 37.601562 57.507812 40.015625 57.507812 C 42.425781 57.507812 44.386719 59.46875 44.386719 61.878906 C 44.386719 62.570312 43.828125 63.128906 43.136719 63.128906 Z M 43.136719 63.128906 "/>
<path style=" stroke:none;fill-rule:nonzero;fill:rgb(0%,0%,0%);fill-opacity:1;" d="M 36.890625 63.753906 C 36.199219 63.753906 35.640625 63.195312 35.640625 62.503906 L 35.640625 61.878906 C 35.640625 61.1875 36.199219 60.628906 36.890625 60.628906 C 37.582031 60.628906 38.140625 61.1875 38.140625 61.878906 L 38.140625 62.503906 C 38.140625 63.195312 37.578125 63.753906 36.890625 63.753906 Z M 36.890625 63.753906 "/>
<path style=" stroke:none;fill-rule:nonzero;fill:rgb(0%,0%,0%);fill-opacity:1;" d="M 43.136719 63.753906 L 36.890625 63.753906 C 36.199219 63.753906 35.640625 63.195312 35.640625 62.503906 C 35.640625 61.8125 36.199219 61.253906 36.890625 61.253906 L 43.136719 61.253906 C 43.828125 61.253906 44.386719 61.8125 44.386719 62.503906 C 44.386719 63.195312 43.828125 63.753906 43.136719 63.753906 Z M 43.136719 63.753906 "/>
<path style=" stroke:none;fill-rule:nonzero;fill:rgb(0%,0%,0%);fill-opacity:1;" d="M 43.136719 63.753906 C 42.445312 63.753906 41.886719 63.195312 41.886719 62.503906 L 41.886719 61.878906 C 41.886719 61.1875 42.445312 60.628906 43.136719 60.628906 C 43.828125 60.628906 44.386719 61.1875 44.386719 61.878906 L 44.386719 62.503906 C 44.386719 63.195312 43.828125 63.753906 43.136719 63.753906 Z M 43.136719 63.753906 "/>
<path style=" stroke:none;fill-rule:nonzero;fill:rgb(0%,0%,0%);fill-opacity:1;" d="M 48.128906 67.507812 L 31.886719 67.507812 C 31.195312 67.507812 30.636719 66.949219 30.636719 66.257812 C 30.636719 65.566406 31.195312 65.007812 31.886719 65.007812 L 48.128906 65.007812 C 48.820312 65.007812 49.378906 65.566406 49.378906 66.257812 C 49.378906 66.949219 48.820312 67.507812 48.128906 67.507812 Z M 48.128906 67.507812 "/>
<path style=" stroke:none;fill-rule:nonzero;fill:rgb(0%,0%,0%);fill-opacity:1;" d="M 44.382812 71.257812 L 35.636719 71.257812 C 34.945312 71.257812 34.386719 70.699219 34.386719 70.007812 C 34.386719 69.316406 34.945312 68.757812 35.636719 68.757812 L 44.382812 68.757812 C 45.070312 68.757812 45.632812 69.316406 45.632812 70.007812 C 45.632812 70.699219 45.070312 71.257812 44.382812 71.257812 Z M 44.382812 71.257812 "/>
<path style=" stroke:none;fill-rule:nonzero;fill:rgb(0%,0%,0%);fill-opacity:1;" d="M 63.144531 60.003906 C 61.421875 60.003906 60.019531 58.605469 60.019531 56.882812 C 60.019531 55.15625 61.421875 53.757812 63.144531 53.757812 C 64.867188 53.757812 66.265625 55.15625 66.265625 56.882812 C 66.265625 58.605469 64.867188 60.003906 63.144531 60.003906 Z M 63.144531 56.257812 C 62.800781 56.257812 62.519531 56.539062 62.519531 56.882812 C 62.519531 57.226562 62.800781 57.507812 63.144531 57.507812 C 63.488281 57.507812 63.769531 57.226562 63.769531 56.882812 C 63.769531 56.539062 63.488281 56.257812 63.144531 56.257812 Z M 63.144531 56.257812 "/>
<path style=" stroke:none;fill-rule:nonzero;fill:rgb(0%,0%,0%);fill-opacity:1;" d="M 66.265625 63.128906 C 65.578125 63.128906 65.019531 62.570312 65.019531 61.878906 C 65.019531 60.847656 64.175781 60.003906 63.144531 60.003906 C 62.109375 60.003906 61.269531 60.847656 61.269531 61.878906 C 61.269531 62.570312 60.710938 63.128906 60.019531 63.128906 C 59.328125 63.128906 58.769531 62.570312 58.769531 61.878906 C 58.769531 59.46875 60.730469 57.507812 63.144531 57.507812 C 65.554688 57.507812 67.515625 59.46875 67.515625 61.878906 C 67.515625 62.570312 66.957031 63.128906 66.265625 63.128906 Z M 66.265625 63.128906 "/>
<path style=" stroke:none;fill-rule:nonzero;fill:rgb(0%,0%,0%);fill-opacity:1;" d="M 60.019531 63.753906 C 59.328125 63.753906 58.769531 63.195312 58.769531 62.503906 L 58.769531 61.878906 C 58.769531 61.1875 59.328125 60.628906 60.019531 60.628906 C 60.710938 60.628906 61.269531 61.1875 61.269531 61.878906 L 61.269531 62.503906 C 61.269531 63.195312 60.710938 63.753906 60.019531 63.753906 Z M 60.019531 63.753906 "/>
<path style=" stroke:none;fill-rule:nonzero;fill:rgb(0%,0%,0%);fill-opacity:1;" d="M 66.265625 63.753906 L 60.019531 63.753906 C 59.328125 63.753906 58.769531 63.195312 58.769531 62.503906 C 58.769531 61.8125 59.328125 61.253906 60.019531 61.253906 L 66.265625 61.253906 C 66.957031 61.253906 67.515625 61.8125 67.515625 62.503906 C 67.515625 63.195312 66.957031 63.753906 66.265625 63.753906 Z M 66.265625 63.753906 "/>
<path style=" stroke:none;fill-rule:nonzero;fill:rgb(0%,0%,0%);fill-opacity:1;" d="M 66.265625 63.753906 C 65.578125 63.753906 65.019531 63.195312 65.019531 62.503906 L 65.019531 61.878906 C 65.019531 61.1875 65.578125 60.628906 66.265625 60.628906 C 66.957031 60.628906 67.515625 61.1875 67.515625 61.878906 L 67.515625 62.503906 C 67.515625 63.195312 66.957031 63.753906 66.265625 63.753906 Z M 66.265625 63.753906 "/>
<path style=" stroke:none;fill-rule:nonzero;fill:rgb(0%,0%,0%);fill-opacity:1;" d="M 71.261719 67.507812 L 55.015625 67.507812 C 54.324219 67.507812 53.765625 66.949219 53.765625 66.257812 C 53.765625 65.566406 54.324219 65.007812 55.015625 65.007812 L 71.261719 65.007812 C 71.953125 65.007812 72.507812 65.566406 72.507812 66.257812 C 72.507812 66.949219 71.949219 67.507812 71.261719 67.507812 Z M 71.261719 67.507812 "/>
<path style=" stroke:none;fill-rule:nonzero;fill:rgb(0%,0%,0%);fill-opacity:1;" d="M 67.511719 71.257812 L 58.765625 71.257812 C 58.074219 71.257812 57.515625 70.699219 57.515625 70.007812 C 57.515625 69.316406 58.074219 68.757812 58.765625 68.757812 L 67.511719 68.757812 C 68.203125 68.757812 68.761719 69.316406 68.761719 70.007812 C 68.761719 70.699219 68.199219 71.257812 67.511719 71.257812 Z M 67.511719 71.257812 "/>
</g>
</svg>
