<?xml version="1.0" encoding="UTF-8"?>
<svg xmlns="http://www.w3.org/2000/svg" xmlns:xlink="http://www.w3.org/1999/xlink" width="80pt" height="80pt" viewBox="0 0 80 80" version="1.1">
<g id="surface1">
<path style=" stroke:none;fill-rule:nonzero;fill:rgb(0%,0%,0%);fill-opacity:1;" d="M 73.75 80 L 6.25 80 C 5.558594 80 5 79.441406 5 78.75 L 5 38.75 C 5 38.058594 5.558594 37.5 6.25 37.5 C 6.941406 37.5 7.5 38.058594 7.5 38.75 L 7.5 77.5 L 72.5 77.5 L 72.5 38.75 C 72.5 38.058594 73.058594 37.5 73.75 37.5 C 74.441406 37.5 75 38.058594 75 38.75 L 75 78.75 C 75 79.441406 74.441406 80 73.75 80 Z M 73.75 80 "/>
<path style=" stroke:none;fill-rule:nonzero;fill:rgb(0%,0%,0%);fill-opacity:1;" d="M 40 62.5 C 39.761719 62.5 39.519531 62.429688 39.308594 62.289062 L 5.558594 39.789062 C 4.984375 39.40625 4.828125 38.632812 5.210938 38.054688 C 5.59375 37.480469 6.367188 37.328125 6.945312 37.710938 L 40.695312 60.210938 C 41.269531 60.59375 41.425781 61.367188 41.039062 61.945312 C 40.800781 62.304688 40.402344 62.5 40 62.5 Z M 40 62.5 "/>
<path style=" stroke:none;fill-rule:nonzero;fill:rgb(0%,0%,0%);fill-opacity:1;" d="M 40 62.5 C 39.597656 62.5 39.199219 62.304688 38.960938 61.945312 C 38.578125 61.367188 38.730469 60.59375 39.308594 60.210938 L 73.058594 37.710938 C 73.632812 37.328125 74.410156 37.480469 74.789062 38.054688 C 75.175781 38.632812 75.019531 39.40625 74.445312 39.789062 L 40.695312 62.289062 C 40.480469 62.429688 40.238281 62.5 40 62.5 Z M 40 62.5 "/>
<path style=" stroke:none;fill-rule:nonzero;fill:rgb(0%,0%,0%);fill-opacity:1;" d="M 73.75 80 C 73.511719 80 73.269531 79.929688 73.058594 79.789062 L 43.054688 59.789062 C 42.480469 59.40625 42.324219 58.628906 42.707031 58.054688 C 43.089844 57.480469 43.863281 57.324219 44.441406 57.710938 L 74.445312 77.710938 C 75.019531 78.09375 75.175781 78.867188 74.789062 79.445312 C 74.550781 79.804688 74.152344 80 73.75 80 Z M 73.75 80 "/>
<path style=" stroke:none;fill-rule:nonzero;fill:rgb(0%,0%,0%);fill-opacity:1;" d="M 6.253906 80 C 5.847656 80 5.453125 79.804688 5.210938 79.445312 C 4.828125 78.867188 4.984375 78.09375 5.558594 77.710938 L 35.558594 57.710938 C 36.132812 57.328125 36.910156 57.480469 37.289062 58.054688 C 37.675781 58.632812 37.519531 59.40625 36.945312 59.789062 L 6.945312 79.789062 C 6.730469 79.929688 6.488281 80 6.253906 80 Z M 6.253906 80 "/>
<path style=" stroke:none;fill-rule:nonzero;fill:rgb(0%,0%,0%);fill-opacity:1;" d="M 73.75 40 C 73.511719 40 73.269531 39.929688 73.058594 39.789062 L 63.058594 33.125 C 62.480469 32.742188 62.328125 31.964844 62.710938 31.390625 C 63.09375 30.816406 63.867188 30.660156 64.445312 31.042969 L 74.445312 37.710938 C 75.019531 38.09375 75.175781 38.867188 74.789062 39.445312 C 74.550781 39.804688 74.152344 40 73.75 40 Z M 73.75 40 "/>
<path style=" stroke:none;fill-rule:nonzero;fill:rgb(0%,0%,0%);fill-opacity:1;" d="M 6.253906 40 C 5.847656 40 5.453125 39.804688 5.210938 39.445312 C 4.828125 38.867188 4.984375 38.09375 5.558594 37.710938 L 15.558594 31.042969 C 16.132812 30.660156 16.90625 30.816406 17.289062 31.390625 C 17.675781 31.964844 17.519531 32.742188 16.945312 33.125 L 6.945312 39.789062 C 6.730469 39.929688 6.488281 40 6.253906 40 Z M 6.253906 40 "/>
<path style=" stroke:none;fill-rule:nonzero;fill:rgb(0%,0%,0%);fill-opacity:1;" d="M 16.25 46.667969 C 15.558594 46.667969 15 46.109375 15 45.417969 L 15 1.25 C 15 0.558594 15.558594 0 16.25 0 C 16.941406 0 17.5 0.558594 17.5 1.25 L 17.5 45.417969 C 17.5 46.109375 16.941406 46.667969 16.25 46.667969 Z M 16.25 46.667969 "/>
<path style=" stroke:none;fill-rule:nonzero;fill:rgb(0%,0%,0%);fill-opacity:1;" d="M 63.75 46.667969 C 63.058594 46.667969 62.5 46.109375 62.5 45.417969 L 62.5 7.507812 C 62.5 6.816406 63.058594 6.257812 63.75 6.257812 C 64.441406 6.257812 65 6.816406 65 7.507812 L 65 45.417969 C 65 46.109375 64.441406 46.667969 63.75 46.667969 Z M 63.75 46.667969 "/>
<path style=" stroke:none;fill-rule:nonzero;fill:rgb(0%,0%,0%);fill-opacity:1;" d="M 57.496094 2.5 L 16.25 2.5 C 15.558594 2.5 15 1.941406 15 1.25 C 15 0.558594 15.558594 0 16.25 0 L 57.496094 0 C 58.1875 0 58.746094 0.558594 58.746094 1.25 C 58.746094 1.941406 58.1875 2.5 57.496094 2.5 Z M 57.496094 2.5 "/>
<path style=" stroke:none;fill-rule:nonzero;fill:rgb(0%,0%,0%);fill-opacity:1;" d="M 55 45 L 25 45 C 24.308594 45 23.75 44.441406 23.75 43.75 C 23.75 43.058594 24.308594 42.5 25 42.5 L 55 42.5 C 55.691406 42.5 56.25 43.058594 56.25 43.75 C 56.25 44.441406 55.691406 45 55 45 Z M 55 45 "/>
<path style=" stroke:none;fill-rule:nonzero;fill:rgb(0%,0%,0%);fill-opacity:1;" d="M 48.75 48.75 L 31.25 48.75 C 30.558594 48.75 30 48.191406 30 47.5 C 30 46.808594 30.558594 46.25 31.25 46.25 L 48.75 46.25 C 49.441406 46.25 50 46.808594 50 47.5 C 50 48.191406 49.441406 48.75 48.75 48.75 Z M 48.75 48.75 "/>
<path style=" stroke:none;fill-rule:nonzero;fill:rgb(0%,0%,0%);fill-opacity:1;" d="M 50 16.277344 L 30.003906 16.277344 C 29.3125 16.277344 28.753906 15.71875 28.753906 15.027344 C 28.753906 14.335938 29.3125 13.777344 30.003906 13.777344 L 50 13.777344 C 50.691406 13.777344 51.25 14.335938 51.25 15.027344 C 51.25 15.71875 50.691406 16.277344 50 16.277344 Z M 50 16.277344 "/>
<path style=" stroke:none;fill-rule:nonzero;fill:rgb(0%,0%,0%);fill-opacity:1;" d="M 40 37.527344 C 39.3125 37.527344 38.75 36.96875 38.75 36.277344 L 38.75 11.277344 C 38.75 10.585938 39.3125 10.027344 40 10.027344 C 40.691406 10.027344 41.25 10.585938 41.25 11.277344 L 41.25 36.277344 C 41.25 36.964844 40.691406 37.527344 40 37.527344 Z M 40 37.527344 "/>
<path style=" stroke:none;fill-rule:nonzero;fill:rgb(0%,0%,0%);fill-opacity:1;" d="M 48.75 37.527344 L 31.253906 37.527344 C 30.5625 37.527344 30.003906 36.96875 30.003906 36.277344 C 30.003906 35.585938 30.5625 35.027344 31.253906 35.027344 L 48.75 35.027344 C 49.441406 35.027344 50 35.585938 50 36.277344 C 50 36.96875 49.441406 37.527344 48.75 37.527344 Z M 48.75 37.527344 "/>
<path style=" stroke:none;fill-rule:nonzero;fill:rgb(0%,0%,0%);fill-opacity:1;" d="M 30.003906 31.277344 C 27.246094 31.277344 25.003906 29.035156 25.003906 26.277344 C 25.003906 25.585938 25.5625 25.027344 26.253906 25.027344 C 26.945312 25.027344 27.503906 25.585938 27.503906 26.277344 C 27.503906 27.65625 28.625 28.777344 30.003906 28.777344 C 31.382812 28.777344 32.503906 27.65625 32.503906 26.277344 C 32.503906 25.585938 33.0625 25.027344 33.753906 25.027344 C 34.445312 25.027344 35.003906 25.585938 35.003906 26.277344 C 35.003906 29.035156 32.761719 31.277344 30.003906 31.277344 Z M 30.003906 31.277344 "/>
<path style=" stroke:none;fill-rule:nonzero;fill:rgb(0%,0%,0%);fill-opacity:1;" d="M 33.753906 27.527344 L 26.253906 27.527344 C 25.5625 27.527344 25.003906 26.96875 25.003906 26.277344 C 25.003906 25.585938 25.5625 25.027344 26.253906 25.027344 L 33.753906 25.027344 C 34.445312 25.027344 35.003906 25.585938 35.003906 26.277344 C 35.003906 26.96875 34.445312 27.527344 33.753906 27.527344 Z M 33.753906 27.527344 "/>
<path style=" stroke:none;fill-rule:nonzero;fill:rgb(0%,0%,0%);fill-opacity:1;" d="M 26.253906 27.527344 C 26.125 27.527344 25.988281 27.503906 25.859375 27.460938 C 25.203125 27.246094 24.851562 26.535156 25.070312 25.878906 L 28.820312 14.628906 C 29.035156 13.976562 29.738281 13.617188 30.398438 13.839844 C 31.054688 14.054688 31.40625 14.765625 31.191406 15.421875 L 27.441406 26.671875 C 27.265625 27.195312 26.777344 27.527344 26.253906 27.527344 Z M 26.253906 27.527344 "/>
<path style=" stroke:none;fill-rule:nonzero;fill:rgb(0%,0%,0%);fill-opacity:1;" d="M 33.753906 27.527344 C 33.230469 27.527344 32.742188 27.195312 32.570312 26.671875 L 28.820312 15.421875 C 28.601562 14.765625 28.953125 14.054688 29.609375 13.839844 C 30.265625 13.617188 30.972656 13.972656 31.191406 14.628906 L 34.941406 25.878906 C 35.15625 26.535156 34.804688 27.246094 34.148438 27.460938 C 34.015625 27.507812 33.882812 27.527344 33.753906 27.527344 Z M 33.753906 27.527344 "/>
<path style=" stroke:none;fill-rule:nonzero;fill:rgb(0%,0%,0%);fill-opacity:1;" d="M 50 31.277344 C 47.242188 31.277344 45 29.035156 45 26.277344 C 45 25.585938 45.558594 25.027344 46.25 25.027344 C 46.941406 25.027344 47.5 25.585938 47.5 26.277344 C 47.5 27.65625 48.621094 28.777344 50 28.777344 C 51.375 28.777344 52.5 27.65625 52.5 26.277344 C 52.5 25.585938 53.058594 25.027344 53.75 25.027344 C 54.441406 25.027344 55 25.585938 55 26.277344 C 55 29.035156 52.753906 31.277344 50 31.277344 Z M 50 31.277344 "/>
<path style=" stroke:none;fill-rule:nonzero;fill:rgb(0%,0%,0%);fill-opacity:1;" d="M 53.75 27.527344 L 46.25 27.527344 C 45.558594 27.527344 45 26.96875 45 26.277344 C 45 25.585938 45.558594 25.027344 46.25 25.027344 L 53.75 25.027344 C 54.441406 25.027344 55 25.585938 55 26.277344 C 55 26.96875 54.441406 27.527344 53.75 27.527344 Z M 53.75 27.527344 "/>
<path style=" stroke:none;fill-rule:nonzero;fill:rgb(0%,0%,0%);fill-opacity:1;" d="M 46.25 27.527344 C 46.117188 27.527344 45.984375 27.503906 45.851562 27.460938 C 45.199219 27.246094 44.84375 26.535156 45.0625 25.878906 L 48.8125 14.628906 C 49.03125 13.976562 49.734375 13.617188 50.394531 13.839844 C 51.046875 14.054688 51.402344 14.765625 51.183594 15.421875 L 47.433594 26.671875 C 47.257812 27.195312 46.773438 27.527344 46.25 27.527344 Z M 46.25 27.527344 "/>
<path style=" stroke:none;fill-rule:nonzero;fill:rgb(0%,0%,0%);fill-opacity:1;" d="M 53.75 27.527344 C 53.222656 27.527344 52.738281 27.195312 52.5625 26.671875 L 48.8125 15.421875 C 48.59375 14.765625 48.949219 14.054688 49.601562 13.839844 C 50.261719 13.617188 50.964844 13.972656 51.183594 14.628906 L 54.933594 25.878906 C 55.152344 26.535156 54.800781 27.246094 54.144531 27.460938 C 54.011719 27.507812 53.878906 27.527344 53.75 27.527344 Z M 53.75 27.527344 "/>
<path style=" stroke:none;fill-rule:nonzero;fill:rgb(0%,0%,0%);fill-opacity:1;" d="M 63.75 8.757812 C 63.429688 8.757812 63.109375 8.632812 62.867188 8.390625 L 56.609375 2.132812 C 56.121094 1.644531 56.121094 0.855469 56.609375 0.367188 C 57.097656 -0.121094 57.890625 -0.121094 58.378906 0.367188 L 64.632812 6.621094 C 65.125 7.113281 65.125 7.902344 64.632812 8.390625 C 64.390625 8.632812 64.070312 8.757812 63.75 8.757812 Z M 63.75 8.757812 "/>
<path style=" stroke:none;fill-rule:nonzero;fill:rgb(0%,0%,0%);fill-opacity:1;" d="M 63.75 8.757812 L 57.496094 8.757812 C 56.804688 8.757812 56.246094 8.199219 56.246094 7.507812 C 56.246094 6.816406 56.804688 6.257812 57.496094 6.257812 L 63.75 6.257812 C 64.441406 6.257812 65 6.816406 65 7.507812 C 65 8.199219 64.441406 8.757812 63.75 8.757812 Z M 63.75 8.757812 "/>
<path style=" stroke:none;fill-rule:nonzero;fill:rgb(0%,0%,0%);fill-opacity:1;" d="M 57.523438 8.757812 C 56.832031 8.757812 56.273438 8.199219 56.273438 7.507812 L 56.273438 1.25 C 56.273438 0.558594 56.832031 0 57.523438 0 C 58.214844 0 58.773438 0.558594 58.773438 1.25 L 58.773438 7.507812 C 58.773438 8.199219 58.214844 8.757812 57.523438 8.757812 Z M 57.523438 8.757812 "/>
</g>
</svg>
