<?xml version="1.0" encoding="UTF-8"?>
<svg xmlns="http://www.w3.org/2000/svg" xmlns:xlink="http://www.w3.org/1999/xlink" width="80pt" height="80pt" viewBox="0 0 80 80" version="1.1">
<g id="surface1">
<path style=" stroke:none;fill-rule:nonzero;fill:rgb(0%,0%,0%);fill-opacity:1;" d="M 3.765625 79.984375 C 3.074219 79.984375 2.515625 79.425781 2.515625 78.734375 L 2.515625 1.25 C 2.515625 0.558594 3.074219 0 3.765625 0 L 61.253906 0 C 61.945312 0 62.503906 0.558594 62.503906 1.25 L 62.503906 44.960938 C 62.503906 45.652344 61.945312 46.210938 61.253906 46.210938 C 60.5625 46.210938 60.003906 45.652344 60.003906 44.960938 L 60.003906 2.5 L 5.015625 2.5 L 5.015625 78.734375 C 5.015625 79.425781 4.457031 79.984375 3.765625 79.984375 Z M 3.765625 79.984375 "/>
<path style=" stroke:none;fill-rule:nonzero;fill:rgb(0%,0%,0%);fill-opacity:1;" d="M 57.503906 76.242188 L 7.511719 76.234375 C 6.824219 76.234375 6.261719 75.675781 6.261719 74.984375 L 6.261719 5 C 6.261719 4.308594 6.824219 3.75 7.511719 3.75 C 8.203125 3.75 8.761719 4.308594 8.761719 5 L 8.761719 73.734375 L 56.253906 73.742188 L 56.253906 5 C 56.253906 4.308594 56.8125 3.75 57.503906 3.75 C 58.195312 3.75 58.753906 4.308594 58.753906 5 L 58.753906 74.992188 C 58.753906 75.324219 58.621094 75.644531 58.386719 75.875 C 58.152344 76.109375 57.835938 76.242188 57.503906 76.242188 Z M 57.503906 76.242188 "/>
<path style=" stroke:none;fill-rule:nonzero;fill:rgb(0%,0%,0%);fill-opacity:1;" d="M 23.761719 7.5 C 23.304688 7.5 22.863281 7.246094 22.640625 6.808594 L 20.140625 1.808594 C 19.832031 1.191406 20.082031 0.441406 20.703125 0.132812 C 21.316406 -0.175781 22.066406 0.0742188 22.378906 0.691406 L 24.878906 5.6875 C 25.1875 6.304688 24.9375 7.058594 24.320312 7.367188 C 24.140625 7.457031 23.949219 7.5 23.761719 7.5 Z M 23.761719 7.5 "/>
<path style=" stroke:none;fill-rule:nonzero;fill:rgb(0%,0%,0%);fill-opacity:1;" d="M 41.257812 7.5 C 41.070312 7.5 40.878906 7.457031 40.699219 7.367188 C 40.082031 7.058594 39.832031 6.308594 40.140625 5.691406 L 42.640625 0.691406 C 42.949219 0.0742188 43.699219 -0.175781 44.316406 0.132812 C 44.933594 0.441406 45.183594 1.191406 44.875 1.808594 L 42.375 6.808594 C 42.15625 7.246094 41.714844 7.5 41.257812 7.5 Z M 41.257812 7.5 "/>
<path style=" stroke:none;fill-rule:nonzero;fill:rgb(0%,0%,0%);fill-opacity:1;" d="M 41.257812 7.5 L 23.761719 7.5 C 23.070312 7.5 22.511719 6.941406 22.511719 6.25 C 22.511719 5.558594 23.070312 5 23.761719 5 L 41.257812 5 C 41.949219 5 42.507812 5.558594 42.507812 6.25 C 42.507812 6.941406 41.949219 7.5 41.257812 7.5 Z M 41.257812 7.5 "/>
<path style=" stroke:none;fill-rule:nonzero;fill:rgb(0%,0%,0%);fill-opacity:1;" d="M 57.503906 6.25 L 41.882812 6.25 C 41.191406 6.25 40.632812 5.691406 40.632812 5 C 40.632812 4.308594 41.191406 3.75 41.882812 3.75 L 57.503906 3.75 C 58.195312 3.75 58.753906 4.308594 58.753906 5 C 58.753906 5.691406 58.195312 6.25 57.503906 6.25 Z M 57.503906 6.25 "/>
<path style=" stroke:none;fill-rule:nonzero;fill:rgb(0%,0%,0%);fill-opacity:1;" d="M 23.136719 6.25 L 7.511719 6.25 C 6.824219 6.25 6.261719 5.691406 6.261719 5 C 6.261719 4.308594 6.824219 3.75 7.511719 3.75 L 23.136719 3.75 C 23.828125 3.75 24.386719 4.308594 24.386719 5 C 24.386719 5.691406 23.828125 6.25 23.136719 6.25 Z M 23.136719 6.25 "/>
<path style=" stroke:none;fill-rule:nonzero;fill:rgb(0%,0%,0%);fill-opacity:1;" d="M 18.789062 68.753906 C 16.03125 68.753906 13.789062 66.507812 13.789062 63.753906 C 13.789062 60.996094 16.03125 58.753906 18.789062 58.753906 C 21.542969 58.753906 23.785156 60.996094 23.785156 63.753906 C 23.785156 66.507812 21.546875 68.753906 18.789062 68.753906 Z M 18.789062 61.253906 C 17.410156 61.253906 16.289062 62.375 16.289062 63.753906 C 16.289062 65.132812 17.410156 66.253906 18.789062 66.253906 C 20.167969 66.253906 21.285156 65.132812 21.285156 63.753906 C 21.285156 62.375 20.167969 61.253906 18.789062 61.253906 Z M 18.789062 61.253906 "/>
<path style=" stroke:none;fill-rule:nonzero;fill:rgb(0%,0%,0%);fill-opacity:1;" d="M 18.828125 65.003906 C 18.136719 65.003906 17.570312 64.445312 17.570312 63.753906 C 17.570312 63.0625 18.121094 62.503906 18.8125 62.503906 L 18.828125 62.503906 C 19.515625 62.503906 20.078125 63.0625 20.078125 63.753906 C 20.078125 64.445312 19.515625 65.003906 18.828125 65.003906 Z M 18.828125 65.003906 "/>
<path style=" stroke:none;fill-rule:nonzero;fill:rgb(0%,0%,0%);fill-opacity:1;" d="M 45.03125 28.742188 C 42.277344 28.742188 40.035156 26.5 40.035156 23.742188 C 40.035156 20.984375 42.277344 18.742188 45.03125 18.742188 C 47.789062 18.742188 50.03125 20.984375 50.03125 23.742188 C 50.03125 26.5 47.789062 28.742188 45.03125 28.742188 Z M 45.03125 21.242188 C 43.652344 21.242188 42.53125 22.363281 42.53125 23.742188 C 42.53125 25.121094 43.652344 26.242188 45.03125 26.242188 C 46.410156 26.242188 47.53125 25.121094 47.53125 23.742188 C 47.53125 22.363281 46.410156 21.242188 45.03125 21.242188 Z M 45.03125 21.242188 "/>
<path style=" stroke:none;fill-rule:nonzero;fill:rgb(0%,0%,0%);fill-opacity:1;" d="M 45.03125 24.992188 C 44.34375 24.992188 43.78125 24.433594 43.78125 23.742188 L 43.78125 12.496094 C 43.78125 11.804688 44.34375 11.246094 45.03125 11.246094 C 45.722656 11.246094 46.28125 11.804688 46.28125 12.496094 L 46.28125 23.742188 C 46.28125 24.433594 45.722656 24.992188 45.03125 24.992188 Z M 45.03125 24.992188 "/>
<path style=" stroke:none;fill-rule:nonzero;fill:rgb(0%,0%,0%);fill-opacity:1;" d="M 52.53125 13.746094 L 45.03125 13.746094 C 44.34375 13.746094 43.78125 13.1875 43.78125 12.496094 C 43.78125 11.804688 44.34375 11.246094 45.03125 11.246094 L 52.53125 11.246094 C 53.222656 11.246094 53.78125 11.804688 53.78125 12.496094 C 53.78125 13.1875 53.222656 13.746094 52.53125 13.746094 Z M 52.53125 13.746094 "/>
<path style=" stroke:none;fill-rule:nonzero;fill:rgb(0%,0%,0%);fill-opacity:1;" d="M 52.53125 18.742188 L 45.03125 18.742188 C 44.34375 18.742188 43.78125 18.183594 43.78125 17.496094 C 43.78125 16.804688 44.34375 16.246094 45.03125 16.246094 L 52.53125 16.246094 C 53.222656 16.246094 53.78125 16.804688 53.78125 17.496094 C 53.78125 18.183594 53.222656 18.742188 52.53125 18.742188 Z M 52.53125 18.742188 "/>
<path style=" stroke:none;fill-rule:nonzero;fill:rgb(0%,0%,0%);fill-opacity:1;" d="M 52.53125 18.742188 C 52.074219 18.742188 51.632812 18.492188 51.414062 18.050781 L 50.164062 15.554688 C 49.988281 15.203125 49.988281 14.789062 50.164062 14.433594 L 51.414062 11.933594 C 51.722656 11.316406 52.472656 11.070312 53.089844 11.375 C 53.707031 11.683594 53.957031 12.4375 53.648438 13.054688 L 52.679688 14.996094 L 53.648438 16.933594 C 53.957031 17.554688 53.707031 18.304688 53.089844 18.613281 C 52.910156 18.703125 52.722656 18.742188 52.53125 18.742188 Z M 52.53125 18.742188 "/>
<path style=" stroke:none;fill-rule:nonzero;fill:rgb(0%,0%,0%);fill-opacity:1;" d="M 18.78125 57.511719 C 18.753906 57.511719 18.722656 57.511719 18.695312 57.507812 C 18.007812 57.464844 17.484375 56.867188 17.53125 56.179688 C 18.824219 36.984375 36.183594 26.824219 36.921875 26.402344 C 37.515625 26.0625 38.28125 26.269531 38.625 26.863281 C 38.96875 27.464844 38.761719 28.226562 38.164062 28.570312 C 37.996094 28.667969 21.226562 38.507812 20.023438 56.34375 C 19.980469 57.003906 19.429688 57.511719 18.78125 57.511719 Z M 18.78125 57.511719 "/>
<path style=" stroke:none;fill-rule:nonzero;fill:rgb(0%,0%,0%);fill-opacity:1;" d="M 36.273438 32.5 C 36.144531 32.5 36.007812 32.480469 35.878906 32.4375 C 35.222656 32.21875 34.871094 31.511719 35.089844 30.855469 L 36.339844 27.105469 C 36.558594 26.449219 37.265625 26.09375 37.921875 26.3125 C 38.578125 26.53125 38.929688 27.238281 38.710938 27.894531 L 37.457031 31.644531 C 37.285156 32.171875 36.796875 32.5 36.273438 32.5 Z M 36.273438 32.5 "/>
<path style=" stroke:none;fill-rule:nonzero;fill:rgb(0%,0%,0%);fill-opacity:1;" d="M 37.535156 28.765625 L 33.785156 28.765625 C 33.09375 28.765625 32.535156 28.207031 32.535156 27.515625 C 32.535156 26.824219 33.09375 26.265625 33.785156 26.265625 L 37.535156 26.265625 C 38.226562 26.265625 38.785156 26.824219 38.785156 27.515625 C 38.785156 28.207031 38.226562 28.765625 37.535156 28.765625 Z M 37.535156 28.765625 "/>
<path style=" stroke:none;fill-rule:nonzero;fill:rgb(0%,0%,0%);fill-opacity:1;" d="M 72.5 53.746094 L 50.007812 53.746094 C 49.316406 53.746094 48.757812 53.1875 48.757812 52.496094 C 48.757812 51.808594 49.316406 51.246094 50.007812 51.246094 L 72.5 51.246094 C 73.191406 51.246094 73.75 51.808594 73.75 52.496094 C 73.75 53.1875 73.191406 53.746094 72.5 53.746094 Z M 72.5 53.746094 "/>
<path style=" stroke:none;fill-rule:nonzero;fill:rgb(0%,0%,0%);fill-opacity:1;" d="M 61.253906 80 C 60.566406 80 60.007812 79.441406 60.007812 78.75 L 60.007812 48.75 C 60.007812 48.058594 60.566406 47.5 61.253906 47.5 C 61.945312 47.5 62.503906 48.058594 62.503906 48.75 L 62.503906 78.75 C 62.503906 79.441406 61.945312 80 61.253906 80 Z M 61.253906 80 "/>
<path style=" stroke:none;fill-rule:nonzero;fill:rgb(0%,0%,0%);fill-opacity:1;" d="M 68.75 80 L 53.757812 80 C 53.070312 80 52.511719 79.441406 52.511719 78.75 C 52.511719 78.058594 53.070312 77.5 53.757812 77.5 L 68.75 77.5 C 69.441406 77.5 70 78.058594 70 78.75 C 70 79.441406 69.441406 80 68.75 80 Z M 68.75 80 "/>
<path style=" stroke:none;fill-rule:nonzero;fill:rgb(0%,0%,0%);fill-opacity:1;" d="M 50.007812 69.996094 C 47.25 69.996094 45.007812 67.753906 45.007812 64.996094 C 45.007812 64.308594 45.566406 63.746094 46.257812 63.746094 C 46.949219 63.746094 47.507812 64.308594 47.507812 64.996094 C 47.507812 66.375 48.628906 67.496094 50.007812 67.496094 C 51.386719 67.496094 52.507812 66.375 52.507812 64.996094 C 52.507812 64.308594 53.066406 63.746094 53.757812 63.746094 C 54.449219 63.746094 55.007812 64.308594 55.007812 64.996094 C 55.007812 67.753906 52.765625 69.996094 50.007812 69.996094 Z M 50.007812 69.996094 "/>
<path style=" stroke:none;fill-rule:nonzero;fill:rgb(0%,0%,0%);fill-opacity:1;" d="M 53.757812 66.246094 L 46.257812 66.246094 C 45.566406 66.246094 45.007812 65.6875 45.007812 64.996094 C 45.007812 64.308594 45.566406 63.746094 46.257812 63.746094 L 53.757812 63.746094 C 54.449219 63.746094 55.007812 64.308594 55.007812 64.996094 C 55.007812 65.6875 54.449219 66.246094 53.757812 66.246094 Z M 53.757812 66.246094 "/>
<path style=" stroke:none;fill-rule:nonzero;fill:rgb(0%,0%,0%);fill-opacity:1;" d="M 46.257812 66.246094 C 46.140625 66.246094 46.019531 66.230469 45.898438 66.195312 C 45.238281 65.996094 44.863281 65.300781 45.0625 64.640625 L 48.8125 52.140625 C 49.007812 51.476562 49.703125 51.101562 50.367188 51.300781 C 51.027344 51.5 51.402344 52.195312 51.207031 52.855469 L 47.457031 65.355469 C 47.292969 65.898438 46.796875 66.246094 46.257812 66.246094 Z M 46.257812 66.246094 "/>
<path style=" stroke:none;fill-rule:nonzero;fill:rgb(0%,0%,0%);fill-opacity:1;" d="M 53.757812 66.246094 C 53.21875 66.246094 52.722656 65.898438 52.558594 65.355469 L 48.8125 52.855469 C 48.613281 52.195312 48.988281 51.5 49.648438 51.300781 C 50.3125 51.101562 51.007812 51.476562 51.207031 52.140625 L 54.953125 64.640625 C 55.152344 65.300781 54.777344 65.996094 54.117188 66.195312 C 53.996094 66.230469 53.875 66.246094 53.757812 66.246094 Z M 53.757812 66.246094 "/>
<path style=" stroke:none;fill-rule:nonzero;fill:rgb(0%,0%,0%);fill-opacity:1;" d="M 72.5 69.996094 C 69.746094 69.996094 67.503906 67.753906 67.503906 64.996094 C 67.503906 64.308594 68.0625 63.746094 68.75 63.746094 C 69.441406 63.746094 70 64.308594 70 64.996094 C 70 66.375 71.121094 67.496094 72.5 67.496094 C 73.878906 67.496094 75 66.375 75 64.996094 C 75 64.308594 75.558594 63.746094 76.25 63.746094 C 76.941406 63.746094 77.5 64.308594 77.5 64.996094 C 77.5 67.753906 75.257812 69.996094 72.5 69.996094 Z M 72.5 69.996094 "/>
<path style=" stroke:none;fill-rule:nonzero;fill:rgb(0%,0%,0%);fill-opacity:1;" d="M 76.25 66.246094 L 68.75 66.246094 C 68.0625 66.246094 67.503906 65.6875 67.503906 64.996094 C 67.503906 64.308594 68.0625 63.746094 68.75 63.746094 L 76.25 63.746094 C 76.941406 63.746094 77.5 64.308594 77.5 64.996094 C 77.5 65.6875 76.941406 66.246094 76.25 66.246094 Z M 76.25 66.246094 "/>
<path style=" stroke:none;fill-rule:nonzero;fill:rgb(0%,0%,0%);fill-opacity:1;" d="M 68.75 66.246094 C 68.632812 66.246094 68.511719 66.230469 68.394531 66.195312 C 67.730469 65.996094 67.359375 65.300781 67.554688 64.640625 L 71.304688 52.140625 C 71.5 51.476562 72.195312 51.101562 72.859375 51.300781 C 73.519531 51.5 73.894531 52.195312 73.699219 52.855469 L 69.949219 65.355469 C 69.785156 65.898438 69.289062 66.246094 68.75 66.246094 Z M 68.75 66.246094 "/>
<path style=" stroke:none;fill-rule:nonzero;fill:rgb(0%,0%,0%);fill-opacity:1;" d="M 76.25 66.246094 C 75.710938 66.246094 75.214844 65.898438 75.054688 65.355469 L 71.304688 52.855469 C 71.105469 52.195312 71.480469 51.5 72.144531 51.300781 C 72.804688 51.101562 73.5 51.476562 73.699219 52.140625 L 77.449219 64.640625 C 77.644531 65.300781 77.269531 65.996094 76.609375 66.195312 C 76.488281 66.230469 76.371094 66.246094 76.25 66.246094 Z M 76.25 66.246094 "/>
<path style=" stroke:none;fill-rule:nonzero;fill:rgb(0%,0%,0%);fill-opacity:1;" d="M 50.003906 79.984375 L 3.765625 79.984375 C 3.074219 79.984375 2.515625 79.425781 2.515625 78.734375 C 2.515625 78.042969 3.074219 77.484375 3.765625 77.484375 L 50.003906 77.484375 C 50.695312 77.484375 51.253906 78.042969 51.253906 78.734375 C 51.253906 79.425781 50.695312 79.984375 50.003906 79.984375 Z M 50.003906 79.984375 "/>
<path style=" stroke:none;fill-rule:nonzero;fill:rgb(0%,0%,0%);fill-opacity:1;" d="M 27.539062 18.765625 C 27.222656 18.765625 26.902344 18.644531 26.65625 18.402344 L 21.660156 13.402344 C 21.167969 12.914062 21.167969 12.121094 21.660156 11.632812 C 22.148438 11.144531 22.9375 11.144531 23.425781 11.632812 L 28.425781 16.632812 C 28.914062 17.121094 28.914062 17.910156 28.425781 18.402344 C 28.179688 18.644531 27.859375 18.765625 27.539062 18.765625 Z M 27.539062 18.765625 "/>
<path style=" stroke:none;fill-rule:nonzero;fill:rgb(0%,0%,0%);fill-opacity:1;" d="M 22.542969 18.765625 C 22.222656 18.765625 21.902344 18.644531 21.660156 18.402344 C 21.167969 17.910156 21.167969 17.121094 21.660156 16.632812 L 26.65625 11.632812 C 27.144531 11.144531 27.9375 11.144531 28.425781 11.632812 C 28.914062 12.121094 28.914062 12.914062 28.425781 13.402344 L 23.425781 18.402344 C 23.183594 18.644531 22.863281 18.765625 22.542969 18.765625 Z M 22.542969 18.765625 "/>
<path style=" stroke:none;fill-rule:nonzero;fill:rgb(0%,0%,0%);fill-opacity:1;" d="M 18.789062 35.011719 C 18.46875 35.011719 18.152344 34.886719 17.90625 34.644531 L 12.90625 29.644531 C 12.417969 29.15625 12.417969 28.367188 12.90625 27.878906 C 13.394531 27.390625 14.1875 27.390625 14.675781 27.878906 L 19.671875 32.878906 C 20.164062 33.367188 20.164062 34.15625 19.671875 34.644531 C 19.429688 34.886719 19.109375 35.011719 18.789062 35.011719 Z M 18.789062 35.011719 "/>
<path style=" stroke:none;fill-rule:nonzero;fill:rgb(0%,0%,0%);fill-opacity:1;" d="M 13.789062 35.011719 C 13.472656 35.011719 13.152344 34.886719 12.90625 34.644531 C 12.417969 34.15625 12.417969 33.367188 12.90625 32.878906 L 17.90625 27.878906 C 18.394531 27.390625 19.183594 27.390625 19.671875 27.878906 C 20.164062 28.367188 20.164062 29.15625 19.671875 29.644531 L 14.675781 34.644531 C 14.429688 34.886719 14.109375 35.011719 13.789062 35.011719 Z M 13.789062 35.011719 "/>
<path style=" stroke:none;fill-rule:nonzero;fill:rgb(0%,0%,0%);fill-opacity:1;" d="M 42.53125 47.515625 C 42.210938 47.515625 41.890625 47.390625 41.648438 47.148438 L 36.648438 42.148438 C 36.160156 41.660156 36.160156 40.871094 36.648438 40.382812 C 37.136719 39.890625 37.925781 39.890625 38.417969 40.382812 L 43.414062 45.378906 C 43.90625 45.867188 43.90625 46.660156 43.414062 47.148438 C 43.171875 47.390625 42.851562 47.515625 42.53125 47.515625 Z M 42.53125 47.515625 "/>
<path style=" stroke:none;fill-rule:nonzero;fill:rgb(0%,0%,0%);fill-opacity:1;" d="M 37.53125 47.515625 C 37.214844 47.515625 36.894531 47.390625 36.648438 47.148438 C 36.160156 46.660156 36.160156 45.867188 36.648438 45.378906 L 41.648438 40.382812 C 42.136719 39.890625 42.925781 39.890625 43.414062 40.382812 C 43.90625 40.871094 43.90625 41.660156 43.414062 42.148438 L 38.417969 47.148438 C 38.171875 47.390625 37.851562 47.515625 37.53125 47.515625 Z M 37.53125 47.515625 "/>
<path style=" stroke:none;fill-rule:nonzero;fill:rgb(0%,0%,0%);fill-opacity:1;" d="M 36.277344 63.777344 C 35.957031 63.777344 35.636719 63.65625 35.390625 63.410156 L 30.394531 58.410156 C 29.902344 57.921875 29.902344 57.132812 30.394531 56.644531 C 30.882812 56.15625 31.671875 56.15625 32.160156 56.644531 L 37.160156 61.644531 C 37.648438 62.132812 37.648438 62.921875 37.160156 63.410156 C 36.914062 63.65625 36.59375 63.777344 36.277344 63.777344 Z M 36.277344 63.777344 "/>
<path style=" stroke:none;fill-rule:nonzero;fill:rgb(0%,0%,0%);fill-opacity:1;" d="M 31.277344 63.777344 C 30.957031 63.777344 30.636719 63.65625 30.394531 63.410156 C 29.902344 62.921875 29.902344 62.132812 30.394531 61.644531 L 35.390625 56.644531 C 35.882812 56.15625 36.671875 56.15625 37.160156 56.644531 C 37.648438 57.132812 37.648438 57.921875 37.160156 58.410156 L 32.160156 63.410156 C 31.914062 63.65625 31.597656 63.777344 31.277344 63.777344 Z M 31.277344 63.777344 "/>
</g>
</svg>
