<?xml version="1.0" encoding="UTF-8" standalone="no"?>
<svg
   xmlns:dc="http://purl.org/dc/elements/1.1/"
   xmlns:cc="http://creativecommons.org/ns#"
   xmlns:rdf="http://www.w3.org/1999/02/22-rdf-syntax-ns#"
   xmlns:svg="http://www.w3.org/2000/svg"
   xmlns="http://www.w3.org/2000/svg"
   xmlns:sodipodi="http://sodipodi.sourceforge.net/DTD/sodipodi-0.dtd"
   xmlns:inkscape="http://www.inkscape.org/namespaces/inkscape"
   id="Layer_1"
   data-name="Layer 1"
   viewBox="0 0 80.000001 80.000001"
   version="1.1"
   sodipodi:docname="017-advice.svg"
   inkscape:version="0.92.4 (5da689c313, 2019-01-14)"
   width="80"
   height="80">
  <metadata
     id="metadata23">
    <rdf:RDF>
      <cc:Work
         rdf:about="">
        <dc:format>image/svg+xml</dc:format>
        <dc:type
           rdf:resource="http://purl.org/dc/dcmitype/StillImage" />
        <dc:title>turno</dc:title>
      </cc:Work>
    </rdf:RDF>
  </metadata>
  <sodipodi:namedview
     pagecolor="#ffffff"
     bordercolor="#666666"
     borderopacity="1"
     objecttolerance="10"
     gridtolerance="10"
     guidetolerance="10"
     inkscape:pageopacity="0"
     inkscape:pageshadow="2"
     inkscape:window-width="1366"
     inkscape:window-height="700"
     id="namedview21"
     showgrid="false"
     inkscape:zoom="4.6769719"
     inkscape:cx="6.8080398"
     inkscape:cy="42.335084"
     inkscape:window-x="0"
     inkscape:window-y="0"
     inkscape:window-maximized="1"
     inkscape:current-layer="Layer_1" />
  <defs
     id="defs4">
    <style
       id="style2">.cls-1{fill:#65b4e1;}</style>
  </defs>
  <title
     id="title6">turno</title>
  <g
     id="g20"
     transform="matrix(1.9873682,0,0,1.9873682,-10.170703,-9.6826573)">
    <path
       style="fill:#000000"
       id="path8"
       d="M 36.07,5.27 35.74,5.19 A 4.67,4.67 0 0 0 32.35,5.81 5.57,5.57 0 0 0 30,9.54 c -0.92,4.22 -1.59,5.63 -4.73,5.91 -3.18,-0.32 -3.83,-1.73 -4.71,-6 A 5.58,5.58 0 0 0 18.25,5.7 4.7,4.7 0 0 0 14.86,5.05 l -0.32,0.07 a 1,1 0 0 0 -0.8,1 L 13.6,33.6 a 1,1 0 0 0 1.24,1 l 0.49,-0.11 a 1.88,1.88 0 0 1 1.23,0.25 2.93,2.93 0 0 1 1.07,2 c 0.86,4.13 1.83,7.82 7.35,8.29 h 0.23 c 5.54,-0.42 6.55,-4.08 7.45,-8.22 A 3,3 0 0 1 33.73,34.88 2,2 0 0 1 35,34.59 l 0.5,0.11 a 1,1 0 0 0 1.25,-1 L 36.89,6.26 A 1,1 0 0 0 36.07,5.27 Z m -0.85,27.85 a 3.39,3.39 0 0 0 -2.29,0.47 4.34,4.34 0 0 0 -1.74,2.9 c -0.86,4 -1.67,6.68 -6.06,7 h -0.05 c -4.38,-0.39 -5.16,-3.13 -6,-7.14 A 4.28,4.28 0 0 0 17.36,33.47 3.38,3.38 0 0 0 15.11,33 L 15.25,6.54 A 3.28,3.28 0 0 1 17.45,7 4.15,4.15 0 0 1 19.1,9.79 c 0.79,3.81 1.61,6.75 6.1,7.16 h 0.13 c 4.45,-0.36 5.31,-3.29 6.14,-7.1 a 4.15,4.15 0 0 1 1.68,-2.78 3.23,3.23 0 0 1 2.2,-0.43 z"
       class="cls-1"
       inkscape:connector-curvature="0" />
    <path
       style="fill:#000000"
       id="path10"
       d="m 20.68,22.51 a 2.76,2.76 0 0 0 -2.67,3 v 0 a 2.68,2.68 0 1 0 5.32,0 v 0 a 2.73,2.73 0 0 0 -2.65,-3 z m 1.05,3 c 0,0.91 -0.41,1.56 -1.05,1.56 -0.64,0 -1.07,-0.66 -1.07,-1.58 v 0 c 0,-0.92 0.42,-1.57 1.05,-1.57 0.63,0 1.07,0.67 1.07,1.59 z"
       class="cls-1"
       inkscape:connector-curvature="0" />
    <path
       style="fill:#000000"
       id="path12"
       d="m 26.68,22.51 a 2.76,2.76 0 0 0 -2.67,3 v 0 a 2.68,2.68 0 1 0 5.32,0 v 0 a 2.73,2.73 0 0 0 -2.65,-3 z m 1.05,3 c 0,0.91 -0.41,1.56 -1.05,1.56 -0.64,0 -1.07,-0.66 -1.07,-1.58 v 0 c 0,-0.92 0.42,-1.57 1.05,-1.57 0.63,0 1.07,0.67 1.07,1.59 z"
       class="cls-1"
       inkscape:connector-curvature="0" />
    <polygon
       style="fill:#000000"
       id="polygon14"
       points="32.45,22.59 31.3,22.59 29.61,23.07 29.92,24.3 30.89,24.07 30.89,28.38 32.45,28.38 "
       class="cls-1" />
    <rect
       style="fill:#000000"
       id="rect16"
       ry="0.75"
       rx="0.75"
       height="1.5"
       width="14.45"
       y="29.82"
       x="18.01"
       class="cls-1" />
    <rect
       style="fill:#000000"
       id="rect18"
       ry="0.75"
       rx="0.75"
       height="1.5"
       width="14.45"
       y="19.690001"
       x="18.01"
       class="cls-1" />
  </g>
</svg>
