<?xml version="1.0" encoding="UTF-8"?>
<svg xmlns="http://www.w3.org/2000/svg" xmlns:xlink="http://www.w3.org/1999/xlink" width="80pt" height="80pt" viewBox="0 0 80 80" version="1.1">
<g id="surface1">
<path style=" stroke:none;fill-rule:nonzero;fill:rgb(0%,0%,0%);fill-opacity:1;" d="M 7.539062 73.144531 C 6.847656 73.144531 6.28125 72.585938 6.28125 71.894531 C 6.28125 71.203125 6.832031 70.644531 7.523438 70.644531 L 7.539062 70.644531 C 8.226562 70.644531 8.789062 71.203125 8.789062 71.894531 C 8.789062 72.585938 8.226562 73.144531 7.539062 73.144531 Z M 7.539062 73.144531 "/>
<path style=" stroke:none;fill-rule:nonzero;fill:rgb(0%,0%,0%);fill-opacity:1;" d="M 76.253906 59.976562 C 75.820312 59.976562 75.398438 59.753906 75.171875 59.351562 C 74.824219 58.753906 75.027344 57.988281 75.625 57.644531 C 76.78125 56.976562 77.5 55.730469 77.5 54.394531 C 77.5 52.328125 75.816406 50.644531 73.75 50.644531 C 73.058594 50.644531 72.5 50.085938 72.5 49.394531 C 72.5 48.703125 73.058594 48.144531 73.75 48.144531 C 77.195312 48.144531 80 50.949219 80 54.394531 C 80 56.617188 78.804688 58.695312 76.878906 59.808594 C 76.679688 59.921875 76.464844 59.976562 76.253906 59.976562 Z M 76.253906 59.976562 "/>
<path style=" stroke:none;fill-rule:nonzero;fill:rgb(0%,0%,0%);fill-opacity:1;" d="M 42.5 78.144531 C 42.054688 78.144531 41.625 77.90625 41.398438 77.488281 C 41.070312 76.878906 41.300781 76.121094 41.90625 75.796875 L 75.65625 57.625 C 76.261719 57.296875 77.023438 57.523438 77.351562 58.132812 C 77.675781 58.738281 77.449219 59.5 76.839844 59.824219 L 43.089844 77.996094 C 42.902344 78.097656 42.703125 78.144531 42.5 78.144531 Z M 42.5 78.144531 "/>
<path style=" stroke:none;fill-rule:nonzero;fill:rgb(0%,0%,0%);fill-opacity:1;" d="M 42.5 78.144531 C 42.449219 78.144531 42.394531 78.140625 42.339844 78.132812 L 13.589844 74.382812 C 12.902344 74.296875 12.421875 73.667969 12.511719 72.984375 C 12.601562 72.296875 13.222656 71.808594 13.910156 71.90625 L 42.660156 75.65625 C 43.347656 75.746094 43.828125 76.371094 43.738281 77.054688 C 43.65625 77.6875 43.121094 78.144531 42.5 78.144531 Z M 42.5 78.144531 "/>
<path style=" stroke:none;fill-rule:nonzero;fill:rgb(0%,0%,0%);fill-opacity:1;" d="M 13.75 76.894531 L 1.25 76.894531 C 0.558594 76.894531 0 76.335938 0 75.644531 L 0 41.894531 C 0 41.203125 0.558594 40.644531 1.25 40.644531 L 13.75 40.644531 C 14.441406 40.644531 15 41.203125 15 41.894531 L 15 75.644531 C 15 76.335938 14.441406 76.894531 13.75 76.894531 Z M 2.5 74.394531 L 12.5 74.394531 L 12.5 43.144531 L 2.5 43.144531 Z M 2.5 74.394531 "/>
<path style=" stroke:none;fill-rule:nonzero;fill:rgb(0%,0%,0%);fill-opacity:1;" d="M 48.75 54.394531 C 48.140625 54.394531 47.609375 53.953125 47.515625 53.332031 C 47.410156 52.648438 47.878906 52.011719 48.5625 51.910156 L 72.707031 48.234375 C 73.390625 48.128906 74.027344 48.597656 74.132812 49.28125 C 74.238281 49.960938 73.769531 50.601562 73.085938 50.703125 L 48.9375 54.378906 C 48.875 54.390625 48.8125 54.394531 48.75 54.394531 Z M 48.75 54.394531 "/>
<path style=" stroke:none;fill-rule:nonzero;fill:rgb(0%,0%,0%);fill-opacity:1;" d="M 43.75 59.394531 C 43.058594 59.394531 42.5 58.835938 42.5 58.144531 C 42.5 57.453125 43.058594 56.894531 43.75 56.894531 C 45.816406 56.894531 47.5 55.210938 47.5 53.144531 C 47.5 51.3125 46.195312 49.761719 44.394531 49.449219 C 43.714844 49.332031 43.261719 48.6875 43.378906 48.007812 C 43.496094 47.324219 44.144531 46.875 44.820312 46.988281 C 47.820312 47.503906 50 50.09375 50 53.144531 C 50 56.589844 47.195312 59.394531 43.75 59.394531 Z M 43.75 59.394531 "/>
<path style=" stroke:none;fill-rule:nonzero;fill:rgb(0%,0%,0%);fill-opacity:1;" d="M 44.609375 49.46875 C 44.53125 49.46875 44.449219 49.460938 44.371094 49.445312 L 24.761719 45.621094 C 24.082031 45.488281 23.640625 44.832031 23.773438 44.152344 C 23.90625 43.476562 24.558594 43.035156 25.238281 43.167969 L 44.847656 46.988281 C 45.527344 47.121094 45.96875 47.777344 45.835938 48.457031 C 45.71875 49.054688 45.195312 49.46875 44.609375 49.46875 Z M 44.609375 49.46875 "/>
<path style=" stroke:none;fill-rule:nonzero;fill:rgb(0%,0%,0%);fill-opacity:1;" d="M 25 45.644531 L 13.75 45.644531 C 13.058594 45.644531 12.5 45.085938 12.5 44.394531 C 12.5 43.703125 13.058594 43.144531 13.75 43.144531 L 25 43.144531 C 25.691406 43.144531 26.25 43.703125 26.25 44.394531 C 26.25 45.085938 25.691406 45.644531 25 45.644531 Z M 25 45.644531 "/>
<path style=" stroke:none;fill-rule:nonzero;fill:rgb(0%,0%,0%);fill-opacity:1;" d="M 43.226562 59.363281 C 43.195312 59.363281 43.160156 59.363281 43.128906 59.359375 L 27.402344 58.140625 C 26.714844 58.085938 26.199219 57.484375 26.253906 56.796875 C 26.308594 56.109375 26.914062 55.589844 27.597656 55.648438 L 43.320312 56.867188 C 44.007812 56.921875 44.523438 57.523438 44.46875 58.210938 C 44.417969 58.867188 43.871094 59.363281 43.226562 59.363281 Z M 43.226562 59.363281 "/>
<path style=" stroke:none;fill-rule:nonzero;fill:rgb(0%,0%,0%);fill-opacity:1;" d="M 72.894531 50.714844 C 72.296875 50.714844 71.765625 50.28125 71.664062 49.671875 C 71.546875 48.988281 72.007812 48.34375 72.6875 48.234375 C 73.039062 48.171875 73.394531 48.144531 73.75 48.144531 C 74.441406 48.144531 75 48.703125 75 49.394531 C 75 50.085938 74.441406 50.644531 73.75 50.644531 C 73.527344 50.644531 73.3125 50.664062 73.101562 50.699219 C 73.03125 50.710938 72.960938 50.714844 72.894531 50.714844 Z M 72.894531 50.714844 "/>
<path style=" stroke:none;fill-rule:nonzero;fill:rgb(0%,0%,0%);fill-opacity:1;" d="M 43.75 59.394531 C 43.523438 59.394531 43.304688 59.382812 43.085938 59.355469 C 42.398438 59.28125 41.90625 58.660156 41.984375 57.976562 C 42.0625 57.289062 42.667969 56.78125 43.367188 56.875 C 43.492188 56.890625 43.621094 56.894531 43.75 56.894531 C 44.441406 56.894531 45 57.453125 45 58.144531 C 45 58.835938 44.441406 59.394531 43.75 59.394531 Z M 43.75 59.394531 "/>
<path style=" stroke:none;fill-rule:nonzero;fill:rgb(0%,0%,0%);fill-opacity:1;" d="M 30.019531 46.582031 C 29.96875 46.582031 29.921875 46.578125 29.871094 46.570312 C 29.183594 46.488281 28.695312 45.867188 28.777344 45.179688 C 29.003906 43.300781 30.605469 41.882812 32.5 41.882812 C 33.191406 41.882812 33.75 42.445312 33.75 43.132812 C 33.75 43.828125 33.191406 44.382812 32.5 44.382812 C 31.867188 44.382812 31.332031 44.855469 31.261719 45.476562 C 31.183594 46.113281 30.644531 46.582031 30.019531 46.582031 Z M 30.019531 46.582031 "/>
<path style=" stroke:none;fill-rule:nonzero;fill:rgb(0%,0%,0%);fill-opacity:1;" d="M 57.5 46.882812 C 56.808594 46.882812 56.25 46.328125 56.25 45.632812 C 56.25 44.945312 55.691406 44.382812 55 44.382812 C 54.308594 44.382812 53.75 43.828125 53.75 43.132812 C 53.75 42.445312 54.308594 41.882812 55 41.882812 C 57.070312 41.882812 58.75 43.566406 58.75 45.632812 C 58.75 46.328125 58.191406 46.882812 57.5 46.882812 Z M 57.5 46.882812 "/>
<path style=" stroke:none;fill-rule:nonzero;fill:rgb(0%,0%,0%);fill-opacity:1;" d="M 57.5 53.152344 C 56.808594 53.152344 56.25 52.59375 56.25 51.902344 L 56.25 45.636719 C 56.25 44.945312 56.808594 44.386719 57.5 44.386719 C 58.191406 44.386719 58.75 44.945312 58.75 45.636719 L 58.75 51.902344 C 58.75 52.59375 58.191406 53.152344 57.5 53.152344 Z M 57.5 53.152344 "/>
<path style=" stroke:none;fill-rule:nonzero;fill:rgb(0%,0%,0%);fill-opacity:1;" d="M 55 44.382812 L 32.5 44.382812 C 31.808594 44.382812 31.25 43.828125 31.25 43.132812 C 31.25 42.445312 31.808594 41.882812 32.5 41.882812 L 55 41.882812 C 55.691406 41.882812 56.25 42.445312 56.25 43.132812 C 56.25 43.828125 55.691406 44.382812 55 44.382812 Z M 55 44.382812 "/>
<path style=" stroke:none;fill-rule:nonzero;fill:rgb(0%,0%,0%);fill-opacity:1;" d="M 41.875 44.382812 C 41.183594 44.382812 40.625 43.824219 40.625 43.132812 L 40.625 10.625 C 40.625 9.933594 41.183594 9.375 41.875 9.375 C 42.566406 9.375 43.125 9.933594 43.125 10.625 L 43.125 43.132812 C 43.125 43.824219 42.566406 44.382812 41.875 44.382812 Z M 41.875 44.382812 "/>
<path style=" stroke:none;fill-rule:nonzero;fill:rgb(0%,0%,0%);fill-opacity:1;" d="M 45.625 44.382812 C 44.933594 44.382812 44.375 43.824219 44.375 43.132812 L 44.375 10.625 C 44.375 9.933594 44.933594 9.375 45.625 9.375 C 46.316406 9.375 46.875 9.933594 46.875 10.625 L 46.875 43.132812 C 46.875 43.824219 46.316406 44.382812 45.625 44.382812 Z M 45.625 44.382812 "/>
<path style=" stroke:none;fill-rule:nonzero;fill:rgb(0%,0%,0%);fill-opacity:1;" d="M 45.625 6.25 C 44.933594 6.25 44.375 5.691406 44.375 5 C 44.375 4.65625 44.09375 4.375 43.75 4.375 C 43.40625 4.375 43.125 4.65625 43.125 5 C 43.125 5.691406 42.566406 6.25 41.875 6.25 C 41.183594 6.25 40.625 5.691406 40.625 5 C 40.625 3.277344 42.027344 1.875 43.75 1.875 C 45.472656 1.875 46.875 3.277344 46.875 5 C 46.875 5.691406 46.316406 6.25 45.625 6.25 Z M 45.625 6.25 "/>
<path style=" stroke:none;fill-rule:nonzero;fill:rgb(0%,0%,0%);fill-opacity:1;" d="M 61.894531 11.875 C 61.203125 11.875 60.644531 11.316406 60.644531 10.625 C 60.644531 9.933594 61.203125 9.375 61.894531 9.375 C 62.238281 9.375 62.519531 9.09375 62.519531 8.75 C 62.519531 8.40625 62.238281 8.125 61.894531 8.125 C 61.203125 8.125 60.644531 7.566406 60.644531 6.875 C 60.644531 6.183594 61.203125 5.625 61.894531 5.625 C 63.617188 5.625 65.019531 7.027344 65.019531 8.75 C 65.019531 10.472656 63.617188 11.875 61.894531 11.875 Z M 61.894531 11.875 "/>
<path style=" stroke:none;fill-rule:nonzero;fill:rgb(0%,0%,0%);fill-opacity:1;" d="M 25.640625 11.875 C 23.917969 11.875 22.515625 10.472656 22.515625 8.75 C 22.515625 7.027344 23.917969 5.625 25.640625 5.625 C 26.332031 5.625 26.890625 6.183594 26.890625 6.875 C 26.890625 7.566406 26.332031 8.125 25.640625 8.125 C 25.296875 8.125 25.015625 8.40625 25.015625 8.75 C 25.015625 9.09375 25.296875 9.375 25.640625 9.375 C 26.332031 9.375 26.890625 9.933594 26.890625 10.625 C 26.890625 11.316406 26.332031 11.875 25.640625 11.875 Z M 25.640625 11.875 "/>
<path style=" stroke:none;fill-rule:nonzero;fill:rgb(0%,0%,0%);fill-opacity:1;" d="M 61.894531 8.128906 L 25.726562 8.128906 C 25.035156 8.128906 24.476562 7.570312 24.476562 6.878906 C 24.476562 6.1875 25.035156 5.628906 25.726562 5.628906 L 61.894531 5.628906 C 62.585938 5.628906 63.144531 6.1875 63.144531 6.878906 C 63.144531 7.570312 62.585938 8.128906 61.894531 8.128906 Z M 61.894531 8.128906 "/>
<path style=" stroke:none;fill-rule:nonzero;fill:rgb(0%,0%,0%);fill-opacity:1;" d="M 61.894531 11.875 L 25.726562 11.875 C 25.035156 11.875 24.476562 11.316406 24.476562 10.625 C 24.476562 9.933594 25.035156 9.375 25.726562 9.375 L 61.894531 9.375 C 62.585938 9.375 63.144531 9.933594 63.144531 10.625 C 63.144531 11.316406 62.585938 11.875 61.894531 11.875 Z M 61.894531 11.875 "/>
<path style=" stroke:none;fill-rule:nonzero;fill:rgb(0%,0%,0%);fill-opacity:1;" d="M 41.875 8.128906 C 41.183594 8.128906 40.625 7.570312 40.625 6.878906 L 40.625 5 C 40.625 4.308594 41.183594 3.75 41.875 3.75 C 42.566406 3.75 43.125 4.308594 43.125 5 L 43.125 6.878906 C 43.125 7.570312 42.566406 8.128906 41.875 8.128906 Z M 41.875 8.128906 "/>
<path style=" stroke:none;fill-rule:nonzero;fill:rgb(0%,0%,0%);fill-opacity:1;" d="M 45.625 8.125 C 44.933594 8.125 44.375 7.566406 44.375 6.875 L 44.375 5 C 44.375 4.308594 44.933594 3.75 45.625 3.75 C 46.316406 3.75 46.875 4.308594 46.875 5 L 46.875 6.875 C 46.875 7.566406 46.316406 8.125 45.625 8.125 Z M 45.625 8.125 "/>
<path style=" stroke:none;fill-rule:nonzero;fill:rgb(0%,0%,0%);fill-opacity:1;" d="M 26.269531 35.632812 C 22.132812 35.632812 18.765625 32.269531 18.765625 28.132812 C 18.765625 27.441406 19.324219 26.882812 20.015625 26.882812 C 20.707031 26.882812 21.265625 27.441406 21.265625 28.132812 C 21.265625 30.890625 23.511719 33.132812 26.269531 33.132812 C 29.023438 33.132812 31.269531 30.890625 31.269531 28.132812 C 31.269531 27.441406 31.828125 26.882812 32.519531 26.882812 C 33.210938 26.882812 33.769531 27.441406 33.769531 28.132812 C 33.769531 32.269531 30.402344 35.632812 26.269531 35.632812 Z M 26.269531 35.632812 "/>
<path style=" stroke:none;fill-rule:nonzero;fill:rgb(0%,0%,0%);fill-opacity:1;" d="M 32.519531 29.382812 L 20.015625 29.382812 C 19.324219 29.382812 18.765625 28.824219 18.765625 28.132812 C 18.765625 27.441406 19.324219 26.882812 20.015625 26.882812 L 32.519531 26.882812 C 33.210938 26.882812 33.769531 27.441406 33.769531 28.132812 C 33.769531 28.824219 33.207031 29.382812 32.519531 29.382812 Z M 32.519531 29.382812 "/>
<path style=" stroke:none;fill-rule:nonzero;fill:rgb(0%,0%,0%);fill-opacity:1;" d="M 20.015625 29.382812 C 19.878906 29.382812 19.734375 29.359375 19.597656 29.308594 C 18.945312 29.078125 18.605469 28.359375 18.839844 27.710938 L 25.09375 10.203125 C 25.324219 9.554688 26.039062 9.210938 26.6875 9.449219 C 27.339844 9.679688 27.679688 10.394531 27.445312 11.042969 L 21.191406 28.550781 C 21.011719 29.0625 20.53125 29.382812 20.015625 29.382812 Z M 20.015625 29.382812 "/>
<path style=" stroke:none;fill-rule:nonzero;fill:rgb(0%,0%,0%);fill-opacity:1;" d="M 32.519531 29.382812 C 32.003906 29.382812 31.523438 29.0625 31.34375 28.550781 L 25.09375 11.042969 C 24.859375 10.394531 25.199219 9.679688 25.847656 9.449219 C 26.496094 9.210938 27.214844 9.554688 27.445312 10.203125 L 33.695312 27.710938 C 33.929688 28.363281 33.589844 29.078125 32.9375 29.308594 C 32.800781 29.359375 32.65625 29.382812 32.519531 29.382812 Z M 32.519531 29.382812 "/>
<path style=" stroke:none;fill-rule:nonzero;fill:rgb(0%,0%,0%);fill-opacity:1;" d="M 61.300781 36.902344 C 57.15625 36.902344 53.78125 33.53125 53.78125 29.382812 C 53.78125 28.691406 54.339844 28.132812 55.03125 28.132812 C 55.722656 28.132812 56.28125 28.691406 56.28125 29.382812 C 56.28125 32.148438 58.535156 34.402344 61.300781 34.402344 C 64.070312 34.402344 66.320312 32.148438 66.320312 29.382812 C 66.320312 28.691406 66.878906 28.132812 67.570312 28.132812 C 68.261719 28.132812 68.820312 28.691406 68.820312 29.382812 C 68.820312 33.527344 65.449219 36.902344 61.300781 36.902344 Z M 61.300781 36.902344 "/>
<path style=" stroke:none;fill-rule:nonzero;fill:rgb(0%,0%,0%);fill-opacity:1;" d="M 67.550781 30.632812 L 55.050781 30.632812 C 54.359375 30.632812 53.800781 30.074219 53.800781 29.382812 C 53.800781 28.691406 54.359375 28.132812 55.050781 28.132812 L 67.550781 28.132812 C 68.242188 28.132812 68.800781 28.691406 68.800781 29.382812 C 68.800781 30.074219 68.242188 30.632812 67.550781 30.632812 Z M 67.550781 30.632812 "/>
<path style=" stroke:none;fill-rule:nonzero;fill:rgb(0%,0%,0%);fill-opacity:1;" d="M 55.050781 30.632812 C 54.921875 30.632812 54.785156 30.609375 54.65625 30.566406 C 54 30.351562 53.644531 29.640625 53.863281 28.984375 L 60.117188 10.230469 C 60.335938 9.574219 61.035156 9.21875 61.699219 9.4375 C 62.351562 9.65625 62.707031 10.363281 62.488281 11.019531 L 56.234375 29.777344 C 56.0625 30.300781 55.574219 30.632812 55.050781 30.632812 Z M 55.050781 30.632812 "/>
<path style=" stroke:none;fill-rule:nonzero;fill:rgb(0%,0%,0%);fill-opacity:1;" d="M 67.550781 30.632812 C 67.027344 30.632812 66.542969 30.300781 66.367188 29.777344 L 60.117188 11.019531 C 59.898438 10.363281 60.253906 9.65625 60.90625 9.4375 C 61.570312 9.21875 62.269531 9.574219 62.488281 10.230469 L 68.738281 28.984375 C 68.957031 29.640625 68.601562 30.351562 67.949219 30.566406 C 67.816406 30.609375 67.683594 30.632812 67.550781 30.632812 Z M 67.550781 30.632812 "/>
</g>
</svg>
