<?xml version="1.0" encoding="UTF-8"?>
<svg xmlns="http://www.w3.org/2000/svg" xmlns:xlink="http://www.w3.org/1999/xlink" width="80pt" height="80pt" viewBox="0 0 80 80" version="1.1">
<g id="surface1">
<path style=" stroke:none;fill-rule:nonzero;fill:rgb(0%,0%,0%);fill-opacity:1;" d="M 74.992188 80 L 5 80 C 4.308594 80 3.75 79.441406 3.75 78.75 C 3.75 78.058594 4.308594 77.5 5 77.5 L 74.992188 77.5 C 75.683594 77.5 76.242188 78.058594 76.242188 78.75 C 76.242188 79.441406 75.683594 80 74.992188 80 Z M 74.992188 80 "/>
<path style=" stroke:none;fill-rule:nonzero;fill:rgb(0%,0%,0%);fill-opacity:1;" d="M 71.242188 80 C 70.550781 80 69.992188 79.441406 69.992188 78.75 L 69.992188 75 C 69.992188 74.308594 70.550781 73.75 71.242188 73.75 C 71.933594 73.75 72.492188 74.308594 72.492188 75 L 72.492188 78.75 C 72.492188 79.441406 71.933594 80 71.242188 80 Z M 71.242188 80 "/>
<path style=" stroke:none;fill-rule:nonzero;fill:rgb(0%,0%,0%);fill-opacity:1;" d="M 71.242188 76.25 L 8.75 76.25 C 8.058594 76.25 7.5 75.691406 7.5 75 C 7.5 74.308594 8.058594 73.75 8.75 73.75 L 71.242188 73.75 C 71.933594 73.75 72.492188 74.308594 72.492188 75 C 72.492188 75.691406 71.933594 76.25 71.242188 76.25 Z M 71.242188 76.25 "/>
<path style=" stroke:none;fill-rule:nonzero;fill:rgb(0%,0%,0%);fill-opacity:1;" d="M 8.75 80 C 8.058594 80 7.5 79.441406 7.5 78.75 L 7.5 75 C 7.5 74.308594 8.058594 73.75 8.75 73.75 C 9.441406 73.75 10 74.308594 10 75 L 10 78.75 C 10 79.441406 9.441406 80 8.75 80 Z M 8.75 80 "/>
<path style=" stroke:none;fill-rule:nonzero;fill:rgb(0%,0%,0%);fill-opacity:1;" d="M 67.488281 76.246094 C 66.796875 76.246094 66.238281 75.6875 66.238281 74.996094 L 66.238281 71.246094 C 66.238281 70.554688 66.796875 69.996094 67.488281 69.996094 C 68.179688 69.996094 68.738281 70.554688 68.738281 71.246094 L 68.738281 74.996094 C 68.738281 75.6875 68.179688 76.246094 67.488281 76.246094 Z M 67.488281 76.246094 "/>
<path style=" stroke:none;fill-rule:nonzero;fill:rgb(0%,0%,0%);fill-opacity:1;" d="M 67.488281 72.496094 L 12.503906 72.496094 C 11.8125 72.496094 11.253906 71.9375 11.253906 71.246094 C 11.253906 70.554688 11.8125 69.996094 12.503906 69.996094 L 67.488281 69.996094 C 68.179688 69.996094 68.738281 70.554688 68.738281 71.246094 C 68.738281 71.9375 68.179688 72.496094 67.488281 72.496094 Z M 67.488281 72.496094 "/>
<path style=" stroke:none;fill-rule:nonzero;fill:rgb(0%,0%,0%);fill-opacity:1;" d="M 12.503906 76.246094 C 11.8125 76.246094 11.253906 75.6875 11.253906 74.996094 L 11.253906 71.246094 C 11.253906 70.554688 11.8125 69.996094 12.503906 69.996094 C 13.195312 69.996094 13.753906 70.554688 13.753906 71.246094 L 13.753906 74.996094 C 13.753906 75.6875 13.195312 76.246094 12.503906 76.246094 Z M 12.503906 76.246094 "/>
<path style=" stroke:none;fill-rule:nonzero;fill:rgb(0%,0%,0%);fill-opacity:1;" d="M 28.75 72.496094 C 28.058594 72.496094 27.5 71.9375 27.5 71.246094 L 27.5 68.753906 L 17.480469 68.753906 L 17.480469 71.246094 C 17.480469 71.9375 16.921875 72.496094 16.230469 72.496094 C 15.539062 72.496094 14.980469 71.9375 14.980469 71.246094 L 14.980469 67.503906 C 14.980469 66.8125 15.539062 66.253906 16.230469 66.253906 L 28.75 66.253906 C 29.441406 66.253906 30 66.8125 30 67.503906 L 30 71.246094 C 30 71.9375 29.441406 72.496094 28.75 72.496094 Z M 28.75 72.496094 "/>
<path style=" stroke:none;fill-rule:nonzero;fill:rgb(0%,0%,0%);fill-opacity:1;" d="M 46.238281 72.496094 C 45.546875 72.496094 44.988281 71.9375 44.988281 71.246094 L 44.988281 68.753906 L 34.964844 68.753906 L 34.964844 71.246094 C 34.964844 71.9375 34.40625 72.496094 33.714844 72.496094 C 33.023438 72.496094 32.464844 71.9375 32.464844 71.246094 L 32.464844 67.503906 C 32.464844 66.8125 33.023438 66.253906 33.714844 66.253906 L 46.238281 66.253906 C 46.929688 66.253906 47.488281 66.8125 47.488281 67.503906 L 47.488281 71.246094 C 47.488281 71.9375 46.929688 72.496094 46.238281 72.496094 Z M 46.238281 72.496094 "/>
<path style=" stroke:none;fill-rule:nonzero;fill:rgb(0%,0%,0%);fill-opacity:1;" d="M 63.757812 72.496094 C 63.066406 72.496094 62.507812 71.9375 62.507812 71.246094 L 62.507812 68.753906 L 52.484375 68.753906 L 52.484375 71.246094 C 52.484375 71.9375 51.925781 72.496094 51.234375 72.496094 C 50.542969 72.496094 49.984375 71.9375 49.984375 71.246094 L 49.984375 67.503906 C 49.984375 66.8125 50.542969 66.253906 51.234375 66.253906 L 63.757812 66.253906 C 64.449219 66.253906 65.007812 66.8125 65.007812 67.503906 L 65.007812 71.246094 C 65.007812 71.9375 64.449219 72.496094 63.757812 72.496094 Z M 63.757812 72.496094 "/>
<path style=" stroke:none;fill-rule:nonzero;fill:rgb(0%,0%,0%);fill-opacity:1;" d="M 18.746094 68.753906 C 18.054688 68.753906 17.496094 68.195312 17.496094 67.503906 L 17.496094 41.878906 C 17.496094 41.1875 18.054688 40.628906 18.746094 40.628906 C 19.4375 40.628906 19.996094 41.1875 19.996094 41.878906 L 19.996094 67.503906 C 19.996094 68.195312 19.4375 68.753906 18.746094 68.753906 Z M 18.746094 68.753906 "/>
<path style=" stroke:none;fill-rule:nonzero;fill:rgb(0%,0%,0%);fill-opacity:1;" d="M 26.246094 68.753906 C 25.554688 68.753906 24.996094 68.195312 24.996094 67.503906 L 24.996094 41.878906 C 24.996094 41.1875 25.554688 40.628906 26.246094 40.628906 C 26.9375 40.628906 27.496094 41.1875 27.496094 41.878906 L 27.496094 67.503906 C 27.496094 68.195312 26.9375 68.753906 26.246094 68.753906 Z M 26.246094 68.753906 "/>
<path style=" stroke:none;fill-rule:nonzero;fill:rgb(0%,0%,0%);fill-opacity:1;" d="M 16.871094 45.003906 C 15.148438 45.003906 13.746094 43.601562 13.746094 41.878906 C 13.746094 40.15625 15.148438 38.753906 16.871094 38.753906 C 18.597656 38.753906 19.996094 40.15625 19.996094 41.878906 C 19.996094 43.601562 18.597656 45.003906 16.871094 45.003906 Z M 16.871094 41.253906 C 16.527344 41.253906 16.246094 41.535156 16.246094 41.878906 C 16.246094 42.222656 16.527344 42.503906 16.871094 42.503906 C 17.214844 42.503906 17.496094 42.222656 17.496094 41.878906 C 17.496094 41.535156 17.214844 41.253906 16.871094 41.253906 Z M 16.871094 41.253906 "/>
<path style=" stroke:none;fill-rule:nonzero;fill:rgb(0%,0%,0%);fill-opacity:1;" d="M 28.121094 45.003906 C 26.398438 45.003906 24.996094 43.601562 24.996094 41.878906 C 24.996094 40.15625 26.398438 38.753906 28.121094 38.753906 C 29.84375 38.753906 31.246094 40.15625 31.246094 41.878906 C 31.246094 43.601562 29.84375 45.003906 28.121094 45.003906 Z M 28.121094 41.253906 C 27.777344 41.253906 27.496094 41.535156 27.496094 41.878906 C 27.496094 42.222656 27.777344 42.503906 28.121094 42.503906 C 28.464844 42.503906 28.746094 42.222656 28.746094 41.878906 C 28.746094 41.535156 28.464844 41.253906 28.121094 41.253906 Z M 28.121094 41.253906 "/>
<path style=" stroke:none;fill-rule:nonzero;fill:rgb(0%,0%,0%);fill-opacity:1;" d="M 71.246094 41.253906 L 8.746094 41.253906 C 8.054688 41.253906 7.496094 40.695312 7.496094 40.003906 C 7.496094 39.3125 8.054688 38.753906 8.746094 38.753906 L 71.246094 38.753906 C 71.9375 38.753906 72.496094 39.3125 72.496094 40.003906 C 72.496094 40.695312 71.9375 41.253906 71.246094 41.253906 Z M 71.246094 41.253906 "/>
<path style=" stroke:none;fill-rule:nonzero;fill:rgb(0%,0%,0%);fill-opacity:1;" d="M 36.246094 68.753906 C 35.554688 68.753906 34.996094 68.195312 34.996094 67.503906 L 34.996094 41.878906 C 34.996094 41.1875 35.554688 40.628906 36.246094 40.628906 C 36.9375 40.628906 37.496094 41.1875 37.496094 41.878906 L 37.496094 67.503906 C 37.496094 68.195312 36.9375 68.753906 36.246094 68.753906 Z M 36.246094 68.753906 "/>
<path style=" stroke:none;fill-rule:nonzero;fill:rgb(0%,0%,0%);fill-opacity:1;" d="M 43.746094 68.753906 C 43.054688 68.753906 42.496094 68.195312 42.496094 67.503906 L 42.496094 41.878906 C 42.496094 41.1875 43.054688 40.628906 43.746094 40.628906 C 44.4375 40.628906 44.996094 41.1875 44.996094 41.878906 L 44.996094 67.503906 C 44.996094 68.195312 44.4375 68.753906 43.746094 68.753906 Z M 43.746094 68.753906 "/>
<path style=" stroke:none;fill-rule:nonzero;fill:rgb(0%,0%,0%);fill-opacity:1;" d="M 34.371094 45.003906 C 32.648438 45.003906 31.246094 43.601562 31.246094 41.878906 C 31.246094 40.15625 32.648438 38.753906 34.371094 38.753906 C 36.097656 38.753906 37.496094 40.15625 37.496094 41.878906 C 37.496094 43.601562 36.097656 45.003906 34.371094 45.003906 Z M 34.371094 41.253906 C 34.027344 41.253906 33.746094 41.535156 33.746094 41.878906 C 33.746094 42.222656 34.027344 42.503906 34.371094 42.503906 C 34.714844 42.503906 34.996094 42.222656 34.996094 41.878906 C 34.996094 41.535156 34.714844 41.253906 34.371094 41.253906 Z M 34.371094 41.253906 "/>
<path style=" stroke:none;fill-rule:nonzero;fill:rgb(0%,0%,0%);fill-opacity:1;" d="M 45.621094 45.003906 C 43.898438 45.003906 42.496094 43.601562 42.496094 41.878906 C 42.496094 40.15625 43.898438 38.753906 45.621094 38.753906 C 47.34375 38.753906 48.746094 40.15625 48.746094 41.878906 C 48.746094 43.601562 47.34375 45.003906 45.621094 45.003906 Z M 45.621094 41.253906 C 45.277344 41.253906 44.996094 41.535156 44.996094 41.878906 C 44.996094 42.222656 45.277344 42.503906 45.621094 42.503906 C 45.964844 42.503906 46.246094 42.222656 46.246094 41.878906 C 46.246094 41.535156 45.964844 41.253906 45.621094 41.253906 Z M 45.621094 41.253906 "/>
<path style=" stroke:none;fill-rule:nonzero;fill:rgb(0%,0%,0%);fill-opacity:1;" d="M 53.746094 68.753906 C 53.054688 68.753906 52.496094 68.195312 52.496094 67.503906 L 52.496094 41.878906 C 52.496094 41.1875 53.054688 40.628906 53.746094 40.628906 C 54.4375 40.628906 54.996094 41.1875 54.996094 41.878906 L 54.996094 67.503906 C 54.996094 68.195312 54.4375 68.753906 53.746094 68.753906 Z M 53.746094 68.753906 "/>
<path style=" stroke:none;fill-rule:nonzero;fill:rgb(0%,0%,0%);fill-opacity:1;" d="M 61.246094 68.753906 C 60.554688 68.753906 59.996094 68.195312 59.996094 67.503906 L 59.996094 41.878906 C 59.996094 41.1875 60.554688 40.628906 61.246094 40.628906 C 61.9375 40.628906 62.496094 41.1875 62.496094 41.878906 L 62.496094 67.503906 C 62.496094 68.195312 61.9375 68.753906 61.246094 68.753906 Z M 61.246094 68.753906 "/>
<path style=" stroke:none;fill-rule:nonzero;fill:rgb(0%,0%,0%);fill-opacity:1;" d="M 51.871094 45.003906 C 50.148438 45.003906 48.746094 43.601562 48.746094 41.878906 C 48.746094 40.15625 50.148438 38.753906 51.871094 38.753906 C 53.597656 38.753906 54.996094 40.15625 54.996094 41.878906 C 54.996094 43.601562 53.597656 45.003906 51.871094 45.003906 Z M 51.871094 41.253906 C 51.527344 41.253906 51.246094 41.535156 51.246094 41.878906 C 51.246094 42.222656 51.527344 42.503906 51.871094 42.503906 C 52.214844 42.503906 52.496094 42.222656 52.496094 41.878906 C 52.496094 41.535156 52.214844 41.253906 51.871094 41.253906 Z M 51.871094 41.253906 "/>
<path style=" stroke:none;fill-rule:nonzero;fill:rgb(0%,0%,0%);fill-opacity:1;" d="M 63.121094 45.003906 C 61.398438 45.003906 59.996094 43.601562 59.996094 41.878906 C 59.996094 40.15625 61.398438 38.753906 63.121094 38.753906 C 64.84375 38.753906 66.246094 40.15625 66.246094 41.878906 C 66.246094 43.601562 64.84375 45.003906 63.121094 45.003906 Z M 63.121094 41.253906 C 62.777344 41.253906 62.496094 41.535156 62.496094 41.878906 C 62.496094 42.222656 62.777344 42.503906 63.121094 42.503906 C 63.464844 42.503906 63.746094 42.222656 63.746094 41.878906 C 63.746094 41.535156 63.464844 41.253906 63.121094 41.253906 Z M 63.121094 41.253906 "/>
<path style=" stroke:none;fill-rule:nonzero;fill:rgb(0%,0%,0%);fill-opacity:1;" d="M 22.488281 62.503906 C 21.796875 62.503906 21.238281 61.945312 21.238281 61.253906 L 21.238281 46.234375 C 21.238281 45.542969 21.796875 44.984375 22.488281 44.984375 C 23.179688 44.984375 23.738281 45.542969 23.738281 46.234375 L 23.738281 61.253906 C 23.738281 61.945312 23.179688 62.503906 22.488281 62.503906 Z M 22.488281 62.503906 "/>
<path style=" stroke:none;fill-rule:nonzero;fill:rgb(0%,0%,0%);fill-opacity:1;" d="M 39.996094 62.503906 C 39.304688 62.503906 38.746094 61.945312 38.746094 61.253906 L 38.746094 46.234375 C 38.746094 45.542969 39.304688 44.984375 39.996094 44.984375 C 40.6875 44.984375 41.246094 45.542969 41.246094 46.234375 L 41.246094 61.253906 C 41.246094 61.945312 40.6875 62.503906 39.996094 62.503906 Z M 39.996094 62.503906 "/>
<path style=" stroke:none;fill-rule:nonzero;fill:rgb(0%,0%,0%);fill-opacity:1;" d="M 57.503906 62.503906 C 56.8125 62.503906 56.253906 61.945312 56.253906 61.253906 L 56.253906 46.234375 C 56.253906 45.542969 56.8125 44.984375 57.503906 44.984375 C 58.195312 44.984375 58.753906 45.542969 58.753906 46.234375 L 58.753906 61.253906 C 58.753906 61.945312 58.195312 62.503906 57.503906 62.503906 Z M 57.503906 62.503906 "/>
<path style=" stroke:none;fill-rule:nonzero;fill:rgb(0%,0%,0%);fill-opacity:1;" d="M 8.746094 41.253906 C 8.054688 41.253906 7.496094 40.695312 7.496094 40.003906 L 7.496094 36.253906 C 7.496094 35.5625 8.054688 35.003906 8.746094 35.003906 C 9.4375 35.003906 9.996094 35.5625 9.996094 36.253906 L 9.996094 40.003906 C 9.996094 40.695312 9.4375 41.253906 8.746094 41.253906 Z M 8.746094 41.253906 "/>
<path style=" stroke:none;fill-rule:nonzero;fill:rgb(0%,0%,0%);fill-opacity:1;" d="M 71.246094 41.253906 C 70.554688 41.253906 69.996094 40.695312 69.996094 40.003906 L 69.996094 36.253906 C 69.996094 35.5625 70.554688 35.003906 71.246094 35.003906 C 71.9375 35.003906 72.496094 35.5625 72.496094 36.253906 L 72.496094 40.003906 C 72.496094 40.695312 71.9375 41.253906 71.246094 41.253906 Z M 71.246094 41.253906 "/>
<path style=" stroke:none;fill-rule:nonzero;fill:rgb(0%,0%,0%);fill-opacity:1;" d="M 8.75 37.503906 C 8.28125 37.503906 7.835938 37.242188 7.621094 36.796875 C 7.324219 36.175781 7.585938 35.425781 8.207031 35.128906 L 39.4375 20.125 C 40.058594 19.820312 40.804688 20.085938 41.101562 20.710938 C 41.402344 21.332031 41.140625 22.078125 40.515625 22.378906 L 9.289062 37.382812 C 9.113281 37.464844 8.929688 37.503906 8.75 37.503906 Z M 8.75 37.503906 "/>
<path style=" stroke:none;fill-rule:nonzero;fill:rgb(0%,0%,0%);fill-opacity:1;" d="M 71.246094 37.503906 C 71.0625 37.503906 70.878906 37.464844 70.703125 37.382812 L 39.4375 22.375 C 38.8125 22.078125 38.550781 21.332031 38.851562 20.707031 C 39.148438 20.085938 39.890625 19.820312 40.515625 20.121094 L 71.789062 35.128906 C 72.410156 35.425781 72.671875 36.171875 72.375 36.796875 C 72.15625 37.242188 71.710938 37.503906 71.246094 37.503906 Z M 71.246094 37.503906 "/>
<path style=" stroke:none;fill-rule:nonzero;fill:rgb(0%,0%,0%);fill-opacity:1;" d="M 71.246094 37.503906 L 8.746094 37.503906 C 8.054688 37.503906 7.496094 36.945312 7.496094 36.253906 C 7.496094 35.5625 8.054688 35.003906 8.746094 35.003906 L 71.246094 35.003906 C 71.9375 35.003906 72.496094 35.5625 72.496094 36.253906 C 72.496094 36.945312 71.9375 37.503906 71.246094 37.503906 Z M 71.246094 37.503906 "/>
<path style=" stroke:none;fill-rule:nonzero;fill:rgb(0%,0%,0%);fill-opacity:1;" d="M 39.996094 22.5 C 33.792969 22.5 28.746094 17.453125 28.746094 11.25 C 28.746094 5.046875 33.792969 0 39.996094 0 C 46.199219 0 51.246094 5.046875 51.246094 11.25 C 51.246094 17.453125 46.199219 22.5 39.996094 22.5 Z M 39.996094 2.5 C 35.171875 2.5 31.246094 6.425781 31.246094 11.25 C 31.246094 16.074219 35.171875 20 39.996094 20 C 44.820312 20 48.746094 16.074219 48.746094 11.25 C 48.746094 6.425781 44.820312 2.5 39.996094 2.5 Z M 39.996094 2.5 "/>
<path style=" stroke:none;fill-rule:nonzero;fill:rgb(0%,0%,0%);fill-opacity:1;" d="M 42.515625 17.496094 L 37.519531 17.496094 C 36.828125 17.496094 36.269531 16.9375 36.269531 16.246094 C 36.269531 15.554688 36.828125 14.996094 37.519531 14.996094 L 42.515625 14.996094 C 43.203125 14.996094 43.765625 15.554688 43.765625 16.246094 C 43.765625 16.9375 43.203125 17.496094 42.515625 17.496094 Z M 42.515625 17.496094 "/>
<path style=" stroke:none;fill-rule:nonzero;fill:rgb(0%,0%,0%);fill-opacity:1;" d="M 40.015625 17.496094 C 39.324219 17.496094 38.765625 16.9375 38.765625 16.246094 L 38.765625 6.25 C 38.765625 5.558594 39.324219 5 40.015625 5 C 40.707031 5 41.265625 5.558594 41.265625 6.25 L 41.265625 16.246094 C 41.265625 16.9375 40.707031 17.496094 40.015625 17.496094 Z M 40.015625 17.496094 "/>
<path style=" stroke:none;fill-rule:nonzero;fill:rgb(0%,0%,0%);fill-opacity:1;" d="M 43.765625 8.75 L 36.269531 8.75 C 35.578125 8.75 35.019531 8.191406 35.019531 7.5 C 35.019531 6.808594 35.578125 6.25 36.269531 6.25 L 43.765625 6.25 C 44.457031 6.25 45.015625 6.808594 45.015625 7.5 C 45.015625 8.191406 44.453125 8.75 43.765625 8.75 Z M 43.765625 8.75 "/>
<path style=" stroke:none;fill-rule:nonzero;fill:rgb(0%,0%,0%);fill-opacity:1;" d="M 44.976562 12.5 L 43.765625 12.5 C 43.074219 12.5 42.515625 11.941406 42.515625 11.25 C 42.515625 10.558594 43.074219 10 43.765625 10 L 44.976562 10 C 45.667969 10 46.226562 10.558594 46.226562 11.25 C 46.226562 11.941406 45.667969 12.5 44.976562 12.5 Z M 44.976562 12.5 "/>
<path style=" stroke:none;fill-rule:nonzero;fill:rgb(0%,0%,0%);fill-opacity:1;" d="M 36.265625 12.5 L 35.019531 12.5 C 34.328125 12.5 33.769531 11.941406 33.769531 11.25 C 33.769531 10.558594 34.328125 10 35.019531 10 L 36.265625 10 C 36.957031 10 37.515625 10.558594 37.515625 11.25 C 37.515625 11.941406 36.957031 12.5 36.265625 12.5 Z M 36.265625 12.5 "/>
</g>
</svg>
