<?xml version="1.0" encoding="UTF-8"?>
<svg xmlns="http://www.w3.org/2000/svg" xmlns:xlink="http://www.w3.org/1999/xlink" width="80pt" height="80pt" viewBox="0 0 80 80" version="1.1">
<g id="surface1">
<path style=" stroke:none;fill-rule:nonzero;fill:rgb(0%,0%,0%);fill-opacity:1;" d="M 2.210938 66.769531 C 1.511719 66.769531 0.949219 66.207031 0.949219 65.511719 C 0.949219 59.257812 6.035156 54.167969 12.289062 54.167969 C 12.988281 54.167969 13.550781 54.734375 13.550781 55.429688 C 13.550781 56.125 12.988281 56.6875 12.289062 56.6875 C 7.425781 56.6875 3.46875 60.644531 3.46875 65.511719 C 3.46875 66.207031 2.90625 66.769531 2.210938 66.769531 Z M 2.210938 66.769531 "/>
<path style=" stroke:none;fill-rule:nonzero;fill:rgb(0%,0%,0%);fill-opacity:1;" d="M 50.074219 58.035156 C 49.859375 58.035156 49.640625 57.980469 49.445312 57.867188 C 48.113281 57.097656 46.589844 56.691406 45.039062 56.691406 C 44.34375 56.691406 43.777344 56.128906 43.777344 55.429688 C 43.777344 54.734375 44.34375 54.171875 45.039062 54.171875 C 47.035156 54.171875 48.992188 54.695312 50.703125 55.683594 C 51.308594 56.03125 51.515625 56.800781 51.164062 57.402344 C 50.933594 57.8125 50.507812 58.035156 50.074219 58.035156 Z M 50.074219 58.035156 "/>
<path style=" stroke:none;fill-rule:nonzero;fill:rgb(0%,0%,0%);fill-opacity:1;" d="M 17.328125 56.6875 L 12.289062 56.6875 C 11.59375 56.6875 11.03125 56.125 11.03125 55.429688 C 11.03125 54.734375 11.59375 54.167969 12.289062 54.167969 L 17.328125 54.167969 C 18.023438 54.167969 18.585938 54.734375 18.585938 55.429688 C 18.585938 56.125 18.023438 56.6875 17.328125 56.6875 Z M 17.328125 56.6875 "/>
<path style=" stroke:none;fill-rule:nonzero;fill:rgb(0%,0%,0%);fill-opacity:1;" d="M 2.210938 75.585938 C 1.515625 75.585938 0.949219 75.023438 0.949219 74.324219 L 0.949219 65.511719 C 0.949219 64.816406 1.511719 64.25 2.210938 64.25 C 2.90625 64.25 3.46875 64.8125 3.46875 65.511719 L 3.46875 74.324219 C 3.46875 75.019531 2.90625 75.585938 2.210938 75.585938 Z M 2.210938 75.585938 "/>
<path style=" stroke:none;fill-rule:nonzero;fill:rgb(0%,0%,0%);fill-opacity:1;" d="M 3.46875 76.84375 C 2.082031 76.84375 0.949219 75.714844 0.949219 74.324219 C 0.949219 73.628906 1.515625 73.066406 2.210938 73.066406 C 2.90625 73.066406 3.46875 73.628906 3.46875 74.324219 L 3.46875 74.328125 C 4.167969 74.328125 4.730469 74.890625 4.730469 75.585938 C 4.730469 76.28125 4.167969 76.84375 3.46875 76.84375 Z M 3.46875 76.84375 "/>
<path style=" stroke:none;fill-rule:nonzero;fill:rgb(0%,0%,0%);fill-opacity:1;" d="M 50.074219 76.84375 L 3.46875 76.84375 C 2.773438 76.84375 2.210938 76.28125 2.210938 75.585938 C 2.210938 74.890625 2.773438 74.324219 3.46875 74.324219 L 50.074219 74.324219 C 50.769531 74.324219 51.335938 74.890625 51.335938 75.585938 C 51.335938 76.28125 50.769531 76.84375 50.074219 76.84375 Z M 50.074219 76.84375 "/>
<path style=" stroke:none;fill-rule:nonzero;fill:rgb(0%,0%,0%);fill-opacity:1;" d="M 19.84375 54.167969 C 19.148438 54.167969 18.585938 53.605469 18.585938 52.910156 L 18.585938 48.210938 C 18.585938 47.515625 19.148438 46.953125 19.84375 46.953125 C 20.542969 46.953125 21.105469 47.515625 21.105469 48.210938 L 21.105469 52.910156 C 21.105469 53.605469 20.542969 54.167969 19.84375 54.167969 Z M 19.84375 54.167969 "/>
<path style=" stroke:none;fill-rule:nonzero;fill:rgb(0%,0%,0%);fill-opacity:1;" d="M 37.480469 54.167969 C 36.785156 54.167969 36.222656 53.605469 36.222656 52.910156 L 36.222656 48.210938 C 36.222656 47.515625 36.785156 46.953125 37.480469 46.953125 C 38.179688 46.953125 38.742188 47.515625 38.742188 48.210938 L 38.742188 52.910156 C 38.742188 53.605469 38.179688 54.167969 37.480469 54.167969 Z M 37.480469 54.167969 "/>
<path style=" stroke:none;fill-rule:nonzero;fill:rgb(0%,0%,0%);fill-opacity:1;" d="M 21.808594 59.210938 C 21.363281 59.210938 20.933594 58.976562 20.703125 58.558594 C 20.367188 57.949219 20.589844 57.183594 21.199219 56.847656 L 28.054688 53.066406 C 28.664062 52.730469 29.433594 52.953125 29.765625 53.5625 C 30.101562 54.171875 29.882812 54.9375 29.273438 55.273438 L 22.414062 59.054688 C 22.222656 59.160156 22.011719 59.210938 21.808594 59.210938 Z M 21.808594 59.210938 "/>
<path style=" stroke:none;fill-rule:nonzero;fill:rgb(0%,0%,0%);fill-opacity:1;" d="M 35.519531 59.210938 C 35.3125 59.210938 35.105469 59.160156 34.910156 59.054688 L 28.054688 55.273438 C 27.445312 54.9375 27.222656 54.171875 27.558594 53.5625 C 27.894531 52.953125 28.664062 52.730469 29.273438 53.066406 L 36.128906 56.847656 C 36.738281 57.183594 36.957031 57.949219 36.625 58.558594 C 36.394531 58.976562 35.964844 59.210938 35.519531 59.210938 Z M 35.519531 59.210938 "/>
<path style=" stroke:none;fill-rule:nonzero;fill:rgb(0%,0%,0%);fill-opacity:1;" d="M 14.804688 59.210938 C 14.484375 59.210938 14.160156 59.085938 13.914062 58.84375 C 13.421875 58.347656 13.421875 57.554688 13.914062 57.0625 L 18.953125 52.019531 C 19.445312 51.527344 20.242188 51.527344 20.734375 52.019531 C 21.226562 52.511719 21.226562 53.308594 20.734375 53.800781 L 15.695312 58.84375 C 15.453125 59.085938 15.128906 59.210938 14.804688 59.210938 Z M 14.804688 59.210938 "/>
<path style=" stroke:none;fill-rule:nonzero;fill:rgb(0%,0%,0%);fill-opacity:1;" d="M 19.84375 64.246094 C 19.523438 64.246094 19.199219 64.125 18.953125 63.878906 L 13.914062 58.84375 C 13.421875 58.347656 13.421875 57.554688 13.914062 57.0625 C 14.40625 56.566406 15.203125 56.566406 15.695312 57.0625 L 20.734375 62.097656 C 21.226562 62.589844 21.226562 63.386719 20.734375 63.878906 C 20.492188 64.125 20.167969 64.246094 19.84375 64.246094 Z M 19.84375 64.246094 "/>
<path style=" stroke:none;fill-rule:nonzero;fill:rgb(0%,0%,0%);fill-opacity:1;" d="M 17.324219 66.765625 C 17.003906 66.765625 16.679688 66.644531 16.433594 66.398438 C 15.941406 65.90625 15.941406 65.109375 16.433594 64.617188 L 18.953125 62.097656 C 19.445312 61.605469 20.242188 61.605469 20.734375 62.097656 C 21.226562 62.589844 21.226562 63.386719 20.734375 63.878906 L 18.214844 66.398438 C 17.972656 66.644531 17.648438 66.765625 17.324219 66.765625 Z M 17.324219 66.765625 "/>
<path style=" stroke:none;fill-rule:nonzero;fill:rgb(0%,0%,0%);fill-opacity:1;" d="M 24.886719 76.84375 C 24.5 76.84375 24.125 76.671875 23.875 76.339844 L 16.316406 66.261719 C 15.898438 65.707031 16.011719 64.917969 16.570312 64.5 C 17.125 64.082031 17.914062 64.195312 18.332031 64.753906 L 25.890625 74.832031 C 26.308594 75.386719 26.195312 76.175781 25.640625 76.59375 C 25.414062 76.765625 25.148438 76.84375 24.886719 76.84375 Z M 24.886719 76.84375 "/>
<path style=" stroke:none;fill-rule:nonzero;fill:rgb(0%,0%,0%);fill-opacity:1;" d="M 28.664062 76.84375 C 28.160156 76.84375 27.683594 76.539062 27.488281 76.042969 L 18.671875 53.367188 C 18.417969 52.71875 18.742188 51.988281 19.386719 51.734375 C 20.035156 51.484375 20.765625 51.804688 21.019531 52.453125 L 29.835938 75.128906 C 30.089844 75.777344 29.765625 76.507812 29.121094 76.757812 C 28.96875 76.820312 28.816406 76.84375 28.664062 76.84375 Z M 28.664062 76.84375 "/>
<path style=" stroke:none;fill-rule:nonzero;fill:rgb(0%,0%,0%);fill-opacity:1;" d="M 42.519531 59.210938 C 42.199219 59.210938 41.875 59.085938 41.628906 58.84375 L 36.589844 53.800781 C 36.097656 53.308594 36.097656 52.511719 36.589844 52.019531 C 37.082031 51.527344 37.878906 51.527344 38.371094 52.019531 L 43.410156 57.0625 C 43.902344 57.554688 43.902344 58.347656 43.410156 58.84375 C 43.167969 59.085938 42.84375 59.210938 42.519531 59.210938 Z M 42.519531 59.210938 "/>
<path style=" stroke:none;fill-rule:nonzero;fill:rgb(0%,0%,0%);fill-opacity:1;" d="M 37.480469 64.246094 C 37.160156 64.246094 36.835938 64.125 36.589844 63.878906 C 36.097656 63.386719 36.097656 62.589844 36.589844 62.097656 L 41.628906 57.0625 C 42.121094 56.566406 42.917969 56.566406 43.410156 57.0625 C 43.902344 57.554688 43.902344 58.347656 43.410156 58.84375 L 38.371094 63.878906 C 38.128906 64.125 37.804688 64.246094 37.480469 64.246094 Z M 37.480469 64.246094 "/>
<path style=" stroke:none;fill-rule:nonzero;fill:rgb(0%,0%,0%);fill-opacity:1;" d="M 40 66.765625 C 39.679688 66.765625 39.355469 66.644531 39.109375 66.398438 L 36.589844 63.878906 C 36.097656 63.386719 36.097656 62.589844 36.589844 62.097656 C 37.082031 61.605469 37.878906 61.605469 38.371094 62.097656 L 40.890625 64.617188 C 41.382812 65.109375 41.382812 65.90625 40.890625 66.398438 C 40.648438 66.644531 40.324219 66.765625 40 66.765625 Z M 40 66.765625 "/>
<path style=" stroke:none;fill-rule:nonzero;fill:rgb(0%,0%,0%);fill-opacity:1;" d="M 32.441406 76.84375 C 32.179688 76.84375 31.914062 76.765625 31.6875 76.59375 C 31.128906 76.175781 31.015625 75.386719 31.433594 74.832031 L 38.992188 64.753906 C 39.410156 64.195312 40.203125 64.085938 40.757812 64.5 C 41.3125 64.917969 41.425781 65.707031 41.007812 66.261719 L 33.449219 76.339844 C 33.203125 76.671875 32.824219 76.84375 32.441406 76.84375 Z M 32.441406 76.84375 "/>
<path style=" stroke:none;fill-rule:nonzero;fill:rgb(0%,0%,0%);fill-opacity:1;" d="M 28.664062 76.84375 C 28.511719 76.84375 28.355469 76.820312 28.207031 76.761719 C 27.558594 76.507812 27.238281 75.777344 27.492188 75.128906 L 36.308594 52.453125 C 36.558594 51.804688 37.292969 51.484375 37.9375 51.738281 C 38.585938 51.988281 38.910156 52.71875 38.65625 53.367188 L 29.835938 76.042969 C 29.644531 76.539062 29.167969 76.84375 28.664062 76.84375 Z M 28.664062 76.84375 "/>
<path style=" stroke:none;fill-rule:nonzero;fill:rgb(0%,0%,0%);fill-opacity:1;" d="M 45.039062 56.691406 L 40 56.691406 C 39.304688 56.691406 38.742188 56.128906 38.742188 55.433594 C 38.742188 54.734375 39.304688 54.171875 40 54.171875 L 45.039062 54.171875 C 45.734375 54.171875 46.296875 54.734375 46.296875 55.433594 C 46.296875 56.128906 45.734375 56.691406 45.039062 56.691406 Z M 45.039062 56.691406 "/>
<path style=" stroke:none;fill-rule:nonzero;fill:rgb(0%,0%,0%);fill-opacity:1;" d="M 24.746094 66.765625 C 24.582031 66.765625 24.414062 66.734375 24.253906 66.667969 C 23.613281 66.398438 23.3125 65.65625 23.585938 65.015625 L 26.242188 58.722656 C 26.515625 58.082031 27.253906 57.78125 27.894531 58.050781 C 28.535156 58.320312 28.835938 59.0625 28.5625 59.703125 L 25.90625 65.996094 C 25.699219 66.480469 25.234375 66.765625 24.746094 66.765625 Z M 24.746094 66.765625 "/>
<path style=" stroke:none;fill-rule:nonzero;fill:rgb(0%,0%,0%);fill-opacity:1;" d="M 32.582031 66.765625 C 32.089844 66.765625 31.625 66.480469 31.421875 65.996094 L 28.761719 59.699219 C 28.492188 59.058594 28.792969 58.320312 29.433594 58.046875 C 30.074219 57.78125 30.8125 58.078125 31.082031 58.71875 L 33.742188 65.015625 C 34.011719 65.660156 33.714844 66.398438 33.074219 66.667969 C 32.914062 66.734375 32.746094 66.765625 32.582031 66.765625 Z M 32.582031 66.765625 "/>
<path style=" stroke:none;fill-rule:nonzero;fill:rgb(0%,0%,0%);fill-opacity:1;" d="M 29.921875 60.472656 L 27.402344 60.472656 C 26.707031 60.472656 26.144531 59.910156 26.144531 59.210938 C 26.144531 58.515625 26.707031 57.953125 27.402344 57.953125 L 29.921875 57.953125 C 30.621094 57.953125 31.183594 58.515625 31.183594 59.210938 C 31.183594 59.910156 30.621094 60.472656 29.921875 60.472656 Z M 29.921875 60.472656 "/>
<path style=" stroke:none;fill-rule:nonzero;fill:rgb(0%,0%,0%);fill-opacity:1;" d="M 29.921875 60.472656 C 29.632812 60.472656 29.34375 60.371094 29.105469 60.171875 C 28.578125 59.71875 28.511719 58.925781 28.964844 58.394531 L 31.484375 55.4375 C 31.9375 54.90625 32.730469 54.84375 33.261719 55.296875 C 33.789062 55.746094 33.855469 56.542969 33.402344 57.070312 L 30.882812 60.027344 C 30.632812 60.320312 30.277344 60.472656 29.921875 60.472656 Z M 29.921875 60.472656 "/>
<path style=" stroke:none;fill-rule:nonzero;fill:rgb(0%,0%,0%);fill-opacity:1;" d="M 27.402344 60.472656 C 27.046875 60.472656 26.695312 60.320312 26.445312 60.027344 L 23.925781 57.070312 C 23.472656 56.539062 23.535156 55.746094 24.066406 55.292969 C 24.59375 54.84375 25.390625 54.90625 25.84375 55.4375 L 28.363281 58.394531 C 28.8125 58.921875 28.75 59.71875 28.21875 60.167969 C 27.984375 60.371094 27.691406 60.472656 27.402344 60.472656 Z M 27.402344 60.472656 "/>
<path style=" stroke:none;fill-rule:nonzero;fill:rgb(0%,0%,0%);fill-opacity:1;" d="M 28.664062 51.648438 C 17.550781 51.648438 8.507812 42.609375 8.507812 31.492188 C 8.507812 30.796875 9.070312 30.234375 9.765625 30.234375 C 10.464844 30.234375 11.027344 30.796875 11.027344 31.492188 C 11.027344 41.21875 18.9375 49.128906 28.664062 49.128906 C 38.390625 49.128906 46.300781 41.21875 46.300781 31.492188 C 46.300781 30.796875 46.863281 30.234375 47.558594 30.234375 C 48.257812 30.234375 48.820312 30.796875 48.820312 31.492188 C 48.820312 42.609375 39.777344 51.648438 28.664062 51.648438 Z M 28.664062 51.648438 "/>
<path style=" stroke:none;fill-rule:nonzero;fill:rgb(0%,0%,0%);fill-opacity:1;" d="M 9.765625 32.753906 C 9.070312 32.753906 8.507812 32.191406 8.507812 31.492188 L 8.507812 17.636719 C 8.507812 16.941406 9.070312 16.375 9.765625 16.375 C 10.464844 16.375 11.027344 16.941406 11.027344 17.636719 L 11.027344 31.492188 C 11.027344 32.191406 10.464844 32.753906 9.765625 32.753906 Z M 9.765625 32.753906 "/>
<path style=" stroke:none;fill-rule:nonzero;fill:rgb(0%,0%,0%);fill-opacity:1;" d="M 47.558594 32.753906 C 46.863281 32.753906 46.300781 32.191406 46.300781 31.492188 L 46.300781 16.378906 C 46.300781 15.683594 46.863281 15.121094 47.558594 15.121094 C 48.257812 15.121094 48.820312 15.683594 48.820312 16.378906 L 48.820312 31.492188 C 48.820312 32.191406 48.257812 32.753906 47.558594 32.753906 Z M 47.558594 32.753906 "/>
<path style=" stroke:none;fill-rule:nonzero;fill:rgb(0%,0%,0%);fill-opacity:1;" d="M 47.558594 17.640625 C 46.863281 17.640625 46.300781 17.078125 46.300781 16.378906 C 46.300781 12.210938 42.910156 8.820312 38.742188 8.820312 C 38.046875 8.820312 37.480469 8.257812 37.480469 7.5625 C 37.480469 6.863281 38.046875 6.300781 38.742188 6.300781 C 44.296875 6.300781 48.820312 10.824219 48.820312 16.378906 C 48.820312 17.078125 48.257812 17.640625 47.558594 17.640625 Z M 47.558594 17.640625 "/>
<path style=" stroke:none;fill-rule:nonzero;fill:rgb(0%,0%,0%);fill-opacity:1;" d="M 38.742188 8.820312 C 38.046875 8.820312 37.480469 8.257812 37.480469 7.5625 L 37.480469 1.257812 C 37.480469 0.5625 38.046875 0 38.742188 0 C 39.4375 0 40 0.5625 40 1.257812 L 40 7.5625 C 40 8.257812 39.4375 8.820312 38.742188 8.820312 Z M 38.742188 8.820312 "/>
<path style=" stroke:none;fill-rule:nonzero;fill:rgb(0%,0%,0%);fill-opacity:1;" d="M 38.742188 2.519531 L 26.144531 2.519531 C 25.449219 2.519531 24.882812 1.957031 24.882812 1.257812 C 24.882812 0.5625 25.449219 0 26.144531 0 L 38.742188 0 C 39.4375 0 40 0.5625 40 1.257812 C 40 1.957031 39.4375 2.519531 38.742188 2.519531 Z M 38.742188 2.519531 "/>
<path style=" stroke:none;fill-rule:nonzero;fill:rgb(0%,0%,0%);fill-opacity:1;" d="M 9.765625 18.894531 C 9.070312 18.894531 8.507812 18.332031 8.507812 17.636719 C 8.507812 7.910156 16.417969 0 26.144531 0 C 26.839844 0 27.402344 0.5625 27.402344 1.257812 C 27.402344 1.957031 26.839844 2.519531 26.144531 2.519531 C 17.808594 2.519531 11.027344 9.300781 11.027344 17.636719 C 11.027344 18.332031 10.464844 18.894531 9.765625 18.894531 Z M 9.765625 18.894531 "/>
<path style=" stroke:none;fill-rule:nonzero;fill:rgb(0%,0%,0%);fill-opacity:1;" d="M 47.558594 25.195312 C 47.238281 25.195312 46.914062 25.070312 46.667969 24.828125 L 41.628906 19.789062 C 41.136719 19.292969 41.136719 18.5 41.628906 18.003906 C 42.121094 17.511719 42.917969 17.511719 43.410156 18.003906 L 48.449219 23.042969 C 48.941406 23.539062 48.941406 24.332031 48.449219 24.828125 C 48.203125 25.070312 47.882812 25.195312 47.558594 25.195312 Z M 47.558594 25.195312 "/>
<path style=" stroke:none;fill-rule:nonzero;fill:rgb(0%,0%,0%);fill-opacity:1;" d="M 28.664062 23.933594 C 20.84375 23.933594 14.425781 20.136719 14.15625 19.976562 C 13.5625 19.617188 13.367188 18.847656 13.726562 18.25 C 14.082031 17.65625 14.851562 17.457031 15.453125 17.816406 C 15.511719 17.851562 21.5625 21.414062 28.664062 21.414062 C 35.761719 21.414062 41.8125 17.851562 41.871094 17.816406 C 42.472656 17.457031 43.242188 17.65625 43.597656 18.25 C 43.957031 18.847656 43.761719 19.617188 43.167969 19.976562 C 42.898438 20.136719 36.480469 23.933594 28.664062 23.933594 Z M 28.664062 23.933594 "/>
<path style=" stroke:none;fill-rule:nonzero;fill:rgb(0%,0%,0%);fill-opacity:1;" d="M 9.765625 25.195312 C 9.445312 25.195312 9.121094 25.070312 8.875 24.828125 C 8.382812 24.332031 8.382812 23.539062 8.875 23.042969 L 13.914062 18.003906 C 14.40625 17.511719 15.203125 17.511719 15.695312 18.003906 C 16.1875 18.5 16.1875 19.292969 15.695312 19.789062 L 10.65625 24.828125 C 10.414062 25.070312 10.089844 25.195312 9.765625 25.195312 Z M 9.765625 25.195312 "/>
<path style=" stroke:none;fill-rule:nonzero;fill:rgb(0%,0%,0%);fill-opacity:1;" d="M 53.867188 54.792969 C 51.082031 54.792969 48.816406 52.527344 48.816406 49.742188 C 48.816406 46.957031 51.082031 44.695312 53.867188 44.695312 C 54.5625 44.695312 55.128906 45.257812 55.128906 45.953125 C 55.128906 46.648438 54.5625 47.214844 53.867188 47.214844 C 52.472656 47.214844 51.335938 48.347656 51.335938 49.742188 C 51.335938 51.140625 52.472656 52.273438 53.867188 52.273438 C 54.5625 52.273438 55.128906 52.835938 55.128906 53.53125 C 55.128906 54.230469 54.5625 54.792969 53.867188 54.792969 Z M 53.867188 54.792969 "/>
<path style=" stroke:none;fill-rule:nonzero;fill:rgb(0%,0%,0%);fill-opacity:1;" d="M 77.792969 47.214844 L 53.867188 47.214844 C 53.171875 47.214844 52.609375 46.652344 52.609375 45.953125 C 52.609375 45.257812 53.171875 44.695312 53.867188 44.695312 L 77.792969 44.695312 C 78.488281 44.695312 79.050781 45.257812 79.050781 45.953125 C 79.050781 46.652344 78.488281 47.214844 77.792969 47.214844 Z M 77.792969 47.214844 "/>
<path style=" stroke:none;fill-rule:nonzero;fill:rgb(0%,0%,0%);fill-opacity:1;" d="M 77.792969 54.792969 L 53.867188 54.792969 C 53.171875 54.792969 52.609375 54.230469 52.609375 53.53125 C 52.609375 52.835938 53.171875 52.273438 53.867188 52.273438 L 77.792969 52.273438 C 78.488281 52.273438 79.050781 52.835938 79.050781 53.53125 C 79.050781 54.230469 78.488281 54.792969 77.792969 54.792969 Z M 77.792969 54.792969 "/>
<path style=" stroke:none;fill-rule:nonzero;fill:rgb(0%,0%,0%);fill-opacity:1;" d="M 53.867188 80 C 51.082031 80 48.816406 77.734375 48.816406 74.949219 C 48.816406 74.253906 49.382812 73.691406 50.078125 73.691406 C 50.773438 73.691406 51.335938 74.253906 51.335938 74.949219 C 51.335938 76.34375 52.472656 77.480469 53.867188 77.480469 C 54.5625 77.480469 55.128906 78.042969 55.128906 78.738281 C 55.128906 79.4375 54.5625 80 53.867188 80 Z M 53.867188 80 "/>
<path style=" stroke:none;fill-rule:nonzero;fill:rgb(0%,0%,0%);fill-opacity:1;" d="M 77.792969 80 L 53.867188 80 C 53.171875 80 52.609375 79.4375 52.609375 78.738281 C 52.609375 78.042969 53.171875 77.480469 53.867188 77.480469 L 77.792969 77.480469 C 78.488281 77.480469 79.050781 78.042969 79.050781 78.738281 C 79.050781 79.4375 78.488281 80 77.792969 80 Z M 77.792969 80 "/>
<path style=" stroke:none;fill-rule:nonzero;fill:rgb(0%,0%,0%);fill-opacity:1;" d="M 76.535156 54.792969 C 75.839844 54.792969 75.273438 54.230469 75.273438 53.53125 L 75.273438 45.953125 C 75.273438 45.257812 75.839844 44.695312 76.535156 44.695312 C 77.230469 44.695312 77.792969 45.257812 77.792969 45.953125 L 77.792969 53.53125 C 77.792969 54.230469 77.230469 54.792969 76.535156 54.792969 Z M 76.535156 54.792969 "/>
<path style=" stroke:none;fill-rule:nonzero;fill:rgb(0%,0%,0%);fill-opacity:1;" d="M 50.078125 76.210938 C 49.382812 76.210938 48.816406 75.648438 48.816406 74.949219 L 48.816406 49.742188 C 48.816406 49.046875 49.382812 48.484375 50.078125 48.484375 C 50.773438 48.484375 51.335938 49.046875 51.335938 49.742188 L 51.335938 74.949219 C 51.335938 75.648438 50.773438 76.210938 50.078125 76.210938 Z M 50.078125 76.210938 "/>
<path style=" stroke:none;fill-rule:nonzero;fill:rgb(0%,0%,0%);fill-opacity:1;" d="M 77.792969 80 C 77.097656 80 76.53125 79.4375 76.53125 78.738281 L 76.53125 53.53125 C 76.53125 52.835938 77.097656 52.273438 77.792969 52.273438 C 78.488281 52.273438 79.050781 52.835938 79.050781 53.53125 L 79.050781 78.738281 C 79.050781 79.4375 78.488281 80 77.792969 80 Z M 77.792969 80 "/>
<path style=" stroke:none;fill-rule:nonzero;fill:rgb(0%,0%,0%);fill-opacity:1;" d="M 68.972656 73.691406 L 58.894531 73.691406 C 58.195312 73.691406 57.632812 73.128906 57.632812 72.429688 C 57.632812 71.734375 58.195312 71.171875 58.894531 71.171875 L 68.972656 71.171875 C 69.667969 71.171875 70.230469 71.734375 70.230469 72.429688 C 70.230469 73.128906 69.667969 73.691406 68.972656 73.691406 Z M 68.972656 73.691406 "/>
<path style=" stroke:none;fill-rule:nonzero;fill:rgb(0%,0%,0%);fill-opacity:1;" d="M 63.933594 73.691406 C 63.234375 73.691406 62.671875 73.128906 62.671875 72.429688 L 62.671875 59.832031 C 62.671875 59.136719 63.234375 58.574219 63.933594 58.574219 C 64.628906 58.574219 65.191406 59.136719 65.191406 59.832031 L 65.191406 72.429688 C 65.191406 73.128906 64.628906 73.691406 63.933594 73.691406 Z M 63.933594 73.691406 "/>
<path style=" stroke:none;fill-rule:nonzero;fill:rgb(0%,0%,0%);fill-opacity:1;" d="M 68.972656 62.351562 L 58.894531 62.351562 C 58.195312 62.351562 57.632812 61.789062 57.632812 61.09375 C 57.632812 60.398438 58.195312 59.832031 58.894531 59.832031 L 68.972656 59.832031 C 69.667969 59.832031 70.230469 60.398438 70.230469 61.09375 C 70.230469 61.789062 69.667969 62.351562 68.972656 62.351562 Z M 68.972656 62.351562 "/>
<path style=" stroke:none;fill-rule:nonzero;fill:rgb(0%,0%,0%);fill-opacity:1;" d="M 70.230469 66.132812 L 67.710938 66.132812 C 67.015625 66.132812 66.453125 65.570312 66.453125 64.871094 C 66.453125 64.175781 67.015625 63.613281 67.710938 63.613281 L 70.230469 63.613281 C 70.925781 63.613281 71.492188 64.175781 71.492188 64.871094 C 71.492188 65.570312 70.925781 66.132812 70.230469 66.132812 Z M 70.230469 66.132812 "/>
<path style=" stroke:none;fill-rule:nonzero;fill:rgb(0%,0%,0%);fill-opacity:1;" d="M 60.152344 66.132812 L 57.632812 66.132812 C 56.9375 66.132812 56.375 65.570312 56.375 64.871094 C 56.375 64.175781 56.9375 63.613281 57.632812 63.613281 L 60.152344 63.613281 C 60.847656 63.613281 61.414062 64.175781 61.414062 64.871094 C 61.414062 65.570312 60.847656 66.132812 60.152344 66.132812 Z M 60.152344 66.132812 "/>
</g>
</svg>
