<?xml version="1.0" encoding="UTF-8"?>
<svg xmlns="http://www.w3.org/2000/svg" xmlns:xlink="http://www.w3.org/1999/xlink" width="80pt" height="80pt" viewBox="0 0 80 80" version="1.1">
<g id="surface1">
<path style=" stroke:none;fill-rule:nonzero;fill:rgb(0%,0%,0%);fill-opacity:1;" d="M 28.757812 53.726562 C 17.734375 53.726562 8.765625 44.757812 8.765625 33.734375 C 8.765625 33.042969 9.324219 32.484375 10.015625 32.484375 C 10.707031 32.484375 11.265625 33.042969 11.265625 33.734375 C 11.265625 43.378906 19.109375 51.226562 28.757812 51.226562 C 38.40625 51.226562 46.253906 43.378906 46.253906 33.734375 C 46.253906 33.042969 46.8125 32.484375 47.503906 32.484375 C 48.191406 32.484375 48.75 33.042969 48.75 33.734375 C 48.75 44.757812 39.78125 53.726562 28.757812 53.726562 Z M 28.757812 53.726562 "/>
<path style=" stroke:none;fill-rule:nonzero;fill:rgb(0%,0%,0%);fill-opacity:1;" d="M 10.015625 34.980469 C 9.324219 34.980469 8.765625 34.421875 8.765625 33.734375 L 8.765625 25.3125 C 8.765625 24.625 9.324219 24.0625 10.015625 24.0625 C 10.707031 24.0625 11.265625 24.625 11.265625 25.3125 L 11.265625 33.734375 C 11.265625 34.421875 10.703125 34.980469 10.015625 34.980469 Z M 10.015625 34.980469 "/>
<path style=" stroke:none;fill-rule:nonzero;fill:rgb(0%,0%,0%);fill-opacity:1;" d="M 47.503906 34.980469 C 46.8125 34.980469 46.253906 34.421875 46.253906 33.734375 L 46.253906 22.484375 C 46.253906 21.792969 46.8125 21.234375 47.503906 21.234375 C 48.191406 21.234375 48.75 21.792969 48.75 22.484375 L 48.75 33.734375 C 48.75 34.421875 48.191406 34.980469 47.503906 34.980469 Z M 47.503906 34.980469 "/>
<path style=" stroke:none;fill-rule:nonzero;fill:rgb(0%,0%,0%);fill-opacity:1;" d="M 47.503906 23.734375 C 46.8125 23.734375 46.253906 23.175781 46.253906 22.484375 C 46.253906 12.152344 37.84375 3.742188 27.511719 3.742188 C 17.179688 3.742188 8.769531 12.152344 8.769531 22.484375 C 8.769531 23.175781 8.210938 23.734375 7.519531 23.734375 C 6.828125 23.734375 6.269531 23.175781 6.269531 22.484375 C 6.269531 10.773438 15.796875 1.246094 27.511719 1.246094 C 39.222656 1.246094 48.75 10.773438 48.75 22.484375 C 48.75 23.175781 48.191406 23.734375 47.503906 23.734375 Z M 47.503906 23.734375 "/>
<path style=" stroke:none;fill-rule:nonzero;fill:rgb(0%,0%,0%);fill-opacity:1;" d="M 47.503906 28.734375 C 47.125 28.734375 46.757812 28.5625 46.511719 28.242188 C 40.960938 21 38.25 21.921875 32.308594 23.945312 C 27.039062 25.738281 19.824219 28.195312 7.324219 26.21875 C 6.644531 26.109375 6.179688 25.46875 6.285156 24.789062 C 6.394531 24.105469 7.03125 23.636719 7.714844 23.75 C 19.601562 25.621094 26.480469 23.285156 31.503906 21.578125 C 37.742188 19.457031 41.859375 18.058594 48.496094 26.722656 C 48.914062 27.269531 48.8125 28.054688 48.261719 28.472656 C 48.035156 28.648438 47.769531 28.734375 47.503906 28.734375 Z M 47.503906 28.734375 "/>
<path style=" stroke:none;fill-rule:nonzero;fill:rgb(0%,0%,0%);fill-opacity:1;" d="M 7.519531 26.234375 C 6.828125 26.234375 6.269531 25.675781 6.269531 24.984375 L 6.269531 22.484375 C 6.269531 21.792969 6.828125 21.234375 7.519531 21.234375 C 8.210938 21.234375 8.769531 21.792969 8.769531 22.484375 L 8.769531 24.984375 C 8.769531 25.675781 8.210938 26.234375 7.519531 26.234375 Z M 7.519531 26.234375 "/>
<path style=" stroke:none;fill-rule:nonzero;fill:rgb(0%,0%,0%);fill-opacity:1;" d="M 38.753906 22.5 C 38.457031 22.5 38.160156 22.394531 37.921875 22.179688 C 37.40625 21.71875 37.363281 20.929688 37.824219 20.414062 L 44.5625 12.902344 C 45.023438 12.390625 45.8125 12.347656 46.328125 12.808594 C 46.839844 13.269531 46.882812 14.058594 46.421875 14.574219 L 39.683594 22.085938 C 39.4375 22.359375 39.097656 22.5 38.753906 22.5 Z M 38.753906 22.5 "/>
<path style=" stroke:none;fill-rule:nonzero;fill:rgb(0%,0%,0%);fill-opacity:1;" d="M 1.25 68.722656 C 0.558594 68.722656 0 68.164062 0 67.472656 C 0 61.269531 5.046875 56.226562 11.25 56.226562 C 11.941406 56.226562 12.5 56.785156 12.5 57.476562 C 12.5 58.164062 11.941406 58.722656 11.25 58.722656 C 6.425781 58.722656 2.5 62.648438 2.5 67.472656 C 2.5 68.164062 1.941406 68.722656 1.25 68.722656 Z M 1.25 68.722656 "/>
<path style=" stroke:none;fill-rule:nonzero;fill:rgb(0%,0%,0%);fill-opacity:1;" d="M 56.230469 68.722656 C 55.539062 68.722656 54.980469 68.164062 54.980469 67.472656 C 54.980469 67.109375 54.957031 66.746094 54.914062 66.394531 C 54.832031 65.710938 55.320312 65.085938 56.003906 65.003906 C 56.703125 64.921875 57.3125 65.410156 57.394531 66.09375 C 57.449219 66.546875 57.480469 67.003906 57.480469 67.472656 C 57.480469 68.164062 56.921875 68.722656 56.230469 68.722656 Z M 56.230469 68.722656 "/>
<path style=" stroke:none;fill-rule:nonzero;fill:rgb(0%,0%,0%);fill-opacity:1;" d="M 54.910156 63.746094 C 54.476562 63.746094 54.054688 63.519531 53.824219 63.117188 C 52.269531 60.410156 49.359375 58.726562 46.234375 58.726562 C 45.542969 58.726562 44.984375 58.167969 44.984375 57.476562 C 44.984375 56.785156 45.542969 56.226562 46.234375 56.226562 C 50.25 56.226562 53.988281 58.390625 55.992188 61.875 C 56.335938 62.472656 56.128906 63.234375 55.53125 63.578125 C 55.335938 63.691406 55.121094 63.746094 54.910156 63.746094 Z M 54.910156 63.746094 "/>
<path style=" stroke:none;fill-rule:nonzero;fill:rgb(0%,0%,0%);fill-opacity:1;" d="M 19.992188 58.726562 L 11.25 58.722656 C 10.558594 58.722656 10 58.164062 10 57.476562 C 10 56.785156 10.558594 56.226562 11.25 56.226562 L 19.992188 56.226562 C 20.683594 56.226562 21.242188 56.785156 21.242188 57.476562 C 21.242188 58.167969 20.683594 58.726562 19.992188 58.726562 Z M 19.992188 58.726562 "/>
<path style=" stroke:none;fill-rule:nonzero;fill:rgb(0%,0%,0%);fill-opacity:1;" d="M 46.234375 58.726562 L 37.488281 58.722656 C 36.796875 58.722656 36.238281 58.164062 36.238281 57.476562 C 36.238281 56.785156 36.796875 56.226562 37.488281 56.226562 L 46.234375 56.226562 C 46.925781 56.226562 47.484375 56.785156 47.484375 57.476562 C 47.484375 58.167969 46.925781 58.726562 46.234375 58.726562 Z M 46.234375 58.726562 "/>
<path style=" stroke:none;fill-rule:nonzero;fill:rgb(0%,0%,0%);fill-opacity:1;" d="M 1.25 77.46875 C 0.558594 77.46875 0 76.910156 0 76.21875 L 0 67.472656 C 0 66.78125 0.558594 66.222656 1.25 66.222656 C 1.941406 66.222656 2.5 66.78125 2.5 67.472656 L 2.5 76.21875 C 2.5 76.910156 1.941406 77.46875 1.25 77.46875 Z M 1.25 77.46875 "/>
<path style=" stroke:none;fill-rule:nonzero;fill:rgb(0%,0%,0%);fill-opacity:1;" d="M 2.5 78.714844 C 1.121094 78.714844 0 77.597656 0 76.21875 C 0 75.527344 0.558594 74.96875 1.25 74.96875 C 1.941406 74.96875 2.5 75.527344 2.5 76.21875 C 3.191406 76.21875 3.75 76.777344 3.75 77.46875 C 3.75 78.15625 3.191406 78.714844 2.5 78.714844 Z M 2.5 78.714844 "/>
<path style=" stroke:none;fill-rule:nonzero;fill:rgb(0%,0%,0%);fill-opacity:1;" d="M 54.980469 78.714844 C 54.289062 78.714844 53.730469 78.15625 53.730469 77.46875 C 53.730469 76.777344 54.289062 76.21875 54.980469 76.21875 L 54.984375 76.21875 C 54.984375 75.527344 55.542969 74.96875 56.234375 74.96875 C 56.921875 74.96875 57.480469 75.527344 57.480469 76.21875 C 57.480469 77.597656 56.359375 78.714844 54.980469 78.714844 Z M 54.980469 78.714844 "/>
<path style=" stroke:none;fill-rule:nonzero;fill:rgb(0%,0%,0%);fill-opacity:1;" d="M 56.230469 77.46875 C 55.539062 77.46875 54.980469 76.910156 54.980469 76.21875 L 54.980469 67.472656 C 54.980469 66.78125 55.539062 66.222656 56.230469 66.222656 C 56.921875 66.222656 57.480469 66.78125 57.480469 67.472656 L 57.480469 76.21875 C 57.480469 76.910156 56.921875 77.46875 56.230469 77.46875 Z M 56.230469 77.46875 "/>
<path style=" stroke:none;fill-rule:nonzero;fill:rgb(0%,0%,0%);fill-opacity:1;" d="M 54.980469 78.714844 L 2.5 78.714844 C 1.808594 78.714844 1.25 78.15625 1.25 77.46875 C 1.25 76.777344 1.808594 76.21875 2.5 76.21875 L 54.980469 76.21875 C 55.671875 76.21875 56.230469 76.777344 56.230469 77.46875 C 56.230469 78.15625 55.671875 78.714844 54.980469 78.714844 Z M 54.980469 78.714844 "/>
<path style=" stroke:none;fill-rule:nonzero;fill:rgb(0%,0%,0%);fill-opacity:1;" d="M 19.992188 58.726562 C 19.300781 58.726562 18.742188 58.167969 18.742188 57.476562 L 18.742188 50.316406 C 18.742188 49.625 19.300781 49.066406 19.992188 49.066406 C 20.683594 49.066406 21.242188 49.625 21.242188 50.316406 L 21.242188 57.476562 C 21.242188 58.167969 20.683594 58.726562 19.992188 58.726562 Z M 19.992188 58.726562 "/>
<path style=" stroke:none;fill-rule:nonzero;fill:rgb(0%,0%,0%);fill-opacity:1;" d="M 37.488281 58.722656 C 36.796875 58.722656 36.238281 58.164062 36.238281 57.476562 L 36.238281 50.316406 C 36.238281 49.625 36.796875 49.066406 37.488281 49.066406 C 38.179688 49.066406 38.738281 49.625 38.738281 50.316406 L 38.738281 57.476562 C 38.738281 58.164062 38.179688 58.722656 37.488281 58.722656 Z M 37.488281 58.722656 "/>
<path style=" stroke:none;fill-rule:nonzero;fill:rgb(0%,0%,0%);fill-opacity:1;" d="M 24.992188 61.222656 C 24.804688 61.222656 24.613281 61.179688 24.433594 61.089844 L 19.433594 58.59375 C 18.816406 58.285156 18.566406 57.535156 18.875 56.917969 C 19.183594 56.300781 19.9375 56.050781 20.554688 56.359375 L 25.550781 58.855469 C 26.167969 59.164062 26.417969 59.914062 26.109375 60.53125 C 25.890625 60.96875 25.449219 61.222656 24.992188 61.222656 Z M 24.992188 61.222656 "/>
<path style=" stroke:none;fill-rule:nonzero;fill:rgb(0%,0%,0%);fill-opacity:1;" d="M 24.992188 61.222656 C 24.46875 61.222656 23.980469 60.890625 23.808594 60.367188 C 23.589844 59.714844 23.941406 59.003906 24.597656 58.785156 L 28.347656 57.539062 C 29.003906 57.316406 29.707031 57.671875 29.925781 58.328125 C 30.144531 58.980469 29.792969 59.691406 29.136719 59.90625 L 25.386719 61.15625 C 25.253906 61.203125 25.121094 61.222656 24.992188 61.222656 Z M 24.992188 61.222656 "/>
<path style=" stroke:none;fill-rule:nonzero;fill:rgb(0%,0%,0%);fill-opacity:1;" d="M 32.488281 61.222656 C 32.359375 61.222656 32.226562 61.199219 32.09375 61.15625 L 28.347656 59.90625 C 27.691406 59.691406 27.335938 58.984375 27.554688 58.328125 C 27.773438 57.671875 28.476562 57.316406 29.136719 57.539062 L 32.886719 58.785156 C 33.539062 59.003906 33.894531 59.710938 33.675781 60.367188 C 33.5 60.890625 33.011719 61.222656 32.488281 61.222656 Z M 32.488281 61.222656 "/>
<path style=" stroke:none;fill-rule:nonzero;fill:rgb(0%,0%,0%);fill-opacity:1;" d="M 32.492188 61.222656 C 32.03125 61.222656 31.589844 60.96875 31.371094 60.53125 C 31.0625 59.914062 31.3125 59.164062 31.929688 58.855469 L 36.925781 56.355469 C 37.546875 56.050781 38.296875 56.296875 38.605469 56.914062 C 38.914062 57.53125 38.664062 58.285156 38.046875 58.59375 L 33.046875 61.089844 C 32.871094 61.179688 32.679688 61.222656 32.492188 61.222656 Z M 32.492188 61.222656 "/>
<path style=" stroke:none;fill-rule:nonzero;fill:rgb(0%,0%,0%);fill-opacity:1;" d="M 28.738281 78.714844 C 28.511719 78.714844 28.285156 78.65625 28.078125 78.527344 C 27.492188 78.160156 27.316406 77.390625 27.683594 76.804688 L 40.179688 56.8125 C 40.542969 56.226562 41.3125 56.050781 41.898438 56.417969 C 42.484375 56.78125 42.664062 57.554688 42.296875 58.140625 L 29.800781 78.128906 C 29.5625 78.507812 29.15625 78.714844 28.738281 78.714844 Z M 28.738281 78.714844 "/>
<path style=" stroke:none;fill-rule:nonzero;fill:rgb(0%,0%,0%);fill-opacity:1;" d="M 33.742188 78.714844 C 33.515625 78.714844 33.289062 78.65625 33.082031 78.527344 C 32.496094 78.160156 32.320312 77.390625 32.6875 76.804688 L 45.183594 56.8125 C 45.546875 56.226562 46.316406 56.050781 46.902344 56.417969 C 47.488281 56.78125 47.664062 57.554688 47.300781 58.140625 L 34.804688 78.128906 C 34.566406 78.507812 34.160156 78.714844 33.742188 78.714844 Z M 33.742188 78.714844 "/>
<path style=" stroke:none;fill-rule:nonzero;fill:rgb(0%,0%,0%);fill-opacity:1;" d="M 28.742188 78.714844 C 28.324219 78.714844 27.917969 78.507812 27.679688 78.128906 L 15.183594 58.136719 C 14.820312 57.550781 14.996094 56.78125 15.582031 56.417969 C 16.167969 56.050781 16.9375 56.226562 17.304688 56.8125 L 29.800781 76.804688 C 30.164062 77.390625 29.988281 78.160156 29.402344 78.523438 C 29.195312 78.65625 28.96875 78.714844 28.742188 78.714844 Z M 28.742188 78.714844 "/>
<path style=" stroke:none;fill-rule:nonzero;fill:rgb(0%,0%,0%);fill-opacity:1;" d="M 23.738281 78.714844 C 23.324219 78.714844 22.914062 78.507812 22.675781 78.128906 L 10.179688 58.136719 C 9.816406 57.554688 9.996094 56.78125 10.578125 56.417969 C 11.164062 56.050781 11.9375 56.230469 12.300781 56.8125 L 24.796875 76.804688 C 25.164062 77.390625 24.984375 78.160156 24.402344 78.527344 C 24.191406 78.65625 23.964844 78.714844 23.738281 78.714844 Z M 23.738281 78.714844 "/>
<path style=" stroke:none;fill-rule:nonzero;fill:rgb(0%,0%,0%);fill-opacity:1;" d="M 27.511719 64.992188 C 27.109375 64.992188 26.710938 64.796875 26.472656 64.4375 L 23.953125 60.667969 C 23.566406 60.09375 23.722656 59.316406 24.296875 58.933594 C 24.871094 58.550781 25.644531 58.707031 26.03125 59.277344 L 28.550781 63.050781 C 28.933594 63.625 28.777344 64.398438 28.207031 64.785156 C 27.992188 64.925781 27.75 64.992188 27.511719 64.992188 Z M 27.511719 64.992188 "/>
<path style=" stroke:none;fill-rule:nonzero;fill:rgb(0%,0%,0%);fill-opacity:1;" d="M 30.007812 64.992188 C 29.773438 64.992188 29.535156 64.925781 29.324219 64.789062 C 28.746094 64.410156 28.585938 63.632812 28.964844 63.054688 L 31.445312 59.285156 C 31.824219 58.710938 32.597656 58.550781 33.175781 58.929688 C 33.753906 59.308594 33.914062 60.082031 33.535156 60.660156 L 31.054688 64.429688 C 30.8125 64.796875 30.414062 64.992188 30.007812 64.992188 Z M 30.007812 64.992188 "/>
<path style=" stroke:none;fill-rule:nonzero;fill:rgb(0%,0%,0%);fill-opacity:1;" d="M 30.011719 64.992188 L 27.511719 64.992188 C 26.820312 64.992188 26.261719 64.433594 26.261719 63.746094 C 26.261719 63.054688 26.820312 62.496094 27.511719 62.496094 L 30.011719 62.496094 C 30.699219 62.496094 31.261719 63.054688 31.261719 63.746094 C 31.261719 64.433594 30.699219 64.992188 30.011719 64.992188 Z M 30.011719 64.992188 "/>
<path style=" stroke:none;fill-rule:nonzero;fill:rgb(0%,0%,0%);fill-opacity:1;" d="M 24.847656 72.492188 C 24.710938 72.492188 24.566406 72.46875 24.429688 72.417969 C 23.777344 72.1875 23.441406 71.472656 23.671875 70.824219 L 26.335938 63.324219 C 26.566406 62.675781 27.277344 62.335938 27.929688 62.566406 C 28.582031 62.796875 28.917969 63.511719 28.6875 64.164062 L 26.023438 71.660156 C 25.84375 72.171875 25.363281 72.492188 24.847656 72.492188 Z M 24.847656 72.492188 "/>
<path style=" stroke:none;fill-rule:nonzero;fill:rgb(0%,0%,0%);fill-opacity:1;" d="M 32.628906 72.492188 C 32.113281 72.492188 31.628906 72.167969 31.449219 71.652344 L 28.828125 64.15625 C 28.601562 63.503906 28.945312 62.792969 29.597656 62.5625 C 30.25 62.335938 30.960938 62.683594 31.1875 63.332031 L 33.808594 70.828125 C 34.039062 71.480469 33.695312 72.195312 33.042969 72.421875 C 32.90625 72.46875 32.769531 72.492188 32.628906 72.492188 Z M 32.628906 72.492188 "/>
<path style=" stroke:none;fill-rule:nonzero;fill:rgb(0%,0%,0%);fill-opacity:1;" d="M 16.246094 42.480469 C 15.554688 42.480469 14.996094 41.917969 14.996094 41.230469 C 14.996094 37.785156 17.796875 34.980469 21.242188 34.980469 C 21.933594 34.980469 22.492188 35.539062 22.492188 36.230469 C 22.492188 36.921875 21.933594 37.480469 21.242188 37.480469 C 19.175781 37.480469 17.496094 39.160156 17.496094 41.230469 C 17.496094 41.917969 16.9375 42.480469 16.246094 42.480469 Z M 16.246094 42.480469 "/>
<path style=" stroke:none;fill-rule:nonzero;fill:rgb(0%,0%,0%);fill-opacity:1;" d="M 16.246094 47.476562 C 15.554688 47.476562 14.996094 46.917969 14.996094 46.226562 C 14.996094 43.472656 17.238281 41.230469 19.992188 41.230469 C 20.683594 41.230469 21.242188 41.789062 21.242188 42.480469 C 21.242188 43.167969 20.683594 43.726562 19.992188 43.726562 C 18.613281 43.726562 17.496094 44.847656 17.496094 46.226562 C 17.496094 46.917969 16.9375 47.476562 16.246094 47.476562 Z M 16.246094 47.476562 "/>
<path style=" stroke:none;fill-rule:nonzero;fill:rgb(0%,0%,0%);fill-opacity:1;" d="M 25.617188 43.726562 L 19.992188 43.726562 C 19.300781 43.726562 18.742188 43.167969 18.742188 42.480469 C 18.742188 41.789062 19.300781 41.230469 19.992188 41.230469 L 25.617188 41.230469 C 26.308594 41.230469 26.867188 41.789062 26.867188 42.480469 C 26.867188 43.167969 26.308594 43.726562 25.617188 43.726562 Z M 25.617188 43.726562 "/>
<path style=" stroke:none;fill-rule:nonzero;fill:rgb(0%,0%,0%);fill-opacity:1;" d="M 25.617188 37.480469 L 21.242188 37.480469 C 20.550781 37.480469 19.992188 36.921875 19.992188 36.230469 C 19.992188 35.539062 20.550781 34.980469 21.242188 34.980469 L 25.617188 34.980469 C 26.308594 34.980469 26.867188 35.539062 26.867188 36.230469 C 26.867188 36.921875 26.308594 37.480469 25.617188 37.480469 Z M 25.617188 37.480469 "/>
<path style=" stroke:none;fill-rule:nonzero;fill:rgb(0%,0%,0%);fill-opacity:1;" d="M 25.617188 43.726562 C 24.925781 43.726562 24.367188 43.167969 24.367188 42.480469 C 24.367188 41.789062 24.925781 41.230469 25.617188 41.230469 C 26.648438 41.230469 27.492188 40.386719 27.492188 39.355469 C 27.492188 38.320312 26.648438 37.480469 25.617188 37.480469 C 24.925781 37.480469 24.367188 36.921875 24.367188 36.230469 C 24.367188 35.539062 24.925781 34.980469 25.617188 34.980469 C 28.027344 34.980469 29.988281 36.941406 29.988281 39.355469 C 29.988281 41.765625 28.027344 43.726562 25.617188 43.726562 Z M 25.617188 43.726562 "/>
<path style=" stroke:none;fill-rule:nonzero;fill:rgb(0%,0%,0%);fill-opacity:1;" d="M 16.246094 48.726562 C 15.554688 48.726562 14.996094 48.167969 14.996094 47.476562 L 14.996094 41.230469 C 14.996094 40.539062 15.554688 39.980469 16.246094 39.980469 C 16.9375 39.980469 17.496094 40.539062 17.496094 41.230469 L 17.496094 47.476562 C 17.496094 48.167969 16.9375 48.726562 16.246094 48.726562 Z M 16.246094 48.726562 "/>
<path style=" stroke:none;fill-rule:nonzero;fill:rgb(0%,0%,0%);fill-opacity:1;" d="M 41.238281 42.480469 C 40.546875 42.480469 39.988281 41.917969 39.988281 41.230469 C 39.988281 39.160156 38.304688 37.480469 36.238281 37.480469 C 35.546875 37.480469 34.988281 36.921875 34.988281 36.230469 C 34.988281 35.539062 35.546875 34.980469 36.238281 34.980469 C 39.683594 34.980469 42.484375 37.785156 42.484375 41.230469 C 42.484375 41.917969 41.929688 42.480469 41.238281 42.480469 Z M 41.238281 42.480469 "/>
<path style=" stroke:none;fill-rule:nonzero;fill:rgb(0%,0%,0%);fill-opacity:1;" d="M 41.238281 47.476562 C 40.546875 47.476562 39.988281 46.917969 39.988281 46.226562 C 39.988281 44.847656 38.867188 43.726562 37.488281 43.726562 C 36.796875 43.726562 36.238281 43.167969 36.238281 42.480469 C 36.238281 41.789062 36.796875 41.230469 37.488281 41.230469 C 40.246094 41.230469 42.484375 43.472656 42.484375 46.226562 C 42.484375 46.917969 41.929688 47.476562 41.238281 47.476562 Z M 41.238281 47.476562 "/>
<path style=" stroke:none;fill-rule:nonzero;fill:rgb(0%,0%,0%);fill-opacity:1;" d="M 37.488281 43.726562 L 31.863281 43.726562 C 31.171875 43.726562 30.613281 43.167969 30.613281 42.480469 C 30.613281 41.789062 31.171875 41.230469 31.863281 41.230469 L 37.488281 41.230469 C 38.179688 41.230469 38.738281 41.789062 38.738281 42.480469 C 38.738281 43.167969 38.179688 43.726562 37.488281 43.726562 Z M 37.488281 43.726562 "/>
<path style=" stroke:none;fill-rule:nonzero;fill:rgb(0%,0%,0%);fill-opacity:1;" d="M 36.238281 37.480469 L 31.863281 37.480469 C 31.171875 37.480469 30.613281 36.921875 30.613281 36.230469 C 30.613281 35.539062 31.171875 34.980469 31.863281 34.980469 L 36.238281 34.980469 C 36.929688 34.980469 37.488281 35.539062 37.488281 36.230469 C 37.488281 36.921875 36.929688 37.480469 36.238281 37.480469 Z M 36.238281 37.480469 "/>
<path style=" stroke:none;fill-rule:nonzero;fill:rgb(0%,0%,0%);fill-opacity:1;" d="M 31.863281 43.726562 C 29.453125 43.726562 27.492188 41.765625 27.492188 39.355469 C 27.492188 36.941406 29.453125 34.980469 31.863281 34.980469 C 32.554688 34.980469 33.113281 35.539062 33.113281 36.230469 C 33.113281 36.921875 32.554688 37.480469 31.863281 37.480469 C 30.832031 37.480469 29.988281 38.320312 29.988281 39.355469 C 29.988281 40.386719 30.832031 41.230469 31.863281 41.230469 C 32.554688 41.230469 33.113281 41.789062 33.113281 42.480469 C 33.113281 43.167969 32.554688 43.726562 31.863281 43.726562 Z M 31.863281 43.726562 "/>
<path style=" stroke:none;fill-rule:nonzero;fill:rgb(0%,0%,0%);fill-opacity:1;" d="M 41.238281 48.949219 C 40.546875 48.949219 39.988281 48.394531 39.988281 47.703125 L 39.988281 41.230469 C 39.988281 40.539062 40.546875 39.980469 41.238281 39.980469 C 41.929688 39.980469 42.484375 40.539062 42.484375 41.230469 L 42.484375 47.703125 C 42.484375 48.394531 41.929688 48.949219 41.238281 48.949219 Z M 41.238281 48.949219 "/>
<path style=" stroke:none;fill-rule:nonzero;fill:rgb(0%,0%,0%);fill-opacity:1;" d="M 78.71875 78.738281 L 59.976562 78.738281 C 59.285156 78.738281 58.726562 78.179688 58.726562 77.488281 C 58.726562 76.796875 59.285156 76.238281 59.976562 76.238281 L 78.71875 76.238281 C 79.410156 76.238281 79.96875 76.796875 79.96875 77.488281 C 79.96875 78.179688 79.410156 78.738281 78.71875 78.738281 Z M 78.71875 78.738281 "/>
<path style=" stroke:none;fill-rule:nonzero;fill:rgb(0%,0%,0%);fill-opacity:1;" d="M 77.46875 78.738281 C 76.777344 78.738281 76.21875 78.179688 76.21875 77.488281 L 76.21875 73.738281 C 76.21875 73.046875 76.777344 72.488281 77.46875 72.488281 C 78.160156 72.488281 78.71875 73.046875 78.71875 73.738281 L 78.71875 77.488281 C 78.71875 78.179688 78.160156 78.738281 77.46875 78.738281 Z M 77.46875 78.738281 "/>
<path style=" stroke:none;fill-rule:nonzero;fill:rgb(0%,0%,0%);fill-opacity:1;" d="M 77.46875 74.988281 L 61.226562 74.988281 C 60.535156 74.988281 59.976562 74.429688 59.976562 73.738281 C 59.976562 73.046875 60.535156 72.488281 61.226562 72.488281 L 77.46875 72.488281 C 78.160156 72.488281 78.71875 73.046875 78.71875 73.738281 C 78.71875 74.429688 78.160156 74.988281 77.46875 74.988281 Z M 77.46875 74.988281 "/>
<path style=" stroke:none;fill-rule:nonzero;fill:rgb(0%,0%,0%);fill-opacity:1;" d="M 61.226562 78.738281 C 60.535156 78.738281 59.976562 78.179688 59.976562 77.488281 L 59.976562 73.738281 C 59.976562 73.046875 60.535156 72.488281 61.226562 72.488281 C 61.914062 72.488281 62.472656 73.046875 62.472656 73.738281 L 62.472656 77.488281 C 62.472656 78.179688 61.914062 78.738281 61.226562 78.738281 Z M 61.226562 78.738281 "/>
<path style=" stroke:none;fill-rule:nonzero;fill:rgb(0%,0%,0%);fill-opacity:1;" d="M 74.96875 74.988281 L 63.722656 74.988281 C 63.03125 74.988281 62.472656 74.429688 62.472656 73.738281 L 62.472656 69.992188 C 62.472656 69.300781 63.03125 68.742188 63.722656 68.742188 L 74.96875 68.742188 C 75.660156 68.742188 76.21875 69.300781 76.21875 69.992188 L 76.21875 73.738281 C 76.21875 74.429688 75.660156 74.988281 74.96875 74.988281 Z M 64.972656 72.488281 L 73.722656 72.488281 L 73.722656 71.242188 L 64.972656 71.242188 Z M 64.972656 72.488281 "/>
<path style=" stroke:none;fill-rule:nonzero;fill:rgb(0%,0%,0%);fill-opacity:1;" d="M 74.96875 59.992188 L 63.722656 59.992188 C 63.03125 59.992188 62.472656 59.433594 62.472656 58.742188 L 62.472656 54.996094 C 62.472656 54.304688 63.03125 53.746094 63.722656 53.746094 L 74.96875 53.746094 C 75.660156 53.746094 76.21875 54.304688 76.21875 54.996094 L 76.21875 58.742188 C 76.21875 59.433594 75.660156 59.992188 74.96875 59.992188 Z M 64.972656 57.492188 L 73.722656 57.492188 L 73.722656 56.246094 L 64.972656 56.246094 Z M 64.972656 57.492188 "/>
<path style=" stroke:none;fill-rule:nonzero;fill:rgb(0%,0%,0%);fill-opacity:1;" d="M 64.972656 71.242188 C 64.28125 71.242188 63.722656 70.683594 63.722656 69.992188 L 63.722656 58.722656 C 63.722656 58.03125 64.28125 57.472656 64.972656 57.472656 C 65.664062 57.472656 66.222656 58.03125 66.222656 58.722656 L 66.222656 69.992188 C 66.222656 70.683594 65.664062 71.242188 64.972656 71.242188 Z M 64.972656 71.242188 "/>
<path style=" stroke:none;fill-rule:nonzero;fill:rgb(0%,0%,0%);fill-opacity:1;" d="M 73.722656 71.242188 C 73.03125 71.242188 72.472656 70.683594 72.472656 69.992188 L 72.472656 58.722656 C 72.472656 58.03125 73.03125 57.472656 73.722656 57.472656 C 74.410156 57.472656 74.96875 58.03125 74.96875 58.722656 L 74.96875 69.992188 C 74.96875 70.683594 74.410156 71.242188 73.722656 71.242188 Z M 73.722656 71.242188 "/>
<path style=" stroke:none;fill-rule:nonzero;fill:rgb(0%,0%,0%);fill-opacity:1;" d="M 64.972656 67.492188 L 51.851562 67.492188 C 51.160156 67.492188 50.601562 66.933594 50.601562 66.242188 C 50.601562 65.550781 51.160156 64.992188 51.851562 64.992188 L 64.972656 64.992188 C 65.664062 64.992188 66.222656 65.550781 66.222656 66.242188 C 66.222656 66.933594 65.664062 67.492188 64.972656 67.492188 Z M 64.972656 67.492188 "/>
<path style=" stroke:none;fill-rule:nonzero;fill:rgb(0%,0%,0%);fill-opacity:1;" d="M 64.972656 63.746094 L 51.851562 63.746094 C 51.160156 63.746094 50.601562 63.1875 50.601562 62.496094 C 50.601562 61.804688 51.160156 61.246094 51.851562 61.246094 L 64.972656 61.246094 C 65.664062 61.246094 66.222656 61.804688 66.222656 62.496094 C 66.222656 63.1875 65.664062 63.746094 64.972656 63.746094 Z M 64.972656 63.746094 "/>
<path style=" stroke:none;fill-rule:nonzero;fill:rgb(0%,0%,0%);fill-opacity:1;" d="M 51.851562 67.496094 C 50.128906 67.496094 48.730469 66.09375 48.730469 64.371094 C 48.730469 62.648438 50.128906 61.246094 51.851562 61.246094 C 52.542969 61.246094 53.101562 61.804688 53.101562 62.496094 C 53.101562 63.1875 52.542969 63.746094 51.851562 63.746094 C 51.507812 63.746094 51.226562 64.027344 51.226562 64.371094 C 51.226562 64.714844 51.507812 64.996094 51.851562 64.996094 C 52.542969 64.996094 53.101562 65.554688 53.101562 66.246094 C 53.101562 66.933594 52.542969 67.496094 51.851562 67.496094 Z M 51.851562 67.496094 "/>
</g>
</svg>
