<?xml version="1.0" encoding="UTF-8"?>
<svg xmlns="http://www.w3.org/2000/svg" xmlns:xlink="http://www.w3.org/1999/xlink" width="80pt" height="80pt" viewBox="0 0 80 80" version="1.1">
<g id="surface1">
<path style=" stroke:none;fill-rule:nonzero;fill:rgb(0%,0%,0%);fill-opacity:1;" d="M 1.25 66.230469 C 0.558594 66.230469 0 65.671875 0 64.980469 C 0 60.15625 3.925781 56.230469 8.75 56.230469 C 9.441406 56.230469 10 56.792969 10 57.480469 C 10 58.171875 9.441406 58.730469 8.75 58.730469 C 5.304688 58.730469 2.5 61.535156 2.5 64.980469 C 2.5 65.671875 1.941406 66.230469 1.25 66.230469 Z M 1.25 66.230469 "/>
<path style=" stroke:none;fill-rule:nonzero;fill:rgb(0%,0%,0%);fill-opacity:1;" d="M 51.230469 66.230469 C 50.539062 66.230469 49.980469 65.671875 49.980469 64.980469 C 49.980469 61.535156 47.179688 58.734375 43.734375 58.734375 C 43.042969 58.734375 42.484375 58.175781 42.484375 57.484375 C 42.484375 56.792969 43.042969 56.234375 43.734375 56.234375 C 48.554688 56.234375 52.480469 60.160156 52.480469 64.980469 C 52.480469 65.671875 51.921875 66.230469 51.230469 66.230469 Z M 51.230469 66.230469 "/>
<path style=" stroke:none;fill-rule:nonzero;fill:rgb(0%,0%,0%);fill-opacity:1;" d="M 18.742188 58.734375 L 8.75 58.730469 C 8.058594 58.730469 7.5 58.171875 7.5 57.480469 C 7.5 56.792969 8.058594 56.230469 8.75 56.230469 L 18.742188 56.234375 C 19.433594 56.234375 19.992188 56.792969 19.992188 57.484375 C 19.992188 58.175781 19.433594 58.734375 18.742188 58.734375 Z M 18.742188 58.734375 "/>
<path style=" stroke:none;fill-rule:nonzero;fill:rgb(0%,0%,0%);fill-opacity:1;" d="M 43.734375 58.734375 L 33.738281 58.730469 C 33.046875 58.730469 32.488281 58.171875 32.488281 57.480469 C 32.488281 56.792969 33.046875 56.230469 33.738281 56.230469 L 43.734375 56.234375 C 44.425781 56.234375 44.984375 56.792969 44.984375 57.484375 C 44.984375 58.175781 44.421875 58.734375 43.734375 58.734375 Z M 43.734375 58.734375 "/>
<path style=" stroke:none;fill-rule:nonzero;fill:rgb(0%,0%,0%);fill-opacity:1;" d="M 1.25 77.472656 C 0.5625 77.472656 0 76.917969 0 76.226562 L 0 64.980469 C 0 64.292969 0.558594 63.730469 1.25 63.730469 C 1.9375 63.730469 2.5 64.289062 2.5 64.980469 L 2.5 76.226562 C 2.5 76.914062 1.941406 77.472656 1.25 77.472656 Z M 1.25 77.472656 "/>
<path style=" stroke:none;fill-rule:nonzero;fill:rgb(0%,0%,0%);fill-opacity:1;" d="M 2.5 78.722656 C 1.121094 78.722656 0 77.601562 0 76.226562 C 0 75.535156 0.558594 74.976562 1.25 74.976562 C 1.941406 74.976562 2.5 75.535156 2.5 76.226562 C 3.191406 76.226562 3.75 76.785156 3.75 77.476562 C 3.75 78.164062 3.191406 78.722656 2.5 78.722656 Z M 2.5 78.722656 "/>
<path style=" stroke:none;fill-rule:nonzero;fill:rgb(0%,0%,0%);fill-opacity:1;" d="M 49.980469 78.722656 C 49.289062 78.722656 48.734375 78.164062 48.734375 77.472656 C 48.734375 76.785156 49.289062 76.226562 49.980469 76.226562 L 49.984375 76.226562 C 49.984375 75.535156 50.542969 74.976562 51.234375 74.976562 C 51.921875 74.976562 52.480469 75.535156 52.480469 76.226562 C 52.480469 77.601562 51.359375 78.722656 49.980469 78.722656 Z M 49.980469 78.722656 "/>
<path style=" stroke:none;fill-rule:nonzero;fill:rgb(0%,0%,0%);fill-opacity:1;" d="M 51.230469 77.472656 C 50.539062 77.472656 49.980469 76.917969 49.980469 76.226562 L 49.980469 64.980469 C 49.980469 64.289062 50.539062 63.730469 51.230469 63.730469 C 51.921875 63.730469 52.480469 64.289062 52.480469 64.980469 L 52.480469 76.226562 C 52.480469 76.917969 51.921875 77.472656 51.230469 77.472656 Z M 51.230469 77.472656 "/>
<path style=" stroke:none;fill-rule:nonzero;fill:rgb(0%,0%,0%);fill-opacity:1;" d="M 49.980469 78.722656 L 2.5 78.722656 C 1.808594 78.722656 1.25 78.164062 1.25 77.472656 C 1.25 76.785156 1.808594 76.226562 2.5 76.226562 L 49.980469 76.226562 C 50.671875 76.226562 51.230469 76.785156 51.230469 77.472656 C 51.230469 78.164062 50.671875 78.722656 49.980469 78.722656 Z M 49.980469 78.722656 "/>
<path style=" stroke:none;fill-rule:nonzero;fill:rgb(0%,0%,0%);fill-opacity:1;" d="M 18.742188 58.734375 C 18.050781 58.734375 17.492188 58.175781 17.492188 57.484375 L 17.492188 50.925781 C 17.492188 50.234375 18.050781 49.675781 18.742188 49.675781 C 19.433594 49.675781 19.992188 50.234375 19.992188 50.925781 L 19.992188 57.484375 C 19.992188 58.175781 19.433594 58.734375 18.742188 58.734375 Z M 18.742188 58.734375 "/>
<path style=" stroke:none;fill-rule:nonzero;fill:rgb(0%,0%,0%);fill-opacity:1;" d="M 33.738281 58.730469 C 33.046875 58.730469 32.488281 58.171875 32.488281 57.480469 L 32.488281 50.925781 C 32.488281 50.234375 33.046875 49.675781 33.738281 49.675781 C 34.429688 49.675781 34.988281 50.234375 34.988281 50.925781 L 34.988281 57.480469 C 34.988281 58.171875 34.429688 58.730469 33.738281 58.730469 Z M 33.738281 58.730469 "/>
<path style=" stroke:none;fill-rule:nonzero;fill:rgb(0%,0%,0%);fill-opacity:1;" d="M 26.242188 53.734375 C 15.21875 53.734375 6.246094 44.765625 6.246094 33.742188 C 6.246094 33.050781 6.804688 32.492188 7.496094 32.492188 C 8.1875 32.492188 8.746094 33.050781 8.746094 33.742188 C 8.746094 43.386719 16.59375 51.234375 26.242188 51.234375 C 35.886719 51.234375 43.734375 43.386719 43.734375 33.742188 C 43.734375 33.050781 44.292969 32.492188 44.984375 32.492188 C 45.675781 32.492188 46.234375 33.050781 46.234375 33.742188 C 46.234375 44.765625 37.265625 53.734375 26.242188 53.734375 Z M 26.242188 53.734375 "/>
<path style=" stroke:none;fill-rule:nonzero;fill:rgb(0%,0%,0%);fill-opacity:1;" d="M 7.496094 34.988281 C 6.804688 34.988281 6.246094 34.429688 6.246094 33.742188 L 6.246094 29.992188 C 6.246094 29.300781 6.804688 28.742188 7.496094 28.742188 C 8.1875 28.742188 8.746094 29.300781 8.746094 29.992188 L 8.746094 33.742188 C 8.746094 34.429688 8.1875 34.988281 7.496094 34.988281 Z M 7.496094 34.988281 "/>
<path style=" stroke:none;fill-rule:nonzero;fill:rgb(0%,0%,0%);fill-opacity:1;" d="M 44.984375 34.988281 C 44.292969 34.988281 43.734375 34.429688 43.734375 33.742188 L 43.734375 29.992188 C 43.734375 29.300781 44.292969 28.742188 44.984375 28.742188 C 45.675781 28.742188 46.234375 29.300781 46.234375 29.992188 L 46.234375 33.742188 C 46.234375 34.429688 45.675781 34.988281 44.984375 34.988281 Z M 44.984375 34.988281 "/>
<path style=" stroke:none;fill-rule:nonzero;fill:rgb(0%,0%,0%);fill-opacity:1;" d="M 38.734375 21.242188 C 36.667969 21.242188 34.988281 19.558594 34.988281 17.492188 C 34.988281 16.804688 35.546875 16.242188 36.238281 16.242188 C 36.929688 16.242188 37.488281 16.804688 37.488281 17.492188 C 37.488281 18.183594 38.046875 18.742188 38.734375 18.742188 C 39.425781 18.742188 39.984375 19.300781 39.984375 19.992188 C 39.984375 20.683594 39.425781 21.242188 38.734375 21.242188 Z M 38.734375 21.242188 "/>
<path style=" stroke:none;fill-rule:nonzero;fill:rgb(0%,0%,0%);fill-opacity:1;" d="M 41.234375 26.242188 C 39.167969 26.242188 37.488281 24.558594 37.488281 22.492188 C 37.488281 20.425781 39.167969 18.742188 41.234375 18.742188 C 41.925781 18.742188 42.484375 19.300781 42.484375 19.992188 C 42.484375 20.683594 41.925781 21.242188 41.234375 21.242188 C 40.546875 21.242188 39.984375 21.800781 39.984375 22.492188 C 39.984375 23.183594 40.546875 23.742188 41.234375 23.742188 C 41.925781 23.742188 42.484375 24.300781 42.484375 24.992188 C 42.484375 25.683594 41.925781 26.242188 41.234375 26.242188 Z M 41.234375 26.242188 "/>
<path style=" stroke:none;fill-rule:nonzero;fill:rgb(0%,0%,0%);fill-opacity:1;" d="M 43.734375 31.238281 C 41.667969 31.238281 39.984375 29.554688 39.984375 27.488281 C 39.984375 25.421875 41.667969 23.742188 43.734375 23.742188 C 44.425781 23.742188 44.984375 24.300781 44.984375 24.992188 C 44.984375 25.683594 44.425781 26.242188 43.734375 26.242188 C 43.042969 26.242188 42.484375 26.800781 42.484375 27.488281 C 42.484375 28.179688 43.042969 28.738281 43.734375 28.738281 C 44.425781 28.738281 44.984375 29.296875 44.984375 29.988281 C 44.984375 30.679688 44.425781 31.238281 43.734375 31.238281 Z M 43.734375 31.238281 "/>
<path style=" stroke:none;fill-rule:nonzero;fill:rgb(0%,0%,0%);fill-opacity:1;" d="M 44.984375 31.238281 L 8.75 31.238281 C 8.058594 31.238281 7.5 30.679688 7.5 29.988281 C 7.5 29.296875 8.058594 28.738281 8.75 28.738281 L 44.984375 28.738281 C 45.675781 28.738281 46.234375 29.296875 46.234375 29.988281 C 46.234375 30.679688 45.675781 31.238281 44.984375 31.238281 Z M 44.984375 31.238281 "/>
<path style=" stroke:none;fill-rule:nonzero;fill:rgb(0%,0%,0%);fill-opacity:1;" d="M 41.234375 21.242188 L 38.734375 21.242188 C 38.042969 21.242188 37.488281 20.683594 37.488281 19.992188 C 37.488281 19.300781 38.042969 18.742188 38.734375 18.742188 L 41.234375 18.742188 C 41.925781 18.742188 42.484375 19.300781 42.484375 19.992188 C 42.484375 20.683594 41.925781 21.242188 41.234375 21.242188 Z M 41.234375 21.242188 "/>
<path style=" stroke:none;fill-rule:nonzero;fill:rgb(0%,0%,0%);fill-opacity:1;" d="M 43.734375 26.242188 L 41.234375 26.242188 C 40.542969 26.242188 39.984375 25.683594 39.984375 24.992188 C 39.984375 24.300781 40.542969 23.742188 41.234375 23.742188 L 43.734375 23.742188 C 44.425781 23.742188 44.984375 24.300781 44.984375 24.992188 C 44.984375 25.683594 44.425781 26.242188 43.734375 26.242188 Z M 43.734375 26.242188 "/>
<path style=" stroke:none;fill-rule:nonzero;fill:rgb(0%,0%,0%);fill-opacity:1;" d="M 13.746094 21.242188 C 13.054688 21.242188 12.496094 20.683594 12.496094 19.992188 C 12.496094 19.300781 13.054688 18.742188 13.746094 18.742188 C 14.4375 18.742188 14.996094 18.183594 14.996094 17.492188 C 14.996094 16.804688 15.554688 16.242188 16.246094 16.242188 C 16.9375 16.242188 17.496094 16.804688 17.496094 17.492188 C 17.496094 19.558594 15.8125 21.242188 13.746094 21.242188 Z M 13.746094 21.242188 "/>
<path style=" stroke:none;fill-rule:nonzero;fill:rgb(0%,0%,0%);fill-opacity:1;" d="M 11.246094 26.242188 C 10.554688 26.242188 9.996094 25.683594 9.996094 24.992188 C 9.996094 24.300781 10.554688 23.742188 11.246094 23.742188 C 11.9375 23.742188 12.496094 23.183594 12.496094 22.492188 C 12.496094 21.800781 11.9375 21.242188 11.246094 21.242188 C 10.554688 21.242188 9.996094 20.683594 9.996094 19.992188 C 9.996094 19.300781 10.554688 18.742188 11.246094 18.742188 C 13.3125 18.742188 14.996094 20.425781 14.996094 22.492188 C 14.996094 24.558594 13.3125 26.242188 11.246094 26.242188 Z M 11.246094 26.242188 "/>
<path style=" stroke:none;fill-rule:nonzero;fill:rgb(0%,0%,0%);fill-opacity:1;" d="M 8.75 31.238281 C 8.058594 31.238281 7.5 30.679688 7.5 29.988281 C 7.5 29.296875 8.058594 28.738281 8.75 28.738281 C 9.4375 28.738281 9.996094 28.179688 9.996094 27.488281 C 9.996094 26.800781 9.4375 26.242188 8.75 26.242188 C 8.058594 26.242188 7.5 25.683594 7.5 24.992188 C 7.5 24.300781 8.058594 23.742188 8.75 23.742188 C 10.816406 23.742188 12.496094 25.421875 12.496094 27.488281 C 12.496094 29.554688 10.816406 31.238281 8.75 31.238281 Z M 8.75 31.238281 "/>
<path style=" stroke:none;fill-rule:nonzero;fill:rgb(0%,0%,0%);fill-opacity:1;" d="M 8.75 31.238281 L 7.5 31.238281 C 6.808594 31.238281 6.25 30.679688 6.25 29.988281 C 6.25 29.296875 6.808594 28.738281 7.5 28.738281 L 8.75 28.738281 C 9.4375 28.738281 9.996094 29.296875 9.996094 29.988281 C 9.996094 30.679688 9.4375 31.238281 8.75 31.238281 Z M 8.75 31.238281 "/>
<path style=" stroke:none;fill-rule:nonzero;fill:rgb(0%,0%,0%);fill-opacity:1;" d="M 13.746094 21.242188 L 11.246094 21.242188 C 10.554688 21.242188 9.996094 20.683594 9.996094 19.992188 C 9.996094 19.300781 10.554688 18.742188 11.246094 18.742188 L 13.746094 18.742188 C 14.4375 18.742188 14.996094 19.300781 14.996094 19.992188 C 14.996094 20.683594 14.4375 21.242188 13.746094 21.242188 Z M 13.746094 21.242188 "/>
<path style=" stroke:none;fill-rule:nonzero;fill:rgb(0%,0%,0%);fill-opacity:1;" d="M 41.234375 26.242188 L 8.75 26.242188 C 8.058594 26.242188 7.5 25.683594 7.5 24.992188 C 7.5 24.300781 8.058594 23.742188 8.75 23.742188 L 41.234375 23.742188 C 41.925781 23.742188 42.484375 24.300781 42.484375 24.992188 C 42.484375 25.683594 41.925781 26.242188 41.234375 26.242188 Z M 41.234375 26.242188 "/>
<path style=" stroke:none;fill-rule:nonzero;fill:rgb(0%,0%,0%);fill-opacity:1;" d="M 22.492188 18.742188 L 16.246094 18.742188 C 15.554688 18.742188 14.996094 18.183594 14.996094 17.492188 C 14.996094 16.804688 15.554688 16.242188 16.246094 16.242188 L 22.492188 16.242188 C 23.183594 16.242188 23.742188 16.804688 23.742188 17.492188 C 23.742188 18.183594 23.183594 18.742188 22.492188 18.742188 Z M 22.492188 18.742188 "/>
<path style=" stroke:none;fill-rule:nonzero;fill:rgb(0%,0%,0%);fill-opacity:1;" d="M 48.734375 26.242188 C 48.042969 26.242188 47.484375 25.683594 47.484375 24.992188 C 47.484375 13.277344 37.953125 3.746094 26.242188 3.746094 C 14.527344 3.746094 5 13.277344 5 24.992188 C 5 25.683594 4.441406 26.242188 3.75 26.242188 C 3.058594 26.242188 2.5 25.683594 2.5 24.992188 C 2.5 11.898438 13.148438 1.246094 26.242188 1.246094 C 39.332031 1.246094 49.980469 11.898438 49.980469 24.992188 C 49.980469 25.683594 49.421875 26.242188 48.734375 26.242188 Z M 48.734375 26.242188 "/>
<path style=" stroke:none;fill-rule:nonzero;fill:rgb(0%,0%,0%);fill-opacity:1;" d="M 3.75 31.234375 C 1.683594 31.234375 0 29.554688 0 27.488281 C 0 25.421875 1.683594 23.738281 3.75 23.738281 C 4.441406 23.738281 5 24.296875 5 24.988281 C 5 25.679688 4.441406 26.238281 3.75 26.238281 C 3.058594 26.238281 2.5 26.796875 2.5 27.488281 C 2.5 28.175781 3.058594 28.738281 3.75 28.738281 C 4.441406 28.738281 5 29.296875 5 29.988281 C 5 30.675781 4.441406 31.234375 3.75 31.234375 Z M 3.75 31.234375 "/>
<path style=" stroke:none;fill-rule:nonzero;fill:rgb(0%,0%,0%);fill-opacity:1;" d="M 3.75 36.238281 C 1.683594 36.238281 0 34.554688 0 32.488281 C 0 30.421875 1.683594 28.738281 3.75 28.738281 C 4.441406 28.738281 5 29.296875 5 29.988281 C 5 30.679688 4.441406 31.238281 3.75 31.238281 C 3.058594 31.238281 2.5 31.796875 2.5 32.488281 C 2.5 33.179688 3.058594 33.738281 3.75 33.738281 C 4.441406 33.738281 5 34.296875 5 34.988281 C 5 35.679688 4.441406 36.238281 3.75 36.238281 Z M 3.75 36.238281 "/>
<path style=" stroke:none;fill-rule:nonzero;fill:rgb(0%,0%,0%);fill-opacity:1;" d="M 3.75 41.234375 C 1.683594 41.234375 0 39.554688 0 37.488281 C 0 35.421875 1.683594 33.738281 3.75 33.738281 C 4.441406 33.738281 5 34.296875 5 34.988281 C 5 35.679688 4.441406 36.238281 3.75 36.238281 C 3.058594 36.238281 2.5 36.796875 2.5 37.488281 C 2.5 38.175781 3.058594 38.734375 3.75 38.734375 C 4.441406 38.734375 5 39.292969 5 39.984375 C 5 40.675781 4.441406 41.234375 3.75 41.234375 Z M 3.75 41.234375 "/>
<path style=" stroke:none;fill-rule:nonzero;fill:rgb(0%,0%,0%);fill-opacity:1;" d="M 48.734375 31.265625 C 48.042969 31.265625 47.484375 30.707031 47.484375 30.015625 C 47.484375 29.324219 48.042969 28.765625 48.734375 28.765625 C 49.421875 28.765625 49.980469 28.207031 49.980469 27.515625 C 49.980469 26.824219 49.421875 26.265625 48.734375 26.265625 C 48.042969 26.265625 47.484375 25.707031 47.484375 25.015625 C 47.484375 24.324219 48.042969 23.765625 48.734375 23.765625 C 50.800781 23.765625 52.480469 25.449219 52.480469 27.515625 C 52.480469 29.582031 50.800781 31.265625 48.734375 31.265625 Z M 48.734375 31.265625 "/>
<path style=" stroke:none;fill-rule:nonzero;fill:rgb(0%,0%,0%);fill-opacity:1;" d="M 48.734375 36.261719 C 48.042969 36.261719 47.484375 35.703125 47.484375 35.011719 C 47.484375 34.320312 48.042969 33.761719 48.734375 33.761719 C 49.421875 33.761719 49.980469 33.203125 49.980469 32.511719 C 49.980469 31.824219 49.421875 31.265625 48.734375 31.265625 C 48.042969 31.265625 47.484375 30.707031 47.484375 30.015625 C 47.484375 29.324219 48.042969 28.765625 48.734375 28.765625 C 50.800781 28.765625 52.480469 30.445312 52.480469 32.511719 C 52.480469 34.578125 50.800781 36.261719 48.734375 36.261719 Z M 48.734375 36.261719 "/>
<path style=" stroke:none;fill-rule:nonzero;fill:rgb(0%,0%,0%);fill-opacity:1;" d="M 48.734375 41.261719 C 48.042969 41.261719 47.484375 40.703125 47.484375 40.011719 C 47.484375 39.320312 48.042969 38.761719 48.734375 38.761719 C 49.421875 38.761719 49.980469 38.203125 49.980469 37.511719 C 49.980469 36.824219 49.421875 36.261719 48.734375 36.261719 C 48.042969 36.261719 47.484375 35.703125 47.484375 35.011719 C 47.484375 34.324219 48.042969 33.765625 48.734375 33.765625 C 50.800781 33.765625 52.480469 35.445312 52.480469 37.511719 C 52.480469 39.578125 50.800781 41.261719 48.734375 41.261719 Z M 48.734375 41.261719 "/>
<path style=" stroke:none;fill-rule:nonzero;fill:rgb(0%,0%,0%);fill-opacity:1;" d="M 22.492188 18.742188 C 21.800781 18.742188 21.242188 18.183594 21.242188 17.492188 C 21.242188 16.804688 21.800781 16.242188 22.492188 16.242188 C 23.871094 16.242188 24.992188 15.125 24.992188 13.746094 C 24.992188 13.054688 25.550781 12.496094 26.242188 12.496094 C 26.933594 12.496094 27.488281 13.054688 27.488281 13.746094 C 27.488281 16.5 25.25 18.742188 22.492188 18.742188 Z M 22.492188 18.742188 "/>
<path style=" stroke:none;fill-rule:nonzero;fill:rgb(0%,0%,0%);fill-opacity:1;" d="M 36.238281 18.742188 L 29.992188 18.742188 C 29.300781 18.742188 28.742188 18.183594 28.742188 17.492188 C 28.742188 16.804688 29.300781 16.242188 29.992188 16.242188 L 36.238281 16.242188 C 36.929688 16.242188 37.488281 16.804688 37.488281 17.492188 C 37.488281 18.183594 36.929688 18.742188 36.238281 18.742188 Z M 36.238281 18.742188 "/>
<path style=" stroke:none;fill-rule:nonzero;fill:rgb(0%,0%,0%);fill-opacity:1;" d="M 29.992188 18.742188 C 27.234375 18.742188 24.992188 16.5 24.992188 13.746094 C 24.992188 13.054688 25.550781 12.496094 26.242188 12.496094 C 26.933594 12.496094 27.492188 13.054688 27.492188 13.746094 C 27.492188 15.125 28.613281 16.242188 29.992188 16.242188 C 30.683594 16.242188 31.238281 16.804688 31.238281 17.492188 C 31.238281 18.183594 30.683594 18.742188 29.992188 18.742188 Z M 29.992188 18.742188 "/>
<path style=" stroke:none;fill-rule:nonzero;fill:rgb(0%,0%,0%);fill-opacity:1;" d="M 8.574219 41.234375 L 3.75 41.234375 C 3.058594 41.234375 2.5 40.675781 2.5 39.984375 C 2.5 39.292969 3.058594 38.734375 3.75 38.734375 L 8.574219 38.734375 C 9.265625 38.734375 9.824219 39.292969 9.824219 39.984375 C 9.824219 40.675781 9.265625 41.234375 8.574219 41.234375 Z M 8.574219 41.234375 "/>
<path style=" stroke:none;fill-rule:nonzero;fill:rgb(0%,0%,0%);fill-opacity:1;" d="M 48.734375 41.261719 L 43.90625 41.261719 C 43.21875 41.261719 42.660156 40.703125 42.660156 40.011719 C 42.660156 39.320312 43.21875 38.761719 43.90625 38.761719 L 48.734375 38.761719 C 49.421875 38.761719 49.980469 39.320312 49.980469 40.011719 C 49.980469 40.703125 49.421875 41.261719 48.734375 41.261719 Z M 48.734375 41.261719 "/>
<path style=" stroke:none;fill-rule:nonzero;fill:rgb(0%,0%,0%);fill-opacity:1;" d="M 14.996094 71.230469 C 14.304688 71.230469 13.746094 70.671875 13.746094 69.980469 L 13.746094 57.484375 C 13.746094 56.792969 14.304688 56.234375 14.996094 56.234375 C 15.6875 56.234375 16.246094 56.792969 16.246094 57.484375 L 16.246094 69.980469 C 16.246094 70.671875 15.6875 71.230469 14.996094 71.230469 Z M 14.996094 71.230469 "/>
<path style=" stroke:none;fill-rule:nonzero;fill:rgb(0%,0%,0%);fill-opacity:1;" d="M 11.25 71.230469 C 10.558594 71.230469 10 70.671875 10 69.980469 L 10 57.480469 C 10 56.792969 10.558594 56.230469 11.25 56.230469 C 11.941406 56.230469 12.5 56.792969 12.5 57.480469 L 12.5 69.980469 C 12.5 70.671875 11.941406 71.230469 11.25 71.230469 Z M 11.25 71.230469 "/>
<path style=" stroke:none;fill-rule:nonzero;fill:rgb(0%,0%,0%);fill-opacity:1;" d="M 27.488281 71.230469 C 26.796875 71.230469 26.238281 70.671875 26.238281 69.980469 C 26.238281 69.292969 26.796875 68.734375 27.488281 68.734375 C 32.308594 68.734375 36.234375 64.808594 36.234375 59.984375 C 36.234375 59.296875 36.792969 58.734375 37.484375 58.734375 C 38.175781 58.734375 38.734375 59.296875 38.734375 59.984375 C 38.734375 66.1875 33.6875 71.230469 27.488281 71.230469 Z M 27.488281 71.230469 "/>
<path style=" stroke:none;fill-rule:nonzero;fill:rgb(0%,0%,0%);fill-opacity:1;" d="M 27.488281 71.230469 L 1.25 71.230469 C 0.558594 71.230469 0 70.671875 0 69.980469 C 0 69.292969 0.558594 68.734375 1.25 68.734375 L 27.488281 68.734375 C 28.179688 68.734375 28.738281 69.292969 28.738281 69.980469 C 28.738281 70.671875 28.179688 71.230469 27.488281 71.230469 Z M 27.488281 71.230469 "/>
<path style=" stroke:none;fill-rule:nonzero;fill:rgb(0%,0%,0%);fill-opacity:1;" d="M 37.484375 61.234375 C 36.792969 61.234375 36.234375 60.675781 36.234375 59.984375 L 36.234375 57.484375 C 36.234375 56.792969 36.792969 56.234375 37.484375 56.234375 C 38.175781 56.234375 38.734375 56.792969 38.734375 57.484375 L 38.734375 59.984375 C 38.734375 60.675781 38.175781 61.234375 37.484375 61.234375 Z M 37.484375 61.234375 "/>
<path style=" stroke:none;fill-rule:nonzero;fill:rgb(0%,0%,0%);fill-opacity:1;" d="M 56.230469 68.722656 C 55.539062 68.722656 54.980469 68.164062 54.980469 67.472656 L 54.980469 66.222656 C 54.980469 65.53125 55.539062 64.972656 56.230469 64.972656 C 56.921875 64.972656 57.480469 65.53125 57.480469 66.222656 L 57.480469 67.472656 C 57.480469 68.164062 56.921875 68.722656 56.230469 68.722656 Z M 56.230469 68.722656 "/>
<path style=" stroke:none;fill-rule:nonzero;fill:rgb(0%,0%,0%);fill-opacity:1;" d="M 78.71875 68.722656 C 78.027344 68.722656 77.472656 68.164062 77.46875 67.476562 L 77.46875 66.226562 C 77.464844 65.535156 78.023438 64.976562 78.714844 64.972656 C 79.40625 64.972656 79.964844 65.53125 79.964844 66.222656 L 79.96875 67.472656 C 79.96875 68.160156 79.414062 68.722656 78.722656 68.722656 C 78.71875 68.722656 78.71875 68.722656 78.71875 68.722656 Z M 78.71875 68.722656 "/>
<path style=" stroke:none;fill-rule:nonzero;fill:rgb(0%,0%,0%);fill-opacity:1;" d="M 76.214844 57.476562 L 58.730469 57.476562 C 58.039062 57.476562 57.480469 56.917969 57.480469 56.226562 C 57.480469 55.535156 58.039062 54.976562 58.730469 54.976562 L 76.214844 54.976562 C 76.90625 54.976562 77.464844 55.535156 77.464844 56.226562 C 77.464844 56.917969 76.90625 57.476562 76.214844 57.476562 Z M 76.214844 57.476562 "/>
<path style=" stroke:none;fill-rule:nonzero;fill:rgb(0%,0%,0%);fill-opacity:1;" d="M 67.472656 78.722656 C 66.78125 78.722656 66.226562 78.164062 66.226562 77.472656 L 66.226562 53.726562 C 66.226562 53.035156 66.78125 52.480469 67.472656 52.480469 C 68.164062 52.480469 68.722656 53.035156 68.722656 53.726562 L 68.722656 77.472656 C 68.722656 78.164062 68.164062 78.722656 67.472656 78.722656 Z M 67.472656 78.722656 "/>
<path style=" stroke:none;fill-rule:nonzero;fill:rgb(0%,0%,0%);fill-opacity:1;" d="M 73.71875 78.722656 L 61.230469 78.722656 C 60.539062 78.722656 59.980469 78.164062 59.980469 77.472656 C 59.980469 76.78125 60.539062 76.222656 61.230469 76.222656 L 73.71875 76.222656 C 74.410156 76.222656 74.96875 76.78125 74.96875 77.472656 C 74.96875 78.164062 74.410156 78.722656 73.71875 78.722656 Z M 73.71875 78.722656 "/>
<path style=" stroke:none;fill-rule:nonzero;fill:rgb(0%,0%,0%);fill-opacity:1;" d="M 76.21875 71.222656 C 74.152344 71.222656 72.46875 69.539062 72.46875 67.472656 C 72.46875 66.78125 73.027344 66.222656 73.71875 66.222656 C 74.410156 66.222656 74.96875 66.78125 74.96875 67.472656 C 74.96875 68.164062 75.527344 68.722656 76.21875 68.722656 C 76.90625 68.722656 77.46875 68.164062 77.46875 67.472656 C 77.46875 66.78125 78.027344 66.222656 78.714844 66.222656 C 79.40625 66.222656 79.964844 66.78125 79.964844 67.472656 C 79.964844 69.539062 78.285156 71.222656 76.21875 71.222656 Z M 76.21875 71.222656 "/>
<path style=" stroke:none;fill-rule:nonzero;fill:rgb(0%,0%,0%);fill-opacity:1;" d="M 73.71875 67.472656 C 73.621094 67.472656 73.515625 67.460938 73.414062 67.4375 C 72.746094 67.269531 72.339844 66.589844 72.507812 65.921875 L 75.003906 55.925781 C 75.171875 55.253906 75.847656 54.84375 76.519531 55.015625 C 77.1875 55.183594 77.597656 55.859375 77.429688 56.53125 L 74.929688 66.527344 C 74.789062 67.09375 74.277344 67.472656 73.71875 67.472656 Z M 73.71875 67.472656 "/>
<path style=" stroke:none;fill-rule:nonzero;fill:rgb(0%,0%,0%);fill-opacity:1;" d="M 78.714844 67.472656 C 78.152344 67.472656 77.644531 67.09375 77.503906 66.527344 L 75.003906 56.53125 C 74.835938 55.859375 75.242188 55.183594 75.914062 55.015625 C 76.582031 54.84375 77.261719 55.253906 77.429688 55.925781 L 79.925781 65.921875 C 80.09375 66.589844 79.6875 67.269531 79.015625 67.4375 C 78.914062 67.460938 78.8125 67.472656 78.714844 67.472656 Z M 78.714844 67.472656 "/>
<path style=" stroke:none;fill-rule:nonzero;fill:rgb(0%,0%,0%);fill-opacity:1;" d="M 58.730469 71.222656 C 56.664062 71.222656 54.980469 69.539062 54.980469 67.472656 C 54.980469 66.78125 55.539062 66.222656 56.230469 66.222656 C 56.921875 66.222656 57.480469 66.78125 57.480469 67.472656 C 57.480469 68.164062 58.039062 68.722656 58.730469 68.722656 C 59.421875 68.722656 59.980469 68.164062 59.980469 67.472656 C 59.980469 66.78125 60.539062 66.222656 61.230469 66.222656 C 61.921875 66.222656 62.480469 66.78125 62.480469 67.472656 C 62.480469 69.539062 60.796875 71.222656 58.730469 71.222656 Z M 58.730469 71.222656 "/>
<path style=" stroke:none;fill-rule:nonzero;fill:rgb(0%,0%,0%);fill-opacity:1;" d="M 56.230469 67.472656 C 56.132812 67.472656 56.03125 67.460938 55.929688 67.4375 C 55.257812 67.269531 54.851562 66.589844 55.019531 65.921875 L 57.515625 55.925781 C 57.683594 55.253906 58.363281 54.84375 59.03125 55.015625 C 59.699219 55.183594 60.109375 55.859375 59.941406 56.53125 L 57.441406 66.527344 C 57.300781 67.09375 56.792969 67.472656 56.230469 67.472656 Z M 56.230469 67.472656 "/>
<path style=" stroke:none;fill-rule:nonzero;fill:rgb(0%,0%,0%);fill-opacity:1;" d="M 61.226562 67.472656 C 60.664062 67.472656 60.15625 67.09375 60.015625 66.527344 L 57.515625 56.53125 C 57.347656 55.859375 57.753906 55.183594 58.425781 55.015625 C 59.089844 54.84375 59.773438 55.253906 59.941406 55.925781 L 62.4375 65.921875 C 62.609375 66.589844 62.199219 67.269531 61.53125 67.4375 C 61.429688 67.460938 61.324219 67.472656 61.226562 67.472656 Z M 61.226562 67.472656 "/>
<path style=" stroke:none;fill-rule:nonzero;fill:rgb(0%,0%,0%);fill-opacity:1;" d="M 61.226562 67.472656 L 56.230469 67.472656 C 55.539062 67.472656 54.980469 66.914062 54.980469 66.222656 C 54.980469 65.53125 55.539062 64.972656 56.230469 64.972656 L 61.226562 64.972656 C 61.917969 64.972656 62.476562 65.53125 62.476562 66.222656 C 62.476562 66.914062 61.917969 67.472656 61.226562 67.472656 Z M 61.226562 67.472656 "/>
<path style=" stroke:none;fill-rule:nonzero;fill:rgb(0%,0%,0%);fill-opacity:1;" d="M 78.714844 67.472656 L 73.71875 67.472656 C 73.027344 67.472656 72.46875 66.914062 72.46875 66.222656 C 72.46875 65.53125 73.027344 64.972656 73.71875 64.972656 L 78.714844 64.972656 C 79.40625 64.972656 79.964844 65.53125 79.964844 66.222656 C 79.964844 66.914062 79.40625 67.472656 78.714844 67.472656 Z M 78.714844 67.472656 "/>
<path style=" stroke:none;fill-rule:nonzero;fill:rgb(0%,0%,0%);fill-opacity:1;" d="M 61.230469 68.722656 C 60.539062 68.722656 59.980469 68.164062 59.980469 67.476562 L 59.976562 66.226562 C 59.976562 65.535156 60.53125 64.976562 61.222656 64.972656 L 61.226562 64.972656 C 61.917969 64.972656 62.476562 65.53125 62.476562 66.222656 L 62.480469 67.472656 C 62.480469 68.160156 61.921875 68.722656 61.230469 68.722656 Z M 61.230469 68.722656 "/>
<path style=" stroke:none;fill-rule:nonzero;fill:rgb(0%,0%,0%);fill-opacity:1;" d="M 73.722656 68.722656 C 73.03125 68.722656 72.472656 68.164062 72.472656 67.472656 L 72.472656 66.222656 C 72.472656 65.53125 73.03125 64.972656 73.722656 64.972656 C 74.410156 64.972656 74.96875 65.53125 74.96875 66.222656 L 74.96875 67.472656 C 74.96875 68.164062 74.410156 68.722656 73.722656 68.722656 Z M 73.722656 68.722656 "/>
</g>
</svg>
