<?xml version="1.0" encoding="UTF-8"?>
<svg xmlns="http://www.w3.org/2000/svg" xmlns:xlink="http://www.w3.org/1999/xlink" width="80pt" height="80pt" viewBox="0 0 80 80" version="1.1">
<g id="surface1">
<path style=" stroke:none;fill-rule:nonzero;fill:rgb(0%,0%,0%);fill-opacity:1;" d="M 75.121094 79.96875 L 5.152344 79.96875 C 4.460938 79.96875 3.902344 79.410156 3.902344 78.71875 L 3.902344 46.242188 C 3.902344 45.550781 4.460938 44.992188 5.152344 44.992188 L 8.898438 44.992188 C 9.589844 44.992188 10.148438 45.550781 10.148438 46.242188 C 10.148438 46.933594 9.589844 47.492188 8.898438 47.492188 L 6.402344 47.492188 L 6.402344 77.46875 L 73.871094 77.46875 L 73.871094 47.492188 L 71.371094 47.492188 C 70.679688 47.492188 70.121094 46.933594 70.121094 46.242188 C 70.121094 45.550781 70.679688 44.992188 71.371094 44.992188 L 75.121094 44.992188 C 75.808594 44.992188 76.367188 45.550781 76.367188 46.242188 L 76.367188 78.71875 C 76.367188 79.410156 75.808594 79.96875 75.121094 79.96875 Z M 75.121094 79.96875 "/>
<path style=" stroke:none;fill-rule:nonzero;fill:rgb(0%,0%,0%);fill-opacity:1;" d="M 40.136719 47.492188 C 39.445312 47.492188 38.886719 46.933594 38.886719 46.242188 C 38.886719 42.796875 41.6875 39.992188 45.132812 39.992188 C 45.824219 39.992188 46.382812 40.554688 46.382812 41.242188 C 46.382812 41.933594 45.824219 42.492188 45.132812 42.492188 C 43.066406 42.492188 41.386719 44.175781 41.386719 46.242188 C 41.386719 46.933594 40.828125 47.492188 40.136719 47.492188 Z M 40.136719 47.492188 "/>
<path style=" stroke:none;fill-rule:nonzero;fill:rgb(0%,0%,0%);fill-opacity:1;" d="M 71.371094 42.492188 L 45.132812 42.492188 C 44.441406 42.492188 43.882812 41.933594 43.882812 41.242188 C 43.882812 40.554688 44.441406 39.992188 45.132812 39.992188 L 71.371094 39.992188 C 72.0625 39.992188 72.621094 40.554688 72.621094 41.242188 C 72.621094 41.933594 72.0625 42.492188 71.371094 42.492188 Z M 71.371094 42.492188 "/>
<path style=" stroke:none;fill-rule:nonzero;fill:rgb(0%,0%,0%);fill-opacity:1;" d="M 40.136719 79.96875 C 39.445312 79.96875 38.886719 79.410156 38.886719 78.71875 C 38.886719 75.273438 41.6875 72.472656 45.132812 72.472656 C 45.824219 72.472656 46.382812 73.03125 46.382812 73.722656 C 46.382812 74.410156 45.824219 74.96875 45.132812 74.96875 C 43.066406 74.96875 41.386719 76.652344 41.386719 78.71875 C 41.386719 79.410156 40.828125 79.96875 40.136719 79.96875 Z M 40.136719 79.96875 "/>
<path style=" stroke:none;fill-rule:nonzero;fill:rgb(0%,0%,0%);fill-opacity:1;" d="M 71.371094 74.96875 L 45.132812 74.96875 C 44.441406 74.96875 43.882812 74.410156 43.882812 73.722656 C 43.882812 73.03125 44.441406 72.472656 45.132812 72.472656 L 71.371094 72.472656 C 72.0625 72.472656 72.621094 73.03125 72.621094 73.722656 C 72.621094 74.410156 72.0625 74.96875 71.371094 74.96875 Z M 71.371094 74.96875 "/>
<path style=" stroke:none;fill-rule:nonzero;fill:rgb(0%,0%,0%);fill-opacity:1;" d="M 71.371094 74.96875 C 70.679688 74.96875 70.121094 74.410156 70.121094 73.722656 L 70.121094 41.242188 C 70.121094 40.554688 70.679688 39.992188 71.371094 39.992188 C 72.0625 39.992188 72.621094 40.554688 72.621094 41.242188 L 72.621094 73.722656 C 72.621094 74.410156 72.0625 74.96875 71.371094 74.96875 Z M 71.371094 74.96875 "/>
<path style=" stroke:none;fill-rule:nonzero;fill:rgb(0%,0%,0%);fill-opacity:1;" d="M 40.136719 47.492188 C 39.445312 47.492188 38.886719 46.933594 38.886719 46.242188 C 38.886719 44.175781 37.203125 42.492188 35.136719 42.492188 C 34.445312 42.492188 33.886719 41.933594 33.886719 41.242188 C 33.886719 40.554688 34.445312 39.992188 35.136719 39.992188 C 38.582031 39.992188 41.386719 42.796875 41.386719 46.242188 C 41.386719 46.933594 40.828125 47.492188 40.136719 47.492188 Z M 40.136719 47.492188 "/>
<path style=" stroke:none;fill-rule:nonzero;fill:rgb(0%,0%,0%);fill-opacity:1;" d="M 35.136719 42.492188 L 8.898438 42.492188 C 8.207031 42.492188 7.648438 41.933594 7.648438 41.242188 C 7.648438 40.554688 8.207031 39.992188 8.898438 39.992188 L 35.136719 39.992188 C 35.828125 39.992188 36.386719 40.554688 36.386719 41.242188 C 36.386719 41.933594 35.828125 42.492188 35.136719 42.492188 Z M 35.136719 42.492188 "/>
<path style=" stroke:none;fill-rule:nonzero;fill:rgb(0%,0%,0%);fill-opacity:1;" d="M 40.136719 79.96875 C 39.445312 79.96875 38.886719 79.410156 38.886719 78.71875 C 38.886719 76.652344 37.203125 74.96875 35.136719 74.96875 C 34.445312 74.96875 33.886719 74.410156 33.886719 73.722656 C 33.886719 73.03125 34.445312 72.472656 35.136719 72.472656 C 38.582031 72.472656 41.386719 75.273438 41.386719 78.71875 C 41.386719 79.410156 40.828125 79.96875 40.136719 79.96875 Z M 40.136719 79.96875 "/>
<path style=" stroke:none;fill-rule:nonzero;fill:rgb(0%,0%,0%);fill-opacity:1;" d="M 35.136719 74.96875 L 8.898438 74.96875 C 8.207031 74.96875 7.648438 74.410156 7.648438 73.722656 C 7.648438 73.03125 8.207031 72.472656 8.898438 72.472656 L 35.136719 72.472656 C 35.828125 72.472656 36.386719 73.03125 36.386719 73.722656 C 36.386719 74.410156 35.828125 74.96875 35.136719 74.96875 Z M 35.136719 74.96875 "/>
<path style=" stroke:none;fill-rule:nonzero;fill:rgb(0%,0%,0%);fill-opacity:1;" d="M 8.898438 74.96875 C 8.207031 74.96875 7.648438 74.410156 7.648438 73.722656 L 7.648438 41.242188 C 7.648438 40.554688 8.207031 39.992188 8.898438 39.992188 C 9.589844 39.992188 10.148438 40.554688 10.148438 41.242188 L 10.148438 73.722656 C 10.148438 74.410156 9.589844 74.96875 8.898438 74.96875 Z M 8.898438 74.96875 "/>
<path style=" stroke:none;fill-rule:nonzero;fill:rgb(0%,0%,0%);fill-opacity:1;" d="M 40.136719 79.96875 C 39.445312 79.96875 38.886719 79.410156 38.886719 78.71875 L 38.886719 46.242188 C 38.886719 45.550781 39.445312 44.992188 40.136719 44.992188 C 40.828125 44.992188 41.386719 45.550781 41.386719 46.242188 L 41.386719 78.71875 C 41.386719 79.410156 40.828125 79.96875 40.136719 79.96875 Z M 40.136719 79.96875 "/>
<path style=" stroke:none;fill-rule:nonzero;fill:rgb(0%,0%,0%);fill-opacity:1;" d="M 26.390625 48.738281 L 15.148438 48.738281 C 14.457031 48.738281 13.898438 48.179688 13.898438 47.488281 C 13.898438 46.800781 14.457031 46.242188 15.148438 46.242188 L 26.390625 46.242188 C 27.082031 46.242188 27.640625 46.800781 27.640625 47.488281 C 27.640625 48.179688 27.082031 48.738281 26.390625 48.738281 Z M 26.390625 48.738281 "/>
<path style=" stroke:none;fill-rule:nonzero;fill:rgb(0%,0%,0%);fill-opacity:1;" d="M 23.894531 58.742188 L 15.148438 58.742188 C 14.457031 58.742188 13.898438 58.183594 13.898438 57.492188 C 13.898438 56.800781 14.457031 56.242188 15.148438 56.242188 L 23.894531 56.242188 C 24.585938 56.242188 25.144531 56.800781 25.144531 57.492188 C 25.144531 58.183594 24.585938 58.742188 23.894531 58.742188 Z M 23.894531 58.742188 "/>
<path style=" stroke:none;fill-rule:nonzero;fill:rgb(0%,0%,0%);fill-opacity:1;" d="M 33.886719 58.742188 L 28.890625 58.742188 C 28.199219 58.742188 27.644531 58.183594 27.644531 57.492188 C 27.644531 56.800781 28.199219 56.242188 28.890625 56.242188 L 33.886719 56.242188 C 34.578125 56.242188 35.136719 56.800781 35.136719 57.492188 C 35.136719 58.183594 34.578125 58.742188 33.886719 58.742188 Z M 33.886719 58.742188 "/>
<path style=" stroke:none;fill-rule:nonzero;fill:rgb(0%,0%,0%);fill-opacity:1;" d="M 33.886719 53.742188 L 20.144531 53.742188 C 19.453125 53.742188 18.894531 53.183594 18.894531 52.492188 C 18.894531 51.800781 19.453125 51.242188 20.144531 51.242188 L 33.886719 51.242188 C 34.578125 51.242188 35.136719 51.800781 35.136719 52.492188 C 35.136719 53.183594 34.578125 53.742188 33.886719 53.742188 Z M 33.886719 53.742188 "/>
<path style=" stroke:none;fill-rule:nonzero;fill:rgb(0%,0%,0%);fill-opacity:1;" d="M 16.398438 53.742188 L 15.148438 53.742188 C 14.457031 53.742188 13.898438 53.183594 13.898438 52.492188 C 13.898438 51.800781 14.457031 51.242188 15.148438 51.242188 L 16.398438 51.242188 C 17.085938 51.242188 17.644531 51.800781 17.644531 52.492188 C 17.644531 53.183594 17.085938 53.742188 16.398438 53.742188 Z M 16.398438 53.742188 "/>
<path style=" stroke:none;fill-rule:nonzero;fill:rgb(0%,0%,0%);fill-opacity:1;" d="M 33.886719 48.738281 L 31.390625 48.738281 C 30.699219 48.738281 30.140625 48.179688 30.140625 47.488281 C 30.140625 46.800781 30.699219 46.242188 31.390625 46.242188 L 33.886719 46.242188 C 34.578125 46.242188 35.136719 46.800781 35.136719 47.488281 C 35.136719 48.179688 34.578125 48.738281 33.886719 48.738281 Z M 33.886719 48.738281 "/>
<path style=" stroke:none;fill-rule:nonzero;fill:rgb(0%,0%,0%);fill-opacity:1;" d="M 27.640625 63.742188 L 15.148438 63.742188 C 14.457031 63.742188 13.898438 63.183594 13.898438 62.492188 C 13.898438 61.800781 14.457031 61.242188 15.148438 61.242188 L 27.640625 61.242188 C 28.332031 61.242188 28.890625 61.800781 28.890625 62.492188 C 28.890625 63.183594 28.332031 63.742188 27.640625 63.742188 Z M 27.640625 63.742188 "/>
<path style=" stroke:none;fill-rule:nonzero;fill:rgb(0%,0%,0%);fill-opacity:1;" d="M 33.886719 63.742188 L 32.636719 63.742188 C 31.945312 63.742188 31.390625 63.183594 31.390625 62.492188 C 31.390625 61.800781 31.945312 61.242188 32.636719 61.242188 L 33.886719 61.242188 C 34.578125 61.242188 35.136719 61.800781 35.136719 62.492188 C 35.136719 63.183594 34.578125 63.742188 33.886719 63.742188 Z M 33.886719 63.742188 "/>
<path style=" stroke:none;fill-rule:nonzero;fill:rgb(0%,0%,0%);fill-opacity:1;" d="M 20.144531 68.742188 L 15.148438 68.742188 C 14.457031 68.742188 13.898438 68.183594 13.898438 67.492188 C 13.898438 66.800781 14.457031 66.242188 15.148438 66.242188 L 20.144531 66.242188 C 20.835938 66.242188 21.394531 66.800781 21.394531 67.492188 C 21.394531 68.183594 20.835938 68.742188 20.144531 68.742188 Z M 20.144531 68.742188 "/>
<path style=" stroke:none;fill-rule:nonzero;fill:rgb(0%,0%,0%);fill-opacity:1;" d="M 33.886719 68.742188 L 25.144531 68.742188 C 24.453125 68.742188 23.894531 68.183594 23.894531 67.492188 C 23.894531 66.800781 24.453125 66.242188 25.144531 66.242188 L 33.886719 66.242188 C 34.578125 66.242188 35.136719 66.800781 35.136719 67.492188 C 35.136719 68.183594 34.578125 68.742188 33.886719 68.742188 Z M 33.886719 68.742188 "/>
<path style=" stroke:none;fill-rule:nonzero;fill:rgb(0%,0%,0%);fill-opacity:1;" d="M 65.144531 48.730469 L 53.902344 48.730469 C 53.210938 48.730469 52.652344 48.167969 52.652344 47.480469 C 52.652344 46.789062 53.210938 46.230469 53.902344 46.230469 L 65.144531 46.230469 C 65.835938 46.230469 66.394531 46.789062 66.394531 47.480469 C 66.394531 48.167969 65.835938 48.730469 65.144531 48.730469 Z M 65.144531 48.730469 "/>
<path style=" stroke:none;fill-rule:nonzero;fill:rgb(0%,0%,0%);fill-opacity:1;" d="M 65.144531 58.730469 L 56.398438 58.730469 C 55.707031 58.730469 55.148438 58.171875 55.148438 57.480469 C 55.148438 56.789062 55.707031 56.230469 56.398438 56.230469 L 65.144531 56.230469 C 65.835938 56.230469 66.394531 56.789062 66.394531 57.480469 C 66.394531 58.171875 65.835938 58.730469 65.144531 58.730469 Z M 65.144531 58.730469 "/>
<path style=" stroke:none;fill-rule:nonzero;fill:rgb(0%,0%,0%);fill-opacity:1;" d="M 51.402344 58.730469 L 46.40625 58.730469 C 45.714844 58.730469 45.15625 58.171875 45.15625 57.480469 C 45.15625 56.789062 45.714844 56.230469 46.40625 56.230469 L 51.402344 56.230469 C 52.089844 56.230469 52.648438 56.789062 52.648438 57.480469 C 52.648438 58.171875 52.089844 58.730469 51.402344 58.730469 Z M 51.402344 58.730469 "/>
<path style=" stroke:none;fill-rule:nonzero;fill:rgb(0%,0%,0%);fill-opacity:1;" d="M 60.148438 53.730469 L 46.40625 53.730469 C 45.714844 53.730469 45.15625 53.171875 45.15625 52.480469 C 45.15625 51.789062 45.714844 51.230469 46.40625 51.230469 L 60.148438 51.230469 C 60.839844 51.230469 61.398438 51.789062 61.398438 52.480469 C 61.398438 53.171875 60.835938 53.730469 60.148438 53.730469 Z M 60.148438 53.730469 "/>
<path style=" stroke:none;fill-rule:nonzero;fill:rgb(0%,0%,0%);fill-opacity:1;" d="M 65.144531 53.730469 L 63.894531 53.730469 C 63.203125 53.730469 62.644531 53.171875 62.644531 52.480469 C 62.644531 51.789062 63.203125 51.230469 63.894531 51.230469 L 65.144531 51.230469 C 65.835938 51.230469 66.394531 51.789062 66.394531 52.480469 C 66.394531 53.171875 65.835938 53.730469 65.144531 53.730469 Z M 65.144531 53.730469 "/>
<path style=" stroke:none;fill-rule:nonzero;fill:rgb(0%,0%,0%);fill-opacity:1;" d="M 48.902344 48.730469 L 46.40625 48.730469 C 45.714844 48.730469 45.15625 48.167969 45.15625 47.480469 C 45.15625 46.789062 45.714844 46.230469 46.40625 46.230469 L 48.902344 46.230469 C 49.59375 46.230469 50.152344 46.789062 50.152344 47.480469 C 50.152344 48.167969 49.59375 48.730469 48.902344 48.730469 Z M 48.902344 48.730469 "/>
<path style=" stroke:none;fill-rule:nonzero;fill:rgb(0%,0%,0%);fill-opacity:1;" d="M 65.144531 63.730469 L 52.652344 63.730469 C 51.960938 63.730469 51.402344 63.171875 51.402344 62.480469 C 51.402344 61.789062 51.960938 61.230469 52.652344 61.230469 L 65.144531 61.230469 C 65.835938 61.230469 66.394531 61.789062 66.394531 62.480469 C 66.394531 63.171875 65.835938 63.730469 65.144531 63.730469 Z M 65.144531 63.730469 "/>
<path style=" stroke:none;fill-rule:nonzero;fill:rgb(0%,0%,0%);fill-opacity:1;" d="M 47.65625 63.730469 L 46.40625 63.730469 C 45.714844 63.730469 45.15625 63.171875 45.15625 62.480469 C 45.15625 61.789062 45.714844 61.230469 46.40625 61.230469 L 47.65625 61.230469 C 48.34375 61.230469 48.902344 61.789062 48.902344 62.480469 C 48.902344 63.171875 48.34375 63.730469 47.65625 63.730469 Z M 47.65625 63.730469 "/>
<path style=" stroke:none;fill-rule:nonzero;fill:rgb(0%,0%,0%);fill-opacity:1;" d="M 65.144531 68.730469 L 60.148438 68.730469 C 59.457031 68.730469 58.898438 68.171875 58.898438 67.480469 C 58.898438 66.792969 59.457031 66.230469 60.148438 66.230469 L 65.144531 66.230469 C 65.835938 66.230469 66.394531 66.792969 66.394531 67.480469 C 66.394531 68.171875 65.835938 68.730469 65.144531 68.730469 Z M 65.144531 68.730469 "/>
<path style=" stroke:none;fill-rule:nonzero;fill:rgb(0%,0%,0%);fill-opacity:1;" d="M 55.148438 68.730469 L 46.40625 68.730469 C 45.714844 68.730469 45.15625 68.171875 45.15625 67.480469 C 45.15625 66.792969 45.714844 66.230469 46.40625 66.230469 L 55.148438 66.230469 C 55.839844 66.230469 56.398438 66.792969 56.398438 67.480469 C 56.398438 68.171875 55.839844 68.730469 55.148438 68.730469 Z M 55.148438 68.730469 "/>
<path style=" stroke:none;fill-rule:nonzero;fill:rgb(0%,0%,0%);fill-opacity:1;" d="M 26.390625 39.988281 C 25.699219 39.988281 25.140625 39.429688 25.140625 38.738281 C 25.140625 36.671875 26.824219 34.992188 28.890625 34.992188 C 29.582031 34.992188 30.140625 35.550781 30.140625 36.242188 C 30.140625 36.929688 29.582031 37.488281 28.890625 37.488281 C 28.199219 37.488281 27.640625 38.050781 27.640625 38.738281 C 27.640625 39.429688 27.082031 39.988281 26.390625 39.988281 Z M 26.390625 39.988281 "/>
<path style=" stroke:none;fill-rule:nonzero;fill:rgb(0%,0%,0%);fill-opacity:1;" d="M 26.390625 42.492188 C 25.699219 42.492188 25.140625 41.933594 25.140625 41.242188 L 25.140625 38.738281 C 25.140625 38.050781 25.699219 37.488281 26.390625 37.488281 C 27.082031 37.488281 27.640625 38.050781 27.640625 38.738281 L 27.640625 41.242188 C 27.640625 41.933594 27.082031 42.492188 26.390625 42.492188 Z M 26.390625 42.492188 "/>
<path style=" stroke:none;fill-rule:nonzero;fill:rgb(0%,0%,0%);fill-opacity:1;" d="M 53.882812 39.988281 C 53.191406 39.988281 52.632812 39.429688 52.632812 38.738281 C 52.632812 38.050781 52.074219 37.488281 51.382812 37.488281 C 50.691406 37.488281 50.132812 36.929688 50.132812 36.242188 C 50.132812 35.550781 50.691406 34.992188 51.382812 34.992188 C 53.449219 34.992188 55.132812 36.671875 55.132812 38.738281 C 55.132812 39.429688 54.574219 39.988281 53.882812 39.988281 Z M 53.882812 39.988281 "/>
<path style=" stroke:none;fill-rule:nonzero;fill:rgb(0%,0%,0%);fill-opacity:1;" d="M 53.882812 42.492188 C 53.191406 42.492188 52.632812 41.933594 52.632812 41.242188 L 52.632812 38.738281 C 52.632812 38.050781 53.191406 37.488281 53.882812 37.488281 C 54.574219 37.488281 55.132812 38.050781 55.132812 38.738281 L 55.132812 41.242188 C 55.132812 41.933594 54.574219 42.492188 53.882812 42.492188 Z M 53.882812 42.492188 "/>
<path style=" stroke:none;fill-rule:nonzero;fill:rgb(0%,0%,0%);fill-opacity:1;" d="M 51.382812 37.488281 L 28.890625 37.488281 C 28.199219 37.488281 27.640625 36.929688 27.640625 36.242188 C 27.640625 35.550781 28.199219 34.992188 28.890625 34.992188 L 51.382812 34.992188 C 52.074219 34.992188 52.632812 35.550781 52.632812 36.242188 C 52.632812 36.929688 52.074219 37.488281 51.382812 37.488281 Z M 51.382812 37.488281 "/>
<path style=" stroke:none;fill-rule:nonzero;fill:rgb(0%,0%,0%);fill-opacity:1;" d="M 38.261719 37.488281 C 37.570312 37.488281 37.011719 36.929688 37.011719 36.238281 L 37.011719 8.746094 C 37.011719 8.058594 37.570312 7.496094 38.261719 7.496094 C 38.953125 7.496094 39.511719 8.058594 39.511719 8.746094 L 39.511719 36.238281 C 39.511719 36.929688 38.953125 37.488281 38.261719 37.488281 Z M 38.261719 37.488281 "/>
<path style=" stroke:none;fill-rule:nonzero;fill:rgb(0%,0%,0%);fill-opacity:1;" d="M 42.011719 37.488281 C 41.320312 37.488281 40.761719 36.929688 40.761719 36.238281 L 40.761719 8.746094 C 40.761719 8.058594 41.320312 7.496094 42.011719 7.496094 C 42.699219 7.496094 43.257812 8.058594 43.257812 8.746094 L 43.257812 36.238281 C 43.257812 36.929688 42.699219 37.488281 42.011719 37.488281 Z M 42.011719 37.488281 "/>
<path style=" stroke:none;fill-rule:nonzero;fill:rgb(0%,0%,0%);fill-opacity:1;" d="M 42.011719 4.375 C 41.320312 4.375 40.761719 3.8125 40.761719 3.125 C 40.761719 2.777344 40.480469 2.5 40.136719 2.5 C 39.792969 2.5 39.511719 2.777344 39.511719 3.125 C 39.511719 3.8125 38.953125 4.375 38.261719 4.375 C 37.570312 4.375 37.011719 3.8125 37.011719 3.125 C 37.011719 1.402344 38.414062 0 40.136719 0 C 41.859375 0 43.257812 1.402344 43.257812 3.125 C 43.257812 3.8125 42.699219 4.375 42.011719 4.375 Z M 42.011719 4.375 "/>
<path style=" stroke:none;fill-rule:nonzero;fill:rgb(0%,0%,0%);fill-opacity:1;" d="M 57.023438 9.996094 C 56.332031 9.996094 55.773438 9.4375 55.773438 8.746094 C 55.773438 8.058594 56.332031 7.496094 57.023438 7.496094 C 57.367188 7.496094 57.648438 7.21875 57.648438 6.871094 C 57.648438 6.527344 57.367188 6.246094 57.023438 6.246094 C 56.332031 6.246094 55.773438 5.6875 55.773438 5 C 55.773438 4.308594 56.332031 3.75 57.023438 3.75 C 58.746094 3.75 60.148438 5.152344 60.148438 6.871094 C 60.148438 8.59375 58.746094 9.996094 57.023438 9.996094 Z M 57.023438 9.996094 "/>
<path style=" stroke:none;fill-rule:nonzero;fill:rgb(0%,0%,0%);fill-opacity:1;" d="M 23.285156 9.996094 C 21.5625 9.996094 20.160156 8.59375 20.160156 6.871094 C 20.160156 5.152344 21.5625 3.75 23.285156 3.75 C 23.976562 3.75 24.535156 4.308594 24.535156 5 C 24.535156 5.6875 23.976562 6.246094 23.285156 6.246094 C 22.941406 6.246094 22.660156 6.527344 22.660156 6.871094 C 22.660156 7.21875 22.941406 7.496094 23.285156 7.496094 C 23.976562 7.496094 24.535156 8.058594 24.535156 8.746094 C 24.535156 9.4375 23.972656 9.996094 23.285156 9.996094 Z M 23.285156 9.996094 "/>
<path style=" stroke:none;fill-rule:nonzero;fill:rgb(0%,0%,0%);fill-opacity:1;" d="M 57.023438 6.25 L 23.367188 6.25 C 22.675781 6.25 22.117188 5.691406 22.117188 5 C 22.117188 4.308594 22.675781 3.75 23.367188 3.75 L 57.023438 3.75 C 57.714844 3.75 58.273438 4.308594 58.273438 5 C 58.273438 5.691406 57.714844 6.25 57.023438 6.25 Z M 57.023438 6.25 "/>
<path style=" stroke:none;fill-rule:nonzero;fill:rgb(0%,0%,0%);fill-opacity:1;" d="M 57.023438 9.996094 L 23.367188 9.996094 C 22.675781 9.996094 22.117188 9.4375 22.117188 8.746094 C 22.117188 8.058594 22.675781 7.496094 23.367188 7.496094 L 57.023438 7.496094 C 57.714844 7.496094 58.273438 8.058594 58.273438 8.746094 C 58.273438 9.4375 57.714844 9.996094 57.023438 9.996094 Z M 57.023438 9.996094 "/>
<path style=" stroke:none;fill-rule:nonzero;fill:rgb(0%,0%,0%);fill-opacity:1;" d="M 38.261719 6.25 C 37.570312 6.25 37.011719 5.691406 37.011719 5 L 37.011719 3.125 C 37.011719 2.433594 37.570312 1.875 38.261719 1.875 C 38.953125 1.875 39.511719 2.433594 39.511719 3.125 L 39.511719 5 C 39.511719 5.691406 38.953125 6.25 38.261719 6.25 Z M 38.261719 6.25 "/>
<path style=" stroke:none;fill-rule:nonzero;fill:rgb(0%,0%,0%);fill-opacity:1;" d="M 42.011719 6.246094 C 41.320312 6.246094 40.761719 5.6875 40.761719 5 L 40.761719 3.125 C 40.761719 2.433594 41.320312 1.875 42.011719 1.875 C 42.699219 1.875 43.257812 2.433594 43.257812 3.125 L 43.257812 5 C 43.257812 5.6875 42.699219 6.246094 42.011719 6.246094 Z M 42.011719 6.246094 "/>
<path style=" stroke:none;fill-rule:nonzero;fill:rgb(0%,0%,0%);fill-opacity:1;" d="M 23.910156 28.742188 C 20.464844 28.742188 17.664062 25.9375 17.664062 22.496094 C 17.664062 21.804688 18.222656 21.246094 18.914062 21.246094 C 19.601562 21.246094 20.160156 21.804688 20.160156 22.496094 C 20.160156 24.5625 21.84375 26.242188 23.910156 26.242188 C 25.976562 26.242188 27.660156 24.5625 27.660156 22.496094 C 27.660156 21.804688 28.21875 21.246094 28.910156 21.246094 C 29.597656 21.246094 30.15625 21.804688 30.15625 22.496094 C 30.15625 25.9375 27.355469 28.742188 23.910156 28.742188 Z M 23.910156 28.742188 "/>
<path style=" stroke:none;fill-rule:nonzero;fill:rgb(0%,0%,0%);fill-opacity:1;" d="M 28.910156 23.742188 L 18.914062 23.742188 C 18.222656 23.742188 17.664062 23.183594 17.664062 22.496094 C 17.664062 21.804688 18.222656 21.246094 18.914062 21.246094 L 28.910156 21.246094 C 29.597656 21.246094 30.15625 21.804688 30.15625 22.496094 C 30.15625 23.183594 29.597656 23.742188 28.910156 23.742188 Z M 28.910156 23.742188 "/>
<path style=" stroke:none;fill-rule:nonzero;fill:rgb(0%,0%,0%);fill-opacity:1;" d="M 18.914062 23.742188 C 18.769531 23.742188 18.625 23.71875 18.484375 23.667969 C 17.835938 23.429688 17.5 22.714844 17.738281 22.066406 L 22.738281 8.320312 C 22.972656 7.671875 23.683594 7.335938 24.335938 7.570312 C 24.984375 7.808594 25.320312 8.523438 25.085938 9.171875 L 20.085938 22.921875 C 19.902344 23.429688 19.421875 23.742188 18.914062 23.742188 Z M 18.914062 23.742188 "/>
<path style=" stroke:none;fill-rule:nonzero;fill:rgb(0%,0%,0%);fill-opacity:1;" d="M 28.910156 23.742188 C 28.398438 23.742188 27.917969 23.429688 27.734375 22.921875 L 22.738281 9.175781 C 22.5 8.527344 22.835938 7.808594 23.484375 7.574219 C 24.136719 7.335938 24.851562 7.671875 25.085938 8.320312 L 30.082031 22.066406 C 30.316406 22.714844 29.984375 23.433594 29.335938 23.667969 C 29.191406 23.71875 29.050781 23.742188 28.910156 23.742188 Z M 28.910156 23.742188 "/>
<path style=" stroke:none;fill-rule:nonzero;fill:rgb(0%,0%,0%);fill-opacity:1;" d="M 56.429688 28.742188 C 52.984375 28.742188 50.183594 25.9375 50.183594 22.496094 C 50.183594 21.804688 50.742188 21.246094 51.433594 21.246094 C 52.121094 21.246094 52.679688 21.804688 52.679688 22.496094 C 52.679688 24.5625 54.363281 26.242188 56.429688 26.242188 C 58.496094 26.242188 60.179688 24.5625 60.179688 22.496094 C 60.179688 21.804688 60.738281 21.246094 61.429688 21.246094 C 62.117188 21.246094 62.675781 21.804688 62.675781 22.496094 C 62.675781 25.9375 59.875 28.742188 56.429688 28.742188 Z M 56.429688 28.742188 "/>
<path style=" stroke:none;fill-rule:nonzero;fill:rgb(0%,0%,0%);fill-opacity:1;" d="M 61.429688 23.742188 L 51.433594 23.742188 C 50.742188 23.742188 50.183594 23.183594 50.183594 22.496094 C 50.183594 21.804688 50.742188 21.246094 51.433594 21.246094 L 61.429688 21.246094 C 62.117188 21.246094 62.675781 21.804688 62.675781 22.496094 C 62.675781 23.183594 62.117188 23.742188 61.429688 23.742188 Z M 61.429688 23.742188 "/>
<path style=" stroke:none;fill-rule:nonzero;fill:rgb(0%,0%,0%);fill-opacity:1;" d="M 51.433594 23.742188 C 51.289062 23.742188 51.144531 23.71875 51.003906 23.667969 C 50.355469 23.429688 50.019531 22.714844 50.257812 22.066406 L 55.257812 8.320312 C 55.492188 7.671875 56.207031 7.335938 56.855469 7.570312 C 57.503906 7.808594 57.839844 8.523438 57.605469 9.171875 L 52.605469 22.921875 C 52.421875 23.429688 51.941406 23.742188 51.433594 23.742188 Z M 51.433594 23.742188 "/>
<path style=" stroke:none;fill-rule:nonzero;fill:rgb(0%,0%,0%);fill-opacity:1;" d="M 61.429688 23.742188 C 60.917969 23.742188 60.4375 23.429688 60.253906 22.921875 L 55.257812 9.175781 C 55.023438 8.527344 55.355469 7.808594 56.003906 7.574219 C 56.65625 7.335938 57.371094 7.671875 57.605469 8.320312 L 62.601562 22.066406 C 62.839844 22.714844 62.503906 23.433594 61.855469 23.667969 C 61.714844 23.71875 61.570312 23.742188 61.429688 23.742188 Z M 61.429688 23.742188 "/>
</g>
</svg>
