<?xml version="1.0" encoding="UTF-8"?>
<svg xmlns="http://www.w3.org/2000/svg" xmlns:xlink="http://www.w3.org/1999/xlink" width="80pt" height="80pt" viewBox="0 0 80 80" version="1.1">
<g id="surface1">
<path style=" stroke:none;fill-rule:nonzero;fill:rgb(0%,0%,0%);fill-opacity:1;" d="M 23.742188 72.089844 C 23.527344 72.089844 23.3125 72.035156 23.117188 71.921875 C 12.710938 65.898438 6.25 54.699219 6.25 42.691406 C 6.25 30.683594 12.714844 19.484375 23.121094 13.460938 C 23.71875 13.113281 24.480469 13.320312 24.828125 13.914062 C 25.175781 14.515625 24.96875 15.277344 24.371094 15.625 C 14.734375 21.203125 8.75 31.574219 8.75 42.691406 C 8.75 53.808594 14.734375 64.179688 24.367188 69.757812 C 24.964844 70.101562 25.171875 70.867188 24.824219 71.464844 C 24.59375 71.867188 24.171875 72.089844 23.742188 72.089844 Z M 23.742188 72.089844 "/>
<path style=" stroke:none;fill-rule:nonzero;fill:rgb(0%,0%,0%);fill-opacity:1;" d="M 56.253906 72.089844 C 55.820312 72.089844 55.402344 71.867188 55.171875 71.46875 C 54.824219 70.871094 55.03125 70.105469 55.625 69.761719 C 65.261719 64.179688 71.25 53.808594 71.25 42.691406 C 71.25 31.570312 65.261719 21.199219 55.625 15.621094 C 55.027344 15.277344 54.820312 14.511719 55.167969 13.914062 C 55.511719 13.316406 56.273438 13.109375 56.875 13.460938 C 67.285156 19.480469 73.75 30.683594 73.75 42.691406 C 73.75 54.695312 67.285156 65.898438 56.878906 71.921875 C 56.679688 72.039062 56.464844 72.089844 56.253906 72.089844 Z M 56.253906 72.089844 "/>
<path style=" stroke:none;fill-rule:nonzero;fill:rgb(0%,0%,0%);fill-opacity:1;" d="M 74.375 45.816406 C 72.652344 45.816406 71.25 44.414062 71.25 42.691406 C 71.25 40.96875 72.652344 39.566406 74.375 39.566406 C 75.042969 39.566406 80 40.226562 80 42.691406 C 80 45.15625 75.042969 45.816406 74.375 45.816406 Z M 74.375 42.066406 C 74.03125 42.066406 73.75 42.347656 73.75 42.691406 C 73.75 43.035156 74.03125 43.316406 74.375 43.316406 C 74.9375 43.316406 76.140625 43.015625 76.925781 42.691406 C 76.140625 42.371094 74.9375 42.066406 74.375 42.066406 Z M 74.375 42.066406 "/>
<path style=" stroke:none;fill-rule:nonzero;fill:rgb(0%,0%,0%);fill-opacity:1;" d="M 5.625 45.816406 C 4.957031 45.816406 0 45.15625 0 42.691406 C 0 40.226562 4.957031 39.566406 5.625 39.566406 C 7.347656 39.566406 8.75 40.964844 8.75 42.691406 C 8.75 44.414062 7.347656 45.816406 5.625 45.816406 Z M 3.074219 42.691406 C 3.859375 43.011719 5.0625 43.316406 5.625 43.316406 C 5.96875 43.316406 6.25 43.035156 6.25 42.691406 C 6.25 42.347656 5.96875 42.066406 5.625 42.066406 C 5.0625 42.066406 3.859375 42.367188 3.074219 42.691406 Z M 3.074219 42.691406 "/>
<path style=" stroke:none;fill-rule:nonzero;fill:rgb(0%,0%,0%);fill-opacity:1;" d="M 72.304688 34.0625 C 70.992188 34.0625 69.8125 33.234375 69.367188 32.003906 C 68.773438 30.386719 69.613281 28.589844 71.234375 28 C 71.933594 27.742188 73.253906 27.558594 74.367188 27.558594 C 75.03125 27.558594 77.058594 27.558594 77.585938 29.011719 C 78.128906 30.492188 76.503906 31.828125 75.96875 32.265625 C 75.132812 32.953125 74.039062 33.628906 73.371094 33.871094 C 73.027344 33.996094 72.667969 34.0625 72.304688 34.0625 Z M 74.367188 30.058594 C 73.414062 30.058594 72.414062 30.230469 72.089844 30.347656 C 71.765625 30.464844 71.597656 30.824219 71.714844 31.148438 C 71.851562 31.527344 72.238281 31.621094 72.515625 31.523438 C 73.046875 31.332031 74.066406 30.636719 74.699219 30.066406 C 74.601562 30.058594 74.488281 30.058594 74.367188 30.058594 Z M 74.367188 30.058594 "/>
<path style=" stroke:none;fill-rule:nonzero;fill:rgb(0%,0%,0%);fill-opacity:1;" d="M 5.632812 57.824219 C 4.96875 57.824219 2.941406 57.824219 2.414062 56.371094 C 1.871094 54.886719 3.496094 53.554688 4.03125 53.117188 C 4.867188 52.429688 5.960938 51.753906 6.628906 51.511719 C 8.203125 50.933594 10.0625 51.804688 10.632812 53.378906 C 11.226562 54.996094 10.386719 56.792969 8.765625 57.382812 C 8.066406 57.636719 6.746094 57.824219 5.632812 57.824219 Z M 5.304688 55.316406 C 5.402344 55.320312 5.511719 55.324219 5.632812 55.324219 C 6.585938 55.324219 7.585938 55.152344 7.910156 55.035156 C 8.234375 54.917969 8.402344 54.558594 8.285156 54.234375 C 8.148438 53.855469 7.761719 53.753906 7.484375 53.859375 C 6.953125 54.054688 5.933594 54.746094 5.304688 55.316406 Z M 5.304688 55.316406 "/>
<path style=" stroke:none;fill-rule:nonzero;fill:rgb(0%,0%,0%);fill-opacity:1;" d="M 66.332031 23.722656 C 65.40625 23.722656 64.535156 23.316406 63.9375 22.605469 C 62.832031 21.285156 63.003906 19.308594 64.324219 18.203125 C 65.121094 17.535156 67.511719 16.308594 69.03125 16.308594 C 69.898438 16.308594 70.386719 16.675781 70.644531 16.980469 C 71.65625 18.1875 70.585938 19.996094 70.234375 20.59375 C 69.683594 21.523438 68.886719 22.535156 68.339844 22.992188 C 67.78125 23.460938 67.066406 23.722656 66.332031 23.722656 Z M 68.285156 18.964844 C 67.40625 19.238281 66.296875 19.8125 65.929688 20.117188 C 65.757812 20.261719 65.71875 20.445312 65.710938 20.542969 C 65.703125 20.640625 65.707031 20.828125 65.855469 21 C 66.039062 21.21875 66.332031 21.410156 66.734375 21.078125 C 67.164062 20.714844 67.886719 19.714844 68.285156 18.964844 Z M 68.285156 18.964844 "/>
<path style=" stroke:none;fill-rule:nonzero;fill:rgb(0%,0%,0%);fill-opacity:1;" d="M 10.96875 69.074219 C 10.101562 69.074219 9.613281 68.707031 9.355469 68.402344 C 8.34375 67.195312 9.414062 65.386719 9.765625 64.789062 C 10.316406 63.859375 11.113281 62.851562 11.660156 62.390625 C 12.929688 61.324219 14.992188 61.507812 16.058594 62.777344 C 16.597656 63.417969 16.851562 64.226562 16.777344 65.058594 C 16.703125 65.890625 16.3125 66.644531 15.671875 67.179688 C 14.878906 67.847656 12.488281 69.074219 10.96875 69.074219 Z M 13.667969 64.164062 C 13.5625 64.164062 13.410156 64.1875 13.265625 64.308594 C 12.835938 64.667969 12.109375 65.671875 11.714844 66.425781 C 12.578125 66.152344 13.703125 65.570312 14.070312 65.261719 C 14.242188 65.121094 14.28125 64.9375 14.292969 64.839844 C 14.300781 64.742188 14.292969 64.554688 14.148438 64.382812 C 14.027344 64.242188 13.851562 64.164062 13.667969 64.164062 Z M 13.667969 64.164062 "/>
<path style=" stroke:none;fill-rule:nonzero;fill:rgb(0%,0%,0%);fill-opacity:1;" d="M 57.1875 16.046875 C 56.640625 16.046875 56.101562 15.902344 55.625 15.628906 C 54.902344 15.210938 54.382812 14.539062 54.167969 13.730469 C 53.953125 12.921875 54.066406 12.082031 54.484375 11.359375 C 54.84375 10.734375 57.195312 7.8125 59.089844 7.8125 C 59.421875 7.8125 59.730469 7.890625 60 8.050781 C 62.136719 9.28125 60.230469 13.90625 59.894531 14.484375 C 59.339844 15.449219 58.300781 16.046875 57.1875 16.046875 Z M 58.464844 10.695312 C 57.8125 11.210938 56.929688 12.113281 56.648438 12.609375 C 56.535156 12.804688 56.558594 12.992188 56.582031 13.085938 C 56.609375 13.179688 56.679688 13.351562 56.875 13.464844 C 57.125 13.609375 57.511719 13.609375 57.730469 13.234375 C 58.015625 12.742188 58.355469 11.539062 58.464844 10.695312 Z M 58.464844 10.695312 "/>
<path style=" stroke:none;fill-rule:nonzero;fill:rgb(0%,0%,0%);fill-opacity:1;" d="M 22.820312 16.046875 C 21.703125 16.046875 20.664062 15.449219 20.105469 14.484375 C 19.617188 13.640625 18.691406 10.851562 19.113281 9.277344 C 19.296875 8.578125 19.699219 8.226562 20 8.050781 C 20.273438 7.894531 20.582031 7.8125 20.914062 7.8125 C 22.800781 7.8125 25.15625 10.734375 25.519531 11.359375 C 25.9375 12.085938 26.050781 12.925781 25.832031 13.734375 C 25.617188 14.539062 25.097656 15.214844 24.375 15.632812 C 23.902344 15.90625 23.363281 16.046875 22.820312 16.046875 Z M 21.535156 10.710938 C 21.648438 11.554688 21.984375 12.746094 22.269531 13.234375 C 22.488281 13.609375 22.875 13.613281 23.128906 13.464844 C 23.320312 13.355469 23.394531 13.179688 23.417969 13.085938 C 23.445312 12.992188 23.46875 12.804688 23.355469 12.609375 C 23.074219 12.121094 22.210938 11.230469 21.535156 10.710938 Z M 21.535156 10.710938 "/>
<path style=" stroke:none;fill-rule:nonzero;fill:rgb(0%,0%,0%);fill-opacity:1;" d="M 13.667969 23.722656 C 12.9375 23.722656 12.222656 23.460938 11.660156 22.992188 C 11.113281 22.53125 10.316406 21.523438 9.765625 20.59375 C 9.414062 19.996094 8.34375 18.1875 9.359375 16.980469 C 9.617188 16.671875 10.105469 16.308594 10.972656 16.308594 C 12.488281 16.308594 14.882812 17.535156 15.679688 18.203125 C 16.320312 18.742188 16.710938 19.492188 16.785156 20.324219 C 16.855469 21.15625 16.601562 21.96875 16.066406 22.609375 C 15.464844 23.316406 14.59375 23.722656 13.667969 23.722656 Z M 11.714844 18.957031 C 12.109375 19.710938 12.832031 20.710938 13.261719 21.074219 C 13.667969 21.410156 13.964844 21.21875 14.148438 20.996094 C 14.292969 20.828125 14.300781 20.636719 14.292969 20.542969 C 14.28125 20.445312 14.242188 20.261719 14.074219 20.117188 C 13.707031 19.8125 12.578125 19.230469 11.714844 18.957031 Z M 11.714844 18.957031 "/>
<path style=" stroke:none;fill-rule:nonzero;fill:rgb(0%,0%,0%);fill-opacity:1;" d="M 69.035156 69.078125 C 67.519531 69.078125 65.125 67.851562 64.324219 67.183594 C 63.003906 66.074219 62.832031 64.101562 63.941406 62.78125 C 65.003906 61.511719 67.070312 61.328125 68.339844 62.394531 C 68.855469 62.828125 72.21875 66.523438 70.640625 68.40625 C 70.386719 68.710938 69.894531 69.078125 69.035156 69.078125 Z M 66.335938 64.164062 C 66.148438 64.164062 65.976562 64.246094 65.855469 64.386719 C 65.632812 64.652344 65.667969 65.046875 65.929688 65.269531 C 66.296875 65.574219 67.421875 66.152344 68.285156 66.425781 C 67.890625 65.671875 67.167969 64.671875 66.734375 64.308594 C 66.589844 64.191406 66.4375 64.164062 66.335938 64.164062 Z M 66.335938 64.164062 "/>
<path style=" stroke:none;fill-rule:nonzero;fill:rgb(0%,0%,0%);fill-opacity:1;" d="M 7.699219 34.058594 C 7.332031 34.058594 6.972656 33.996094 6.628906 33.871094 C 6 33.644531 1.570312 31.328125 2.414062 29.011719 C 2.945312 27.558594 4.96875 27.558594 5.632812 27.558594 C 6.746094 27.558594 8.066406 27.742188 8.769531 27.996094 C 9.554688 28.285156 10.179688 28.859375 10.535156 29.613281 C 10.886719 30.371094 10.925781 31.222656 10.640625 32.007812 C 10.1875 33.234375 9.007812 34.058594 7.699219 34.058594 Z M 5.304688 30.066406 C 5.933594 30.636719 6.953125 31.328125 7.480469 31.523438 C 7.800781 31.636719 8.175781 31.460938 8.289062 31.144531 C 8.367188 30.9375 8.308594 30.757812 8.265625 30.671875 C 8.226562 30.582031 8.125 30.421875 7.914062 30.347656 C 7.589844 30.226562 6.585938 30.058594 5.632812 30.058594 C 5.511719 30.058594 5.402344 30.058594 5.304688 30.066406 Z M 5.304688 30.066406 "/>
<path style=" stroke:none;fill-rule:nonzero;fill:rgb(0%,0%,0%);fill-opacity:1;" d="M 74.367188 57.828125 C 73.253906 57.828125 71.9375 57.644531 71.234375 57.390625 C 69.613281 56.796875 68.777344 55 69.367188 53.382812 C 69.9375 51.808594 71.789062 50.933594 73.371094 51.511719 C 74 51.742188 78.425781 54.066406 77.589844 56.375 C 77.058594 57.828125 75.03125 57.828125 74.367188 57.828125 Z M 72.304688 53.824219 C 72.085938 53.824219 71.820312 53.953125 71.71875 54.234375 C 71.601562 54.5625 71.765625 54.921875 72.089844 55.039062 C 72.414062 55.15625 73.414062 55.328125 74.367188 55.328125 C 74.488281 55.328125 74.597656 55.324219 74.695312 55.320312 C 74.066406 54.75 73.046875 54.054688 72.515625 53.863281 C 72.449219 53.835938 72.375 53.824219 72.304688 53.824219 Z M 72.304688 53.824219 "/>
<path style=" stroke:none;fill-rule:nonzero;fill:rgb(0%,0%,0%);fill-opacity:1;" d="M 28.75 58.917969 C 28.058594 58.917969 27.5 58.359375 27.5 57.667969 C 27.5 55.601562 29.183594 53.917969 31.25 53.917969 C 31.941406 53.917969 32.5 54.476562 32.5 55.167969 C 32.5 55.859375 31.941406 56.417969 31.25 56.417969 C 30.558594 56.417969 30 56.980469 30 57.667969 C 30 58.359375 29.441406 58.917969 28.75 58.917969 Z M 28.75 58.917969 "/>
<path style=" stroke:none;fill-rule:nonzero;fill:rgb(0%,0%,0%);fill-opacity:1;" d="M 28.75 63.925781 C 28.058594 63.925781 27.5 63.367188 27.5 62.675781 L 27.5 57.667969 C 27.5 56.976562 28.058594 56.417969 28.75 56.417969 C 29.441406 56.417969 30 56.976562 30 57.667969 L 30 62.675781 C 30 63.363281 29.441406 63.925781 28.75 63.925781 Z M 28.75 63.925781 "/>
<path style=" stroke:none;fill-rule:nonzero;fill:rgb(0%,0%,0%);fill-opacity:1;" d="M 51.25 58.917969 C 50.558594 58.917969 50 58.359375 50 57.667969 C 50 56.980469 49.441406 56.417969 48.75 56.417969 C 48.058594 56.417969 47.5 55.859375 47.5 55.167969 C 47.5 54.476562 48.058594 53.917969 48.75 53.917969 C 50.816406 53.917969 52.5 55.601562 52.5 57.667969 C 52.5 58.359375 51.941406 58.917969 51.25 58.917969 Z M 51.25 58.917969 "/>
<path style=" stroke:none;fill-rule:nonzero;fill:rgb(0%,0%,0%);fill-opacity:1;" d="M 51.25 63.925781 C 50.558594 63.925781 50 63.367188 50 62.675781 L 50 57.667969 C 50 56.976562 50.558594 56.417969 51.25 56.417969 C 51.941406 56.417969 52.5 56.976562 52.5 57.667969 L 52.5 62.675781 C 52.5 63.363281 51.941406 63.925781 51.25 63.925781 Z M 51.25 63.925781 "/>
<path style=" stroke:none;fill-rule:nonzero;fill:rgb(0%,0%,0%);fill-opacity:1;" d="M 48.75 56.417969 L 31.25 56.417969 C 30.558594 56.417969 30 55.859375 30 55.167969 C 30 54.476562 30.558594 53.917969 31.25 53.917969 L 48.75 53.917969 C 49.441406 53.917969 50 54.476562 50 55.167969 C 50 55.859375 49.441406 56.417969 48.75 56.417969 Z M 48.75 56.417969 "/>
<path style=" stroke:none;fill-rule:nonzero;fill:rgb(0%,0%,0%);fill-opacity:1;" d="M 38.09375 56.417969 C 37.402344 56.417969 36.84375 55.859375 36.84375 55.167969 L 36.84375 30.167969 C 36.84375 29.476562 37.402344 28.917969 38.09375 28.917969 C 38.785156 28.917969 39.34375 29.476562 39.34375 30.167969 L 39.34375 55.167969 C 39.34375 55.859375 38.78125 56.417969 38.09375 56.417969 Z M 38.09375 56.417969 "/>
<path style=" stroke:none;fill-rule:nonzero;fill:rgb(0%,0%,0%);fill-opacity:1;" d="M 41.839844 56.417969 C 41.148438 56.417969 40.589844 55.859375 40.589844 55.167969 L 40.589844 30.167969 C 40.589844 29.476562 41.148438 28.917969 41.839844 28.917969 C 42.53125 28.917969 43.089844 29.476562 43.089844 30.167969 L 43.089844 55.167969 C 43.089844 55.859375 42.53125 56.417969 41.839844 56.417969 Z M 41.839844 56.417969 "/>
<path style=" stroke:none;fill-rule:nonzero;fill:rgb(0%,0%,0%);fill-opacity:1;" d="M 41.839844 25.792969 C 41.148438 25.792969 40.589844 25.234375 40.589844 24.542969 C 40.589844 24.199219 40.308594 23.917969 39.964844 23.917969 C 39.621094 23.917969 39.339844 24.199219 39.339844 24.542969 C 39.339844 25.234375 38.78125 25.792969 38.089844 25.792969 C 37.398438 25.792969 36.839844 25.234375 36.839844 24.542969 C 36.839844 22.820312 38.242188 21.417969 39.964844 21.417969 C 41.691406 21.417969 43.089844 22.820312 43.089844 24.542969 C 43.089844 25.234375 42.53125 25.792969 41.839844 25.792969 Z M 41.839844 25.792969 "/>
<path style=" stroke:none;fill-rule:nonzero;fill:rgb(0%,0%,0%);fill-opacity:1;" d="M 55.605469 31.417969 C 54.917969 31.417969 54.355469 30.859375 54.355469 30.167969 C 54.355469 29.476562 54.917969 28.917969 55.605469 28.917969 C 55.953125 28.917969 56.230469 28.636719 56.230469 28.292969 C 56.230469 27.949219 55.953125 27.667969 55.605469 27.667969 C 54.917969 27.667969 54.355469 27.109375 54.355469 26.417969 C 54.355469 25.726562 54.917969 25.167969 55.605469 25.167969 C 57.332031 25.167969 58.730469 26.570312 58.730469 28.292969 C 58.730469 30.015625 57.332031 31.417969 55.605469 31.417969 Z M 55.605469 31.417969 "/>
<path style=" stroke:none;fill-rule:nonzero;fill:rgb(0%,0%,0%);fill-opacity:1;" d="M 24.359375 31.417969 C 22.636719 31.417969 21.234375 30.015625 21.234375 28.292969 C 21.234375 26.570312 22.636719 25.167969 24.359375 25.167969 C 25.050781 25.167969 25.609375 25.726562 25.609375 26.417969 C 25.609375 27.109375 25.050781 27.667969 24.359375 27.667969 C 24.015625 27.667969 23.734375 27.949219 23.734375 28.292969 C 23.734375 28.636719 24.015625 28.917969 24.359375 28.917969 C 25.050781 28.917969 25.609375 29.476562 25.609375 30.167969 C 25.609375 30.859375 25.050781 31.417969 24.359375 31.417969 Z M 24.359375 31.417969 "/>
<path style=" stroke:none;fill-rule:nonzero;fill:rgb(0%,0%,0%);fill-opacity:1;" d="M 55.605469 27.667969 L 24.445312 27.667969 C 23.753906 27.667969 23.195312 27.109375 23.195312 26.417969 C 23.195312 25.726562 23.753906 25.167969 24.445312 25.167969 L 55.609375 25.167969 C 56.300781 25.167969 56.859375 25.726562 56.859375 26.417969 C 56.859375 27.109375 56.296875 27.667969 55.605469 27.667969 Z M 55.605469 27.667969 "/>
<path style=" stroke:none;fill-rule:nonzero;fill:rgb(0%,0%,0%);fill-opacity:1;" d="M 55.605469 31.417969 L 24.445312 31.417969 C 23.753906 31.417969 23.195312 30.859375 23.195312 30.167969 C 23.195312 29.476562 23.753906 28.917969 24.445312 28.917969 L 55.609375 28.917969 C 56.300781 28.917969 56.859375 29.476562 56.859375 30.167969 C 56.859375 30.859375 56.296875 31.417969 55.605469 31.417969 Z M 55.605469 31.417969 "/>
<path style=" stroke:none;fill-rule:nonzero;fill:rgb(0%,0%,0%);fill-opacity:1;" d="M 38.089844 27.667969 C 37.398438 27.667969 36.839844 27.109375 36.839844 26.417969 L 36.839844 24.542969 C 36.839844 23.851562 37.398438 23.292969 38.089844 23.292969 C 38.78125 23.292969 39.339844 23.851562 39.339844 24.542969 L 39.339844 26.417969 C 39.339844 27.109375 38.78125 27.667969 38.089844 27.667969 Z M 38.089844 27.667969 "/>
<path style=" stroke:none;fill-rule:nonzero;fill:rgb(0%,0%,0%);fill-opacity:1;" d="M 41.839844 27.667969 C 41.148438 27.667969 40.589844 27.109375 40.589844 26.417969 L 40.589844 24.542969 C 40.589844 23.851562 41.148438 23.292969 41.839844 23.292969 C 42.53125 23.292969 43.089844 23.851562 43.089844 24.542969 L 43.089844 26.417969 C 43.089844 27.109375 42.53125 27.667969 41.839844 27.667969 Z M 41.839844 27.667969 "/>
<path style=" stroke:none;fill-rule:nonzero;fill:rgb(0%,0%,0%);fill-opacity:1;" d="M 24.984375 50.171875 C 21.539062 50.171875 18.734375 47.367188 18.734375 43.921875 C 18.734375 43.230469 19.292969 42.671875 19.984375 42.671875 C 20.675781 42.671875 21.234375 43.230469 21.234375 43.921875 C 21.234375 45.988281 22.917969 47.671875 24.984375 47.671875 C 27.050781 47.671875 28.734375 45.988281 28.734375 43.921875 C 28.734375 43.230469 29.292969 42.671875 29.984375 42.671875 C 30.675781 42.671875 31.234375 43.230469 31.234375 43.921875 C 31.234375 47.367188 28.429688 50.171875 24.984375 50.171875 Z M 24.984375 50.171875 "/>
<path style=" stroke:none;fill-rule:nonzero;fill:rgb(0%,0%,0%);fill-opacity:1;" d="M 29.984375 45.171875 L 19.984375 45.171875 C 19.292969 45.171875 18.734375 44.609375 18.734375 43.921875 C 18.734375 43.230469 19.292969 42.671875 19.984375 42.671875 L 29.984375 42.671875 C 30.675781 42.671875 31.234375 43.230469 31.234375 43.921875 C 31.234375 44.609375 30.675781 45.171875 29.984375 45.171875 Z M 29.984375 45.171875 "/>
<path style=" stroke:none;fill-rule:nonzero;fill:rgb(0%,0%,0%);fill-opacity:1;" d="M 19.984375 45.171875 C 19.84375 45.171875 19.699219 45.144531 19.558594 45.09375 C 18.910156 44.859375 18.574219 44.140625 18.808594 43.492188 L 23.8125 29.738281 C 24.046875 29.089844 24.765625 28.757812 25.414062 28.992188 C 26.0625 29.226562 26.398438 29.945312 26.160156 30.59375 L 21.160156 44.347656 C 20.976562 44.855469 20.496094 45.171875 19.984375 45.171875 Z M 19.984375 45.171875 "/>
<path style=" stroke:none;fill-rule:nonzero;fill:rgb(0%,0%,0%);fill-opacity:1;" d="M 29.984375 45.171875 C 29.476562 45.171875 28.996094 44.855469 28.8125 44.347656 L 23.8125 30.59375 C 23.574219 29.945312 23.910156 29.226562 24.558594 28.992188 C 25.210938 28.757812 25.925781 29.089844 26.160156 29.742188 L 31.160156 43.492188 C 31.398438 44.144531 31.0625 44.859375 30.414062 45.09375 C 30.269531 45.144531 30.128906 45.171875 29.984375 45.171875 Z M 29.984375 45.171875 "/>
<path style=" stroke:none;fill-rule:nonzero;fill:rgb(0%,0%,0%);fill-opacity:1;" d="M 55.015625 50.171875 C 51.570312 50.171875 48.765625 47.367188 48.765625 43.921875 C 48.765625 43.230469 49.324219 42.671875 50.015625 42.671875 C 50.707031 42.671875 51.265625 43.230469 51.265625 43.921875 C 51.265625 45.988281 52.949219 47.671875 55.015625 47.671875 C 57.082031 47.671875 58.765625 45.988281 58.765625 43.921875 C 58.765625 43.230469 59.324219 42.671875 60.015625 42.671875 C 60.707031 42.671875 61.265625 43.230469 61.265625 43.921875 C 61.265625 47.367188 58.460938 50.171875 55.015625 50.171875 Z M 55.015625 50.171875 "/>
<path style=" stroke:none;fill-rule:nonzero;fill:rgb(0%,0%,0%);fill-opacity:1;" d="M 60.015625 45.171875 L 50.015625 45.171875 C 49.324219 45.171875 48.765625 44.609375 48.765625 43.921875 C 48.765625 43.230469 49.324219 42.671875 50.015625 42.671875 L 60.015625 42.671875 C 60.707031 42.671875 61.265625 43.230469 61.265625 43.921875 C 61.265625 44.609375 60.703125 45.171875 60.015625 45.171875 Z M 60.015625 45.171875 "/>
<path style=" stroke:none;fill-rule:nonzero;fill:rgb(0%,0%,0%);fill-opacity:1;" d="M 50.015625 45.171875 C 49.875 45.171875 49.730469 45.144531 49.585938 45.09375 C 48.9375 44.859375 48.601562 44.140625 48.839844 43.492188 L 53.839844 29.738281 C 54.078125 29.089844 54.792969 28.757812 55.441406 28.992188 C 56.089844 29.226562 56.425781 29.945312 56.191406 30.59375 L 51.1875 44.347656 C 51.003906 44.855469 50.523438 45.171875 50.015625 45.171875 Z M 50.015625 45.171875 "/>
<path style=" stroke:none;fill-rule:nonzero;fill:rgb(0%,0%,0%);fill-opacity:1;" d="M 60.015625 45.171875 C 59.503906 45.171875 59.023438 44.855469 58.839844 44.347656 L 53.84375 30.59375 C 53.605469 29.945312 53.941406 29.226562 54.589844 28.992188 C 55.242188 28.757812 55.957031 29.089844 56.191406 29.742188 L 61.191406 43.492188 C 61.425781 44.144531 61.089844 44.859375 60.441406 45.09375 C 60.300781 45.144531 60.15625 45.171875 60.015625 45.171875 Z M 60.015625 45.171875 "/>
<path style=" stroke:none;fill-rule:nonzero;fill:rgb(0%,0%,0%);fill-opacity:1;" d="M 51.25 63.925781 L 28.75 63.925781 C 28.058594 63.925781 27.5 63.367188 27.5 62.675781 C 27.5 61.984375 28.058594 61.425781 28.75 61.425781 L 51.25 61.425781 C 51.941406 61.425781 52.5 61.984375 52.5 62.675781 C 52.5 63.367188 51.941406 63.925781 51.25 63.925781 Z M 51.25 63.925781 "/>
</g>
</svg>
