<?xml version="1.0" encoding="UTF-8"?>
<svg xmlns="http://www.w3.org/2000/svg" xmlns:xlink="http://www.w3.org/1999/xlink" width="80pt" height="80pt" viewBox="0 0 80 80" version="1.1">
<g id="surface1">
<path style=" stroke:none;fill-rule:nonzero;fill:rgb(0%,0%,0%);fill-opacity:1;" d="M 68.75 61.632812 C 62.546875 61.632812 57.5 56.585938 57.5 50.382812 C 57.5 49.691406 58.058594 49.132812 58.75 49.132812 C 59.441406 49.132812 60 49.691406 60 50.382812 C 60 55.203125 63.925781 59.132812 68.75 59.132812 C 73.574219 59.132812 77.5 55.203125 77.5 50.382812 C 77.5 49.691406 78.058594 49.132812 78.75 49.132812 C 79.441406 49.132812 80 49.691406 80 50.382812 C 80 56.585938 74.953125 61.632812 68.75 61.632812 Z M 68.75 61.632812 "/>
<path style=" stroke:none;fill-rule:nonzero;fill:rgb(0%,0%,0%);fill-opacity:1;" d="M 78.75 51.632812 L 58.75 51.632812 C 58.058594 51.632812 57.5 51.074219 57.5 50.382812 C 57.5 49.691406 58.058594 49.132812 58.75 49.132812 L 78.75 49.132812 C 79.441406 49.132812 80 49.691406 80 50.382812 C 80 51.074219 79.441406 51.632812 78.75 51.632812 Z M 78.75 51.632812 "/>
<path style=" stroke:none;fill-rule:nonzero;fill:rgb(0%,0%,0%);fill-opacity:1;" d="M 78.75 51.632812 C 78.222656 51.632812 77.730469 51.292969 77.558594 50.765625 L 67.527344 19.492188 C 67.316406 18.835938 67.679688 18.128906 68.335938 17.917969 C 68.996094 17.707031 69.699219 18.070312 69.90625 18.726562 L 79.941406 50 C 80.152344 50.65625 79.789062 51.359375 79.132812 51.570312 C 79.003906 51.609375 78.875 51.632812 78.75 51.632812 Z M 78.75 51.632812 "/>
<path style=" stroke:none;fill-rule:nonzero;fill:rgb(0%,0%,0%);fill-opacity:1;" d="M 58.75 51.632812 C 58.625 51.632812 58.496094 51.613281 58.371094 51.574219 C 57.710938 51.363281 57.351562 50.660156 57.558594 50 L 67.527344 18.730469 C 67.738281 18.074219 68.441406 17.707031 69.097656 17.917969 C 69.753906 18.128906 70.117188 18.832031 69.910156 19.488281 L 59.941406 50.761719 C 59.769531 51.292969 59.28125 51.632812 58.75 51.632812 Z M 58.75 51.632812 "/>
<path style=" stroke:none;fill-rule:nonzero;fill:rgb(0%,0%,0%);fill-opacity:1;" d="M 11.25 61.632812 C 5.046875 61.632812 0 56.585938 0 50.382812 C 0 49.691406 0.558594 49.132812 1.25 49.132812 C 1.941406 49.132812 2.5 49.691406 2.5 50.382812 C 2.5 55.203125 6.425781 59.132812 11.25 59.132812 C 16.074219 59.132812 20 55.203125 20 50.382812 C 20 49.691406 20.558594 49.132812 21.25 49.132812 C 21.941406 49.132812 22.5 49.691406 22.5 50.382812 C 22.5 56.585938 17.453125 61.632812 11.25 61.632812 Z M 11.25 61.632812 "/>
<path style=" stroke:none;fill-rule:nonzero;fill:rgb(0%,0%,0%);fill-opacity:1;" d="M 21.25 51.632812 L 1.25 51.632812 C 0.558594 51.632812 0 51.074219 0 50.382812 C 0 49.691406 0.558594 49.132812 1.25 49.132812 L 21.25 49.132812 C 21.941406 49.132812 22.5 49.691406 22.5 50.382812 C 22.5 51.074219 21.941406 51.632812 21.25 51.632812 Z M 21.25 51.632812 "/>
<path style=" stroke:none;fill-rule:nonzero;fill:rgb(0%,0%,0%);fill-opacity:1;" d="M 21.25 51.632812 C 20.722656 51.632812 20.230469 51.292969 20.058594 50.765625 L 10.027344 19.492188 C 9.816406 18.835938 10.175781 18.128906 10.832031 17.917969 C 11.492188 17.707031 12.195312 18.070312 12.40625 18.726562 L 22.4375 50 C 22.648438 50.65625 22.289062 51.359375 21.632812 51.570312 C 21.503906 51.609375 21.375 51.632812 21.25 51.632812 Z M 21.25 51.632812 "/>
<path style=" stroke:none;fill-rule:nonzero;fill:rgb(0%,0%,0%);fill-opacity:1;" d="M 1.25 51.632812 C 1.125 51.632812 0.996094 51.613281 0.871094 51.574219 C 0.214844 51.363281 -0.148438 50.660156 0.0585938 50 L 10.027344 18.730469 C 10.238281 18.074219 10.941406 17.707031 11.597656 17.917969 C 12.253906 18.128906 12.617188 18.832031 12.410156 19.492188 L 2.441406 50.761719 C 2.273438 51.292969 1.78125 51.632812 1.25 51.632812 Z M 1.25 51.632812 "/>
<path style=" stroke:none;fill-rule:nonzero;fill:rgb(0%,0%,0%);fill-opacity:1;" d="M 52.480469 12.8125 C 51.789062 12.8125 51.230469 12.253906 51.230469 11.5625 C 51.230469 10.53125 50.390625 9.6875 49.359375 9.6875 C 48.324219 9.6875 47.480469 10.53125 47.480469 11.5625 C 47.480469 12.253906 46.921875 12.8125 46.230469 12.8125 C 45.539062 12.8125 44.980469 12.253906 44.980469 11.5625 C 44.980469 9.152344 46.945312 7.1875 49.359375 7.1875 C 51.769531 7.1875 53.730469 9.152344 53.730469 11.5625 C 53.730469 12.253906 53.171875 12.8125 52.480469 12.8125 Z M 52.480469 12.8125 "/>
<path style=" stroke:none;fill-rule:nonzero;fill:rgb(0%,0%,0%);fill-opacity:1;" d="M 46.21875 12.8125 C 45.527344 12.8125 44.96875 12.253906 44.96875 11.5625 C 44.96875 10.53125 44.128906 9.6875 43.09375 9.6875 C 42.058594 9.6875 41.21875 10.53125 41.21875 11.5625 C 41.21875 12.253906 40.660156 12.8125 39.96875 12.8125 C 39.277344 12.8125 38.71875 12.253906 38.71875 11.5625 C 38.71875 9.152344 40.679688 7.1875 43.09375 7.1875 C 45.507812 7.1875 47.46875 9.152344 47.46875 11.5625 C 47.46875 12.253906 46.910156 12.8125 46.21875 12.8125 Z M 46.21875 12.8125 "/>
<path style=" stroke:none;fill-rule:nonzero;fill:rgb(0%,0%,0%);fill-opacity:1;" d="M 39.992188 12.8125 C 39.300781 12.8125 38.742188 12.253906 38.742188 11.5625 C 38.742188 10.53125 37.898438 9.6875 36.867188 9.6875 C 35.832031 9.6875 34.988281 10.53125 34.988281 11.5625 C 34.988281 12.253906 34.429688 12.8125 33.738281 12.8125 C 33.046875 12.8125 32.488281 12.253906 32.488281 11.5625 C 32.488281 9.152344 34.453125 7.1875 36.867188 7.1875 C 39.277344 7.1875 41.242188 9.152344 41.242188 11.5625 C 41.242188 12.253906 40.683594 12.8125 39.992188 12.8125 Z M 39.992188 12.8125 "/>
<path style=" stroke:none;fill-rule:nonzero;fill:rgb(0%,0%,0%);fill-opacity:1;" d="M 36.867188 20.332031 C 34.457031 20.332031 32.492188 18.367188 32.492188 15.957031 C 32.492188 15.265625 33.050781 14.707031 33.742188 14.707031 C 34.433594 14.707031 34.992188 15.265625 34.992188 15.957031 C 34.992188 16.988281 35.832031 17.832031 36.867188 17.832031 C 37.902344 17.832031 38.742188 16.988281 38.742188 15.957031 C 38.742188 15.265625 39.304688 14.707031 39.992188 14.707031 C 40.683594 14.707031 41.242188 15.265625 41.242188 15.957031 C 41.242188 18.367188 39.28125 20.332031 36.867188 20.332031 Z M 36.867188 20.332031 "/>
<path style=" stroke:none;fill-rule:nonzero;fill:rgb(0%,0%,0%);fill-opacity:1;" d="M 30.613281 20.332031 C 28.199219 20.332031 26.238281 18.367188 26.238281 15.957031 C 26.238281 15.265625 26.792969 14.707031 27.488281 14.707031 C 28.175781 14.707031 28.738281 15.265625 28.738281 15.957031 C 28.738281 16.988281 29.578125 17.832031 30.613281 17.832031 C 31.648438 17.832031 32.488281 16.988281 32.488281 15.957031 C 32.488281 15.265625 33.046875 14.707031 33.738281 14.707031 C 34.429688 14.707031 34.988281 15.265625 34.988281 15.957031 C 34.988281 18.367188 33.027344 20.332031 30.613281 20.332031 Z M 30.613281 20.332031 "/>
<path style=" stroke:none;fill-rule:nonzero;fill:rgb(0%,0%,0%);fill-opacity:1;" d="M 33.738281 12.8125 C 33.046875 12.8125 32.488281 12.253906 32.488281 11.5625 C 32.488281 10.53125 31.648438 9.6875 30.613281 9.6875 C 29.578125 9.6875 28.738281 10.53125 28.738281 11.5625 C 28.738281 12.253906 28.175781 12.8125 27.488281 12.8125 C 26.792969 12.8125 26.238281 12.253906 26.238281 11.5625 C 26.238281 9.152344 28.199219 7.1875 30.613281 7.1875 C 33.027344 7.1875 34.988281 9.152344 34.988281 11.5625 C 34.988281 12.253906 34.429688 12.8125 33.738281 12.8125 Z M 33.738281 12.8125 "/>
<path style=" stroke:none;fill-rule:nonzero;fill:rgb(0%,0%,0%);fill-opacity:1;" d="M 43.097656 20.332031 C 40.6875 20.332031 38.722656 18.367188 38.722656 15.953125 C 38.722656 13.542969 40.6875 11.582031 43.097656 11.582031 C 43.789062 11.582031 44.347656 12.140625 44.347656 12.832031 C 44.347656 13.523438 43.789062 14.082031 43.097656 14.082031 C 42.066406 14.082031 41.222656 14.921875 41.222656 15.953125 C 41.222656 16.988281 42.066406 17.832031 43.097656 17.832031 C 43.789062 17.832031 44.347656 18.390625 44.347656 19.082031 C 44.347656 19.773438 43.789062 20.332031 43.097656 20.332031 Z M 43.097656 20.332031 "/>
<path style=" stroke:none;fill-rule:nonzero;fill:rgb(0%,0%,0%);fill-opacity:1;" d="M 39.984375 17.203125 C 39.292969 17.203125 38.734375 16.644531 38.734375 15.953125 L 38.730469 11.566406 C 38.730469 10.875 39.289062 10.316406 39.980469 10.316406 C 40.671875 10.316406 41.230469 10.875 41.230469 11.5625 L 41.234375 15.953125 C 41.234375 16.644531 40.675781 17.203125 39.984375 17.203125 Z M 39.984375 17.203125 "/>
<path style=" stroke:none;fill-rule:nonzero;fill:rgb(0%,0%,0%);fill-opacity:1;" d="M 33.738281 17.207031 C 33.046875 17.207031 32.488281 16.648438 32.488281 15.957031 L 32.484375 11.566406 C 32.484375 10.875 33.042969 10.316406 33.734375 10.316406 C 34.421875 10.316406 34.984375 10.875 34.984375 11.5625 L 34.988281 15.953125 C 34.988281 16.644531 34.425781 17.207031 33.738281 17.207031 Z M 33.738281 17.207031 "/>
<path style=" stroke:none;fill-rule:nonzero;fill:rgb(0%,0%,0%);fill-opacity:1;" d="M 52.484375 25.328125 C 51.792969 25.328125 51.234375 24.769531 51.234375 24.078125 L 51.234375 11.558594 C 51.234375 10.871094 51.792969 10.308594 52.484375 10.308594 C 53.175781 10.308594 53.734375 10.871094 53.734375 11.558594 L 53.734375 24.078125 C 53.734375 24.769531 53.175781 25.328125 52.484375 25.328125 Z M 52.484375 25.328125 "/>
<path style=" stroke:none;fill-rule:nonzero;fill:rgb(0%,0%,0%);fill-opacity:1;" d="M 27.46875 25.328125 C 26.777344 25.328125 26.21875 24.769531 26.21875 24.078125 L 26.21875 11.5625 C 26.21875 10.871094 26.777344 10.3125 27.46875 10.3125 C 28.160156 10.3125 28.71875 10.871094 28.71875 11.5625 L 28.71875 24.078125 C 28.71875 24.769531 28.160156 25.328125 27.46875 25.328125 Z M 27.46875 25.328125 "/>
<path style=" stroke:none;fill-rule:nonzero;fill:rgb(0%,0%,0%);fill-opacity:1;" d="M 52.492188 14.085938 L 43.097656 14.085938 C 42.40625 14.085938 41.847656 13.527344 41.847656 12.835938 C 41.847656 12.144531 42.40625 11.585938 43.097656 11.585938 L 52.492188 11.585938 C 53.183594 11.585938 53.742188 12.144531 53.742188 12.835938 C 53.742188 13.527344 53.183594 14.085938 52.492188 14.085938 Z M 52.492188 14.085938 "/>
<path style=" stroke:none;fill-rule:nonzero;fill:rgb(0%,0%,0%);fill-opacity:1;" d="M 46.230469 24.074219 C 45.539062 24.074219 44.980469 23.515625 44.980469 22.824219 L 44.980469 19.085938 C 44.980469 18.398438 45.539062 17.835938 46.230469 17.835938 C 46.921875 17.835938 47.480469 18.398438 47.480469 19.085938 L 47.480469 22.824219 C 47.480469 23.515625 46.921875 24.074219 46.230469 24.074219 Z M 46.230469 24.074219 "/>
<path style=" stroke:none;fill-rule:nonzero;fill:rgb(0%,0%,0%);fill-opacity:1;" d="M 46.230469 14.066406 C 45.539062 14.066406 44.980469 13.507812 44.980469 12.816406 L 44.980469 11.5625 C 44.980469 10.871094 45.539062 10.3125 46.230469 10.3125 C 46.921875 10.3125 47.480469 10.871094 47.480469 11.5625 L 47.480469 12.816406 C 47.480469 13.507812 46.921875 14.066406 46.230469 14.066406 Z M 46.230469 14.066406 "/>
<path style=" stroke:none;fill-rule:nonzero;fill:rgb(0%,0%,0%);fill-opacity:1;" d="M 46.230469 20.335938 L 43.097656 20.335938 C 42.40625 20.335938 41.847656 19.777344 41.847656 19.085938 C 41.847656 18.398438 42.40625 17.835938 43.097656 17.835938 L 46.230469 17.835938 C 46.921875 17.835938 47.480469 18.398438 47.480469 19.085938 C 47.480469 19.777344 46.921875 20.335938 46.230469 20.335938 Z M 46.230469 20.335938 "/>
<path style=" stroke:none;fill-rule:nonzero;fill:rgb(0%,0%,0%);fill-opacity:1;" d="M 33.71875 42.816406 C 33.027344 42.816406 32.46875 42.253906 32.46875 41.566406 L 32.46875 34.878906 C 32.46875 34.1875 33.03125 33.628906 33.71875 33.628906 C 34.410156 33.628906 34.96875 34.1875 34.96875 34.878906 L 34.96875 41.566406 C 34.96875 42.257812 34.40625 42.816406 33.71875 42.816406 Z M 33.71875 42.816406 "/>
<path style=" stroke:none;fill-rule:nonzero;fill:rgb(0%,0%,0%);fill-opacity:1;" d="M 46.230469 42.816406 C 45.539062 42.816406 44.980469 42.253906 44.980469 41.566406 L 44.980469 34.878906 C 44.980469 34.1875 45.542969 33.628906 46.230469 33.628906 C 46.921875 33.628906 47.480469 34.1875 47.480469 34.878906 L 47.480469 41.566406 C 47.480469 42.257812 46.917969 42.816406 46.230469 42.816406 Z M 46.230469 42.816406 "/>
<path style=" stroke:none;fill-rule:nonzero;fill:rgb(0%,0%,0%);fill-opacity:1;" d="M 47.464844 42.835938 L 32.472656 42.835938 C 31.78125 42.835938 31.222656 42.277344 31.222656 41.585938 C 31.222656 40.894531 31.78125 40.335938 32.472656 40.335938 L 47.464844 40.335938 C 48.15625 40.335938 48.714844 40.894531 48.714844 41.585938 C 48.714844 42.277344 48.15625 42.835938 47.464844 42.835938 Z M 47.464844 42.835938 "/>
<path style=" stroke:none;fill-rule:nonzero;fill:rgb(0%,0%,0%);fill-opacity:1;" d="M 32.472656 47.835938 C 31.78125 47.835938 31.222656 47.277344 31.222656 46.585938 L 31.222656 41.585938 C 31.222656 40.894531 31.78125 40.335938 32.472656 40.335938 C 33.164062 40.335938 33.722656 40.894531 33.722656 41.585938 L 33.722656 46.585938 C 33.722656 47.277344 33.160156 47.835938 32.472656 47.835938 Z M 32.472656 47.835938 "/>
<path style=" stroke:none;fill-rule:nonzero;fill:rgb(0%,0%,0%);fill-opacity:1;" d="M 47.464844 47.835938 C 46.773438 47.835938 46.214844 47.277344 46.214844 46.585938 L 46.214844 41.585938 C 46.214844 40.894531 46.773438 40.335938 47.464844 40.335938 C 48.15625 40.335938 48.714844 40.894531 48.714844 41.585938 L 48.714844 46.585938 C 48.714844 47.277344 48.15625 47.835938 47.464844 47.835938 Z M 47.464844 47.835938 "/>
<path style=" stroke:none;fill-rule:nonzero;fill:rgb(0%,0%,0%);fill-opacity:1;" d="M 48.710938 47.835938 L 31.222656 47.835938 C 30.53125 47.835938 29.972656 47.277344 29.972656 46.585938 C 29.972656 45.898438 30.53125 45.335938 31.222656 45.335938 L 48.710938 45.335938 C 49.402344 45.335938 49.960938 45.898438 49.960938 46.585938 C 49.960938 47.277344 49.402344 47.835938 48.710938 47.835938 Z M 48.710938 47.835938 "/>
<path style=" stroke:none;fill-rule:nonzero;fill:rgb(0%,0%,0%);fill-opacity:1;" d="M 48.710938 72.847656 C 48.019531 72.847656 47.460938 72.289062 47.460938 71.597656 L 47.460938 46.585938 C 47.460938 45.898438 48.019531 45.335938 48.710938 45.335938 C 49.402344 45.335938 49.960938 45.898438 49.960938 46.585938 L 49.960938 71.597656 C 49.960938 72.289062 49.402344 72.847656 48.710938 72.847656 Z M 48.710938 72.847656 "/>
<path style=" stroke:none;fill-rule:nonzero;fill:rgb(0%,0%,0%);fill-opacity:1;" d="M 31.222656 72.847656 C 30.53125 72.847656 29.972656 72.289062 29.972656 71.597656 L 29.972656 46.585938 C 29.972656 45.898438 30.53125 45.335938 31.222656 45.335938 C 31.914062 45.335938 32.472656 45.898438 32.472656 46.585938 L 32.472656 71.597656 C 32.472656 72.289062 31.914062 72.847656 31.222656 72.847656 Z M 31.222656 72.847656 "/>
<path style=" stroke:none;fill-rule:nonzero;fill:rgb(0%,0%,0%);fill-opacity:1;" d="M 36.21875 37.230469 C 36.09375 37.230469 35.964844 37.210938 35.839844 37.175781 C 30.097656 35.363281 26.238281 30.09375 26.238281 24.0625 C 26.238281 23.371094 26.792969 22.8125 27.488281 22.8125 C 28.175781 22.8125 28.738281 23.371094 28.738281 24.0625 C 28.738281 28.996094 31.890625 33.308594 36.59375 34.789062 C 37.25 34.996094 37.617188 35.699219 37.410156 36.359375 C 37.242188 36.890625 36.746094 37.230469 36.21875 37.230469 Z M 36.21875 37.230469 "/>
<path style=" stroke:none;fill-rule:nonzero;fill:rgb(0%,0%,0%);fill-opacity:1;" d="M 43.71875 37.246094 C 43.1875 37.246094 42.695312 36.902344 42.527344 36.367188 C 42.320312 35.710938 42.6875 35.007812 43.347656 34.800781 C 48.0625 33.324219 51.234375 29.007812 51.234375 24.0625 C 51.234375 23.371094 51.792969 22.8125 52.484375 22.8125 C 53.175781 22.8125 53.734375 23.371094 53.734375 24.0625 C 53.734375 30.109375 49.859375 35.382812 44.09375 37.1875 C 43.96875 37.226562 43.84375 37.246094 43.71875 37.246094 Z M 43.71875 37.246094 "/>
<path style=" stroke:none;fill-rule:nonzero;fill:rgb(0%,0%,0%);fill-opacity:1;" d="M 27.46875 15.335938 L 8.753906 15.335938 C 8.0625 15.335938 7.503906 14.777344 7.503906 14.085938 C 7.503906 13.398438 8.0625 12.835938 8.753906 12.835938 L 27.46875 12.835938 C 28.160156 12.835938 28.71875 13.398438 28.71875 14.085938 C 28.71875 14.777344 28.160156 15.335938 27.46875 15.335938 Z M 27.46875 15.335938 "/>
<path style=" stroke:none;fill-rule:nonzero;fill:rgb(0%,0%,0%);fill-opacity:1;" d="M 27.46875 20.367188 L 8.753906 20.367188 C 8.0625 20.367188 7.503906 19.808594 7.503906 19.117188 C 7.503906 18.425781 8.0625 17.867188 8.753906 17.867188 L 27.46875 17.867188 C 28.160156 17.867188 28.71875 18.425781 28.71875 19.117188 C 28.71875 19.808594 28.160156 20.367188 27.46875 20.367188 Z M 27.46875 20.367188 "/>
<path style=" stroke:none;fill-rule:nonzero;fill:rgb(0%,0%,0%);fill-opacity:1;" d="M 8.757812 20.335938 C 6.6875 20.335938 5.003906 18.65625 5.003906 16.585938 C 5.003906 14.519531 6.6875 12.835938 8.757812 12.835938 C 9.449219 12.835938 10.007812 13.398438 10.007812 14.085938 C 10.007812 14.777344 9.449219 15.335938 8.757812 15.335938 C 8.066406 15.335938 7.503906 15.898438 7.503906 16.585938 C 7.503906 17.277344 8.066406 17.835938 8.757812 17.835938 C 9.449219 17.835938 10.007812 18.398438 10.007812 19.085938 C 10.007812 19.777344 9.449219 20.335938 8.757812 20.335938 Z M 8.757812 20.335938 "/>
<path style=" stroke:none;fill-rule:nonzero;fill:rgb(0%,0%,0%);fill-opacity:1;" d="M 71.246094 20.367188 L 52.53125 20.367188 C 51.839844 20.367188 51.28125 19.808594 51.28125 19.117188 C 51.28125 18.425781 51.839844 17.867188 52.53125 17.867188 L 71.246094 17.867188 C 71.9375 17.867188 72.496094 18.425781 72.496094 19.117188 C 72.496094 19.808594 71.9375 20.367188 71.246094 20.367188 Z M 71.246094 20.367188 "/>
<path style=" stroke:none;fill-rule:nonzero;fill:rgb(0%,0%,0%);fill-opacity:1;" d="M 71.246094 15.335938 L 52.53125 15.335938 C 51.839844 15.335938 51.28125 14.777344 51.28125 14.085938 C 51.28125 13.398438 51.839844 12.835938 52.53125 12.835938 L 71.246094 12.835938 C 71.9375 12.835938 72.496094 13.398438 72.496094 14.085938 C 72.496094 14.777344 71.9375 15.335938 71.246094 15.335938 Z M 71.246094 15.335938 "/>
<path style=" stroke:none;fill-rule:nonzero;fill:rgb(0%,0%,0%);fill-opacity:1;" d="M 71.242188 20.367188 C 70.550781 20.367188 69.992188 19.808594 69.992188 19.117188 C 69.992188 18.425781 70.550781 17.867188 71.242188 17.867188 C 71.933594 17.867188 72.496094 17.308594 72.496094 16.617188 C 72.496094 15.925781 71.933594 15.363281 71.242188 15.363281 C 70.550781 15.363281 69.992188 14.804688 69.992188 14.113281 C 69.992188 13.421875 70.550781 12.863281 71.242188 12.863281 C 73.3125 12.863281 74.996094 14.546875 74.996094 16.617188 C 74.996094 18.683594 73.3125 20.367188 71.242188 20.367188 Z M 71.242188 20.367188 "/>
</g>
</svg>
