<?xml version="1.0" encoding="UTF-8"?>
<svg xmlns="http://www.w3.org/2000/svg" xmlns:xlink="http://www.w3.org/1999/xlink" width="80pt" height="80pt" viewBox="0 0 80 80" version="1.1">
<g id="surface1">
<path style=" stroke:none;fill-rule:nonzero;fill:rgb(0%,0%,0%);fill-opacity:1;" d="M 62.457031 24.476562 L 52.453125 24.476562 C 51.761719 24.476562 51.203125 23.917969 51.203125 23.226562 C 51.203125 22.535156 51.761719 21.976562 52.453125 21.976562 L 62.457031 21.976562 C 63.152344 21.976562 63.710938 22.535156 63.710938 23.226562 C 63.710938 23.917969 63.148438 24.476562 62.457031 24.476562 Z M 62.457031 24.476562 "/>
<path style=" stroke:none;fill-rule:nonzero;fill:rgb(0%,0%,0%);fill-opacity:1;" d="M 57.457031 24.476562 C 56.765625 24.476562 56.207031 23.917969 56.207031 23.226562 L 56.207031 11.972656 C 56.207031 11.277344 56.765625 10.71875 57.457031 10.71875 C 58.148438 10.71875 58.707031 11.277344 58.707031 11.972656 L 58.707031 23.226562 C 58.707031 23.917969 58.148438 24.476562 57.457031 24.476562 Z M 57.457031 24.476562 "/>
<path style=" stroke:none;fill-rule:nonzero;fill:rgb(0%,0%,0%);fill-opacity:1;" d="M 62.457031 14.472656 L 52.453125 14.472656 C 51.761719 14.472656 51.203125 13.914062 51.203125 13.222656 C 51.203125 12.53125 51.761719 11.972656 52.453125 11.972656 L 62.457031 11.972656 C 63.152344 11.972656 63.710938 12.53125 63.710938 13.222656 C 63.710938 13.914062 63.148438 14.472656 62.457031 14.472656 Z M 62.457031 14.472656 "/>
<path style=" stroke:none;fill-rule:nonzero;fill:rgb(0%,0%,0%);fill-opacity:1;" d="M 63.710938 18.222656 L 61.207031 18.222656 C 60.515625 18.222656 59.957031 17.664062 59.957031 16.972656 C 59.957031 16.28125 60.515625 15.722656 61.207031 15.722656 L 63.710938 15.722656 C 64.402344 15.722656 64.960938 16.28125 64.960938 16.972656 C 64.960938 17.664062 64.398438 18.222656 63.710938 18.222656 Z M 63.710938 18.222656 "/>
<path style=" stroke:none;fill-rule:nonzero;fill:rgb(0%,0%,0%);fill-opacity:1;" d="M 53.703125 18.222656 L 51.203125 18.222656 C 50.511719 18.222656 49.953125 17.664062 49.953125 16.972656 C 49.953125 16.28125 50.511719 15.722656 51.203125 15.722656 L 53.703125 15.722656 C 54.394531 15.722656 54.957031 16.28125 54.957031 16.972656 C 54.957031 17.664062 54.394531 18.222656 53.703125 18.222656 Z M 53.703125 18.222656 "/>
<path style=" stroke:none;fill-rule:nonzero;fill:rgb(0%,0%,0%);fill-opacity:1;" d="M 44.9375 76.988281 L 2.414062 76.988281 C 1.722656 76.988281 1.164062 76.429688 1.164062 75.738281 C 1.164062 75.046875 1.722656 74.488281 2.414062 74.488281 L 44.9375 74.488281 C 45.628906 74.488281 46.191406 75.046875 46.191406 75.738281 C 46.191406 76.429688 45.628906 76.988281 44.9375 76.988281 Z M 44.9375 76.988281 "/>
<path style=" stroke:none;fill-rule:nonzero;fill:rgb(0%,0%,0%);fill-opacity:1;" d="M 42.4375 76.988281 L 4.914062 76.988281 C 4.222656 76.988281 3.664062 76.429688 3.664062 75.738281 L 3.664062 71.988281 C 3.664062 71.296875 4.222656 70.738281 4.914062 70.738281 L 42.4375 70.738281 C 43.128906 70.738281 43.6875 71.296875 43.6875 71.988281 L 43.6875 75.738281 C 43.6875 76.429688 43.128906 76.988281 42.4375 76.988281 Z M 6.164062 74.488281 L 41.1875 74.488281 L 41.1875 73.238281 L 6.164062 73.238281 Z M 6.164062 74.488281 "/>
<path style=" stroke:none;fill-rule:nonzero;fill:rgb(0%,0%,0%);fill-opacity:1;" d="M 34.933594 64.484375 L 12.421875 64.484375 C 11.730469 64.484375 11.171875 63.925781 11.171875 63.234375 L 11.171875 35.71875 C 11.171875 35.027344 11.730469 34.46875 12.421875 34.46875 L 34.933594 34.46875 C 35.625 34.46875 36.183594 35.027344 36.183594 35.71875 L 36.183594 63.234375 C 36.183594 63.925781 35.625 64.484375 34.933594 64.484375 Z M 13.671875 61.980469 L 33.679688 61.980469 L 33.679688 36.96875 L 13.671875 36.96875 Z M 13.671875 61.980469 "/>
<path style=" stroke:none;fill-rule:nonzero;fill:rgb(0%,0%,0%);fill-opacity:1;" d="M 37.433594 69.484375 L 9.921875 69.484375 C 9.226562 69.484375 8.667969 68.925781 8.667969 68.234375 L 8.667969 63.234375 C 8.667969 62.542969 9.226562 61.980469 9.921875 61.980469 L 37.433594 61.980469 C 38.125 61.980469 38.683594 62.542969 38.683594 63.234375 L 38.683594 68.234375 C 38.683594 68.925781 38.125 69.484375 37.433594 69.484375 Z M 11.171875 66.984375 L 36.183594 66.984375 L 36.183594 64.484375 L 11.171875 64.484375 Z M 11.171875 66.984375 "/>
<path style=" stroke:none;fill-rule:nonzero;fill:rgb(0%,0%,0%);fill-opacity:1;" d="M 37.433594 36.96875 L 9.921875 36.96875 C 9.226562 36.96875 8.667969 36.410156 8.667969 35.71875 L 8.667969 30.71875 C 8.667969 30.027344 9.226562 29.464844 9.921875 29.464844 L 37.433594 29.464844 C 38.125 29.464844 38.683594 30.027344 38.683594 30.71875 L 38.683594 35.71875 C 38.683594 36.410156 38.125 36.96875 37.433594 36.96875 Z M 11.171875 34.46875 L 36.183594 34.46875 L 36.183594 31.96875 L 11.171875 31.96875 Z M 11.171875 34.46875 "/>
<path style=" stroke:none;fill-rule:nonzero;fill:rgb(0%,0%,0%);fill-opacity:1;" d="M 39.933594 45.722656 L 34.933594 45.722656 C 34.238281 45.722656 33.679688 45.164062 33.679688 44.472656 C 33.679688 43.78125 34.238281 43.222656 34.933594 43.222656 L 39.933594 43.222656 C 40.625 43.222656 41.183594 43.78125 41.183594 44.472656 C 41.183594 45.164062 40.625 45.722656 39.933594 45.722656 Z M 39.933594 45.722656 "/>
<path style=" stroke:none;fill-rule:nonzero;fill:rgb(0%,0%,0%);fill-opacity:1;" d="M 39.933594 55.730469 L 34.933594 55.730469 C 34.238281 55.730469 33.679688 55.171875 33.679688 54.480469 C 33.679688 53.789062 34.238281 53.226562 34.933594 53.226562 L 39.933594 53.226562 C 40.625 53.226562 41.183594 53.789062 41.183594 54.480469 C 41.183594 55.171875 40.625 55.730469 39.933594 55.730469 Z M 39.933594 55.730469 "/>
<path style=" stroke:none;fill-rule:nonzero;fill:rgb(0%,0%,0%);fill-opacity:1;" d="M 39.933594 55.730469 C 39.242188 55.730469 38.683594 55.171875 38.683594 54.480469 L 38.683594 44.472656 C 38.683594 43.78125 39.242188 43.222656 39.933594 43.222656 C 40.625 43.222656 41.183594 43.78125 41.183594 44.472656 L 41.183594 54.480469 C 41.183594 55.171875 40.625 55.730469 39.933594 55.730469 Z M 39.933594 55.730469 "/>
<path style=" stroke:none;fill-rule:nonzero;fill:rgb(0%,0%,0%);fill-opacity:1;" d="M 74.964844 46.976562 L 39.933594 46.976562 C 39.242188 46.976562 38.683594 46.417969 38.683594 45.722656 C 38.683594 45.03125 39.242188 44.472656 39.933594 44.472656 L 74.964844 44.472656 C 75.65625 44.472656 76.214844 45.03125 76.214844 45.722656 C 76.214844 46.417969 75.65625 46.976562 74.964844 46.976562 Z M 74.964844 46.976562 "/>
<path style=" stroke:none;fill-rule:nonzero;fill:rgb(0%,0%,0%);fill-opacity:1;" d="M 74.964844 54.480469 L 39.933594 54.480469 C 39.242188 54.480469 38.683594 53.921875 38.683594 53.226562 C 38.683594 52.535156 39.242188 51.976562 39.933594 51.976562 L 74.964844 51.976562 C 75.65625 51.976562 76.214844 52.535156 76.214844 53.226562 C 76.214844 53.921875 75.65625 54.480469 74.964844 54.480469 Z M 74.964844 54.480469 "/>
<path style=" stroke:none;fill-rule:nonzero;fill:rgb(0%,0%,0%);fill-opacity:1;" d="M 74.964844 54.480469 C 74.273438 54.480469 73.714844 53.921875 73.714844 53.226562 C 73.714844 52.535156 74.273438 51.976562 74.964844 51.976562 C 76.34375 51.976562 77.46875 50.855469 77.46875 49.476562 C 77.46875 48.097656 76.34375 46.976562 74.964844 46.976562 C 74.273438 46.976562 73.714844 46.417969 73.714844 45.722656 C 73.714844 45.03125 74.273438 44.472656 74.964844 44.472656 C 77.726562 44.472656 79.96875 46.71875 79.96875 49.476562 C 79.96875 52.234375 77.726562 54.480469 74.964844 54.480469 Z M 74.964844 54.480469 "/>
<path style=" stroke:none;fill-rule:nonzero;fill:rgb(0%,0%,0%);fill-opacity:1;" d="M 23.675781 56.980469 C 19.539062 56.980469 16.171875 53.613281 16.171875 49.476562 C 16.171875 45.339844 19.539062 41.972656 23.675781 41.972656 C 27.816406 41.972656 31.179688 45.339844 31.179688 49.476562 C 31.179688 53.613281 27.816406 56.980469 23.675781 56.980469 Z M 23.675781 44.472656 C 20.917969 44.472656 18.675781 46.71875 18.675781 49.476562 C 18.675781 52.234375 20.917969 54.480469 23.675781 54.480469 C 26.433594 54.480469 28.679688 52.234375 28.679688 49.476562 C 28.679688 46.71875 26.433594 44.472656 23.675781 44.472656 Z M 23.675781 44.472656 "/>
<path style=" stroke:none;fill-rule:nonzero;fill:rgb(0%,0%,0%);fill-opacity:1;" d="M 23.675781 53.226562 C 21.609375 53.226562 19.925781 51.546875 19.925781 49.476562 C 19.925781 47.40625 21.609375 45.722656 23.675781 45.722656 C 25.746094 45.722656 27.429688 47.40625 27.429688 49.476562 C 27.429688 51.546875 25.746094 53.226562 23.675781 53.226562 Z M 23.675781 48.226562 C 22.984375 48.226562 22.425781 48.785156 22.425781 49.476562 C 22.425781 50.167969 22.984375 50.726562 23.675781 50.726562 C 24.367188 50.726562 24.925781 50.167969 24.925781 49.476562 C 24.925781 48.785156 24.367188 48.226562 23.675781 48.226562 Z M 23.675781 48.226562 "/>
<path style=" stroke:none;fill-rule:nonzero;fill:rgb(0%,0%,0%);fill-opacity:1;" d="M 41.203125 66.980469 C 40.882812 66.980469 40.5625 66.859375 40.316406 66.613281 C 39.828125 66.125 39.828125 65.335938 40.316406 64.847656 L 43.941406 61.222656 C 44.429688 60.734375 45.21875 60.734375 45.707031 61.222656 C 46.199219 61.714844 46.199219 62.503906 45.707031 62.992188 L 42.085938 66.613281 C 41.839844 66.859375 41.523438 66.980469 41.203125 66.980469 Z M 41.203125 66.980469 "/>
<path style=" stroke:none;fill-rule:nonzero;fill:rgb(0%,0%,0%);fill-opacity:1;" d="M 6.183594 66.980469 C 5.863281 66.980469 5.542969 66.859375 5.300781 66.613281 L 1.621094 62.933594 C 1.128906 62.445312 1.128906 61.65625 1.621094 61.164062 C 2.109375 60.675781 2.898438 60.675781 3.386719 61.164062 L 7.066406 64.847656 C 7.558594 65.335938 7.558594 66.125 7.066406 66.613281 C 6.824219 66.859375 6.503906 66.980469 6.183594 66.980469 Z M 6.183594 66.980469 "/>
<path style=" stroke:none;fill-rule:nonzero;fill:rgb(0%,0%,0%);fill-opacity:1;" d="M 46.203125 69.488281 L 43.703125 69.488281 C 43.011719 69.488281 42.453125 68.929688 42.453125 68.238281 C 42.453125 67.546875 43.011719 66.988281 43.703125 66.988281 L 46.203125 66.988281 C 46.894531 66.988281 47.453125 67.546875 47.453125 68.238281 C 47.453125 68.929688 46.894531 69.488281 46.203125 69.488281 Z M 46.203125 69.488281 "/>
<path style=" stroke:none;fill-rule:nonzero;fill:rgb(0%,0%,0%);fill-opacity:1;" d="M 3.679688 69.488281 L 1.25 69.488281 C 0.558594 69.488281 0 68.929688 0 68.238281 C 0 67.546875 0.558594 66.988281 1.25 66.988281 L 3.679688 66.988281 C 4.371094 66.988281 4.929688 67.546875 4.929688 68.238281 C 4.929688 68.929688 4.371094 69.488281 3.679688 69.488281 Z M 3.679688 69.488281 "/>
<path style=" stroke:none;fill-rule:nonzero;fill:rgb(0%,0%,0%);fill-opacity:1;" d="M 43.699219 46.96875 C 43.007812 46.96875 42.449219 46.410156 42.449219 45.71875 L 42.449219 8.214844 C 42.449219 7.523438 43.007812 6.964844 43.699219 6.964844 C 44.390625 6.964844 44.949219 7.523438 44.949219 8.214844 L 44.949219 45.71875 C 44.949219 46.410156 44.390625 46.96875 43.699219 46.96875 Z M 43.699219 46.96875 "/>
<path style=" stroke:none;fill-rule:nonzero;fill:rgb(0%,0%,0%);fill-opacity:1;" d="M 43.699219 9.464844 C 43.007812 9.464844 42.449219 8.90625 42.449219 8.214844 C 42.449219 5.457031 44.691406 3.214844 47.449219 3.214844 C 48.140625 3.214844 48.699219 3.773438 48.699219 4.464844 C 48.699219 5.15625 48.140625 5.714844 47.449219 5.714844 C 46.070312 5.714844 44.949219 6.835938 44.949219 8.214844 C 44.949219 8.90625 44.390625 9.464844 43.699219 9.464844 Z M 43.699219 9.464844 "/>
<path style=" stroke:none;fill-rule:nonzero;fill:rgb(0%,0%,0%);fill-opacity:1;" d="M 71.214844 46.96875 C 70.527344 46.96875 69.964844 46.410156 69.964844 45.71875 L 69.960938 8.214844 C 69.960938 7.523438 70.523438 6.964844 71.214844 6.964844 C 71.902344 6.964844 72.464844 7.523438 72.464844 8.214844 L 72.464844 45.71875 C 72.464844 46.410156 71.90625 46.96875 71.214844 46.96875 Z M 71.214844 46.96875 "/>
<path style=" stroke:none;fill-rule:nonzero;fill:rgb(0%,0%,0%);fill-opacity:1;" d="M 71.214844 9.464844 C 70.523438 9.464844 69.960938 8.90625 69.960938 8.214844 C 69.960938 5.457031 72.207031 3.214844 74.964844 3.214844 C 75.65625 3.214844 76.214844 3.773438 76.214844 4.464844 C 76.214844 5.15625 75.65625 5.714844 74.964844 5.714844 C 73.585938 5.714844 72.464844 6.835938 72.464844 8.214844 C 72.464844 8.90625 71.902344 9.464844 71.214844 9.464844 Z M 71.214844 9.464844 "/>
<path style=" stroke:none;fill-rule:nonzero;fill:rgb(0%,0%,0%);fill-opacity:1;" d="M 78.71875 9.464844 C 78.027344 9.464844 77.46875 8.90625 77.46875 8.214844 C 77.46875 6.835938 76.34375 5.714844 74.964844 5.714844 C 74.273438 5.714844 73.714844 5.15625 73.714844 4.464844 C 73.714844 3.773438 74.273438 3.214844 74.964844 3.214844 C 77.726562 3.214844 79.96875 5.457031 79.96875 8.214844 C 79.96875 8.90625 79.410156 9.464844 78.71875 9.464844 Z M 78.71875 9.464844 "/>
<path style=" stroke:none;fill-rule:nonzero;fill:rgb(0%,0%,0%);fill-opacity:1;" d="M 74.964844 5.714844 L 47.449219 5.714844 C 46.757812 5.714844 46.199219 5.15625 46.199219 4.464844 C 46.199219 3.773438 46.757812 3.214844 47.449219 3.214844 L 74.964844 3.214844 C 75.65625 3.214844 76.214844 3.773438 76.214844 4.464844 C 76.214844 5.15625 75.65625 5.714844 74.964844 5.714844 Z M 74.964844 5.714844 "/>
<path style=" stroke:none;fill-rule:nonzero;fill:rgb(0%,0%,0%);fill-opacity:1;" d="M 78.714844 13.21875 L 71.214844 13.21875 C 70.523438 13.21875 69.960938 12.660156 69.960938 11.96875 C 69.960938 11.277344 70.523438 10.71875 71.214844 10.71875 L 78.714844 10.71875 C 79.40625 10.71875 79.964844 11.277344 79.964844 11.96875 C 79.964844 12.660156 79.40625 13.21875 78.714844 13.21875 Z M 78.714844 13.21875 "/>
<path style=" stroke:none;fill-rule:nonzero;fill:rgb(0%,0%,0%);fill-opacity:1;" d="M 78.714844 13.21875 C 78.023438 13.21875 77.464844 12.660156 77.464844 11.96875 L 77.464844 8.214844 C 77.464844 7.523438 78.023438 6.964844 78.714844 6.964844 C 79.40625 6.964844 79.964844 7.523438 79.964844 8.214844 L 79.964844 11.96875 C 79.964844 12.660156 79.40625 13.21875 78.714844 13.21875 Z M 78.714844 13.21875 "/>
<path style=" stroke:none;fill-rule:nonzero;fill:rgb(0%,0%,0%);fill-opacity:1;" d="M 64.960938 31.976562 L 49.957031 31.976562 C 49.265625 31.976562 48.703125 31.417969 48.703125 30.726562 C 48.703125 30.035156 49.265625 29.476562 49.957031 29.476562 L 64.960938 29.476562 C 65.652344 29.476562 66.210938 30.035156 66.210938 30.726562 C 66.210938 31.417969 65.652344 31.976562 64.960938 31.976562 Z M 64.960938 31.976562 "/>
<path style=" stroke:none;fill-rule:nonzero;fill:rgb(0%,0%,0%);fill-opacity:1;" d="M 64.960938 35.722656 L 49.957031 35.722656 C 49.265625 35.722656 48.703125 35.164062 48.703125 34.472656 C 48.703125 33.78125 49.265625 33.222656 49.957031 33.222656 L 64.960938 33.222656 C 65.652344 33.222656 66.210938 33.78125 66.210938 34.472656 C 66.210938 35.164062 65.652344 35.722656 64.960938 35.722656 Z M 64.960938 35.722656 "/>
<path style=" stroke:none;fill-rule:nonzero;fill:rgb(0%,0%,0%);fill-opacity:1;" d="M 61.203125 39.464844 L 53.710938 39.464844 C 53.019531 39.464844 52.460938 38.90625 52.460938 38.214844 C 52.460938 37.523438 53.019531 36.964844 53.710938 36.964844 L 61.203125 36.964844 C 61.894531 36.964844 62.457031 37.523438 62.457031 38.214844 C 62.457031 38.90625 61.894531 39.464844 61.203125 39.464844 Z M 61.203125 39.464844 "/>
</g>
</svg>
