<?xml version="1.0" encoding="UTF-8"?>
<svg xmlns="http://www.w3.org/2000/svg" xmlns:xlink="http://www.w3.org/1999/xlink" width="80pt" height="80pt" viewBox="0 0 80 80" version="1.1">
<g id="surface1">
<path style=" stroke:none;fill-rule:nonzero;fill:rgb(0%,0%,0%);fill-opacity:1;" d="M 4.980469 68.894531 C 4.289062 68.894531 3.730469 68.332031 3.730469 67.644531 L 3.730469 41.382812 C 3.730469 40.691406 4.289062 40.132812 4.980469 40.132812 C 5.671875 40.132812 6.230469 40.691406 6.230469 41.382812 L 6.230469 67.644531 C 6.230469 68.332031 5.671875 68.894531 4.980469 68.894531 Z M 4.980469 68.894531 "/>
<path style=" stroke:none;fill-rule:nonzero;fill:rgb(0%,0%,0%);fill-opacity:1;" d="M 53.707031 72.621094 L 8.730469 72.621094 C 8.039062 72.621094 7.480469 72.0625 7.480469 71.371094 C 7.480469 70.679688 8.039062 70.121094 8.730469 70.121094 L 53.707031 70.121094 C 54.398438 70.121094 54.957031 70.679688 54.957031 71.371094 C 54.957031 72.0625 54.398438 72.621094 53.707031 72.621094 Z M 53.707031 72.621094 "/>
<path style=" stroke:none;fill-rule:nonzero;fill:rgb(0%,0%,0%);fill-opacity:1;" d="M 43.726562 10.148438 L 24.980469 10.148438 C 24.289062 10.148438 23.730469 9.589844 23.730469 8.898438 C 23.730469 8.207031 24.289062 7.648438 24.980469 7.648438 L 43.726562 7.648438 C 44.417969 7.648438 44.976562 8.207031 44.976562 8.898438 C 44.976562 9.589844 44.417969 10.148438 43.726562 10.148438 Z M 43.726562 10.148438 "/>
<path style=" stroke:none;fill-rule:nonzero;fill:rgb(0%,0%,0%);fill-opacity:1;" d="M 23.730469 11.398438 C 23.042969 11.398438 22.484375 10.839844 22.484375 10.148438 C 22.484375 8.769531 23.605469 7.648438 24.980469 7.648438 C 25.671875 7.648438 26.230469 8.207031 26.230469 8.898438 C 26.230469 9.589844 25.671875 10.148438 24.980469 10.148438 C 24.980469 10.839844 24.421875 11.398438 23.730469 11.398438 Z M 23.730469 11.398438 "/>
<path style=" stroke:none;fill-rule:nonzero;fill:rgb(0%,0%,0%);fill-opacity:1;" d="M 44.976562 11.398438 C 44.285156 11.398438 43.726562 10.839844 43.726562 10.148438 L 43.726562 10.144531 C 43.035156 10.144531 42.476562 9.589844 42.476562 8.898438 C 42.476562 8.207031 43.035156 7.648438 43.726562 7.648438 C 45.105469 7.648438 46.226562 8.769531 46.226562 10.148438 C 46.226562 10.839844 45.667969 11.398438 44.976562 11.398438 Z M 44.976562 11.398438 "/>
<path style=" stroke:none;fill-rule:nonzero;fill:rgb(0%,0%,0%);fill-opacity:1;" d="M 44.976562 15.144531 C 44.285156 15.144531 43.726562 14.589844 43.726562 13.898438 L 43.726562 10.148438 C 43.726562 9.457031 44.285156 8.898438 44.976562 8.898438 C 45.667969 8.898438 46.226562 9.457031 46.226562 10.148438 L 46.226562 13.898438 C 46.226562 14.589844 45.667969 15.144531 44.976562 15.144531 Z M 44.976562 15.144531 "/>
<path style=" stroke:none;fill-rule:nonzero;fill:rgb(0%,0%,0%);fill-opacity:1;" d="M 23.730469 15.144531 C 23.042969 15.144531 22.484375 14.589844 22.484375 13.898438 L 22.484375 10.148438 C 22.484375 9.457031 23.042969 8.898438 23.730469 8.898438 C 24.421875 8.898438 24.980469 9.457031 24.980469 10.148438 L 24.980469 13.898438 C 24.980469 14.589844 24.421875 15.144531 23.730469 15.144531 Z M 23.730469 15.144531 "/>
<path style=" stroke:none;fill-rule:nonzero;fill:rgb(0%,0%,0%);fill-opacity:1;" d="M 44.976562 15.144531 L 23.730469 15.144531 C 23.042969 15.144531 22.484375 14.589844 22.484375 13.898438 C 22.484375 13.207031 23.042969 12.648438 23.730469 12.648438 L 44.976562 12.648438 C 45.667969 12.648438 46.226562 13.207031 46.226562 13.898438 C 46.226562 14.589844 45.667969 15.144531 44.976562 15.144531 Z M 44.976562 15.144531 "/>
<path style=" stroke:none;fill-rule:nonzero;fill:rgb(0%,0%,0%);fill-opacity:1;" d="M 44.976562 20.144531 C 44.285156 20.144531 43.726562 19.585938 43.726562 18.894531 L 43.726562 13.898438 C 43.726562 13.207031 44.285156 12.648438 44.976562 12.648438 C 45.667969 12.648438 46.226562 13.207031 46.226562 13.898438 L 46.226562 18.894531 C 46.226562 19.585938 45.667969 20.144531 44.976562 20.144531 Z M 44.976562 20.144531 "/>
<path style=" stroke:none;fill-rule:nonzero;fill:rgb(0%,0%,0%);fill-opacity:1;" d="M 39.976562 20.144531 C 39.285156 20.144531 38.726562 19.585938 38.726562 18.894531 L 38.726562 13.898438 C 38.726562 13.207031 39.285156 12.648438 39.976562 12.648438 C 40.667969 12.648438 41.226562 13.207031 41.226562 13.898438 L 41.226562 18.894531 C 41.226562 19.585938 40.667969 20.144531 39.976562 20.144531 Z M 39.976562 20.144531 "/>
<path style=" stroke:none;fill-rule:nonzero;fill:rgb(0%,0%,0%);fill-opacity:1;" d="M 28.730469 20.144531 C 28.039062 20.144531 27.480469 19.585938 27.480469 18.894531 L 27.480469 13.898438 C 27.480469 13.207031 28.039062 12.648438 28.730469 12.648438 C 29.421875 12.648438 29.980469 13.207031 29.980469 13.898438 L 29.980469 18.894531 C 29.980469 19.585938 29.421875 20.144531 28.730469 20.144531 Z M 28.730469 20.144531 "/>
<path style=" stroke:none;fill-rule:nonzero;fill:rgb(0%,0%,0%);fill-opacity:1;" d="M 23.730469 20.144531 C 23.042969 20.144531 22.484375 19.585938 22.484375 18.894531 L 22.484375 13.898438 C 22.484375 13.207031 23.042969 12.648438 23.730469 12.648438 C 24.421875 12.648438 24.980469 13.207031 24.980469 13.898438 L 24.980469 18.894531 C 24.980469 19.585938 24.421875 20.144531 23.730469 20.144531 Z M 23.730469 20.144531 "/>
<path style=" stroke:none;fill-rule:nonzero;fill:rgb(0%,0%,0%);fill-opacity:1;" d="M 58.710938 16.394531 L 49.964844 16.394531 C 49.273438 16.394531 48.714844 15.835938 48.714844 15.144531 C 48.714844 14.457031 49.273438 13.898438 49.964844 13.898438 L 58.710938 13.898438 C 59.402344 13.898438 59.960938 14.457031 59.960938 15.144531 C 59.960938 15.835938 59.402344 16.394531 58.710938 16.394531 Z M 58.710938 16.394531 "/>
<path style=" stroke:none;fill-rule:nonzero;fill:rgb(0%,0%,0%);fill-opacity:1;" d="M 49.964844 20.144531 C 49.273438 20.144531 48.714844 19.585938 48.714844 18.894531 L 48.714844 15.144531 C 48.714844 14.457031 49.273438 13.898438 49.964844 13.898438 C 50.65625 13.898438 51.214844 14.457031 51.214844 15.144531 L 51.214844 18.894531 C 51.214844 19.585938 50.65625 20.144531 49.964844 20.144531 Z M 49.964844 20.144531 "/>
<path style=" stroke:none;fill-rule:nonzero;fill:rgb(0%,0%,0%);fill-opacity:1;" d="M 18.742188 16.394531 L 9.996094 16.394531 C 9.304688 16.394531 8.746094 15.835938 8.746094 15.144531 C 8.746094 14.457031 9.304688 13.898438 9.996094 13.898438 L 18.742188 13.898438 C 19.433594 13.898438 19.992188 14.457031 19.992188 15.144531 C 19.992188 15.835938 19.433594 16.394531 18.742188 16.394531 Z M 18.742188 16.394531 "/>
<path style=" stroke:none;fill-rule:nonzero;fill:rgb(0%,0%,0%);fill-opacity:1;" d="M 9.996094 20.144531 C 9.304688 20.144531 8.746094 19.585938 8.746094 18.894531 L 8.746094 15.144531 C 8.746094 14.457031 9.304688 13.898438 9.996094 13.898438 C 10.6875 13.898438 11.246094 14.457031 11.246094 15.144531 L 11.246094 18.894531 C 11.246094 19.585938 10.6875 20.144531 9.996094 20.144531 Z M 9.996094 20.144531 "/>
<path style=" stroke:none;fill-rule:nonzero;fill:rgb(0%,0%,0%);fill-opacity:1;" d="M 18.753906 20.144531 C 18.0625 20.144531 17.503906 19.585938 17.503906 18.894531 L 17.503906 15.144531 C 17.503906 14.457031 18.0625 13.898438 18.753906 13.898438 C 19.445312 13.898438 20.003906 14.457031 20.003906 15.144531 L 20.003906 18.894531 C 20.003906 19.585938 19.445312 20.144531 18.753906 20.144531 Z M 18.753906 20.144531 "/>
<path style=" stroke:none;fill-rule:nonzero;fill:rgb(0%,0%,0%);fill-opacity:1;" d="M 38.726562 50.132812 L 29.980469 50.132812 C 29.289062 50.132812 28.730469 49.570312 28.730469 48.882812 L 28.730469 33.886719 C 28.730469 33.195312 29.289062 32.636719 29.980469 32.636719 L 38.726562 32.636719 C 39.417969 32.636719 39.976562 33.195312 39.976562 33.886719 L 39.976562 48.882812 C 39.976562 49.570312 39.417969 50.132812 38.726562 50.132812 Z M 31.230469 47.632812 L 37.476562 47.632812 L 37.476562 35.136719 L 31.230469 35.136719 Z M 31.230469 47.632812 "/>
<path style=" stroke:none;fill-rule:nonzero;fill:rgb(0%,0%,0%);fill-opacity:1;" d="M 34.355469 45.132812 C 33.664062 45.132812 33.105469 44.574219 33.105469 43.882812 L 33.105469 38.886719 C 33.105469 38.195312 33.664062 37.636719 34.355469 37.636719 C 35.042969 37.636719 35.601562 38.195312 35.601562 38.886719 L 35.601562 43.882812 C 35.601562 44.574219 35.042969 45.132812 34.355469 45.132812 Z M 34.355469 45.132812 "/>
<path style=" stroke:none;fill-rule:nonzero;fill:rgb(0%,0%,0%);fill-opacity:1;" d="M 67.457031 42.632812 C 66.765625 42.632812 66.207031 42.074219 66.207031 41.382812 L 66.207031 25.144531 C 66.207031 24.453125 66.765625 23.894531 67.457031 23.894531 C 68.148438 23.894531 68.707031 24.453125 68.707031 25.144531 L 68.707031 41.382812 C 68.707031 42.074219 68.148438 42.632812 67.457031 42.632812 Z M 67.457031 42.632812 "/>
<path style=" stroke:none;fill-rule:nonzero;fill:rgb(0%,0%,0%);fill-opacity:1;" d="M 67.457031 42.632812 L 38.703125 42.632812 C 38.011719 42.632812 37.453125 42.074219 37.453125 41.382812 C 37.453125 40.691406 38.011719 40.132812 38.703125 40.132812 L 67.457031 40.132812 C 68.148438 40.132812 68.707031 40.691406 68.707031 41.382812 C 68.707031 42.074219 68.148438 42.632812 67.457031 42.632812 Z M 67.457031 42.632812 "/>
<path style=" stroke:none;fill-rule:nonzero;fill:rgb(0%,0%,0%);fill-opacity:1;" d="M 58.710938 20.144531 C 58.019531 20.144531 57.460938 19.585938 57.460938 18.894531 L 57.460938 15.144531 C 57.460938 14.457031 58.019531 13.898438 58.710938 13.898438 C 59.402344 13.898438 59.960938 14.457031 59.960938 15.144531 L 59.960938 18.894531 C 59.960938 19.585938 59.402344 20.144531 58.710938 20.144531 Z M 58.710938 20.144531 "/>
<path style=" stroke:none;fill-rule:nonzero;fill:rgb(0%,0%,0%);fill-opacity:1;" d="M 67.457031 26.394531 C 66.765625 26.394531 66.207031 25.835938 66.207031 25.144531 C 66.207031 22.386719 63.964844 20.144531 61.210938 20.144531 C 60.519531 20.144531 59.960938 19.585938 59.960938 18.894531 C 59.960938 18.203125 60.519531 17.644531 61.210938 17.644531 C 65.34375 17.644531 68.707031 21.007812 68.707031 25.144531 C 68.707031 25.835938 68.148438 26.394531 67.457031 26.394531 Z M 67.457031 26.394531 "/>
<path style=" stroke:none;fill-rule:nonzero;fill:rgb(0%,0%,0%);fill-opacity:1;" d="M 1.25 42.632812 C 0.558594 42.632812 0 42.074219 0 41.382812 L 0 25.144531 C 0 24.453125 0.558594 23.894531 1.25 23.894531 C 1.941406 23.894531 2.5 24.453125 2.5 25.144531 L 2.5 41.382812 C 2.5 42.074219 1.941406 42.632812 1.25 42.632812 Z M 1.25 42.632812 "/>
<path style=" stroke:none;fill-rule:nonzero;fill:rgb(0%,0%,0%);fill-opacity:1;" d="M 30.003906 42.632812 L 1.25 42.632812 C 0.558594 42.632812 0 42.074219 0 41.382812 C 0 40.691406 0.558594 40.132812 1.25 40.132812 L 30.003906 40.132812 C 30.695312 40.132812 31.253906 40.691406 31.253906 41.382812 C 31.253906 42.074219 30.695312 42.632812 30.003906 42.632812 Z M 30.003906 42.632812 "/>
<path style=" stroke:none;fill-rule:nonzero;fill:rgb(0%,0%,0%);fill-opacity:1;" d="M 1.25 26.394531 C 0.558594 26.394531 0 25.835938 0 25.144531 C 0 21.007812 3.363281 17.644531 7.496094 17.644531 C 8.1875 17.644531 8.746094 18.203125 8.746094 18.894531 C 8.746094 19.585938 8.1875 20.144531 7.496094 20.144531 C 4.742188 20.144531 2.5 22.386719 2.5 25.144531 C 2.5 25.835938 1.941406 26.394531 1.25 26.394531 Z M 1.25 26.394531 "/>
<path style=" stroke:none;fill-rule:nonzero;fill:rgb(0%,0%,0%);fill-opacity:1;" d="M 8.730469 72.621094 C 5.972656 72.621094 3.730469 70.378906 3.730469 67.621094 C 3.730469 66.929688 4.289062 66.371094 4.980469 66.371094 C 5.671875 66.371094 6.230469 66.929688 6.230469 67.621094 C 6.230469 69 7.351562 70.121094 8.730469 70.121094 C 9.421875 70.121094 9.980469 70.679688 9.980469 71.371094 C 9.980469 72.0625 9.421875 72.621094 8.730469 72.621094 Z M 8.730469 72.621094 "/>
<path style=" stroke:none;fill-rule:nonzero;fill:rgb(0%,0%,0%);fill-opacity:1;" d="M 61.210938 20.144531 L 7.496094 20.144531 C 6.804688 20.144531 6.246094 19.585938 6.246094 18.894531 C 6.246094 18.203125 6.804688 17.644531 7.496094 17.644531 L 61.210938 17.644531 C 61.902344 17.644531 62.460938 18.203125 62.460938 18.894531 C 62.460938 19.585938 61.902344 20.144531 61.210938 20.144531 Z M 61.210938 20.144531 "/>
<path style=" stroke:none;fill-rule:nonzero;fill:rgb(0%,0%,0%);fill-opacity:1;" d="M 74.96875 50.117188 L 54.980469 50.117188 C 54.289062 50.117188 53.730469 49.558594 53.730469 48.867188 C 53.730469 48.179688 54.289062 47.621094 54.980469 47.621094 L 74.96875 47.621094 C 75.660156 47.621094 76.21875 48.179688 76.21875 48.867188 C 76.21875 49.558594 75.660156 50.117188 74.96875 50.117188 Z M 74.96875 50.117188 "/>
<path style=" stroke:none;fill-rule:nonzero;fill:rgb(0%,0%,0%);fill-opacity:1;" d="M 64.976562 72.613281 C 64.285156 72.613281 63.726562 72.054688 63.726562 71.367188 L 63.726562 45.121094 C 63.726562 44.429688 64.285156 43.871094 64.976562 43.871094 C 65.667969 43.871094 66.226562 44.429688 66.226562 45.121094 L 66.226562 71.367188 C 66.226562 72.054688 65.667969 72.613281 64.976562 72.613281 Z M 64.976562 72.613281 "/>
<path style=" stroke:none;fill-rule:nonzero;fill:rgb(0%,0%,0%);fill-opacity:1;" d="M 72.472656 72.613281 L 57.480469 72.613281 C 56.789062 72.613281 56.230469 72.054688 56.230469 71.367188 C 56.230469 70.675781 56.789062 70.117188 57.480469 70.117188 L 72.472656 70.117188 C 73.160156 70.117188 73.722656 70.675781 73.722656 71.367188 C 73.722656 72.054688 73.160156 72.613281 72.472656 72.613281 Z M 72.472656 72.613281 "/>
<path style=" stroke:none;fill-rule:nonzero;fill:rgb(0%,0%,0%);fill-opacity:1;" d="M 54.980469 66.367188 C 52.226562 66.367188 49.984375 64.125 49.984375 61.367188 C 49.984375 60.675781 50.542969 60.117188 51.234375 60.117188 C 51.925781 60.117188 52.484375 60.675781 52.484375 61.367188 C 52.484375 62.746094 53.601562 63.867188 54.980469 63.867188 C 56.359375 63.867188 57.480469 62.746094 57.480469 61.367188 C 57.480469 60.675781 58.039062 60.117188 58.730469 60.117188 C 59.421875 60.117188 59.980469 60.675781 59.980469 61.367188 C 59.980469 64.125 57.738281 66.367188 54.980469 66.367188 Z M 54.980469 66.367188 "/>
<path style=" stroke:none;fill-rule:nonzero;fill:rgb(0%,0%,0%);fill-opacity:1;" d="M 58.730469 62.617188 L 51.234375 62.617188 C 50.542969 62.617188 49.984375 62.058594 49.984375 61.367188 C 49.984375 60.675781 50.542969 60.117188 51.234375 60.117188 L 58.730469 60.117188 C 59.421875 60.117188 59.980469 60.675781 59.980469 61.367188 C 59.980469 62.058594 59.421875 62.617188 58.730469 62.617188 Z M 58.730469 62.617188 "/>
<path style=" stroke:none;fill-rule:nonzero;fill:rgb(0%,0%,0%);fill-opacity:1;" d="M 51.234375 62.617188 C 51.113281 62.617188 50.996094 62.597656 50.875 62.566406 C 50.214844 62.367188 49.839844 61.667969 50.035156 61.007812 L 53.785156 48.511719 C 53.980469 47.847656 54.675781 47.476562 55.339844 47.671875 C 56 47.871094 56.375 48.566406 56.179688 49.226562 L 52.429688 61.726562 C 52.269531 62.269531 51.773438 62.617188 51.234375 62.617188 Z M 51.234375 62.617188 "/>
<path style=" stroke:none;fill-rule:nonzero;fill:rgb(0%,0%,0%);fill-opacity:1;" d="M 58.730469 62.617188 C 58.191406 62.617188 57.695312 62.269531 57.535156 61.726562 L 53.785156 49.226562 C 53.585938 48.566406 53.960938 47.871094 54.621094 47.671875 C 55.285156 47.476562 55.980469 47.847656 56.179688 48.511719 L 59.925781 61.007812 C 60.125 61.667969 59.75 62.367188 59.089844 62.566406 C 58.96875 62.601562 58.847656 62.617188 58.730469 62.617188 Z M 58.730469 62.617188 "/>
<path style=" stroke:none;fill-rule:nonzero;fill:rgb(0%,0%,0%);fill-opacity:1;" d="M 74.96875 66.367188 C 72.214844 66.367188 69.972656 64.125 69.972656 61.367188 C 69.972656 60.675781 70.53125 60.117188 71.222656 60.117188 C 71.914062 60.117188 72.472656 60.675781 72.472656 61.367188 C 72.472656 62.746094 73.59375 63.867188 74.96875 63.867188 C 76.347656 63.867188 77.46875 62.746094 77.46875 61.367188 C 77.46875 60.675781 78.027344 60.117188 78.71875 60.117188 C 79.410156 60.117188 79.96875 60.675781 79.96875 61.367188 C 79.96875 64.125 77.726562 66.367188 74.96875 66.367188 Z M 74.96875 66.367188 "/>
<path style=" stroke:none;fill-rule:nonzero;fill:rgb(0%,0%,0%);fill-opacity:1;" d="M 78.71875 62.617188 L 71.222656 62.617188 C 70.53125 62.617188 69.972656 62.058594 69.972656 61.367188 C 69.972656 60.675781 70.53125 60.117188 71.222656 60.117188 L 78.71875 60.117188 C 79.410156 60.117188 79.96875 60.675781 79.96875 61.367188 C 79.96875 62.058594 79.410156 62.617188 78.71875 62.617188 Z M 78.71875 62.617188 "/>
<path style=" stroke:none;fill-rule:nonzero;fill:rgb(0%,0%,0%);fill-opacity:1;" d="M 71.222656 62.617188 C 71.101562 62.617188 70.984375 62.597656 70.863281 62.566406 C 70.203125 62.367188 69.828125 61.667969 70.023438 61.007812 L 73.773438 48.511719 C 73.96875 47.847656 74.667969 47.476562 75.328125 47.671875 C 75.988281 47.871094 76.363281 48.566406 76.167969 49.226562 L 72.417969 61.726562 C 72.257812 62.269531 71.757812 62.617188 71.222656 62.617188 Z M 71.222656 62.617188 "/>
<path style=" stroke:none;fill-rule:nonzero;fill:rgb(0%,0%,0%);fill-opacity:1;" d="M 78.71875 62.617188 C 78.179688 62.617188 77.683594 62.269531 77.523438 61.726562 L 73.773438 49.226562 C 73.574219 48.566406 73.949219 47.871094 74.613281 47.671875 C 75.273438 47.476562 75.96875 47.847656 76.167969 48.511719 L 79.917969 61.007812 C 80.113281 61.667969 79.738281 62.367188 79.078125 62.566406 C 78.957031 62.601562 78.835938 62.617188 78.71875 62.617188 Z M 78.71875 62.617188 "/>
</g>
</svg>
