<?xml version="1.0" encoding="UTF-8"?>
<svg xmlns="http://www.w3.org/2000/svg" xmlns:xlink="http://www.w3.org/1999/xlink" width="80pt" height="80pt" viewBox="0 0 80 80" version="1.1">
<g id="surface1">
<path style=" stroke:none;fill-rule:nonzero;fill:rgb(0%,0%,0%);fill-opacity:1;" d="M 63.765625 25.628906 C 59.210938 25.628906 55.066406 23.050781 52.671875 18.734375 C 52.464844 18.359375 52.464844 17.898438 52.671875 17.523438 C 55.0625 13.207031 59.210938 10.628906 63.765625 10.628906 C 68.320312 10.628906 72.464844 13.207031 74.859375 17.523438 C 75.066406 17.898438 75.066406 18.359375 74.855469 18.734375 C 72.464844 23.050781 68.316406 25.628906 63.765625 25.628906 Z M 55.214844 18.128906 C 57.199219 21.273438 60.347656 23.128906 63.765625 23.128906 C 67.179688 23.128906 70.332031 21.273438 72.3125 18.128906 C 70.332031 14.984375 67.183594 13.128906 63.765625 13.128906 C 60.347656 13.128906 57.195312 14.984375 55.214844 18.128906 Z M 55.214844 18.128906 "/>
<path style=" stroke:none;fill-rule:nonzero;fill:rgb(0%,0%,0%);fill-opacity:1;" d="M 63.765625 23.109375 C 61.007812 23.109375 58.765625 20.867188 58.765625 18.109375 C 58.765625 15.351562 61.007812 13.109375 63.765625 13.109375 C 66.519531 13.109375 68.761719 15.351562 68.761719 18.109375 C 68.761719 20.867188 66.519531 23.109375 63.765625 23.109375 Z M 63.765625 15.609375 C 62.386719 15.609375 61.265625 16.730469 61.265625 18.109375 C 61.265625 19.488281 62.386719 20.609375 63.765625 20.609375 C 65.140625 20.609375 66.261719 19.488281 66.261719 18.109375 C 66.261719 16.730469 65.140625 15.609375 63.765625 15.609375 Z M 63.765625 15.609375 "/>
<path style=" stroke:none;fill-rule:nonzero;fill:rgb(0%,0%,0%);fill-opacity:1;" d="M 46.246094 68.125 C 45.554688 68.125 44.996094 67.566406 44.996094 66.875 C 44.996094 62.738281 41.632812 59.375 37.496094 59.375 C 36.804688 59.375 36.246094 58.816406 36.246094 58.125 C 36.246094 57.433594 36.804688 56.875 37.496094 56.875 C 43.011719 56.875 47.496094 61.359375 47.496094 66.875 C 47.496094 67.566406 46.9375 68.125 46.246094 68.125 Z M 46.246094 68.125 "/>
<path style=" stroke:none;fill-rule:nonzero;fill:rgb(0%,0%,0%);fill-opacity:1;" d="M 37.496094 59.375 L 31.25 59.371094 C 30.554688 59.371094 30 58.8125 30 58.121094 C 30 57.429688 30.558594 56.871094 31.25 56.871094 L 37.496094 56.875 C 38.1875 56.875 38.746094 57.433594 38.746094 58.125 C 38.746094 58.816406 38.1875 59.375 37.496094 59.375 Z M 37.496094 59.375 "/>
<path style=" stroke:none;fill-rule:nonzero;fill:rgb(0%,0%,0%);fill-opacity:1;" d="M 2.5 76.871094 C 1.121094 76.871094 0 75.75 0 74.371094 C 0 73.679688 0.558594 73.121094 1.25 73.121094 C 1.941406 73.121094 2.5 73.679688 2.5 74.371094 L 2.5 74.375 C 3.191406 74.375 3.75 74.933594 3.75 75.625 C 3.75 76.3125 3.191406 76.871094 2.5 76.871094 Z M 2.5 76.871094 "/>
<path style=" stroke:none;fill-rule:nonzero;fill:rgb(0%,0%,0%);fill-opacity:1;" d="M 44.996094 76.871094 C 44.304688 76.871094 43.746094 76.3125 43.746094 75.621094 C 43.746094 74.929688 44.304688 74.371094 44.996094 74.371094 L 45 74.371094 C 45 73.679688 45.558594 73.121094 46.25 73.121094 C 46.9375 73.121094 47.496094 73.679688 47.496094 74.371094 C 47.496094 75.75 46.375 76.871094 44.996094 76.871094 Z M 44.996094 76.871094 "/>
<path style=" stroke:none;fill-rule:nonzero;fill:rgb(0%,0%,0%);fill-opacity:1;" d="M 46.246094 75.621094 C 45.554688 75.621094 44.996094 75.0625 44.996094 74.371094 L 44.996094 66.875 C 44.996094 66.183594 45.554688 65.625 46.246094 65.625 C 46.9375 65.625 47.496094 66.183594 47.496094 66.875 L 47.496094 74.371094 C 47.496094 75.0625 46.9375 75.621094 46.246094 75.621094 Z M 46.246094 75.621094 "/>
<path style=" stroke:none;fill-rule:nonzero;fill:rgb(0%,0%,0%);fill-opacity:1;" d="M 1.25 68.121094 C 0.558594 68.121094 0 67.5625 0 66.871094 C 0 61.355469 4.484375 56.871094 10 56.871094 C 10.691406 56.871094 11.25 57.429688 11.25 58.121094 C 11.25 58.8125 10.691406 59.371094 10 59.371094 C 5.863281 59.371094 2.5 62.734375 2.5 66.871094 C 2.5 67.5625 1.941406 68.121094 1.25 68.121094 Z M 1.25 68.121094 "/>
<path style=" stroke:none;fill-rule:nonzero;fill:rgb(0%,0%,0%);fill-opacity:1;" d="M 10 59.375 C 9.308594 59.375 8.75 58.816406 8.75 58.125 C 8.75 57.433594 9.308594 56.875 10 56.875 L 16.25 56.871094 C 16.9375 56.871094 17.5 57.429688 17.5 58.121094 C 17.5 58.8125 16.941406 59.371094 16.25 59.371094 Z M 10 59.375 "/>
<path style=" stroke:none;fill-rule:nonzero;fill:rgb(0%,0%,0%);fill-opacity:1;" d="M 1.25 75.621094 C 0.558594 75.621094 0 75.0625 0 74.371094 L 0 66.871094 C 0 66.179688 0.558594 65.621094 1.25 65.621094 C 1.941406 65.621094 2.5 66.179688 2.5 66.871094 L 2.5 74.371094 C 2.5 75.0625 1.941406 75.621094 1.25 75.621094 Z M 1.25 75.621094 "/>
<path style=" stroke:none;fill-rule:nonzero;fill:rgb(0%,0%,0%);fill-opacity:1;" d="M 44.996094 76.871094 L 2.5 76.871094 C 1.808594 76.871094 1.25 76.3125 1.25 75.621094 C 1.25 74.929688 1.808594 74.371094 2.5 74.371094 L 44.996094 74.371094 C 45.6875 74.371094 46.246094 74.929688 46.246094 75.621094 C 46.246094 76.3125 45.6875 76.871094 44.996094 76.871094 Z M 44.996094 76.871094 "/>
<path style=" stroke:none;fill-rule:nonzero;fill:rgb(0%,0%,0%);fill-opacity:1;" d="M 16.25 59.371094 C 15.558594 59.371094 15 58.8125 15 58.121094 L 15 52.542969 C 15 51.851562 15.558594 51.292969 16.25 51.292969 C 16.941406 51.292969 17.5 51.851562 17.5 52.542969 L 17.5 58.121094 C 17.5 58.8125 16.941406 59.371094 16.25 59.371094 Z M 16.25 59.371094 "/>
<path style=" stroke:none;fill-rule:nonzero;fill:rgb(0%,0%,0%);fill-opacity:1;" d="M 31.25 59.367188 C 30.554688 59.367188 30 58.808594 30 58.117188 L 30 52.542969 C 30 51.851562 30.554688 51.292969 31.25 51.292969 C 31.941406 51.292969 32.496094 51.851562 32.496094 52.542969 L 32.496094 58.117188 C 32.496094 58.808594 31.941406 59.367188 31.25 59.367188 Z M 31.25 59.367188 "/>
<path style=" stroke:none;fill-rule:nonzero;fill:rgb(0%,0%,0%);fill-opacity:1;" d="M 23.75 55.625 C 14.097656 55.625 6.25 47.773438 6.25 38.125 C 6.25 37.433594 6.808594 36.875 7.5 36.875 C 8.191406 36.875 8.75 37.433594 8.75 38.125 C 8.75 46.394531 15.476562 53.125 23.75 53.125 C 32.019531 53.125 38.746094 46.394531 38.746094 38.125 C 38.746094 37.433594 39.304688 36.875 39.996094 36.875 C 40.6875 36.875 41.246094 37.433594 41.246094 38.125 C 41.246094 47.773438 33.398438 55.625 23.75 55.625 Z M 23.75 55.625 "/>
<path style=" stroke:none;fill-rule:nonzero;fill:rgb(0%,0%,0%);fill-opacity:1;" d="M 7.5 39.375 C 6.808594 39.375 6.25 38.816406 6.25 38.125 L 6.25 26.875 C 6.25 26.183594 6.808594 25.625 7.5 25.625 C 8.191406 25.625 8.75 26.183594 8.75 26.875 L 8.75 38.125 C 8.75 38.816406 8.191406 39.375 7.5 39.375 Z M 7.5 39.375 "/>
<path style=" stroke:none;fill-rule:nonzero;fill:rgb(0%,0%,0%);fill-opacity:1;" d="M 39.996094 39.375 C 39.304688 39.375 38.746094 38.816406 38.746094 38.125 L 38.746094 24.375 C 38.746094 23.683594 39.304688 23.125 39.996094 23.125 C 40.6875 23.125 41.246094 23.683594 41.246094 24.375 L 41.246094 38.125 C 41.246094 38.816406 40.6875 39.375 39.996094 39.375 Z M 39.996094 39.375 "/>
<path style=" stroke:none;fill-rule:nonzero;fill:rgb(0%,0%,0%);fill-opacity:1;" d="M 39.996094 25.625 C 39.304688 25.625 38.746094 25.066406 38.746094 24.375 C 38.746094 20.929688 35.945312 18.125 32.496094 18.125 C 31.804688 18.125 31.25 17.566406 31.25 16.875 C 31.25 16.183594 31.804688 15.625 32.496094 15.625 C 37.320312 15.625 41.246094 19.550781 41.246094 24.375 C 41.246094 25.066406 40.6875 25.625 39.996094 25.625 Z M 39.996094 25.625 "/>
<path style=" stroke:none;fill-rule:nonzero;fill:rgb(0%,0%,0%);fill-opacity:1;" d="M 32.496094 18.125 C 31.804688 18.125 31.25 17.566406 31.25 16.875 L 31.25 11.875 C 31.25 11.183594 31.804688 10.625 32.496094 10.625 C 33.191406 10.625 33.746094 11.183594 33.746094 11.875 L 33.746094 16.875 C 33.746094 17.566406 33.191406 18.125 32.496094 18.125 Z M 32.496094 18.125 "/>
<path style=" stroke:none;fill-rule:nonzero;fill:rgb(0%,0%,0%);fill-opacity:1;" d="M 32.496094 13.125 L 22.5 13.125 C 21.808594 13.125 21.25 12.566406 21.25 11.875 C 21.25 11.183594 21.808594 10.625 22.5 10.625 L 32.496094 10.625 C 33.191406 10.625 33.746094 11.183594 33.746094 11.875 C 33.746094 12.566406 33.191406 13.125 32.496094 13.125 Z M 32.496094 13.125 "/>
<path style=" stroke:none;fill-rule:nonzero;fill:rgb(0%,0%,0%);fill-opacity:1;" d="M 7.496094 28.125 C 6.804688 28.125 6.246094 27.566406 6.246094 26.875 C 6.246094 17.917969 13.539062 10.625 22.5 10.625 C 23.191406 10.625 23.75 11.183594 23.75 11.875 C 23.75 12.566406 23.191406 13.125 22.5 13.125 C 14.917969 13.125 8.746094 19.296875 8.746094 26.875 C 8.746094 27.566406 8.1875 28.125 7.496094 28.125 Z M 7.496094 28.125 "/>
<path style=" stroke:none;fill-rule:nonzero;fill:rgb(0%,0%,0%);fill-opacity:1;" d="M 39.996094 34.375 C 39.675781 34.375 39.355469 34.253906 39.113281 34.007812 L 35.363281 30.257812 C 34.875 29.769531 34.875 28.980469 35.363281 28.492188 C 35.851562 28.003906 36.644531 28.003906 37.132812 28.492188 L 40.882812 32.242188 C 41.371094 32.730469 41.371094 33.519531 40.882812 34.007812 C 40.636719 34.253906 40.316406 34.375 39.996094 34.375 Z M 39.996094 34.375 "/>
<path style=" stroke:none;fill-rule:nonzero;fill:rgb(0%,0%,0%);fill-opacity:1;" d="M 23.75 33.125 C 16.78125 33.125 10.992188 30.625 10.75 30.519531 C 10.117188 30.242188 9.828125 29.507812 10.105469 28.875 C 10.378906 28.242188 11.117188 27.957031 11.75 28.230469 C 11.804688 28.253906 17.320312 30.625 23.75 30.625 C 30.195312 30.625 35.691406 28.253906 35.746094 28.230469 C 36.378906 27.953125 37.117188 28.242188 37.394531 28.875 C 37.671875 29.507812 37.382812 30.246094 36.746094 30.519531 C 36.503906 30.625 30.714844 33.125 23.75 33.125 Z M 23.75 33.125 "/>
<path style=" stroke:none;fill-rule:nonzero;fill:rgb(0%,0%,0%);fill-opacity:1;" d="M 7.496094 34.375 C 7.175781 34.375 6.855469 34.253906 6.613281 34.007812 C 6.125 33.519531 6.125 32.730469 6.613281 32.242188 L 10.367188 28.492188 C 10.855469 28.003906 11.644531 28.003906 12.132812 28.492188 C 12.621094 28.980469 12.621094 29.773438 12.132812 30.257812 L 8.378906 34.007812 C 8.136719 34.253906 7.816406 34.375 7.496094 34.375 Z M 7.496094 34.375 "/>
<path style=" stroke:none;fill-rule:nonzero;fill:rgb(0%,0%,0%);fill-opacity:1;" d="M 19.996094 61.875 C 19.761719 61.875 19.519531 61.804688 19.304688 61.664062 L 15.554688 59.160156 C 14.980469 58.777344 14.824219 58 15.210938 57.425781 C 15.59375 56.851562 16.371094 56.699219 16.941406 57.082031 L 20.691406 59.582031 C 21.269531 59.96875 21.421875 60.742188 21.039062 61.316406 C 20.796875 61.679688 20.402344 61.875 19.996094 61.875 Z M 19.996094 61.875 "/>
<path style=" stroke:none;fill-rule:nonzero;fill:rgb(0%,0%,0%);fill-opacity:1;" d="M 20 61.875 C 19.476562 61.875 18.988281 61.542969 18.8125 61.019531 C 18.59375 60.367188 18.949219 59.65625 19.601562 59.4375 L 23.351562 58.183594 C 24.007812 57.964844 24.714844 58.316406 24.933594 58.972656 C 25.15625 59.625 24.800781 60.335938 24.144531 60.554688 L 20.394531 61.808594 C 20.261719 61.851562 20.132812 61.875 20 61.875 Z M 20 61.875 "/>
<path style=" stroke:none;fill-rule:nonzero;fill:rgb(0%,0%,0%);fill-opacity:1;" d="M 27.5 61.875 C 27.097656 61.875 26.699219 61.679688 26.457031 61.316406 C 26.074219 60.742188 26.230469 59.96875 26.804688 59.582031 L 30.554688 57.082031 C 31.125 56.699219 31.902344 56.851562 32.289062 57.425781 C 32.671875 58 32.515625 58.777344 31.941406 59.160156 L 28.191406 61.664062 C 27.980469 61.804688 27.738281 61.875 27.5 61.875 Z M 27.5 61.875 "/>
<path style=" stroke:none;fill-rule:nonzero;fill:rgb(0%,0%,0%);fill-opacity:1;" d="M 27.5 61.875 C 27.367188 61.875 27.234375 61.851562 27.101562 61.808594 L 23.351562 60.554688 C 22.699219 60.335938 22.34375 59.625 22.5625 58.972656 C 22.785156 58.316406 23.492188 57.964844 24.144531 58.183594 L 27.894531 59.4375 C 28.550781 59.65625 28.90625 60.363281 28.683594 61.019531 C 28.507812 61.542969 28.019531 61.875 27.5 61.875 Z M 27.5 61.875 "/>
<path style=" stroke:none;fill-rule:nonzero;fill:rgb(0%,0%,0%);fill-opacity:1;" d="M 23.785156 66.875 C 23.09375 66.875 22.53125 66.316406 22.53125 65.625 C 22.53125 64.933594 23.082031 64.375 23.773438 64.375 L 23.785156 64.375 C 24.476562 64.375 25.035156 64.933594 25.035156 65.625 C 25.035156 66.316406 24.476562 66.875 23.785156 66.875 Z M 23.785156 66.875 "/>
<path style=" stroke:none;fill-rule:nonzero;fill:rgb(0%,0%,0%);fill-opacity:1;" d="M 23.785156 71.871094 C 23.09375 71.871094 22.53125 71.316406 22.53125 70.625 C 22.53125 69.929688 23.082031 69.375 23.773438 69.375 L 23.785156 69.375 C 24.476562 69.375 25.035156 69.929688 25.035156 70.625 C 25.035156 71.316406 24.476562 71.871094 23.785156 71.871094 Z M 23.785156 71.871094 "/>
<path style=" stroke:none;fill-rule:nonzero;fill:rgb(0%,0%,0%);fill-opacity:1;" d="M 52.503906 36.871094 C 52.292969 36.871094 52.078125 36.820312 51.890625 36.710938 C 51.496094 36.488281 51.253906 36.074219 51.253906 35.621094 L 51.253906 33.121094 L 48.753906 33.121094 C 48.0625 33.121094 47.503906 32.5625 47.503906 31.875 L 47.503906 4.378906 C 47.503906 3.6875 48.0625 3.128906 48.753906 3.128906 L 78.75 3.128906 C 79.441406 3.128906 80 3.6875 80 4.378906 L 80 31.875 C 80 32.5625 79.441406 33.121094 78.75 33.121094 L 59.097656 33.121094 L 53.148438 36.695312 C 52.949219 36.8125 52.726562 36.871094 52.503906 36.871094 Z M 50.003906 30.625 L 52.503906 30.625 C 53.195312 30.625 53.753906 31.179688 53.753906 31.875 L 53.753906 33.414062 L 58.105469 30.800781 C 58.300781 30.683594 58.523438 30.621094 58.75 30.621094 L 77.5 30.621094 L 77.5 5.628906 L 50.003906 5.628906 Z M 50.003906 30.625 "/>
<path style=" stroke:none;fill-rule:nonzero;fill:rgb(0%,0%,0%);fill-opacity:1;" d="M 53.765625 49.390625 C 51.007812 49.390625 48.765625 47.148438 48.765625 44.390625 C 48.765625 43.699219 49.324219 43.140625 50.015625 43.140625 C 50.707031 43.140625 51.265625 43.699219 51.265625 44.390625 C 51.265625 45.769531 52.386719 46.890625 53.765625 46.890625 C 54.457031 46.890625 55.015625 47.449219 55.015625 48.140625 C 55.015625 48.832031 54.457031 49.390625 53.765625 49.390625 Z M 53.765625 49.390625 "/>
<path style=" stroke:none;fill-rule:nonzero;fill:rgb(0%,0%,0%);fill-opacity:1;" d="M 50.019531 63.144531 C 49.328125 63.144531 48.769531 62.585938 48.769531 61.894531 L 48.769531 44.40625 C 48.769531 43.714844 49.328125 43.15625 50.019531 43.15625 C 50.710938 43.15625 51.269531 43.714844 51.269531 44.40625 L 51.269531 61.894531 C 51.269531 62.585938 50.710938 63.144531 50.019531 63.144531 Z M 50.019531 63.144531 "/>
<path style=" stroke:none;fill-rule:nonzero;fill:rgb(0%,0%,0%);fill-opacity:1;" d="M 71.261719 49.394531 C 66.4375 49.394531 62.511719 45.46875 62.511719 40.644531 C 62.511719 39.953125 63.070312 39.394531 63.761719 39.394531 C 64.453125 39.394531 65.011719 39.953125 65.011719 40.644531 C 65.011719 44.089844 67.8125 46.894531 71.261719 46.894531 C 71.953125 46.894531 72.511719 47.453125 72.511719 48.144531 C 72.511719 48.835938 71.953125 49.394531 71.261719 49.394531 Z M 71.261719 49.394531 "/>
<path style=" stroke:none;fill-rule:nonzero;fill:rgb(0%,0%,0%);fill-opacity:1;" d="M 73.769531 49.390625 C 73.078125 49.390625 72.519531 48.832031 72.519531 48.140625 C 72.519531 47.449219 73.078125 46.890625 73.769531 46.890625 C 75.148438 46.890625 76.269531 45.769531 76.269531 44.390625 C 76.269531 43.699219 76.828125 43.140625 77.519531 43.140625 C 78.207031 43.140625 78.769531 43.699219 78.769531 44.390625 C 78.769531 47.148438 76.523438 49.390625 73.769531 49.390625 Z M 73.769531 49.390625 "/>
<path style=" stroke:none;fill-rule:nonzero;fill:rgb(0%,0%,0%);fill-opacity:1;" d="M 77.515625 63.144531 C 76.824219 63.144531 76.265625 62.585938 76.265625 61.894531 L 76.265625 44.390625 C 76.265625 43.699219 76.824219 43.140625 77.515625 43.140625 C 78.207031 43.140625 78.765625 43.699219 78.765625 44.390625 L 78.765625 61.894531 C 78.765625 62.585938 78.203125 63.144531 77.515625 63.144531 Z M 77.515625 63.144531 "/>
<path style=" stroke:none;fill-rule:nonzero;fill:rgb(0%,0%,0%);fill-opacity:1;" d="M 63.765625 76.886719 C 63.074219 76.886719 62.515625 76.328125 62.515625 75.636719 C 62.515625 74.257812 63.636719 73.136719 65.015625 73.136719 C 65.707031 73.136719 66.265625 73.695312 66.265625 74.386719 C 66.265625 75.078125 65.707031 75.636719 65.015625 75.636719 C 65.015625 76.328125 64.457031 76.886719 63.765625 76.886719 Z M 63.765625 76.886719 "/>
<path style=" stroke:none;fill-rule:nonzero;fill:rgb(0%,0%,0%);fill-opacity:1;" d="M 63.765625 76.886719 C 63.074219 76.886719 62.515625 76.328125 62.515625 75.636719 C 62.515625 75.632812 62.515625 75.632812 62.515625 75.632812 C 61.824219 75.632812 61.261719 75.070312 61.261719 74.378906 C 61.261719 73.6875 61.816406 73.125 62.503906 73.125 C 63.890625 73.125 65.015625 74.25 65.015625 75.636719 C 65.015625 76.328125 64.457031 76.886719 63.765625 76.886719 Z M 63.765625 76.886719 "/>
<path style=" stroke:none;fill-rule:nonzero;fill:rgb(0%,0%,0%);fill-opacity:1;" d="M 65.015625 75.644531 C 64.324219 75.644531 63.765625 75.085938 63.765625 74.394531 C 63.765625 73.703125 64.324219 73.144531 65.015625 73.144531 C 71.21875 73.144531 76.265625 68.097656 76.265625 61.894531 C 76.265625 61.203125 76.824219 60.644531 77.515625 60.644531 C 78.207031 60.644531 78.765625 61.203125 78.765625 61.894531 C 78.765625 69.476562 72.597656 75.644531 65.015625 75.644531 Z M 65.015625 75.644531 "/>
<path style=" stroke:none;fill-rule:nonzero;fill:rgb(0%,0%,0%);fill-opacity:1;" d="M 56.273438 49.394531 C 55.585938 49.394531 55.023438 48.835938 55.023438 48.144531 C 55.023438 47.453125 55.585938 46.894531 56.273438 46.894531 C 59.722656 46.894531 62.523438 44.089844 62.523438 40.644531 C 62.523438 39.953125 63.082031 39.394531 63.773438 39.394531 C 64.464844 39.394531 65.023438 39.953125 65.023438 40.644531 C 65.023438 45.46875 61.101562 49.394531 56.273438 49.394531 Z M 56.273438 49.394531 "/>
<path style=" stroke:none;fill-rule:nonzero;fill:rgb(0%,0%,0%);fill-opacity:1;" d="M 62.519531 75.644531 C 54.9375 75.644531 48.773438 69.476562 48.773438 61.894531 C 48.773438 61.203125 49.332031 60.644531 50.023438 60.644531 C 50.714844 60.644531 51.273438 61.203125 51.273438 61.894531 C 51.273438 68.097656 56.316406 73.144531 62.519531 73.144531 C 63.210938 73.144531 63.769531 73.703125 63.769531 74.394531 C 63.769531 75.082031 63.207031 75.644531 62.519531 75.644531 Z M 62.519531 75.644531 "/>
<path style=" stroke:none;fill-rule:nonzero;fill:rgb(0%,0%,0%);fill-opacity:1;" d="M 56.273438 49.390625 L 53.765625 49.390625 C 53.074219 49.390625 52.515625 48.832031 52.515625 48.140625 C 52.515625 47.449219 53.074219 46.890625 53.765625 46.890625 L 56.273438 46.890625 C 56.964844 46.890625 57.523438 47.449219 57.523438 48.140625 C 57.523438 48.832031 56.964844 49.390625 56.273438 49.390625 Z M 56.273438 49.390625 "/>
<path style=" stroke:none;fill-rule:nonzero;fill:rgb(0%,0%,0%);fill-opacity:1;" d="M 73.769531 49.394531 L 71.261719 49.394531 C 70.570312 49.394531 70.011719 48.835938 70.011719 48.144531 C 70.011719 47.453125 70.570312 46.894531 71.261719 46.894531 L 73.769531 46.894531 C 74.457031 46.894531 75.019531 47.453125 75.019531 48.144531 C 75.019531 48.835938 74.457031 49.394531 73.769531 49.394531 Z M 73.769531 49.394531 "/>
<path style=" stroke:none;fill-rule:nonzero;fill:rgb(0%,0%,0%);fill-opacity:1;" d="M 63.753906 66.875 C 63.0625 66.875 62.503906 66.316406 62.503906 65.625 L 62.503906 53.386719 C 62.503906 52.695312 63.0625 52.136719 63.753906 52.136719 C 64.445312 52.136719 65.003906 52.695312 65.003906 53.386719 L 65.003906 65.625 C 65.003906 66.316406 64.445312 66.875 63.753906 66.875 Z M 63.753906 66.875 "/>
</g>
</svg>
