<?xml version="1.0" encoding="UTF-8"?>
<svg xmlns="http://www.w3.org/2000/svg" xmlns:xlink="http://www.w3.org/1999/xlink" width="80pt" height="80pt" viewBox="0 0 80 80" version="1.1">
<g id="surface1">
<path style=" stroke:none;fill-rule:nonzero;fill:rgb(0%,0%,0%);fill-opacity:1;" d="M 23.28125 60.933594 C 22.855469 60.933594 22.441406 60.714844 22.207031 60.328125 L 16.90625 51.496094 C 16.550781 50.90625 16.742188 50.136719 17.335938 49.78125 C 17.929688 49.425781 18.695312 49.617188 19.050781 50.210938 L 24.351562 59.039062 C 24.707031 59.632812 24.515625 60.402344 23.921875 60.753906 C 23.722656 60.875 23.5 60.933594 23.28125 60.933594 Z M 23.28125 60.933594 "/>
<path style=" stroke:none;fill-rule:nonzero;fill:rgb(0%,0%,0%);fill-opacity:1;" d="M 40.066406 42.378906 C 39.863281 42.378906 39.652344 42.328125 39.460938 42.222656 L 31.511719 37.804688 C 30.90625 37.46875 30.6875 36.707031 31.023438 36.105469 C 31.359375 35.503906 32.121094 35.28125 32.722656 35.617188 L 40.675781 40.039062 C 41.277344 40.371094 41.496094 41.132812 41.160156 41.734375 C 40.929688 42.148438 40.507812 42.378906 40.066406 42.378906 Z M 40.066406 42.378906 "/>
<path style=" stroke:none;fill-rule:nonzero;fill:rgb(0%,0%,0%);fill-opacity:1;" d="M 16.207031 53.871094 C 15.890625 53.871094 15.570312 53.746094 15.324219 53.503906 C 14.835938 53.015625 14.835938 52.226562 15.324219 51.734375 L 33 34.054688 C 33.488281 33.566406 34.28125 33.566406 34.769531 34.054688 C 35.257812 34.546875 35.257812 35.335938 34.769531 35.824219 L 17.09375 53.503906 C 16.847656 53.75 16.527344 53.871094 16.207031 53.871094 Z M 16.207031 53.871094 "/>
<path style=" stroke:none;fill-rule:nonzero;fill:rgb(0%,0%,0%);fill-opacity:1;" d="M 33.886719 36.191406 C 33.566406 36.191406 33.246094 36.066406 33 35.824219 L 30.34375 33.167969 C 29.855469 32.675781 29.855469 31.886719 30.34375 31.398438 C 30.832031 30.910156 31.621094 30.910156 32.109375 31.398438 L 34.769531 34.058594 C 35.257812 34.546875 35.257812 35.335938 34.769531 35.824219 C 34.523438 36.066406 34.203125 36.191406 33.886719 36.191406 Z M 33.886719 36.191406 "/>
<path style=" stroke:none;fill-rule:nonzero;fill:rgb(0%,0%,0%);fill-opacity:1;" d="M 16.207031 53.871094 C 15.890625 53.871094 15.570312 53.746094 15.324219 53.503906 L 12.667969 50.84375 C 12.175781 50.355469 12.175781 49.5625 12.667969 49.074219 C 13.15625 48.585938 13.945312 48.585938 14.433594 49.074219 L 17.09375 51.734375 C 17.582031 52.226562 17.582031 53.015625 17.09375 53.503906 C 16.847656 53.75 16.527344 53.871094 16.207031 53.871094 Z M 16.207031 53.871094 "/>
<path style=" stroke:none;fill-rule:nonzero;fill:rgb(0%,0%,0%);fill-opacity:1;" d="M 57.734375 60.054688 C 57.53125 60.054688 57.320312 60.007812 57.128906 59.898438 C 56.527344 59.5625 56.308594 58.804688 56.644531 58.199219 L 61.0625 50.253906 C 61.394531 49.652344 62.15625 49.433594 62.761719 49.769531 C 63.363281 50.105469 63.582031 50.863281 63.246094 51.46875 L 58.828125 59.414062 C 58.601562 59.824219 58.175781 60.054688 57.734375 60.054688 Z M 57.734375 60.054688 "/>
<path style=" stroke:none;fill-rule:nonzero;fill:rgb(0%,0%,0%);fill-opacity:1;" d="M 40.949219 41.503906 C 40.492188 41.503906 40.050781 41.25 39.828125 40.8125 C 39.519531 40.195312 39.769531 39.441406 40.386719 39.132812 L 47.453125 35.601562 C 48.070312 35.292969 48.820312 35.542969 49.132812 36.160156 C 49.441406 36.777344 49.191406 37.527344 48.574219 37.835938 L 41.507812 41.371094 C 41.328125 41.460938 41.136719 41.503906 40.949219 41.503906 Z M 40.949219 41.503906 "/>
<path style=" stroke:none;fill-rule:nonzero;fill:rgb(0%,0%,0%);fill-opacity:1;" d="M 63.921875 53.878906 C 63.601562 53.878906 63.28125 53.753906 63.039062 53.511719 L 45.363281 35.835938 C 44.875 35.347656 44.875 34.554688 45.363281 34.066406 C 45.851562 33.578125 46.640625 33.578125 47.128906 34.066406 L 64.804688 51.742188 C 65.292969 52.230469 65.292969 53.023438 64.804688 53.511719 C 64.5625 53.753906 64.242188 53.878906 63.921875 53.878906 Z M 63.921875 53.878906 "/>
<path style=" stroke:none;fill-rule:nonzero;fill:rgb(0%,0%,0%);fill-opacity:1;" d="M 46.246094 36.199219 C 45.925781 36.199219 45.605469 36.078125 45.363281 35.835938 C 44.875 35.347656 44.875 34.554688 45.363281 34.066406 L 48.019531 31.410156 C 48.507812 30.917969 49.296875 30.917969 49.785156 31.410156 C 50.277344 31.898438 50.277344 32.6875 49.785156 33.175781 L 47.128906 35.835938 C 46.886719 36.078125 46.566406 36.199219 46.246094 36.199219 Z M 46.246094 36.199219 "/>
<path style=" stroke:none;fill-rule:nonzero;fill:rgb(0%,0%,0%);fill-opacity:1;" d="M 63.921875 53.878906 C 63.601562 53.878906 63.28125 53.753906 63.039062 53.511719 C 62.550781 53.023438 62.550781 52.230469 63.039062 51.742188 L 65.695312 49.082031 C 66.1875 48.59375 66.976562 48.59375 67.464844 49.082031 C 67.953125 49.570312 67.953125 50.359375 67.464844 50.851562 L 64.804688 53.511719 C 64.5625 53.753906 64.242188 53.878906 63.921875 53.878906 Z M 63.921875 53.878906 "/>
<path style=" stroke:none;fill-rule:nonzero;fill:rgb(0%,0%,0%);fill-opacity:1;" d="M 33 49.445312 C 32.679688 49.445312 32.359375 49.324219 32.117188 49.078125 C 31.628906 48.589844 31.628906 47.800781 32.117188 47.3125 L 40.070312 39.363281 C 40.558594 38.875 41.351562 38.875 41.839844 39.363281 C 42.328125 39.851562 42.328125 40.644531 41.839844 41.132812 L 33.882812 49.078125 C 33.636719 49.324219 33.320312 49.445312 33 49.445312 Z M 33 49.445312 "/>
<path style=" stroke:none;fill-rule:nonzero;fill:rgb(0%,0%,0%);fill-opacity:1;" d="M 36.980469 54.3125 C 36.660156 54.3125 36.339844 54.191406 36.097656 53.945312 C 35.605469 53.457031 35.605469 52.667969 36.097656 52.179688 L 41.839844 46.433594 C 42.328125 45.945312 43.117188 45.945312 43.605469 46.433594 C 44.09375 46.921875 44.09375 47.710938 43.605469 48.199219 L 37.863281 53.945312 C 37.621094 54.191406 37.300781 54.3125 36.980469 54.3125 Z M 36.980469 54.3125 "/>
<path style=" stroke:none;fill-rule:nonzero;fill:rgb(0%,0%,0%);fill-opacity:1;" d="M 46.257812 48.566406 C 45.9375 48.566406 45.617188 48.445312 45.375 48.199219 C 45.140625 47.964844 44.824219 47.832031 44.492188 47.832031 C 44.15625 47.832031 43.84375 47.964844 43.605469 48.199219 C 43.117188 48.691406 42.328125 48.691406 41.839844 48.199219 C 41.351562 47.710938 41.351562 46.921875 41.839844 46.433594 C 42.546875 45.726562 43.488281 45.335938 44.488281 45.332031 L 44.492188 45.332031 C 45.496094 45.332031 46.433594 45.726562 47.144531 46.433594 C 47.632812 46.921875 47.632812 47.714844 47.144531 48.203125 C 46.898438 48.445312 46.578125 48.566406 46.257812 48.566406 Z M 46.257812 48.566406 "/>
<path style=" stroke:none;fill-rule:nonzero;fill:rgb(0%,0%,0%);fill-opacity:1;" d="M 57.746094 60.050781 C 57.425781 60.050781 57.105469 59.929688 56.859375 59.683594 L 45.375 48.199219 C 44.886719 47.710938 44.886719 46.921875 45.375 46.433594 C 45.867188 45.945312 46.65625 45.945312 47.144531 46.433594 L 58.628906 57.917969 C 59.117188 58.40625 59.117188 59.195312 58.628906 59.683594 C 58.382812 59.929688 58.0625 60.050781 57.746094 60.050781 Z M 57.746094 60.050781 "/>
<path style=" stroke:none;fill-rule:nonzero;fill:rgb(0%,0%,0%);fill-opacity:1;" d="M 34.769531 55.222656 C 33.652344 55.222656 32.53125 54.796875 31.675781 53.945312 C 29.972656 52.242188 29.972656 49.464844 31.675781 47.761719 C 32.167969 47.269531 32.957031 47.269531 33.445312 47.761719 C 33.933594 48.25 33.933594 49.039062 33.445312 49.527344 C 32.714844 50.257812 32.714844 51.449219 33.445312 52.179688 C 34.175781 52.910156 35.367188 52.90625 36.097656 52.175781 C 36.585938 51.691406 37.375 51.6875 37.863281 52.179688 C 38.351562 52.667969 38.351562 53.457031 37.863281 53.945312 C 37.011719 54.796875 35.890625 55.222656 34.769531 55.222656 Z M 34.769531 55.222656 "/>
<path style=" stroke:none;fill-rule:nonzero;fill:rgb(0%,0%,0%);fill-opacity:1;" d="M 38.300781 79.96875 C 37.132812 79.96875 36.035156 79.515625 35.207031 78.6875 C 33.503906 76.980469 33.503906 74.203125 35.210938 72.5 L 36.09375 71.617188 C 37.746094 69.964844 40.625 69.964844 42.277344 71.617188 C 43.984375 73.324219 43.984375 76.097656 42.277344 77.800781 L 41.394531 78.6875 C 40.566406 79.511719 39.46875 79.96875 38.300781 79.96875 Z M 39.183594 72.835938 C 38.6875 72.835938 38.21875 73.027344 37.863281 73.382812 L 36.980469 74.269531 C 36.246094 74.996094 36.246094 76.1875 36.976562 76.921875 C 37.328125 77.269531 37.800781 77.46875 38.300781 77.46875 C 38.800781 77.46875 39.273438 77.273438 39.628906 76.917969 L 40.511719 76.03125 C 41.242188 75.304688 41.242188 74.117188 40.511719 73.386719 C 40.15625 73.03125 39.6875 72.835938 39.183594 72.835938 Z M 39.183594 72.835938 "/>
<path style=" stroke:none;fill-rule:nonzero;fill:rgb(0%,0%,0%);fill-opacity:1;" d="M 33.882812 75.550781 C 32.710938 75.550781 31.617188 75.09375 30.789062 74.269531 C 29.085938 72.566406 29.085938 69.789062 30.789062 68.082031 L 31.675781 67.195312 C 33.324219 65.546875 36.207031 65.542969 37.859375 67.199219 C 38.6875 68.023438 39.140625 69.121094 39.140625 70.289062 C 39.140625 71.460938 38.6875 72.554688 37.859375 73.382812 L 36.976562 74.269531 C 36.148438 75.09375 35.050781 75.550781 33.882812 75.550781 Z M 34.765625 68.414062 C 34.265625 68.414062 33.796875 68.609375 33.441406 68.964844 L 32.558594 69.847656 C 31.828125 70.578125 31.828125 71.769531 32.558594 72.5 C 32.910156 72.851562 33.382812 73.046875 33.882812 73.046875 C 34.382812 73.046875 34.855469 72.851562 35.210938 72.496094 L 36.09375 71.613281 C 36.445312 71.261719 36.640625 70.789062 36.640625 70.289062 C 36.640625 69.785156 36.445312 69.316406 36.09375 68.960938 C 35.738281 68.605469 35.265625 68.414062 34.765625 68.414062 Z M 34.765625 68.414062 "/>
<path style=" stroke:none;fill-rule:nonzero;fill:rgb(0%,0%,0%);fill-opacity:1;" d="M 29.464844 71.128906 C 28.296875 71.128906 27.199219 70.675781 26.371094 69.847656 C 25.546875 69.027344 25.089844 67.925781 25.089844 66.757812 C 25.089844 65.589844 25.542969 64.488281 26.371094 63.660156 L 27.253906 62.777344 C 28.910156 61.125 31.792969 61.125 33.441406 62.777344 C 34.265625 63.605469 34.722656 64.703125 34.722656 65.871094 C 34.722656 67.039062 34.265625 68.136719 33.441406 68.964844 L 32.558594 69.847656 C 31.730469 70.675781 30.632812 71.128906 29.464844 71.128906 Z M 30.347656 63.996094 C 29.847656 63.996094 29.378906 64.191406 29.023438 64.546875 L 28.140625 65.429688 C 27.785156 65.785156 27.589844 66.253906 27.589844 66.757812 C 27.589844 67.257812 27.785156 67.726562 28.140625 68.078125 C 28.847656 68.789062 30.082031 68.785156 30.789062 68.082031 L 31.675781 67.199219 C 32.027344 66.84375 32.222656 66.371094 32.222656 65.871094 C 32.222656 65.371094 32.027344 64.898438 31.675781 64.546875 C 31.320312 64.191406 30.847656 63.996094 30.347656 63.996094 Z M 30.347656 63.996094 "/>
<path style=" stroke:none;fill-rule:nonzero;fill:rgb(0%,0%,0%);fill-opacity:1;" d="M 25.046875 66.710938 C 23.875 66.710938 22.777344 66.253906 21.953125 65.429688 C 21.125 64.605469 20.667969 63.503906 20.667969 62.335938 C 20.667969 61.167969 21.125 60.070312 21.953125 59.242188 L 22.835938 58.359375 C 24.488281 56.707031 27.371094 56.707031 29.019531 58.359375 C 29.847656 59.183594 30.304688 60.285156 30.300781 61.453125 C 30.300781 62.621094 29.847656 63.71875 29.019531 64.546875 L 28.136719 65.429688 C 27.3125 66.253906 26.214844 66.710938 25.046875 66.710938 Z M 25.929688 59.578125 C 25.429688 59.578125 24.960938 59.773438 24.605469 60.125 L 23.71875 61.011719 C 23.367188 61.367188 23.171875 61.835938 23.171875 62.335938 C 23.171875 62.835938 23.367188 63.304688 23.71875 63.664062 C 24.429688 64.371094 25.664062 64.371094 26.371094 63.664062 L 27.253906 62.777344 C 27.609375 62.425781 27.804688 61.953125 27.804688 61.453125 C 27.804688 60.953125 27.609375 60.480469 27.253906 60.125 C 26.902344 59.773438 26.429688 59.578125 25.929688 59.578125 Z M 25.929688 59.578125 "/>
<path style=" stroke:none;fill-rule:nonzero;fill:rgb(0%,0%,0%);fill-opacity:1;" d="M 43.601562 79.96875 C 42.480469 79.96875 41.363281 79.542969 40.511719 78.691406 C 40.023438 78.203125 40.023438 77.414062 40.511719 76.925781 C 41 76.4375 41.789062 76.4375 42.277344 76.925781 C 43.003906 77.652344 44.195312 77.652344 44.929688 76.921875 C 45.660156 76.191406 45.660156 75 44.929688 74.269531 C 44.6875 74.027344 44.566406 73.707031 44.566406 73.386719 C 44.566406 73.066406 44.6875 72.746094 44.933594 72.503906 C 45.421875 72.015625 46.210938 72.015625 46.699219 72.503906 C 47.050781 72.859375 47.519531 73.050781 48.019531 73.050781 L 48.023438 73.050781 C 48.523438 73.050781 48.992188 72.859375 49.347656 72.503906 C 50.078125 71.773438 50.078125 70.582031 49.351562 69.851562 C 49.105469 69.609375 48.984375 69.289062 48.984375 68.96875 C 48.984375 68.648438 49.105469 68.328125 49.351562 68.085938 C 49.839844 67.597656 50.628906 67.597656 51.117188 68.085938 C 51.847656 68.816406 53.035156 68.816406 53.769531 68.085938 C 54.496094 67.355469 54.5 66.164062 53.769531 65.433594 C 53.527344 65.191406 53.402344 64.871094 53.402344 64.550781 C 53.402344 64.230469 53.527344 63.910156 53.769531 63.667969 C 54.257812 63.179688 55.046875 63.179688 55.535156 63.667969 C 56.242188 64.375 57.476562 64.375 58.183594 63.664062 C 58.917969 62.933594 58.917969 61.746094 58.1875 61.015625 C 57.699219 60.527344 57.699219 59.738281 58.1875 59.25 C 58.675781 58.761719 59.464844 58.761719 59.957031 59.25 C 61.660156 60.953125 61.65625 63.726562 59.953125 65.433594 C 59.125 66.261719 58.027344 66.714844 56.859375 66.714844 C 56.84375 66.714844 56.828125 66.714844 56.8125 66.714844 C 56.824219 67.851562 56.398438 68.988281 55.535156 69.851562 C 54.679688 70.707031 53.5625 71.132812 52.4375 71.132812 C 52.425781 71.132812 52.410156 71.132812 52.394531 71.132812 C 52.40625 72.265625 51.980469 73.402344 51.117188 74.269531 C 50.289062 75.097656 49.191406 75.550781 48.023438 75.550781 C 48.023438 75.550781 47.992188 75.550781 47.976562 75.550781 C 47.984375 76.6875 47.558594 77.824219 46.695312 78.691406 C 45.839844 79.542969 44.71875 79.96875 43.601562 79.96875 Z M 43.601562 79.96875 "/>
<path style=" stroke:none;fill-rule:nonzero;fill:rgb(0%,0%,0%);fill-opacity:1;" d="M 41.394531 79.058594 C 41.074219 79.058594 40.753906 78.9375 40.511719 78.691406 L 40.066406 78.25 C 39.578125 77.761719 39.578125 76.96875 40.066406 76.480469 C 40.558594 75.992188 41.347656 75.992188 41.835938 76.480469 L 42.277344 76.925781 C 42.769531 77.414062 42.769531 78.203125 42.277344 78.691406 C 42.035156 78.9375 41.714844 79.058594 41.394531 79.058594 Z M 41.394531 79.058594 "/>
<path style=" stroke:none;fill-rule:nonzero;fill:rgb(0%,0%,0%);fill-opacity:1;" d="M 45.816406 74.636719 C 45.496094 74.636719 45.175781 74.515625 44.933594 74.273438 L 43.605469 72.941406 C 43.113281 72.453125 43.113281 71.664062 43.605469 71.175781 C 44.09375 70.6875 44.882812 70.6875 45.371094 71.175781 L 46.699219 72.503906 C 47.1875 72.992188 47.1875 73.78125 46.699219 74.273438 C 46.453125 74.515625 46.136719 74.636719 45.816406 74.636719 Z M 45.816406 74.636719 "/>
<path style=" stroke:none;fill-rule:nonzero;fill:rgb(0%,0%,0%);fill-opacity:1;" d="M 50.234375 70.21875 C 49.914062 70.21875 49.59375 70.097656 49.351562 69.851562 L 48.023438 68.523438 C 47.535156 68.035156 47.535156 67.242188 48.023438 66.757812 C 48.511719 66.265625 49.300781 66.265625 49.792969 66.757812 L 51.117188 68.085938 C 51.605469 68.574219 51.605469 69.363281 51.117188 69.851562 C 50.875 70.097656 50.554688 70.21875 50.234375 70.21875 Z M 50.234375 70.21875 "/>
<path style=" stroke:none;fill-rule:nonzero;fill:rgb(0%,0%,0%);fill-opacity:1;" d="M 54.652344 65.796875 C 54.335938 65.796875 54.015625 65.675781 53.769531 65.429688 L 52.441406 64.105469 C 51.953125 63.617188 51.953125 62.828125 52.441406 62.339844 C 52.933594 61.851562 53.722656 61.851562 54.210938 62.339844 L 55.539062 63.664062 C 56.027344 64.152344 56.027344 64.945312 55.539062 65.433594 C 55.292969 65.675781 54.976562 65.796875 54.652344 65.796875 Z M 54.652344 65.796875 "/>
<path style=" stroke:none;fill-rule:nonzero;fill:rgb(0%,0%,0%);fill-opacity:1;" d="M 59.074219 61.378906 C 58.753906 61.378906 58.433594 61.257812 58.191406 61.011719 L 56.863281 59.683594 C 56.371094 59.195312 56.371094 58.40625 56.863281 57.917969 C 57.351562 57.425781 58.140625 57.425781 58.628906 57.917969 L 59.957031 59.246094 C 60.445312 59.734375 60.445312 60.523438 59.957031 61.011719 C 59.714844 61.257812 59.394531 61.378906 59.074219 61.378906 Z M 59.074219 61.378906 "/>
<path style=" stroke:none;fill-rule:nonzero;fill:rgb(0%,0%,0%);fill-opacity:1;" d="M 12.675781 52.097656 C 12.355469 52.097656 12.035156 51.976562 11.789062 51.730469 L 7.371094 47.316406 C 7.136719 47.078125 7.007812 46.765625 7.007812 46.429688 C 7.007812 46.101562 7.136719 45.78125 7.371094 45.546875 L 26.816406 26.101562 C 27.050781 25.867188 27.367188 25.738281 27.699219 25.738281 C 28.03125 25.738281 28.351562 25.867188 28.582031 26.101562 L 33 30.519531 C 33.488281 31.011719 33.488281 31.800781 33 32.289062 L 13.558594 51.730469 C 13.3125 51.976562 12.992188 52.097656 12.675781 52.097656 Z M 10.023438 46.429688 L 12.675781 49.078125 L 30.351562 31.40625 L 27.699219 28.753906 Z M 10.023438 46.429688 "/>
<path style=" stroke:none;fill-rule:nonzero;fill:rgb(0%,0%,0%);fill-opacity:1;" d="M 67.464844 52.097656 C 67.144531 52.097656 66.824219 51.976562 66.578125 51.730469 L 47.140625 32.292969 C 46.648438 31.804688 46.648438 31.015625 47.140625 30.523438 L 51.554688 26.105469 C 52.023438 25.636719 52.855469 25.636719 53.324219 26.105469 L 72.765625 45.546875 C 73 45.78125 73.132812 46.101562 73.132812 46.429688 C 73.132812 46.765625 73 47.082031 72.765625 47.316406 L 68.347656 51.730469 C 68.101562 51.976562 67.785156 52.097656 67.464844 52.097656 Z M 49.789062 31.410156 L 67.464844 49.082031 L 70.117188 46.433594 L 52.4375 28.757812 Z M 49.789062 31.410156 "/>
<path style=" stroke:none;fill-rule:nonzero;fill:rgb(0%,0%,0%);fill-opacity:1;" d="M 40.070312 27.496094 C 32.488281 27.496094 26.320312 21.328125 26.320312 13.75 C 26.320312 6.167969 32.488281 0 40.070312 0 C 47.648438 0 53.816406 6.167969 53.816406 13.75 C 53.816406 21.328125 47.648438 27.496094 40.070312 27.496094 Z M 40.070312 2.5 C 33.867188 2.5 28.820312 7.546875 28.820312 13.75 C 28.820312 19.953125 33.867188 24.996094 40.070312 24.996094 C 46.273438 24.996094 51.316406 19.953125 51.316406 13.75 C 51.316406 7.546875 46.273438 2.5 40.070312 2.5 Z M 40.070312 2.5 "/>
<path style=" stroke:none;fill-rule:nonzero;fill:rgb(0%,0%,0%);fill-opacity:1;" d="M 45.089844 19.996094 L 35.089844 19.996094 C 34.398438 19.996094 33.839844 19.4375 33.839844 18.746094 C 33.839844 18.054688 34.398438 17.496094 35.089844 17.496094 L 45.089844 17.496094 C 45.78125 17.496094 46.339844 18.054688 46.339844 18.746094 C 46.339844 19.4375 45.777344 19.996094 45.089844 19.996094 Z M 45.089844 19.996094 "/>
<path style=" stroke:none;fill-rule:nonzero;fill:rgb(0%,0%,0%);fill-opacity:1;" d="M 40.089844 19.996094 C 39.398438 19.996094 38.839844 19.4375 38.839844 18.746094 L 38.839844 7.5 C 38.839844 6.808594 39.398438 6.25 40.089844 6.25 C 40.78125 6.25 41.339844 6.808594 41.339844 7.5 L 41.339844 18.746094 C 41.339844 19.4375 40.78125 19.996094 40.089844 19.996094 Z M 40.089844 19.996094 "/>
<path style=" stroke:none;fill-rule:nonzero;fill:rgb(0%,0%,0%);fill-opacity:1;" d="M 45.089844 10 L 35.089844 10 C 34.398438 10 33.839844 9.441406 33.839844 8.75 C 33.839844 8.058594 34.398438 7.5 35.089844 7.5 L 45.089844 7.5 C 45.78125 7.5 46.339844 8.058594 46.339844 8.75 C 46.339844 9.441406 45.777344 10 45.089844 10 Z M 45.089844 10 "/>
<path style=" stroke:none;fill-rule:nonzero;fill:rgb(0%,0%,0%);fill-opacity:1;" d="M 46.339844 13.75 L 43.839844 13.75 C 43.148438 13.75 42.589844 13.191406 42.589844 12.5 C 42.589844 11.808594 43.148438 11.25 43.839844 11.25 L 46.339844 11.25 C 47.03125 11.25 47.589844 11.808594 47.589844 12.5 C 47.589844 13.191406 47.027344 13.75 46.339844 13.75 Z M 46.339844 13.75 "/>
<path style=" stroke:none;fill-rule:nonzero;fill:rgb(0%,0%,0%);fill-opacity:1;" d="M 36.339844 13.75 L 33.839844 13.75 C 33.148438 13.75 32.589844 13.191406 32.589844 12.5 C 32.589844 11.808594 33.148438 11.25 33.839844 11.25 L 36.339844 11.25 C 37.03125 11.25 37.589844 11.808594 37.589844 12.5 C 37.589844 13.191406 37.03125 13.75 36.339844 13.75 Z M 36.339844 13.75 "/>
</g>
</svg>
