<?xml version="1.0" encoding="UTF-8"?>
<svg xmlns="http://www.w3.org/2000/svg" xmlns:xlink="http://www.w3.org/1999/xlink" width="80pt" height="80pt" viewBox="0 0 80 80" version="1.1">
<g id="surface1">
<path style=" stroke:none;fill-rule:nonzero;fill:rgb(0%,0%,0%);fill-opacity:1;" d="M 28.757812 53.882812 C 17.734375 53.882812 8.765625 44.914062 8.765625 33.890625 C 8.765625 33.199219 9.324219 32.640625 10.015625 32.640625 C 10.707031 32.640625 11.265625 33.199219 11.265625 33.890625 C 11.265625 43.535156 19.109375 51.382812 28.757812 51.382812 C 38.40625 51.382812 46.253906 43.535156 46.253906 33.890625 C 46.253906 33.199219 46.8125 32.640625 47.503906 32.640625 C 48.191406 32.640625 48.75 33.199219 48.75 33.890625 C 48.75 44.914062 39.78125 53.882812 28.757812 53.882812 Z M 28.757812 53.882812 "/>
<path style=" stroke:none;fill-rule:nonzero;fill:rgb(0%,0%,0%);fill-opacity:1;" d="M 10.015625 35.136719 C 9.324219 35.136719 8.765625 34.578125 8.765625 33.890625 L 8.765625 25.46875 C 8.765625 24.78125 9.324219 24.21875 10.015625 24.21875 C 10.707031 24.21875 11.265625 24.78125 11.265625 25.46875 L 11.265625 33.890625 C 11.265625 34.578125 10.703125 35.136719 10.015625 35.136719 Z M 10.015625 35.136719 "/>
<path style=" stroke:none;fill-rule:nonzero;fill:rgb(0%,0%,0%);fill-opacity:1;" d="M 47.503906 35.136719 C 46.8125 35.136719 46.253906 34.578125 46.253906 33.890625 L 46.253906 22.640625 C 46.253906 21.949219 46.8125 21.390625 47.503906 21.390625 C 48.191406 21.390625 48.75 21.949219 48.75 22.640625 L 48.75 33.890625 C 48.75 34.578125 48.191406 35.136719 47.503906 35.136719 Z M 47.503906 35.136719 "/>
<path style=" stroke:none;fill-rule:nonzero;fill:rgb(0%,0%,0%);fill-opacity:1;" d="M 47.503906 23.890625 C 46.8125 23.890625 46.253906 23.332031 46.253906 22.640625 C 46.253906 12.308594 37.84375 3.898438 27.511719 3.898438 C 17.179688 3.898438 8.769531 12.308594 8.769531 22.640625 C 8.769531 23.332031 8.210938 23.890625 7.519531 23.890625 C 6.828125 23.890625 6.269531 23.332031 6.269531 22.640625 C 6.269531 10.929688 15.796875 1.402344 27.511719 1.402344 C 39.222656 1.402344 48.75 10.929688 48.75 22.640625 C 48.75 23.332031 48.191406 23.890625 47.503906 23.890625 Z M 47.503906 23.890625 "/>
<path style=" stroke:none;fill-rule:nonzero;fill:rgb(0%,0%,0%);fill-opacity:1;" d="M 47.503906 28.890625 C 47.125 28.890625 46.757812 28.71875 46.511719 28.398438 C 40.960938 21.15625 38.25 22.078125 32.308594 24.101562 C 27.039062 25.894531 19.824219 28.351562 7.324219 26.375 C 6.644531 26.265625 6.179688 25.625 6.285156 24.945312 C 6.394531 24.261719 7.03125 23.792969 7.714844 23.90625 C 19.601562 25.777344 26.480469 23.441406 31.503906 21.734375 C 37.742188 19.613281 41.859375 18.214844 48.496094 26.878906 C 48.914062 27.425781 48.8125 28.210938 48.261719 28.628906 C 48.035156 28.804688 47.769531 28.890625 47.503906 28.890625 Z M 47.503906 28.890625 "/>
<path style=" stroke:none;fill-rule:nonzero;fill:rgb(0%,0%,0%);fill-opacity:1;" d="M 7.519531 26.390625 C 6.828125 26.390625 6.269531 25.832031 6.269531 25.140625 L 6.269531 22.640625 C 6.269531 21.949219 6.828125 21.390625 7.519531 21.390625 C 8.210938 21.390625 8.769531 21.949219 8.769531 22.640625 L 8.769531 25.140625 C 8.769531 25.832031 8.210938 26.390625 7.519531 26.390625 Z M 7.519531 26.390625 "/>
<path style=" stroke:none;fill-rule:nonzero;fill:rgb(0%,0%,0%);fill-opacity:1;" d="M 38.753906 22.65625 C 38.457031 22.65625 38.160156 22.550781 37.921875 22.335938 C 37.40625 21.875 37.363281 21.085938 37.824219 20.570312 L 44.5625 13.058594 C 45.023438 12.546875 45.8125 12.503906 46.328125 12.964844 C 46.839844 13.425781 46.882812 14.214844 46.421875 14.730469 L 39.683594 22.242188 C 39.4375 22.515625 39.097656 22.65625 38.753906 22.65625 Z M 38.753906 22.65625 "/>
<path style=" stroke:none;fill-rule:nonzero;fill:rgb(0%,0%,0%);fill-opacity:1;" d="M 1.25 68.878906 C 0.558594 68.878906 0 68.320312 0 67.628906 C 0 61.425781 5.046875 56.382812 11.25 56.382812 C 11.941406 56.382812 12.5 56.941406 12.5 57.632812 C 12.5 58.320312 11.941406 58.878906 11.25 58.878906 C 6.425781 58.878906 2.5 62.804688 2.5 67.628906 C 2.5 68.320312 1.941406 68.878906 1.25 68.878906 Z M 1.25 68.878906 "/>
<path style=" stroke:none;fill-rule:nonzero;fill:rgb(0%,0%,0%);fill-opacity:1;" d="M 49.308594 59.363281 C 49.183594 59.363281 49.054688 59.34375 48.925781 59.304688 C 48.0625 59.023438 47.152344 58.882812 46.234375 58.882812 C 45.542969 58.882812 44.984375 58.324219 44.984375 57.632812 C 44.984375 56.941406 45.542969 56.382812 46.234375 56.382812 C 47.414062 56.382812 48.582031 56.566406 49.695312 56.925781 C 50.351562 57.136719 50.710938 57.839844 50.5 58.496094 C 50.328125 59.023438 49.839844 59.363281 49.308594 59.363281 Z M 49.308594 59.363281 "/>
<path style=" stroke:none;fill-rule:nonzero;fill:rgb(0%,0%,0%);fill-opacity:1;" d="M 19.992188 58.882812 L 11.25 58.878906 C 10.558594 58.878906 10 58.320312 10 57.632812 C 10 56.941406 10.558594 56.382812 11.25 56.382812 L 19.992188 56.382812 C 20.683594 56.382812 21.242188 56.941406 21.242188 57.632812 C 21.242188 58.324219 20.683594 58.882812 19.992188 58.882812 Z M 19.992188 58.882812 "/>
<path style=" stroke:none;fill-rule:nonzero;fill:rgb(0%,0%,0%);fill-opacity:1;" d="M 46.234375 58.882812 L 37.488281 58.878906 C 36.796875 58.878906 36.238281 58.320312 36.238281 57.632812 C 36.238281 56.941406 36.796875 56.382812 37.488281 56.382812 L 46.234375 56.382812 C 46.925781 56.382812 47.484375 56.941406 47.484375 57.632812 C 47.484375 58.324219 46.925781 58.882812 46.234375 58.882812 Z M 46.234375 58.882812 "/>
<path style=" stroke:none;fill-rule:nonzero;fill:rgb(0%,0%,0%);fill-opacity:1;" d="M 1.25 77.625 C 0.558594 77.625 0 77.0625 0 76.375 L 0 67.628906 C 0 66.9375 0.558594 66.378906 1.25 66.378906 C 1.941406 66.378906 2.5 66.9375 2.5 67.628906 L 2.5 76.375 C 2.5 77.0625 1.941406 77.625 1.25 77.625 Z M 1.25 77.625 "/>
<path style=" stroke:none;fill-rule:nonzero;fill:rgb(0%,0%,0%);fill-opacity:1;" d="M 2.5 78.871094 C 1.121094 78.871094 0 77.753906 0 76.375 C 0 75.683594 0.558594 75.125 1.25 75.125 C 1.941406 75.125 2.5 75.683594 2.5 76.375 C 3.191406 76.375 3.75 76.933594 3.75 77.625 C 3.75 78.3125 3.191406 78.871094 2.5 78.871094 Z M 2.5 78.871094 "/>
<path style=" stroke:none;fill-rule:nonzero;fill:rgb(0%,0%,0%);fill-opacity:1;" d="M 54.980469 78.871094 C 54.289062 78.871094 53.730469 78.3125 53.730469 77.625 C 53.730469 76.933594 54.289062 76.375 54.980469 76.375 L 54.984375 76.375 C 54.984375 75.683594 55.542969 75.125 56.234375 75.125 C 56.921875 75.125 57.480469 75.683594 57.480469 76.375 C 57.480469 77.753906 56.359375 78.871094 54.980469 78.871094 Z M 54.980469 78.871094 "/>
<path style=" stroke:none;fill-rule:nonzero;fill:rgb(0%,0%,0%);fill-opacity:1;" d="M 56.230469 77.625 C 55.539062 77.625 54.980469 77.0625 54.980469 76.375 L 54.980469 75.558594 C 54.980469 74.867188 55.539062 74.3125 56.230469 74.3125 C 56.921875 74.3125 57.480469 74.867188 57.480469 75.558594 L 57.480469 76.375 C 57.480469 77.0625 56.921875 77.625 56.230469 77.625 Z M 56.230469 77.625 "/>
<path style=" stroke:none;fill-rule:nonzero;fill:rgb(0%,0%,0%);fill-opacity:1;" d="M 54.980469 78.871094 L 2.5 78.871094 C 1.808594 78.871094 1.25 78.3125 1.25 77.625 C 1.25 76.933594 1.808594 76.375 2.5 76.375 L 54.980469 76.375 C 55.671875 76.375 56.230469 76.933594 56.230469 77.625 C 56.230469 78.3125 55.671875 78.871094 54.980469 78.871094 Z M 54.980469 78.871094 "/>
<path style=" stroke:none;fill-rule:nonzero;fill:rgb(0%,0%,0%);fill-opacity:1;" d="M 19.992188 58.882812 C 19.300781 58.882812 18.742188 58.324219 18.742188 57.632812 L 18.742188 50.472656 C 18.742188 49.78125 19.300781 49.222656 19.992188 49.222656 C 20.683594 49.222656 21.242188 49.78125 21.242188 50.472656 L 21.242188 57.632812 C 21.242188 58.324219 20.683594 58.882812 19.992188 58.882812 Z M 19.992188 58.882812 "/>
<path style=" stroke:none;fill-rule:nonzero;fill:rgb(0%,0%,0%);fill-opacity:1;" d="M 37.488281 58.878906 C 36.796875 58.878906 36.238281 58.320312 36.238281 57.632812 L 36.238281 50.472656 C 36.238281 49.78125 36.796875 49.222656 37.488281 49.222656 C 38.179688 49.222656 38.738281 49.78125 38.738281 50.472656 L 38.738281 57.632812 C 38.738281 58.320312 38.179688 58.878906 37.488281 58.878906 Z M 37.488281 58.878906 "/>
<path style=" stroke:none;fill-rule:nonzero;fill:rgb(0%,0%,0%);fill-opacity:1;" d="M 24.992188 61.378906 C 24.804688 61.378906 24.613281 61.335938 24.433594 61.246094 L 19.433594 58.75 C 18.816406 58.441406 18.566406 57.691406 18.875 57.074219 C 19.183594 56.457031 19.9375 56.207031 20.554688 56.515625 L 25.550781 59.011719 C 26.167969 59.320312 26.417969 60.070312 26.109375 60.6875 C 25.890625 61.125 25.449219 61.378906 24.992188 61.378906 Z M 24.992188 61.378906 "/>
<path style=" stroke:none;fill-rule:nonzero;fill:rgb(0%,0%,0%);fill-opacity:1;" d="M 24.992188 61.378906 C 24.46875 61.378906 23.980469 61.046875 23.808594 60.523438 C 23.589844 59.871094 23.941406 59.160156 24.597656 58.941406 L 28.347656 57.695312 C 29.003906 57.476562 29.707031 57.828125 29.925781 58.484375 C 30.144531 59.136719 29.792969 59.847656 29.136719 60.0625 L 25.386719 61.3125 C 25.253906 61.355469 25.121094 61.378906 24.992188 61.378906 Z M 24.992188 61.378906 "/>
<path style=" stroke:none;fill-rule:nonzero;fill:rgb(0%,0%,0%);fill-opacity:1;" d="M 32.488281 61.378906 C 32.359375 61.378906 32.226562 61.355469 32.09375 61.3125 L 28.347656 60.0625 C 27.691406 59.847656 27.335938 59.140625 27.554688 58.484375 C 27.773438 57.828125 28.476562 57.476562 29.136719 57.695312 L 32.886719 58.941406 C 33.539062 59.160156 33.894531 59.867188 33.675781 60.523438 C 33.5 61.046875 33.011719 61.378906 32.488281 61.378906 Z M 32.488281 61.378906 "/>
<path style=" stroke:none;fill-rule:nonzero;fill:rgb(0%,0%,0%);fill-opacity:1;" d="M 32.492188 61.378906 C 32.03125 61.378906 31.589844 61.125 31.371094 60.6875 C 31.0625 60.070312 31.3125 59.320312 31.929688 59.011719 L 36.925781 56.511719 C 37.546875 56.207031 38.296875 56.453125 38.605469 57.070312 C 38.914062 57.6875 38.664062 58.441406 38.046875 58.75 L 33.046875 61.246094 C 32.871094 61.335938 32.679688 61.378906 32.492188 61.378906 Z M 32.492188 61.378906 "/>
<path style=" stroke:none;fill-rule:nonzero;fill:rgb(0%,0%,0%);fill-opacity:1;" d="M 28.738281 78.871094 C 28.511719 78.871094 28.285156 78.8125 28.078125 78.683594 C 27.492188 78.316406 27.316406 77.546875 27.683594 76.960938 L 40.179688 56.96875 C 40.542969 56.382812 41.3125 56.207031 41.898438 56.574219 C 42.484375 56.9375 42.664062 57.710938 42.296875 58.296875 L 29.800781 78.285156 C 29.5625 78.664062 29.15625 78.871094 28.738281 78.871094 Z M 28.738281 78.871094 "/>
<path style=" stroke:none;fill-rule:nonzero;fill:rgb(0%,0%,0%);fill-opacity:1;" d="M 33.742188 78.871094 C 33.515625 78.871094 33.289062 78.8125 33.082031 78.683594 C 32.496094 78.316406 32.320312 77.546875 32.6875 76.960938 L 45.183594 56.96875 C 45.546875 56.382812 46.316406 56.207031 46.902344 56.574219 C 47.488281 56.9375 47.664062 57.710938 47.300781 58.296875 L 34.804688 78.285156 C 34.566406 78.664062 34.160156 78.871094 33.742188 78.871094 Z M 33.742188 78.871094 "/>
<path style=" stroke:none;fill-rule:nonzero;fill:rgb(0%,0%,0%);fill-opacity:1;" d="M 28.742188 78.871094 C 28.324219 78.871094 27.917969 78.664062 27.679688 78.285156 L 15.183594 58.292969 C 14.820312 57.707031 14.996094 56.9375 15.582031 56.574219 C 16.167969 56.207031 16.9375 56.382812 17.304688 56.96875 L 29.800781 76.960938 C 30.164062 77.546875 29.988281 78.316406 29.402344 78.679688 C 29.195312 78.8125 28.96875 78.871094 28.742188 78.871094 Z M 28.742188 78.871094 "/>
<path style=" stroke:none;fill-rule:nonzero;fill:rgb(0%,0%,0%);fill-opacity:1;" d="M 23.738281 78.871094 C 23.324219 78.871094 22.914062 78.664062 22.675781 78.285156 L 10.179688 58.292969 C 9.816406 57.710938 9.996094 56.9375 10.578125 56.574219 C 11.164062 56.207031 11.9375 56.382812 12.300781 56.96875 L 24.796875 76.960938 C 25.164062 77.546875 24.984375 78.316406 24.402344 78.679688 C 24.191406 78.8125 23.964844 78.871094 23.738281 78.871094 Z M 23.738281 78.871094 "/>
<path style=" stroke:none;fill-rule:nonzero;fill:rgb(0%,0%,0%);fill-opacity:1;" d="M 27.511719 65.148438 C 27.109375 65.148438 26.710938 64.953125 26.472656 64.59375 L 23.953125 60.824219 C 23.566406 60.25 23.722656 59.472656 24.296875 59.089844 C 24.871094 58.707031 25.644531 58.863281 26.03125 59.433594 L 28.550781 63.207031 C 28.933594 63.78125 28.777344 64.554688 28.207031 64.941406 C 27.992188 65.082031 27.75 65.148438 27.511719 65.148438 Z M 27.511719 65.148438 "/>
<path style=" stroke:none;fill-rule:nonzero;fill:rgb(0%,0%,0%);fill-opacity:1;" d="M 30.007812 65.148438 C 29.773438 65.148438 29.535156 65.082031 29.324219 64.945312 C 28.746094 64.566406 28.585938 63.789062 28.964844 63.210938 L 31.445312 59.441406 C 31.824219 58.867188 32.597656 58.707031 33.175781 59.085938 C 33.753906 59.464844 33.914062 60.238281 33.535156 60.816406 L 31.054688 64.585938 C 30.8125 64.949219 30.414062 65.148438 30.007812 65.148438 Z M 30.007812 65.148438 "/>
<path style=" stroke:none;fill-rule:nonzero;fill:rgb(0%,0%,0%);fill-opacity:1;" d="M 30.011719 65.148438 L 27.511719 65.148438 C 26.820312 65.148438 26.261719 64.589844 26.261719 63.902344 C 26.261719 63.210938 26.820312 62.652344 27.511719 62.652344 L 30.011719 62.652344 C 30.699219 62.652344 31.261719 63.210938 31.261719 63.902344 C 31.261719 64.589844 30.699219 65.148438 30.011719 65.148438 Z M 30.011719 65.148438 "/>
<path style=" stroke:none;fill-rule:nonzero;fill:rgb(0%,0%,0%);fill-opacity:1;" d="M 24.847656 72.648438 C 24.710938 72.648438 24.566406 72.625 24.429688 72.574219 C 23.777344 72.34375 23.441406 71.628906 23.671875 70.980469 L 26.335938 63.480469 C 26.566406 62.832031 27.277344 62.492188 27.929688 62.722656 C 28.582031 62.953125 28.917969 63.667969 28.6875 64.320312 L 26.023438 71.816406 C 25.84375 72.328125 25.363281 72.648438 24.847656 72.648438 Z M 24.847656 72.648438 "/>
<path style=" stroke:none;fill-rule:nonzero;fill:rgb(0%,0%,0%);fill-opacity:1;" d="M 32.628906 72.648438 C 32.113281 72.648438 31.628906 72.324219 31.449219 71.808594 L 28.828125 64.3125 C 28.601562 63.660156 28.945312 62.949219 29.597656 62.71875 C 30.25 62.496094 30.960938 62.835938 31.1875 63.488281 L 33.808594 70.984375 C 34.039062 71.636719 33.695312 72.351562 33.042969 72.578125 C 32.90625 72.625 32.769531 72.648438 32.628906 72.648438 Z M 32.628906 72.648438 "/>
<path style=" stroke:none;fill-rule:nonzero;fill:rgb(0%,0%,0%);fill-opacity:1;" d="M 16.246094 42.636719 C 15.554688 42.636719 14.996094 42.074219 14.996094 41.386719 C 14.996094 37.941406 17.796875 35.136719 21.242188 35.136719 C 21.933594 35.136719 22.492188 35.695312 22.492188 36.386719 C 22.492188 37.078125 21.933594 37.636719 21.242188 37.636719 C 19.175781 37.636719 17.496094 39.316406 17.496094 41.386719 C 17.496094 42.074219 16.9375 42.636719 16.246094 42.636719 Z M 16.246094 42.636719 "/>
<path style=" stroke:none;fill-rule:nonzero;fill:rgb(0%,0%,0%);fill-opacity:1;" d="M 16.246094 47.632812 C 15.554688 47.632812 14.996094 47.074219 14.996094 46.382812 C 14.996094 43.625 17.238281 41.386719 19.992188 41.386719 C 20.683594 41.386719 21.242188 41.945312 21.242188 42.636719 C 21.242188 43.324219 20.683594 43.882812 19.992188 43.882812 C 18.613281 43.882812 17.496094 45.003906 17.496094 46.382812 C 17.496094 47.074219 16.9375 47.632812 16.246094 47.632812 Z M 16.246094 47.632812 "/>
<path style=" stroke:none;fill-rule:nonzero;fill:rgb(0%,0%,0%);fill-opacity:1;" d="M 25.617188 43.882812 L 19.992188 43.882812 C 19.300781 43.882812 18.742188 43.324219 18.742188 42.636719 C 18.742188 41.945312 19.300781 41.386719 19.992188 41.386719 L 25.617188 41.386719 C 26.308594 41.386719 26.867188 41.945312 26.867188 42.636719 C 26.867188 43.324219 26.308594 43.882812 25.617188 43.882812 Z M 25.617188 43.882812 "/>
<path style=" stroke:none;fill-rule:nonzero;fill:rgb(0%,0%,0%);fill-opacity:1;" d="M 25.617188 37.636719 L 21.242188 37.636719 C 20.550781 37.636719 19.992188 37.078125 19.992188 36.386719 C 19.992188 35.695312 20.550781 35.136719 21.242188 35.136719 L 25.617188 35.136719 C 26.308594 35.136719 26.867188 35.695312 26.867188 36.386719 C 26.867188 37.078125 26.308594 37.636719 25.617188 37.636719 Z M 25.617188 37.636719 "/>
<path style=" stroke:none;fill-rule:nonzero;fill:rgb(0%,0%,0%);fill-opacity:1;" d="M 25.617188 43.882812 C 24.925781 43.882812 24.367188 43.324219 24.367188 42.636719 C 24.367188 41.945312 24.925781 41.386719 25.617188 41.386719 C 26.648438 41.386719 27.492188 40.542969 27.492188 39.511719 C 27.492188 38.476562 26.648438 37.636719 25.617188 37.636719 C 24.925781 37.636719 24.367188 37.078125 24.367188 36.386719 C 24.367188 35.695312 24.925781 35.136719 25.617188 35.136719 C 28.027344 35.136719 29.988281 37.097656 29.988281 39.511719 C 29.988281 41.921875 28.027344 43.882812 25.617188 43.882812 Z M 25.617188 43.882812 "/>
<path style=" stroke:none;fill-rule:nonzero;fill:rgb(0%,0%,0%);fill-opacity:1;" d="M 16.246094 48.882812 C 15.554688 48.882812 14.996094 48.324219 14.996094 47.632812 L 14.996094 41.386719 C 14.996094 40.695312 15.554688 40.136719 16.246094 40.136719 C 16.9375 40.136719 17.496094 40.695312 17.496094 41.386719 L 17.496094 47.632812 C 17.496094 48.324219 16.9375 48.882812 16.246094 48.882812 Z M 16.246094 48.882812 "/>
<path style=" stroke:none;fill-rule:nonzero;fill:rgb(0%,0%,0%);fill-opacity:1;" d="M 41.238281 42.636719 C 40.546875 42.636719 39.988281 42.074219 39.988281 41.386719 C 39.988281 39.316406 38.304688 37.636719 36.238281 37.636719 C 35.546875 37.636719 34.988281 37.078125 34.988281 36.386719 C 34.988281 35.695312 35.546875 35.136719 36.238281 35.136719 C 39.683594 35.136719 42.484375 37.941406 42.484375 41.386719 C 42.484375 42.074219 41.929688 42.636719 41.238281 42.636719 Z M 41.238281 42.636719 "/>
<path style=" stroke:none;fill-rule:nonzero;fill:rgb(0%,0%,0%);fill-opacity:1;" d="M 41.238281 47.632812 C 40.546875 47.632812 39.988281 47.074219 39.988281 46.382812 C 39.988281 45.003906 38.867188 43.882812 37.488281 43.882812 C 36.796875 43.882812 36.238281 43.324219 36.238281 42.636719 C 36.238281 41.945312 36.796875 41.386719 37.488281 41.386719 C 40.246094 41.386719 42.484375 43.625 42.484375 46.382812 C 42.484375 47.074219 41.929688 47.632812 41.238281 47.632812 Z M 41.238281 47.632812 "/>
<path style=" stroke:none;fill-rule:nonzero;fill:rgb(0%,0%,0%);fill-opacity:1;" d="M 37.488281 43.882812 L 31.863281 43.882812 C 31.171875 43.882812 30.613281 43.324219 30.613281 42.636719 C 30.613281 41.945312 31.171875 41.386719 31.863281 41.386719 L 37.488281 41.386719 C 38.179688 41.386719 38.738281 41.945312 38.738281 42.636719 C 38.738281 43.324219 38.179688 43.882812 37.488281 43.882812 Z M 37.488281 43.882812 "/>
<path style=" stroke:none;fill-rule:nonzero;fill:rgb(0%,0%,0%);fill-opacity:1;" d="M 36.238281 37.636719 L 31.863281 37.636719 C 31.171875 37.636719 30.613281 37.078125 30.613281 36.386719 C 30.613281 35.695312 31.171875 35.136719 31.863281 35.136719 L 36.238281 35.136719 C 36.929688 35.136719 37.488281 35.695312 37.488281 36.386719 C 37.488281 37.078125 36.929688 37.636719 36.238281 37.636719 Z M 36.238281 37.636719 "/>
<path style=" stroke:none;fill-rule:nonzero;fill:rgb(0%,0%,0%);fill-opacity:1;" d="M 31.863281 43.882812 C 29.453125 43.882812 27.492188 41.921875 27.492188 39.511719 C 27.492188 37.097656 29.453125 35.136719 31.863281 35.136719 C 32.554688 35.136719 33.113281 35.695312 33.113281 36.386719 C 33.113281 37.078125 32.554688 37.636719 31.863281 37.636719 C 30.832031 37.636719 29.988281 38.476562 29.988281 39.511719 C 29.988281 40.542969 30.832031 41.386719 31.863281 41.386719 C 32.554688 41.386719 33.113281 41.945312 33.113281 42.636719 C 33.113281 43.324219 32.554688 43.882812 31.863281 43.882812 Z M 31.863281 43.882812 "/>
<path style=" stroke:none;fill-rule:nonzero;fill:rgb(0%,0%,0%);fill-opacity:1;" d="M 41.238281 49.105469 C 40.546875 49.105469 39.988281 48.550781 39.988281 47.859375 L 39.988281 41.386719 C 39.988281 40.695312 40.546875 40.136719 41.238281 40.136719 C 41.929688 40.136719 42.484375 40.695312 42.484375 41.386719 L 42.484375 47.859375 C 42.484375 48.546875 41.929688 49.105469 41.238281 49.105469 Z M 41.238281 49.105469 "/>
<path style=" stroke:none;fill-rule:nonzero;fill:rgb(0%,0%,0%);fill-opacity:1;" d="M 63.722656 78.804688 C 54.765625 78.804688 47.480469 71.515625 47.480469 62.558594 C 47.480469 53.503906 54.726562 42.566406 63.722656 42.566406 C 72.722656 42.566406 79.96875 53.503906 79.96875 62.558594 C 79.96875 71.515625 72.679688 78.804688 63.722656 78.804688 Z M 63.722656 45.066406 C 56.320312 45.066406 49.980469 54.6875 49.980469 62.558594 C 49.980469 70.136719 56.144531 76.304688 63.722656 76.304688 C 71.304688 76.304688 77.46875 70.136719 77.46875 62.558594 C 77.46875 54.6875 71.125 45.066406 63.722656 45.066406 Z M 63.722656 45.066406 "/>
<path style=" stroke:none;fill-rule:nonzero;fill:rgb(0%,0%,0%);fill-opacity:1;" d="M 61.226562 45.386719 C 60.8125 45.386719 60.410156 45.183594 60.171875 44.808594 L 55.171875 36.992188 C 54.800781 36.410156 54.972656 35.636719 55.554688 35.265625 C 56.136719 34.894531 56.90625 35.066406 57.28125 35.644531 L 62.277344 43.464844 C 62.648438 44.046875 62.480469 44.816406 61.898438 45.191406 C 61.691406 45.324219 61.457031 45.386719 61.226562 45.386719 Z M 61.226562 45.386719 "/>
<path style=" stroke:none;fill-rule:nonzero;fill:rgb(0%,0%,0%);fill-opacity:1;" d="M 66.222656 45.386719 C 65.992188 45.386719 65.757812 45.324219 65.550781 45.191406 C 64.96875 44.816406 64.796875 44.046875 65.167969 43.464844 L 70.167969 35.644531 C 70.539062 35.0625 71.3125 34.890625 71.894531 35.265625 C 72.476562 35.636719 72.644531 36.410156 72.273438 36.992188 L 67.277344 44.808594 C 67.035156 45.183594 66.632812 45.386719 66.222656 45.386719 Z M 66.222656 45.386719 "/>
<path style=" stroke:none;fill-rule:nonzero;fill:rgb(0%,0%,0%);fill-opacity:1;" d="M 67.328125 38.6875 C 66.011719 38.6875 64.527344 38.355469 63.03125 37.359375 C 60.011719 35.34375 56.953125 37.339844 56.917969 37.359375 C 56.339844 37.738281 55.566406 37.585938 55.1875 37.011719 C 54.800781 36.4375 54.957031 35.664062 55.53125 35.28125 C 55.710938 35.160156 60.023438 32.347656 64.414062 35.28125 C 67.433594 37.292969 70.496094 35.300781 70.527344 35.28125 C 71.101562 34.894531 71.878906 35.050781 72.261719 35.625 C 72.644531 36.199219 72.488281 36.976562 71.914062 37.359375 C 71.796875 37.4375 69.878906 38.6875 67.328125 38.6875 Z M 67.328125 38.6875 "/>
<path style=" stroke:none;fill-rule:nonzero;fill:rgb(0%,0%,0%);fill-opacity:1;" d="M 63.746094 71.222656 C 58.921875 71.222656 54.996094 67.300781 54.996094 62.476562 C 54.996094 57.65625 58.921875 53.730469 63.746094 53.730469 C 68.566406 53.730469 72.492188 57.65625 72.492188 62.476562 C 72.492188 67.300781 68.566406 71.222656 63.746094 71.222656 Z M 63.746094 56.230469 C 60.296875 56.230469 57.496094 59.03125 57.496094 62.476562 C 57.496094 65.921875 60.296875 68.726562 63.746094 68.726562 C 67.1875 68.726562 69.992188 65.921875 69.992188 62.476562 C 69.992188 59.03125 67.1875 56.230469 63.746094 56.230469 Z M 63.746094 56.230469 "/>
<path style=" stroke:none;fill-rule:nonzero;fill:rgb(0%,0%,0%);fill-opacity:1;" d="M 63.722656 66.308594 C 63.03125 66.308594 62.472656 65.75 62.472656 65.058594 L 62.472656 60.058594 C 62.472656 59.371094 63.03125 58.8125 63.722656 58.8125 C 64.414062 58.8125 64.972656 59.371094 64.972656 60.058594 L 64.972656 65.058594 C 64.972656 65.75 64.414062 66.308594 63.722656 66.308594 Z M 63.722656 66.308594 "/>
</g>
</svg>
