<?xml version="1.0" encoding="UTF-8"?>
<svg xmlns="http://www.w3.org/2000/svg" xmlns:xlink="http://www.w3.org/1999/xlink" width="80pt" height="80pt" viewBox="0 0 80 80" version="1.1">
<g id="surface1">
<path style=" stroke:none;fill-rule:nonzero;fill:rgb(0%,0%,0%);fill-opacity:1;" d="M 11.234375 34.96875 C 10.542969 34.96875 9.984375 34.410156 9.984375 33.71875 L 9.984375 30.132812 C 9.984375 29.441406 10.542969 28.882812 11.234375 28.882812 C 11.925781 28.882812 12.484375 29.441406 12.484375 30.132812 L 12.484375 33.71875 C 12.484375 34.40625 11.925781 34.96875 11.234375 34.96875 Z M 11.234375 34.96875 "/>
<path style=" stroke:none;fill-rule:nonzero;fill:rgb(0%,0%,0%);fill-opacity:1;" d="M 28.734375 34.96875 C 28.042969 34.96875 27.484375 34.410156 27.484375 33.71875 L 27.484375 29.34375 C 27.484375 28.652344 28.042969 28.09375 28.734375 28.09375 C 29.425781 28.09375 29.984375 28.652344 29.984375 29.34375 L 29.984375 33.71875 C 29.984375 34.40625 29.425781 34.96875 28.734375 34.96875 Z M 28.734375 34.96875 "/>
<path style=" stroke:none;fill-rule:nonzero;fill:rgb(0%,0%,0%);fill-opacity:1;" d="M 28.734375 30.59375 C 28.042969 30.59375 27.484375 30.035156 27.484375 29.34375 C 27.484375 24.863281 23.839844 21.21875 19.359375 21.21875 C 14.878906 21.21875 11.234375 24.863281 11.234375 29.34375 C 11.234375 30.035156 10.675781 30.59375 9.984375 30.59375 C 9.292969 30.59375 8.734375 30.035156 8.734375 29.34375 C 8.734375 23.484375 13.5 18.71875 19.359375 18.71875 C 25.21875 18.71875 29.984375 23.484375 29.984375 29.34375 C 29.984375 30.03125 29.425781 30.59375 28.734375 30.59375 Z M 28.734375 30.59375 "/>
<path style=" stroke:none;fill-rule:nonzero;fill:rgb(0%,0%,0%);fill-opacity:1;" d="M 28.734375 32.308594 C 28.359375 32.308594 27.988281 32.136719 27.742188 31.816406 C 25.328125 28.664062 24.671875 28.925781 22.226562 29.894531 C 19.875 30.824219 16.332031 32.230469 9.789062 31.195312 C 9.109375 31.089844 8.644531 30.449219 8.753906 29.765625 C 8.859375 29.085938 9.5 28.617188 10.183594 28.726562 C 16.046875 29.652344 19.085938 28.449219 21.304688 27.570312 C 24.316406 26.375 26.335938 25.867188 29.726562 30.296875 C 30.148438 30.84375 30.042969 31.628906 29.496094 32.046875 C 29.269531 32.222656 29 32.308594 28.734375 32.308594 Z M 28.734375 32.308594 "/>
<path style=" stroke:none;fill-rule:nonzero;fill:rgb(0%,0%,0%);fill-opacity:1;" d="M 23.734375 29.3125 C 23.550781 29.3125 23.363281 29.273438 23.183594 29.183594 C 22.566406 28.878906 22.3125 28.128906 22.613281 27.511719 L 25.113281 22.421875 C 25.417969 21.800781 26.164062 21.546875 26.785156 21.851562 C 27.40625 22.15625 27.660156 22.90625 27.359375 23.523438 L 24.859375 28.613281 C 24.640625 29.058594 24.195312 29.3125 23.734375 29.3125 Z M 23.734375 29.3125 "/>
<path style=" stroke:none;fill-rule:nonzero;fill:rgb(0%,0%,0%);fill-opacity:1;" d="M 9.984375 49.960938 C 9.292969 49.960938 8.734375 49.402344 8.734375 48.710938 C 8.734375 45.953125 10.980469 43.710938 13.734375 43.710938 C 14.425781 43.710938 14.984375 44.269531 14.984375 44.960938 C 14.984375 45.652344 14.425781 46.210938 13.734375 46.210938 C 12.355469 46.210938 11.234375 47.332031 11.234375 48.710938 C 11.234375 49.402344 10.675781 49.960938 9.984375 49.960938 Z M 9.984375 49.960938 "/>
<path style=" stroke:none;fill-rule:nonzero;fill:rgb(0%,0%,0%);fill-opacity:1;" d="M 16.234375 46.21875 L 13.734375 46.21875 C 13.042969 46.21875 12.484375 45.660156 12.484375 44.96875 C 12.484375 44.277344 13.042969 43.71875 13.734375 43.71875 L 16.234375 43.71875 C 16.925781 43.71875 17.484375 44.277344 17.484375 44.96875 C 17.484375 45.660156 16.925781 46.21875 16.234375 46.21875 Z M 16.234375 46.21875 "/>
<path style=" stroke:none;fill-rule:nonzero;fill:rgb(0%,0%,0%);fill-opacity:1;" d="M 9.984375 52.464844 C 9.292969 52.464844 8.734375 51.90625 8.734375 51.214844 L 8.734375 48.710938 C 8.734375 48.019531 9.292969 47.460938 9.984375 47.460938 C 10.675781 47.460938 11.234375 48.019531 11.234375 48.710938 L 11.234375 51.214844 C 11.234375 51.90625 10.675781 52.464844 9.984375 52.464844 Z M 9.984375 52.464844 "/>
<path style=" stroke:none;fill-rule:nonzero;fill:rgb(0%,0%,0%);fill-opacity:1;" d="M 29.984375 49.960938 C 29.292969 49.960938 28.734375 49.402344 28.734375 48.710938 C 28.734375 47.332031 27.613281 46.210938 26.234375 46.210938 C 25.542969 46.210938 24.984375 45.652344 24.984375 44.960938 C 24.984375 44.269531 25.542969 43.710938 26.234375 43.710938 C 28.992188 43.710938 31.234375 45.953125 31.234375 48.710938 C 31.234375 49.402344 30.675781 49.960938 29.984375 49.960938 Z M 29.984375 49.960938 "/>
<path style=" stroke:none;fill-rule:nonzero;fill:rgb(0%,0%,0%);fill-opacity:1;" d="M 26.234375 46.21875 L 23.734375 46.21875 C 23.042969 46.21875 22.484375 45.660156 22.484375 44.96875 C 22.484375 44.277344 23.042969 43.71875 23.734375 43.71875 L 26.234375 43.71875 C 26.925781 43.71875 27.484375 44.277344 27.484375 44.96875 C 27.484375 45.660156 26.925781 46.21875 26.234375 46.21875 Z M 26.234375 46.21875 "/>
<path style=" stroke:none;fill-rule:nonzero;fill:rgb(0%,0%,0%);fill-opacity:1;" d="M 29.984375 52.464844 C 29.292969 52.464844 28.734375 51.90625 28.734375 51.214844 L 28.734375 48.710938 C 28.734375 48.019531 29.292969 47.460938 29.984375 47.460938 C 30.675781 47.460938 31.234375 48.019531 31.234375 48.710938 L 31.234375 51.214844 C 31.234375 51.90625 30.675781 52.464844 29.984375 52.464844 Z M 29.984375 52.464844 "/>
<path style=" stroke:none;fill-rule:nonzero;fill:rgb(0%,0%,0%);fill-opacity:1;" d="M 16.234375 46.21875 C 15.542969 46.21875 14.984375 45.660156 14.984375 44.96875 L 14.984375 41.613281 C 14.984375 40.925781 15.542969 40.363281 16.234375 40.363281 C 16.925781 40.363281 17.484375 40.925781 17.484375 41.613281 L 17.484375 44.96875 C 17.484375 45.660156 16.925781 46.21875 16.234375 46.21875 Z M 16.234375 46.21875 "/>
<path style=" stroke:none;fill-rule:nonzero;fill:rgb(0%,0%,0%);fill-opacity:1;" d="M 23.734375 46.210938 C 23.042969 46.210938 22.484375 45.652344 22.484375 44.960938 L 22.484375 41.613281 C 22.484375 40.925781 23.042969 40.363281 23.734375 40.363281 C 24.425781 40.363281 24.984375 40.925781 24.984375 41.613281 L 24.984375 44.960938 C 24.984375 45.652344 24.425781 46.210938 23.734375 46.210938 Z M 23.734375 46.210938 "/>
<path style=" stroke:none;fill-rule:nonzero;fill:rgb(0%,0%,0%);fill-opacity:1;" d="M 19.984375 43.707031 C 14.472656 43.707031 9.984375 39.222656 9.984375 33.714844 C 9.984375 33.019531 10.542969 32.464844 11.234375 32.464844 C 11.925781 32.464844 12.484375 33.019531 12.484375 33.714844 C 12.484375 37.847656 15.851562 41.207031 19.984375 41.207031 C 24.121094 41.207031 27.484375 37.847656 27.484375 33.714844 C 27.484375 33.019531 28.042969 32.464844 28.734375 32.464844 C 29.425781 32.464844 29.984375 33.019531 29.984375 33.714844 C 29.984375 39.222656 25.5 43.707031 19.984375 43.707031 Z M 19.984375 43.707031 "/>
<path style=" stroke:none;fill-rule:nonzero;fill:rgb(0%,0%,0%);fill-opacity:1;" d="M 17.488281 47.46875 C 17.027344 47.46875 16.585938 47.214844 16.367188 46.777344 C 16.058594 46.160156 16.308594 45.40625 16.925781 45.097656 L 19.425781 43.847656 C 20.042969 43.542969 20.792969 43.789062 21.101562 44.40625 C 21.410156 45.023438 21.160156 45.777344 20.542969 46.085938 L 18.042969 47.335938 C 17.867188 47.421875 17.675781 47.46875 17.488281 47.46875 Z M 17.488281 47.46875 "/>
<path style=" stroke:none;fill-rule:nonzero;fill:rgb(0%,0%,0%);fill-opacity:1;" d="M 22.484375 47.46875 C 22.167969 47.46875 21.847656 47.347656 21.601562 47.101562 C 21.113281 46.613281 21.113281 45.824219 21.601562 45.335938 L 22.851562 44.078125 C 23.339844 43.59375 24.128906 43.585938 24.617188 44.078125 C 25.105469 44.566406 25.109375 45.355469 24.621094 45.84375 L 23.371094 47.101562 C 23.125 47.34375 22.808594 47.46875 22.484375 47.46875 Z M 22.484375 47.46875 "/>
<path style=" stroke:none;fill-rule:nonzero;fill:rgb(0%,0%,0%);fill-opacity:1;" d="M 17.484375 47.46875 C 17.164062 47.46875 16.84375 47.34375 16.601562 47.101562 L 15.351562 45.84375 C 14.863281 45.355469 14.863281 44.566406 15.355469 44.078125 C 15.84375 43.585938 16.632812 43.589844 17.121094 44.078125 L 18.371094 45.335938 C 18.859375 45.824219 18.855469 46.613281 18.367188 47.101562 C 18.125 47.347656 17.804688 47.46875 17.484375 47.46875 Z M 17.484375 47.46875 "/>
<path style=" stroke:none;fill-rule:nonzero;fill:rgb(0%,0%,0%);fill-opacity:1;" d="M 22.484375 47.46875 C 22.296875 47.46875 22.105469 47.425781 21.925781 47.335938 L 19.425781 46.085938 C 18.808594 45.777344 18.558594 45.027344 18.867188 44.410156 C 19.179688 43.792969 19.929688 43.542969 20.546875 43.851562 L 23.046875 45.101562 C 23.664062 45.410156 23.914062 46.160156 23.605469 46.777344 C 23.382812 47.214844 22.941406 47.46875 22.484375 47.46875 Z M 22.484375 47.46875 "/>
<path style=" stroke:none;fill-rule:nonzero;fill:rgb(0%,0%,0%);fill-opacity:1;" d="M 36.257812 56.21875 L 3.753906 56.21875 C 3.0625 56.21875 2.503906 55.65625 2.503906 54.96875 L 2.503906 51.21875 C 2.503906 50.527344 3.0625 49.96875 3.753906 49.96875 L 36.257812 49.96875 C 36.949219 49.96875 37.507812 50.527344 37.507812 51.21875 L 37.507812 54.96875 C 37.507812 55.65625 36.949219 56.21875 36.257812 56.21875 Z M 5.003906 53.71875 L 35.007812 53.71875 L 35.007812 52.46875 L 5.003906 52.46875 Z M 5.003906 53.71875 "/>
<path style=" stroke:none;fill-rule:nonzero;fill:rgb(0%,0%,0%);fill-opacity:1;" d="M 4.980469 74.976562 C 4.292969 74.976562 3.730469 74.417969 3.730469 73.726562 L 3.730469 54.945312 C 3.730469 54.253906 4.292969 53.695312 4.980469 53.695312 C 5.671875 53.695312 6.230469 54.253906 6.230469 54.945312 L 6.230469 73.726562 C 6.230469 74.417969 5.671875 74.976562 4.980469 74.976562 Z M 4.980469 74.976562 "/>
<path style=" stroke:none;fill-rule:nonzero;fill:rgb(0%,0%,0%);fill-opacity:1;" d="M 35.007812 74.976562 C 34.316406 74.976562 33.757812 74.417969 33.757812 73.726562 L 33.757812 54.945312 C 33.757812 54.253906 34.316406 53.695312 35.007812 53.695312 C 35.699219 53.695312 36.257812 54.253906 36.257812 54.945312 L 36.257812 73.726562 C 36.257812 74.417969 35.699219 74.976562 35.007812 74.976562 Z M 35.007812 74.976562 "/>
<path style=" stroke:none;fill-rule:nonzero;fill:rgb(0%,0%,0%);fill-opacity:1;" d="M 6.257812 52.464844 C 5.566406 52.464844 5.007812 51.90625 5.007812 51.214844 L 5.007812 44.960938 C 5.007812 44.269531 5.566406 43.710938 6.257812 43.710938 C 6.949219 43.710938 7.507812 44.269531 7.507812 44.960938 L 7.507812 51.214844 C 7.507812 51.90625 6.949219 52.464844 6.257812 52.464844 Z M 6.257812 52.464844 "/>
<path style=" stroke:none;fill-rule:nonzero;fill:rgb(0%,0%,0%);fill-opacity:1;" d="M 6.257812 46.210938 C 5.9375 46.210938 5.617188 46.089844 5.375 45.847656 C 4.886719 45.359375 4.886719 44.566406 5.375 44.078125 L 7.871094 41.582031 C 8.359375 41.09375 9.148438 41.09375 9.636719 41.582031 C 10.128906 42.070312 10.128906 42.859375 9.636719 43.347656 L 7.140625 45.847656 C 6.898438 46.089844 6.578125 46.210938 6.257812 46.210938 Z M 6.257812 46.210938 "/>
<path style=" stroke:none;fill-rule:nonzero;fill:rgb(0%,0%,0%);fill-opacity:1;" d="M 33.753906 52.464844 C 33.0625 52.464844 32.503906 51.90625 32.503906 51.214844 L 32.503906 44.960938 C 32.503906 44.269531 33.0625 43.710938 33.753906 43.710938 C 34.445312 43.710938 35.003906 44.269531 35.003906 44.960938 L 35.003906 51.214844 C 35.003906 51.90625 34.445312 52.464844 33.753906 52.464844 Z M 33.753906 52.464844 "/>
<path style=" stroke:none;fill-rule:nonzero;fill:rgb(0%,0%,0%);fill-opacity:1;" d="M 33.753906 46.210938 C 33.433594 46.210938 33.113281 46.089844 32.871094 45.847656 L 30.371094 43.347656 C 29.882812 42.859375 29.882812 42.070312 30.371094 41.582031 C 30.863281 41.09375 31.652344 41.09375 32.140625 41.582031 L 34.636719 44.078125 C 35.125 44.566406 35.125 45.359375 34.636719 45.847656 C 34.394531 46.089844 34.074219 46.210938 33.753906 46.210938 Z M 33.753906 46.210938 "/>
<path style=" stroke:none;fill-rule:nonzero;fill:rgb(0%,0%,0%);fill-opacity:1;" d="M 36.265625 79.972656 L 3.757812 79.972656 C 3.070312 79.972656 2.507812 79.414062 2.507812 78.722656 L 2.507812 73.730469 C 2.507812 73.039062 3.070312 72.480469 3.757812 72.480469 L 36.265625 72.480469 C 36.957031 72.480469 37.515625 73.039062 37.515625 73.730469 L 37.515625 78.722656 C 37.515625 79.414062 36.957031 79.972656 36.265625 79.972656 Z M 5.007812 77.472656 L 35.015625 77.472656 L 35.015625 74.980469 L 5.007812 74.980469 Z M 5.007812 77.472656 "/>
<path style=" stroke:none;fill-rule:nonzero;fill:rgb(0%,0%,0%);fill-opacity:1;" d="M 48.746094 73.742188 C 48.054688 73.742188 47.496094 73.183594 47.496094 72.492188 C 47.496094 68.359375 50.859375 64.996094 54.996094 64.996094 C 55.6875 64.996094 56.246094 65.554688 56.246094 66.246094 C 56.246094 66.933594 55.6875 67.496094 54.996094 67.496094 C 52.238281 67.496094 49.996094 69.738281 49.996094 72.492188 C 49.996094 73.183594 49.4375 73.742188 48.746094 73.742188 Z M 48.746094 73.742188 "/>
<path style=" stroke:none;fill-rule:nonzero;fill:rgb(0%,0%,0%);fill-opacity:1;" d="M 57.496094 67.496094 L 54.996094 67.496094 C 54.304688 67.496094 53.746094 66.933594 53.746094 66.246094 C 53.746094 65.554688 54.304688 64.996094 54.996094 64.996094 L 57.496094 64.996094 C 58.183594 64.996094 58.746094 65.554688 58.746094 66.246094 C 58.746094 66.933594 58.183594 67.496094 57.496094 67.496094 Z M 57.496094 67.496094 "/>
<path style=" stroke:none;fill-rule:nonzero;fill:rgb(0%,0%,0%);fill-opacity:1;" d="M 48.746094 78.746094 C 48.054688 78.746094 47.496094 78.1875 47.496094 77.496094 L 47.496094 72.492188 C 47.496094 71.800781 48.054688 71.242188 48.746094 71.242188 C 49.4375 71.242188 49.996094 71.800781 49.996094 72.492188 L 49.996094 77.496094 C 49.996094 78.1875 49.4375 78.746094 48.746094 78.746094 Z M 48.746094 78.746094 "/>
<path style=" stroke:none;fill-rule:nonzero;fill:rgb(0%,0%,0%);fill-opacity:1;" d="M 76.242188 73.742188 C 75.550781 73.742188 74.992188 73.183594 74.992188 72.492188 C 74.992188 69.738281 72.75 67.496094 69.992188 67.496094 C 69.300781 67.496094 68.742188 66.933594 68.742188 66.246094 C 68.742188 65.554688 69.300781 64.996094 69.992188 64.996094 C 74.128906 64.996094 77.492188 68.359375 77.492188 72.492188 C 77.492188 73.183594 76.933594 73.742188 76.242188 73.742188 Z M 76.242188 73.742188 "/>
<path style=" stroke:none;fill-rule:nonzero;fill:rgb(0%,0%,0%);fill-opacity:1;" d="M 69.992188 67.496094 L 67.496094 67.496094 C 66.804688 67.496094 66.246094 66.933594 66.246094 66.246094 C 66.246094 65.554688 66.804688 64.996094 67.496094 64.996094 L 69.992188 64.996094 C 70.683594 64.996094 71.242188 65.554688 71.242188 66.246094 C 71.242188 66.933594 70.683594 67.496094 69.992188 67.496094 Z M 69.992188 67.496094 "/>
<path style=" stroke:none;fill-rule:nonzero;fill:rgb(0%,0%,0%);fill-opacity:1;" d="M 76.242188 78.746094 C 75.550781 78.746094 74.992188 78.1875 74.992188 77.496094 L 74.992188 72.492188 C 74.992188 71.800781 75.550781 71.242188 76.242188 71.242188 C 76.933594 71.242188 77.492188 71.800781 77.492188 72.492188 L 77.492188 77.496094 C 77.492188 78.1875 76.933594 78.746094 76.242188 78.746094 Z M 76.242188 78.746094 "/>
<path style=" stroke:none;fill-rule:nonzero;fill:rgb(0%,0%,0%);fill-opacity:1;" d="M 57.496094 67.496094 C 56.804688 67.496094 56.246094 66.933594 56.246094 66.246094 L 56.246094 61.324219 C 56.246094 60.632812 56.804688 60.074219 57.496094 60.074219 C 58.183594 60.074219 58.746094 60.632812 58.746094 61.324219 L 58.746094 66.246094 C 58.746094 66.933594 58.183594 67.496094 57.496094 67.496094 Z M 57.496094 67.496094 "/>
<path style=" stroke:none;fill-rule:nonzero;fill:rgb(0%,0%,0%);fill-opacity:1;" d="M 67.496094 67.496094 C 66.804688 67.496094 66.246094 66.933594 66.246094 66.246094 L 66.246094 61.324219 C 66.246094 60.632812 66.804688 60.074219 67.496094 60.074219 C 68.183594 60.074219 68.746094 60.632812 68.746094 61.324219 L 68.746094 66.246094 C 68.746094 66.933594 68.183594 67.496094 67.496094 67.496094 Z M 67.496094 67.496094 "/>
<path style=" stroke:none;fill-rule:nonzero;fill:rgb(0%,0%,0%);fill-opacity:1;" d="M 62.496094 63.746094 C 55.601562 63.746094 49.996094 58.136719 49.996094 51.246094 C 49.996094 50.554688 50.554688 49.996094 51.246094 49.996094 C 51.9375 49.996094 52.496094 50.554688 52.496094 51.246094 C 52.496094 56.757812 56.980469 61.246094 62.496094 61.246094 C 68.007812 61.246094 72.492188 56.757812 72.492188 51.246094 C 72.492188 50.554688 73.050781 49.996094 73.742188 49.996094 C 74.433594 49.996094 74.992188 50.554688 74.992188 51.246094 C 74.992188 58.136719 69.386719 63.746094 62.496094 63.746094 Z M 62.496094 63.746094 "/>
<path style=" stroke:none;fill-rule:nonzero;fill:rgb(0%,0%,0%);fill-opacity:1;" d="M 51.246094 52.558594 C 50.554688 52.558594 49.996094 52 49.996094 51.308594 L 49.996094 43.742188 C 49.996094 43.050781 50.554688 42.492188 51.246094 42.492188 C 51.9375 42.492188 52.496094 43.050781 52.496094 43.742188 L 52.496094 51.308594 C 52.496094 52 51.9375 52.558594 51.246094 52.558594 Z M 51.246094 52.558594 "/>
<path style=" stroke:none;fill-rule:nonzero;fill:rgb(0%,0%,0%);fill-opacity:1;" d="M 73.742188 52.496094 C 73.050781 52.496094 72.492188 51.9375 72.492188 51.246094 L 72.492188 43.742188 C 72.492188 43.050781 73.050781 42.492188 73.742188 42.492188 C 74.433594 42.492188 74.992188 43.050781 74.992188 43.742188 L 74.992188 51.246094 C 74.992188 51.9375 74.433594 52.496094 73.742188 52.496094 Z M 73.742188 52.496094 "/>
<path style=" stroke:none;fill-rule:nonzero;fill:rgb(0%,0%,0%);fill-opacity:1;" d="M 73.742188 44.992188 C 73.050781 44.992188 72.492188 44.433594 72.492188 43.742188 C 72.492188 41.675781 70.8125 39.992188 68.746094 39.992188 C 68.050781 39.992188 67.496094 39.433594 67.496094 38.742188 C 67.496094 38.050781 68.050781 37.492188 68.746094 37.492188 C 72.191406 37.492188 74.992188 40.292969 74.992188 43.742188 C 74.992188 44.433594 74.433594 44.992188 73.742188 44.992188 Z M 73.742188 44.992188 "/>
<path style=" stroke:none;fill-rule:nonzero;fill:rgb(0%,0%,0%);fill-opacity:1;" d="M 68.746094 39.992188 C 68.050781 39.992188 67.496094 39.433594 67.496094 38.742188 L 67.496094 33.742188 C 67.496094 33.050781 68.050781 32.492188 68.746094 32.492188 C 69.433594 32.492188 69.996094 33.050781 69.996094 33.742188 L 69.996094 38.742188 C 69.996094 39.433594 69.433594 39.992188 68.746094 39.992188 Z M 68.746094 39.992188 "/>
<path style=" stroke:none;fill-rule:nonzero;fill:rgb(0%,0%,0%);fill-opacity:1;" d="M 68.746094 34.992188 L 61.246094 34.992188 C 60.554688 34.992188 59.996094 34.433594 59.996094 33.742188 C 59.996094 33.050781 60.554688 32.492188 61.246094 32.492188 L 68.746094 32.492188 C 69.433594 32.492188 69.996094 33.050781 69.996094 33.742188 C 69.996094 34.433594 69.433594 34.992188 68.746094 34.992188 Z M 68.746094 34.992188 "/>
<path style=" stroke:none;fill-rule:nonzero;fill:rgb(0%,0%,0%);fill-opacity:1;" d="M 51.246094 44.992188 C 50.554688 44.992188 49.996094 44.433594 49.996094 43.742188 C 49.996094 37.539062 55.042969 32.492188 61.246094 32.492188 C 61.933594 32.492188 62.496094 33.050781 62.496094 33.742188 C 62.496094 34.433594 61.933594 34.992188 61.246094 34.992188 C 56.421875 34.992188 52.496094 38.917969 52.496094 43.742188 C 52.496094 44.433594 51.9375 44.992188 51.246094 44.992188 Z M 51.246094 44.992188 "/>
<path style=" stroke:none;fill-rule:nonzero;fill:rgb(0%,0%,0%);fill-opacity:1;" d="M 73.742188 48.777344 C 73.503906 48.777344 73.257812 48.707031 73.042969 48.5625 L 69.292969 46.03125 C 68.722656 45.640625 68.570312 44.863281 68.957031 44.292969 C 69.34375 43.722656 70.121094 43.570312 70.691406 43.957031 L 74.441406 46.488281 C 75.015625 46.875 75.164062 47.652344 74.78125 48.226562 C 74.539062 48.582031 74.144531 48.777344 73.742188 48.777344 Z M 73.742188 48.777344 "/>
<path style=" stroke:none;fill-rule:nonzero;fill:rgb(0%,0%,0%);fill-opacity:1;" d="M 63.121094 47.492188 C 58.605469 47.492188 54.761719 46.230469 54.601562 46.179688 C 53.945312 45.960938 53.589844 45.253906 53.808594 44.597656 C 54.027344 43.945312 54.726562 43.589844 55.390625 43.804688 C 55.425781 43.816406 59.023438 44.992188 63.121094 44.992188 C 67.144531 44.992188 69.414062 43.882812 69.4375 43.871094 C 70.058594 43.558594 70.804688 43.816406 71.113281 44.433594 C 71.421875 45.050781 71.171875 45.800781 70.554688 46.109375 C 70.4375 46.167969 67.726562 47.492188 63.121094 47.492188 Z M 63.121094 47.492188 "/>
<path style=" stroke:none;fill-rule:nonzero;fill:rgb(0%,0%,0%);fill-opacity:1;" d="M 51.246094 48.777344 C 50.84375 48.777344 50.449219 48.582031 50.207031 48.226562 C 49.820312 47.65625 49.972656 46.878906 50.546875 46.488281 L 54.296875 43.957031 C 54.871094 43.570312 55.644531 43.722656 56.03125 44.292969 C 56.417969 44.867188 56.265625 45.644531 55.695312 46.03125 L 51.945312 48.5625 C 51.730469 48.707031 51.484375 48.777344 51.246094 48.777344 Z M 51.246094 48.777344 "/>
<path style=" stroke:none;fill-rule:nonzero;fill:rgb(0%,0%,0%);fill-opacity:1;" d="M 59.992188 68.746094 C 59.804688 68.746094 59.613281 68.703125 59.433594 68.613281 L 56.933594 67.363281 C 56.320312 67.054688 56.066406 66.304688 56.378906 65.683594 C 56.6875 65.066406 57.4375 64.820312 58.054688 65.125 L 60.554688 66.375 C 61.171875 66.683594 61.421875 67.4375 61.113281 68.054688 C 60.894531 68.492188 60.453125 68.746094 59.992188 68.746094 Z M 59.992188 68.746094 "/>
<path style=" stroke:none;fill-rule:nonzero;fill:rgb(0%,0%,0%);fill-opacity:1;" d="M 59.996094 68.746094 C 59.535156 68.746094 59.09375 68.492188 58.875 68.050781 C 58.566406 67.4375 58.816406 66.683594 59.433594 66.375 L 61.933594 65.125 C 62.550781 64.816406 63.304688 65.066406 63.613281 65.683594 C 63.921875 66.300781 63.671875 67.054688 63.054688 67.363281 L 60.554688 68.613281 C 60.375 68.703125 60.183594 68.746094 59.996094 68.746094 Z M 59.996094 68.746094 "/>
<path style=" stroke:none;fill-rule:nonzero;fill:rgb(0%,0%,0%);fill-opacity:1;" d="M 64.996094 68.746094 C 64.535156 68.746094 64.09375 68.492188 63.875 68.050781 C 63.566406 67.4375 63.816406 66.683594 64.433594 66.375 L 66.933594 65.125 C 67.554688 64.816406 68.300781 65.066406 68.613281 65.683594 C 68.921875 66.300781 68.671875 67.054688 68.050781 67.363281 L 65.554688 68.613281 C 65.375 68.703125 65.183594 68.746094 64.996094 68.746094 Z M 64.996094 68.746094 "/>
<path style=" stroke:none;fill-rule:nonzero;fill:rgb(0%,0%,0%);fill-opacity:1;" d="M 64.992188 68.746094 C 64.804688 68.746094 64.613281 68.703125 64.433594 68.613281 L 61.933594 67.363281 C 61.316406 67.054688 61.066406 66.304688 61.375 65.683594 C 61.6875 65.066406 62.4375 64.820312 63.054688 65.125 L 65.554688 66.375 C 66.171875 66.683594 66.421875 67.4375 66.113281 68.054688 C 65.894531 68.492188 65.453125 68.746094 64.992188 68.746094 Z M 64.992188 68.746094 "/>
<path style=" stroke:none;fill-rule:nonzero;fill:rgb(0%,0%,0%);fill-opacity:1;" d="M 50 80 C 48.621094 80 47.496094 78.875 47.496094 77.496094 C 47.496094 76.804688 48.054688 76.246094 48.746094 76.246094 C 49.4375 76.246094 49.996094 76.804688 49.996094 77.496094 C 50.6875 77.496094 51.25 78.058594 51.25 78.75 C 51.25 79.441406 50.691406 80 50 80 Z M 50 80 "/>
<path style=" stroke:none;fill-rule:nonzero;fill:rgb(0%,0%,0%);fill-opacity:1;" d="M 74.988281 80 C 74.296875 80 73.738281 79.441406 73.738281 78.75 C 73.738281 78.058594 74.296875 77.5 74.988281 77.5 C 74.988281 76.808594 75.546875 76.246094 76.242188 76.246094 C 76.929688 76.246094 77.492188 76.804688 77.492188 77.496094 C 77.492188 78.875 76.367188 80 74.988281 80 Z M 74.988281 80 "/>
<path style=" stroke:none;fill-rule:nonzero;fill:rgb(0%,0%,0%);fill-opacity:1;" d="M 74.988281 80 L 50 80 C 49.308594 80 48.75 79.441406 48.75 78.75 C 48.75 78.058594 49.308594 77.5 50 77.5 L 74.988281 77.5 C 75.679688 77.5 76.238281 78.058594 76.238281 78.75 C 76.238281 79.441406 75.679688 80 74.988281 80 Z M 74.988281 80 "/>
<path style=" stroke:none;fill-rule:nonzero;fill:rgb(0%,0%,0%);fill-opacity:1;" d="M 64.996094 79.996094 C 64.917969 79.996094 64.832031 79.988281 64.75 79.972656 C 64.074219 79.835938 63.632812 79.179688 63.769531 78.5 L 66.269531 66 C 66.402344 65.324219 67.054688 64.878906 67.738281 65.019531 C 68.417969 65.152344 68.855469 65.8125 68.71875 66.488281 L 66.222656 78.992188 C 66.101562 79.585938 65.582031 79.996094 64.996094 79.996094 Z M 64.996094 79.996094 "/>
<path style=" stroke:none;fill-rule:nonzero;fill:rgb(0%,0%,0%);fill-opacity:1;" d="M 68.75 79.996094 C 68.667969 79.996094 68.585938 79.988281 68.5 79.972656 C 67.824219 79.835938 67.386719 79.175781 67.523438 78.496094 L 70.023438 66.121094 C 70.15625 65.445312 70.8125 65.003906 71.496094 65.144531 C 72.171875 65.28125 72.609375 65.941406 72.472656 66.617188 L 69.976562 78.992188 C 69.855469 79.585938 69.332031 79.996094 68.75 79.996094 Z M 68.75 79.996094 "/>
<path style=" stroke:none;fill-rule:nonzero;fill:rgb(0%,0%,0%);fill-opacity:1;" d="M 59.984375 79.996094 C 59.402344 79.996094 58.878906 79.585938 58.761719 78.992188 L 56.261719 66.488281 C 56.128906 65.8125 56.566406 65.152344 57.242188 65.019531 C 57.929688 64.878906 58.578125 65.320312 58.714844 65.996094 L 61.214844 78.5 C 61.347656 79.179688 60.910156 79.835938 60.234375 79.972656 C 60.148438 79.988281 60.066406 79.996094 59.984375 79.996094 Z M 59.984375 79.996094 "/>
<path style=" stroke:none;fill-rule:nonzero;fill:rgb(0%,0%,0%);fill-opacity:1;" d="M 56.230469 79.996094 C 55.648438 79.996094 55.128906 79.585938 55.007812 78.992188 L 52.507812 66.617188 C 52.375 65.941406 52.8125 65.28125 53.488281 65.144531 C 54.175781 65.007812 54.824219 65.445312 54.960938 66.121094 L 57.460938 78.5 C 57.597656 79.175781 57.160156 79.835938 56.480469 79.972656 C 56.398438 79.988281 56.3125 79.996094 56.230469 79.996094 Z M 56.230469 79.996094 "/>
<path style=" stroke:none;fill-rule:nonzero;fill:rgb(0%,0%,0%);fill-opacity:1;" d="M 67.507812 27.496094 C 67.347656 27.496094 67.191406 27.46875 67.042969 27.410156 L 61.015625 24.996094 L 46.261719 25.011719 C 45.929688 25.011719 45.609375 24.882812 45.378906 24.644531 C 45.144531 24.410156 45.011719 24.09375 45.011719 23.761719 L 45.011719 1.25 C 45.011719 0.558594 45.570312 0 46.261719 0 L 71.257812 0 C 71.949219 0 72.507812 0.558594 72.507812 1.25 L 72.507812 23.746094 C 72.507812 24.4375 71.949219 24.996094 71.257812 24.996094 L 68.757812 24.996094 L 68.757812 26.25 C 68.757812 26.664062 68.550781 27.050781 68.207031 27.28125 C 67.996094 27.425781 67.753906 27.496094 67.507812 27.496094 Z M 61.257812 22.5 C 61.414062 22.5 61.574219 22.527344 61.71875 22.585938 L 66.257812 24.402344 L 66.257812 23.746094 C 66.261719 23.054688 66.820312 22.5 67.507812 22.5 L 70.007812 22.5 L 70.007812 2.5 L 47.511719 2.5 L 47.511719 22.511719 Z M 61.257812 22.5 "/>
<path style=" stroke:none;fill-rule:nonzero;fill:rgb(0%,0%,0%);fill-opacity:1;" d="M 35.011719 26.246094 C 34.765625 26.246094 34.523438 26.171875 34.3125 26.03125 C 33.96875 25.796875 33.761719 25.410156 33.761719 24.996094 L 33.761719 23.746094 L 31.261719 23.746094 C 30.570312 23.746094 30.011719 23.1875 30.011719 22.496094 L 30.011719 3.753906 C 30.011719 3.0625 30.570312 2.503906 31.261719 2.503906 L 46.25 2.503906 C 46.941406 2.503906 47.5 3.0625 47.5 3.753906 C 47.5 4.445312 46.941406 5.003906 46.25 5.003906 L 32.511719 5.003906 L 32.511719 21.246094 L 35.011719 21.246094 C 35.703125 21.246094 36.261719 21.804688 36.261719 22.496094 L 36.261719 23.152344 L 40.800781 21.335938 C 40.945312 21.277344 41.113281 21.292969 41.265625 21.246094 L 46.253906 21.261719 C 46.945312 21.265625 47.503906 21.824219 47.5 22.515625 C 47.5 23.207031 46.941406 23.761719 46.25 23.761719 C 46.25 23.761719 46.25 23.761719 46.246094 23.761719 L 41.5 23.746094 L 35.476562 26.15625 C 35.328125 26.21875 35.171875 26.246094 35.011719 26.246094 Z M 35.011719 26.246094 "/>
<path style=" stroke:none;fill-rule:nonzero;fill:rgb(0%,0%,0%);fill-opacity:1;" d="M 58.765625 16.246094 C 58.074219 16.246094 57.515625 15.6875 57.515625 14.996094 C 57.515625 12.816406 59.105469 11.746094 60.15625 11.039062 C 60.828125 10.585938 61.269531 10.265625 61.269531 9.996094 C 61.269531 8.617188 60.148438 7.496094 58.769531 7.496094 C 57.390625 7.496094 56.269531 8.617188 56.269531 9.996094 C 56.269531 10.6875 55.710938 11.246094 55.019531 11.246094 C 54.328125 11.246094 53.769531 10.6875 53.769531 9.996094 C 53.769531 7.238281 56.011719 4.996094 58.769531 4.996094 C 61.527344 4.996094 63.769531 7.238281 63.769531 9.996094 C 63.769531 11.617188 62.492188 12.476562 61.554688 13.109375 C 60.484375 13.832031 60.015625 14.226562 60.015625 14.996094 C 60.015625 15.6875 59.457031 16.246094 58.765625 16.246094 Z M 58.765625 16.246094 "/>
<path style=" stroke:none;fill-rule:nonzero;fill:rgb(0%,0%,0%);fill-opacity:1;" d="M 58.804688 19.996094 C 58.113281 19.996094 57.546875 19.4375 57.546875 18.746094 C 57.546875 18.054688 58.101562 17.496094 58.789062 17.496094 L 58.804688 17.496094 C 59.496094 17.496094 60.054688 18.054688 60.054688 18.746094 C 60.054688 19.4375 59.496094 19.996094 58.804688 19.996094 Z M 58.804688 19.996094 "/>
</g>
</svg>
