<?xml version="1.0" encoding="UTF-8"?>
<svg xmlns="http://www.w3.org/2000/svg" xmlns:xlink="http://www.w3.org/1999/xlink" width="80pt" height="80pt" viewBox="0 0 80 80" version="1.1">
<g id="surface1">
<path style=" stroke:none;fill-rule:nonzero;fill:rgb(0%,0%,0%);fill-opacity:1;" d="M 50 69.371094 C 45.863281 69.371094 42.5 66.007812 42.5 61.871094 C 42.5 57.734375 45.863281 54.371094 50 54.371094 C 50.691406 54.371094 51.25 54.929688 51.25 55.621094 C 51.25 56.3125 50.691406 56.871094 50 56.871094 C 47.242188 56.871094 45 59.113281 45 61.871094 C 45 64.628906 47.242188 66.871094 50 66.871094 C 50.691406 66.871094 51.25 67.429688 51.25 68.121094 C 51.25 68.8125 50.691406 69.371094 50 69.371094 Z M 50 69.371094 "/>
<path style=" stroke:none;fill-rule:nonzero;fill:rgb(0%,0%,0%);fill-opacity:1;" d="M 78.75 56.871094 L 50 56.871094 C 49.308594 56.871094 48.75 56.3125 48.75 55.621094 C 48.75 54.929688 49.308594 54.371094 50 54.371094 L 78.75 54.371094 C 79.441406 54.371094 80 54.929688 80 55.621094 C 80 56.3125 79.441406 56.871094 78.75 56.871094 Z M 78.75 56.871094 "/>
<path style=" stroke:none;fill-rule:nonzero;fill:rgb(0%,0%,0%);fill-opacity:1;" d="M 78.75 69.371094 L 50 69.371094 C 49.308594 69.371094 48.75 68.8125 48.75 68.121094 C 48.75 67.429688 49.308594 66.871094 50 66.871094 L 78.75 66.871094 C 79.441406 66.871094 80 67.429688 80 68.121094 C 80 68.8125 79.441406 69.371094 78.75 69.371094 Z M 78.75 69.371094 "/>
<path style=" stroke:none;fill-rule:nonzero;fill:rgb(0%,0%,0%);fill-opacity:1;" d="M 76.25 69.371094 C 75.558594 69.371094 75 68.8125 75 68.121094 L 75 55.621094 C 75 54.929688 75.558594 54.371094 76.25 54.371094 C 76.941406 54.371094 77.5 54.929688 77.5 55.621094 L 77.5 68.121094 C 77.5 68.8125 76.941406 69.371094 76.25 69.371094 Z M 76.25 69.371094 "/>
<path style=" stroke:none;fill-rule:nonzero;fill:rgb(0%,0%,0%);fill-opacity:1;" d="M 71.25 53.121094 C 70.558594 53.121094 70 52.5625 70 51.871094 C 70 51.179688 70.558594 50.621094 71.25 50.621094 C 73.316406 50.621094 75 48.941406 75 46.871094 C 75 44.804688 73.316406 43.121094 71.25 43.121094 C 70.558594 43.121094 70 42.5625 70 41.871094 C 70 41.183594 70.558594 40.621094 71.25 40.621094 C 74.695312 40.621094 77.5 43.425781 77.5 46.871094 C 77.5 50.320312 74.695312 53.121094 71.25 53.121094 Z M 71.25 53.121094 "/>
<path style=" stroke:none;fill-rule:nonzero;fill:rgb(0%,0%,0%);fill-opacity:1;" d="M 71.25 53.121094 L 47.5 53.121094 C 46.808594 53.121094 46.25 52.5625 46.25 51.871094 C 46.25 51.179688 46.808594 50.621094 47.5 50.621094 L 71.25 50.621094 C 71.941406 50.621094 72.5 51.179688 72.5 51.871094 C 72.5 52.5625 71.941406 53.121094 71.25 53.121094 Z M 71.25 53.121094 "/>
<path style=" stroke:none;fill-rule:nonzero;fill:rgb(0%,0%,0%);fill-opacity:1;" d="M 71.25 43.121094 L 47.5 43.121094 C 46.808594 43.121094 46.25 42.5625 46.25 41.871094 C 46.25 41.183594 46.808594 40.621094 47.5 40.621094 L 71.25 40.621094 C 71.941406 40.621094 72.5 41.183594 72.5 41.871094 C 72.5 42.5625 71.941406 43.121094 71.25 43.121094 Z M 71.25 43.121094 "/>
<path style=" stroke:none;fill-rule:nonzero;fill:rgb(0%,0%,0%);fill-opacity:1;" d="M 50 53.121094 C 49.308594 53.121094 48.75 52.5625 48.75 51.871094 L 48.75 41.871094 C 48.75 41.183594 49.308594 40.621094 50 40.621094 C 50.691406 40.621094 51.25 41.183594 51.25 41.871094 L 51.25 51.871094 C 51.25 52.5625 50.691406 53.121094 50 53.121094 Z M 50 53.121094 "/>
<path style=" stroke:none;fill-rule:nonzero;fill:rgb(0%,0%,0%);fill-opacity:1;" d="M 1.25 59.371094 C 0.558594 59.371094 0 58.8125 0 58.121094 C 0 53.296875 3.925781 49.371094 8.75 49.371094 C 9.441406 49.371094 10 49.929688 10 50.621094 C 10 51.3125 9.441406 51.871094 8.75 51.871094 C 5.304688 51.871094 2.5 54.675781 2.5 58.121094 C 2.5 58.8125 1.941406 59.371094 1.25 59.371094 Z M 1.25 59.371094 "/>
<path style=" stroke:none;fill-rule:nonzero;fill:rgb(0%,0%,0%);fill-opacity:1;" d="M 13.75 51.871094 L 8.75 51.871094 C 8.058594 51.871094 7.5 51.3125 7.5 50.621094 C 7.5 49.929688 8.058594 49.371094 8.75 49.371094 L 13.75 49.371094 C 14.441406 49.371094 15 49.929688 15 50.621094 C 15 51.3125 14.441406 51.871094 13.75 51.871094 Z M 13.75 51.871094 "/>
<path style=" stroke:none;fill-rule:nonzero;fill:rgb(0%,0%,0%);fill-opacity:1;" d="M 1.25 66.871094 C 0.558594 66.871094 0 66.3125 0 65.621094 L 0 58.480469 C 0 57.789062 0.558594 57.230469 1.25 57.230469 C 1.941406 57.230469 2.5 57.789062 2.5 58.480469 L 2.5 65.621094 C 2.5 66.3125 1.941406 66.871094 1.25 66.871094 Z M 1.25 66.871094 "/>
<path style=" stroke:none;fill-rule:nonzero;fill:rgb(0%,0%,0%);fill-opacity:1;" d="M 38.75 59.371094 C 38.058594 59.371094 37.5 58.8125 37.5 58.121094 C 37.5 54.675781 34.695312 51.871094 31.25 51.871094 C 30.558594 51.871094 30 51.3125 30 50.621094 C 30 49.929688 30.558594 49.371094 31.25 49.371094 C 36.074219 49.371094 40 53.296875 40 58.121094 C 40 58.8125 39.441406 59.371094 38.75 59.371094 Z M 38.75 59.371094 "/>
<path style=" stroke:none;fill-rule:nonzero;fill:rgb(0%,0%,0%);fill-opacity:1;" d="M 31.25 51.871094 L 26.25 51.871094 C 25.558594 51.871094 25 51.3125 25 50.621094 C 25 49.929688 25.558594 49.371094 26.25 49.371094 L 31.25 49.371094 C 31.941406 49.371094 32.5 49.929688 32.5 50.621094 C 32.5 51.3125 31.941406 51.871094 31.25 51.871094 Z M 31.25 51.871094 "/>
<path style=" stroke:none;fill-rule:nonzero;fill:rgb(0%,0%,0%);fill-opacity:1;" d="M 38.75 66.871094 C 38.058594 66.871094 37.5 66.3125 37.5 65.621094 L 37.5 58.480469 C 37.5 57.789062 38.058594 57.230469 38.75 57.230469 C 39.441406 57.230469 40 57.789062 40 58.480469 L 40 65.621094 C 40 66.3125 39.441406 66.871094 38.75 66.871094 Z M 38.75 66.871094 "/>
<path style=" stroke:none;fill-rule:nonzero;fill:rgb(0%,0%,0%);fill-opacity:1;" d="M 36.25 69.371094 L 3.75 69.371094 C 3.058594 69.371094 2.5 68.8125 2.5 68.121094 C 2.5 67.429688 3.058594 66.871094 3.75 66.871094 L 36.25 66.871094 C 36.941406 66.871094 37.5 67.429688 37.5 68.121094 C 37.5 68.8125 36.941406 69.371094 36.25 69.371094 Z M 36.25 69.371094 "/>
<path style=" stroke:none;fill-rule:nonzero;fill:rgb(0%,0%,0%);fill-opacity:1;" d="M 13.75 51.871094 C 13.058594 51.871094 12.5 51.3125 12.5 50.621094 L 12.5 46.621094 C 12.5 45.929688 13.058594 45.371094 13.75 45.371094 C 14.441406 45.371094 15 45.929688 15 46.621094 L 15 50.621094 C 15 51.3125 14.441406 51.871094 13.75 51.871094 Z M 13.75 51.871094 "/>
<path style=" stroke:none;fill-rule:nonzero;fill:rgb(0%,0%,0%);fill-opacity:1;" d="M 26.25 51.871094 C 25.558594 51.871094 25 51.3125 25 50.621094 L 25 46.621094 C 25 45.929688 25.558594 45.371094 26.25 45.371094 C 26.941406 45.371094 27.5 45.929688 27.5 46.621094 L 27.5 50.621094 C 27.5 51.3125 26.941406 51.871094 26.25 51.871094 Z M 26.25 51.871094 "/>
<path style=" stroke:none;fill-rule:nonzero;fill:rgb(0%,0%,0%);fill-opacity:1;" d="M 20 49.371094 C 11.726562 49.371094 5 42.644531 5 34.371094 C 5 33.683594 5.558594 33.121094 6.25 33.121094 C 6.941406 33.121094 7.5 33.683594 7.5 34.371094 C 7.5 41.265625 13.105469 46.871094 20 46.871094 C 26.894531 46.871094 32.5 41.265625 32.5 34.371094 C 32.5 33.683594 33.058594 33.121094 33.75 33.121094 C 34.441406 33.121094 35 33.683594 35 34.371094 C 35 42.644531 28.273438 49.371094 20 49.371094 Z M 20 49.371094 "/>
<path style=" stroke:none;fill-rule:nonzero;fill:rgb(0%,0%,0%);fill-opacity:1;" d="M 6.25 35.625 C 5.558594 35.625 5 35.066406 5 34.375 L 5 23.125 C 5 22.433594 5.558594 21.875 6.25 21.875 C 6.941406 21.875 7.5 22.433594 7.5 23.125 L 7.5 34.375 C 7.5 35.066406 6.941406 35.625 6.25 35.625 Z M 6.25 35.625 "/>
<path style=" stroke:none;fill-rule:nonzero;fill:rgb(0%,0%,0%);fill-opacity:1;" d="M 33.75 35.625 C 33.058594 35.625 32.5 35.066406 32.5 34.375 L 32.5 23.125 C 32.5 22.433594 33.058594 21.875 33.75 21.875 C 34.441406 21.875 35 22.433594 35 23.125 L 35 34.375 C 35 35.066406 34.441406 35.625 33.75 35.625 Z M 33.75 35.625 "/>
<path style=" stroke:none;fill-rule:nonzero;fill:rgb(0%,0%,0%);fill-opacity:1;" d="M 33.75 24.375 C 33.058594 24.375 32.5 23.816406 32.5 23.125 C 32.5 20.367188 30.257812 18.125 27.5 18.125 C 26.808594 18.125 26.25 17.566406 26.25 16.875 C 26.25 16.183594 26.808594 15.625 27.5 15.625 C 31.636719 15.625 35 18.988281 35 23.125 C 35 23.816406 34.441406 24.375 33.75 24.375 Z M 33.75 24.375 "/>
<path style=" stroke:none;fill-rule:nonzero;fill:rgb(0%,0%,0%);fill-opacity:1;" d="M 27.5 18.125 C 26.808594 18.125 26.25 17.566406 26.25 16.875 L 26.25 11.875 C 26.25 11.183594 26.808594 10.625 27.5 10.625 C 28.191406 10.625 28.75 11.183594 28.75 11.875 L 28.75 16.875 C 28.75 17.566406 28.191406 18.125 27.5 18.125 Z M 27.5 18.125 "/>
<path style=" stroke:none;fill-rule:nonzero;fill:rgb(0%,0%,0%);fill-opacity:1;" d="M 27.5 13.125 L 17.5 13.125 C 16.808594 13.125 16.25 12.566406 16.25 11.875 C 16.25 11.183594 16.808594 10.625 17.5 10.625 L 27.5 10.625 C 28.191406 10.625 28.75 11.183594 28.75 11.875 C 28.75 12.566406 28.191406 13.125 27.5 13.125 Z M 27.5 13.125 "/>
<path style=" stroke:none;fill-rule:nonzero;fill:rgb(0%,0%,0%);fill-opacity:1;" d="M 6.25 24.375 C 5.558594 24.375 5 23.816406 5 23.125 C 5 16.230469 10.605469 10.625 17.5 10.625 C 18.191406 10.625 18.75 11.183594 18.75 11.875 C 18.75 12.566406 18.191406 13.125 17.5 13.125 C 11.984375 13.125 7.5 17.609375 7.5 23.125 C 7.5 23.816406 6.941406 24.375 6.25 24.375 Z M 6.25 24.375 "/>
<path style=" stroke:none;fill-rule:nonzero;fill:rgb(0%,0%,0%);fill-opacity:1;" d="M 33.75 30.625 C 33.429688 30.625 33.109375 30.503906 32.867188 30.257812 L 29.117188 26.507812 C 28.628906 26.019531 28.628906 25.230469 29.117188 24.742188 C 29.605469 24.253906 30.394531 24.253906 30.882812 24.742188 L 34.632812 28.492188 C 35.121094 28.980469 35.121094 29.769531 34.632812 30.257812 C 34.390625 30.503906 34.070312 30.625 33.75 30.625 Z M 33.75 30.625 "/>
<path style=" stroke:none;fill-rule:nonzero;fill:rgb(0%,0%,0%);fill-opacity:1;" d="M 20 29.375 C 14.394531 29.375 9.609375 26.832031 9.40625 26.726562 C 8.800781 26.398438 8.574219 25.640625 8.898438 25.035156 C 9.226562 24.425781 9.980469 24.199219 10.589844 24.523438 C 10.632812 24.546875 15.042969 26.875 20 26.875 C 24.984375 26.875 29.363281 24.546875 29.40625 24.523438 C 30.015625 24.195312 30.773438 24.425781 31.101562 25.03125 C 31.425781 25.640625 31.199219 26.398438 30.589844 26.726562 C 30.390625 26.832031 25.605469 29.375 20 29.375 Z M 20 29.375 "/>
<path style=" stroke:none;fill-rule:nonzero;fill:rgb(0%,0%,0%);fill-opacity:1;" d="M 6.25 30.625 C 5.929688 30.625 5.609375 30.503906 5.367188 30.257812 C 4.878906 29.769531 4.878906 28.980469 5.367188 28.492188 L 9.117188 24.742188 C 9.605469 24.253906 10.394531 24.253906 10.882812 24.742188 C 11.371094 25.230469 11.371094 26.019531 10.882812 26.507812 L 7.132812 30.257812 C 6.890625 30.503906 6.570312 30.625 6.25 30.625 Z M 6.25 30.625 "/>
<path style=" stroke:none;fill-rule:nonzero;fill:rgb(0%,0%,0%);fill-opacity:1;" d="M 17.5 54.371094 C 17.261719 54.371094 17.023438 54.304688 16.808594 54.164062 L 13.054688 51.664062 C 12.480469 51.277344 12.324219 50.503906 12.710938 49.929688 C 13.09375 49.355469 13.867188 49.199219 14.445312 49.582031 L 18.195312 52.082031 C 18.769531 52.464844 18.925781 53.242188 18.542969 53.816406 C 18.300781 54.175781 17.902344 54.371094 17.5 54.371094 Z M 17.5 54.371094 "/>
<path style=" stroke:none;fill-rule:nonzero;fill:rgb(0%,0%,0%);fill-opacity:1;" d="M 17.503906 54.371094 C 17.042969 54.371094 16.601562 54.121094 16.382812 53.679688 C 16.074219 53.0625 16.324219 52.3125 16.941406 52.003906 L 19.441406 50.753906 C 20.058594 50.449219 20.808594 50.695312 21.117188 51.3125 C 21.425781 51.929688 21.175781 52.679688 20.558594 52.988281 L 18.058594 54.238281 C 17.882812 54.328125 17.691406 54.371094 17.503906 54.371094 Z M 17.503906 54.371094 "/>
<path style=" stroke:none;fill-rule:nonzero;fill:rgb(0%,0%,0%);fill-opacity:1;" d="M 22.5 54.371094 C 22.097656 54.371094 21.699219 54.175781 21.457031 53.816406 C 21.074219 53.242188 21.230469 52.464844 21.804688 52.082031 L 25.554688 49.582031 C 26.132812 49.199219 26.90625 49.355469 27.289062 49.929688 C 27.675781 50.503906 27.519531 51.277344 26.945312 51.664062 L 23.191406 54.164062 C 22.976562 54.304688 22.738281 54.371094 22.5 54.371094 Z M 22.5 54.371094 "/>
<path style=" stroke:none;fill-rule:nonzero;fill:rgb(0%,0%,0%);fill-opacity:1;" d="M 22.496094 54.371094 C 22.308594 54.371094 22.117188 54.328125 21.941406 54.242188 L 19.441406 52.992188 C 18.824219 52.683594 18.574219 51.929688 18.882812 51.3125 C 19.191406 50.695312 19.941406 50.449219 20.558594 50.753906 L 23.058594 52.003906 C 23.675781 52.3125 23.925781 53.066406 23.617188 53.683594 C 23.398438 54.121094 22.957031 54.371094 22.496094 54.371094 Z M 22.496094 54.371094 "/>
<path style=" stroke:none;fill-rule:nonzero;fill:rgb(0%,0%,0%);fill-opacity:1;" d="M 36.25 69.371094 C 35.558594 69.371094 35 68.8125 35 68.121094 C 35 67.429688 35.558594 66.871094 36.25 66.871094 C 36.941406 66.871094 37.5 66.3125 37.5 65.621094 C 37.5 64.929688 38.058594 64.371094 38.75 64.371094 C 39.441406 64.371094 40 64.929688 40 65.621094 C 40 67.691406 38.316406 69.371094 36.25 69.371094 Z M 36.25 69.371094 "/>
<path style=" stroke:none;fill-rule:nonzero;fill:rgb(0%,0%,0%);fill-opacity:1;" d="M 3.75 69.371094 C 1.683594 69.371094 0 67.691406 0 65.621094 C 0 64.929688 0.558594 64.371094 1.25 64.371094 C 1.941406 64.371094 2.5 64.929688 2.5 65.621094 C 2.5 66.3125 3.058594 66.871094 3.75 66.871094 C 4.441406 66.871094 5 67.429688 5 68.121094 C 5 68.8125 4.441406 69.371094 3.75 69.371094 Z M 3.75 69.371094 "/>
<path style=" stroke:none;fill-rule:nonzero;fill:rgb(0%,0%,0%);fill-opacity:1;" d="M 21.253906 69.398438 C 21.140625 69.398438 21.023438 69.382812 20.910156 69.351562 C 20.246094 69.164062 19.859375 68.472656 20.046875 67.808594 L 25.046875 50.28125 C 25.238281 49.617188 25.929688 49.230469 26.59375 49.421875 C 27.257812 49.609375 27.640625 50.300781 27.453125 50.964844 L 22.453125 68.492188 C 22.296875 69.042969 21.796875 69.398438 21.253906 69.398438 Z M 21.253906 69.398438 "/>
<path style=" stroke:none;fill-rule:nonzero;fill:rgb(0%,0%,0%);fill-opacity:1;" d="M 23.753906 69.398438 C 23.554688 69.398438 23.351562 69.351562 23.164062 69.25 C 22.554688 68.925781 22.324219 68.167969 22.652344 67.558594 L 28.332031 56.972656 L 27.894531 56.542969 C 27.507812 56.164062 27.410156 55.578125 27.648438 55.09375 L 30.132812 50.070312 C 30.4375 49.453125 31.1875 49.199219 31.808594 49.503906 C 32.425781 49.808594 32.679688 50.558594 32.375 51.175781 L 30.292969 55.390625 L 30.753906 55.84375 C 31.148438 56.234375 31.242188 56.835938 30.980469 57.328125 L 24.855469 68.742188 C 24.628906 69.160156 24.199219 69.398438 23.753906 69.398438 Z M 23.753906 69.398438 "/>
<path style=" stroke:none;fill-rule:nonzero;fill:rgb(0%,0%,0%);fill-opacity:1;" d="M 18.742188 69.398438 C 18.199219 69.398438 17.699219 69.042969 17.542969 68.492188 L 12.542969 50.964844 C 12.355469 50.300781 12.738281 49.609375 13.402344 49.421875 C 14.066406 49.238281 14.757812 49.617188 14.949219 50.28125 L 19.945312 67.808594 C 20.136719 68.472656 19.75 69.164062 19.085938 69.351562 C 18.972656 69.382812 18.855469 69.398438 18.742188 69.398438 Z M 18.742188 69.398438 "/>
<path style=" stroke:none;fill-rule:nonzero;fill:rgb(0%,0%,0%);fill-opacity:1;" d="M 16.242188 69.398438 C 15.796875 69.398438 15.363281 69.160156 15.140625 68.742188 L 9.015625 57.328125 C 8.75 56.835938 8.84375 56.234375 9.242188 55.84375 L 9.703125 55.390625 L 7.621094 51.175781 C 7.3125 50.558594 7.566406 49.808594 8.1875 49.503906 C 8.808594 49.195312 9.554688 49.453125 9.863281 50.070312 L 12.34375 55.09375 C 12.582031 55.578125 12.484375 56.164062 12.101562 56.542969 L 11.660156 56.972656 L 17.34375 67.558594 C 17.671875 68.167969 17.441406 68.925781 16.832031 69.25 C 16.644531 69.351562 16.441406 69.398438 16.242188 69.398438 Z M 16.242188 69.398438 "/>
<path style=" stroke:none;fill-rule:nonzero;fill:rgb(0%,0%,0%);fill-opacity:1;" d="M 18.75 58.148438 C 18.226562 58.148438 17.734375 57.816406 17.5625 57.292969 L 16.316406 53.515625 C 16.097656 52.859375 16.453125 52.152344 17.109375 51.9375 C 17.765625 51.710938 18.472656 52.074219 18.6875 52.730469 L 19.9375 56.507812 C 20.15625 57.160156 19.796875 57.871094 19.140625 58.085938 C 19.011719 58.128906 18.878906 58.148438 18.75 58.148438 Z M 18.75 58.148438 "/>
<path style=" stroke:none;fill-rule:nonzero;fill:rgb(0%,0%,0%);fill-opacity:1;" d="M 21.25 58.125 C 21.121094 58.125 20.984375 58.105469 20.855469 58.0625 C 20.203125 57.84375 19.847656 57.136719 20.0625 56.480469 L 21.3125 52.726562 C 21.53125 52.074219 22.238281 51.71875 22.894531 51.933594 C 23.546875 52.152344 23.902344 52.859375 23.6875 53.515625 L 22.4375 57.269531 C 22.261719 57.792969 21.773438 58.125 21.25 58.125 Z M 21.25 58.125 "/>
<path style=" stroke:none;fill-rule:nonzero;fill:rgb(0%,0%,0%);fill-opacity:1;" d="M 17.320312 64.398438 C 17.226562 64.398438 17.132812 64.390625 17.039062 64.367188 C 16.363281 64.214844 15.945312 63.546875 16.097656 62.871094 L 17.53125 56.621094 C 17.6875 55.949219 18.355469 55.523438 19.027344 55.683594 C 19.703125 55.835938 20.121094 56.507812 19.96875 57.179688 L 18.535156 63.429688 C 18.402344 64.007812 17.890625 64.398438 17.320312 64.398438 Z M 17.320312 64.398438 "/>
<path style=" stroke:none;fill-rule:nonzero;fill:rgb(0%,0%,0%);fill-opacity:1;" d="M 22.675781 64.398438 C 22.105469 64.398438 21.589844 64.007812 21.457031 63.429688 L 20.03125 57.152344 C 19.878906 56.480469 20.296875 55.808594 20.972656 55.65625 C 21.640625 55.492188 22.3125 55.925781 22.46875 56.597656 L 23.898438 62.875 C 24.046875 63.546875 23.628906 64.214844 22.953125 64.367188 C 22.863281 64.390625 22.765625 64.398438 22.675781 64.398438 Z M 22.675781 64.398438 "/>
<path style=" stroke:none;fill-rule:nonzero;fill:rgb(0%,0%,0%);fill-opacity:1;" d="M 21.25 58.148438 L 18.75 58.148438 C 18.058594 58.148438 17.5 57.589844 17.5 56.898438 C 17.5 56.207031 18.058594 55.648438 18.75 55.648438 L 21.25 55.648438 C 21.941406 55.648438 22.5 56.207031 22.5 56.898438 C 22.5 57.589844 21.941406 58.148438 21.25 58.148438 Z M 21.25 58.148438 "/>
<path style=" stroke:none;fill-rule:nonzero;fill:rgb(0%,0%,0%);fill-opacity:1;" d="M 71.265625 18.148438 L 53.773438 18.148438 C 53.082031 18.148438 52.523438 17.589844 52.523438 16.898438 C 52.523438 16.210938 53.082031 15.648438 53.773438 15.648438 L 71.265625 15.648438 C 71.957031 15.648438 72.515625 16.210938 72.515625 16.898438 C 72.515625 17.589844 71.957031 18.148438 71.265625 18.148438 Z M 71.265625 18.148438 "/>
<path style=" stroke:none;fill-rule:nonzero;fill:rgb(0%,0%,0%);fill-opacity:1;" d="M 62.519531 39.402344 C 61.828125 39.402344 61.269531 38.84375 61.269531 38.152344 L 61.269531 13.148438 C 61.269531 12.460938 61.828125 11.898438 62.519531 11.898438 C 63.210938 11.898438 63.769531 12.460938 63.769531 13.148438 L 63.769531 38.152344 C 63.769531 38.84375 63.210938 39.402344 62.519531 39.402344 Z M 62.519531 39.402344 "/>
<path style=" stroke:none;fill-rule:nonzero;fill:rgb(0%,0%,0%);fill-opacity:1;" d="M 71.269531 39.402344 L 53.773438 39.402344 C 53.082031 39.402344 52.523438 38.84375 52.523438 38.152344 C 52.523438 37.460938 53.082031 36.902344 53.773438 36.902344 L 71.269531 36.902344 C 71.960938 36.902344 72.519531 37.460938 72.519531 38.152344 C 72.519531 38.84375 71.960938 39.402344 71.269531 39.402344 Z M 71.269531 39.402344 "/>
<path style=" stroke:none;fill-rule:nonzero;fill:rgb(0%,0%,0%);fill-opacity:1;" d="M 53.773438 31.898438 C 51.015625 31.898438 48.773438 29.65625 48.773438 26.898438 C 48.773438 26.210938 49.332031 25.648438 50.023438 25.648438 C 50.714844 25.648438 51.273438 26.210938 51.273438 26.898438 C 51.273438 28.277344 52.394531 29.398438 53.773438 29.398438 C 55.152344 29.398438 56.273438 28.277344 56.273438 26.898438 C 56.273438 26.210938 56.832031 25.648438 57.523438 25.648438 C 58.214844 25.648438 58.773438 26.210938 58.773438 26.898438 C 58.773438 29.65625 56.53125 31.898438 53.773438 31.898438 Z M 53.773438 31.898438 "/>
<path style=" stroke:none;fill-rule:nonzero;fill:rgb(0%,0%,0%);fill-opacity:1;" d="M 57.523438 28.148438 L 50.023438 28.148438 C 49.332031 28.148438 48.773438 27.589844 48.773438 26.898438 C 48.773438 26.210938 49.332031 25.648438 50.023438 25.648438 L 57.523438 25.648438 C 58.214844 25.648438 58.773438 26.210938 58.773438 26.898438 C 58.773438 27.589844 58.214844 28.148438 57.523438 28.148438 Z M 57.523438 28.148438 "/>
<path style=" stroke:none;fill-rule:nonzero;fill:rgb(0%,0%,0%);fill-opacity:1;" d="M 50.023438 28.148438 C 49.878906 28.148438 49.730469 28.125 49.582031 28.070312 C 48.9375 27.828125 48.613281 27.105469 48.851562 26.460938 L 52.601562 16.460938 C 52.84375 15.8125 53.566406 15.488281 54.210938 15.730469 C 54.859375 15.972656 55.183594 16.691406 54.945312 17.339844 L 51.195312 27.339844 C 51.007812 27.839844 50.527344 28.148438 50.023438 28.148438 Z M 50.023438 28.148438 "/>
<path style=" stroke:none;fill-rule:nonzero;fill:rgb(0%,0%,0%);fill-opacity:1;" d="M 57.523438 28.148438 C 57.019531 28.148438 56.542969 27.839844 56.351562 27.339844 L 52.601562 17.339844 C 52.363281 16.691406 52.6875 15.972656 53.332031 15.730469 C 53.980469 15.488281 54.703125 15.8125 54.945312 16.460938 L 58.695312 26.460938 C 58.933594 27.105469 58.609375 27.828125 57.960938 28.070312 C 57.816406 28.125 57.671875 28.148438 57.523438 28.148438 Z M 57.523438 28.148438 "/>
<path style=" stroke:none;fill-rule:nonzero;fill:rgb(0%,0%,0%);fill-opacity:1;" d="M 71.265625 31.898438 C 68.507812 31.898438 66.265625 29.65625 66.265625 26.898438 C 66.265625 26.210938 66.824219 25.648438 67.515625 25.648438 C 68.207031 25.648438 68.765625 26.210938 68.765625 26.898438 C 68.765625 28.277344 69.886719 29.398438 71.265625 29.398438 C 72.644531 29.398438 73.765625 28.277344 73.765625 26.898438 C 73.765625 26.210938 74.324219 25.648438 75.015625 25.648438 C 75.707031 25.648438 76.265625 26.210938 76.265625 26.898438 C 76.265625 29.65625 74.023438 31.898438 71.265625 31.898438 Z M 71.265625 31.898438 "/>
<path style=" stroke:none;fill-rule:nonzero;fill:rgb(0%,0%,0%);fill-opacity:1;" d="M 75.015625 28.148438 L 67.515625 28.148438 C 66.824219 28.148438 66.265625 27.589844 66.265625 26.898438 C 66.265625 26.210938 66.824219 25.648438 67.515625 25.648438 L 75.015625 25.648438 C 75.707031 25.648438 76.265625 26.210938 76.265625 26.898438 C 76.265625 27.589844 75.707031 28.148438 75.015625 28.148438 Z M 75.015625 28.148438 "/>
<path style=" stroke:none;fill-rule:nonzero;fill:rgb(0%,0%,0%);fill-opacity:1;" d="M 67.515625 28.148438 C 67.371094 28.148438 67.222656 28.125 67.078125 28.070312 C 66.429688 27.828125 66.101562 27.105469 66.34375 26.460938 L 70.09375 16.460938 C 70.335938 15.8125 71.058594 15.488281 71.703125 15.730469 C 72.351562 15.972656 72.675781 16.691406 72.4375 17.339844 L 68.6875 27.339844 C 68.5 27.839844 68.019531 28.148438 67.515625 28.148438 Z M 67.515625 28.148438 "/>
<path style=" stroke:none;fill-rule:nonzero;fill:rgb(0%,0%,0%);fill-opacity:1;" d="M 75.015625 28.148438 C 74.511719 28.148438 74.035156 27.839844 73.84375 27.339844 L 70.09375 17.339844 C 69.851562 16.691406 70.179688 15.972656 70.828125 15.730469 C 71.472656 15.488281 72.195312 15.8125 72.4375 16.460938 L 76.1875 26.460938 C 76.425781 27.105469 76.101562 27.828125 75.453125 28.070312 C 75.308594 28.125 75.164062 28.148438 75.015625 28.148438 Z M 75.015625 28.148438 "/>
</g>
</svg>
