<?xml version="1.0" encoding="UTF-8"?>
<svg xmlns="http://www.w3.org/2000/svg" xmlns:xlink="http://www.w3.org/1999/xlink" width="80pt" height="80pt" viewBox="0 0 80 80" version="1.1">
<g id="surface1">
<path style=" stroke:none;fill-rule:nonzero;fill:rgb(0%,0%,0%);fill-opacity:1;" d="M 28.746094 14.996094 C 28.054688 14.996094 27.496094 14.4375 27.496094 13.746094 L 27.496094 12.496094 C 27.496094 11.804688 28.054688 11.246094 28.746094 11.246094 C 29.4375 11.246094 29.996094 11.804688 29.996094 12.496094 L 29.996094 13.746094 C 29.996094 14.4375 29.4375 14.996094 28.746094 14.996094 Z M 28.746094 14.996094 "/>
<path style=" stroke:none;fill-rule:nonzero;fill:rgb(0%,0%,0%);fill-opacity:1;" d="M 51.234375 14.996094 C 50.542969 14.996094 49.988281 14.4375 49.984375 13.746094 L 49.980469 12.5 C 49.980469 11.808594 50.539062 11.246094 51.230469 11.246094 C 51.921875 11.246094 52.480469 11.804688 52.480469 12.492188 L 52.484375 13.742188 C 52.484375 14.433594 51.929688 14.992188 51.238281 14.996094 C 51.234375 14.996094 51.234375 14.996094 51.234375 14.996094 Z M 51.234375 14.996094 "/>
<path style=" stroke:none;fill-rule:nonzero;fill:rgb(0%,0%,0%);fill-opacity:1;" d="M 48.734375 3.746094 L 31.246094 3.746094 C 30.554688 3.746094 29.996094 3.1875 29.996094 2.5 C 29.996094 1.808594 30.554688 1.25 31.246094 1.25 L 48.734375 1.25 C 49.425781 1.25 49.980469 1.808594 49.980469 2.5 C 49.980469 3.1875 49.425781 3.746094 48.734375 3.746094 Z M 48.734375 3.746094 "/>
<path style=" stroke:none;fill-rule:nonzero;fill:rgb(0%,0%,0%);fill-opacity:1;" d="M 39.992188 23.742188 C 39.300781 23.742188 38.742188 23.1875 38.742188 22.496094 L 38.742188 1.25 C 38.742188 0.558594 39.300781 0 39.992188 0 C 40.679688 0 41.238281 0.558594 41.238281 1.25 L 41.238281 22.496094 C 41.238281 23.1875 40.679688 23.742188 39.992188 23.742188 Z M 39.992188 23.742188 "/>
<path style=" stroke:none;fill-rule:nonzero;fill:rgb(0%,0%,0%);fill-opacity:1;" d="M 47.484375 23.761719 L 32.496094 23.761719 C 31.804688 23.761719 31.246094 23.203125 31.246094 22.511719 C 31.246094 21.820312 31.804688 21.261719 32.496094 21.261719 L 47.484375 21.261719 C 48.175781 21.261719 48.734375 21.820312 48.734375 22.511719 C 48.734375 23.203125 48.175781 23.761719 47.484375 23.761719 Z M 47.484375 23.761719 "/>
<path style=" stroke:none;fill-rule:nonzero;fill:rgb(0%,0%,0%);fill-opacity:1;" d="M 48.734375 17.496094 C 46.667969 17.496094 44.984375 15.8125 44.984375 13.746094 C 44.984375 13.054688 45.542969 12.496094 46.234375 12.496094 C 46.925781 12.496094 47.484375 13.054688 47.484375 13.746094 C 47.484375 14.433594 48.042969 14.996094 48.734375 14.996094 C 49.425781 14.996094 49.984375 14.433594 49.984375 13.746094 C 49.984375 13.054688 50.542969 12.496094 51.234375 12.496094 C 51.925781 12.496094 52.484375 13.054688 52.484375 13.746094 C 52.484375 15.8125 50.800781 17.496094 48.734375 17.496094 Z M 48.734375 17.496094 "/>
<path style=" stroke:none;fill-rule:nonzero;fill:rgb(0%,0%,0%);fill-opacity:1;" d="M 46.234375 13.746094 C 46.136719 13.746094 46.03125 13.734375 45.929688 13.707031 C 45.261719 13.539062 44.855469 12.863281 45.019531 12.191406 L 47.519531 2.195312 C 47.6875 1.523438 48.363281 1.117188 49.035156 1.285156 C 49.707031 1.453125 50.113281 2.132812 49.945312 2.800781 L 47.445312 12.796875 C 47.304688 13.367188 46.796875 13.746094 46.234375 13.746094 Z M 46.234375 13.746094 "/>
<path style=" stroke:none;fill-rule:nonzero;fill:rgb(0%,0%,0%);fill-opacity:1;" d="M 51.230469 13.746094 C 50.671875 13.746094 50.160156 13.367188 50.019531 12.796875 L 47.523438 2.800781 C 47.351562 2.128906 47.761719 1.453125 48.433594 1.285156 C 49.101562 1.117188 49.777344 1.523438 49.945312 2.195312 L 52.441406 12.191406 C 52.613281 12.863281 52.203125 13.539062 51.535156 13.707031 C 51.433594 13.734375 51.328125 13.746094 51.230469 13.746094 Z M 51.230469 13.746094 "/>
<path style=" stroke:none;fill-rule:nonzero;fill:rgb(0%,0%,0%);fill-opacity:1;" d="M 31.246094 17.496094 C 29.175781 17.496094 27.496094 15.8125 27.496094 13.746094 C 27.496094 13.054688 28.054688 12.496094 28.746094 12.496094 C 29.4375 12.496094 29.996094 13.054688 29.996094 13.746094 C 29.996094 14.433594 30.554688 14.996094 31.246094 14.996094 C 31.933594 14.996094 32.496094 14.433594 32.496094 13.746094 C 32.496094 13.054688 33.054688 12.496094 33.746094 12.496094 C 34.433594 12.496094 34.992188 13.054688 34.992188 13.746094 C 34.992188 15.8125 33.3125 17.496094 31.246094 17.496094 Z M 31.246094 17.496094 "/>
<path style=" stroke:none;fill-rule:nonzero;fill:rgb(0%,0%,0%);fill-opacity:1;" d="M 28.746094 13.746094 C 28.648438 13.746094 28.542969 13.734375 28.441406 13.707031 C 27.773438 13.539062 27.367188 12.863281 27.53125 12.191406 L 30.03125 2.195312 C 30.195312 1.527344 30.871094 1.117188 31.542969 1.285156 C 32.214844 1.453125 32.621094 2.128906 32.453125 2.800781 L 29.957031 12.796875 C 29.816406 13.367188 29.308594 13.746094 28.746094 13.746094 Z M 28.746094 13.746094 "/>
<path style=" stroke:none;fill-rule:nonzero;fill:rgb(0%,0%,0%);fill-opacity:1;" d="M 33.742188 13.746094 C 33.179688 13.746094 32.671875 13.367188 32.53125 12.796875 L 30.03125 2.800781 C 29.863281 2.132812 30.269531 1.453125 30.941406 1.285156 C 31.605469 1.117188 32.285156 1.523438 32.453125 2.195312 L 34.953125 12.191406 C 35.121094 12.863281 34.714844 13.539062 34.042969 13.707031 C 33.945312 13.734375 33.839844 13.746094 33.742188 13.746094 Z M 33.742188 13.746094 "/>
<path style=" stroke:none;fill-rule:nonzero;fill:rgb(0%,0%,0%);fill-opacity:1;" d="M 33.742188 13.746094 L 28.746094 13.746094 C 28.054688 13.746094 27.496094 13.1875 27.496094 12.496094 C 27.496094 11.804688 28.054688 11.246094 28.746094 11.246094 L 33.742188 11.246094 C 34.433594 11.246094 34.992188 11.804688 34.992188 12.496094 C 34.992188 13.1875 34.433594 13.746094 33.742188 13.746094 Z M 33.742188 13.746094 "/>
<path style=" stroke:none;fill-rule:nonzero;fill:rgb(0%,0%,0%);fill-opacity:1;" d="M 51.230469 13.746094 L 46.234375 13.746094 C 45.542969 13.746094 44.984375 13.1875 44.984375 12.496094 C 44.984375 11.804688 45.542969 11.246094 46.234375 11.246094 L 51.230469 11.246094 C 51.921875 11.246094 52.480469 11.804688 52.480469 12.496094 C 52.480469 13.1875 51.921875 13.746094 51.230469 13.746094 Z M 51.230469 13.746094 "/>
<path style=" stroke:none;fill-rule:nonzero;fill:rgb(0%,0%,0%);fill-opacity:1;" d="M 33.746094 14.996094 C 33.054688 14.996094 32.496094 14.4375 32.496094 13.746094 L 32.492188 12.5 C 32.492188 11.804688 33.027344 11.285156 33.742188 11.246094 C 34.429688 11.246094 34.992188 11.804688 34.992188 12.492188 L 34.992188 13.742188 C 34.996094 14.433594 34.4375 14.992188 33.746094 14.996094 Z M 33.746094 14.996094 "/>
<path style=" stroke:none;fill-rule:nonzero;fill:rgb(0%,0%,0%);fill-opacity:1;" d="M 46.234375 14.996094 C 45.542969 14.996094 44.988281 14.4375 44.988281 13.746094 L 44.988281 12.496094 C 44.988281 11.804688 45.542969 11.246094 46.234375 11.246094 C 46.925781 11.246094 47.484375 11.804688 47.484375 12.496094 L 47.484375 13.746094 C 47.484375 14.4375 46.925781 14.996094 46.234375 14.996094 Z M 46.234375 14.996094 "/>
<path style=" stroke:none;fill-rule:nonzero;fill:rgb(0%,0%,0%);fill-opacity:1;" d="M 17.515625 80 L 2.519531 80 C 1.828125 80 1.269531 79.441406 1.269531 78.75 L 1.269531 26.277344 C 1.269531 25.585938 1.828125 25.027344 2.519531 25.027344 L 17.515625 25.027344 C 18.207031 25.027344 18.765625 25.585938 18.765625 26.277344 L 18.765625 78.75 C 18.765625 79.441406 18.207031 80 17.515625 80 Z M 3.769531 77.5 L 16.265625 77.5 L 16.265625 27.527344 L 3.769531 27.527344 Z M 3.769531 77.5 "/>
<path style=" stroke:none;fill-rule:nonzero;fill:rgb(0%,0%,0%);fill-opacity:1;" d="M 32.511719 80 L 17.519531 80 C 16.828125 80 16.269531 79.441406 16.269531 78.75 L 16.269531 26.277344 C 16.269531 25.585938 16.828125 25.027344 17.519531 25.027344 L 32.511719 25.027344 C 33.203125 25.027344 33.761719 25.585938 33.761719 26.277344 L 33.761719 78.75 C 33.761719 79.441406 33.203125 80 32.511719 80 Z M 18.765625 77.5 L 31.261719 77.5 L 31.261719 27.527344 L 18.765625 27.527344 Z M 18.765625 77.5 "/>
<path style=" stroke:none;fill-rule:nonzero;fill:rgb(0%,0%,0%);fill-opacity:1;" d="M 47.511719 80 L 32.515625 80 C 31.824219 80 31.265625 79.441406 31.265625 78.75 L 31.265625 26.277344 C 31.265625 25.585938 31.824219 25.027344 32.515625 25.027344 L 47.511719 25.027344 C 48.203125 25.027344 48.761719 25.585938 48.761719 26.277344 L 48.761719 78.75 C 48.761719 79.441406 48.203125 80 47.511719 80 Z M 33.765625 77.5 L 46.261719 77.5 L 46.261719 27.527344 L 33.765625 27.527344 Z M 33.765625 77.5 "/>
<path style=" stroke:none;fill-rule:nonzero;fill:rgb(0%,0%,0%);fill-opacity:1;" d="M 62.507812 80 L 47.511719 80 C 46.820312 80 46.265625 79.441406 46.265625 78.75 L 46.265625 26.277344 C 46.265625 25.585938 46.820312 25.027344 47.511719 25.027344 L 62.507812 25.027344 C 63.199219 25.027344 63.757812 25.585938 63.757812 26.277344 L 63.757812 78.75 C 63.757812 79.441406 63.199219 80 62.507812 80 Z M 48.761719 77.5 L 61.257812 77.5 L 61.257812 27.527344 L 48.761719 27.527344 Z M 48.761719 77.5 "/>
<path style=" stroke:none;fill-rule:nonzero;fill:rgb(0%,0%,0%);fill-opacity:1;" d="M 77.507812 80 L 62.507812 80 C 61.816406 80 61.261719 79.441406 61.261719 78.75 L 61.261719 26.277344 C 61.261719 25.585938 61.816406 25.027344 62.507812 25.027344 L 77.507812 25.027344 C 78.195312 25.027344 78.753906 25.585938 78.753906 26.277344 L 78.753906 78.75 C 78.753906 79.441406 78.195312 80 77.507812 80 Z M 63.757812 77.5 L 76.257812 77.5 L 76.257812 27.527344 L 63.757812 27.527344 Z M 63.757812 77.5 "/>
<path style=" stroke:none;fill-rule:nonzero;fill:rgb(0%,0%,0%);fill-opacity:1;" d="M 10.015625 75.003906 C 7.261719 75.003906 5.019531 72.761719 5.019531 70.003906 C 5.019531 67.246094 7.261719 65.003906 10.015625 65.003906 C 12.773438 65.003906 15.015625 67.246094 15.015625 70.003906 C 15.015625 72.761719 12.773438 75.003906 10.015625 75.003906 Z M 10.015625 67.503906 C 8.640625 67.503906 7.519531 68.625 7.519531 70.003906 C 7.519531 71.382812 8.640625 72.503906 10.015625 72.503906 C 11.394531 72.503906 12.515625 71.382812 12.515625 70.003906 C 12.515625 68.625 11.394531 67.503906 10.015625 67.503906 Z M 10.015625 67.503906 "/>
<path style=" stroke:none;fill-rule:nonzero;fill:rgb(0%,0%,0%);fill-opacity:1;" d="M 25.011719 75.003906 C 22.257812 75.003906 20.015625 72.761719 20.015625 70.003906 C 20.015625 67.246094 22.257812 65.003906 25.011719 65.003906 C 27.769531 65.003906 30.011719 67.246094 30.011719 70.003906 C 30.011719 72.761719 27.769531 75.003906 25.011719 75.003906 Z M 25.011719 67.503906 C 23.636719 67.503906 22.515625 68.625 22.515625 70.003906 C 22.515625 71.382812 23.636719 72.503906 25.011719 72.503906 C 26.390625 72.503906 27.511719 71.382812 27.511719 70.003906 C 27.511719 68.625 26.390625 67.503906 25.011719 67.503906 Z M 25.011719 67.503906 "/>
<path style=" stroke:none;fill-rule:nonzero;fill:rgb(0%,0%,0%);fill-opacity:1;" d="M 40.011719 75.003906 C 37.257812 75.003906 35.011719 72.761719 35.011719 70.003906 C 35.011719 67.246094 37.257812 65.003906 40.011719 65.003906 C 42.769531 65.003906 45.011719 67.246094 45.011719 70.003906 C 45.011719 72.761719 42.769531 75.003906 40.011719 75.003906 Z M 40.011719 67.503906 C 38.632812 67.503906 37.511719 68.625 37.511719 70.003906 C 37.511719 71.382812 38.632812 72.503906 40.011719 72.503906 C 41.390625 72.503906 42.511719 71.382812 42.511719 70.003906 C 42.511719 68.625 41.390625 67.503906 40.011719 67.503906 Z M 40.011719 67.503906 "/>
<path style=" stroke:none;fill-rule:nonzero;fill:rgb(0%,0%,0%);fill-opacity:1;" d="M 55.007812 75.003906 C 52.253906 75.003906 50.007812 72.761719 50.007812 70.003906 C 50.007812 67.246094 52.253906 65.003906 55.007812 65.003906 C 57.765625 65.003906 60.007812 67.246094 60.007812 70.003906 C 60.007812 72.761719 57.765625 75.003906 55.007812 75.003906 Z M 55.007812 67.503906 C 53.628906 67.503906 52.507812 68.625 52.507812 70.003906 C 52.507812 71.382812 53.628906 72.503906 55.007812 72.503906 C 56.386719 72.503906 57.507812 71.382812 57.507812 70.003906 C 57.507812 68.625 56.386719 67.503906 55.007812 67.503906 Z M 55.007812 67.503906 "/>
<path style=" stroke:none;fill-rule:nonzero;fill:rgb(0%,0%,0%);fill-opacity:1;" d="M 70.007812 75.003906 C 67.25 75.003906 65.007812 72.761719 65.007812 70.003906 C 65.007812 67.246094 67.25 65.003906 70.007812 65.003906 C 72.765625 65.003906 75.007812 67.246094 75.007812 70.003906 C 75.007812 72.761719 72.765625 75.003906 70.007812 75.003906 Z M 70.007812 67.503906 C 68.628906 67.503906 67.507812 68.625 67.507812 70.003906 C 67.507812 71.382812 68.628906 72.503906 70.007812 72.503906 C 71.386719 72.503906 72.507812 71.382812 72.507812 70.003906 C 72.507812 68.625 71.382812 67.503906 70.007812 67.503906 Z M 70.007812 67.503906 "/>
<path style=" stroke:none;fill-rule:nonzero;fill:rgb(0%,0%,0%);fill-opacity:1;" d="M 12.515625 60.011719 L 7.519531 60.011719 C 6.828125 60.011719 6.269531 59.453125 6.269531 58.761719 L 6.269531 36.261719 C 6.269531 35.570312 6.828125 35.011719 7.519531 35.011719 L 12.515625 35.011719 C 13.207031 35.011719 13.765625 35.570312 13.765625 36.261719 L 13.765625 58.761719 C 13.765625 59.453125 13.207031 60.011719 12.515625 60.011719 Z M 8.765625 57.511719 L 11.265625 57.511719 L 11.265625 37.507812 L 8.765625 37.507812 Z M 8.765625 57.511719 "/>
<path style=" stroke:none;fill-rule:nonzero;fill:rgb(0%,0%,0%);fill-opacity:1;" d="M 27.511719 60.011719 L 22.515625 60.011719 C 21.824219 60.011719 21.265625 59.453125 21.265625 58.761719 L 21.265625 36.261719 C 21.265625 35.570312 21.824219 35.011719 22.515625 35.011719 L 27.511719 35.011719 C 28.203125 35.011719 28.761719 35.570312 28.761719 36.261719 L 28.761719 58.761719 C 28.761719 59.453125 28.203125 60.011719 27.511719 60.011719 Z M 23.765625 57.511719 L 26.261719 57.511719 L 26.261719 37.507812 L 23.765625 37.507812 Z M 23.765625 57.511719 "/>
<path style=" stroke:none;fill-rule:nonzero;fill:rgb(0%,0%,0%);fill-opacity:1;" d="M 42.511719 60.011719 L 37.511719 60.011719 C 36.820312 60.011719 36.261719 59.453125 36.261719 58.761719 L 36.261719 36.261719 C 36.261719 35.570312 36.820312 35.011719 37.511719 35.011719 L 42.511719 35.011719 C 43.203125 35.011719 43.761719 35.570312 43.761719 36.261719 L 43.761719 58.761719 C 43.761719 59.453125 43.203125 60.011719 42.511719 60.011719 Z M 38.761719 57.511719 L 41.261719 57.511719 L 41.261719 37.507812 L 38.761719 37.507812 Z M 38.761719 57.511719 "/>
<path style=" stroke:none;fill-rule:nonzero;fill:rgb(0%,0%,0%);fill-opacity:1;" d="M 57.507812 60.011719 L 52.507812 60.011719 C 51.816406 60.011719 51.257812 59.453125 51.257812 58.761719 L 51.257812 36.261719 C 51.257812 35.570312 51.816406 35.011719 52.507812 35.011719 L 57.507812 35.011719 C 58.199219 35.011719 58.757812 35.570312 58.757812 36.261719 L 58.757812 58.761719 C 58.757812 59.453125 58.199219 60.011719 57.507812 60.011719 Z M 53.757812 57.511719 L 56.257812 57.511719 L 56.257812 37.507812 L 53.757812 37.507812 Z M 53.757812 57.511719 "/>
<path style=" stroke:none;fill-rule:nonzero;fill:rgb(0%,0%,0%);fill-opacity:1;" d="M 72.507812 60.011719 L 67.507812 60.011719 C 66.816406 60.011719 66.257812 59.453125 66.257812 58.761719 L 66.257812 36.261719 C 66.257812 35.570312 66.816406 35.011719 67.507812 35.011719 L 72.507812 35.011719 C 73.199219 35.011719 73.757812 35.570312 73.757812 36.261719 L 73.757812 58.761719 C 73.757812 59.453125 73.199219 60.011719 72.507812 60.011719 Z M 68.757812 57.511719 L 71.257812 57.511719 L 71.257812 37.507812 L 68.757812 37.507812 Z M 68.757812 57.511719 "/>
</g>
</svg>
