<?xml version="1.0" encoding="UTF-8"?>
<svg xmlns="http://www.w3.org/2000/svg" xmlns:xlink="http://www.w3.org/1999/xlink" width="80pt" height="80pt" viewBox="0 0 80 80" version="1.1">
<g id="surface1">
<path style=" stroke:none;fill-rule:nonzero;fill:rgb(0%,0%,0%);fill-opacity:1;" d="M 30 26.242188 C 29.308594 26.242188 28.746094 25.683594 28.746094 24.992188 C 28.746094 24.300781 29.296875 23.742188 29.988281 23.742188 L 30 23.742188 C 30.691406 23.742188 31.25 24.300781 31.25 24.992188 C 31.25 25.683594 30.691406 26.242188 30 26.242188 Z M 30 26.242188 "/>
<path style=" stroke:none;fill-rule:nonzero;fill:rgb(0%,0%,0%);fill-opacity:1;" d="M 39.960938 80 C 39.539062 80 39.125 79.785156 38.890625 79.394531 L 35.140625 73.144531 C 34.785156 72.550781 34.976562 71.785156 35.570312 71.429688 C 36.164062 71.074219 36.929688 71.265625 37.285156 71.859375 L 41.035156 78.109375 C 41.386719 78.699219 41.199219 79.46875 40.605469 79.824219 C 40.402344 79.941406 40.179688 80 39.960938 80 Z M 39.960938 80 "/>
<path style=" stroke:none;fill-rule:nonzero;fill:rgb(0%,0%,0%);fill-opacity:1;" d="M 39.960938 80 C 39.742188 80 39.519531 79.941406 39.316406 79.820312 C 38.726562 79.464844 38.535156 78.699219 38.890625 78.105469 L 42.636719 71.859375 C 42.992188 71.265625 43.761719 71.074219 44.351562 71.429688 C 44.945312 71.785156 45.136719 72.550781 44.78125 73.144531 L 41.03125 79.390625 C 40.796875 79.785156 40.386719 80 39.960938 80 Z M 39.960938 80 "/>
<path style=" stroke:none;fill-rule:nonzero;fill:rgb(0%,0%,0%);fill-opacity:1;" d="M 36.210938 73.75 C 35.519531 73.75 34.960938 73.191406 34.960938 72.5 L 34.960938 26.242188 C 34.960938 25.550781 35.519531 24.992188 36.210938 24.992188 C 36.902344 24.992188 37.460938 25.550781 37.460938 26.242188 L 37.460938 72.5 C 37.460938 73.191406 36.902344 73.75 36.210938 73.75 Z M 36.210938 73.75 "/>
<path style=" stroke:none;fill-rule:nonzero;fill:rgb(0%,0%,0%);fill-opacity:1;" d="M 43.710938 73.75 C 43.019531 73.75 42.460938 73.191406 42.460938 72.5 L 42.460938 26.242188 C 42.460938 25.550781 43.019531 24.992188 43.710938 24.992188 C 44.402344 24.992188 44.960938 25.550781 44.960938 26.242188 L 44.960938 72.5 C 44.960938 73.191406 44.402344 73.75 43.710938 73.75 Z M 43.710938 73.75 "/>
<path style=" stroke:none;fill-rule:nonzero;fill:rgb(0%,0%,0%);fill-opacity:1;" d="M 46.429688 27.492188 L 33.496094 27.492188 C 32.804688 27.492188 32.246094 26.933594 32.246094 26.242188 C 32.246094 25.550781 32.804688 24.992188 33.496094 24.992188 L 46.429688 24.992188 C 47.121094 24.992188 47.679688 25.550781 47.679688 26.242188 C 47.679688 26.933594 47.121094 27.492188 46.429688 27.492188 Z M 46.429688 27.492188 "/>
<path style=" stroke:none;fill-rule:nonzero;fill:rgb(0%,0%,0%);fill-opacity:1;" d="M 49.960938 22.488281 L 29.964844 22.488281 C 29.273438 22.488281 28.714844 21.929688 28.714844 21.238281 C 28.714844 20.546875 29.273438 19.988281 29.964844 19.988281 L 49.960938 19.988281 C 50.652344 19.988281 51.210938 20.546875 51.210938 21.238281 C 51.210938 21.929688 50.652344 22.488281 49.960938 22.488281 Z M 49.960938 22.488281 "/>
<path style=" stroke:none;fill-rule:nonzero;fill:rgb(0%,0%,0%);fill-opacity:1;" d="M 29.964844 29.992188 C 27.207031 29.988281 24.964844 27.746094 24.964844 24.992188 C 24.964844 22.238281 27.207031 19.992188 29.964844 19.988281 C 30.65625 19.988281 31.214844 20.546875 31.214844 21.238281 C 31.214844 21.925781 30.65625 22.488281 29.964844 22.488281 C 28.585938 22.492188 27.464844 23.613281 27.464844 24.992188 C 27.464844 26.367188 28.585938 27.488281 29.964844 27.492188 C 31.339844 27.488281 32.460938 26.367188 32.460938 24.992188 C 32.460938 24.300781 33.019531 23.742188 33.710938 23.742188 C 34.402344 23.742188 34.960938 24.300781 34.960938 24.992188 C 34.960938 27.746094 32.71875 29.988281 29.964844 29.992188 Z M 29.964844 29.992188 "/>
<path style=" stroke:none;fill-rule:nonzero;fill:rgb(0%,0%,0%);fill-opacity:1;" d="M 50 26.238281 C 49.308594 26.238281 48.742188 25.679688 48.742188 24.988281 C 48.742188 24.296875 49.292969 23.738281 49.984375 23.738281 L 50 23.738281 C 50.6875 23.738281 51.25 24.296875 51.25 24.988281 C 51.25 25.679688 50.6875 26.238281 50 26.238281 Z M 50 26.238281 "/>
<path style=" stroke:none;fill-rule:nonzero;fill:rgb(0%,0%,0%);fill-opacity:1;" d="M 49.960938 29.992188 C 47.207031 29.992188 44.960938 27.75 44.957031 24.992188 C 44.957031 24.300781 45.515625 23.742188 46.207031 23.742188 C 46.898438 23.742188 47.457031 24.300781 47.457031 24.988281 C 47.457031 26.371094 48.582031 27.492188 49.960938 27.492188 C 50.628906 27.488281 51.253906 27.230469 51.726562 26.757812 C 52.199219 26.28125 52.460938 25.65625 52.460938 24.988281 C 52.460938 23.613281 51.339844 22.492188 49.957031 22.488281 C 49.265625 22.488281 48.707031 21.925781 48.710938 21.238281 C 48.710938 20.546875 49.269531 19.988281 49.960938 19.988281 C 52.714844 19.992188 54.960938 22.234375 54.960938 24.988281 C 54.960938 26.320312 54.441406 27.578125 53.496094 28.523438 C 52.550781 29.46875 51.296875 29.988281 49.960938 29.992188 Z M 49.960938 29.992188 "/>
<path style=" stroke:none;fill-rule:nonzero;fill:rgb(0%,0%,0%);fill-opacity:1;" d="M 42.460938 22.488281 C 41.769531 22.488281 41.210938 21.929688 41.210938 21.238281 L 41.210938 7.792969 C 41.210938 7.101562 41.769531 6.542969 42.460938 6.542969 C 43.152344 6.542969 43.710938 7.101562 43.710938 7.792969 L 43.710938 21.238281 C 43.710938 21.929688 43.152344 22.488281 42.460938 22.488281 Z M 42.460938 22.488281 "/>
<path style=" stroke:none;fill-rule:nonzero;fill:rgb(0%,0%,0%);fill-opacity:1;" d="M 37.460938 22.488281 C 36.769531 22.488281 36.210938 21.929688 36.210938 21.238281 L 36.210938 7.789062 C 36.210938 7.097656 36.769531 6.539062 37.460938 6.539062 C 38.152344 6.539062 38.710938 7.097656 38.710938 7.789062 L 38.710938 21.242188 C 38.710938 21.929688 38.152344 22.488281 37.460938 22.488281 Z M 37.460938 22.488281 "/>
<path style=" stroke:none;fill-rule:nonzero;fill:rgb(0%,0%,0%);fill-opacity:1;" d="M 39.960938 9.996094 C 37.203125 9.996094 34.960938 7.753906 34.960938 5 C 34.960938 2.242188 37.203125 0 39.957031 0 C 42.71875 0 44.960938 2.242188 44.960938 5 C 44.960938 7.753906 42.71875 9.996094 39.960938 9.996094 Z M 39.964844 2.5 C 38.582031 2.5 37.460938 3.621094 37.460938 5 C 37.460938 6.375 38.582031 7.496094 39.960938 7.496094 C 41.339844 7.496094 42.460938 6.375 42.460938 5 C 42.460938 3.621094 41.34375 2.5 39.964844 2.5 Z M 39.964844 2.5 "/>
<path style=" stroke:none;fill-rule:nonzero;fill:rgb(0%,0%,0%);fill-opacity:1;" d="M 39.960938 66.261719 C 39.269531 66.261719 38.710938 65.699219 38.710938 65.011719 L 38.710938 36.539062 C 38.710938 35.847656 39.269531 35.289062 39.960938 35.289062 C 40.652344 35.289062 41.210938 35.847656 41.210938 36.539062 L 41.210938 65.007812 C 41.210938 65.699219 40.652344 66.261719 39.960938 66.261719 Z M 39.960938 66.261719 "/>
<path style=" stroke:none;fill-rule:nonzero;fill:rgb(0%,0%,0%);fill-opacity:1;" d="M 63.699219 60.007812 C 58.875 60.007812 54.949219 56.082031 54.949219 51.257812 C 54.949219 50.566406 55.507812 50.007812 56.199219 50.007812 C 56.890625 50.007812 57.449219 50.566406 57.449219 51.257812 C 57.449219 54.703125 60.253906 57.507812 63.699219 57.507812 C 67.144531 57.507812 69.949219 54.703125 69.949219 51.257812 C 69.949219 50.566406 70.507812 50.007812 71.199219 50.007812 C 71.890625 50.007812 72.449219 50.566406 72.449219 51.257812 C 72.449219 56.082031 68.523438 60.007812 63.699219 60.007812 Z M 63.699219 60.007812 "/>
<path style=" stroke:none;fill-rule:nonzero;fill:rgb(0%,0%,0%);fill-opacity:1;" d="M 71.195312 52.527344 L 56.199219 52.527344 C 55.511719 52.527344 54.953125 51.96875 54.953125 51.277344 C 54.953125 50.585938 55.511719 50.027344 56.199219 50.027344 L 71.195312 50.027344 C 71.886719 50.027344 72.445312 50.585938 72.445312 51.277344 C 72.445312 51.96875 71.886719 52.527344 71.195312 52.527344 Z M 71.195312 52.527344 "/>
<path style=" stroke:none;fill-rule:nonzero;fill:rgb(0%,0%,0%);fill-opacity:1;" d="M 71.195312 52.527344 C 70.648438 52.527344 70.148438 52.171875 69.992188 51.621094 L 62.464844 25.359375 C 62.273438 24.699219 62.65625 24.003906 63.320312 23.816406 C 63.984375 23.625 64.675781 24.007812 64.867188 24.671875 L 72.394531 50.933594 C 72.585938 51.597656 72.203125 52.289062 71.539062 52.480469 C 71.425781 52.511719 71.308594 52.527344 71.195312 52.527344 Z M 71.195312 52.527344 "/>
<path style=" stroke:none;fill-rule:nonzero;fill:rgb(0%,0%,0%);fill-opacity:1;" d="M 56.203125 52.527344 C 56.089844 52.527344 55.972656 52.511719 55.859375 52.480469 C 55.195312 52.289062 54.808594 51.597656 55 50.9375 L 62.464844 24.675781 C 62.652344 24.011719 63.339844 23.617188 64.007812 23.8125 C 64.671875 24.003906 65.058594 24.695312 64.867188 25.355469 L 57.402344 51.617188 C 57.246094 52.167969 56.746094 52.527344 56.203125 52.527344 Z M 56.203125 52.527344 "/>
<path style=" stroke:none;fill-rule:nonzero;fill:rgb(0%,0%,0%);fill-opacity:1;" d="M 66.84375 22.488281 L 49.960938 22.488281 C 49.269531 22.488281 48.710938 21.929688 48.710938 21.238281 C 48.710938 20.546875 49.269531 19.988281 49.960938 19.988281 L 66.84375 19.988281 C 67.53125 19.988281 68.09375 20.546875 68.09375 21.238281 C 68.09375 21.929688 67.53125 22.488281 66.84375 22.488281 Z M 66.84375 22.488281 "/>
<path style=" stroke:none;fill-rule:nonzero;fill:rgb(0%,0%,0%);fill-opacity:1;" d="M 66.84375 26.265625 L 53.65625 26.265625 C 52.964844 26.265625 52.410156 25.707031 52.410156 25.015625 C 52.410156 24.324219 52.964844 23.765625 53.65625 23.765625 L 66.84375 23.765625 C 67.53125 23.765625 68.09375 24.324219 68.09375 25.015625 C 68.09375 25.707031 67.53125 26.265625 66.84375 26.265625 Z M 66.84375 26.265625 "/>
<path style=" stroke:none;fill-rule:nonzero;fill:rgb(0%,0%,0%);fill-opacity:1;" d="M 66.84375 26.265625 C 66.152344 26.265625 65.59375 25.707031 65.59375 25.015625 C 65.59375 24.324219 66.152344 23.765625 66.84375 23.765625 C 67.1875 23.765625 67.46875 23.484375 67.46875 23.140625 C 67.46875 22.796875 67.1875 22.515625 66.84375 22.515625 C 66.152344 22.515625 65.59375 21.957031 65.59375 21.265625 C 65.59375 20.574219 66.152344 20.015625 66.84375 20.015625 C 68.566406 20.015625 69.964844 21.417969 69.964844 23.140625 C 69.964844 24.863281 68.566406 26.265625 66.84375 26.265625 Z M 66.84375 26.265625 "/>
<path style=" stroke:none;fill-rule:nonzero;fill:rgb(0%,0%,0%);fill-opacity:1;" d="M 16.261719 60.007812 C 11.4375 60.007812 7.511719 56.082031 7.511719 51.257812 C 7.511719 50.566406 8.070312 50.007812 8.761719 50.007812 C 9.453125 50.007812 10.011719 50.566406 10.011719 51.257812 C 10.011719 54.703125 12.8125 57.507812 16.261719 57.507812 C 19.707031 57.507812 22.511719 54.703125 22.511719 51.257812 C 22.511719 50.566406 23.070312 50.007812 23.761719 50.007812 C 24.453125 50.007812 25.011719 50.566406 25.011719 51.257812 C 25.011719 56.082031 21.085938 60.007812 16.261719 60.007812 Z M 16.261719 60.007812 "/>
<path style=" stroke:none;fill-rule:nonzero;fill:rgb(0%,0%,0%);fill-opacity:1;" d="M 23.757812 52.527344 L 8.765625 52.527344 C 8.074219 52.527344 7.515625 51.96875 7.515625 51.277344 C 7.515625 50.585938 8.074219 50.027344 8.765625 50.027344 L 23.757812 50.027344 C 24.449219 50.027344 25.007812 50.585938 25.007812 51.277344 C 25.007812 51.96875 24.449219 52.527344 23.757812 52.527344 Z M 23.757812 52.527344 "/>
<path style=" stroke:none;fill-rule:nonzero;fill:rgb(0%,0%,0%);fill-opacity:1;" d="M 8.765625 52.527344 C 8.652344 52.527344 8.535156 52.511719 8.421875 52.476562 C 7.757812 52.289062 7.375 51.597656 7.5625 50.933594 L 15.09375 24.671875 C 15.28125 24.007812 15.972656 23.621094 16.636719 23.8125 C 17.300781 24.003906 17.683594 24.695312 17.496094 25.359375 L 9.964844 51.621094 C 9.808594 52.171875 9.308594 52.527344 8.765625 52.527344 Z M 8.765625 52.527344 "/>
<path style=" stroke:none;fill-rule:nonzero;fill:rgb(0%,0%,0%);fill-opacity:1;" d="M 23.757812 52.527344 C 23.210938 52.527344 22.710938 52.167969 22.554688 51.617188 L 15.09375 25.355469 C 14.902344 24.691406 15.289062 24 15.953125 23.8125 C 16.617188 23.621094 17.308594 24.007812 17.496094 24.671875 L 24.960938 50.933594 C 25.148438 51.597656 24.765625 52.289062 24.101562 52.476562 C 23.984375 52.511719 23.871094 52.527344 23.757812 52.527344 Z M 23.757812 52.527344 "/>
<path style=" stroke:none;fill-rule:nonzero;fill:rgb(0%,0%,0%);fill-opacity:1;" d="M 30 22.488281 L 13.117188 22.488281 C 12.425781 22.488281 11.867188 21.929688 11.867188 21.238281 C 11.867188 20.546875 12.425781 19.988281 13.117188 19.988281 L 30 19.988281 C 30.691406 19.988281 31.25 20.546875 31.25 21.238281 C 31.25 21.929688 30.691406 22.488281 30 22.488281 Z M 30 22.488281 "/>
<path style=" stroke:none;fill-rule:nonzero;fill:rgb(0%,0%,0%);fill-opacity:1;" d="M 26.300781 26.265625 L 13.117188 26.265625 C 12.425781 26.265625 11.867188 25.707031 11.867188 25.015625 C 11.867188 24.324219 12.425781 23.765625 13.117188 23.765625 L 26.300781 23.765625 C 26.992188 23.765625 27.550781 24.324219 27.550781 25.015625 C 27.550781 25.707031 26.992188 26.265625 26.300781 26.265625 Z M 26.300781 26.265625 "/>
<path style=" stroke:none;fill-rule:nonzero;fill:rgb(0%,0%,0%);fill-opacity:1;" d="M 13.117188 26.265625 C 11.394531 26.265625 9.992188 24.863281 9.992188 23.140625 C 9.992188 21.417969 11.394531 20.015625 13.117188 20.015625 C 13.808594 20.015625 14.367188 20.574219 14.367188 21.265625 C 14.367188 21.957031 13.808594 22.515625 13.117188 22.515625 C 12.773438 22.515625 12.492188 22.796875 12.492188 23.140625 C 12.492188 23.484375 12.773438 23.765625 13.117188 23.765625 C 13.808594 23.765625 14.367188 24.324219 14.367188 25.015625 C 14.367188 25.707031 13.808594 26.265625 13.117188 26.265625 Z M 13.117188 26.265625 "/>
<path style=" stroke:none;fill-rule:nonzero;fill:rgb(0%,0%,0%);fill-opacity:1;" d="M 37.460938 18.765625 C 37.140625 18.765625 36.820312 18.644531 36.578125 18.402344 C 36.089844 17.914062 36.089844 17.121094 36.578125 16.632812 L 41.578125 11.628906 C 42.066406 11.140625 42.855469 11.140625 43.34375 11.628906 C 43.832031 12.117188 43.832031 12.90625 43.34375 13.398438 L 38.34375 18.402344 C 38.101562 18.644531 37.78125 18.765625 37.460938 18.765625 Z M 37.460938 18.765625 "/>
</g>
</svg>
