<?xml version="1.0" encoding="UTF-8"?>
<svg xmlns="http://www.w3.org/2000/svg" xmlns:xlink="http://www.w3.org/1999/xlink" width="80pt" height="80pt" viewBox="0 0 80 80" version="1.1">
<g id="surface1">
<path style=" stroke:none;fill-rule:nonzero;fill:rgb(0%,0%,0%);fill-opacity:1;" d="M 78.75 69.375 L 1.25 69.375 C 0.789062 69.375 0.363281 69.121094 0.148438 68.714844 C -0.0703125 68.308594 -0.046875 67.816406 0.210938 67.433594 L 12.710938 48.683594 C 13.089844 48.105469 13.867188 47.953125 14.445312 48.335938 C 15.019531 48.71875 15.175781 49.496094 14.789062 50.070312 L 3.585938 66.875 L 76.414062 66.875 L 65.210938 50.070312 C 64.824219 49.492188 64.980469 48.71875 65.554688 48.335938 C 66.132812 47.949219 66.90625 48.105469 67.289062 48.679688 L 79.789062 67.429688 C 80.046875 67.816406 80.070312 68.308594 79.851562 68.714844 C 79.636719 69.121094 79.210938 69.375 78.75 69.375 Z M 78.75 69.375 "/>
<path style=" stroke:none;fill-rule:nonzero;fill:rgb(0%,0%,0%);fill-opacity:1;" d="M 78.75 74.375 L 1.25 74.375 C 0.558594 74.375 0 73.816406 0 73.125 L 0 68.125 C 0 67.433594 0.558594 66.875 1.25 66.875 L 78.75 66.875 C 79.441406 66.875 80 67.433594 80 68.125 L 80 73.125 C 80 73.816406 79.441406 74.375 78.75 74.375 Z M 2.5 71.875 L 77.5 71.875 L 77.5 69.375 L 2.5 69.375 Z M 2.5 71.875 "/>
<path style=" stroke:none;fill-rule:nonzero;fill:rgb(0%,0%,0%);fill-opacity:1;" d="M 12.3125 69.375 C 12.132812 69.375 11.949219 69.335938 11.773438 69.253906 C 11.152344 68.957031 10.886719 68.210938 11.183594 67.585938 L 17.738281 53.835938 C 18.03125 53.214844 18.773438 52.945312 19.402344 53.246094 C 20.027344 53.542969 20.292969 54.289062 19.992188 54.914062 L 13.441406 68.664062 C 13.226562 69.113281 12.777344 69.375 12.3125 69.375 Z M 12.3125 69.375 "/>
<path style=" stroke:none;fill-rule:nonzero;fill:rgb(0%,0%,0%);fill-opacity:1;" d="M 25.167969 63.125 C 25.050781 63.125 24.9375 63.109375 24.824219 63.078125 C 24.160156 62.886719 23.773438 62.195312 23.964844 61.53125 L 25.757812 55.28125 C 25.945312 54.617188 26.644531 54.238281 27.300781 54.421875 C 27.964844 54.613281 28.351562 55.304688 28.160156 55.96875 L 26.367188 62.21875 C 26.210938 62.769531 25.710938 63.125 25.167969 63.125 Z M 25.167969 63.125 "/>
<path style=" stroke:none;fill-rule:nonzero;fill:rgb(0%,0%,0%);fill-opacity:1;" d="M 67.6875 69.375 C 67.222656 69.375 66.773438 69.113281 66.558594 68.664062 L 64.175781 63.660156 C 63.878906 63.039062 64.140625 62.292969 64.765625 61.996094 C 65.394531 61.695312 66.136719 61.964844 66.429688 62.585938 L 68.816406 67.585938 C 69.113281 68.210938 68.847656 68.957031 68.226562 69.253906 C 68.050781 69.335938 67.867188 69.375 67.6875 69.375 Z M 67.6875 69.375 "/>
<path style=" stroke:none;fill-rule:nonzero;fill:rgb(0%,0%,0%);fill-opacity:1;" d="M 62.917969 59.367188 C 62.453125 59.367188 62.003906 59.105469 61.789062 58.65625 L 57.621094 49.914062 C 57.324219 49.289062 57.589844 48.542969 58.210938 48.246094 C 58.84375 47.949219 59.582031 48.214844 59.878906 48.835938 L 64.046875 57.582031 C 64.34375 58.203125 64.078125 58.953125 63.457031 59.246094 C 63.28125 59.328125 63.097656 59.367188 62.917969 59.367188 Z M 62.917969 59.367188 "/>
<path style=" stroke:none;fill-rule:nonzero;fill:rgb(0%,0%,0%);fill-opacity:1;" d="M 54.832031 63.125 C 54.289062 63.125 53.789062 62.769531 53.632812 62.21875 L 51.839844 55.96875 C 51.648438 55.304688 52.03125 54.613281 52.699219 54.421875 C 53.359375 54.238281 54.054688 54.613281 54.242188 55.28125 L 56.035156 61.53125 C 56.226562 62.195312 55.84375 62.886719 55.175781 63.078125 C 55.0625 63.109375 54.949219 63.125 54.832031 63.125 Z M 54.832031 63.125 "/>
<path style=" stroke:none;fill-rule:nonzero;fill:rgb(0%,0%,0%);fill-opacity:1;" d="M 18.867188 55.625 L 10.417969 55.625 C 9.726562 55.625 9.167969 55.066406 9.167969 54.375 C 9.167969 53.683594 9.726562 53.125 10.417969 53.125 L 18.867188 53.125 C 19.558594 53.125 20.117188 53.683594 20.117188 54.375 C 20.117188 55.066406 19.558594 55.625 18.867188 55.625 Z M 18.867188 55.625 "/>
<path style=" stroke:none;fill-rule:nonzero;fill:rgb(0%,0%,0%);fill-opacity:1;" d="M 75.417969 64.375 L 65.304688 64.375 C 64.613281 64.375 64.054688 63.816406 64.054688 63.125 C 64.054688 62.433594 64.613281 61.875 65.304688 61.875 L 75.417969 61.875 C 76.109375 61.875 76.667969 62.433594 76.667969 63.125 C 76.667969 63.816406 76.109375 64.375 75.417969 64.375 Z M 75.417969 64.375 "/>
<path style=" stroke:none;fill-rule:nonzero;fill:rgb(0%,0%,0%);fill-opacity:1;" d="M 72.082031 59.375 L 62.921875 59.375 C 62.230469 59.375 61.671875 58.816406 61.671875 58.125 C 61.671875 57.433594 62.230469 56.875 62.921875 56.875 L 72.082031 56.875 C 72.773438 56.875 73.332031 57.433594 73.332031 58.125 C 73.332031 58.816406 72.773438 59.375 72.082031 59.375 Z M 72.082031 59.375 "/>
<path style=" stroke:none;fill-rule:nonzero;fill:rgb(0%,0%,0%);fill-opacity:1;" d="M 37.5 56.875 L 26.957031 56.875 C 26.265625 56.875 25.707031 56.316406 25.707031 55.625 C 25.707031 54.933594 26.265625 54.375 26.957031 54.375 L 37.5 54.375 C 38.191406 54.375 38.75 54.933594 38.75 55.625 C 38.75 56.316406 38.191406 56.875 37.5 56.875 Z M 37.5 56.875 "/>
<path style=" stroke:none;fill-rule:nonzero;fill:rgb(0%,0%,0%);fill-opacity:1;" d="M 53.042969 56.875 L 42.617188 56.875 C 41.925781 56.875 41.367188 56.316406 41.367188 55.625 C 41.367188 54.933594 41.925781 54.375 42.617188 54.375 L 53.042969 54.375 C 53.734375 54.375 54.292969 54.933594 54.292969 55.625 C 54.292969 56.316406 53.730469 56.875 53.042969 56.875 Z M 53.042969 56.875 "/>
<path style=" stroke:none;fill-rule:nonzero;fill:rgb(0%,0%,0%);fill-opacity:1;" d="M 54.832031 63.125 L 25.164062 63.125 C 24.476562 63.125 23.914062 62.566406 23.914062 61.875 C 23.914062 61.183594 24.476562 60.625 25.164062 60.625 L 54.832031 60.625 C 55.523438 60.625 56.082031 61.183594 56.082031 61.875 C 56.082031 62.566406 55.523438 63.125 54.832031 63.125 Z M 54.832031 63.125 "/>
<path style=" stroke:none;fill-rule:nonzero;fill:rgb(0%,0%,0%);fill-opacity:1;" d="M 40 59.375 C 39.707031 59.375 39.410156 59.269531 39.175781 59.066406 C 38.394531 58.378906 20 42.074219 20 25.625 C 20 14.597656 28.972656 5.625 40 5.625 C 51.027344 5.625 60 14.597656 60 25.625 C 60 42.074219 41.605469 58.378906 40.824219 59.066406 C 40.589844 59.269531 40.292969 59.375 40 59.375 Z M 40 8.125 C 30.351562 8.125 22.5 15.976562 22.5 25.625 C 22.5 39.042969 36.429688 53.054688 40 56.425781 C 43.570312 53.054688 57.5 39.042969 57.5 25.625 C 57.5 15.976562 49.648438 8.125 40 8.125 Z M 40 8.125 "/>
<path style=" stroke:none;fill-rule:nonzero;fill:rgb(0%,0%,0%);fill-opacity:1;" d="M 31.785156 50.625 L 13.75 50.625 C 13.058594 50.625 12.5 50.066406 12.5 49.375 C 12.5 48.683594 13.058594 48.125 13.75 48.125 L 31.785156 48.125 C 32.476562 48.125 33.035156 48.683594 33.035156 49.375 C 33.035156 50.066406 32.472656 50.625 31.785156 50.625 Z M 31.785156 50.625 "/>
<path style=" stroke:none;fill-rule:nonzero;fill:rgb(0%,0%,0%);fill-opacity:1;" d="M 66.25 50.625 L 48.214844 50.625 C 47.523438 50.625 46.964844 50.066406 46.964844 49.375 C 46.964844 48.683594 47.523438 48.125 48.214844 48.125 L 66.25 48.125 C 66.941406 48.125 67.5 48.683594 67.5 49.375 C 67.5 50.066406 66.941406 50.625 66.25 50.625 Z M 66.25 50.625 "/>
<path style=" stroke:none;fill-rule:nonzero;fill:rgb(0%,0%,0%);fill-opacity:1;" d="M 47.496094 20.621094 L 32.507812 20.621094 C 31.816406 20.621094 31.257812 20.0625 31.257812 19.371094 C 31.257812 18.679688 31.816406 18.121094 32.507812 18.121094 L 47.496094 18.121094 C 48.1875 18.121094 48.746094 18.679688 48.746094 19.371094 C 48.746094 20.0625 48.1875 20.621094 47.496094 20.621094 Z M 47.496094 20.621094 "/>
<path style=" stroke:none;fill-rule:nonzero;fill:rgb(0%,0%,0%);fill-opacity:1;" d="M 40.003906 38.117188 C 39.3125 38.117188 38.753906 37.558594 38.753906 36.867188 L 38.753906 16.871094 C 38.753906 16.179688 39.3125 15.621094 40.003906 15.621094 C 40.695312 15.621094 41.253906 16.179688 41.253906 16.871094 L 41.253906 36.867188 C 41.253906 37.558594 40.695312 38.117188 40.003906 38.117188 Z M 40.003906 38.117188 "/>
<path style=" stroke:none;fill-rule:nonzero;fill:rgb(0%,0%,0%);fill-opacity:1;" d="M 46.25 38.117188 L 33.757812 38.117188 C 33.066406 38.117188 32.507812 37.558594 32.507812 36.867188 C 32.507812 36.175781 33.066406 35.617188 33.757812 35.617188 L 46.25 35.617188 C 46.941406 35.617188 47.5 36.175781 47.5 36.867188 C 47.5 37.558594 46.941406 38.117188 46.25 38.117188 Z M 46.25 38.117188 "/>
<path style=" stroke:none;fill-rule:nonzero;fill:rgb(0%,0%,0%);fill-opacity:1;" d="M 47.5 31.867188 C 45.429688 31.867188 43.75 30.1875 43.75 28.117188 C 43.75 27.425781 44.308594 26.867188 45 26.867188 C 45.691406 26.867188 46.25 27.425781 46.25 28.117188 C 46.25 28.808594 46.808594 29.367188 47.5 29.367188 C 48.1875 29.367188 48.75 28.808594 48.75 28.117188 C 48.75 27.425781 49.308594 26.867188 50 26.867188 C 50.691406 26.867188 51.25 27.425781 51.25 28.117188 C 51.25 30.1875 49.566406 31.867188 47.5 31.867188 Z M 47.5 31.867188 "/>
<path style=" stroke:none;fill-rule:nonzero;fill:rgb(0%,0%,0%);fill-opacity:1;" d="M 45 28.117188 C 44.867188 28.117188 44.734375 28.097656 44.605469 28.050781 C 43.949219 27.835938 43.59375 27.128906 43.8125 26.472656 L 46.3125 18.972656 C 46.53125 18.320312 47.230469 17.964844 47.894531 18.183594 C 48.546875 18.402344 48.902344 19.109375 48.683594 19.765625 L 46.183594 27.261719 C 46.011719 27.785156 45.523438 28.117188 45 28.117188 Z M 45 28.117188 "/>
<path style=" stroke:none;fill-rule:nonzero;fill:rgb(0%,0%,0%);fill-opacity:1;" d="M 49.996094 28.117188 C 49.472656 28.117188 48.984375 27.785156 48.8125 27.261719 L 46.3125 19.765625 C 46.09375 19.109375 46.449219 18.402344 47.101562 18.183594 C 47.761719 17.964844 48.464844 18.320312 48.683594 18.972656 L 51.183594 26.472656 C 51.402344 27.125 51.046875 27.835938 50.390625 28.050781 C 50.261719 28.097656 50.128906 28.117188 49.996094 28.117188 Z M 49.996094 28.117188 "/>
<path style=" stroke:none;fill-rule:nonzero;fill:rgb(0%,0%,0%);fill-opacity:1;" d="M 32.507812 31.867188 C 30.441406 31.867188 28.757812 30.1875 28.757812 28.117188 C 28.757812 27.425781 29.316406 26.867188 30.007812 26.867188 C 30.699219 26.867188 31.257812 27.425781 31.257812 28.117188 C 31.257812 28.808594 31.816406 29.367188 32.507812 29.367188 C 33.199219 29.367188 33.757812 28.808594 33.757812 28.117188 C 33.757812 27.425781 34.316406 26.867188 35.007812 26.867188 C 35.699219 26.867188 36.257812 27.425781 36.257812 28.117188 C 36.257812 30.1875 34.574219 31.867188 32.507812 31.867188 Z M 32.507812 31.867188 "/>
<path style=" stroke:none;fill-rule:nonzero;fill:rgb(0%,0%,0%);fill-opacity:1;" d="M 30.007812 28.117188 C 29.878906 28.117188 29.742188 28.097656 29.613281 28.050781 C 28.957031 27.835938 28.601562 27.128906 28.824219 26.472656 L 31.320312 18.972656 C 31.539062 18.320312 32.242188 17.964844 32.902344 18.183594 C 33.554688 18.402344 33.910156 19.109375 33.691406 19.765625 L 31.195312 27.261719 C 31.015625 27.785156 30.53125 28.117188 30.007812 28.117188 Z M 30.007812 28.117188 "/>
<path style=" stroke:none;fill-rule:nonzero;fill:rgb(0%,0%,0%);fill-opacity:1;" d="M 35.003906 28.117188 C 34.480469 28.117188 33.992188 27.785156 33.820312 27.261719 L 31.320312 19.765625 C 31.101562 19.109375 31.457031 18.402344 32.109375 18.183594 C 32.769531 17.964844 33.476562 18.320312 33.691406 18.972656 L 36.191406 26.472656 C 36.410156 27.125 36.054688 27.835938 35.402344 28.050781 C 35.269531 28.097656 35.136719 28.117188 35.003906 28.117188 Z M 35.003906 28.117188 "/>
<path style=" stroke:none;fill-rule:nonzero;fill:rgb(0%,0%,0%);fill-opacity:1;" d="M 35.003906 28.117188 L 30.007812 28.117188 C 29.316406 28.117188 28.757812 27.558594 28.757812 26.867188 C 28.757812 26.175781 29.316406 25.617188 30.007812 25.617188 L 35.003906 25.617188 C 35.695312 25.617188 36.253906 26.175781 36.253906 26.867188 C 36.253906 27.558594 35.695312 28.117188 35.003906 28.117188 Z M 35.003906 28.117188 "/>
<path style=" stroke:none;fill-rule:nonzero;fill:rgb(0%,0%,0%);fill-opacity:1;" d="M 49.996094 28.117188 L 45 28.117188 C 44.308594 28.117188 43.75 27.558594 43.75 26.867188 C 43.75 26.175781 44.308594 25.617188 45 25.617188 L 49.996094 25.617188 C 50.6875 25.617188 51.246094 26.175781 51.246094 26.867188 C 51.246094 27.558594 50.6875 28.117188 49.996094 28.117188 Z M 49.996094 28.117188 "/>
<path style=" stroke:none;fill-rule:nonzero;fill:rgb(0%,0%,0%);fill-opacity:1;" d="M 35.007812 29.367188 C 34.316406 29.367188 33.757812 28.8125 33.757812 28.121094 L 33.753906 26.871094 C 33.753906 26.179688 34.3125 25.617188 35.003906 25.617188 C 35.695312 25.617188 36.253906 26.175781 36.253906 26.867188 L 36.257812 28.117188 C 36.257812 28.808594 35.703125 29.367188 35.007812 29.367188 Z M 35.007812 29.367188 "/>
<path style=" stroke:none;fill-rule:nonzero;fill:rgb(0%,0%,0%);fill-opacity:1;" d="M 49.996094 29.367188 C 49.308594 29.367188 48.75 28.8125 48.746094 28.121094 L 48.746094 26.871094 C 48.742188 26.179688 49.300781 25.617188 49.992188 25.617188 L 49.996094 25.617188 C 50.683594 25.617188 51.242188 26.175781 51.246094 26.867188 L 51.246094 28.117188 C 51.25 28.808594 50.691406 29.367188 50 29.367188 C 50 29.367188 50 29.367188 49.996094 29.367188 Z M 49.996094 29.367188 "/>
<path style=" stroke:none;fill-rule:nonzero;fill:rgb(0%,0%,0%);fill-opacity:1;" d="M 30.003906 29.367188 C 29.3125 29.367188 28.753906 28.8125 28.753906 28.121094 L 28.75 26.871094 C 28.75 26.179688 29.308594 25.617188 30 25.617188 C 30.691406 25.617188 31.25 26.175781 31.25 26.867188 L 31.253906 28.117188 C 31.253906 28.808594 30.699219 29.367188 30.007812 29.367188 C 30.003906 29.367188 30.003906 29.367188 30.003906 29.367188 Z M 30.003906 29.367188 "/>
<path style=" stroke:none;fill-rule:nonzero;fill:rgb(0%,0%,0%);fill-opacity:1;" d="M 45 29.367188 C 44.308594 29.367188 43.75 28.808594 43.75 28.117188 L 43.75 26.867188 C 43.75 26.175781 44.308594 25.617188 45 25.617188 C 45.691406 25.617188 46.25 26.175781 46.25 26.867188 L 46.25 28.117188 C 46.25 28.808594 45.691406 29.367188 45 29.367188 Z M 45 29.367188 "/>
</g>
</svg>
