<?xml version="1.0" encoding="UTF-8"?>
<svg xmlns="http://www.w3.org/2000/svg" xmlns:xlink="http://www.w3.org/1999/xlink" width="80pt" height="80pt" viewBox="0 0 80 80" version="1.1">
<g id="surface1">
<path style=" stroke:none;fill-rule:nonzero;fill:rgb(0%,0%,0%);fill-opacity:1;" d="M 19.355469 79.34375 C 8.683594 79.34375 0 70.664062 0 59.988281 C 0 52.554688 4.339844 45.6875 11.058594 42.5 C 11.703125 42.195312 12.472656 42.46875 12.777344 43.109375 C 13.085938 43.753906 12.808594 44.523438 12.164062 44.828125 C 6.34375 47.597656 2.582031 53.546875 2.582031 59.988281 C 2.582031 69.238281 10.105469 76.765625 19.355469 76.765625 C 28.605469 76.765625 36.128906 69.238281 36.128906 59.988281 C 36.128906 53.546875 32.367188 47.597656 26.546875 44.828125 C 25.902344 44.523438 25.628906 43.753906 25.933594 43.109375 C 26.238281 42.46875 27.007812 42.195312 27.65625 42.5 C 34.371094 45.691406 38.710938 52.558594 38.710938 59.988281 C 38.710938 70.664062 30.027344 79.34375 19.355469 79.34375 Z M 19.355469 79.34375 "/>
<path style=" stroke:none;fill-rule:nonzero;fill:rgb(0%,0%,0%);fill-opacity:1;" d="M 19.355469 74.183594 C 11.527344 74.183594 5.160156 67.816406 5.160156 59.988281 C 5.160156 52.164062 11.527344 45.796875 19.355469 45.796875 C 27.179688 45.796875 33.546875 52.164062 33.546875 59.988281 C 33.546875 67.816406 27.179688 74.183594 19.355469 74.183594 Z M 19.355469 48.378906 C 12.949219 48.378906 7.742188 53.585938 7.742188 59.988281 C 7.742188 66.394531 12.949219 71.601562 19.355469 71.601562 C 25.757812 71.601562 30.96875 66.394531 30.96875 59.988281 C 30.96875 53.585938 25.757812 48.378906 19.355469 48.378906 Z M 19.355469 48.378906 "/>
<path style=" stroke:none;fill-rule:nonzero;fill:rgb(0%,0%,0%);fill-opacity:1;" d="M 19.351562 79.34375 C 18.636719 79.34375 18.0625 78.769531 18.0625 78.054688 C 18.0625 77.339844 18.636719 76.765625 19.351562 76.765625 C 20.0625 76.765625 20.644531 76.1875 20.644531 75.472656 C 20.644531 74.761719 20.0625 74.183594 19.351562 74.183594 C 18.636719 74.183594 18.0625 73.605469 18.0625 72.894531 C 18.0625 72.179688 18.636719 71.601562 19.351562 71.601562 C 21.484375 71.601562 23.222656 73.339844 23.222656 75.472656 C 23.222656 77.609375 21.484375 79.34375 19.351562 79.34375 Z M 19.351562 79.34375 "/>
<path style=" stroke:none;fill-rule:nonzero;fill:rgb(0%,0%,0%);fill-opacity:1;" d="M 11.613281 44.953125 C 10.898438 44.953125 10.324219 44.378906 10.324219 43.664062 L 10.324219 35.46875 C 10.324219 34.753906 10.898438 34.179688 11.613281 34.179688 C 12.328125 34.179688 12.902344 34.753906 12.902344 35.46875 L 12.902344 43.664062 C 12.902344 44.375 12.328125 44.953125 11.613281 44.953125 Z M 11.613281 44.953125 "/>
<path style=" stroke:none;fill-rule:nonzero;fill:rgb(0%,0%,0%);fill-opacity:1;" d="M 27.09375 44.953125 C 26.382812 44.953125 25.804688 44.378906 25.804688 43.664062 L 25.804688 35.46875 C 25.804688 34.753906 26.382812 34.179688 27.09375 34.179688 C 27.808594 34.179688 28.386719 34.753906 28.386719 35.46875 L 28.386719 43.664062 C 28.386719 44.375 27.808594 44.953125 27.09375 44.953125 Z M 27.09375 44.953125 "/>
<path style=" stroke:none;fill-rule:nonzero;fill:rgb(0%,0%,0%);fill-opacity:1;" d="M 27.09375 36.757812 L 11.613281 36.757812 C 10.898438 36.757812 10.324219 36.183594 10.324219 35.46875 C 10.324219 34.753906 10.898438 34.179688 11.613281 34.179688 L 27.09375 34.179688 C 27.808594 34.179688 28.386719 34.753906 28.386719 35.46875 C 28.386719 36.183594 27.808594 36.757812 27.09375 36.757812 Z M 27.09375 36.757812 "/>
<path style=" stroke:none;fill-rule:nonzero;fill:rgb(0%,0%,0%);fill-opacity:1;" d="M 21.972656 41.917969 C 21.261719 41.917969 20.675781 41.34375 20.675781 40.628906 C 20.675781 39.917969 21.246094 39.339844 21.960938 39.339844 L 21.972656 39.339844 C 22.6875 39.339844 23.265625 39.917969 23.265625 40.628906 C 23.265625 41.34375 22.6875 41.917969 21.972656 41.917969 Z M 21.972656 41.917969 "/>
<path style=" stroke:none;fill-rule:nonzero;fill:rgb(0%,0%,0%);fill-opacity:1;" d="M 60.644531 79.34375 C 49.972656 79.34375 41.289062 70.664062 41.289062 59.988281 C 41.289062 52.558594 45.628906 45.691406 52.34375 42.5 C 52.988281 42.195312 53.757812 42.46875 54.0625 43.109375 C 54.371094 43.753906 54.09375 44.523438 53.453125 44.828125 C 47.632812 47.597656 43.871094 53.546875 43.871094 59.988281 C 43.871094 69.238281 51.394531 76.765625 60.644531 76.765625 C 69.894531 76.765625 77.417969 69.238281 77.417969 59.988281 C 77.417969 53.546875 73.65625 47.597656 67.832031 44.828125 C 67.1875 44.523438 66.914062 43.753906 67.222656 43.109375 C 67.523438 42.46875 68.292969 42.195312 68.941406 42.5 C 75.660156 45.6875 80 52.554688 80 59.988281 C 80 70.664062 71.316406 79.34375 60.644531 79.34375 Z M 60.644531 79.34375 "/>
<path style=" stroke:none;fill-rule:nonzero;fill:rgb(0%,0%,0%);fill-opacity:1;" d="M 60.644531 74.183594 C 52.820312 74.183594 46.453125 67.816406 46.453125 59.988281 C 46.453125 52.164062 52.820312 45.796875 60.644531 45.796875 C 68.472656 45.796875 74.839844 52.164062 74.839844 59.988281 C 74.839844 67.816406 68.472656 74.183594 60.644531 74.183594 Z M 60.644531 48.378906 C 54.242188 48.378906 49.03125 53.585938 49.03125 59.988281 C 49.03125 66.394531 54.242188 71.601562 60.644531 71.601562 C 67.050781 71.601562 72.257812 66.394531 72.257812 59.988281 C 72.257812 53.585938 67.050781 48.378906 60.644531 48.378906 Z M 60.644531 48.378906 "/>
<path style=" stroke:none;fill-rule:nonzero;fill:rgb(0%,0%,0%);fill-opacity:1;" d="M 60.648438 79.34375 C 58.515625 79.34375 56.777344 77.609375 56.777344 75.472656 C 56.777344 73.339844 58.515625 71.601562 60.648438 71.601562 C 61.363281 71.601562 61.9375 72.179688 61.9375 72.894531 C 61.9375 73.605469 61.363281 74.183594 60.648438 74.183594 C 59.9375 74.183594 59.355469 74.761719 59.355469 75.472656 C 59.355469 76.1875 59.9375 76.765625 60.648438 76.765625 C 61.363281 76.765625 61.9375 77.339844 61.9375 78.054688 C 61.9375 78.769531 61.363281 79.34375 60.648438 79.34375 Z M 60.648438 79.34375 "/>
<path style=" stroke:none;fill-rule:nonzero;fill:rgb(0%,0%,0%);fill-opacity:1;" d="M 68.386719 44.953125 C 67.671875 44.953125 67.097656 44.378906 67.097656 43.664062 L 67.097656 35.46875 C 67.097656 34.753906 67.671875 34.179688 68.386719 34.179688 C 69.101562 34.179688 69.675781 34.753906 69.675781 35.46875 L 69.675781 43.664062 C 69.675781 44.375 69.101562 44.953125 68.386719 44.953125 Z M 68.386719 44.953125 "/>
<path style=" stroke:none;fill-rule:nonzero;fill:rgb(0%,0%,0%);fill-opacity:1;" d="M 52.90625 44.953125 C 52.191406 44.953125 51.613281 44.378906 51.613281 43.664062 L 51.613281 35.46875 C 51.613281 34.753906 52.191406 34.179688 52.90625 34.179688 C 53.617188 34.179688 54.195312 34.753906 54.195312 35.46875 L 54.195312 43.664062 C 54.195312 44.375 53.617188 44.953125 52.90625 44.953125 Z M 52.90625 44.953125 "/>
<path style=" stroke:none;fill-rule:nonzero;fill:rgb(0%,0%,0%);fill-opacity:1;" d="M 68.386719 36.757812 L 52.90625 36.757812 C 52.191406 36.757812 51.613281 36.183594 51.613281 35.46875 C 51.613281 34.753906 52.191406 34.179688 52.90625 34.179688 L 68.386719 34.179688 C 69.101562 34.179688 69.675781 34.753906 69.675781 35.46875 C 69.675781 36.183594 69.101562 36.757812 68.386719 36.757812 Z M 68.386719 36.757812 "/>
<path style=" stroke:none;fill-rule:nonzero;fill:rgb(0%,0%,0%);fill-opacity:1;" d="M 58.101562 41.917969 C 57.390625 41.917969 56.804688 41.34375 56.804688 40.628906 C 56.804688 39.917969 57.375 39.339844 58.089844 39.339844 L 58.101562 39.339844 C 58.816406 39.339844 59.394531 39.917969 59.394531 40.628906 C 59.394531 41.34375 58.816406 41.917969 58.101562 41.917969 Z M 58.101562 41.917969 "/>
<path style=" stroke:none;fill-rule:nonzero;fill:rgb(0%,0%,0%);fill-opacity:1;" d="M 21.9375 35.472656 C 21.226562 35.472656 20.648438 34.898438 20.648438 34.183594 C 20.648438 33.472656 20.070312 32.894531 19.355469 32.894531 C 18.644531 32.894531 18.066406 33.472656 18.066406 34.183594 C 18.066406 34.898438 17.492188 35.472656 16.777344 35.472656 C 16.0625 35.472656 15.488281 34.898438 15.488281 34.183594 C 15.488281 32.050781 17.222656 30.3125 19.355469 30.3125 C 21.492188 30.3125 23.226562 32.050781 23.226562 34.183594 C 23.226562 34.898438 22.652344 35.472656 21.9375 35.472656 Z M 21.9375 35.472656 "/>
<path style=" stroke:none;fill-rule:nonzero;fill:rgb(0%,0%,0%);fill-opacity:1;" d="M 63.226562 35.472656 C 62.515625 35.472656 61.9375 34.898438 61.9375 34.183594 C 61.9375 33.472656 61.359375 32.894531 60.648438 32.894531 C 59.9375 32.894531 59.355469 33.472656 59.355469 34.183594 C 59.355469 34.898438 58.78125 35.472656 58.066406 35.472656 C 57.355469 35.472656 56.777344 34.898438 56.777344 34.183594 C 56.777344 32.050781 58.515625 30.3125 60.648438 30.3125 C 62.78125 30.3125 64.519531 32.050781 64.519531 34.183594 C 64.519531 34.898438 63.941406 35.472656 63.226562 35.472656 Z M 63.226562 35.472656 "/>
<path style=" stroke:none;fill-rule:nonzero;fill:rgb(0%,0%,0%);fill-opacity:1;" d="M 60.648438 32.878906 C 59.9375 32.878906 59.359375 32.300781 59.359375 31.585938 C 59.359375 24.128906 55.195312 17.460938 48.488281 14.183594 C 47.84375 13.871094 47.582031 13.097656 47.894531 12.457031 C 48.203125 11.816406 48.984375 11.550781 49.617188 11.863281 C 57.21875 15.578125 61.941406 23.132812 61.941406 31.585938 C 61.941406 32.300781 61.363281 32.878906 60.648438 32.878906 Z M 60.648438 32.878906 "/>
<path style=" stroke:none;fill-rule:nonzero;fill:rgb(0%,0%,0%);fill-opacity:1;" d="M 19.355469 32.878906 C 18.640625 32.878906 18.066406 32.300781 18.066406 31.585938 C 18.066406 23.117188 22.800781 15.554688 30.421875 11.847656 C 31.0625 11.539062 31.835938 11.804688 32.144531 12.445312 C 32.457031 13.085938 32.1875 13.859375 31.550781 14.167969 C 24.824219 17.441406 20.644531 24.113281 20.644531 31.585938 C 20.644531 32.300781 20.070312 32.878906 19.355469 32.878906 Z M 19.355469 32.878906 "/>
<path style=" stroke:none;fill-rule:nonzero;fill:rgb(0%,0%,0%);fill-opacity:1;" d="M 16.777344 36.757812 C 16.0625 36.757812 15.488281 36.183594 15.488281 35.46875 L 15.488281 34.183594 C 15.488281 33.46875 16.0625 32.894531 16.777344 32.894531 C 17.492188 32.894531 18.066406 33.46875 18.066406 34.183594 L 18.066406 35.46875 C 18.066406 36.183594 17.492188 36.757812 16.777344 36.757812 Z M 16.777344 36.757812 "/>
<path style=" stroke:none;fill-rule:nonzero;fill:rgb(0%,0%,0%);fill-opacity:1;" d="M 21.9375 36.757812 C 21.226562 36.757812 20.648438 36.183594 20.648438 35.46875 L 20.648438 34.183594 C 20.648438 33.46875 21.226562 32.894531 21.9375 32.894531 C 22.652344 32.894531 23.226562 33.46875 23.226562 34.183594 L 23.226562 35.46875 C 23.226562 36.183594 22.652344 36.757812 21.9375 36.757812 Z M 21.9375 36.757812 "/>
<path style=" stroke:none;fill-rule:nonzero;fill:rgb(0%,0%,0%);fill-opacity:1;" d="M 58.066406 36.757812 C 57.355469 36.757812 56.777344 36.183594 56.777344 35.46875 L 56.777344 34.183594 C 56.777344 33.46875 57.355469 32.894531 58.066406 32.894531 C 58.78125 32.894531 59.355469 33.46875 59.355469 34.183594 L 59.355469 35.46875 C 59.355469 36.183594 58.78125 36.757812 58.066406 36.757812 Z M 58.066406 36.757812 "/>
<path style=" stroke:none;fill-rule:nonzero;fill:rgb(0%,0%,0%);fill-opacity:1;" d="M 63.226562 36.757812 C 62.515625 36.757812 61.9375 36.183594 61.9375 35.46875 L 61.9375 34.183594 C 61.9375 33.46875 62.515625 32.894531 63.226562 32.894531 C 63.941406 32.894531 64.519531 33.46875 64.519531 34.183594 L 64.519531 35.46875 C 64.519531 36.183594 63.941406 36.757812 63.226562 36.757812 Z M 63.226562 36.757812 "/>
<path style=" stroke:none;fill-rule:nonzero;fill:rgb(0%,0%,0%);fill-opacity:1;" d="M 40.019531 21.289062 C 34.328125 21.289062 29.699219 16.660156 29.699219 10.96875 C 29.699219 5.277344 34.328125 0.644531 40.019531 0.644531 C 45.710938 0.644531 50.34375 5.277344 50.34375 10.96875 C 50.34375 16.660156 45.710938 21.289062 40.019531 21.289062 Z M 40.019531 3.226562 C 35.75 3.226562 32.277344 6.699219 32.277344 10.96875 C 32.277344 15.238281 35.75 18.710938 40.019531 18.710938 C 44.289062 18.710938 47.761719 15.238281 47.761719 10.96875 C 47.761719 6.699219 44.289062 3.226562 40.019531 3.226562 Z M 40.019531 3.226562 "/>
<path style=" stroke:none;fill-rule:nonzero;fill:rgb(0%,0%,0%);fill-opacity:1;" d="M 40.019531 25.164062 C 34.328125 25.164062 29.699219 20.53125 29.699219 14.839844 C 29.699219 14.128906 30.277344 13.550781 30.988281 13.550781 C 31.703125 13.550781 32.28125 14.128906 32.28125 14.839844 C 32.28125 19.109375 35.753906 22.582031 40.019531 22.582031 C 44.289062 22.582031 47.761719 19.109375 47.761719 14.839844 C 47.761719 14.128906 48.339844 13.550781 49.050781 13.550781 C 49.765625 13.550781 50.34375 14.128906 50.34375 14.839844 C 50.34375 20.53125 45.710938 25.164062 40.019531 25.164062 Z M 40.019531 25.164062 "/>
<path style=" stroke:none;fill-rule:nonzero;fill:rgb(0%,0%,0%);fill-opacity:1;" d="M 30.984375 16.132812 C 30.273438 16.132812 29.695312 15.554688 29.695312 14.839844 L 29.695312 10.96875 C 29.695312 10.257812 30.273438 9.679688 30.984375 9.679688 C 31.699219 9.679688 32.277344 10.257812 32.277344 10.96875 L 32.277344 14.839844 C 32.277344 15.554688 31.699219 16.132812 30.984375 16.132812 Z M 30.984375 16.132812 "/>
<path style=" stroke:none;fill-rule:nonzero;fill:rgb(0%,0%,0%);fill-opacity:1;" d="M 49.054688 16.132812 C 48.339844 16.132812 47.765625 15.554688 47.765625 14.839844 L 47.765625 10.96875 C 47.765625 10.257812 48.339844 9.679688 49.054688 9.679688 C 49.769531 9.679688 50.347656 10.257812 50.347656 10.96875 L 50.347656 14.839844 C 50.347656 15.554688 49.765625 16.132812 49.054688 16.132812 Z M 49.054688 16.132812 "/>
<path style=" stroke:none;fill-rule:nonzero;fill:rgb(0%,0%,0%);fill-opacity:1;" d="M 40.019531 14.839844 C 39.308594 14.839844 38.730469 14.261719 38.730469 13.546875 L 38.730469 8.386719 C 38.730469 7.671875 39.308594 7.097656 40.019531 7.097656 C 40.734375 7.097656 41.3125 7.671875 41.3125 8.386719 L 41.3125 13.546875 C 41.3125 14.261719 40.734375 14.839844 40.019531 14.839844 Z M 40.019531 14.839844 "/>
<path style=" stroke:none;fill-rule:nonzero;fill:rgb(0%,0%,0%);fill-opacity:1;" d="M 36.148438 24.292969 C 35.4375 24.292969 34.859375 23.71875 34.859375 23.003906 L 34.859375 19.128906 C 34.859375 18.417969 35.4375 17.839844 36.148438 17.839844 C 36.863281 17.839844 37.441406 18.417969 37.441406 19.128906 L 37.441406 23.003906 C 37.441406 23.71875 36.863281 24.292969 36.148438 24.292969 Z M 36.148438 24.292969 "/>
<path style=" stroke:none;fill-rule:nonzero;fill:rgb(0%,0%,0%);fill-opacity:1;" d="M 43.894531 24.292969 C 43.179688 24.292969 42.601562 23.714844 42.601562 23.003906 L 42.601562 19.128906 C 42.601562 18.417969 43.179688 17.839844 43.894531 17.839844 C 44.605469 17.839844 45.183594 18.417969 45.183594 19.128906 L 45.183594 23.003906 C 45.183594 23.714844 44.605469 24.292969 43.894531 24.292969 Z M 43.894531 24.292969 "/>
</g>
</svg>
