<?xml version="1.0" encoding="UTF-8"?>
<svg xmlns="http://www.w3.org/2000/svg" xmlns:xlink="http://www.w3.org/1999/xlink" width="80pt" height="80pt" viewBox="0 0 80 80" version="1.1">
<g id="surface1">
<path style=" stroke:none;fill-rule:nonzero;fill:rgb(0%,0%,0%);fill-opacity:1;" d="M 45.3125 60.003906 C 44.992188 60.003906 44.671875 59.882812 44.429688 59.636719 C 43.941406 59.148438 43.941406 58.359375 44.429688 57.871094 L 45.3125 56.984375 C 45.800781 56.496094 46.589844 56.496094 47.078125 56.984375 C 47.570312 57.476562 47.570312 58.265625 47.078125 58.753906 L 46.195312 59.636719 C 45.953125 59.882812 45.632812 60.003906 45.3125 60.003906 Z M 45.3125 60.003906 "/>
<path style=" stroke:none;fill-rule:nonzero;fill:rgb(0%,0%,0%);fill-opacity:1;" d="M 46.199219 59.121094 C 46.085938 59.121094 45.96875 59.105469 45.855469 59.070312 C 45.191406 58.882812 44.804688 58.191406 44.996094 57.527344 L 46.398438 52.59375 C 46.585938 51.929688 47.277344 51.539062 47.941406 51.734375 C 48.605469 51.921875 48.992188 52.613281 48.800781 53.277344 L 47.398438 58.210938 C 47.242188 58.761719 46.742188 59.121094 46.199219 59.121094 Z M 46.199219 59.121094 "/>
<path style=" stroke:none;fill-rule:nonzero;fill:rgb(0%,0%,0%);fill-opacity:1;" d="M 46.195312 59.121094 C 45.648438 59.121094 45.148438 58.761719 44.992188 58.210938 C 44.804688 57.546875 45.191406 56.855469 45.855469 56.667969 L 50.792969 55.265625 C 51.457031 55.074219 52.148438 55.460938 52.335938 56.125 C 52.523438 56.792969 52.140625 57.480469 51.476562 57.671875 L 46.539062 59.070312 C 46.425781 59.105469 46.308594 59.121094 46.195312 59.121094 Z M 46.195312 59.121094 "/>
<path style=" stroke:none;fill-rule:nonzero;fill:rgb(0%,0%,0%);fill-opacity:1;" d="M 52.386719 56.46875 C 52.066406 56.46875 51.746094 56.347656 51.5 56.101562 L 47.964844 52.566406 C 47.476562 52.078125 47.476562 51.289062 47.964844 50.800781 C 48.457031 50.3125 49.246094 50.3125 49.734375 50.800781 L 53.269531 54.335938 C 53.757812 54.824219 53.757812 55.613281 53.269531 56.101562 C 53.023438 56.347656 52.703125 56.46875 52.386719 56.46875 Z M 52.386719 56.46875 "/>
<path style=" stroke:none;fill-rule:nonzero;fill:rgb(0%,0%,0%);fill-opacity:1;" d="M 67.042969 41.808594 C 66.722656 41.808594 66.402344 41.6875 66.160156 41.441406 L 62.625 37.90625 C 62.136719 37.417969 62.136719 36.628906 62.625 36.140625 C 63.113281 35.648438 63.902344 35.648438 64.394531 36.140625 L 67.925781 39.675781 C 68.417969 40.164062 68.417969 40.953125 67.925781 41.441406 C 67.683594 41.6875 67.363281 41.808594 67.042969 41.808594 Z M 67.042969 41.808594 "/>
<path style=" stroke:none;fill-rule:nonzero;fill:rgb(0%,0%,0%);fill-opacity:1;" d="M 47.601562 54.183594 C 47.28125 54.183594 46.960938 54.0625 46.714844 53.816406 C 46.226562 53.328125 46.226562 52.539062 46.714844 52.050781 L 73.382812 25.382812 C 73.871094 24.890625 74.664062 24.890625 75.152344 25.382812 C 75.640625 25.871094 75.640625 26.660156 75.152344 27.148438 L 48.484375 53.816406 C 48.238281 54.0625 47.921875 54.183594 47.601562 54.183594 Z M 47.601562 54.183594 "/>
<path style=" stroke:none;fill-rule:nonzero;fill:rgb(0%,0%,0%);fill-opacity:1;" d="M 51.136719 57.71875 C 50.816406 57.71875 50.496094 57.597656 50.25 57.351562 C 49.761719 56.863281 49.761719 56.074219 50.25 55.585938 L 76.917969 28.917969 C 77.40625 28.429688 78.199219 28.429688 78.6875 28.917969 C 79.175781 29.40625 79.175781 30.195312 78.6875 30.683594 L 52.019531 57.351562 C 51.773438 57.597656 51.453125 57.71875 51.136719 57.71875 Z M 51.136719 57.71875 "/>
<path style=" stroke:none;fill-rule:nonzero;fill:rgb(0%,0%,0%);fill-opacity:1;" d="M 77.800781 31.050781 C 77.480469 31.050781 77.164062 30.929688 76.917969 30.683594 C 76.429688 30.195312 76.429688 29.40625 76.917969 28.917969 C 77.40625 28.429688 77.40625 27.636719 76.917969 27.148438 C 76.433594 26.664062 75.636719 26.660156 75.152344 27.148438 C 74.664062 27.636719 73.871094 27.636719 73.382812 27.148438 C 72.894531 26.660156 72.894531 25.867188 73.382812 25.378906 C 74.847656 23.921875 77.222656 23.921875 78.6875 25.378906 C 80.148438 26.84375 80.148438 29.222656 78.6875 30.683594 C 78.441406 30.929688 78.121094 31.050781 77.800781 31.050781 Z M 77.800781 31.050781 "/>
<path style=" stroke:none;fill-rule:nonzero;fill:rgb(0%,0%,0%);fill-opacity:1;" d="M 77.800781 36.355469 C 77.480469 36.355469 77.164062 36.230469 76.917969 35.988281 C 76.429688 35.5 76.429688 34.707031 76.917969 34.21875 C 77.152344 33.984375 77.285156 33.671875 77.285156 33.335938 C 77.285156 33 77.15625 32.6875 76.917969 32.453125 C 76.429688 31.964844 76.429688 31.175781 76.917969 30.683594 C 77.40625 30.195312 78.199219 30.199219 78.6875 30.683594 C 79.394531 31.390625 79.785156 32.332031 79.785156 33.335938 C 79.785156 34.335938 79.394531 35.28125 78.6875 35.988281 C 78.441406 36.230469 78.121094 36.355469 77.800781 36.355469 Z M 77.800781 36.355469 "/>
<path style=" stroke:none;fill-rule:nonzero;fill:rgb(0%,0%,0%);fill-opacity:1;" d="M 69.332031 44.824219 C 69.011719 44.824219 68.691406 44.703125 68.445312 44.460938 C 67.957031 43.972656 67.957031 43.179688 68.445312 42.691406 L 76.917969 34.21875 C 77.40625 33.730469 78.199219 33.730469 78.6875 34.21875 C 79.175781 34.707031 79.175781 35.5 78.6875 35.988281 L 70.214844 44.460938 C 69.972656 44.707031 69.652344 44.824219 69.332031 44.824219 Z M 69.332031 44.824219 "/>
<path style=" stroke:none;fill-rule:nonzero;fill:rgb(0%,0%,0%);fill-opacity:1;" d="M 77.800781 32.820312 C 77.480469 32.820312 77.164062 32.695312 76.917969 32.453125 L 72.5 28.03125 C 72.011719 27.542969 72.011719 26.753906 72.5 26.265625 C 72.988281 25.777344 73.777344 25.777344 74.265625 26.265625 L 78.6875 30.683594 C 79.175781 31.171875 79.175781 31.964844 78.6875 32.453125 C 78.441406 32.695312 78.121094 32.820312 77.800781 32.820312 Z M 77.800781 32.820312 "/>
<path style=" stroke:none;fill-rule:nonzero;fill:rgb(0%,0%,0%);fill-opacity:1;" d="M 57.8125 76.25 L 5.3125 76.25 C 4.621094 76.25 4.0625 75.691406 4.0625 75 L 4.0625 1.25 C 4.0625 0.558594 4.621094 0 5.3125 0 L 50.3125 0 C 50.644531 0 50.960938 0.132812 51.195312 0.367188 L 58.695312 7.867188 C 58.929688 8.101562 59.0625 8.417969 59.0625 8.75 L 59.0625 42.71875 C 59.0625 43.410156 58.503906 43.96875 57.8125 43.96875 C 57.121094 43.96875 56.5625 43.410156 56.5625 42.71875 L 56.5625 9.269531 L 49.796875 2.5 L 6.5625 2.5 L 6.5625 73.75 L 56.5625 73.75 L 56.5625 49.789062 C 56.5625 49.097656 57.121094 48.539062 57.8125 48.539062 C 58.503906 48.539062 59.0625 49.097656 59.0625 49.789062 L 59.0625 75 C 59.0625 75.691406 58.503906 76.25 57.8125 76.25 Z M 57.8125 76.25 "/>
<path style=" stroke:none;fill-rule:nonzero;fill:rgb(0%,0%,0%);fill-opacity:1;" d="M 50.3125 10 C 49.621094 10 49.0625 9.441406 49.0625 8.75 L 49.0625 1.25 C 49.0625 0.558594 49.621094 0 50.3125 0 C 51.003906 0 51.5625 0.558594 51.5625 1.25 L 51.5625 8.75 C 51.5625 9.441406 51.003906 10 50.3125 10 Z M 50.3125 10 "/>
<path style=" stroke:none;fill-rule:nonzero;fill:rgb(0%,0%,0%);fill-opacity:1;" d="M 57.8125 10 L 50.3125 10 C 49.621094 10 49.0625 9.441406 49.0625 8.75 C 49.0625 8.058594 49.621094 7.5 50.3125 7.5 L 57.8125 7.5 C 58.503906 7.5 59.0625 8.058594 59.0625 8.75 C 59.0625 9.441406 58.503906 10 57.8125 10 Z M 57.8125 10 "/>
<path style=" stroke:none;fill-rule:nonzero;fill:rgb(0%,0%,0%);fill-opacity:1;" d="M 47.8125 35.007812 L 15.3125 35.007812 C 14.621094 35.007812 14.0625 34.449219 14.0625 33.757812 C 14.0625 33.066406 14.621094 32.507812 15.3125 32.507812 L 47.8125 32.507812 C 48.503906 32.507812 49.0625 33.066406 49.0625 33.757812 C 49.0625 34.449219 48.503906 35.007812 47.8125 35.007812 Z M 47.8125 35.007812 "/>
<path style=" stroke:none;fill-rule:nonzero;fill:rgb(0%,0%,0%);fill-opacity:1;" d="M 47.8125 41.257812 L 15.3125 41.257812 C 14.621094 41.257812 14.0625 40.699219 14.0625 40.007812 C 14.0625 39.316406 14.621094 38.757812 15.3125 38.757812 L 47.8125 38.757812 C 48.503906 38.757812 49.0625 39.316406 49.0625 40.007812 C 49.0625 40.699219 48.503906 41.257812 47.8125 41.257812 Z M 47.8125 41.257812 "/>
<path style=" stroke:none;fill-rule:nonzero;fill:rgb(0%,0%,0%);fill-opacity:1;" d="M 47.8125 47.507812 L 15.3125 47.507812 C 14.621094 47.507812 14.0625 46.949219 14.0625 46.257812 C 14.0625 45.566406 14.621094 45.007812 15.3125 45.007812 L 47.8125 45.007812 C 48.503906 45.007812 49.0625 45.566406 49.0625 46.257812 C 49.0625 46.949219 48.503906 47.507812 47.8125 47.507812 Z M 47.8125 47.507812 "/>
<path style=" stroke:none;fill-rule:nonzero;fill:rgb(0%,0%,0%);fill-opacity:1;" d="M 31.5625 53.753906 L 15.3125 53.753906 C 14.621094 53.753906 14.0625 53.195312 14.0625 52.503906 C 14.0625 51.8125 14.621094 51.253906 15.3125 51.253906 L 31.5625 51.253906 C 32.253906 51.253906 32.8125 51.8125 32.8125 52.503906 C 32.8125 53.195312 32.253906 53.753906 31.5625 53.753906 Z M 31.5625 53.753906 "/>
<path style=" stroke:none;fill-rule:nonzero;fill:rgb(0%,0%,0%);fill-opacity:1;" d="M 47.8125 66.253906 L 39.0625 66.253906 C 38.371094 66.253906 37.8125 65.695312 37.8125 65.003906 C 37.8125 64.3125 38.371094 63.753906 39.0625 63.753906 L 47.8125 63.753906 C 48.503906 63.753906 49.0625 64.3125 49.0625 65.003906 C 49.0625 65.695312 48.503906 66.253906 47.8125 66.253906 Z M 47.8125 66.253906 "/>
<path style=" stroke:none;fill-rule:nonzero;fill:rgb(0%,0%,0%);fill-opacity:1;" d="M 45.3125 68.753906 C 44.621094 68.753906 44.0625 68.195312 44.0625 67.503906 L 44.0625 62.503906 C 44.0625 61.8125 44.621094 61.253906 45.3125 61.253906 C 46.003906 61.253906 46.5625 61.8125 46.5625 62.503906 L 46.5625 67.503906 C 46.5625 68.195312 46.003906 68.753906 45.3125 68.753906 Z M 45.3125 68.753906 "/>
<path style=" stroke:none;fill-rule:nonzero;fill:rgb(0%,0%,0%);fill-opacity:1;" d="M 45.3125 68.753906 C 44.933594 68.753906 44.558594 68.582031 44.3125 68.253906 L 40.5625 63.253906 C 40.148438 62.703125 40.261719 61.917969 40.8125 61.503906 C 41.363281 61.089844 42.144531 61.199219 42.5625 61.753906 L 46.3125 66.753906 C 46.726562 67.304688 46.613281 68.089844 46.0625 68.503906 C 45.835938 68.671875 45.574219 68.753906 45.3125 68.753906 Z M 45.3125 68.753906 "/>
<path style=" stroke:none;fill-rule:nonzero;fill:rgb(0%,0%,0%);fill-opacity:1;" d="M 41.5625 68.753906 C 40.871094 68.753906 40.3125 68.195312 40.3125 67.503906 L 40.3125 62.503906 C 40.3125 61.8125 40.871094 61.253906 41.5625 61.253906 C 42.253906 61.253906 42.8125 61.8125 42.8125 62.503906 L 42.8125 67.503906 C 42.8125 68.195312 42.253906 68.753906 41.5625 68.753906 Z M 41.5625 68.753906 "/>
<path style=" stroke:none;fill-rule:nonzero;fill:rgb(0%,0%,0%);fill-opacity:1;" d="M 54.0625 80 C 53.371094 80 52.8125 79.441406 52.8125 78.75 L 52.8125 75 C 52.8125 74.308594 53.371094 73.75 54.0625 73.75 C 54.753906 73.75 55.3125 74.308594 55.3125 75 L 55.3125 78.75 C 55.3125 79.441406 54.753906 80 54.0625 80 Z M 54.0625 80 "/>
<path style=" stroke:none;fill-rule:nonzero;fill:rgb(0%,0%,0%);fill-opacity:1;" d="M 54.0625 80 L 1.5625 80 C 0.871094 80 0.3125 79.441406 0.3125 78.75 C 0.3125 78.058594 0.871094 77.5 1.5625 77.5 L 54.0625 77.5 C 54.753906 77.5 55.3125 78.058594 55.3125 78.75 C 55.3125 79.441406 54.753906 80 54.0625 80 Z M 54.0625 80 "/>
<path style=" stroke:none;fill-rule:nonzero;fill:rgb(0%,0%,0%);fill-opacity:1;" d="M 1.5625 80 C 0.871094 80 0.3125 79.441406 0.3125 78.75 L 0.3125 5 C 0.3125 4.308594 0.871094 3.75 1.5625 3.75 C 2.253906 3.75 2.8125 4.308594 2.8125 5 L 2.8125 78.75 C 2.8125 79.441406 2.253906 80 1.5625 80 Z M 1.5625 80 "/>
<path style=" stroke:none;fill-rule:nonzero;fill:rgb(0%,0%,0%);fill-opacity:1;" d="M 5.3125 6.25 L 1.5625 6.25 C 0.871094 6.25 0.3125 5.691406 0.3125 5 C 0.3125 4.308594 0.871094 3.75 1.5625 3.75 L 5.3125 3.75 C 6.003906 3.75 6.5625 4.308594 6.5625 5 C 6.5625 5.691406 6.003906 6.25 5.3125 6.25 Z M 5.3125 6.25 "/>
<path style=" stroke:none;fill-rule:nonzero;fill:rgb(0%,0%,0%);fill-opacity:1;" d="M 24.066406 26.269531 C 20.042969 26.269531 16.371094 24.171875 14.246094 20.667969 C 14.007812 20.269531 14.007812 19.765625 14.246094 19.371094 C 16.371094 15.863281 20.042969 13.769531 24.066406 13.769531 C 28.085938 13.769531 31.753906 15.863281 33.882812 19.371094 C 34.125 19.765625 34.125 20.269531 33.882812 20.667969 C 31.753906 24.171875 28.085938 26.269531 24.066406 26.269531 Z M 16.8125 20.019531 C 18.519531 22.378906 21.179688 23.769531 24.066406 23.769531 C 26.949219 23.769531 29.609375 22.378906 31.316406 20.019531 C 29.609375 17.65625 26.949219 16.269531 24.066406 16.269531 C 21.179688 16.269531 18.519531 17.65625 16.8125 20.019531 Z M 16.8125 20.019531 "/>
<path style=" stroke:none;fill-rule:nonzero;fill:rgb(0%,0%,0%);fill-opacity:1;" d="M 24.0625 23.746094 C 21.996094 23.746094 20.3125 22.0625 20.3125 19.996094 C 20.3125 17.929688 21.996094 16.246094 24.0625 16.246094 C 26.128906 16.246094 27.8125 17.929688 27.8125 19.996094 C 27.8125 22.0625 26.128906 23.746094 24.0625 23.746094 Z M 24.0625 18.746094 C 23.371094 18.746094 22.8125 19.304688 22.8125 19.996094 C 22.8125 20.6875 23.371094 21.246094 24.0625 21.246094 C 24.753906 21.246094 25.3125 20.6875 25.3125 19.996094 C 25.3125 19.304688 24.753906 18.746094 24.0625 18.746094 Z M 24.0625 18.746094 "/>
</g>
</svg>
