<?xml version="1.0" encoding="UTF-8"?>
<svg xmlns="http://www.w3.org/2000/svg" xmlns:xlink="http://www.w3.org/1999/xlink" width="80pt" height="80pt" viewBox="0 0 80 80" version="1.1">
<g id="surface1">
<path style=" stroke:none;fill-rule:nonzero;fill:rgb(0%,0%,0%);fill-opacity:1;" d="M 41.253906 73.109375 L 1.25 73.109375 C 0.558594 73.109375 0 72.550781 0 71.859375 L 0 68.109375 C 0 67.417969 0.558594 66.859375 1.25 66.859375 L 41.253906 66.859375 C 41.945312 66.859375 42.503906 67.417969 42.503906 68.109375 L 42.503906 71.859375 C 42.503906 72.550781 41.945312 73.109375 41.253906 73.109375 Z M 2.5 70.609375 L 40.003906 70.609375 L 40.003906 69.359375 L 2.5 69.359375 Z M 2.5 70.609375 "/>
<path style=" stroke:none;fill-rule:nonzero;fill:rgb(0%,0%,0%);fill-opacity:1;" d="M 38.753906 69.359375 L 3.75 69.359375 C 3.058594 69.359375 2.5 68.800781 2.5 68.109375 L 2.5 63.109375 C 2.5 62.417969 3.058594 61.859375 3.75 61.859375 L 38.753906 61.859375 C 39.445312 61.859375 40.003906 62.417969 40.003906 63.109375 L 40.003906 68.109375 C 40.003906 68.800781 39.445312 69.359375 38.753906 69.359375 Z M 5 66.859375 L 37.503906 66.859375 L 37.503906 64.359375 L 5 64.359375 Z M 5 66.859375 "/>
<path style=" stroke:none;fill-rule:nonzero;fill:rgb(0%,0%,0%);fill-opacity:1;" d="M 33.753906 54.359375 L 8.75 54.359375 C 8.058594 54.359375 7.5 53.800781 7.5 53.109375 L 7.5 23.105469 C 7.5 22.414062 8.058594 21.855469 8.75 21.855469 L 33.753906 21.855469 C 34.445312 21.855469 35.003906 22.414062 35.003906 23.105469 L 35.003906 53.109375 C 35.003906 53.800781 34.445312 54.359375 33.753906 54.359375 Z M 10 51.859375 L 32.503906 51.859375 L 32.503906 24.355469 L 10 24.355469 Z M 10 51.859375 "/>
<path style=" stroke:none;fill-rule:nonzero;fill:rgb(0%,0%,0%);fill-opacity:1;" d="M 36.253906 60.609375 L 6.25 60.609375 C 5.558594 60.609375 5 60.050781 5 59.359375 L 5 53.109375 C 5 52.417969 5.558594 51.859375 6.25 51.859375 L 36.253906 51.859375 C 36.945312 51.859375 37.503906 52.417969 37.503906 53.109375 L 37.503906 59.359375 C 37.503906 60.050781 36.945312 60.609375 36.253906 60.609375 Z M 7.5 58.109375 L 35.003906 58.109375 L 35.003906 54.359375 L 7.5 54.359375 Z M 7.5 58.109375 "/>
<path style=" stroke:none;fill-rule:nonzero;fill:rgb(0%,0%,0%);fill-opacity:1;" d="M 36.253906 24.355469 L 6.25 24.355469 C 5.558594 24.355469 5 23.796875 5 23.105469 L 5 16.855469 C 5 16.164062 5.558594 15.605469 6.25 15.605469 L 36.253906 15.605469 C 36.945312 15.605469 37.503906 16.164062 37.503906 16.855469 L 37.503906 23.105469 C 37.503906 23.796875 36.945312 24.355469 36.253906 24.355469 Z M 7.5 21.855469 L 35.003906 21.855469 L 35.003906 18.105469 L 7.5 18.105469 Z M 7.5 21.855469 "/>
<path style=" stroke:none;fill-rule:nonzero;fill:rgb(0%,0%,0%);fill-opacity:1;" d="M 38.753906 34.355469 L 33.753906 34.355469 C 33.0625 34.355469 32.503906 33.796875 32.503906 33.105469 C 32.503906 32.417969 33.0625 31.855469 33.753906 31.855469 L 38.753906 31.855469 C 39.445312 31.855469 40.003906 32.417969 40.003906 33.105469 C 40.003906 33.796875 39.445312 34.355469 38.753906 34.355469 Z M 38.753906 34.355469 "/>
<path style=" stroke:none;fill-rule:nonzero;fill:rgb(0%,0%,0%);fill-opacity:1;" d="M 38.753906 44.355469 L 33.753906 44.355469 C 33.0625 44.355469 32.503906 43.800781 32.503906 43.105469 C 32.503906 42.417969 33.0625 41.855469 33.753906 41.855469 L 38.753906 41.855469 C 39.445312 41.855469 40.003906 42.417969 40.003906 43.105469 C 40.003906 43.800781 39.445312 44.355469 38.753906 44.355469 Z M 38.753906 44.355469 "/>
<path style=" stroke:none;fill-rule:nonzero;fill:rgb(0%,0%,0%);fill-opacity:1;" d="M 38.753906 44.355469 C 38.0625 44.355469 37.503906 43.800781 37.503906 43.105469 L 37.503906 33.105469 C 37.503906 32.417969 38.0625 31.855469 38.753906 31.855469 C 39.445312 31.855469 40.003906 32.417969 40.003906 33.105469 L 40.003906 43.105469 C 40.003906 43.800781 39.445312 44.355469 38.753906 44.355469 Z M 38.753906 44.355469 "/>
<path style=" stroke:none;fill-rule:nonzero;fill:rgb(0%,0%,0%);fill-opacity:1;" d="M 75 35.605469 L 38.753906 35.605469 C 38.0625 35.605469 37.503906 35.046875 37.503906 34.355469 C 37.503906 33.667969 38.0625 33.105469 38.753906 33.105469 L 75 33.105469 C 75.691406 33.105469 76.25 33.667969 76.25 34.355469 C 76.25 35.046875 75.691406 35.605469 75 35.605469 Z M 75 35.605469 "/>
<path style=" stroke:none;fill-rule:nonzero;fill:rgb(0%,0%,0%);fill-opacity:1;" d="M 75 43.105469 L 38.753906 43.105469 C 38.0625 43.105469 37.503906 42.550781 37.503906 41.855469 C 37.503906 41.167969 38.0625 40.605469 38.753906 40.605469 L 75 40.605469 C 75.691406 40.605469 76.25 41.167969 76.25 41.855469 C 76.25 42.550781 75.691406 43.105469 75 43.105469 Z M 75 43.105469 "/>
<path style=" stroke:none;fill-rule:nonzero;fill:rgb(0%,0%,0%);fill-opacity:1;" d="M 75 43.105469 C 74.308594 43.105469 73.75 42.550781 73.75 41.855469 C 73.75 41.167969 74.308594 40.605469 75 40.605469 C 76.378906 40.605469 77.5 39.484375 77.5 38.105469 C 77.5 36.726562 76.378906 35.605469 75 35.605469 C 74.308594 35.605469 73.75 35.046875 73.75 34.355469 C 73.75 33.667969 74.308594 33.105469 75 33.105469 C 77.757812 33.105469 80 35.351562 80 38.105469 C 80 40.863281 77.757812 43.105469 75 43.105469 Z M 75 43.105469 "/>
<path style=" stroke:none;fill-rule:nonzero;fill:rgb(0%,0%,0%);fill-opacity:1;" d="M 21.25 45.605469 C 17.113281 45.605469 13.75 42.242188 13.75 38.105469 C 13.75 33.972656 17.113281 30.605469 21.25 30.605469 C 25.386719 30.605469 28.75 33.972656 28.75 38.105469 C 28.75 42.242188 25.386719 45.605469 21.25 45.605469 Z M 21.25 33.105469 C 18.492188 33.105469 16.25 35.351562 16.25 38.105469 C 16.25 40.863281 18.492188 43.105469 21.25 43.105469 C 24.007812 43.105469 26.25 40.863281 26.25 38.105469 C 26.25 35.351562 24.007812 33.105469 21.25 33.105469 Z M 21.25 33.105469 "/>
<path style=" stroke:none;fill-rule:nonzero;fill:rgb(0%,0%,0%);fill-opacity:1;" d="M 21.25 41.855469 C 19.183594 41.855469 17.5 40.175781 17.5 38.105469 C 17.5 36.039062 19.183594 34.355469 21.25 34.355469 C 23.320312 34.355469 25 36.039062 25 38.105469 C 25 40.175781 23.320312 41.855469 21.25 41.855469 Z M 21.25 36.855469 C 20.5625 36.855469 20 37.417969 20 38.105469 C 20 38.796875 20.5625 39.355469 21.25 39.355469 C 21.941406 39.355469 22.5 38.796875 22.5 38.105469 C 22.5 37.417969 21.941406 36.855469 21.25 36.855469 Z M 21.25 36.855469 "/>
<path style=" stroke:none;fill-rule:nonzero;fill:rgb(0%,0%,0%);fill-opacity:1;" d="M 71.246094 68.089844 C 68.488281 68.089844 66.246094 65.847656 66.246094 63.089844 C 66.246094 60.332031 68.488281 58.089844 71.246094 58.089844 C 74.003906 58.089844 76.246094 60.332031 76.246094 63.089844 C 76.246094 65.847656 74.003906 68.089844 71.246094 68.089844 Z M 71.246094 60.589844 C 69.867188 60.589844 68.746094 61.710938 68.746094 63.089844 C 68.746094 64.46875 69.867188 65.589844 71.246094 65.589844 C 72.625 65.589844 73.746094 64.46875 73.746094 63.089844 C 73.746094 61.710938 72.625 60.589844 71.246094 60.589844 Z M 71.246094 60.589844 "/>
<path style=" stroke:none;fill-rule:nonzero;fill:rgb(0%,0%,0%);fill-opacity:1;" d="M 71.246094 71.84375 C 68.488281 71.84375 66.246094 69.601562 66.246094 66.84375 C 66.246094 66.152344 66.804688 65.59375 67.496094 65.59375 C 68.1875 65.59375 68.746094 66.152344 68.746094 66.84375 C 68.746094 68.222656 69.867188 69.34375 71.246094 69.34375 C 72.625 69.34375 73.746094 68.222656 73.746094 66.84375 C 73.746094 66.152344 74.304688 65.59375 74.996094 65.59375 C 75.6875 65.59375 76.246094 66.152344 76.246094 66.84375 C 76.246094 69.601562 74.003906 71.84375 71.246094 71.84375 Z M 71.246094 71.84375 "/>
<path style=" stroke:none;fill-rule:nonzero;fill:rgb(0%,0%,0%);fill-opacity:1;" d="M 67.496094 68.09375 C 66.804688 68.09375 66.246094 67.535156 66.246094 66.84375 L 66.246094 63.089844 C 66.246094 62.398438 66.804688 61.839844 67.496094 61.839844 C 68.1875 61.839844 68.746094 62.398438 68.746094 63.089844 L 68.746094 66.84375 C 68.746094 67.535156 68.1875 68.09375 67.496094 68.09375 Z M 67.496094 68.09375 "/>
<path style=" stroke:none;fill-rule:nonzero;fill:rgb(0%,0%,0%);fill-opacity:1;" d="M 74.996094 68.09375 C 74.304688 68.09375 73.746094 67.535156 73.746094 66.84375 L 73.746094 63.089844 C 73.746094 62.398438 74.304688 61.839844 74.996094 61.839844 C 75.6875 61.839844 76.246094 62.398438 76.246094 63.089844 L 76.246094 66.84375 C 76.246094 67.535156 75.6875 68.09375 74.996094 68.09375 Z M 74.996094 68.09375 "/>
<path style=" stroke:none;fill-rule:nonzero;fill:rgb(0%,0%,0%);fill-opacity:1;" d="M 53.753906 61.835938 C 49.617188 61.835938 46.253906 58.472656 46.253906 54.335938 C 46.253906 50.203125 49.617188 46.835938 53.753906 46.835938 C 57.890625 46.835938 61.253906 50.203125 61.253906 54.335938 C 61.253906 58.472656 57.890625 61.835938 53.753906 61.835938 Z M 53.753906 49.335938 C 50.996094 49.335938 48.753906 51.582031 48.753906 54.335938 C 48.753906 57.09375 50.996094 59.335938 53.753906 59.335938 C 56.511719 59.335938 58.753906 57.09375 58.753906 54.335938 C 58.753906 51.582031 56.511719 49.335938 53.753906 49.335938 Z M 53.753906 49.335938 "/>
<path style=" stroke:none;fill-rule:nonzero;fill:rgb(0%,0%,0%);fill-opacity:1;" d="M 53.753906 66.871094 C 49.617188 66.871094 46.253906 63.507812 46.253906 59.371094 C 46.253906 58.679688 46.8125 58.121094 47.503906 58.121094 C 48.195312 58.121094 48.753906 58.679688 48.753906 59.371094 C 48.753906 62.128906 50.996094 64.371094 53.753906 64.371094 C 56.511719 64.371094 58.753906 62.128906 58.753906 59.371094 C 58.753906 58.679688 59.3125 58.121094 60.003906 58.121094 C 60.695312 58.121094 61.253906 58.679688 61.253906 59.371094 C 61.253906 63.507812 57.890625 66.871094 53.753906 66.871094 Z M 53.753906 66.871094 "/>
<path style=" stroke:none;fill-rule:nonzero;fill:rgb(0%,0%,0%);fill-opacity:1;" d="M 47.507812 60.597656 C 46.816406 60.597656 46.257812 60.039062 46.257812 59.347656 L 46.257812 54.335938 C 46.257812 53.644531 46.816406 53.085938 47.507812 53.085938 C 48.199219 53.085938 48.757812 53.644531 48.757812 54.335938 L 48.757812 59.347656 C 48.757812 60.039062 48.199219 60.597656 47.507812 60.597656 Z M 47.507812 60.597656 "/>
<path style=" stroke:none;fill-rule:nonzero;fill:rgb(0%,0%,0%);fill-opacity:1;" d="M 60 60.597656 C 59.308594 60.597656 58.75 60.039062 58.75 59.347656 L 58.75 54.335938 C 58.75 53.644531 59.308594 53.085938 60 53.085938 C 60.691406 53.085938 61.25 53.644531 61.25 54.335938 L 61.25 59.347656 C 61.25 60.039062 60.691406 60.597656 60 60.597656 Z M 60 60.597656 "/>
<path style=" stroke:none;fill-rule:nonzero;fill:rgb(0%,0%,0%);fill-opacity:1;" d="M 56.253906 66.351562 C 55.5625 66.351562 55.003906 65.792969 55.003906 65.101562 L 55.003906 60.0625 C 55.003906 59.371094 55.5625 58.8125 56.253906 58.8125 C 56.945312 58.8125 57.503906 59.371094 57.503906 60.0625 L 57.503906 65.101562 C 57.503906 65.792969 56.945312 66.351562 56.253906 66.351562 Z M 56.253906 66.351562 "/>
<path style=" stroke:none;fill-rule:nonzero;fill:rgb(0%,0%,0%);fill-opacity:1;" d="M 51.257812 66.351562 C 50.566406 66.351562 50.007812 65.792969 50.007812 65.101562 L 50.007812 60.074219 C 50.007812 59.382812 50.566406 58.824219 51.257812 58.824219 C 51.949219 58.824219 52.507812 59.382812 52.507812 60.074219 L 52.507812 65.101562 C 52.507812 65.792969 51.949219 66.351562 51.257812 66.351562 Z M 51.257812 66.351562 "/>
<path style=" stroke:none;fill-rule:nonzero;fill:rgb(0%,0%,0%);fill-opacity:1;" d="M 53.753906 56.839844 C 53.0625 56.839844 52.503906 56.28125 52.503906 55.589844 L 52.503906 53.097656 C 52.503906 52.40625 53.0625 51.847656 53.753906 51.847656 C 54.445312 51.847656 55.003906 52.40625 55.003906 53.097656 L 55.003906 55.589844 C 55.003906 56.28125 54.445312 56.839844 53.753906 56.839844 Z M 53.753906 56.839844 "/>
<path style=" stroke:none;fill-rule:nonzero;fill:rgb(0%,0%,0%);fill-opacity:1;" d="M 76.269531 26.875 L 43.773438 26.875 C 43.082031 26.875 42.523438 26.316406 42.523438 25.625 L 42.523438 8.125 C 42.523438 7.433594 43.082031 6.875 43.773438 6.875 L 76.269531 6.875 C 76.957031 6.875 77.519531 7.433594 77.519531 8.125 L 77.519531 25.625 C 77.519531 26.316406 76.957031 26.875 76.269531 26.875 Z M 45.023438 24.375 L 75.019531 24.375 L 75.019531 9.375 L 45.023438 9.375 Z M 45.023438 24.375 "/>
<path style=" stroke:none;fill-rule:nonzero;fill:rgb(0%,0%,0%);fill-opacity:1;" d="M 43.773438 14.375 C 43.082031 14.375 42.523438 13.816406 42.523438 13.125 C 42.523438 12.433594 43.082031 11.875 43.773438 11.875 C 45.84375 11.875 47.523438 10.191406 47.523438 8.125 C 47.523438 7.433594 48.082031 6.875 48.773438 6.875 C 49.464844 6.875 50.023438 7.433594 50.023438 8.125 C 50.023438 11.570312 47.21875 14.375 43.773438 14.375 Z M 43.773438 14.375 "/>
<path style=" stroke:none;fill-rule:nonzero;fill:rgb(0%,0%,0%);fill-opacity:1;" d="M 48.773438 26.875 C 48.082031 26.875 47.523438 26.316406 47.523438 25.625 C 47.523438 23.554688 45.84375 21.875 43.773438 21.875 C 43.082031 21.875 42.523438 21.316406 42.523438 20.625 C 42.523438 19.933594 43.082031 19.375 43.773438 19.375 C 47.222656 19.375 50.023438 22.179688 50.023438 25.625 C 50.023438 26.316406 49.464844 26.875 48.773438 26.875 Z M 48.773438 26.875 "/>
<path style=" stroke:none;fill-rule:nonzero;fill:rgb(0%,0%,0%);fill-opacity:1;" d="M 71.269531 26.871094 C 70.578125 26.871094 70.019531 26.3125 70.019531 25.621094 C 70.019531 22.175781 72.820312 19.371094 76.269531 19.371094 C 76.957031 19.371094 77.519531 19.929688 77.519531 20.621094 C 77.519531 21.3125 76.957031 21.871094 76.269531 21.871094 C 74.199219 21.871094 72.519531 23.554688 72.519531 25.621094 C 72.519531 26.3125 71.957031 26.871094 71.269531 26.871094 Z M 71.269531 26.871094 "/>
<path style=" stroke:none;fill-rule:nonzero;fill:rgb(0%,0%,0%);fill-opacity:1;" d="M 76.265625 14.375 C 72.820312 14.375 70.015625 11.570312 70.015625 8.125 C 70.015625 7.433594 70.574219 6.875 71.265625 6.875 C 71.957031 6.875 72.515625 7.433594 72.515625 8.125 C 72.515625 10.191406 74.199219 11.875 76.265625 11.875 C 76.957031 11.875 77.515625 12.433594 77.515625 13.125 C 77.515625 13.816406 76.953125 14.375 76.265625 14.375 Z M 76.265625 14.375 "/>
<path style=" stroke:none;fill-rule:nonzero;fill:rgb(0%,0%,0%);fill-opacity:1;" d="M 60.019531 21.875 C 57.261719 21.875 55.019531 19.632812 55.019531 16.875 C 55.019531 14.117188 57.261719 11.875 60.019531 11.875 C 62.777344 11.875 65.019531 14.117188 65.019531 16.875 C 65.019531 19.632812 62.777344 21.875 60.019531 21.875 Z M 60.019531 14.375 C 58.640625 14.375 57.519531 15.496094 57.519531 16.875 C 57.519531 18.253906 58.640625 19.375 60.019531 19.375 C 61.398438 19.375 62.519531 18.253906 62.519531 16.875 C 62.519531 15.496094 61.398438 14.375 60.019531 14.375 Z M 60.019531 14.375 "/>
</g>
</svg>
