<?xml version="1.0" encoding="UTF-8"?>
<svg xmlns="http://www.w3.org/2000/svg" xmlns:xlink="http://www.w3.org/1999/xlink" width="80pt" height="80pt" viewBox="0 0 80 80" version="1.1">
<g id="surface1">
<path style=" stroke:none;fill-rule:nonzero;fill:rgb(0%,0%,0%);fill-opacity:1;" d="M 52.597656 31.25 C 51.90625 31.25 51.347656 30.691406 51.347656 30 C 51.347656 29.308594 50.789062 28.75 50.097656 28.75 C 49.40625 28.75 48.847656 29.308594 48.847656 30 C 48.847656 30.691406 48.289062 31.25 47.597656 31.25 C 46.90625 31.25 46.347656 30.691406 46.347656 30 C 46.347656 27.933594 48.03125 26.25 50.097656 26.25 C 52.164062 26.25 53.847656 27.933594 53.847656 30 C 53.847656 30.691406 53.289062 31.25 52.597656 31.25 Z M 52.597656 31.25 "/>
<path style=" stroke:none;fill-rule:nonzero;fill:rgb(0%,0%,0%);fill-opacity:1;" d="M 52.597656 50 C 51.90625 50 51.347656 49.441406 51.347656 48.75 L 51.347656 30 C 51.347656 29.308594 51.90625 28.75 52.597656 28.75 C 53.289062 28.75 53.847656 29.308594 53.847656 30 L 53.847656 48.75 C 53.847656 49.4375 53.289062 50 52.597656 50 Z M 52.597656 50 "/>
<path style=" stroke:none;fill-rule:nonzero;fill:rgb(0%,0%,0%);fill-opacity:1;" d="M 47.597656 38.75 C 46.90625 38.75 46.347656 38.191406 46.347656 37.5 L 46.347656 25 C 46.347656 24.308594 46.90625 23.75 47.597656 23.75 C 48.289062 23.75 48.847656 24.308594 48.847656 25 L 48.847656 37.5 C 48.847656 38.191406 48.289062 38.75 47.597656 38.75 Z M 47.597656 38.75 "/>
<path style=" stroke:none;fill-rule:nonzero;fill:rgb(0%,0%,0%);fill-opacity:1;" d="M 47.597656 26.25 C 46.90625 26.25 46.347656 25.691406 46.347656 25 C 46.347656 24.3125 45.789062 23.75 45.097656 23.75 C 44.40625 23.75 43.847656 24.3125 43.847656 25 C 43.847656 25.691406 43.289062 26.25 42.597656 26.25 C 41.90625 26.25 41.347656 25.691406 41.347656 25 C 41.347656 22.933594 43.03125 21.25 45.097656 21.25 C 47.164062 21.25 48.847656 22.933594 48.847656 25 C 48.847656 25.691406 48.289062 26.25 47.597656 26.25 Z M 47.597656 26.25 "/>
<path style=" stroke:none;fill-rule:nonzero;fill:rgb(0%,0%,0%);fill-opacity:1;" d="M 32.597656 42.5 C 31.90625 42.5 31.347656 41.941406 31.347656 41.25 L 31.347656 25 C 31.347656 24.308594 31.90625 23.75 32.597656 23.75 C 33.289062 23.75 33.847656 24.308594 33.847656 25 L 33.847656 41.25 C 33.847656 41.9375 33.289062 42.5 32.597656 42.5 Z M 32.597656 42.5 "/>
<path style=" stroke:none;fill-rule:nonzero;fill:rgb(0%,0%,0%);fill-opacity:1;" d="M 37.597656 26.25 C 36.90625 26.25 36.347656 25.691406 36.347656 25 C 36.347656 24.3125 35.789062 23.75 35.097656 23.75 C 34.410156 23.75 33.847656 24.3125 33.847656 25 C 33.847656 25.691406 33.289062 26.25 32.597656 26.25 C 31.90625 26.25 31.347656 25.691406 31.347656 25 C 31.347656 22.933594 33.03125 21.25 35.097656 21.25 C 37.164062 21.25 38.847656 22.933594 38.847656 25 C 38.847656 25.691406 38.289062 26.25 37.597656 26.25 Z M 37.597656 26.25 "/>
<path style=" stroke:none;fill-rule:nonzero;fill:rgb(0%,0%,0%);fill-opacity:1;" d="M 42.597656 38.75 C 41.90625 38.75 41.347656 38.191406 41.347656 37.5 L 41.347656 21.25 C 41.347656 20.558594 41.90625 20 42.597656 20 C 43.289062 20 43.847656 20.558594 43.847656 21.25 L 43.847656 37.5 C 43.847656 38.191406 43.289062 38.75 42.597656 38.75 Z M 42.597656 38.75 "/>
<path style=" stroke:none;fill-rule:nonzero;fill:rgb(0%,0%,0%);fill-opacity:1;" d="M 42.597656 22.5 C 41.90625 22.5 41.347656 21.941406 41.347656 21.25 C 41.347656 20.5625 40.789062 20 40.097656 20 C 39.410156 20 38.847656 20.5625 38.847656 21.25 C 38.847656 21.941406 38.289062 22.5 37.597656 22.5 C 36.90625 22.5 36.347656 21.941406 36.347656 21.25 C 36.347656 19.183594 38.03125 17.5 40.097656 17.5 C 42.164062 17.5 43.847656 19.183594 43.847656 21.25 C 43.847656 21.941406 43.289062 22.5 42.597656 22.5 Z M 42.597656 22.5 "/>
<path style=" stroke:none;fill-rule:nonzero;fill:rgb(0%,0%,0%);fill-opacity:1;" d="M 37.597656 38.75 C 36.90625 38.75 36.347656 38.191406 36.347656 37.5 L 36.347656 21.25 C 36.347656 20.558594 36.90625 20 37.597656 20 C 38.289062 20 38.847656 20.558594 38.847656 21.25 L 38.847656 37.5 C 38.847656 38.191406 38.289062 38.75 37.597656 38.75 Z M 37.597656 38.75 "/>
<path style=" stroke:none;fill-rule:nonzero;fill:rgb(0%,0%,0%);fill-opacity:1;" d="M 47.597656 58.660156 C 47.167969 58.660156 46.746094 58.433594 46.515625 58.035156 C 46.171875 57.4375 46.375 56.671875 46.972656 56.328125 C 49.667969 54.765625 51.347656 51.859375 51.347656 48.75 C 51.347656 48.058594 51.90625 47.5 52.597656 47.5 C 53.289062 47.5 53.847656 48.058594 53.847656 48.75 C 53.847656 52.75 51.691406 56.484375 48.222656 58.492188 C 48.027344 58.605469 47.8125 58.660156 47.597656 58.660156 Z M 47.597656 58.660156 "/>
<path style=" stroke:none;fill-rule:nonzero;fill:rgb(0%,0%,0%);fill-opacity:1;" d="M 37.589844 58.5 C 37.355469 58.5 37.125 58.433594 36.917969 58.304688 C 35.34375 57.296875 33.925781 55.875 32.703125 54.082031 C 32.3125 53.511719 32.460938 52.734375 33.03125 52.34375 C 33.601562 51.953125 34.378906 52.101562 34.769531 52.675781 C 35.800781 54.1875 36.976562 55.371094 38.261719 56.195312 C 38.84375 56.566406 39.015625 57.339844 38.644531 57.921875 C 38.402344 58.292969 38 58.5 37.589844 58.5 Z M 37.589844 58.5 "/>
<path style=" stroke:none;fill-rule:nonzero;fill:rgb(0%,0%,0%);fill-opacity:1;" d="M 25.753906 42.875 C 25.355469 42.875 24.964844 42.683594 24.71875 42.328125 C 23.496094 40.53125 23.554688 38.519531 24.871094 37.207031 C 26.308594 35.769531 28.621094 35.753906 30.144531 37.175781 C 30.644531 37.648438 30.671875 38.4375 30.203125 38.945312 C 29.730469 39.449219 28.9375 39.472656 28.4375 39.003906 C 27.90625 38.507812 27.117188 38.496094 26.640625 38.972656 C 25.972656 39.640625 26.648438 40.714844 26.789062 40.921875 C 27.179688 41.496094 27.027344 42.269531 26.457031 42.660156 C 26.242188 42.804688 25.996094 42.875 25.753906 42.875 Z M 25.753906 42.875 "/>
<path style=" stroke:none;fill-rule:nonzero;fill:rgb(0%,0%,0%);fill-opacity:1;" d="M 33.734375 54.628906 C 33.335938 54.628906 32.941406 54.433594 32.699219 54.078125 L 24.71875 42.328125 C 24.332031 41.757812 24.480469 40.980469 25.054688 40.59375 C 25.621094 40.203125 26.398438 40.351562 26.789062 40.925781 L 34.769531 52.675781 C 35.160156 53.246094 35.007812 54.023438 34.4375 54.414062 C 34.222656 54.558594 33.976562 54.628906 33.734375 54.628906 Z M 33.734375 54.628906 "/>
<path style=" stroke:none;fill-rule:nonzero;fill:rgb(0%,0%,0%);fill-opacity:1;" d="M 32.597656 42.5 C 32.289062 42.5 31.976562 42.382812 31.734375 42.152344 L 28.425781 38.996094 C 27.929688 38.519531 27.910156 37.726562 28.386719 37.226562 C 28.863281 36.730469 29.65625 36.710938 30.152344 37.1875 L 33.460938 40.34375 C 33.960938 40.824219 33.980469 41.613281 33.503906 42.113281 C 33.257812 42.367188 32.929688 42.5 32.597656 42.5 Z M 32.597656 42.5 "/>
<path style=" stroke:none;fill-rule:nonzero;fill:rgb(0%,0%,0%);fill-opacity:1;" d="M 48.832031 62.484375 L 36.332031 62.484375 C 35.640625 62.484375 35.082031 61.925781 35.082031 61.234375 C 35.082031 60.542969 35.640625 59.984375 36.332031 59.984375 L 48.832031 59.984375 C 49.523438 59.984375 50.082031 60.542969 50.082031 61.234375 C 50.082031 61.925781 49.523438 62.484375 48.832031 62.484375 Z M 48.832031 62.484375 "/>
<path style=" stroke:none;fill-rule:nonzero;fill:rgb(0%,0%,0%);fill-opacity:1;" d="M 48.832031 66.234375 C 48.140625 66.234375 47.582031 65.671875 47.582031 64.984375 L 47.582031 61.234375 C 47.582031 60.542969 48.140625 59.984375 48.832031 59.984375 C 49.523438 59.984375 50.082031 60.542969 50.082031 61.234375 L 50.082031 64.984375 C 50.082031 65.671875 49.523438 66.234375 48.832031 66.234375 Z M 48.832031 66.234375 "/>
<path style=" stroke:none;fill-rule:nonzero;fill:rgb(0%,0%,0%);fill-opacity:1;" d="M 36.332031 66.234375 C 35.640625 66.234375 35.082031 65.671875 35.082031 64.984375 L 35.082031 61.234375 C 35.082031 60.542969 35.640625 59.984375 36.332031 59.984375 C 37.023438 59.984375 37.582031 60.542969 37.582031 61.234375 L 37.582031 64.984375 C 37.582031 65.671875 37.023438 66.234375 36.332031 66.234375 Z M 36.332031 66.234375 "/>
<path style=" stroke:none;fill-rule:nonzero;fill:rgb(0%,0%,0%);fill-opacity:1;" d="M 50.078125 79.96875 C 49.386719 79.96875 48.832031 79.410156 48.832031 78.71875 L 48.832031 66.234375 L 36.332031 66.234375 L 36.332031 78.71875 C 36.332031 79.410156 35.773438 79.96875 35.082031 79.96875 C 34.390625 79.96875 33.832031 79.410156 33.832031 78.71875 L 33.832031 64.984375 C 33.832031 64.292969 34.390625 63.734375 35.082031 63.734375 L 50.078125 63.734375 C 50.769531 63.734375 51.328125 64.292969 51.328125 64.984375 L 51.328125 78.71875 C 51.328125 79.410156 50.769531 79.96875 50.078125 79.96875 Z M 50.078125 79.96875 "/>
<path style=" stroke:none;fill-rule:nonzero;fill:rgb(0%,0%,0%);fill-opacity:1;" d="M 50.082031 69.980469 L 48.832031 69.980469 C 48.140625 69.980469 47.582031 69.421875 47.582031 68.730469 C 47.582031 68.039062 48.140625 67.480469 48.832031 67.480469 L 50.082031 67.480469 C 50.773438 67.480469 51.332031 68.039062 51.332031 68.730469 C 51.332031 69.421875 50.773438 69.980469 50.082031 69.980469 Z M 50.082031 69.980469 "/>
<path style=" stroke:none;fill-rule:nonzero;fill:rgb(0%,0%,0%);fill-opacity:1;" d="M 47.597656 62.488281 C 46.90625 62.488281 46.347656 61.929688 46.347656 61.238281 L 46.347656 57.410156 C 46.347656 56.71875 46.90625 56.160156 47.597656 56.160156 C 48.289062 56.160156 48.847656 56.71875 48.847656 57.410156 L 48.847656 61.238281 C 48.847656 61.929688 48.289062 62.488281 47.597656 62.488281 Z M 47.597656 62.488281 "/>
<path style=" stroke:none;fill-rule:nonzero;fill:rgb(0%,0%,0%);fill-opacity:1;" d="M 37.589844 62.488281 C 36.898438 62.488281 36.339844 61.929688 36.339844 61.238281 L 36.339844 57.25 C 36.339844 56.558594 36.898438 56 37.589844 56 C 38.28125 56 38.839844 56.558594 38.839844 57.25 L 38.839844 61.238281 C 38.839844 61.929688 38.28125 62.488281 37.589844 62.488281 Z M 37.589844 62.488281 "/>
<path style=" stroke:none;fill-rule:nonzero;fill:rgb(0%,0%,0%);fill-opacity:1;" d="M 34 54.996094 L 22.625 54.996094 C 21.933594 54.996094 21.375 54.4375 21.375 53.746094 C 21.375 53.054688 21.933594 52.496094 22.625 52.496094 L 34 52.496094 C 34.691406 52.496094 35.25 53.054688 35.25 53.746094 C 35.25 54.4375 34.691406 54.996094 34 54.996094 Z M 34 54.996094 "/>
<path style=" stroke:none;fill-rule:nonzero;fill:rgb(0%,0%,0%);fill-opacity:1;" d="M 62.617188 55.003906 L 51.15625 55.003906 C 50.464844 55.003906 49.90625 54.445312 49.90625 53.753906 C 49.90625 53.0625 50.464844 52.503906 51.15625 52.503906 L 62.617188 52.503906 C 63.308594 52.503906 63.867188 53.0625 63.867188 53.753906 C 63.867188 54.445312 63.308594 55.003906 62.617188 55.003906 Z M 62.617188 55.003906 "/>
<path style=" stroke:none;fill-rule:nonzero;fill:rgb(0%,0%,0%);fill-opacity:1;" d="M 22.628906 55 C 19.183594 55 16.378906 52.195312 16.378906 48.75 C 16.378906 48.058594 16.9375 47.5 17.628906 47.5 C 18.320312 47.5 18.878906 48.058594 18.878906 48.75 C 18.878906 50.816406 20.5625 52.5 22.628906 52.5 C 23.320312 52.5 23.878906 53.058594 23.878906 53.75 C 23.878906 54.441406 23.320312 55 22.628906 55 Z M 22.628906 55 "/>
<path style=" stroke:none;fill-rule:nonzero;fill:rgb(0%,0%,0%);fill-opacity:1;" d="M 22.628906 12.5 C 19.183594 12.5 16.378906 9.695312 16.378906 6.25 C 16.378906 2.804688 19.183594 0 22.628906 0 C 23.320312 0 23.878906 0.558594 23.878906 1.25 C 23.878906 1.941406 23.320312 2.5 22.628906 2.5 C 20.5625 2.5 18.878906 4.183594 18.878906 6.25 C 18.878906 8.316406 20.5625 10 22.628906 10 C 23.320312 10 23.878906 10.558594 23.878906 11.25 C 23.878906 11.941406 23.320312 12.5 22.628906 12.5 Z M 22.628906 12.5 "/>
<path style=" stroke:none;fill-rule:nonzero;fill:rgb(0%,0%,0%);fill-opacity:1;" d="M 17.628906 50 C 16.9375 50 16.378906 49.441406 16.378906 48.75 L 16.378906 6.25 C 16.378906 5.558594 16.9375 5 17.628906 5 C 18.320312 5 18.878906 5.558594 18.878906 6.25 L 18.878906 48.75 C 18.878906 49.4375 18.320312 50 17.628906 50 Z M 17.628906 50 "/>
<path style=" stroke:none;fill-rule:nonzero;fill:rgb(0%,0%,0%);fill-opacity:1;" d="M 62.617188 12.5 L 22.628906 12.5 C 21.9375 12.5 21.378906 11.941406 21.378906 11.25 C 21.378906 10.558594 21.9375 10 22.628906 10 L 62.617188 10 C 63.308594 10 63.867188 10.558594 63.867188 11.25 C 63.867188 11.941406 63.308594 12.5 62.617188 12.5 Z M 62.617188 12.5 "/>
<path style=" stroke:none;fill-rule:nonzero;fill:rgb(0%,0%,0%);fill-opacity:1;" d="M 62.617188 55.003906 C 61.925781 55.003906 61.367188 54.445312 61.367188 53.753906 L 61.367188 11.25 C 61.367188 10.558594 61.925781 10 62.617188 10 C 63.308594 10 63.867188 10.558594 63.867188 11.25 L 63.867188 53.753906 C 63.867188 54.441406 63.308594 55.003906 62.617188 55.003906 Z M 62.617188 55.003906 "/>
<path style=" stroke:none;fill-rule:nonzero;fill:rgb(0%,0%,0%);fill-opacity:1;" d="M 62.617188 12.167969 C 61.929688 12.167969 61.367188 11.609375 61.367188 10.917969 L 61.367188 1.25 C 61.367188 0.558594 61.929688 0 62.617188 0 C 63.308594 0 63.867188 0.558594 63.867188 1.25 L 63.867188 10.917969 C 63.867188 11.609375 63.308594 12.167969 62.617188 12.167969 Z M 62.617188 12.167969 "/>
<path style=" stroke:none;fill-rule:nonzero;fill:rgb(0%,0%,0%);fill-opacity:1;" d="M 58.867188 12.167969 C 58.175781 12.167969 57.617188 11.609375 57.617188 10.917969 L 57.617188 1.25 C 57.617188 0.558594 58.175781 0 58.867188 0 C 59.558594 0 60.113281 0.558594 60.113281 1.25 L 60.113281 10.917969 C 60.113281 11.609375 59.558594 12.167969 58.867188 12.167969 Z M 58.867188 12.167969 "/>
<path style=" stroke:none;fill-rule:nonzero;fill:rgb(0%,0%,0%);fill-opacity:1;" d="M 27.617188 62.542969 C 26.925781 62.542969 26.367188 61.984375 26.367188 61.292969 L 26.367188 53.796875 C 26.367188 53.105469 26.925781 52.546875 27.617188 52.546875 C 28.308594 52.546875 28.867188 53.105469 28.867188 53.796875 L 28.867188 61.292969 C 28.867188 61.984375 28.308594 62.542969 27.617188 62.542969 Z M 27.617188 62.542969 "/>
<path style=" stroke:none;fill-rule:nonzero;fill:rgb(0%,0%,0%);fill-opacity:1;" d="M 22.617188 62.542969 C 21.925781 62.542969 21.367188 61.984375 21.367188 61.292969 L 21.367188 53.796875 C 21.367188 53.105469 21.925781 52.546875 22.617188 52.546875 C 23.308594 52.546875 23.867188 53.105469 23.867188 53.796875 L 23.867188 61.292969 C 23.867188 61.984375 23.308594 62.542969 22.617188 62.542969 Z M 22.617188 62.542969 "/>
<path style=" stroke:none;fill-rule:nonzero;fill:rgb(0%,0%,0%);fill-opacity:1;" d="M 27.617188 62.542969 C 27.429688 62.542969 27.238281 62.5 27.058594 62.414062 L 24.558594 61.164062 C 23.941406 60.855469 23.691406 60.101562 24 59.484375 C 24.308594 58.867188 25.058594 58.617188 25.675781 58.925781 L 28.175781 60.175781 C 28.792969 60.484375 29.042969 61.238281 28.734375 61.855469 C 28.515625 62.292969 28.074219 62.542969 27.617188 62.542969 Z M 27.617188 62.542969 "/>
<path style=" stroke:none;fill-rule:nonzero;fill:rgb(0%,0%,0%);fill-opacity:1;" d="M 22.617188 62.542969 C 22.160156 62.542969 21.71875 62.292969 21.5 61.851562 C 21.1875 61.234375 21.441406 60.484375 22.058594 60.175781 L 24.558594 58.925781 C 25.175781 58.617188 25.925781 58.867188 26.234375 59.484375 C 26.542969 60.101562 26.292969 60.851562 25.675781 61.160156 L 23.175781 62.410156 C 22.996094 62.5 22.808594 62.542969 22.617188 62.542969 Z M 22.617188 62.542969 "/>
<path style=" stroke:none;fill-rule:nonzero;fill:rgb(0%,0%,0%);fill-opacity:1;" d="M 62.617188 2.5 L 22.613281 2.5 C 21.921875 2.5 21.363281 1.941406 21.363281 1.25 C 21.363281 0.558594 21.921875 0 22.613281 0 L 62.617188 0 C 63.308594 0 63.867188 0.558594 63.867188 1.25 C 63.867188 1.941406 63.308594 2.5 62.617188 2.5 Z M 62.617188 2.5 "/>
<path style=" stroke:none;fill-rule:nonzero;fill:rgb(0%,0%,0%);fill-opacity:1;" d="M 58.867188 7.496094 L 22.613281 7.496094 C 21.921875 7.496094 21.363281 6.933594 21.363281 6.246094 C 21.363281 5.554688 21.921875 4.996094 22.613281 4.996094 L 58.867188 4.996094 C 59.558594 4.996094 60.113281 5.554688 60.113281 6.246094 C 60.113281 6.933594 59.558594 7.496094 58.867188 7.496094 Z M 58.867188 7.496094 "/>
</g>
</svg>
