<?xml version="1.0" encoding="UTF-8"?>
<svg xmlns="http://www.w3.org/2000/svg" xmlns:xlink="http://www.w3.org/1999/xlink" width="80pt" height="80pt" viewBox="0 0 80 80" version="1.1">
<g id="surface1">
<path style=" stroke:none;fill-rule:nonzero;fill:rgb(0%,0%,0%);fill-opacity:1;" d="M 25.011719 58.472656 C 24.796875 58.472656 24.582031 58.417969 24.386719 58.300781 C 14.753906 52.730469 8.765625 42.359375 8.765625 31.242188 C 8.765625 14.015625 22.785156 0 40.007812 0 C 57.238281 0 71.25 14.015625 71.25 31.242188 C 71.25 42.359375 65.269531 52.730469 55.632812 58.300781 C 55.03125 58.652344 54.269531 58.441406 53.925781 57.847656 C 53.578125 57.25 53.785156 56.484375 54.378906 56.140625 C 63.246094 51.011719 68.753906 41.472656 68.753906 31.242188 C 68.753906 15.390625 55.859375 2.5 40.007812 2.5 C 24.160156 2.5 11.265625 15.390625 11.265625 31.242188 C 11.265625 41.472656 16.773438 51.011719 25.636719 56.140625 C 26.234375 56.484375 26.441406 57.25 26.09375 57.847656 C 25.863281 58.25 25.445312 58.472656 25.011719 58.472656 Z M 25.011719 58.472656 "/>
<path style=" stroke:none;fill-rule:nonzero;fill:rgb(0%,0%,0%);fill-opacity:1;" d="M 25.011719 73.757812 C 24.324219 73.757812 23.765625 73.199219 23.765625 72.507812 L 23.765625 57.21875 C 23.765625 56.527344 24.324219 55.96875 25.011719 55.96875 C 25.703125 55.96875 26.261719 56.527344 26.261719 57.21875 L 26.261719 72.503906 C 26.261719 73.195312 25.703125 73.757812 25.011719 73.757812 Z M 25.011719 73.757812 "/>
<path style=" stroke:none;fill-rule:nonzero;fill:rgb(0%,0%,0%);fill-opacity:1;" d="M 55.007812 73.757812 C 54.316406 73.757812 53.757812 73.199219 53.757812 72.507812 L 53.757812 57.21875 C 53.757812 56.527344 54.316406 55.96875 55.007812 55.96875 C 55.699219 55.96875 56.253906 56.527344 56.253906 57.21875 L 56.253906 72.503906 C 56.253906 73.195312 55.699219 73.757812 55.007812 73.757812 Z M 55.007812 73.757812 "/>
<path style=" stroke:none;fill-rule:nonzero;fill:rgb(0%,0%,0%);fill-opacity:1;" d="M 55.007812 61.246094 L 25.011719 61.246094 C 24.324219 61.246094 23.765625 60.6875 23.765625 59.996094 C 23.765625 59.304688 24.324219 58.746094 25.011719 58.746094 L 55.007812 58.746094 C 55.699219 58.746094 56.253906 59.304688 56.253906 59.996094 C 56.253906 60.6875 55.699219 61.246094 55.007812 61.246094 Z M 55.007812 61.246094 "/>
<path style=" stroke:none;fill-rule:nonzero;fill:rgb(0%,0%,0%);fill-opacity:1;" d="M 27.507812 76.25 C 27.191406 76.25 26.871094 76.128906 26.625 75.886719 L 24.128906 73.390625 C 23.640625 72.902344 23.640625 72.113281 24.128906 71.625 C 24.617188 71.132812 25.410156 71.132812 25.898438 71.625 L 28.394531 74.117188 C 28.882812 74.605469 28.882812 75.394531 28.394531 75.886719 C 28.148438 76.128906 27.828125 76.25 27.507812 76.25 Z M 27.507812 76.25 "/>
<path style=" stroke:none;fill-rule:nonzero;fill:rgb(0%,0%,0%);fill-opacity:1;" d="M 52.511719 76.25 C 52.191406 76.25 51.871094 76.128906 51.628906 75.886719 C 51.136719 75.394531 51.136719 74.605469 51.628906 74.117188 L 54.121094 71.625 C 54.609375 71.132812 55.402344 71.132812 55.890625 71.625 C 56.378906 72.113281 56.378906 72.902344 55.890625 73.390625 L 53.394531 75.886719 C 53.152344 76.128906 52.832031 76.25 52.511719 76.25 Z M 52.511719 76.25 "/>
<path style=" stroke:none;fill-rule:nonzero;fill:rgb(0%,0%,0%);fill-opacity:1;" d="M 52.511719 76.25 L 27.507812 76.25 C 26.820312 76.25 26.257812 75.691406 26.257812 75 C 26.257812 74.308594 26.820312 73.75 27.507812 73.75 L 52.511719 73.75 C 53.203125 73.75 53.761719 74.308594 53.761719 75 C 53.761719 75.691406 53.203125 76.25 52.511719 76.25 Z M 52.511719 76.25 "/>
<path style=" stroke:none;fill-rule:nonzero;fill:rgb(0%,0%,0%);fill-opacity:1;" d="M 36.261719 80 C 33.503906 80 31.261719 77.757812 31.261719 75 C 31.261719 74.308594 31.820312 73.75 32.511719 73.75 C 33.203125 73.75 33.761719 74.308594 33.761719 75 C 33.761719 76.378906 34.882812 77.5 36.261719 77.5 C 36.953125 77.5 37.511719 78.058594 37.511719 78.75 C 37.511719 79.441406 36.953125 80 36.261719 80 Z M 36.261719 80 "/>
<path style=" stroke:none;fill-rule:nonzero;fill:rgb(0%,0%,0%);fill-opacity:1;" d="M 43.757812 80 C 43.066406 80 42.507812 79.441406 42.507812 78.75 C 42.507812 78.058594 43.066406 77.5 43.757812 77.5 C 45.136719 77.5 46.257812 76.378906 46.257812 75 C 46.257812 74.308594 46.816406 73.75 47.507812 73.75 C 48.199219 73.75 48.757812 74.308594 48.757812 75 C 48.757812 77.757812 46.515625 80 43.757812 80 Z M 43.757812 80 "/>
<path style=" stroke:none;fill-rule:nonzero;fill:rgb(0%,0%,0%);fill-opacity:1;" d="M 43.757812 80 L 36.261719 80 C 35.570312 80 35.011719 79.441406 35.011719 78.75 C 35.011719 78.058594 35.570312 77.5 36.261719 77.5 L 43.757812 77.5 C 44.449219 77.5 45.007812 78.058594 45.007812 78.75 C 45.007812 79.441406 44.449219 80 43.757812 80 Z M 43.757812 80 "/>
<path style=" stroke:none;fill-rule:nonzero;fill:rgb(0%,0%,0%);fill-opacity:1;" d="M 23.761719 66.257812 C 23.09375 66.257812 22.539062 65.726562 22.515625 65.054688 C 22.488281 64.363281 23.027344 63.78125 23.714844 63.757812 L 56.207031 62.507812 C 56.222656 62.507812 56.238281 62.507812 56.257812 62.507812 C 56.925781 62.507812 57.480469 63.035156 57.503906 63.710938 C 57.53125 64.398438 56.992188 64.980469 56.304688 65.003906 L 23.808594 66.253906 C 23.792969 66.257812 23.777344 66.257812 23.761719 66.257812 Z M 23.761719 66.257812 "/>
<path style=" stroke:none;fill-rule:nonzero;fill:rgb(0%,0%,0%);fill-opacity:1;" d="M 23.761719 71.257812 C 23.09375 71.257812 22.539062 70.730469 22.515625 70.058594 C 22.488281 69.367188 23.027344 68.785156 23.714844 68.761719 L 56.207031 67.511719 C 56.222656 67.511719 56.238281 67.511719 56.257812 67.511719 C 56.925781 67.511719 57.480469 68.039062 57.503906 68.710938 C 57.53125 69.402344 56.992188 69.984375 56.304688 70.007812 L 23.808594 71.257812 C 23.792969 71.257812 23.777344 71.257812 23.761719 71.257812 Z M 23.761719 71.257812 "/>
<path style=" stroke:none;fill-rule:nonzero;fill:rgb(0%,0%,0%);fill-opacity:1;" d="M 50.621094 21.246094 L 29.382812 21.246094 C 28.691406 21.246094 28.132812 20.6875 28.132812 19.996094 C 28.132812 19.308594 28.691406 18.746094 29.382812 18.746094 L 50.621094 18.746094 C 51.3125 18.746094 51.871094 19.308594 51.871094 19.996094 C 51.871094 20.6875 51.3125 21.246094 50.621094 21.246094 Z M 50.621094 21.246094 "/>
<path style=" stroke:none;fill-rule:nonzero;fill:rgb(0%,0%,0%);fill-opacity:1;" d="M 40.003906 47.496094 C 39.3125 47.496094 38.753906 46.941406 38.753906 46.25 L 38.753906 17.5 C 38.753906 16.808594 39.3125 16.25 40.003906 16.25 C 40.695312 16.25 41.253906 16.808594 41.253906 17.5 L 41.253906 46.25 C 41.253906 46.941406 40.695312 47.496094 40.003906 47.496094 Z M 40.003906 47.496094 "/>
<path style=" stroke:none;fill-rule:nonzero;fill:rgb(0%,0%,0%);fill-opacity:1;" d="M 48.75 47.496094 L 31.253906 47.496094 C 30.566406 47.496094 30.007812 46.941406 30.007812 46.25 C 30.007812 45.558594 30.566406 45 31.253906 45 L 48.75 45 C 49.441406 45 50 45.558594 50 46.25 C 50 46.941406 49.441406 47.496094 48.75 47.496094 Z M 48.75 47.496094 "/>
<path style=" stroke:none;fill-rule:nonzero;fill:rgb(0%,0%,0%);fill-opacity:1;" d="M 50.621094 38.769531 C 47.519531 38.769531 44.996094 36.242188 44.996094 33.140625 C 44.996094 32.449219 45.554688 31.890625 46.246094 31.890625 C 46.933594 31.890625 47.496094 32.449219 47.496094 33.140625 C 47.496094 34.867188 48.898438 36.269531 50.621094 36.269531 C 52.347656 36.269531 53.75 34.867188 53.75 33.140625 C 53.75 32.449219 54.308594 31.890625 55 31.890625 C 55.691406 31.890625 56.25 32.449219 56.25 33.140625 C 56.25 36.242188 53.726562 38.769531 50.621094 38.769531 Z M 50.621094 38.769531 "/>
<path style=" stroke:none;fill-rule:nonzero;fill:rgb(0%,0%,0%);fill-opacity:1;" d="M 54.996094 33.746094 L 46.246094 33.746094 C 45.554688 33.746094 44.996094 33.1875 44.996094 32.496094 C 44.996094 31.804688 45.554688 31.246094 46.246094 31.246094 L 54.996094 31.246094 C 55.6875 31.246094 56.246094 31.804688 56.246094 32.496094 C 56.246094 33.1875 55.6875 33.746094 54.996094 33.746094 Z M 54.996094 33.746094 "/>
<path style=" stroke:none;fill-rule:nonzero;fill:rgb(0%,0%,0%);fill-opacity:1;" d="M 46.246094 33.746094 C 46.109375 33.746094 45.972656 33.722656 45.835938 33.675781 C 45.183594 33.449219 44.839844 32.734375 45.066406 32.085938 L 49.441406 19.585938 C 49.671875 18.933594 50.386719 18.589844 51.035156 18.816406 C 51.6875 19.046875 52.03125 19.761719 51.800781 20.410156 L 47.425781 32.910156 C 47.246094 33.425781 46.761719 33.746094 46.246094 33.746094 Z M 46.246094 33.746094 "/>
<path style=" stroke:none;fill-rule:nonzero;fill:rgb(0%,0%,0%);fill-opacity:1;" d="M 54.996094 33.746094 C 54.480469 33.746094 53.996094 33.425781 53.816406 32.910156 L 49.441406 20.410156 C 49.214844 19.757812 49.558594 19.046875 50.210938 18.816406 C 50.863281 18.589844 51.574219 18.933594 51.800781 19.585938 L 56.175781 32.085938 C 56.402344 32.734375 56.058594 33.449219 55.410156 33.675781 C 55.273438 33.726562 55.132812 33.746094 54.996094 33.746094 Z M 54.996094 33.746094 "/>
<path style=" stroke:none;fill-rule:nonzero;fill:rgb(0%,0%,0%);fill-opacity:1;" d="M 54.996094 34.390625 C 54.304688 34.390625 53.746094 33.832031 53.746094 33.140625 L 53.746094 32.496094 C 53.746094 31.804688 54.304688 31.246094 54.996094 31.246094 C 55.6875 31.246094 56.246094 31.804688 56.246094 32.496094 L 56.246094 33.140625 C 56.246094 33.832031 55.6875 34.390625 54.996094 34.390625 Z M 54.996094 34.390625 "/>
<path style=" stroke:none;fill-rule:nonzero;fill:rgb(0%,0%,0%);fill-opacity:1;" d="M 46.246094 34.390625 C 45.554688 34.390625 44.996094 33.832031 44.996094 33.140625 L 44.996094 32.496094 C 44.996094 31.804688 45.554688 31.246094 46.246094 31.246094 C 46.9375 31.246094 47.496094 31.804688 47.496094 32.496094 L 47.496094 33.140625 C 47.496094 33.832031 46.9375 34.390625 46.246094 34.390625 Z M 46.246094 34.390625 "/>
<path style=" stroke:none;fill-rule:nonzero;fill:rgb(0%,0%,0%);fill-opacity:1;" d="M 29.382812 38.769531 C 26.28125 38.769531 23.757812 36.242188 23.757812 33.140625 C 23.757812 32.449219 24.316406 31.890625 25.007812 31.890625 C 25.699219 31.890625 26.257812 32.449219 26.257812 33.140625 C 26.257812 34.867188 27.660156 36.269531 29.382812 36.269531 C 31.109375 36.269531 32.511719 34.867188 32.511719 33.140625 C 32.511719 32.449219 33.070312 31.890625 33.761719 31.890625 C 34.453125 31.890625 35.011719 32.449219 35.011719 33.140625 C 35.011719 36.242188 32.488281 38.769531 29.382812 38.769531 Z M 29.382812 38.769531 "/>
<path style=" stroke:none;fill-rule:nonzero;fill:rgb(0%,0%,0%);fill-opacity:1;" d="M 33.757812 33.746094 L 25.007812 33.746094 C 24.316406 33.746094 23.757812 33.1875 23.757812 32.496094 C 23.757812 31.804688 24.316406 31.246094 25.007812 31.246094 L 33.757812 31.246094 C 34.449219 31.246094 35.007812 31.804688 35.007812 32.496094 C 35.007812 33.1875 34.449219 33.746094 33.757812 33.746094 Z M 33.757812 33.746094 "/>
<path style=" stroke:none;fill-rule:nonzero;fill:rgb(0%,0%,0%);fill-opacity:1;" d="M 25.007812 33.746094 C 24.871094 33.746094 24.734375 33.722656 24.597656 33.675781 C 23.945312 33.449219 23.601562 32.734375 23.828125 32.085938 L 28.207031 19.585938 C 28.433594 18.933594 29.144531 18.589844 29.796875 18.816406 C 30.449219 19.046875 30.789062 19.761719 30.5625 20.410156 L 26.1875 32.910156 C 26.007812 33.425781 25.523438 33.746094 25.007812 33.746094 Z M 25.007812 33.746094 "/>
<path style=" stroke:none;fill-rule:nonzero;fill:rgb(0%,0%,0%);fill-opacity:1;" d="M 33.757812 33.746094 C 33.242188 33.746094 32.757812 33.425781 32.578125 32.910156 L 28.203125 20.410156 C 27.976562 19.757812 28.320312 19.046875 28.972656 18.816406 C 29.625 18.589844 30.335938 18.933594 30.5625 19.585938 L 34.9375 32.085938 C 35.164062 32.734375 34.820312 33.449219 34.171875 33.675781 C 34.035156 33.726562 33.894531 33.746094 33.757812 33.746094 Z M 33.757812 33.746094 "/>
<path style=" stroke:none;fill-rule:nonzero;fill:rgb(0%,0%,0%);fill-opacity:1;" d="M 33.757812 34.390625 C 33.066406 34.390625 32.507812 33.832031 32.507812 33.140625 L 32.507812 32.496094 C 32.507812 31.804688 33.066406 31.246094 33.757812 31.246094 C 34.449219 31.246094 35.007812 31.804688 35.007812 32.496094 L 35.007812 33.140625 C 35.007812 33.832031 34.449219 34.390625 33.757812 34.390625 Z M 33.757812 34.390625 "/>
<path style=" stroke:none;fill-rule:nonzero;fill:rgb(0%,0%,0%);fill-opacity:1;" d="M 25.007812 34.390625 C 24.316406 34.390625 23.757812 33.832031 23.757812 33.140625 L 23.757812 32.496094 C 23.757812 31.804688 24.316406 31.246094 25.007812 31.246094 C 25.699219 31.246094 26.257812 31.804688 26.257812 32.496094 L 26.257812 33.140625 C 26.257812 33.832031 25.699219 34.390625 25.007812 34.390625 Z M 25.007812 34.390625 "/>
</g>
</svg>
