<?xml version="1.0" encoding="UTF-8"?>
<svg xmlns="http://www.w3.org/2000/svg" xmlns:xlink="http://www.w3.org/1999/xlink" width="80pt" height="80pt" viewBox="0 0 80 80" version="1.1">
<g id="surface1">
<path style=" stroke:none;fill-rule:nonzero;fill:rgb(0%,0%,0%);fill-opacity:1;" d="M 31.25 58.746094 C 23.902344 58.746094 17 55.886719 11.804688 50.695312 C 6.609375 45.5 3.75 38.597656 3.75 31.25 C 3.75 23.902344 6.609375 16.996094 11.804688 11.804688 C 17 6.609375 23.902344 3.75 31.25 3.75 C 38.597656 3.75 45.5 6.609375 50.695312 11.804688 C 61.417969 22.523438 61.417969 39.972656 50.695312 50.691406 C 45.5 55.886719 38.597656 58.746094 31.25 58.746094 Z M 31.25 6.25 C 24.570312 6.25 18.292969 8.851562 13.570312 13.570312 C 8.851562 18.292969 6.25 24.570312 6.25 31.25 C 6.25 37.925781 8.851562 44.203125 13.570312 48.925781 C 18.292969 53.648438 24.570312 56.246094 31.25 56.246094 C 37.929688 56.246094 44.207031 53.648438 48.929688 48.925781 C 58.675781 39.179688 58.675781 23.320312 48.929688 13.574219 C 44.207031 8.851562 37.929688 6.25 31.25 6.25 Z M 31.25 6.25 "/>
<path style=" stroke:none;fill-rule:nonzero;fill:rgb(0%,0%,0%);fill-opacity:1;" d="M 31.25 62.496094 C 22.902344 62.496094 15.054688 59.246094 9.152344 53.347656 C 3.25 47.445312 0 39.597656 0 31.25 C 0 22.902344 3.25 15.054688 9.152344 9.152344 C 15.054688 3.25 22.902344 0 31.25 0 C 39.597656 0 47.445312 3.25 53.347656 9.152344 C 65.53125 21.335938 65.53125 41.160156 53.347656 53.34375 C 47.445312 59.246094 39.597656 62.496094 31.25 62.496094 Z M 31.25 2.5 C 23.570312 2.5 16.351562 5.492188 10.917969 10.917969 C 5.492188 16.351562 2.5 23.570312 2.5 31.25 C 2.5 38.929688 5.492188 46.148438 10.917969 51.578125 C 16.347656 57.007812 23.570312 59.996094 31.25 59.996094 C 38.929688 59.996094 46.148438 57.007812 51.582031 51.578125 C 62.789062 40.367188 62.789062 22.128906 51.582031 10.921875 C 46.148438 5.492188 38.929688 2.5 31.25 2.5 Z M 31.25 2.5 "/>
<path style=" stroke:none;fill-rule:nonzero;fill:rgb(0%,0%,0%);fill-opacity:1;" d="M 57.507812 62.292969 C 57.1875 62.292969 56.867188 62.167969 56.625 61.925781 L 49.738281 55.039062 C 49.25 54.550781 49.25 53.761719 49.738281 53.273438 C 50.226562 52.785156 51.015625 52.785156 51.507812 53.273438 L 58.390625 60.160156 C 58.878906 60.648438 58.878906 61.4375 58.390625 61.925781 C 58.148438 62.167969 57.828125 62.292969 57.507812 62.292969 Z M 57.507812 62.292969 "/>
<path style=" stroke:none;fill-rule:nonzero;fill:rgb(0%,0%,0%);fill-opacity:1;" d="M 61.042969 58.757812 C 60.722656 58.757812 60.402344 58.636719 60.160156 58.390625 L 53.265625 51.496094 C 52.777344 51.007812 52.777344 50.21875 53.265625 49.730469 C 53.753906 49.242188 54.546875 49.242188 55.035156 49.730469 L 61.925781 56.625 C 62.414062 57.113281 62.414062 57.902344 61.925781 58.390625 C 61.683594 58.636719 61.363281 58.757812 61.042969 58.757812 Z M 61.042969 58.757812 "/>
<path style=" stroke:none;fill-rule:nonzero;fill:rgb(0%,0%,0%);fill-opacity:1;" d="M 55.738281 64.058594 C 55.417969 64.058594 55.101562 63.9375 54.855469 63.695312 C 54.367188 63.203125 54.367188 62.414062 54.855469 61.925781 L 61.925781 54.851562 C 62.414062 54.363281 63.203125 54.363281 63.695312 54.851562 C 64.183594 55.34375 64.183594 56.132812 63.695312 56.621094 L 56.625 63.695312 C 56.378906 63.9375 56.058594 64.058594 55.738281 64.058594 Z M 55.738281 64.058594 "/>
<path style=" stroke:none;fill-rule:nonzero;fill:rgb(0%,0%,0%);fill-opacity:1;" d="M 70.214844 78.535156 C 69.894531 78.535156 69.574219 78.414062 69.332031 78.167969 L 54.855469 63.695312 C 54.367188 63.203125 54.367188 62.414062 54.855469 61.925781 C 55.34375 61.4375 56.136719 61.4375 56.625 61.925781 L 71.097656 76.402344 C 71.585938 76.890625 71.585938 77.679688 71.097656 78.167969 C 70.855469 78.414062 70.535156 78.535156 70.214844 78.535156 Z M 70.214844 78.535156 "/>
<path style=" stroke:none;fill-rule:nonzero;fill:rgb(0%,0%,0%);fill-opacity:1;" d="M 77.285156 71.464844 C 76.964844 71.464844 76.644531 71.34375 76.402344 71.101562 L 61.925781 56.621094 C 61.4375 56.132812 61.4375 55.34375 61.925781 54.851562 C 62.414062 54.367188 63.203125 54.367188 63.695312 54.851562 L 78.167969 69.332031 C 78.65625 69.820312 78.65625 70.609375 78.167969 71.101562 C 77.925781 71.34375 77.605469 71.464844 77.285156 71.464844 Z M 77.285156 71.464844 "/>
<path style=" stroke:none;fill-rule:nonzero;fill:rgb(0%,0%,0%);fill-opacity:1;" d="M 73.75 80 C 72.082031 80 70.511719 79.347656 69.332031 78.167969 C 68.84375 77.679688 68.84375 76.890625 69.332031 76.402344 C 69.820312 75.914062 70.609375 75.914062 71.097656 76.402344 C 72.515625 77.816406 74.984375 77.820312 76.398438 76.402344 C 77.109375 75.695312 77.5 74.75 77.5 73.75 C 77.5 72.746094 77.109375 71.808594 76.402344 71.101562 C 75.914062 70.613281 75.914062 69.824219 76.398438 69.332031 C 76.890625 68.84375 77.679688 68.84375 78.167969 69.332031 C 79.347656 70.511719 80 72.078125 80 73.75 C 80 75.417969 79.347656 76.988281 78.167969 78.167969 C 76.988281 79.347656 75.421875 80 73.75 80 Z M 73.75 80 "/>
<path style=" stroke:none;fill-rule:nonzero;fill:rgb(0%,0%,0%);fill-opacity:1;" d="M 31.246094 58.746094 C 23.902344 58.746094 16.996094 55.886719 11.800781 50.695312 C 1.078125 39.972656 1.078125 22.527344 11.800781 11.804688 C 16.996094 6.609375 23.902344 3.75 31.246094 3.75 C 38.59375 3.75 45.5 6.609375 50.695312 11.804688 C 55.886719 16.996094 58.746094 23.902344 58.746094 31.25 C 58.746094 38.59375 55.886719 45.5 50.695312 50.695312 C 45.5 55.886719 38.59375 58.746094 31.246094 58.746094 Z M 31.246094 6.25 C 24.570312 6.25 18.289062 8.851562 13.570312 13.570312 C 3.820312 23.320312 3.820312 39.175781 13.570312 48.925781 C 18.289062 53.644531 24.570312 56.246094 31.246094 56.246094 C 37.925781 56.246094 44.203125 53.644531 48.925781 48.925781 C 53.648438 44.203125 56.246094 37.925781 56.246094 31.246094 C 56.246094 24.570312 53.648438 18.289062 48.925781 13.570312 C 44.203125 8.851562 37.925781 6.25 31.246094 6.25 Z M 31.246094 6.25 "/>
<path style=" stroke:none;fill-rule:nonzero;fill:rgb(0%,0%,0%);fill-opacity:1;" d="M 15.019531 53.132812 C 14.328125 53.132812 13.769531 52.574219 13.769531 51.882812 L 13.769531 18.761719 C 13.769531 18.070312 14.328125 17.511719 15.019531 17.511719 C 15.707031 17.511719 16.269531 18.070312 16.269531 18.761719 L 16.269531 51.882812 C 16.269531 52.574219 15.707031 53.132812 15.019531 53.132812 Z M 15.019531 53.132812 "/>
<path style=" stroke:none;fill-rule:nonzero;fill:rgb(0%,0%,0%);fill-opacity:1;" d="M 47.523438 53.097656 C 46.832031 53.097656 46.273438 52.539062 46.273438 51.847656 L 46.273438 25.019531 C 46.273438 24.328125 46.832031 23.769531 47.523438 23.769531 C 48.214844 23.769531 48.773438 24.328125 48.773438 25.019531 L 48.773438 51.847656 C 48.773438 52.539062 48.210938 53.097656 47.523438 53.097656 Z M 47.523438 53.097656 "/>
<path style=" stroke:none;fill-rule:nonzero;fill:rgb(0%,0%,0%);fill-opacity:1;" d="M 41.265625 20.011719 L 15.019531 20.011719 C 14.328125 20.011719 13.769531 19.453125 13.769531 18.761719 C 13.769531 18.070312 14.328125 17.511719 15.019531 17.511719 L 41.265625 17.511719 C 41.957031 17.511719 42.515625 18.070312 42.515625 18.761719 C 42.515625 19.453125 41.957031 20.011719 41.265625 20.011719 Z M 41.265625 20.011719 "/>
<path style=" stroke:none;fill-rule:nonzero;fill:rgb(0%,0%,0%);fill-opacity:1;" d="M 47.523438 26.269531 C 47.203125 26.269531 46.882812 26.144531 46.640625 25.902344 L 40.382812 19.644531 C 39.894531 19.15625 39.894531 18.367188 40.382812 17.878906 C 40.871094 17.390625 41.660156 17.390625 42.148438 17.878906 L 48.40625 24.136719 C 48.894531 24.625 48.894531 25.414062 48.40625 25.902344 C 48.160156 26.144531 47.839844 26.269531 47.523438 26.269531 Z M 47.523438 26.269531 "/>
<path style=" stroke:none;fill-rule:nonzero;fill:rgb(0%,0%,0%);fill-opacity:1;" d="M 47.523438 26.269531 L 41.265625 26.269531 C 40.574219 26.269531 40.015625 25.710938 40.015625 25.019531 C 40.015625 24.328125 40.574219 23.769531 41.265625 23.769531 L 47.523438 23.769531 C 48.214844 23.769531 48.773438 24.328125 48.773438 25.019531 C 48.773438 25.710938 48.210938 26.269531 47.523438 26.269531 Z M 47.523438 26.269531 "/>
<path style=" stroke:none;fill-rule:nonzero;fill:rgb(0%,0%,0%);fill-opacity:1;" d="M 41.265625 26.269531 C 40.574219 26.269531 40.015625 25.710938 40.015625 25.019531 L 40.015625 18.761719 C 40.015625 18.070312 40.574219 17.511719 41.265625 17.511719 C 41.957031 17.511719 42.515625 18.070312 42.515625 18.761719 L 42.515625 25.019531 C 42.515625 25.707031 41.957031 26.269531 41.265625 26.269531 Z M 41.265625 26.269531 "/>
<path style=" stroke:none;fill-rule:nonzero;fill:rgb(0%,0%,0%);fill-opacity:1;" d="M 41.269531 33.769531 L 21.269531 33.769531 C 20.578125 33.769531 20.019531 33.207031 20.019531 32.519531 C 20.019531 31.824219 20.578125 31.269531 21.269531 31.269531 L 41.269531 31.269531 C 41.960938 31.269531 42.519531 31.824219 42.519531 32.519531 C 42.519531 33.207031 41.960938 33.769531 41.269531 33.769531 Z M 41.269531 33.769531 "/>
<path style=" stroke:none;fill-rule:nonzero;fill:rgb(0%,0%,0%);fill-opacity:1;" d="M 41.269531 38.773438 L 21.269531 38.773438 C 20.578125 38.773438 20.019531 38.214844 20.019531 37.523438 C 20.019531 36.832031 20.578125 36.273438 21.269531 36.273438 L 41.269531 36.273438 C 41.960938 36.273438 42.519531 36.832031 42.519531 37.523438 C 42.519531 38.214844 41.960938 38.773438 41.269531 38.773438 Z M 41.269531 38.773438 "/>
<path style=" stroke:none;fill-rule:nonzero;fill:rgb(0%,0%,0%);fill-opacity:1;" d="M 41.269531 43.773438 L 21.269531 43.773438 C 20.578125 43.773438 20.019531 43.214844 20.019531 42.523438 C 20.019531 41.832031 20.578125 41.273438 21.269531 41.273438 L 41.269531 41.273438 C 41.960938 41.273438 42.519531 41.832031 42.519531 42.523438 C 42.519531 43.214844 41.960938 43.773438 41.269531 43.773438 Z M 41.269531 43.773438 "/>
<path style=" stroke:none;fill-rule:nonzero;fill:rgb(0%,0%,0%);fill-opacity:1;" d="M 31.257812 48.773438 L 21.269531 48.773438 C 20.578125 48.773438 20.019531 48.214844 20.019531 47.523438 C 20.019531 46.832031 20.578125 46.273438 21.269531 46.273438 L 31.257812 46.273438 C 31.953125 46.273438 32.507812 46.832031 32.507812 47.523438 C 32.507812 48.214844 31.953125 48.773438 31.257812 48.773438 Z M 31.257812 48.773438 "/>
</g>
</svg>
