<?xml version="1.0" encoding="UTF-8"?>
<svg xmlns="http://www.w3.org/2000/svg" xmlns:xlink="http://www.w3.org/1999/xlink" width="80pt" height="80pt" viewBox="0 0 80 80" version="1.1">
<g id="surface1">
<path style=" stroke:none;fill-rule:nonzero;fill:rgb(0%,0%,0%);fill-opacity:1;" d="M 30 61.253906 C 29.308594 61.253906 28.75 60.695312 28.75 60.003906 L 28.75 55.003906 C 28.75 54.3125 29.308594 53.753906 30 53.753906 C 30.6875 53.753906 31.25 54.3125 31.25 55.003906 L 31.25 60.003906 C 31.25 60.695312 30.6875 61.253906 30 61.253906 Z M 30 61.253906 "/>
<path style=" stroke:none;fill-rule:nonzero;fill:rgb(0%,0%,0%);fill-opacity:1;" d="M 50.003906 61.253906 C 49.316406 61.253906 48.753906 60.695312 48.753906 60.003906 L 48.753906 55.003906 C 48.753906 54.3125 49.316406 53.753906 50.003906 53.753906 C 50.695312 53.753906 51.253906 54.3125 51.253906 55.003906 L 51.253906 60.003906 C 51.253906 60.695312 50.695312 61.253906 50.003906 61.253906 Z M 50.003906 61.253906 "/>
<path style=" stroke:none;fill-rule:nonzero;fill:rgb(0%,0%,0%);fill-opacity:1;" d="M 50.003906 56.253906 L 30 56.253906 C 29.304688 56.253906 28.75 55.695312 28.75 55.003906 C 28.75 54.3125 29.304688 53.753906 30 53.753906 L 50.003906 53.753906 C 50.695312 53.753906 51.253906 54.3125 51.253906 55.003906 C 51.253906 55.695312 50.695312 56.253906 50.003906 56.253906 Z M 50.003906 56.253906 "/>
<path style=" stroke:none;fill-rule:nonzero;fill:rgb(0%,0%,0%);fill-opacity:1;" d="M 37.503906 56.253906 C 36.8125 56.253906 36.253906 55.695312 36.253906 55.003906 L 36.253906 23.386719 C 36.253906 22.695312 36.8125 22.136719 37.503906 22.136719 C 38.195312 22.136719 38.753906 22.695312 38.753906 23.386719 L 38.753906 55.003906 C 38.753906 55.695312 38.195312 56.253906 37.503906 56.253906 Z M 37.503906 56.253906 "/>
<path style=" stroke:none;fill-rule:nonzero;fill:rgb(0%,0%,0%);fill-opacity:1;" d="M 42.480469 56.253906 C 41.789062 56.253906 41.230469 55.695312 41.230469 55.003906 L 41.230469 23.386719 C 41.230469 22.695312 41.789062 22.136719 42.480469 22.136719 C 43.171875 22.136719 43.730469 22.695312 43.730469 23.386719 L 43.730469 55.003906 C 43.730469 55.695312 43.171875 56.253906 42.480469 56.253906 Z M 42.480469 56.253906 "/>
<path style=" stroke:none;fill-rule:nonzero;fill:rgb(0%,0%,0%);fill-opacity:1;" d="M 31.628906 8.75 L 14.988281 8.75 C 14.296875 8.75 13.738281 8.191406 13.738281 7.5 C 13.738281 6.808594 14.296875 6.25 14.988281 6.25 L 31.628906 6.25 C 32.320312 6.25 32.878906 6.808594 32.878906 7.5 C 32.878906 8.191406 32.320312 8.75 31.628906 8.75 Z M 31.628906 8.75 "/>
<path style=" stroke:none;fill-rule:nonzero;fill:rgb(0%,0%,0%);fill-opacity:1;" d="M 31.265625 13.730469 L 14.96875 13.730469 C 14.277344 13.730469 13.71875 13.171875 13.71875 12.480469 C 13.71875 11.789062 14.277344 11.230469 14.96875 11.230469 L 31.265625 11.230469 C 31.957031 11.230469 32.515625 11.789062 32.515625 12.480469 C 32.515625 13.171875 31.957031 13.730469 31.265625 13.730469 Z M 31.265625 13.730469 "/>
<path style=" stroke:none;fill-rule:nonzero;fill:rgb(0%,0%,0%);fill-opacity:1;" d="M 15 13.730469 C 12.9375 13.730469 11.261719 12.050781 11.261719 9.992188 C 11.261719 7.929688 12.9375 6.25 15 6.25 C 15.691406 6.25 16.25 6.808594 16.25 7.5 C 16.25 8.191406 15.691406 8.75 15 8.75 C 14.316406 8.75 13.761719 9.304688 13.761719 9.992188 C 13.761719 10.671875 14.316406 11.230469 15 11.230469 C 15.691406 11.230469 16.25 11.789062 16.25 12.480469 C 16.25 13.171875 15.691406 13.730469 15 13.730469 Z M 15 13.730469 "/>
<path style=" stroke:none;fill-rule:nonzero;fill:rgb(0%,0%,0%);fill-opacity:1;" d="M 15 48.746094 C 8.796875 48.746094 3.75 43.699219 3.75 37.496094 C 3.75 36.804688 4.308594 36.246094 5 36.246094 C 5.691406 36.246094 6.25 36.804688 6.25 37.496094 C 6.25 42.320312 10.175781 46.246094 15 46.246094 C 19.824219 46.246094 23.75 42.320312 23.75 37.496094 C 23.75 36.804688 24.308594 36.246094 25 36.246094 C 25.691406 36.246094 26.25 36.804688 26.25 37.496094 C 26.25 43.699219 21.203125 48.746094 15 48.746094 Z M 15 48.746094 "/>
<path style=" stroke:none;fill-rule:nonzero;fill:rgb(0%,0%,0%);fill-opacity:1;" d="M 25 38.746094 L 5 38.746094 C 4.308594 38.746094 3.75 38.1875 3.75 37.496094 C 3.75 36.804688 4.308594 36.246094 5 36.246094 L 25 36.246094 C 25.691406 36.246094 26.25 36.804688 26.25 37.496094 C 26.25 38.1875 25.691406 38.746094 25 38.746094 Z M 25 38.746094 "/>
<path style=" stroke:none;fill-rule:nonzero;fill:rgb(0%,0%,0%);fill-opacity:1;" d="M 25 38.746094 C 24.503906 38.746094 24.035156 38.449219 23.839844 37.960938 L 13.808594 12.945312 C 13.550781 12.304688 13.859375 11.578125 14.5 11.320312 C 15.140625 11.058594 15.871094 11.375 16.125 12.015625 L 26.160156 37.03125 C 26.417969 37.671875 26.105469 38.398438 25.464844 38.65625 C 25.3125 38.71875 25.15625 38.746094 25 38.746094 Z M 25 38.746094 "/>
<path style=" stroke:none;fill-rule:nonzero;fill:rgb(0%,0%,0%);fill-opacity:1;" d="M 5 38.746094 C 4.847656 38.746094 4.6875 38.71875 4.539062 38.65625 C 3.898438 38.402344 3.582031 37.675781 3.839844 37.03125 L 13.804688 12.015625 C 14.058594 11.375 14.789062 11.0625 15.429688 11.320312 C 16.070312 11.574219 16.382812 12.300781 16.128906 12.941406 L 6.164062 37.957031 C 5.96875 38.445312 5.5 38.746094 5 38.746094 Z M 5 38.746094 "/>
<path style=" stroke:none;fill-rule:nonzero;fill:rgb(0%,0%,0%);fill-opacity:1;" d="M 65.023438 8.75 L 48.382812 8.75 C 47.691406 8.75 47.132812 8.191406 47.132812 7.5 C 47.132812 6.808594 47.691406 6.25 48.382812 6.25 L 65.023438 6.25 C 65.714844 6.25 66.273438 6.808594 66.273438 7.5 C 66.273438 8.191406 65.710938 8.75 65.023438 8.75 Z M 65.023438 8.75 "/>
<path style=" stroke:none;fill-rule:nonzero;fill:rgb(0%,0%,0%);fill-opacity:1;" d="M 65.042969 13.730469 L 48.765625 13.730469 C 48.074219 13.730469 47.515625 13.171875 47.515625 12.480469 C 47.515625 11.789062 48.074219 11.230469 48.765625 11.230469 L 65.042969 11.230469 C 65.734375 11.230469 66.292969 11.789062 66.292969 12.480469 C 66.292969 13.171875 65.734375 13.730469 65.042969 13.730469 Z M 65.042969 13.730469 "/>
<path style=" stroke:none;fill-rule:nonzero;fill:rgb(0%,0%,0%);fill-opacity:1;" d="M 65.011719 13.730469 C 64.320312 13.730469 63.761719 13.171875 63.761719 12.480469 C 63.761719 11.789062 64.320312 11.230469 65.011719 11.230469 C 65.695312 11.230469 66.25 10.671875 66.25 9.992188 C 66.25 9.304688 65.695312 8.75 65.011719 8.75 C 64.320312 8.75 63.761719 8.191406 63.761719 7.5 C 63.761719 6.808594 64.320312 6.25 65.011719 6.25 C 67.070312 6.25 68.75 7.929688 68.75 9.992188 C 68.75 12.050781 67.070312 13.730469 65.011719 13.730469 Z M 65.011719 13.730469 "/>
<path style=" stroke:none;fill-rule:nonzero;fill:rgb(0%,0%,0%);fill-opacity:1;" d="M 65.011719 48.746094 C 58.808594 48.746094 53.761719 43.699219 53.761719 37.496094 C 53.761719 36.804688 54.320312 36.246094 55.011719 36.246094 C 55.703125 36.246094 56.261719 36.804688 56.261719 37.496094 C 56.261719 42.320312 60.1875 46.246094 65.011719 46.246094 C 69.835938 46.246094 73.761719 42.320312 73.761719 37.496094 C 73.761719 36.804688 74.320312 36.246094 75.011719 36.246094 C 75.703125 36.246094 76.261719 36.804688 76.261719 37.496094 C 76.261719 43.699219 71.214844 48.746094 65.011719 48.746094 Z M 65.011719 48.746094 "/>
<path style=" stroke:none;fill-rule:nonzero;fill:rgb(0%,0%,0%);fill-opacity:1;" d="M 75.011719 38.746094 L 55.011719 38.746094 C 54.320312 38.746094 53.761719 38.1875 53.761719 37.496094 C 53.761719 36.804688 54.320312 36.246094 55.011719 36.246094 L 75.011719 36.246094 C 75.703125 36.246094 76.261719 36.804688 76.261719 37.496094 C 76.261719 38.1875 75.703125 38.746094 75.011719 38.746094 Z M 75.011719 38.746094 "/>
<path style=" stroke:none;fill-rule:nonzero;fill:rgb(0%,0%,0%);fill-opacity:1;" d="M 55.011719 38.746094 C 54.855469 38.746094 54.699219 38.71875 54.546875 38.65625 C 53.90625 38.398438 53.59375 37.671875 53.851562 37.03125 L 63.882812 12.015625 C 64.140625 11.375 64.867188 11.058594 65.507812 11.320312 C 66.152344 11.578125 66.460938 12.304688 66.203125 12.945312 L 56.171875 37.960938 C 55.972656 38.449219 55.503906 38.746094 55.011719 38.746094 Z M 55.011719 38.746094 "/>
<path style=" stroke:none;fill-rule:nonzero;fill:rgb(0%,0%,0%);fill-opacity:1;" d="M 75.011719 38.746094 C 74.515625 38.746094 74.046875 38.445312 73.847656 37.957031 L 63.882812 12.941406 C 63.625 12.300781 63.941406 11.574219 64.582031 11.320312 C 65.222656 11.0625 65.949219 11.375 66.207031 12.015625 L 76.171875 37.03125 C 76.429688 37.675781 76.113281 38.402344 75.472656 38.65625 C 75.320312 38.71875 75.164062 38.746094 75.011719 38.746094 Z M 75.011719 38.746094 "/>
<path style=" stroke:none;fill-rule:nonzero;fill:rgb(0%,0%,0%);fill-opacity:1;" d="M 60.015625 76.246094 L 20.015625 76.246094 C 17.949219 76.246094 16.265625 74.566406 16.265625 72.496094 L 16.265625 62.503906 C 16.265625 60.433594 17.949219 58.753906 20.015625 58.753906 L 60.015625 58.753906 C 62.082031 58.753906 63.765625 60.433594 63.765625 62.503906 L 63.765625 72.496094 C 63.765625 74.566406 62.082031 76.246094 60.015625 76.246094 Z M 20.015625 61.253906 C 19.324219 61.253906 18.765625 61.8125 18.765625 62.503906 L 18.765625 72.496094 C 18.765625 73.1875 19.324219 73.746094 20.015625 73.746094 L 60.015625 73.746094 C 60.707031 73.746094 61.265625 73.1875 61.265625 72.496094 L 61.265625 62.503906 C 61.265625 61.8125 60.707031 61.253906 60.015625 61.253906 Z M 20.015625 61.253906 "/>
<path style=" stroke:none;fill-rule:nonzero;fill:rgb(0%,0%,0%);fill-opacity:1;" d="M 22.515625 80 C 21.824219 80 21.265625 79.441406 21.265625 78.75 L 21.265625 74.996094 C 21.265625 74.304688 21.824219 73.746094 22.515625 73.746094 C 23.207031 73.746094 23.765625 74.304688 23.765625 74.996094 L 23.765625 78.75 C 23.765625 79.441406 23.207031 80 22.515625 80 Z M 22.515625 80 "/>
<path style=" stroke:none;fill-rule:nonzero;fill:rgb(0%,0%,0%);fill-opacity:1;" d="M 32.511719 80 L 22.515625 80 C 21.824219 80 21.265625 79.441406 21.265625 78.75 C 21.265625 78.058594 21.824219 77.5 22.515625 77.5 L 32.511719 77.5 C 33.203125 77.5 33.761719 78.058594 33.761719 78.75 C 33.761719 79.441406 33.203125 80 32.511719 80 Z M 32.511719 80 "/>
<path style=" stroke:none;fill-rule:nonzero;fill:rgb(0%,0%,0%);fill-opacity:1;" d="M 32.511719 80 C 31.820312 80 31.261719 79.441406 31.261719 78.75 L 31.261719 74.996094 C 31.261719 74.304688 31.820312 73.746094 32.511719 73.746094 C 33.203125 73.746094 33.761719 74.304688 33.761719 74.996094 L 33.761719 78.75 C 33.761719 79.441406 33.203125 80 32.511719 80 Z M 32.511719 80 "/>
<path style=" stroke:none;fill-rule:nonzero;fill:rgb(0%,0%,0%);fill-opacity:1;" d="M 47.515625 80 C 46.824219 80 46.265625 79.441406 46.265625 78.75 L 46.265625 74.996094 C 46.265625 74.304688 46.824219 73.746094 47.515625 73.746094 C 48.207031 73.746094 48.765625 74.304688 48.765625 74.996094 L 48.765625 78.75 C 48.765625 79.441406 48.207031 80 47.515625 80 Z M 47.515625 80 "/>
<path style=" stroke:none;fill-rule:nonzero;fill:rgb(0%,0%,0%);fill-opacity:1;" d="M 57.511719 80 L 47.515625 80 C 46.824219 80 46.265625 79.441406 46.265625 78.75 C 46.265625 78.058594 46.824219 77.5 47.515625 77.5 L 57.511719 77.5 C 58.203125 77.5 58.761719 78.058594 58.761719 78.75 C 58.761719 79.441406 58.203125 80 57.511719 80 Z M 57.511719 80 "/>
<path style=" stroke:none;fill-rule:nonzero;fill:rgb(0%,0%,0%);fill-opacity:1;" d="M 57.511719 80 C 56.820312 80 56.261719 79.441406 56.261719 78.75 L 56.261719 74.996094 C 56.261719 74.304688 56.820312 73.746094 57.511719 73.746094 C 58.203125 73.746094 58.761719 74.304688 58.761719 74.996094 L 58.761719 78.75 C 58.761719 79.441406 58.203125 80 57.511719 80 Z M 57.511719 80 "/>
<path style=" stroke:none;fill-rule:nonzero;fill:rgb(0%,0%,0%);fill-opacity:1;" d="M 40.015625 20 C 34.5 20 30.015625 15.515625 30.015625 10 C 30.015625 4.484375 34.5 0 40.015625 0 C 45.527344 0 50.015625 4.484375 50.015625 10 C 50.015625 15.515625 45.527344 20 40.015625 20 Z M 40.015625 2.5 C 35.878906 2.5 32.515625 5.863281 32.515625 10 C 32.515625 14.136719 35.878906 17.5 40.015625 17.5 C 44.152344 17.5 47.515625 14.136719 47.515625 10 C 47.515625 5.863281 44.148438 2.5 40.015625 2.5 Z M 40.015625 2.5 "/>
<path style=" stroke:none;fill-rule:nonzero;fill:rgb(0%,0%,0%);fill-opacity:1;" d="M 40.015625 25.003906 C 34.5 25.003906 30.015625 20.519531 30.015625 15.003906 C 30.015625 14.3125 30.574219 13.753906 31.265625 13.753906 C 31.957031 13.753906 32.515625 14.3125 32.515625 15.003906 C 32.515625 19.140625 35.878906 22.503906 40.015625 22.503906 C 44.152344 22.503906 47.515625 19.140625 47.515625 15.003906 C 47.515625 14.3125 48.074219 13.753906 48.765625 13.753906 C 49.457031 13.753906 50.015625 14.3125 50.015625 15.003906 C 50.015625 20.519531 45.527344 25.003906 40.015625 25.003906 Z M 40.015625 25.003906 "/>
<path style=" stroke:none;fill-rule:nonzero;fill:rgb(0%,0%,0%);fill-opacity:1;" d="M 48.765625 16.253906 C 48.074219 16.253906 47.515625 15.695312 47.515625 15.003906 L 47.515625 10 C 47.515625 9.308594 48.074219 8.75 48.765625 8.75 C 49.457031 8.75 50.015625 9.308594 50.015625 10 L 50.015625 15.003906 C 50.015625 15.695312 49.457031 16.253906 48.765625 16.253906 Z M 48.765625 16.253906 "/>
<path style=" stroke:none;fill-rule:nonzero;fill:rgb(0%,0%,0%);fill-opacity:1;" d="M 31.265625 16.253906 C 30.574219 16.253906 30.015625 15.695312 30.015625 15.003906 L 30.015625 10 C 30.015625 9.308594 30.574219 8.75 31.265625 8.75 C 31.957031 8.75 32.515625 9.308594 32.515625 10 L 32.515625 15.003906 C 32.515625 15.695312 31.957031 16.253906 31.265625 16.253906 Z M 31.265625 16.253906 "/>
<path style=" stroke:none;fill-rule:nonzero;fill:rgb(0%,0%,0%);fill-opacity:1;" d="M 36.265625 24.164062 C 35.574219 24.164062 35.015625 23.601562 35.015625 22.914062 L 35.015625 17.90625 C 35.015625 17.214844 35.574219 16.65625 36.265625 16.65625 C 36.957031 16.65625 37.515625 17.214844 37.515625 17.90625 L 37.515625 22.914062 C 37.515625 23.601562 36.957031 24.164062 36.265625 24.164062 Z M 36.265625 24.164062 "/>
<path style=" stroke:none;fill-rule:nonzero;fill:rgb(0%,0%,0%);fill-opacity:1;" d="M 43.773438 24.164062 C 43.082031 24.164062 42.523438 23.601562 42.523438 22.914062 L 42.523438 17.90625 C 42.523438 17.214844 43.082031 16.65625 43.773438 16.65625 C 44.464844 16.65625 45.023438 17.214844 45.023438 17.90625 L 45.023438 22.914062 C 45.023438 23.601562 44.460938 24.164062 43.773438 24.164062 Z M 43.773438 24.164062 "/>
<path style=" stroke:none;fill-rule:nonzero;fill:rgb(0%,0%,0%);fill-opacity:1;" d="M 39.996094 13.753906 C 39.304688 13.753906 38.746094 13.195312 38.746094 12.503906 L 38.746094 7.503906 C 38.746094 6.8125 39.304688 6.253906 39.996094 6.253906 C 40.6875 6.253906 41.246094 6.8125 41.246094 7.503906 L 41.246094 12.503906 C 41.246094 13.195312 40.6875 13.753906 39.996094 13.753906 Z M 39.996094 13.753906 "/>
</g>
</svg>
