<?xml version="1.0" encoding="UTF-8"?>
<svg xmlns="http://www.w3.org/2000/svg" xmlns:xlink="http://www.w3.org/1999/xlink" width="80pt" height="80pt" viewBox="0 0 80 80" version="1.1">
<g id="surface1">
<path style=" stroke:none;fill-rule:nonzero;fill:rgb(0%,0%,0%);fill-opacity:1;" d="M 58.726562 29.515625 C 58.566406 29.515625 58.410156 29.488281 58.261719 29.429688 L 52.238281 27.019531 L 33.734375 27.03125 C 33.402344 27.03125 33.085938 26.902344 32.851562 26.667969 C 32.617188 26.433594 32.484375 26.117188 32.484375 25.78125 L 32.484375 3.277344 C 32.484375 2.585938 33.042969 2.027344 33.734375 2.027344 L 62.472656 2.027344 C 63.164062 2.027344 63.722656 2.585938 63.722656 3.277344 L 63.722656 25.769531 C 63.722656 26.457031 63.164062 27.019531 62.472656 27.019531 L 59.976562 27.019531 L 59.976562 28.269531 C 59.976562 28.683594 59.769531 29.070312 59.425781 29.300781 C 59.214844 29.445312 58.972656 29.515625 58.726562 29.515625 Z M 52.476562 24.519531 C 52.636719 24.519531 52.792969 24.546875 52.941406 24.605469 L 57.476562 26.421875 L 57.476562 25.765625 C 57.480469 25.078125 58.039062 24.519531 58.726562 24.519531 L 61.222656 24.519531 L 61.222656 4.527344 L 34.984375 4.527344 L 34.984375 24.53125 Z M 52.476562 24.519531 "/>
<path style=" stroke:none;fill-rule:nonzero;fill:rgb(0%,0%,0%);fill-opacity:1;" d="M 18.738281 28.265625 C 18.492188 28.265625 18.246094 28.195312 18.035156 28.050781 C 17.695312 27.820312 17.488281 27.429688 17.488281 27.015625 L 17.488281 25.765625 L 14.988281 25.765625 C 14.296875 25.765625 13.738281 25.207031 13.738281 24.515625 L 13.738281 5.777344 C 13.738281 5.089844 14.296875 4.53125 14.988281 4.53125 L 33.722656 4.53125 C 34.414062 4.53125 34.972656 5.089844 34.972656 5.777344 C 34.972656 6.46875 34.414062 7.027344 33.722656 7.027344 L 16.238281 7.027344 L 16.238281 23.269531 L 18.738281 23.269531 C 19.429688 23.269531 19.988281 23.828125 19.988281 24.515625 L 19.988281 25.171875 L 24.519531 23.355469 C 24.671875 23.296875 24.828125 23.214844 24.988281 23.269531 L 33.726562 23.28125 C 34.417969 23.285156 34.976562 23.84375 34.972656 24.535156 C 34.972656 25.222656 34.414062 25.78125 33.722656 25.78125 L 25.226562 25.765625 L 19.203125 28.175781 C 19.050781 28.238281 18.894531 28.265625 18.738281 28.265625 Z M 18.738281 28.265625 "/>
<path style=" stroke:none;fill-rule:nonzero;fill:rgb(0%,0%,0%);fill-opacity:1;" d="M 47.480469 18.269531 C 46.789062 18.269531 46.230469 17.710938 46.230469 17.019531 L 46.230469 8.277344 C 46.230469 7.585938 46.789062 7.027344 47.480469 7.027344 C 48.167969 7.027344 48.730469 7.585938 48.730469 8.277344 L 48.730469 17.019531 C 48.730469 17.710938 48.167969 18.269531 47.480469 18.269531 Z M 47.480469 18.269531 "/>
<path style=" stroke:none;fill-rule:nonzero;fill:rgb(0%,0%,0%);fill-opacity:1;" d="M 47.515625 22.019531 C 46.824219 22.019531 46.261719 21.460938 46.261719 20.769531 C 46.261719 20.078125 46.8125 19.519531 47.503906 19.519531 L 47.515625 19.519531 C 48.207031 19.519531 48.765625 20.078125 48.765625 20.769531 C 48.765625 21.460938 48.207031 22.019531 47.515625 22.019531 Z M 47.515625 22.019531 "/>
<path style=" stroke:none;fill-rule:nonzero;fill:rgb(0%,0%,0%);fill-opacity:1;" d="M 3.746094 50.699219 C 3.054688 50.699219 2.496094 50.140625 2.496094 49.449219 L 2.496094 44.050781 C 2.496094 43.359375 3.054688 42.800781 3.746094 42.800781 C 4.4375 42.800781 4.996094 43.359375 4.996094 44.050781 L 4.996094 49.449219 C 4.996094 50.140625 4.4375 50.699219 3.746094 50.699219 Z M 3.746094 50.699219 "/>
<path style=" stroke:none;fill-rule:nonzero;fill:rgb(0%,0%,0%);fill-opacity:1;" d="M 26.238281 50.75 C 25.546875 50.75 24.988281 50.191406 24.988281 49.5 L 24.988281 43.871094 C 24.988281 43.183594 25.546875 42.625 26.238281 42.625 C 26.929688 42.625 27.488281 43.183594 27.488281 43.871094 L 27.488281 49.5 C 27.488281 50.191406 26.929688 50.75 26.238281 50.75 Z M 26.238281 50.75 "/>
<path style=" stroke:none;fill-rule:nonzero;fill:rgb(0%,0%,0%);fill-opacity:1;" d="M 26.238281 45.121094 C 25.546875 45.121094 24.988281 44.5625 24.988281 43.871094 C 24.988281 38.015625 20.226562 33.253906 14.367188 33.253906 C 8.511719 33.253906 3.746094 38.015625 3.746094 43.871094 C 3.746094 44.5625 3.1875 45.121094 2.496094 45.121094 C 1.804688 45.121094 1.25 44.5625 1.25 43.871094 C 1.25 36.640625 7.132812 30.753906 14.367188 30.753906 C 21.601562 30.753906 27.488281 36.640625 27.488281 43.871094 C 27.488281 44.5625 26.929688 45.121094 26.238281 45.121094 Z M 26.238281 45.121094 "/>
<path style=" stroke:none;fill-rule:nonzero;fill:rgb(0%,0%,0%);fill-opacity:1;" d="M 26.242188 47 C 25.863281 47 25.492188 46.832031 25.246094 46.507812 C 22.175781 42.496094 20.792969 42.90625 17.09375 44.007812 C 13.914062 44.957031 9.5625 46.253906 2.300781 45.105469 C 1.621094 45 1.15625 44.359375 1.265625 43.675781 C 1.371094 42.996094 2.015625 42.527344 2.695312 42.636719 C 9.390625 43.691406 13.429688 42.492188 16.382812 41.613281 C 20.289062 40.453125 23.109375 39.609375 27.234375 44.988281 C 27.652344 45.535156 27.546875 46.320312 27 46.742188 C 26.773438 46.914062 26.503906 47 26.242188 47 Z M 26.242188 47 "/>
<path style=" stroke:none;fill-rule:nonzero;fill:rgb(0%,0%,0%);fill-opacity:1;" d="M 20.019531 43.285156 C 19.777344 43.285156 19.527344 43.214844 19.3125 43.066406 C 18.746094 42.675781 18.597656 41.898438 18.988281 41.332031 L 22.710938 35.886719 C 23.097656 35.3125 23.878906 35.167969 24.449219 35.558594 C 25.015625 35.945312 25.164062 36.722656 24.773438 37.292969 L 21.050781 42.742188 C 20.808594 43.09375 20.417969 43.285156 20.019531 43.285156 Z M 20.019531 43.285156 "/>
<path style=" stroke:none;fill-rule:nonzero;fill:rgb(0%,0%,0%);fill-opacity:1;" d="M 1.25 71.992188 C 0.558594 71.992188 0 71.433594 0 70.742188 C 0 66.609375 3.363281 63.246094 7.496094 63.246094 C 8.1875 63.246094 8.746094 63.804688 8.746094 64.496094 C 8.746094 65.1875 8.1875 65.746094 7.496094 65.746094 C 4.742188 65.746094 2.5 67.988281 2.5 70.742188 C 2.5 71.433594 1.941406 71.992188 1.25 71.992188 Z M 1.25 71.992188 "/>
<path style=" stroke:none;fill-rule:nonzero;fill:rgb(0%,0%,0%);fill-opacity:1;" d="M 9.996094 65.746094 L 7.496094 65.746094 C 6.804688 65.746094 6.246094 65.1875 6.246094 64.496094 C 6.246094 63.804688 6.804688 63.246094 7.496094 63.246094 L 9.996094 63.246094 C 10.6875 63.246094 11.246094 63.804688 11.246094 64.496094 C 11.246094 65.1875 10.6875 65.746094 9.996094 65.746094 Z M 9.996094 65.746094 "/>
<path style=" stroke:none;fill-rule:nonzero;fill:rgb(0%,0%,0%);fill-opacity:1;" d="M 1.25 76.992188 C 0.558594 76.992188 0 76.433594 0 75.742188 L 0 70.742188 C 0 70.050781 0.558594 69.492188 1.25 69.492188 C 1.941406 69.492188 2.5 70.050781 2.5 70.742188 L 2.5 75.742188 C 2.5 76.433594 1.941406 76.992188 1.25 76.992188 Z M 1.25 76.992188 "/>
<path style=" stroke:none;fill-rule:nonzero;fill:rgb(0%,0%,0%);fill-opacity:1;" d="M 28.738281 71.992188 C 28.046875 71.992188 27.488281 71.433594 27.488281 70.742188 C 27.488281 67.988281 25.246094 65.746094 22.488281 65.746094 C 21.796875 65.746094 21.238281 65.1875 21.238281 64.496094 C 21.238281 63.804688 21.796875 63.246094 22.488281 63.246094 C 26.625 63.246094 29.988281 66.609375 29.988281 70.742188 C 29.988281 71.433594 29.429688 71.992188 28.738281 71.992188 Z M 28.738281 71.992188 "/>
<path style=" stroke:none;fill-rule:nonzero;fill:rgb(0%,0%,0%);fill-opacity:1;" d="M 22.488281 65.746094 L 19.992188 65.746094 C 19.300781 65.746094 18.742188 65.1875 18.742188 64.496094 C 18.742188 63.804688 19.300781 63.246094 19.992188 63.246094 L 22.488281 63.246094 C 23.179688 63.246094 23.738281 63.804688 23.738281 64.496094 C 23.738281 65.1875 23.179688 65.746094 22.488281 65.746094 Z M 22.488281 65.746094 "/>
<path style=" stroke:none;fill-rule:nonzero;fill:rgb(0%,0%,0%);fill-opacity:1;" d="M 28.738281 76.992188 C 28.046875 76.992188 27.488281 76.433594 27.488281 75.742188 L 27.488281 70.742188 C 27.488281 70.050781 28.046875 69.492188 28.738281 69.492188 C 29.429688 69.492188 29.988281 70.050781 29.988281 70.742188 L 29.988281 75.742188 C 29.988281 76.433594 29.429688 76.992188 28.738281 76.992188 Z M 28.738281 76.992188 "/>
<path style=" stroke:none;fill-rule:nonzero;fill:rgb(0%,0%,0%);fill-opacity:1;" d="M 9.996094 65.746094 C 9.304688 65.746094 8.746094 65.1875 8.746094 64.496094 L 8.746094 59.578125 C 8.746094 58.886719 9.304688 58.328125 9.996094 58.328125 C 10.6875 58.328125 11.246094 58.886719 11.246094 59.578125 L 11.246094 64.496094 C 11.246094 65.1875 10.6875 65.746094 9.996094 65.746094 Z M 9.996094 65.746094 "/>
<path style=" stroke:none;fill-rule:nonzero;fill:rgb(0%,0%,0%);fill-opacity:1;" d="M 19.992188 65.746094 C 19.300781 65.746094 18.742188 65.1875 18.742188 64.496094 L 18.742188 59.578125 C 18.742188 58.886719 19.300781 58.328125 19.992188 58.328125 C 20.683594 58.328125 21.242188 58.886719 21.242188 59.578125 L 21.242188 64.496094 C 21.242188 65.1875 20.683594 65.746094 19.992188 65.746094 Z M 19.992188 65.746094 "/>
<path style=" stroke:none;fill-rule:nonzero;fill:rgb(0%,0%,0%);fill-opacity:1;" d="M 14.992188 61.996094 C 8.101562 61.996094 2.496094 56.390625 2.496094 49.503906 C 2.496094 48.8125 3.054688 48.253906 3.746094 48.253906 C 4.4375 48.253906 4.996094 48.8125 4.996094 49.503906 C 4.996094 55.015625 9.480469 59.496094 14.992188 59.496094 C 20.503906 59.496094 24.988281 55.015625 24.988281 49.503906 C 24.988281 48.8125 25.546875 48.253906 26.238281 48.253906 C 26.929688 48.253906 27.488281 48.8125 27.488281 49.503906 C 27.488281 56.390625 21.882812 61.996094 14.992188 61.996094 Z M 14.992188 61.996094 "/>
<path style=" stroke:none;fill-rule:nonzero;fill:rgb(0%,0%,0%);fill-opacity:1;" d="M 12.492188 66.996094 C 12.304688 66.996094 12.113281 66.953125 11.933594 66.863281 L 9.4375 65.613281 C 8.820312 65.304688 8.570312 64.554688 8.878906 63.9375 C 9.1875 63.320312 9.9375 63.070312 10.554688 63.378906 L 13.054688 64.628906 C 13.671875 64.9375 13.921875 65.6875 13.613281 66.304688 C 13.390625 66.742188 12.953125 66.996094 12.492188 66.996094 Z M 12.492188 66.996094 "/>
<path style=" stroke:none;fill-rule:nonzero;fill:rgb(0%,0%,0%);fill-opacity:1;" d="M 12.496094 66.996094 C 12.035156 66.996094 11.59375 66.742188 11.375 66.304688 C 11.066406 65.6875 11.316406 64.933594 11.933594 64.628906 L 14.433594 63.378906 C 15.050781 63.070312 15.800781 63.316406 16.109375 63.9375 C 16.417969 64.554688 16.167969 65.304688 15.550781 65.613281 L 13.050781 66.863281 C 12.875 66.953125 12.683594 66.996094 12.496094 66.996094 Z M 12.496094 66.996094 "/>
<path style=" stroke:none;fill-rule:nonzero;fill:rgb(0%,0%,0%);fill-opacity:1;" d="M 17.492188 66.996094 C 17.035156 66.996094 16.59375 66.742188 16.375 66.304688 C 16.066406 65.6875 16.316406 64.933594 16.933594 64.628906 L 19.429688 63.378906 C 20.050781 63.070312 20.800781 63.316406 21.109375 63.9375 C 21.417969 64.554688 21.167969 65.304688 20.550781 65.613281 L 18.050781 66.863281 C 17.871094 66.953125 17.679688 66.996094 17.492188 66.996094 Z M 17.492188 66.996094 "/>
<path style=" stroke:none;fill-rule:nonzero;fill:rgb(0%,0%,0%);fill-opacity:1;" d="M 17.492188 66.996094 C 17.304688 66.996094 17.113281 66.953125 16.933594 66.863281 L 14.433594 65.613281 C 13.816406 65.304688 13.566406 64.554688 13.875 63.9375 C 14.183594 63.320312 14.9375 63.070312 15.554688 63.378906 L 18.050781 64.628906 C 18.667969 64.9375 18.917969 65.6875 18.609375 66.304688 C 18.390625 66.742188 17.949219 66.996094 17.492188 66.996094 Z M 17.492188 66.996094 "/>
<path style=" stroke:none;fill-rule:nonzero;fill:rgb(0%,0%,0%);fill-opacity:1;" d="M 2.503906 78.246094 C 1.125 78.246094 0 77.121094 0 75.742188 C 0 75.050781 0.558594 74.492188 1.25 74.492188 C 1.941406 74.492188 2.5 75.050781 2.5 75.742188 L 2.5 75.746094 C 3.191406 75.746094 3.75 76.304688 3.75 76.996094 C 3.75 77.6875 3.195312 78.246094 2.503906 78.246094 Z M 2.503906 78.246094 "/>
<path style=" stroke:none;fill-rule:nonzero;fill:rgb(0%,0%,0%);fill-opacity:1;" d="M 27.484375 78.246094 C 26.792969 78.246094 26.234375 77.6875 26.234375 76.996094 C 26.234375 76.304688 26.792969 75.746094 27.484375 75.746094 C 27.484375 75.054688 28.042969 74.496094 28.734375 74.496094 C 29.425781 74.496094 29.988281 75.050781 29.988281 75.742188 C 29.988281 77.121094 28.863281 78.246094 27.484375 78.246094 Z M 27.484375 78.246094 "/>
<path style=" stroke:none;fill-rule:nonzero;fill:rgb(0%,0%,0%);fill-opacity:1;" d="M 27.484375 78.246094 L 2.503906 78.246094 C 1.8125 78.246094 1.253906 77.6875 1.253906 76.996094 C 1.253906 76.304688 1.8125 75.746094 2.503906 75.746094 L 27.484375 75.746094 C 28.171875 75.746094 28.730469 76.304688 28.730469 76.996094 C 28.730469 77.6875 28.171875 78.246094 27.484375 78.246094 Z M 27.484375 78.246094 "/>
<path style=" stroke:none;fill-rule:nonzero;fill:rgb(0%,0%,0%);fill-opacity:1;" d="M 51.230469 71.992188 C 50.539062 71.992188 49.980469 71.433594 49.980469 70.742188 C 49.980469 66.609375 53.34375 63.246094 57.480469 63.246094 C 58.171875 63.246094 58.730469 63.804688 58.730469 64.496094 C 58.730469 65.1875 58.171875 65.746094 57.480469 65.746094 C 54.722656 65.746094 52.480469 67.988281 52.480469 70.742188 C 52.480469 71.433594 51.921875 71.992188 51.230469 71.992188 Z M 51.230469 71.992188 "/>
<path style=" stroke:none;fill-rule:nonzero;fill:rgb(0%,0%,0%);fill-opacity:1;" d="M 59.976562 65.746094 L 57.480469 65.746094 C 56.789062 65.746094 56.230469 65.1875 56.230469 64.496094 C 56.230469 63.804688 56.789062 63.246094 57.480469 63.246094 L 59.976562 63.246094 C 60.667969 63.246094 61.226562 63.804688 61.226562 64.496094 C 61.226562 65.1875 60.667969 65.746094 59.976562 65.746094 Z M 59.976562 65.746094 "/>
<path style=" stroke:none;fill-rule:nonzero;fill:rgb(0%,0%,0%);fill-opacity:1;" d="M 51.230469 76.992188 C 50.539062 76.992188 49.980469 76.433594 49.980469 75.742188 L 49.980469 70.742188 C 49.980469 70.050781 50.539062 69.492188 51.230469 69.492188 C 51.921875 69.492188 52.480469 70.050781 52.480469 70.742188 L 52.480469 75.742188 C 52.480469 76.433594 51.921875 76.992188 51.230469 76.992188 Z M 51.230469 76.992188 "/>
<path style=" stroke:none;fill-rule:nonzero;fill:rgb(0%,0%,0%);fill-opacity:1;" d="M 78.71875 71.992188 C 78.027344 71.992188 77.46875 71.433594 77.46875 70.742188 C 77.46875 67.988281 75.226562 65.746094 72.472656 65.746094 C 71.78125 65.746094 71.222656 65.1875 71.222656 64.496094 C 71.222656 63.804688 71.78125 63.246094 72.472656 63.246094 C 76.605469 63.246094 79.96875 66.609375 79.96875 70.742188 C 79.96875 71.433594 79.410156 71.992188 78.71875 71.992188 Z M 78.71875 71.992188 "/>
<path style=" stroke:none;fill-rule:nonzero;fill:rgb(0%,0%,0%);fill-opacity:1;" d="M 72.472656 65.746094 L 69.972656 65.746094 C 69.28125 65.746094 68.722656 65.1875 68.722656 64.496094 C 68.722656 63.804688 69.28125 63.246094 69.972656 63.246094 L 72.472656 63.246094 C 73.164062 63.246094 73.722656 63.804688 73.722656 64.496094 C 73.722656 65.1875 73.164062 65.746094 72.472656 65.746094 Z M 72.472656 65.746094 "/>
<path style=" stroke:none;fill-rule:nonzero;fill:rgb(0%,0%,0%);fill-opacity:1;" d="M 78.71875 76.992188 C 78.027344 76.992188 77.46875 76.433594 77.46875 75.742188 L 77.46875 70.742188 C 77.46875 70.050781 78.027344 69.492188 78.71875 69.492188 C 79.410156 69.492188 79.96875 70.050781 79.96875 70.742188 L 79.96875 75.742188 C 79.96875 76.433594 79.410156 76.992188 78.71875 76.992188 Z M 78.71875 76.992188 "/>
<path style=" stroke:none;fill-rule:nonzero;fill:rgb(0%,0%,0%);fill-opacity:1;" d="M 59.976562 65.746094 C 59.285156 65.746094 58.726562 65.1875 58.726562 64.496094 L 58.726562 59.578125 C 58.726562 58.886719 59.285156 58.328125 59.976562 58.328125 C 60.667969 58.328125 61.226562 58.886719 61.226562 59.578125 L 61.226562 64.496094 C 61.226562 65.1875 60.667969 65.746094 59.976562 65.746094 Z M 59.976562 65.746094 "/>
<path style=" stroke:none;fill-rule:nonzero;fill:rgb(0%,0%,0%);fill-opacity:1;" d="M 69.972656 65.746094 C 69.28125 65.746094 68.722656 65.1875 68.722656 64.496094 L 68.722656 59.578125 C 68.722656 58.886719 69.28125 58.328125 69.972656 58.328125 C 70.664062 58.328125 71.222656 58.886719 71.222656 59.578125 L 71.222656 64.496094 C 71.222656 65.1875 70.664062 65.746094 69.972656 65.746094 Z M 69.972656 65.746094 "/>
<path style=" stroke:none;fill-rule:nonzero;fill:rgb(0%,0%,0%);fill-opacity:1;" d="M 64.976562 61.996094 C 58.085938 61.996094 52.480469 56.390625 52.480469 49.503906 C 52.480469 48.8125 53.039062 48.253906 53.730469 48.253906 C 54.421875 48.253906 54.980469 48.8125 54.980469 49.503906 C 54.980469 55.015625 59.464844 59.496094 64.976562 59.496094 C 70.488281 59.496094 74.972656 55.015625 74.972656 49.503906 C 74.972656 48.8125 75.53125 48.253906 76.222656 48.253906 C 76.910156 48.253906 77.472656 48.8125 77.472656 49.503906 C 77.472656 56.390625 71.867188 61.996094 64.976562 61.996094 Z M 64.976562 61.996094 "/>
<path style=" stroke:none;fill-rule:nonzero;fill:rgb(0%,0%,0%);fill-opacity:1;" d="M 53.730469 50.8125 C 53.039062 50.8125 52.480469 50.257812 52.480469 49.566406 L 52.480469 42 C 52.480469 41.3125 53.039062 40.75 53.730469 40.75 C 54.421875 40.75 54.980469 41.3125 54.980469 42 L 54.980469 49.566406 C 54.980469 50.257812 54.421875 50.8125 53.730469 50.8125 Z M 53.730469 50.8125 "/>
<path style=" stroke:none;fill-rule:nonzero;fill:rgb(0%,0%,0%);fill-opacity:1;" d="M 76.222656 50.753906 C 75.53125 50.753906 74.972656 50.195312 74.972656 49.503906 L 74.972656 42 C 74.972656 41.3125 75.53125 40.75 76.222656 40.75 C 76.910156 40.75 77.472656 41.3125 77.472656 42 L 77.472656 49.503906 C 77.472656 50.195312 76.910156 50.753906 76.222656 50.753906 Z M 76.222656 50.753906 "/>
<path style=" stroke:none;fill-rule:nonzero;fill:rgb(0%,0%,0%);fill-opacity:1;" d="M 76.222656 43.246094 C 75.53125 43.246094 74.972656 42.691406 74.972656 42 C 74.972656 39.933594 73.289062 38.253906 71.222656 38.253906 C 70.53125 38.253906 69.972656 37.691406 69.972656 37.003906 C 69.972656 36.3125 70.53125 35.753906 71.222656 35.753906 C 74.667969 35.753906 77.472656 38.554688 77.472656 42 C 77.472656 42.691406 76.910156 43.246094 76.222656 43.246094 Z M 76.222656 43.246094 "/>
<path style=" stroke:none;fill-rule:nonzero;fill:rgb(0%,0%,0%);fill-opacity:1;" d="M 71.222656 38.253906 C 70.53125 38.253906 69.972656 37.691406 69.972656 37.003906 L 69.972656 32.003906 C 69.972656 31.316406 70.53125 30.753906 71.222656 30.753906 C 71.914062 30.753906 72.472656 31.316406 72.472656 32.003906 L 72.472656 37.003906 C 72.472656 37.691406 71.914062 38.253906 71.222656 38.253906 Z M 71.222656 38.253906 "/>
<path style=" stroke:none;fill-rule:nonzero;fill:rgb(0%,0%,0%);fill-opacity:1;" d="M 71.222656 33.253906 L 63.726562 33.253906 C 63.035156 33.253906 62.476562 32.695312 62.476562 32.003906 C 62.476562 31.316406 63.035156 30.753906 63.726562 30.753906 L 71.222656 30.753906 C 71.914062 30.753906 72.472656 31.316406 72.472656 32.003906 C 72.472656 32.695312 71.914062 33.253906 71.222656 33.253906 Z M 71.222656 33.253906 "/>
<path style=" stroke:none;fill-rule:nonzero;fill:rgb(0%,0%,0%);fill-opacity:1;" d="M 53.730469 43.25 C 53.039062 43.25 52.480469 42.691406 52.480469 42 C 52.480469 35.800781 57.523438 30.753906 63.726562 30.753906 C 64.417969 30.753906 64.976562 31.316406 64.976562 32.003906 C 64.976562 32.695312 64.417969 33.253906 63.726562 33.253906 C 58.902344 33.253906 54.980469 37.179688 54.980469 42 C 54.980469 42.691406 54.421875 43.25 53.730469 43.25 Z M 53.730469 43.25 "/>
<path style=" stroke:none;fill-rule:nonzero;fill:rgb(0%,0%,0%);fill-opacity:1;" d="M 76.21875 47.03125 C 75.980469 47.03125 75.734375 46.960938 75.523438 46.820312 L 71.773438 44.289062 C 71.199219 43.898438 71.050781 43.125 71.433594 42.550781 C 71.824219 41.980469 72.597656 41.832031 73.171875 42.214844 L 76.921875 44.746094 C 77.492188 45.132812 77.640625 45.910156 77.257812 46.480469 C 77.015625 46.839844 76.621094 47.03125 76.21875 47.03125 Z M 76.21875 47.03125 "/>
<path style=" stroke:none;fill-rule:nonzero;fill:rgb(0%,0%,0%);fill-opacity:1;" d="M 65.601562 45.75 C 61.085938 45.75 57.246094 44.488281 57.085938 44.4375 C 56.429688 44.21875 56.074219 43.511719 56.292969 42.855469 C 56.511719 42.203125 57.214844 41.847656 57.871094 42.0625 C 57.90625 42.074219 61.503906 43.25 65.601562 43.25 C 69.574219 43.25 71.898438 42.140625 71.921875 42.128906 C 72.539062 41.828125 73.289062 42.082031 73.59375 42.699219 C 73.898438 43.316406 73.648438 44.0625 73.03125 44.367188 C 72.917969 44.425781 70.207031 45.75 65.601562 45.75 Z M 65.601562 45.75 "/>
<path style=" stroke:none;fill-rule:nonzero;fill:rgb(0%,0%,0%);fill-opacity:1;" d="M 53.730469 47.03125 C 53.328125 47.03125 52.933594 46.839844 52.695312 46.480469 C 52.308594 45.910156 52.457031 45.132812 53.03125 44.746094 L 56.78125 42.214844 C 57.351562 41.832031 58.128906 41.980469 58.515625 42.554688 C 58.902344 43.125 58.75 43.902344 58.179688 44.289062 L 54.429688 46.820312 C 54.214844 46.960938 53.96875 47.03125 53.730469 47.03125 Z M 53.730469 47.03125 "/>
<path style=" stroke:none;fill-rule:nonzero;fill:rgb(0%,0%,0%);fill-opacity:1;" d="M 62.476562 66.996094 C 62.289062 66.996094 62.097656 66.953125 61.917969 66.863281 L 59.417969 65.613281 C 58.800781 65.304688 58.550781 64.554688 58.859375 63.9375 C 59.171875 63.320312 59.917969 63.070312 60.535156 63.378906 L 63.035156 64.628906 C 63.652344 64.9375 63.902344 65.6875 63.59375 66.304688 C 63.375 66.742188 62.933594 66.996094 62.476562 66.996094 Z M 62.476562 66.996094 "/>
<path style=" stroke:none;fill-rule:nonzero;fill:rgb(0%,0%,0%);fill-opacity:1;" d="M 62.476562 66.996094 C 62.019531 66.996094 61.578125 66.742188 61.359375 66.304688 C 61.050781 65.6875 61.300781 64.933594 61.917969 64.628906 L 64.414062 63.378906 C 65.03125 63.070312 65.78125 63.316406 66.09375 63.9375 C 66.402344 64.554688 66.152344 65.304688 65.535156 65.613281 L 63.035156 66.863281 C 62.855469 66.953125 62.664062 66.996094 62.476562 66.996094 Z M 62.476562 66.996094 "/>
<path style=" stroke:none;fill-rule:nonzero;fill:rgb(0%,0%,0%);fill-opacity:1;" d="M 67.476562 66.996094 C 67.015625 66.996094 66.574219 66.742188 66.355469 66.304688 C 66.046875 65.6875 66.296875 64.933594 66.914062 64.628906 L 69.414062 63.378906 C 70.03125 63.070312 70.78125 63.316406 71.089844 63.9375 C 71.398438 64.554688 71.148438 65.304688 70.53125 65.613281 L 68.03125 66.863281 C 67.855469 66.953125 67.664062 66.996094 67.476562 66.996094 Z M 67.476562 66.996094 "/>
<path style=" stroke:none;fill-rule:nonzero;fill:rgb(0%,0%,0%);fill-opacity:1;" d="M 67.472656 66.996094 C 67.285156 66.996094 67.09375 66.953125 66.914062 66.863281 L 64.417969 65.613281 C 63.800781 65.304688 63.550781 64.554688 63.859375 63.9375 C 64.167969 63.320312 64.917969 63.070312 65.535156 63.378906 L 68.035156 64.628906 C 68.652344 64.9375 68.902344 65.6875 68.59375 66.304688 C 68.371094 66.742188 67.933594 66.996094 67.472656 66.996094 Z M 67.472656 66.996094 "/>
<path style=" stroke:none;fill-rule:nonzero;fill:rgb(0%,0%,0%);fill-opacity:1;" d="M 52.484375 78.246094 C 51.105469 78.246094 49.980469 77.121094 49.980469 75.742188 C 49.980469 75.050781 50.539062 74.492188 51.230469 74.492188 C 51.921875 74.492188 52.480469 75.050781 52.480469 75.742188 L 52.480469 75.746094 C 53.171875 75.746094 53.734375 76.304688 53.734375 76.996094 C 53.734375 77.6875 53.175781 78.246094 52.484375 78.246094 Z M 52.484375 78.246094 "/>
<path style=" stroke:none;fill-rule:nonzero;fill:rgb(0%,0%,0%);fill-opacity:1;" d="M 77.464844 78.246094 C 76.773438 78.246094 76.214844 77.6875 76.214844 76.996094 C 76.214844 76.304688 76.773438 75.746094 77.464844 75.746094 C 77.464844 75.054688 78.027344 74.496094 78.714844 74.496094 C 79.40625 74.496094 79.96875 75.050781 79.96875 75.742188 C 79.96875 77.121094 78.84375 78.246094 77.464844 78.246094 Z M 77.464844 78.246094 "/>
<path style=" stroke:none;fill-rule:nonzero;fill:rgb(0%,0%,0%);fill-opacity:1;" d="M 77.464844 78.246094 L 52.484375 78.246094 C 51.796875 78.246094 51.238281 77.6875 51.238281 76.996094 C 51.238281 76.304688 51.796875 75.746094 52.484375 75.746094 L 77.464844 75.746094 C 78.15625 75.746094 78.714844 76.304688 78.714844 76.996094 C 78.714844 77.6875 78.15625 78.246094 77.464844 78.246094 Z M 77.464844 78.246094 "/>
<path style=" stroke:none;fill-rule:nonzero;fill:rgb(0%,0%,0%);fill-opacity:1;" d="M 47.480469 53.253906 L 32.496094 53.253906 C 31.804688 53.253906 31.246094 52.695312 31.246094 52.003906 C 31.246094 51.3125 31.804688 50.753906 32.496094 50.753906 L 47.480469 50.753906 C 48.167969 50.753906 48.730469 51.3125 48.730469 52.003906 C 48.730469 52.695312 48.167969 53.253906 47.480469 53.253906 Z M 47.480469 53.253906 "/>
<path style=" stroke:none;fill-rule:nonzero;fill:rgb(0%,0%,0%);fill-opacity:1;" d="M 39.988281 70.746094 C 39.296875 70.746094 38.738281 70.1875 38.738281 69.496094 L 38.738281 49.507812 C 38.738281 48.816406 39.296875 48.257812 39.988281 48.257812 C 40.679688 48.257812 41.238281 48.816406 41.238281 49.507812 L 41.238281 69.496094 C 41.238281 70.1875 40.679688 70.746094 39.988281 70.746094 Z M 39.988281 70.746094 "/>
<path style=" stroke:none;fill-rule:nonzero;fill:rgb(0%,0%,0%);fill-opacity:1;" d="M 46.230469 70.746094 L 33.742188 70.746094 C 33.054688 70.746094 32.496094 70.1875 32.496094 69.496094 C 32.496094 68.804688 33.054688 68.25 33.742188 68.25 L 46.230469 68.25 C 46.921875 68.25 47.480469 68.804688 47.480469 69.496094 C 47.480469 70.1875 46.921875 70.746094 46.230469 70.746094 Z M 46.230469 70.746094 "/>
<path style=" stroke:none;fill-rule:nonzero;fill:rgb(0%,0%,0%);fill-opacity:1;" d="M 47.480469 64.5 C 45.414062 64.5 43.730469 62.816406 43.730469 60.75 C 43.730469 60.058594 44.289062 59.5 44.980469 59.5 C 45.671875 59.5 46.230469 60.058594 46.230469 60.75 C 46.230469 61.441406 46.789062 62 47.480469 62 C 48.167969 62 48.730469 61.441406 48.730469 60.75 C 48.730469 60.058594 49.289062 59.5 49.980469 59.5 C 50.671875 59.5 51.230469 60.058594 51.230469 60.75 C 51.230469 62.816406 49.546875 64.5 47.480469 64.5 Z M 47.480469 64.5 "/>
<path style=" stroke:none;fill-rule:nonzero;fill:rgb(0%,0%,0%);fill-opacity:1;" d="M 44.980469 60.75 C 44.851562 60.75 44.71875 60.726562 44.585938 60.683594 C 43.933594 60.46875 43.578125 59.761719 43.796875 59.101562 L 46.292969 51.609375 C 46.511719 50.957031 47.214844 50.601562 47.875 50.820312 C 48.527344 51.035156 48.882812 51.742188 48.664062 52.398438 L 46.167969 59.894531 C 45.992188 60.417969 45.503906 60.75 44.980469 60.75 Z M 44.980469 60.75 "/>
<path style=" stroke:none;fill-rule:nonzero;fill:rgb(0%,0%,0%);fill-opacity:1;" d="M 49.976562 60.75 C 49.453125 60.75 48.964844 60.417969 48.792969 59.894531 L 46.292969 52.398438 C 46.074219 51.746094 46.429688 51.035156 47.085938 50.820312 C 47.742188 50.601562 48.445312 50.953125 48.664062 51.609375 L 51.164062 59.101562 C 51.382812 59.757812 51.027344 60.46875 50.375 60.683594 C 50.242188 60.726562 50.109375 60.75 49.976562 60.75 Z M 49.976562 60.75 "/>
<path style=" stroke:none;fill-rule:nonzero;fill:rgb(0%,0%,0%);fill-opacity:1;" d="M 32.496094 64.5 C 30.429688 64.5 28.746094 62.816406 28.746094 60.75 C 28.746094 60.058594 29.304688 59.5 29.996094 59.5 C 30.6875 59.5 31.246094 60.058594 31.246094 60.75 C 31.246094 61.441406 31.804688 62 32.496094 62 C 33.183594 62 33.742188 61.441406 33.742188 60.75 C 33.742188 60.058594 34.304688 59.5 34.992188 59.5 C 35.683594 59.5 36.242188 60.058594 36.242188 60.75 C 36.242188 62.816406 34.5625 64.5 32.496094 64.5 Z M 32.496094 64.5 "/>
<path style=" stroke:none;fill-rule:nonzero;fill:rgb(0%,0%,0%);fill-opacity:1;" d="M 29.996094 60.75 C 29.867188 60.75 29.730469 60.726562 29.601562 60.683594 C 28.945312 60.46875 28.59375 59.761719 28.8125 59.101562 L 31.308594 51.609375 C 31.527344 50.957031 32.226562 50.601562 32.890625 50.820312 C 33.542969 51.035156 33.898438 51.742188 33.679688 52.398438 L 31.179688 59.894531 C 31.003906 60.417969 30.519531 60.75 29.996094 60.75 Z M 29.996094 60.75 "/>
<path style=" stroke:none;fill-rule:nonzero;fill:rgb(0%,0%,0%);fill-opacity:1;" d="M 34.992188 60.75 C 34.46875 60.75 33.980469 60.417969 33.808594 59.894531 L 31.308594 52.398438 C 31.089844 51.746094 31.445312 51.035156 32.097656 50.820312 C 32.757812 50.601562 33.460938 50.953125 33.679688 51.609375 L 36.175781 59.101562 C 36.394531 59.757812 36.042969 60.46875 35.386719 60.683594 C 35.253906 60.726562 35.121094 60.75 34.992188 60.75 Z M 34.992188 60.75 "/>
<path style=" stroke:none;fill-rule:nonzero;fill:rgb(0%,0%,0%);fill-opacity:1;" d="M 34.992188 60.75 L 29.996094 60.75 C 29.304688 60.75 28.746094 60.191406 28.746094 59.5 C 28.746094 58.808594 29.304688 58.25 29.996094 58.25 L 34.992188 58.25 C 35.683594 58.25 36.242188 58.808594 36.242188 59.5 C 36.242188 60.191406 35.683594 60.75 34.992188 60.75 Z M 34.992188 60.75 "/>
<path style=" stroke:none;fill-rule:nonzero;fill:rgb(0%,0%,0%);fill-opacity:1;" d="M 49.976562 60.75 L 44.980469 60.75 C 44.289062 60.75 43.730469 60.191406 43.730469 59.5 C 43.730469 58.808594 44.289062 58.25 44.980469 58.25 L 49.976562 58.25 C 50.667969 58.25 51.226562 58.808594 51.226562 59.5 C 51.226562 60.191406 50.667969 60.75 49.976562 60.75 Z M 49.976562 60.75 "/>
<path style=" stroke:none;fill-rule:nonzero;fill:rgb(0%,0%,0%);fill-opacity:1;" d="M 34.992188 62 C 34.304688 62 33.746094 61.441406 33.742188 60.753906 L 33.742188 59.503906 C 33.742188 58.8125 34.296875 58.25 34.988281 58.25 L 34.992188 58.25 C 35.679688 58.25 36.238281 58.808594 36.242188 59.496094 L 36.242188 60.75 C 36.246094 61.4375 35.6875 62 34.996094 62 C 34.996094 62 34.996094 62 34.992188 62 Z M 34.992188 62 "/>
<path style=" stroke:none;fill-rule:nonzero;fill:rgb(0%,0%,0%);fill-opacity:1;" d="M 49.980469 62 C 49.289062 62 48.734375 61.441406 48.730469 60.753906 L 48.730469 59.503906 C 48.726562 58.8125 49.285156 58.25 49.976562 58.25 C 50.667969 58.25 51.226562 58.808594 51.226562 59.496094 L 51.230469 60.75 C 51.230469 61.4375 50.675781 62 49.984375 62 C 49.980469 62 49.980469 62 49.980469 62 Z M 49.980469 62 "/>
<path style=" stroke:none;fill-rule:nonzero;fill:rgb(0%,0%,0%);fill-opacity:1;" d="M 29.992188 62 C 29.300781 62 28.742188 61.441406 28.742188 60.753906 L 28.738281 59.503906 C 28.738281 58.8125 29.296875 58.25 29.988281 58.25 C 30.679688 58.25 31.238281 58.808594 31.238281 59.496094 L 31.242188 60.75 C 31.242188 61.4375 30.683594 62 29.992188 62 Z M 29.992188 62 "/>
<path style=" stroke:none;fill-rule:nonzero;fill:rgb(0%,0%,0%);fill-opacity:1;" d="M 44.984375 62 C 44.292969 62 43.734375 61.441406 43.734375 60.75 L 43.734375 59.5 C 43.734375 58.808594 44.292969 58.25 44.984375 58.25 C 45.675781 58.25 46.234375 58.808594 46.234375 59.5 L 46.234375 60.75 C 46.234375 61.441406 45.675781 62 44.984375 62 Z M 44.984375 62 "/>
</g>
</svg>
