<?xml version="1.0" encoding="UTF-8"?>
<svg xmlns="http://www.w3.org/2000/svg" xmlns:xlink="http://www.w3.org/1999/xlink" width="80pt" height="80pt" viewBox="0 0 80 80" version="1.1">
<g id="surface1">
<path style=" stroke:none;fill-rule:nonzero;fill:rgb(0%,0%,0%);fill-opacity:1;" d="M 24.996094 69.992188 L 20 69.992188 C 19.308594 69.992188 18.75 69.433594 18.75 68.742188 L 18.75 51.25 C 18.75 50.558594 19.308594 50 20 50 L 24.996094 50 C 25.6875 50 26.246094 50.558594 26.246094 51.25 L 26.246094 68.742188 C 26.246094 69.433594 25.6875 69.992188 24.996094 69.992188 Z M 21.25 67.492188 L 23.75 67.492188 L 23.75 52.5 L 21.25 52.5 Z M 21.25 67.492188 "/>
<path style=" stroke:none;fill-rule:nonzero;fill:rgb(0%,0%,0%);fill-opacity:1;" d="M 24.996094 62.492188 L 20 62.492188 C 19.308594 62.492188 18.75 61.933594 18.75 61.242188 C 18.75 60.550781 19.308594 59.992188 20 59.992188 L 24.996094 59.992188 C 25.6875 59.992188 26.246094 60.550781 26.246094 61.242188 C 26.246094 61.933594 25.6875 62.492188 24.996094 62.492188 Z M 24.996094 62.492188 "/>
<path style=" stroke:none;fill-rule:nonzero;fill:rgb(0%,0%,0%);fill-opacity:1;" d="M 16.242188 69.992188 L 11.242188 69.992188 C 10.550781 69.992188 9.992188 69.433594 9.992188 68.742188 L 9.992188 51.25 C 9.992188 50.558594 10.550781 50 11.242188 50 L 16.242188 50 C 16.933594 50 17.488281 50.558594 17.488281 51.25 L 17.488281 68.742188 C 17.488281 69.433594 16.933594 69.992188 16.242188 69.992188 Z M 12.492188 67.492188 L 14.992188 67.492188 L 14.992188 52.5 L 12.492188 52.5 Z M 12.492188 67.492188 "/>
<path style=" stroke:none;fill-rule:nonzero;fill:rgb(0%,0%,0%);fill-opacity:1;" d="M 16.242188 62.492188 L 11.242188 62.492188 C 10.550781 62.492188 9.992188 61.933594 9.992188 61.242188 C 9.992188 60.550781 10.550781 59.992188 11.242188 59.992188 L 16.242188 59.992188 C 16.933594 59.992188 17.488281 60.550781 17.488281 61.242188 C 17.488281 61.933594 16.933594 62.492188 16.242188 62.492188 Z M 16.242188 62.492188 "/>
<path style=" stroke:none;fill-rule:nonzero;fill:rgb(0%,0%,0%);fill-opacity:1;" d="M 33.742188 69.992188 L 28.746094 69.992188 C 28.054688 69.992188 27.496094 69.433594 27.496094 68.742188 L 27.496094 51.25 C 27.496094 50.558594 28.054688 50 28.746094 50 L 33.742188 50 C 34.433594 50 34.992188 50.558594 34.992188 51.25 L 34.992188 68.742188 C 34.992188 69.433594 34.433594 69.992188 33.742188 69.992188 Z M 29.996094 67.492188 L 32.492188 67.492188 L 32.492188 52.5 L 29.996094 52.5 Z M 29.996094 67.492188 "/>
<path style=" stroke:none;fill-rule:nonzero;fill:rgb(0%,0%,0%);fill-opacity:1;" d="M 33.742188 62.492188 L 28.746094 62.492188 C 28.054688 62.492188 27.496094 61.933594 27.496094 61.242188 C 27.496094 60.550781 28.054688 59.992188 28.746094 59.992188 L 33.742188 59.992188 C 34.433594 59.992188 34.992188 60.550781 34.992188 61.242188 C 34.992188 61.933594 34.433594 62.492188 33.742188 62.492188 Z M 33.742188 62.492188 "/>
<path style=" stroke:none;fill-rule:nonzero;fill:rgb(0%,0%,0%);fill-opacity:1;" d="M 42.488281 69.992188 L 37.488281 69.992188 C 36.796875 69.992188 36.238281 69.433594 36.238281 68.742188 L 36.238281 51.25 C 36.238281 50.558594 36.796875 50 37.488281 50 L 42.488281 50 C 43.179688 50 43.738281 50.558594 43.738281 51.25 L 43.738281 68.742188 C 43.738281 69.433594 43.179688 69.992188 42.488281 69.992188 Z M 38.738281 67.492188 L 41.238281 67.492188 L 41.238281 52.5 L 38.738281 52.5 Z M 38.738281 67.492188 "/>
<path style=" stroke:none;fill-rule:nonzero;fill:rgb(0%,0%,0%);fill-opacity:1;" d="M 42.488281 62.492188 L 37.488281 62.492188 C 36.796875 62.492188 36.238281 61.933594 36.238281 61.242188 C 36.238281 60.550781 36.796875 59.992188 37.488281 59.992188 L 42.488281 59.992188 C 43.179688 59.992188 43.738281 60.550781 43.738281 61.242188 C 43.738281 61.933594 43.179688 62.492188 42.488281 62.492188 Z M 42.488281 62.492188 "/>
<path style=" stroke:none;fill-rule:nonzero;fill:rgb(0%,0%,0%);fill-opacity:1;" d="M 51.230469 69.992188 L 46.234375 69.992188 C 45.542969 69.992188 44.984375 69.433594 44.984375 68.742188 L 44.984375 51.25 C 44.984375 50.558594 45.542969 50 46.234375 50 L 51.230469 50 C 51.921875 50 52.480469 50.558594 52.480469 51.25 L 52.480469 68.742188 C 52.480469 69.433594 51.921875 69.992188 51.230469 69.992188 Z M 47.484375 67.492188 L 49.980469 67.492188 L 49.980469 52.5 L 47.484375 52.5 Z M 47.484375 67.492188 "/>
<path style=" stroke:none;fill-rule:nonzero;fill:rgb(0%,0%,0%);fill-opacity:1;" d="M 51.230469 62.492188 L 46.234375 62.492188 C 45.542969 62.492188 44.984375 61.933594 44.984375 61.242188 C 44.984375 60.550781 45.542969 59.992188 46.234375 59.992188 L 51.230469 59.992188 C 51.921875 59.992188 52.480469 60.550781 52.480469 61.242188 C 52.480469 61.933594 51.921875 62.492188 51.230469 62.492188 Z M 51.230469 62.492188 "/>
<path style=" stroke:none;fill-rule:nonzero;fill:rgb(0%,0%,0%);fill-opacity:1;" d="M 59.976562 69.992188 L 54.976562 69.992188 C 54.289062 69.992188 53.726562 69.433594 53.726562 68.742188 L 53.726562 51.25 C 53.726562 50.558594 54.289062 50 54.976562 50 L 59.976562 50 C 60.667969 50 61.226562 50.558594 61.226562 51.25 L 61.226562 68.742188 C 61.226562 69.433594 60.667969 69.992188 59.976562 69.992188 Z M 56.226562 67.492188 L 58.726562 67.492188 L 58.726562 52.5 L 56.226562 52.5 Z M 56.226562 67.492188 "/>
<path style=" stroke:none;fill-rule:nonzero;fill:rgb(0%,0%,0%);fill-opacity:1;" d="M 59.976562 62.492188 L 54.976562 62.492188 C 54.289062 62.492188 53.726562 61.933594 53.726562 61.242188 C 53.726562 60.550781 54.289062 59.992188 54.976562 59.992188 L 59.976562 59.992188 C 60.667969 59.992188 61.226562 60.550781 61.226562 61.242188 C 61.226562 61.933594 60.667969 62.492188 59.976562 62.492188 Z M 59.976562 62.492188 "/>
<path style=" stroke:none;fill-rule:nonzero;fill:rgb(0%,0%,0%);fill-opacity:1;" d="M 68.722656 69.992188 L 63.722656 69.992188 C 63.03125 69.992188 62.472656 69.433594 62.472656 68.742188 L 62.472656 51.25 C 62.472656 50.558594 63.03125 50 63.722656 50 L 68.722656 50 C 69.414062 50 69.96875 50.558594 69.96875 51.25 L 69.96875 68.742188 C 69.96875 69.433594 69.414062 69.992188 68.722656 69.992188 Z M 64.972656 67.492188 L 67.472656 67.492188 L 67.472656 52.5 L 64.972656 52.5 Z M 64.972656 67.492188 "/>
<path style=" stroke:none;fill-rule:nonzero;fill:rgb(0%,0%,0%);fill-opacity:1;" d="M 68.722656 62.492188 L 63.722656 62.492188 C 63.03125 62.492188 62.472656 61.933594 62.472656 61.242188 C 62.472656 60.550781 63.03125 59.992188 63.722656 59.992188 L 68.722656 59.992188 C 69.414062 59.992188 69.96875 60.550781 69.96875 61.242188 C 69.96875 61.933594 69.414062 62.492188 68.722656 62.492188 Z M 68.722656 62.492188 "/>
<path style=" stroke:none;fill-rule:nonzero;fill:rgb(0%,0%,0%);fill-opacity:1;" d="M 10.011719 77.484375 C 7.257812 77.484375 5.015625 75.242188 5.015625 72.488281 L 5.015625 35.007812 C 5.015625 32.25 7.257812 30.007812 10.011719 30.007812 C 10.703125 30.007812 11.261719 30.566406 11.261719 31.257812 C 11.261719 31.949219 10.703125 32.507812 10.011719 32.507812 C 8.632812 32.507812 7.511719 33.628906 7.511719 35.007812 L 7.511719 72.488281 C 7.511719 73.863281 8.632812 74.984375 10.011719 74.984375 C 10.703125 74.984375 11.261719 75.542969 11.261719 76.234375 C 11.261719 76.925781 10.703125 77.484375 10.011719 77.484375 Z M 10.011719 77.484375 "/>
<path style=" stroke:none;fill-rule:nonzero;fill:rgb(0%,0%,0%);fill-opacity:1;" d="M 69.992188 77.484375 C 69.300781 77.484375 68.742188 76.925781 68.742188 76.234375 C 68.742188 75.542969 69.300781 74.984375 69.992188 74.984375 C 71.371094 74.984375 72.492188 73.863281 72.492188 72.488281 L 72.492188 35.007812 C 72.492188 33.628906 71.371094 32.507812 69.992188 32.507812 C 69.300781 32.507812 68.742188 31.949219 68.742188 31.257812 C 68.742188 30.566406 69.300781 30.007812 69.992188 30.007812 C 72.75 30.007812 74.992188 32.25 74.992188 35.007812 L 74.992188 72.488281 C 74.992188 75.242188 72.75 77.484375 69.992188 77.484375 Z M 69.992188 77.484375 "/>
<path style=" stroke:none;fill-rule:nonzero;fill:rgb(0%,0%,0%);fill-opacity:1;" d="M 73.742188 52.5 L 6.261719 52.5 C 5.574219 52.5 5.015625 51.941406 5.015625 51.25 C 5.015625 50.558594 5.574219 50 6.261719 50 L 73.742188 50 C 74.433594 50 74.992188 50.558594 74.992188 51.25 C 74.992188 51.941406 74.433594 52.5 73.742188 52.5 Z M 73.742188 52.5 "/>
<path style=" stroke:none;fill-rule:nonzero;fill:rgb(0%,0%,0%);fill-opacity:1;" d="M 73.742188 47.5 L 6.261719 47.5 C 5.574219 47.5 5.015625 46.941406 5.015625 46.25 C 5.015625 45.558594 5.574219 45 6.261719 45 L 73.742188 45 C 74.433594 45 74.992188 45.558594 74.992188 46.25 C 74.992188 46.941406 74.433594 47.5 73.742188 47.5 Z M 73.742188 47.5 "/>
<path style=" stroke:none;fill-rule:nonzero;fill:rgb(0%,0%,0%);fill-opacity:1;" d="M 33.738281 73.742188 L 28.730469 73.742188 C 28.039062 73.742188 27.480469 73.183594 27.480469 72.492188 C 27.480469 71.804688 28.039062 71.242188 28.730469 71.242188 L 33.738281 71.242188 C 34.429688 71.242188 34.988281 71.804688 34.988281 72.492188 C 34.988281 73.183594 34.429688 73.742188 33.738281 73.742188 Z M 33.738281 73.742188 "/>
<path style=" stroke:none;fill-rule:nonzero;fill:rgb(0%,0%,0%);fill-opacity:1;" d="M 31.234375 80 C 29.164062 80 27.480469 78.316406 27.480469 76.246094 C 27.480469 75.554688 28.039062 74.996094 28.730469 74.996094 C 29.421875 74.996094 29.980469 75.554688 29.980469 76.246094 C 29.980469 76.9375 30.542969 77.5 31.234375 77.5 C 31.925781 77.5 32.488281 76.9375 32.488281 76.246094 C 32.488281 75.554688 33.046875 74.996094 33.738281 74.996094 C 34.429688 74.996094 34.988281 75.554688 34.988281 76.246094 C 34.988281 78.316406 33.304688 80 31.234375 80 Z M 31.234375 80 "/>
<path style=" stroke:none;fill-rule:nonzero;fill:rgb(0%,0%,0%);fill-opacity:1;" d="M 28.730469 77.496094 C 28.039062 77.496094 27.480469 76.9375 27.480469 76.246094 L 27.480469 72.492188 C 27.480469 71.804688 28.039062 71.242188 28.730469 71.242188 C 29.421875 71.242188 29.980469 71.804688 29.980469 72.492188 L 29.980469 76.246094 C 29.980469 76.9375 29.421875 77.496094 28.730469 77.496094 Z M 28.730469 77.496094 "/>
<path style=" stroke:none;fill-rule:nonzero;fill:rgb(0%,0%,0%);fill-opacity:1;" d="M 33.738281 77.496094 C 33.046875 77.496094 32.488281 76.9375 32.488281 76.246094 L 32.488281 72.492188 C 32.488281 71.804688 33.046875 71.242188 33.738281 71.242188 C 34.429688 71.242188 34.988281 71.804688 34.988281 72.492188 L 34.988281 76.246094 C 34.988281 76.9375 34.429688 77.496094 33.738281 77.496094 Z M 33.738281 77.496094 "/>
<path style=" stroke:none;fill-rule:nonzero;fill:rgb(0%,0%,0%);fill-opacity:1;" d="M 42.488281 73.742188 L 37.476562 73.742188 C 36.785156 73.742188 36.226562 73.183594 36.226562 72.492188 C 36.226562 71.804688 36.785156 71.242188 37.476562 71.242188 L 42.488281 71.242188 C 43.179688 71.242188 43.738281 71.804688 43.738281 72.492188 C 43.738281 73.183594 43.179688 73.742188 42.488281 73.742188 Z M 42.488281 73.742188 "/>
<path style=" stroke:none;fill-rule:nonzero;fill:rgb(0%,0%,0%);fill-opacity:1;" d="M 39.980469 80 C 37.914062 80 36.226562 78.316406 36.226562 76.246094 C 36.226562 75.554688 36.785156 74.996094 37.476562 74.996094 C 38.167969 74.996094 38.726562 75.554688 38.726562 76.246094 C 38.726562 76.9375 39.289062 77.5 39.980469 77.5 C 40.675781 77.5 41.238281 76.9375 41.238281 76.246094 C 41.238281 75.554688 41.796875 74.996094 42.488281 74.996094 C 43.179688 74.996094 43.738281 75.554688 43.738281 76.246094 C 43.738281 78.316406 42.054688 80 39.980469 80 Z M 39.980469 80 "/>
<path style=" stroke:none;fill-rule:nonzero;fill:rgb(0%,0%,0%);fill-opacity:1;" d="M 37.476562 77.496094 C 36.785156 77.496094 36.226562 76.9375 36.226562 76.246094 L 36.226562 72.492188 C 36.226562 71.804688 36.785156 71.242188 37.476562 71.242188 C 38.167969 71.242188 38.726562 71.804688 38.726562 72.492188 L 38.726562 76.246094 C 38.726562 76.9375 38.167969 77.496094 37.476562 77.496094 Z M 37.476562 77.496094 "/>
<path style=" stroke:none;fill-rule:nonzero;fill:rgb(0%,0%,0%);fill-opacity:1;" d="M 42.488281 77.496094 C 41.796875 77.496094 41.238281 76.9375 41.238281 76.246094 L 41.238281 72.492188 C 41.238281 71.804688 41.796875 71.242188 42.488281 71.242188 C 43.179688 71.242188 43.738281 71.804688 43.738281 72.492188 L 43.738281 76.246094 C 43.738281 76.9375 43.179688 77.496094 42.488281 77.496094 Z M 42.488281 77.496094 "/>
<path style=" stroke:none;fill-rule:nonzero;fill:rgb(0%,0%,0%);fill-opacity:1;" d="M 51.234375 73.742188 L 46.226562 73.742188 C 45.535156 73.742188 44.976562 73.183594 44.976562 72.492188 C 44.976562 71.804688 45.535156 71.242188 46.226562 71.242188 L 51.234375 71.242188 C 51.925781 71.242188 52.484375 71.804688 52.484375 72.492188 C 52.484375 73.183594 51.925781 73.742188 51.234375 73.742188 Z M 51.234375 73.742188 "/>
<path style=" stroke:none;fill-rule:nonzero;fill:rgb(0%,0%,0%);fill-opacity:1;" d="M 48.730469 80 C 46.660156 80 44.976562 78.316406 44.976562 76.246094 C 44.976562 75.554688 45.535156 74.996094 46.226562 74.996094 C 46.917969 74.996094 47.476562 75.554688 47.476562 76.246094 C 47.476562 76.9375 48.039062 77.5 48.730469 77.5 C 49.421875 77.5 49.984375 76.9375 49.984375 76.246094 C 49.984375 75.554688 50.542969 74.996094 51.234375 74.996094 C 51.925781 74.996094 52.484375 75.554688 52.484375 76.246094 C 52.484375 78.316406 50.800781 80 48.730469 80 Z M 48.730469 80 "/>
<path style=" stroke:none;fill-rule:nonzero;fill:rgb(0%,0%,0%);fill-opacity:1;" d="M 46.226562 77.496094 C 45.535156 77.496094 44.976562 76.9375 44.976562 76.246094 L 44.976562 72.492188 C 44.976562 71.804688 45.535156 71.242188 46.226562 71.242188 C 46.917969 71.242188 47.476562 71.804688 47.476562 72.492188 L 47.476562 76.246094 C 47.476562 76.9375 46.917969 77.496094 46.226562 77.496094 Z M 46.226562 77.496094 "/>
<path style=" stroke:none;fill-rule:nonzero;fill:rgb(0%,0%,0%);fill-opacity:1;" d="M 51.234375 77.496094 C 50.542969 77.496094 49.984375 76.9375 49.984375 76.246094 L 49.984375 72.492188 C 49.984375 71.804688 50.542969 71.242188 51.234375 71.242188 C 51.925781 71.242188 52.484375 71.804688 52.484375 72.492188 L 52.484375 76.246094 C 52.484375 76.9375 51.925781 77.496094 51.234375 77.496094 Z M 51.234375 77.496094 "/>
<path style=" stroke:none;fill-rule:nonzero;fill:rgb(0%,0%,0%);fill-opacity:1;" d="M 28.730469 77.484375 L 10.011719 77.484375 C 9.320312 77.484375 8.761719 76.925781 8.761719 76.234375 C 8.761719 75.542969 9.320312 74.984375 10.011719 74.984375 L 28.730469 74.984375 C 29.421875 74.984375 29.980469 75.542969 29.980469 76.234375 C 29.980469 76.925781 29.421875 77.484375 28.730469 77.484375 Z M 28.730469 77.484375 "/>
<path style=" stroke:none;fill-rule:nonzero;fill:rgb(0%,0%,0%);fill-opacity:1;" d="M 69.992188 77.496094 L 51.234375 77.496094 C 50.542969 77.496094 49.984375 76.9375 49.984375 76.246094 C 49.984375 75.554688 50.542969 74.996094 51.234375 74.996094 L 69.992188 74.996094 C 70.683594 74.996094 71.242188 75.554688 71.242188 76.246094 C 71.242188 76.9375 70.683594 77.496094 69.992188 77.496094 Z M 69.992188 77.496094 "/>
<path style=" stroke:none;fill-rule:nonzero;fill:rgb(0%,0%,0%);fill-opacity:1;" d="M 46.226562 77.496094 L 42.488281 77.496094 C 41.796875 77.496094 41.238281 76.9375 41.238281 76.246094 C 41.238281 75.554688 41.796875 74.996094 42.488281 74.996094 L 46.226562 74.996094 C 46.917969 74.996094 47.476562 75.554688 47.476562 76.246094 C 47.476562 76.9375 46.917969 77.496094 46.226562 77.496094 Z M 46.226562 77.496094 "/>
<path style=" stroke:none;fill-rule:nonzero;fill:rgb(0%,0%,0%);fill-opacity:1;" d="M 37.476562 77.496094 L 33.738281 77.496094 C 33.046875 77.496094 32.488281 76.9375 32.488281 76.246094 C 32.488281 75.554688 33.046875 74.996094 33.738281 74.996094 L 37.476562 74.996094 C 38.167969 74.996094 38.726562 75.554688 38.726562 76.246094 C 38.726562 76.9375 38.167969 77.496094 37.476562 77.496094 Z M 37.476562 77.496094 "/>
<path style=" stroke:none;fill-rule:nonzero;fill:rgb(0%,0%,0%);fill-opacity:1;" d="M 26.253906 28.765625 L 21.257812 28.765625 C 20.566406 28.765625 20.007812 28.207031 20.007812 27.515625 C 20.007812 26.824219 20.566406 26.265625 21.257812 26.265625 L 26.253906 26.265625 C 26.945312 26.265625 27.503906 26.824219 27.503906 27.515625 C 27.503906 28.207031 26.945312 28.765625 26.253906 28.765625 Z M 26.253906 28.765625 "/>
<path style=" stroke:none;fill-rule:nonzero;fill:rgb(0%,0%,0%);fill-opacity:1;" d="M 21.261719 32.507812 L 10.011719 32.507812 C 9.320312 32.507812 8.761719 31.949219 8.761719 31.257812 C 8.761719 30.566406 9.320312 30.007812 10.011719 30.007812 L 21.261719 30.007812 C 21.953125 30.007812 22.511719 30.566406 22.511719 31.257812 C 22.511719 31.949219 21.953125 32.507812 21.261719 32.507812 Z M 21.261719 32.507812 "/>
<path style=" stroke:none;fill-rule:nonzero;fill:rgb(0%,0%,0%);fill-opacity:1;" d="M 69.992188 32.507812 L 58.714844 32.507812 C 58.023438 32.507812 57.46875 31.949219 57.46875 31.257812 C 57.46875 30.566406 58.023438 30.007812 58.714844 30.007812 L 69.992188 30.007812 C 70.683594 30.007812 71.242188 30.566406 71.242188 31.257812 C 71.242188 31.949219 70.683594 32.507812 69.992188 32.507812 Z M 69.992188 32.507812 "/>
<path style=" stroke:none;fill-rule:nonzero;fill:rgb(0%,0%,0%);fill-opacity:1;" d="M 21.257812 36.261719 C 20.566406 36.261719 20.007812 35.703125 20.007812 35.011719 L 20.007812 27.515625 C 20.007812 26.824219 20.566406 26.265625 21.257812 26.265625 C 21.949219 26.265625 22.507812 26.824219 22.507812 27.515625 L 22.507812 35.011719 C 22.507812 35.703125 21.949219 36.261719 21.257812 36.261719 Z M 21.257812 36.261719 "/>
<path style=" stroke:none;fill-rule:nonzero;fill:rgb(0%,0%,0%);fill-opacity:1;" d="M 58.746094 36.261719 C 58.054688 36.261719 57.496094 35.703125 57.496094 35.011719 L 57.496094 27.515625 C 57.496094 26.824219 58.054688 26.265625 58.746094 26.265625 C 59.4375 26.265625 59.996094 26.824219 59.996094 27.515625 L 59.996094 35.011719 C 59.996094 35.703125 59.4375 36.261719 58.746094 36.261719 Z M 58.746094 36.261719 "/>
<path style=" stroke:none;fill-rule:nonzero;fill:rgb(0%,0%,0%);fill-opacity:1;" d="M 26.253906 37.515625 C 25.5625 37.515625 25.003906 36.957031 25.003906 36.265625 L 25.003906 5.003906 C 25.003906 4.3125 25.5625 3.753906 26.253906 3.753906 C 26.945312 3.753906 27.503906 4.3125 27.503906 5.003906 L 27.503906 36.265625 C 27.503906 36.957031 26.945312 37.515625 26.253906 37.515625 Z M 26.253906 37.515625 "/>
<path style=" stroke:none;fill-rule:nonzero;fill:rgb(0%,0%,0%);fill-opacity:1;" d="M 53.75 37.515625 C 53.058594 37.515625 52.5 36.957031 52.5 36.265625 L 52.5 5.003906 C 52.5 4.3125 53.058594 3.753906 53.75 3.753906 C 54.441406 3.753906 55 4.3125 55 5.003906 L 55 36.265625 C 55 36.957031 54.441406 37.515625 53.75 37.515625 Z M 53.75 37.515625 "/>
<path style=" stroke:none;fill-rule:nonzero;fill:rgb(0%,0%,0%);fill-opacity:1;" d="M 58.746094 28.765625 L 53.75 28.765625 C 53.058594 28.765625 52.5 28.207031 52.5 27.515625 C 52.5 26.824219 53.058594 26.265625 53.75 26.265625 L 58.746094 26.265625 C 59.4375 26.265625 59.996094 26.824219 59.996094 27.515625 C 59.996094 28.207031 59.4375 28.765625 58.746094 28.765625 Z M 58.746094 28.765625 "/>
<path style=" stroke:none;fill-rule:nonzero;fill:rgb(0%,0%,0%);fill-opacity:1;" d="M 26.253906 36.261719 L 21.257812 36.261719 C 20.566406 36.261719 20.007812 35.703125 20.007812 35.011719 C 20.007812 34.320312 20.566406 33.765625 21.257812 33.765625 L 26.253906 33.765625 C 26.945312 33.765625 27.503906 34.320312 27.503906 35.011719 C 27.503906 35.703125 26.945312 36.261719 26.253906 36.261719 Z M 26.253906 36.261719 "/>
<path style=" stroke:none;fill-rule:nonzero;fill:rgb(0%,0%,0%);fill-opacity:1;" d="M 58.746094 36.261719 L 53.75 36.261719 C 53.058594 36.261719 52.5 35.703125 52.5 35.011719 C 52.5 34.320312 53.058594 33.765625 53.75 33.765625 L 58.746094 33.765625 C 59.4375 33.765625 59.996094 34.320312 59.996094 35.011719 C 59.996094 35.703125 59.4375 36.261719 58.746094 36.261719 Z M 58.746094 36.261719 "/>
<path style=" stroke:none;fill-rule:nonzero;fill:rgb(0%,0%,0%);fill-opacity:1;" d="M 53.75 37.515625 L 26.253906 37.515625 C 25.5625 37.515625 25.003906 36.957031 25.003906 36.265625 C 25.003906 35.574219 25.5625 35.015625 26.253906 35.015625 L 53.75 35.015625 C 54.441406 35.015625 55 35.574219 55 36.265625 C 55 36.957031 54.441406 37.515625 53.75 37.515625 Z M 53.75 37.515625 "/>
<path style=" stroke:none;fill-rule:nonzero;fill:rgb(0%,0%,0%);fill-opacity:1;" d="M 39.996094 30.007812 L 32.503906 30.007812 C 31.8125 30.007812 31.253906 29.449219 31.253906 28.761719 C 31.253906 28.070312 31.8125 27.511719 32.503906 27.511719 L 39.996094 27.511719 C 40.6875 27.511719 41.246094 28.070312 41.246094 28.761719 C 41.246094 29.449219 40.6875 30.007812 39.996094 30.007812 Z M 39.996094 30.007812 "/>
<path style=" stroke:none;fill-rule:nonzero;fill:rgb(0%,0%,0%);fill-opacity:1;" d="M 47.5 25.003906 L 32.503906 25.003906 C 31.8125 25.003906 31.253906 24.445312 31.253906 23.753906 C 31.253906 23.066406 31.8125 22.503906 32.503906 22.503906 L 47.5 22.503906 C 48.191406 22.503906 48.75 23.066406 48.75 23.753906 C 48.75 24.445312 48.191406 25.003906 47.5 25.003906 Z M 47.5 25.003906 "/>
<path style=" stroke:none;fill-rule:nonzero;fill:rgb(0%,0%,0%);fill-opacity:1;" d="M 47.5 20.007812 L 32.503906 20.007812 C 31.8125 20.007812 31.253906 19.449219 31.253906 18.757812 C 31.253906 18.066406 31.8125 17.507812 32.503906 17.507812 L 47.5 17.507812 C 48.191406 17.507812 48.75 18.066406 48.75 18.757812 C 48.75 19.449219 48.191406 20.007812 47.5 20.007812 Z M 47.5 20.007812 "/>
<path style=" stroke:none;fill-rule:nonzero;fill:rgb(0%,0%,0%);fill-opacity:1;" d="M 47.5 15.007812 L 32.503906 15.007812 C 31.8125 15.007812 31.253906 14.449219 31.253906 13.757812 C 31.253906 13.066406 31.8125 12.507812 32.503906 12.507812 L 47.5 12.507812 C 48.191406 12.507812 48.75 13.066406 48.75 13.757812 C 48.75 14.449219 48.191406 15.007812 47.5 15.007812 Z M 47.5 15.007812 "/>
<path style=" stroke:none;fill-rule:nonzero;fill:rgb(0%,0%,0%);fill-opacity:1;" d="M 47.5 10.007812 L 32.503906 10.007812 C 31.8125 10.007812 31.253906 9.449219 31.253906 8.757812 C 31.253906 8.066406 31.8125 7.507812 32.503906 7.507812 L 47.5 7.507812 C 48.191406 7.507812 48.75 8.066406 48.75 8.757812 C 48.75 9.449219 48.191406 10.007812 47.5 10.007812 Z M 47.5 10.007812 "/>
<path style=" stroke:none;fill-rule:nonzero;fill:rgb(0%,0%,0%);fill-opacity:1;" d="M 61.25 6.25 C 60.558594 6.25 60 5.691406 60 5 C 60 3.621094 58.878906 2.5 57.5 2.5 C 56.121094 2.5 55 3.621094 55 5 C 55 5.691406 54.441406 6.25 53.75 6.25 C 53.058594 6.25 52.5 5.691406 52.5 5 C 52.5 2.242188 54.742188 0 57.5 0 C 60.257812 0 62.5 2.242188 62.5 5 C 62.5 5.691406 61.941406 6.25 61.25 6.25 Z M 61.25 6.25 "/>
<path style=" stroke:none;fill-rule:nonzero;fill:rgb(0%,0%,0%);fill-opacity:1;" d="M 65.003906 20.027344 C 62.246094 20.027344 60.003906 17.785156 60.003906 15.027344 C 60.003906 14.335938 60.5625 13.777344 61.253906 13.777344 C 61.945312 13.777344 62.503906 14.335938 62.503906 15.027344 C 62.503906 16.40625 63.625 17.527344 65.003906 17.527344 C 66.382812 17.527344 67.503906 16.40625 67.503906 15.027344 C 67.503906 14.335938 68.0625 13.777344 68.753906 13.777344 C 69.445312 13.777344 70.003906 14.335938 70.003906 15.027344 C 70.003906 17.785156 67.761719 20.027344 65.003906 20.027344 Z M 65.003906 20.027344 "/>
<path style=" stroke:none;fill-rule:nonzero;fill:rgb(0%,0%,0%);fill-opacity:1;" d="M 26.253906 6.25 C 25.5625 6.25 25.003906 5.691406 25.003906 5 C 25.003906 2.242188 27.246094 0 30.003906 0 C 30.695312 0 31.253906 0.558594 31.253906 1.25 C 31.253906 1.941406 30.695312 2.5 30.003906 2.5 C 28.625 2.5 27.503906 3.621094 27.503906 5 C 27.503906 5.691406 26.945312 6.25 26.253906 6.25 Z M 26.253906 6.25 "/>
<path style=" stroke:none;fill-rule:nonzero;fill:rgb(0%,0%,0%);fill-opacity:1;" d="M 57.5 2.5 L 30.003906 2.5 C 29.3125 2.5 28.753906 1.941406 28.753906 1.25 C 28.753906 0.558594 29.3125 0 30.003906 0 L 57.5 0 C 58.191406 0 58.75 0.558594 58.75 1.25 C 58.75 1.941406 58.191406 2.5 57.5 2.5 Z M 57.5 2.5 "/>
<path style=" stroke:none;fill-rule:nonzero;fill:rgb(0%,0%,0%);fill-opacity:1;" d="M 61.253906 16.277344 C 60.566406 16.277344 60.003906 15.71875 60.003906 15.027344 L 60 5.003906 C 60 4.3125 60.558594 3.75 61.246094 3.75 L 61.25 3.75 C 61.9375 3.75 62.5 4.3125 62.5 5 L 62.503906 15.023438 C 62.503906 15.714844 61.945312 16.277344 61.253906 16.277344 Z M 61.253906 16.277344 "/>
<path style=" stroke:none;fill-rule:nonzero;fill:rgb(0%,0%,0%);fill-opacity:1;" d="M 65.003906 20.027344 L 53.75 20.027344 C 53.058594 20.027344 52.5 19.46875 52.5 18.777344 C 52.5 18.085938 53.058594 17.527344 53.75 17.527344 L 65.003906 17.527344 C 65.695312 17.527344 66.253906 18.085938 66.253906 18.777344 C 66.253906 19.46875 65.695312 20.027344 65.003906 20.027344 Z M 65.003906 20.027344 "/>
<path style=" stroke:none;fill-rule:nonzero;fill:rgb(0%,0%,0%);fill-opacity:1;" d="M 68.753906 16.277344 C 68.0625 16.277344 67.503906 15.71875 67.503906 15.027344 L 67.503906 11.265625 C 67.503906 10.574219 68.0625 10.015625 68.753906 10.015625 C 69.445312 10.015625 70.003906 10.574219 70.003906 11.265625 L 70.003906 15.027344 C 70.003906 15.71875 69.445312 16.277344 68.753906 16.277344 Z M 68.753906 16.277344 "/>
<path style=" stroke:none;fill-rule:nonzero;fill:rgb(0%,0%,0%);fill-opacity:1;" d="M 68.753906 12.515625 L 61.253906 12.515625 C 60.5625 12.515625 60.003906 11.957031 60.003906 11.265625 C 60.003906 10.574219 60.5625 10.015625 61.253906 10.015625 L 68.753906 10.015625 C 69.445312 10.015625 70.003906 10.574219 70.003906 11.265625 C 70.003906 11.957031 69.445312 12.515625 68.753906 12.515625 Z M 68.753906 12.515625 "/>
<path style=" stroke:none;fill-rule:nonzero;fill:rgb(0%,0%,0%);fill-opacity:1;" d="M 58.714844 42.507812 L 21.257812 42.507812 C 20.566406 42.507812 20.007812 41.949219 20.007812 41.257812 C 20.007812 40.566406 20.566406 40.007812 21.257812 40.007812 L 58.714844 40.007812 C 59.40625 40.007812 59.964844 40.566406 59.964844 41.257812 C 59.964844 41.949219 59.40625 42.507812 58.714844 42.507812 Z M 58.714844 42.507812 "/>
</g>
</svg>
