<?xml version="1.0" encoding="UTF-8"?>
<svg xmlns="http://www.w3.org/2000/svg" xmlns:xlink="http://www.w3.org/1999/xlink" width="80pt" height="80pt" viewBox="0 0 80 80" version="1.1">
<g id="surface1">
<path style=" stroke:none;fill-rule:nonzero;fill:rgb(0%,0%,0%);fill-opacity:1;" d="M 61.890625 29.382812 C 60.101562 29.382812 58.359375 28.886719 56.855469 27.945312 C 56.269531 27.578125 56.09375 26.808594 56.460938 26.222656 C 56.824219 25.636719 57.597656 25.457031 58.183594 25.824219 C 60.394531 27.207031 63.382812 27.207031 65.605469 25.824219 C 66.191406 25.457031 66.964844 25.636719 67.328125 26.21875 C 67.695312 26.804688 67.515625 27.578125 66.929688 27.941406 C 65.421875 28.886719 63.679688 29.382812 61.890625 29.382812 Z M 61.890625 29.382812 "/>
<path style=" stroke:none;fill-rule:nonzero;fill:rgb(0%,0%,0%);fill-opacity:1;" d="M 70.644531 29.382812 C 68.855469 29.382812 67.113281 28.886719 65.605469 27.945312 C 65.023438 27.578125 64.84375 26.808594 65.210938 26.222656 C 65.578125 25.636719 66.347656 25.457031 66.933594 25.824219 C 69.148438 27.207031 72.136719 27.207031 74.359375 25.824219 C 74.945312 25.457031 75.714844 25.636719 76.082031 26.21875 C 76.445312 26.804688 76.269531 27.578125 75.683594 27.941406 C 74.171875 28.886719 72.429688 29.382812 70.644531 29.382812 Z M 70.644531 29.382812 "/>
<path style=" stroke:none;fill-rule:nonzero;fill:rgb(0%,0%,0%);fill-opacity:1;" d="M 53.140625 29.382812 C 51.351562 29.382812 49.609375 28.886719 48.105469 27.945312 C 47.519531 27.578125 47.34375 26.808594 47.710938 26.222656 C 48.074219 25.636719 48.84375 25.457031 49.433594 25.824219 C 51.644531 27.207031 54.632812 27.207031 56.855469 25.824219 C 57.441406 25.457031 58.210938 25.636719 58.578125 26.21875 C 58.945312 26.804688 58.765625 27.578125 58.179688 27.941406 C 56.671875 28.886719 54.929688 29.382812 53.140625 29.382812 Z M 53.140625 29.382812 "/>
<path style=" stroke:none;fill-rule:nonzero;fill:rgb(0%,0%,0%);fill-opacity:1;" d="M 44.390625 29.382812 C 42.601562 29.382812 40.859375 28.886719 39.355469 27.945312 C 38.769531 27.578125 38.59375 26.808594 38.960938 26.222656 C 39.324219 25.636719 40.09375 25.457031 40.683594 25.824219 C 42.894531 27.207031 45.882812 27.207031 48.105469 25.824219 C 48.691406 25.457031 49.464844 25.636719 49.828125 26.21875 C 50.195312 26.804688 50.015625 27.578125 49.429688 27.941406 C 47.921875 28.886719 46.179688 29.382812 44.390625 29.382812 Z M 44.390625 29.382812 "/>
<path style=" stroke:none;fill-rule:nonzero;fill:rgb(0%,0%,0%);fill-opacity:1;" d="M 35.640625 29.382812 C 33.851562 29.382812 32.109375 28.886719 30.605469 27.945312 C 30.019531 27.578125 29.84375 26.808594 30.210938 26.222656 C 30.574219 25.636719 31.34375 25.457031 31.933594 25.824219 C 34.144531 27.207031 37.132812 27.207031 39.355469 25.824219 C 39.941406 25.457031 40.714844 25.636719 41.078125 26.21875 C 41.445312 26.804688 41.265625 27.578125 40.679688 27.941406 C 39.171875 28.886719 37.429688 29.382812 35.640625 29.382812 Z M 35.640625 29.382812 "/>
<path style=" stroke:none;fill-rule:nonzero;fill:rgb(0%,0%,0%);fill-opacity:1;" d="M 26.890625 29.382812 C 25.101562 29.382812 23.359375 28.886719 21.855469 27.945312 C 21.269531 27.578125 21.09375 26.808594 21.460938 26.222656 C 21.824219 25.636719 22.59375 25.457031 23.183594 25.824219 C 25.394531 27.207031 28.382812 27.207031 30.605469 25.824219 C 31.191406 25.457031 31.964844 25.636719 32.328125 26.21875 C 32.695312 26.804688 32.515625 27.578125 31.929688 27.941406 C 30.421875 28.886719 28.679688 29.382812 26.890625 29.382812 Z M 26.890625 29.382812 "/>
<path style=" stroke:none;fill-rule:nonzero;fill:rgb(0%,0%,0%);fill-opacity:1;" d="M 18.140625 29.382812 C 16.351562 29.382812 14.609375 28.886719 13.105469 27.945312 C 12.519531 27.578125 12.34375 26.808594 12.710938 26.222656 C 13.074219 25.636719 13.847656 25.457031 14.433594 25.824219 C 16.644531 27.207031 19.632812 27.207031 21.855469 25.824219 C 22.441406 25.457031 23.210938 25.636719 23.578125 26.21875 C 23.945312 26.804688 23.765625 27.578125 23.179688 27.941406 C 21.671875 28.886719 19.929688 29.382812 18.140625 29.382812 Z M 18.140625 29.382812 "/>
<path style=" stroke:none;fill-rule:nonzero;fill:rgb(0%,0%,0%);fill-opacity:1;" d="M 9.390625 29.382812 C 7.601562 29.382812 5.859375 28.886719 4.355469 27.945312 C 3.769531 27.578125 3.59375 26.808594 3.960938 26.222656 C 4.324219 25.636719 5.097656 25.457031 5.683594 25.824219 C 7.894531 27.207031 10.882812 27.207031 13.105469 25.824219 C 13.691406 25.457031 14.460938 25.636719 14.828125 26.21875 C 15.195312 26.804688 15.015625 27.578125 14.429688 27.941406 C 12.921875 28.886719 11.179688 29.382812 9.390625 29.382812 Z M 9.390625 29.382812 "/>
<path style=" stroke:none;fill-rule:nonzero;fill:rgb(0%,0%,0%);fill-opacity:1;" d="M 66.269531 71.882812 C 66.042969 71.882812 65.8125 71.824219 65.605469 71.695312 C 63.382812 70.308594 60.394531 70.3125 58.183594 71.691406 C 57.597656 72.058594 56.824219 71.882812 56.460938 71.296875 C 56.09375 70.710938 56.273438 69.9375 56.855469 69.574219 C 59.867188 67.691406 63.914062 67.691406 66.929688 69.574219 C 67.519531 69.941406 67.695312 70.710938 67.328125 71.296875 C 67.089844 71.675781 66.683594 71.886719 66.269531 71.886719 Z M 66.269531 71.882812 "/>
<path style=" stroke:none;fill-rule:nonzero;fill:rgb(0%,0%,0%);fill-opacity:1;" d="M 75.019531 71.882812 C 74.792969 71.882812 74.5625 71.824219 74.359375 71.695312 C 72.136719 70.308594 69.148438 70.3125 66.933594 71.691406 C 66.347656 72.058594 65.578125 71.882812 65.210938 71.296875 C 64.84375 70.710938 65.023438 69.9375 65.605469 69.574219 C 68.617188 67.691406 72.664062 67.691406 75.683594 69.574219 C 76.269531 69.941406 76.445312 70.710938 76.082031 71.296875 C 75.84375 71.675781 75.4375 71.886719 75.019531 71.886719 Z M 75.019531 71.882812 "/>
<path style=" stroke:none;fill-rule:nonzero;fill:rgb(0%,0%,0%);fill-opacity:1;" d="M 57.519531 71.882812 C 57.292969 71.882812 57.0625 71.824219 56.855469 71.695312 C 54.632812 70.308594 51.644531 70.3125 49.433594 71.691406 C 48.84375 72.058594 48.074219 71.882812 47.710938 71.296875 C 47.34375 70.710938 47.523438 69.9375 48.105469 69.574219 C 51.117188 67.691406 55.164062 67.691406 58.179688 69.574219 C 58.769531 69.941406 58.945312 70.710938 58.578125 71.296875 C 58.339844 71.675781 57.933594 71.886719 57.519531 71.886719 Z M 57.519531 71.882812 "/>
<path style=" stroke:none;fill-rule:nonzero;fill:rgb(0%,0%,0%);fill-opacity:1;" d="M 48.769531 71.882812 C 48.542969 71.882812 48.3125 71.824219 48.105469 71.695312 C 45.882812 70.308594 42.894531 70.3125 40.683594 71.691406 C 40.09375 72.058594 39.324219 71.882812 38.960938 71.296875 C 38.59375 70.710938 38.773438 69.9375 39.355469 69.574219 C 42.367188 67.691406 46.414062 67.691406 49.429688 69.574219 C 50.019531 69.941406 50.195312 70.710938 49.828125 71.296875 C 49.589844 71.675781 49.183594 71.886719 48.769531 71.886719 Z M 48.769531 71.882812 "/>
<path style=" stroke:none;fill-rule:nonzero;fill:rgb(0%,0%,0%);fill-opacity:1;" d="M 40.019531 71.882812 C 39.792969 71.882812 39.5625 71.824219 39.355469 71.695312 C 37.132812 70.308594 34.144531 70.3125 31.933594 71.691406 C 31.34375 72.058594 30.574219 71.882812 30.210938 71.296875 C 29.84375 70.710938 30.023438 69.9375 30.605469 69.574219 C 33.617188 67.691406 37.664062 67.691406 40.679688 69.574219 C 41.269531 69.941406 41.445312 70.710938 41.078125 71.296875 C 40.839844 71.675781 40.433594 71.886719 40.019531 71.886719 Z M 40.019531 71.882812 "/>
<path style=" stroke:none;fill-rule:nonzero;fill:rgb(0%,0%,0%);fill-opacity:1;" d="M 31.269531 71.882812 C 31.042969 71.882812 30.8125 71.824219 30.605469 71.695312 C 28.382812 70.308594 25.394531 70.3125 23.183594 71.691406 C 22.59375 72.058594 21.824219 71.882812 21.460938 71.296875 C 21.09375 70.710938 21.273438 69.9375 21.855469 69.574219 C 24.867188 67.691406 28.914062 67.691406 31.929688 69.574219 C 32.519531 69.941406 32.695312 70.710938 32.328125 71.296875 C 32.089844 71.675781 31.683594 71.886719 31.269531 71.886719 Z M 31.269531 71.882812 "/>
<path style=" stroke:none;fill-rule:nonzero;fill:rgb(0%,0%,0%);fill-opacity:1;" d="M 22.519531 71.882812 C 22.292969 71.882812 22.0625 71.824219 21.855469 71.695312 C 19.632812 70.308594 16.644531 70.3125 14.433594 71.691406 C 13.847656 72.058594 13.074219 71.882812 12.710938 71.296875 C 12.34375 70.710938 12.523438 69.9375 13.105469 69.574219 C 16.117188 67.691406 20.164062 67.691406 23.179688 69.574219 C 23.769531 69.941406 23.945312 70.710938 23.578125 71.296875 C 23.339844 71.675781 22.933594 71.886719 22.519531 71.886719 Z M 22.519531 71.882812 "/>
<path style=" stroke:none;fill-rule:nonzero;fill:rgb(0%,0%,0%);fill-opacity:1;" d="M 13.769531 71.882812 C 13.542969 71.882812 13.3125 71.824219 13.105469 71.695312 C 10.882812 70.308594 7.894531 70.3125 5.683594 71.691406 C 5.097656 72.058594 4.324219 71.882812 3.960938 71.296875 C 3.59375 70.710938 3.773438 69.9375 4.355469 69.574219 C 7.367188 67.691406 11.414062 67.691406 14.429688 69.574219 C 15.019531 69.941406 15.195312 70.710938 14.828125 71.296875 C 14.589844 71.675781 14.183594 71.886719 13.769531 71.886719 Z M 13.769531 71.882812 "/>
<path style=" stroke:none;fill-rule:nonzero;fill:rgb(0%,0%,0%);fill-opacity:1;" d="M 4.996094 36.878906 C 4.769531 36.878906 4.539062 36.820312 4.335938 36.691406 C 3.75 36.324219 3.570312 35.554688 3.9375 34.96875 C 4.632812 33.855469 4.996094 32.570312 4.996094 31.253906 C 4.996094 29.933594 4.632812 28.648438 3.9375 27.542969 C 3.574219 26.957031 3.753906 26.1875 4.335938 25.820312 C 4.921875 25.453125 5.691406 25.632812 6.058594 26.21875 C 7 27.722656 7.496094 29.464844 7.496094 31.253906 C 7.496094 33.042969 7 34.785156 6.058594 36.292969 C 5.820312 36.671875 5.414062 36.878906 4.996094 36.878906 Z M 4.996094 36.878906 "/>
<path style=" stroke:none;fill-rule:nonzero;fill:rgb(0%,0%,0%);fill-opacity:1;" d="M 4.996094 45.632812 C 4.769531 45.632812 4.539062 45.570312 4.335938 45.445312 C 3.75 45.078125 3.570312 44.304688 3.9375 43.722656 C 4.632812 42.609375 4.996094 41.324219 4.996094 40.003906 C 4.996094 38.683594 4.632812 37.402344 3.941406 36.296875 C 3.574219 35.710938 3.753906 34.9375 4.335938 34.574219 C 4.921875 34.203125 5.695312 34.382812 6.058594 34.96875 C 7 36.472656 7.496094 38.214844 7.496094 40.003906 C 7.496094 41.792969 7 43.535156 6.058594 45.042969 C 5.820312 45.421875 5.414062 45.632812 4.996094 45.632812 Z M 4.996094 45.632812 "/>
<path style=" stroke:none;fill-rule:nonzero;fill:rgb(0%,0%,0%);fill-opacity:1;" d="M 4.996094 54.386719 C 4.769531 54.386719 4.539062 54.324219 4.335938 54.199219 C 3.75 53.832031 3.570312 53.058594 3.9375 52.476562 C 4.632812 51.363281 4.996094 50.078125 4.996094 48.757812 C 4.996094 47.4375 4.632812 46.15625 3.9375 45.046875 C 3.574219 44.460938 3.753906 43.691406 4.335938 43.324219 C 4.921875 42.960938 5.691406 43.140625 6.058594 43.722656 C 7 45.230469 7.496094 46.96875 7.496094 48.757812 C 7.496094 50.546875 7 52.289062 6.058594 53.796875 C 5.820312 54.179688 5.414062 54.386719 4.996094 54.386719 Z M 4.996094 54.386719 "/>
<path style=" stroke:none;fill-rule:nonzero;fill:rgb(0%,0%,0%);fill-opacity:1;" d="M 4.996094 63.140625 C 4.769531 63.140625 4.539062 63.078125 4.335938 62.949219 C 3.75 62.582031 3.570312 61.8125 3.9375 61.230469 C 4.632812 60.117188 4.996094 58.832031 4.996094 57.511719 C 4.996094 56.191406 4.632812 54.910156 3.941406 53.800781 C 3.574219 53.21875 3.753906 52.445312 4.335938 52.078125 C 4.921875 51.710938 5.695312 51.894531 6.058594 52.476562 C 7 53.980469 7.496094 55.722656 7.496094 57.511719 C 7.496094 59.300781 7 61.042969 6.058594 62.550781 C 5.820312 62.929688 5.414062 63.140625 4.996094 63.140625 Z M 4.996094 63.140625 "/>
<path style=" stroke:none;fill-rule:nonzero;fill:rgb(0%,0%,0%);fill-opacity:1;" d="M 4.996094 71.890625 C 4.769531 71.890625 4.542969 71.828125 4.335938 71.699219 C 3.75 71.335938 3.574219 70.5625 3.9375 69.980469 C 4.632812 68.867188 5 67.582031 5 66.261719 C 5 64.945312 4.632812 63.660156 3.941406 62.550781 C 3.574219 61.964844 3.753906 61.195312 4.339844 60.828125 C 4.925781 60.464844 5.695312 60.644531 6.0625 61.226562 C 7.003906 62.734375 7.5 64.476562 7.5 66.261719 C 7.5 68.050781 7 69.792969 6.058594 71.300781 C 5.820312 71.679688 5.414062 71.890625 4.996094 71.890625 Z M 4.996094 71.890625 "/>
<path style=" stroke:none;fill-rule:nonzero;fill:rgb(0%,0%,0%);fill-opacity:1;" d="M 75.027344 71.890625 C 74.609375 71.890625 74.203125 71.679688 73.964844 71.300781 C 73.023438 69.796875 72.527344 68.054688 72.527344 66.269531 C 72.527344 64.480469 73.027344 62.738281 73.96875 61.230469 C 74.332031 60.644531 75.105469 60.464844 75.691406 60.832031 C 76.277344 61.195312 76.453125 61.96875 76.089844 62.550781 C 75.394531 63.664062 75.027344 64.949219 75.027344 66.269531 C 75.027344 67.585938 75.394531 68.871094 76.085938 69.980469 C 76.453125 70.566406 76.273438 71.335938 75.6875 71.703125 C 75.484375 71.828125 75.253906 71.890625 75.027344 71.890625 Z M 75.027344 71.890625 "/>
<path style=" stroke:none;fill-rule:nonzero;fill:rgb(0%,0%,0%);fill-opacity:1;" d="M 75.027344 63.136719 C 74.609375 63.136719 74.203125 62.929688 73.964844 62.550781 C 73.023438 61.046875 72.527344 59.304688 72.527344 57.515625 C 72.527344 55.726562 73.027344 53.984375 73.96875 52.476562 C 74.332031 51.890625 75.105469 51.710938 75.691406 52.078125 C 76.277344 52.445312 76.453125 53.214844 76.089844 53.800781 C 75.394531 54.914062 75.027344 56.195312 75.027344 57.515625 C 75.027344 58.835938 75.394531 60.121094 76.085938 61.226562 C 76.453125 61.8125 76.273438 62.582031 75.6875 62.949219 C 75.484375 63.074219 75.253906 63.136719 75.027344 63.136719 Z M 75.027344 63.136719 "/>
<path style=" stroke:none;fill-rule:nonzero;fill:rgb(0%,0%,0%);fill-opacity:1;" d="M 75.027344 54.386719 C 74.609375 54.386719 74.203125 54.179688 73.964844 53.796875 C 73.023438 52.292969 72.527344 50.550781 72.527344 48.761719 C 72.527344 46.972656 73.027344 45.234375 73.96875 43.722656 C 74.332031 43.140625 75.105469 42.960938 75.691406 43.324219 C 76.277344 43.691406 76.453125 44.460938 76.089844 45.046875 C 75.394531 46.160156 75.027344 47.445312 75.027344 48.765625 C 75.027344 50.085938 75.394531 51.367188 76.085938 52.476562 C 76.453125 53.0625 76.273438 53.832031 75.6875 54.199219 C 75.484375 54.324219 75.253906 54.386719 75.027344 54.386719 Z M 75.027344 54.386719 "/>
<path style=" stroke:none;fill-rule:nonzero;fill:rgb(0%,0%,0%);fill-opacity:1;" d="M 75.027344 45.632812 C 74.609375 45.632812 74.203125 45.421875 73.964844 45.042969 C 73.023438 43.539062 72.527344 41.796875 72.527344 40.007812 C 72.527344 38.21875 73.027344 36.476562 73.96875 34.96875 C 74.332031 34.382812 75.105469 34.203125 75.691406 34.570312 C 76.277344 34.933594 76.453125 35.707031 76.089844 36.292969 C 75.394531 37.402344 75.027344 38.6875 75.027344 40.007812 C 75.027344 41.328125 75.394531 42.613281 76.085938 43.722656 C 76.453125 44.304688 76.273438 45.078125 75.6875 45.445312 C 75.484375 45.570312 75.253906 45.632812 75.027344 45.632812 Z M 75.027344 45.632812 "/>
<path style=" stroke:none;fill-rule:nonzero;fill:rgb(0%,0%,0%);fill-opacity:1;" d="M 75.027344 36.878906 C 74.609375 36.878906 74.203125 36.671875 73.964844 36.292969 C 73.023438 34.785156 72.527344 33.046875 72.527344 31.257812 C 72.527344 29.46875 73.023438 27.726562 73.964844 26.21875 C 74.332031 25.632812 75.105469 25.453125 75.6875 25.820312 C 76.273438 26.183594 76.453125 26.957031 76.085938 27.542969 C 75.390625 28.652344 75.027344 29.9375 75.027344 31.257812 C 75.027344 32.578125 75.390625 33.859375 76.085938 34.96875 C 76.449219 35.554688 76.269531 36.324219 75.6875 36.691406 C 75.484375 36.820312 75.253906 36.878906 75.027344 36.878906 Z M 75.027344 36.878906 "/>
<path style=" stroke:none;fill-rule:nonzero;fill:rgb(0%,0%,0%);fill-opacity:1;" d="M 61.269531 44.382812 L 18.769531 44.382812 C 18.078125 44.382812 17.519531 43.824219 17.519531 43.132812 L 17.519531 38.132812 C 17.519531 37.441406 18.078125 36.882812 18.769531 36.882812 L 61.269531 36.882812 C 61.960938 36.882812 62.519531 37.441406 62.519531 38.132812 L 62.519531 43.132812 C 62.519531 43.824219 61.960938 44.382812 61.269531 44.382812 Z M 20.019531 41.882812 L 60.019531 41.882812 L 60.019531 39.382812 L 20.019531 39.382812 Z M 20.019531 41.882812 "/>
<path style=" stroke:none;fill-rule:nonzero;fill:rgb(0%,0%,0%);fill-opacity:1;" d="M 61.253906 51.886719 L 18.746094 51.886719 C 18.054688 51.886719 17.496094 51.328125 17.496094 50.636719 C 17.496094 49.945312 18.054688 49.386719 18.746094 49.386719 L 61.253906 49.386719 C 61.945312 49.386719 62.503906 49.945312 62.503906 50.636719 C 62.503906 51.328125 61.945312 51.886719 61.253906 51.886719 Z M 61.253906 51.886719 "/>
<path style=" stroke:none;fill-rule:nonzero;fill:rgb(0%,0%,0%);fill-opacity:1;" d="M 55 56.890625 L 25 56.890625 C 24.308594 56.890625 23.75 56.332031 23.75 55.640625 C 23.75 54.949219 24.308594 54.390625 25 54.390625 L 55 54.390625 C 55.691406 54.390625 56.25 54.949219 56.25 55.640625 C 56.25 56.332031 55.691406 56.890625 55 56.890625 Z M 55 56.890625 "/>
<path style=" stroke:none;fill-rule:nonzero;fill:rgb(0%,0%,0%);fill-opacity:1;" d="M 48.75 61.890625 L 31.25 61.890625 C 30.558594 61.890625 30 61.332031 30 60.640625 C 30 59.949219 30.558594 59.390625 31.25 59.390625 L 48.75 59.390625 C 49.441406 59.390625 50 59.949219 50 60.640625 C 50 61.332031 49.441406 61.890625 48.75 61.890625 Z M 48.75 61.890625 "/>
<path style=" stroke:none;fill-rule:nonzero;fill:rgb(0%,0%,0%);fill-opacity:1;" d="M 78.75 75.632812 L 1.25 75.632812 C 0.558594 75.632812 0 75.078125 0 74.382812 L 0 23.128906 C 0 22.441406 0.558594 21.878906 1.25 21.878906 L 78.75 21.878906 C 79.441406 21.878906 80 22.441406 80 23.128906 L 80 74.382812 C 80 75.078125 79.441406 75.632812 78.75 75.632812 Z M 2.5 73.132812 L 77.5 73.132812 L 77.5 24.378906 L 2.5 24.378906 Z M 2.5 73.132812 "/>
<path style=" stroke:none;fill-rule:nonzero;fill:rgb(0%,0%,0%);fill-opacity:1;" d="M 65.011719 64.394531 C 62.945312 64.394531 61.261719 62.710938 61.261719 60.644531 C 61.261719 58.574219 62.945312 56.894531 65.011719 56.894531 C 67.078125 56.894531 68.761719 58.574219 68.761719 60.644531 C 68.761719 62.710938 67.078125 64.394531 65.011719 64.394531 Z M 65.011719 59.394531 C 64.324219 59.394531 63.761719 59.953125 63.761719 60.644531 C 63.761719 61.332031 64.324219 61.894531 65.011719 61.894531 C 65.703125 61.894531 66.261719 61.332031 66.261719 60.644531 C 66.261719 59.953125 65.703125 59.394531 65.011719 59.394531 Z M 65.011719 59.394531 "/>
<path style=" stroke:none;fill-rule:nonzero;fill:rgb(0%,0%,0%);fill-opacity:1;" d="M 15.023438 64.394531 C 12.953125 64.394531 11.273438 62.710938 11.273438 60.644531 C 11.273438 58.574219 12.953125 56.894531 15.023438 56.894531 C 17.089844 56.894531 18.773438 58.574219 18.773438 60.644531 C 18.773438 62.710938 17.089844 64.394531 15.023438 64.394531 Z M 15.023438 59.394531 C 14.332031 59.394531 13.773438 59.953125 13.773438 60.644531 C 13.773438 61.332031 14.332031 61.894531 15.023438 61.894531 C 15.710938 61.894531 16.273438 61.332031 16.273438 60.644531 C 16.273438 59.953125 15.710938 59.394531 15.023438 59.394531 Z M 15.023438 59.394531 "/>
<path style=" stroke:none;fill-rule:nonzero;fill:rgb(0%,0%,0%);fill-opacity:1;" d="M 40 11.875 C 37.933594 11.875 36.25 10.195312 36.25 8.125 C 36.25 6.058594 37.933594 4.375 40 4.375 C 42.066406 4.375 43.75 6.058594 43.75 8.125 C 43.75 10.195312 42.066406 11.875 40 11.875 Z M 40 6.875 C 39.308594 6.875 38.75 7.4375 38.75 8.125 C 38.75 8.816406 39.308594 9.375 40 9.375 C 40.691406 9.375 41.25 8.816406 41.25 8.125 C 41.25 7.4375 40.691406 6.875 40 6.875 Z M 40 6.875 "/>
<path style=" stroke:none;fill-rule:nonzero;fill:rgb(0%,0%,0%);fill-opacity:1;" d="M 7.507812 24.378906 C 7.035156 24.378906 6.582031 24.109375 6.371094 23.652344 C 6.082031 23.027344 6.355469 22.285156 6.984375 21.996094 L 37.207031 8.039062 C 37.835938 7.746094 38.578125 8.023438 38.867188 8.648438 C 39.15625 9.273438 38.882812 10.019531 38.257812 10.308594 L 8.03125 24.265625 C 7.859375 24.34375 7.683594 24.378906 7.507812 24.378906 Z M 7.507812 24.378906 "/>
<path style=" stroke:none;fill-rule:nonzero;fill:rgb(0%,0%,0%);fill-opacity:1;" d="M 72.492188 24.378906 C 72.316406 24.378906 72.140625 24.34375 71.96875 24.265625 L 41.746094 10.3125 C 41.121094 10.023438 40.847656 9.277344 41.136719 8.652344 C 41.425781 8.027344 42.167969 7.75 42.792969 8.042969 L 73.015625 21.996094 C 73.644531 22.285156 73.917969 23.027344 73.628906 23.652344 C 73.417969 24.109375 72.964844 24.378906 72.492188 24.378906 Z M 72.492188 24.378906 "/>
</g>
</svg>
