<?xml version="1.0" encoding="UTF-8"?>
<svg xmlns="http://www.w3.org/2000/svg" xmlns:xlink="http://www.w3.org/1999/xlink" width="80pt" height="80pt" viewBox="0 0 80 80" version="1.1">
<g id="surface1">
<path style=" stroke:none;fill-rule:nonzero;fill:rgb(0%,0%,0%);fill-opacity:1;" d="M 57.480469 20.628906 C 56.789062 20.628906 56.230469 20.070312 56.230469 19.378906 L 56.230469 14.546875 C 56.230469 13.855469 56.789062 13.296875 57.480469 13.296875 C 58.171875 13.296875 58.730469 13.855469 58.730469 14.546875 L 58.730469 19.378906 C 58.730469 20.070312 58.171875 20.628906 57.480469 20.628906 Z M 57.480469 20.628906 "/>
<path style=" stroke:none;fill-rule:nonzero;fill:rgb(0%,0%,0%);fill-opacity:1;" d="M 74.980469 20.628906 C 74.289062 20.628906 73.730469 20.070312 73.730469 19.378906 L 73.730469 13.753906 C 73.730469 13.066406 74.289062 12.503906 74.980469 12.503906 C 75.671875 12.503906 76.230469 13.066406 76.230469 13.753906 L 76.230469 19.378906 C 76.230469 20.070312 75.671875 20.628906 74.980469 20.628906 Z M 74.980469 20.628906 "/>
<path style=" stroke:none;fill-rule:nonzero;fill:rgb(0%,0%,0%);fill-opacity:1;" d="M 74.980469 15.003906 C 74.289062 15.003906 73.730469 14.445312 73.730469 13.753906 C 73.730469 9.273438 70.082031 5.628906 65.601562 5.628906 C 61.121094 5.628906 57.480469 9.273438 57.480469 13.753906 C 57.480469 14.445312 56.921875 15.003906 56.230469 15.003906 C 55.539062 15.003906 54.980469 14.445312 54.980469 13.753906 C 54.980469 7.894531 59.746094 3.128906 65.601562 3.128906 C 71.460938 3.128906 76.230469 7.894531 76.230469 13.753906 C 76.230469 14.445312 75.671875 15.003906 74.980469 15.003906 Z M 74.980469 15.003906 "/>
<path style=" stroke:none;fill-rule:nonzero;fill:rgb(0%,0%,0%);fill-opacity:1;" d="M 74.980469 16.71875 C 74.605469 16.71875 74.234375 16.550781 73.984375 16.230469 C 71.570312 13.078125 70.917969 13.339844 68.46875 14.304688 C 66.121094 15.234375 62.574219 16.640625 56.035156 15.609375 C 55.351562 15.5 54.886719 14.863281 54.996094 14.179688 C 55.101562 13.496094 55.742188 13.035156 56.425781 13.140625 C 62.292969 14.066406 65.328125 12.859375 67.546875 11.980469 C 70.558594 10.789062 72.578125 10.277344 75.972656 14.707031 C 76.390625 15.253906 76.289062 16.039062 75.738281 16.460938 C 75.511719 16.636719 75.246094 16.71875 74.980469 16.71875 Z M 74.980469 16.71875 "/>
<path style=" stroke:none;fill-rule:nonzero;fill:rgb(0%,0%,0%);fill-opacity:1;" d="M 69.976562 13.726562 C 69.792969 13.726562 69.605469 13.683594 69.429688 13.597656 C 68.808594 13.292969 68.554688 12.542969 68.859375 11.925781 L 71.359375 6.835938 C 71.660156 6.214844 72.410156 5.957031 73.03125 6.265625 C 73.648438 6.566406 73.90625 7.316406 73.601562 7.9375 L 71.101562 13.027344 C 70.882812 13.46875 70.441406 13.726562 69.976562 13.726562 Z M 69.976562 13.726562 "/>
<path style=" stroke:none;fill-rule:nonzero;fill:rgb(0%,0%,0%);fill-opacity:1;" d="M 54.980469 36.875 C 54.289062 36.875 53.730469 36.316406 53.730469 35.625 C 53.730469 32.867188 55.972656 30.625 58.730469 30.625 C 59.421875 30.625 59.980469 31.183594 59.980469 31.875 C 59.980469 32.566406 59.421875 33.125 58.730469 33.125 C 57.351562 33.125 56.230469 34.246094 56.230469 35.625 C 56.230469 36.316406 55.671875 36.875 54.980469 36.875 Z M 54.980469 36.875 "/>
<path style=" stroke:none;fill-rule:nonzero;fill:rgb(0%,0%,0%);fill-opacity:1;" d="M 62.480469 33.132812 L 58.730469 33.132812 C 58.039062 33.132812 57.480469 32.574219 57.480469 31.882812 C 57.480469 31.191406 58.039062 30.632812 58.730469 30.632812 L 62.480469 30.632812 C 63.171875 30.632812 63.730469 31.191406 63.730469 31.882812 C 63.730469 32.574219 63.171875 33.132812 62.480469 33.132812 Z M 62.480469 33.132812 "/>
<path style=" stroke:none;fill-rule:nonzero;fill:rgb(0%,0%,0%);fill-opacity:1;" d="M 54.980469 39.378906 C 54.289062 39.378906 53.730469 38.820312 53.730469 38.128906 L 53.730469 35.625 C 53.730469 34.933594 54.289062 34.375 54.980469 34.375 C 55.671875 34.375 56.230469 34.933594 56.230469 35.625 L 56.230469 38.128906 C 56.230469 38.820312 55.671875 39.378906 54.980469 39.378906 Z M 54.980469 39.378906 "/>
<path style=" stroke:none;fill-rule:nonzero;fill:rgb(0%,0%,0%);fill-opacity:1;" d="M 77.480469 36.875 C 76.789062 36.875 76.230469 36.316406 76.230469 35.625 C 76.230469 34.246094 75.109375 33.125 73.730469 33.125 C 73.039062 33.125 72.480469 32.566406 72.480469 31.875 C 72.480469 31.183594 73.039062 30.625 73.730469 30.625 C 76.484375 30.625 78.730469 32.867188 78.730469 35.625 C 78.730469 36.316406 78.171875 36.875 77.480469 36.875 Z M 77.480469 36.875 "/>
<path style=" stroke:none;fill-rule:nonzero;fill:rgb(0%,0%,0%);fill-opacity:1;" d="M 73.730469 33.132812 L 69.980469 33.132812 C 69.289062 33.132812 68.730469 32.574219 68.730469 31.882812 C 68.730469 31.191406 69.289062 30.632812 69.980469 30.632812 L 73.730469 30.632812 C 74.421875 30.632812 74.980469 31.191406 74.980469 31.882812 C 74.980469 32.574219 74.421875 33.132812 73.730469 33.132812 Z M 73.730469 33.132812 "/>
<path style=" stroke:none;fill-rule:nonzero;fill:rgb(0%,0%,0%);fill-opacity:1;" d="M 77.480469 39.378906 C 76.789062 39.378906 76.230469 38.820312 76.230469 38.128906 L 76.230469 35.625 C 76.230469 34.933594 76.789062 34.375 77.480469 34.375 C 78.171875 34.375 78.730469 34.933594 78.730469 35.625 L 78.730469 38.128906 C 78.730469 38.820312 78.171875 39.378906 77.480469 39.378906 Z M 77.480469 39.378906 "/>
<path style=" stroke:none;fill-rule:nonzero;fill:rgb(0%,0%,0%);fill-opacity:1;" d="M 62.480469 33.132812 C 61.789062 33.132812 61.230469 32.574219 61.230469 31.882812 L 61.230469 27.277344 C 61.230469 26.585938 61.789062 26.027344 62.480469 26.027344 C 63.171875 26.027344 63.730469 26.585938 63.730469 27.277344 L 63.730469 31.882812 C 63.730469 32.574219 63.171875 33.132812 62.480469 33.132812 Z M 62.480469 33.132812 "/>
<path style=" stroke:none;fill-rule:nonzero;fill:rgb(0%,0%,0%);fill-opacity:1;" d="M 69.980469 33.125 C 69.289062 33.125 68.730469 32.566406 68.730469 31.875 L 68.730469 27.277344 C 68.730469 26.585938 69.289062 26.027344 69.980469 26.027344 C 70.671875 26.027344 71.230469 26.585938 71.230469 27.277344 L 71.230469 31.875 C 71.230469 32.566406 70.671875 33.125 69.980469 33.125 Z M 69.980469 33.125 "/>
<path style=" stroke:none;fill-rule:nonzero;fill:rgb(0%,0%,0%);fill-opacity:1;" d="M 66.230469 29.371094 C 60.714844 29.371094 56.230469 24.886719 56.230469 19.375 C 56.230469 18.683594 56.789062 18.125 57.480469 18.125 C 58.171875 18.125 58.730469 18.683594 58.730469 19.375 C 58.730469 23.507812 62.09375 26.871094 66.230469 26.871094 C 70.363281 26.871094 73.730469 23.507812 73.730469 19.375 C 73.730469 18.683594 74.289062 18.125 74.980469 18.125 C 75.671875 18.125 76.230469 18.683594 76.230469 19.375 C 76.230469 24.886719 71.742188 29.371094 66.230469 29.371094 Z M 66.230469 29.371094 "/>
<path style=" stroke:none;fill-rule:nonzero;fill:rgb(0%,0%,0%);fill-opacity:1;" d="M 63.730469 34.375 C 63.269531 34.375 62.832031 34.121094 62.609375 33.683594 C 62.300781 33.066406 62.550781 32.316406 63.167969 32.007812 L 65.667969 30.757812 C 66.285156 30.449219 67.035156 30.699219 67.347656 31.316406 C 67.65625 31.933594 67.40625 32.683594 66.789062 32.992188 L 64.289062 34.242188 C 64.109375 34.332031 63.917969 34.375 63.730469 34.375 Z M 63.730469 34.375 "/>
<path style=" stroke:none;fill-rule:nonzero;fill:rgb(0%,0%,0%);fill-opacity:1;" d="M 68.730469 34.375 C 68.410156 34.375 68.089844 34.253906 67.84375 34.007812 C 67.355469 33.519531 67.355469 32.730469 67.84375 32.242188 L 69.09375 30.992188 C 69.582031 30.503906 70.375 30.503906 70.863281 30.992188 C 71.351562 31.480469 71.351562 32.269531 70.863281 32.757812 L 69.613281 34.007812 C 69.367188 34.253906 69.046875 34.375 68.730469 34.375 Z M 68.730469 34.375 "/>
<path style=" stroke:none;fill-rule:nonzero;fill:rgb(0%,0%,0%);fill-opacity:1;" d="M 63.730469 34.375 C 63.410156 34.375 63.089844 34.253906 62.84375 34.007812 L 61.59375 32.757812 C 61.105469 32.269531 61.105469 31.480469 61.59375 30.992188 C 62.082031 30.503906 62.875 30.503906 63.363281 30.992188 L 64.613281 32.242188 C 65.101562 32.730469 65.101562 33.519531 64.613281 34.007812 C 64.367188 34.253906 64.046875 34.375 63.730469 34.375 Z M 63.730469 34.375 "/>
<path style=" stroke:none;fill-rule:nonzero;fill:rgb(0%,0%,0%);fill-opacity:1;" d="M 68.726562 34.375 C 68.539062 34.375 68.347656 34.332031 68.171875 34.242188 L 65.671875 32.992188 C 65.050781 32.683594 64.800781 31.933594 65.109375 31.316406 C 65.421875 30.699219 66.171875 30.449219 66.789062 30.757812 L 69.289062 32.007812 C 69.90625 32.316406 70.15625 33.066406 69.847656 33.683594 C 69.628906 34.121094 69.1875 34.375 68.726562 34.375 Z M 68.726562 34.375 "/>
<path style=" stroke:none;fill-rule:nonzero;fill:rgb(0%,0%,0%);fill-opacity:1;" d="M 31.230469 20.628906 C 30.539062 20.628906 29.980469 20.070312 29.980469 19.378906 L 29.980469 13.125 C 29.980469 12.433594 30.539062 11.875 31.230469 11.875 C 31.921875 11.875 32.480469 12.433594 32.480469 13.125 L 32.480469 19.378906 C 32.480469 20.070312 31.921875 20.628906 31.230469 20.628906 Z M 31.230469 20.628906 "/>
<path style=" stroke:none;fill-rule:nonzero;fill:rgb(0%,0%,0%);fill-opacity:1;" d="M 48.730469 20.628906 C 48.039062 20.628906 47.480469 20.070312 47.480469 19.378906 L 47.480469 13.125 C 47.480469 12.433594 48.039062 11.875 48.730469 11.875 C 49.421875 11.875 49.980469 12.433594 49.980469 13.125 L 49.980469 19.378906 C 49.980469 20.070312 49.421875 20.628906 48.730469 20.628906 Z M 48.730469 20.628906 "/>
<path style=" stroke:none;fill-rule:nonzero;fill:rgb(0%,0%,0%);fill-opacity:1;" d="M 28.730469 36.875 C 28.039062 36.875 27.480469 36.316406 27.480469 35.625 C 27.480469 32.867188 29.722656 30.625 32.480469 30.625 C 33.171875 30.625 33.730469 31.183594 33.730469 31.875 C 33.730469 32.566406 33.171875 33.125 32.480469 33.125 C 31.101562 33.125 29.980469 34.246094 29.980469 35.625 C 29.980469 36.316406 29.421875 36.875 28.730469 36.875 Z M 28.730469 36.875 "/>
<path style=" stroke:none;fill-rule:nonzero;fill:rgb(0%,0%,0%);fill-opacity:1;" d="M 36.230469 33.132812 L 32.480469 33.132812 C 31.789062 33.132812 31.230469 32.574219 31.230469 31.882812 C 31.230469 31.191406 31.789062 30.632812 32.480469 30.632812 L 36.230469 30.632812 C 36.921875 30.632812 37.480469 31.191406 37.480469 31.882812 C 37.480469 32.574219 36.921875 33.132812 36.230469 33.132812 Z M 36.230469 33.132812 "/>
<path style=" stroke:none;fill-rule:nonzero;fill:rgb(0%,0%,0%);fill-opacity:1;" d="M 28.730469 39.378906 C 28.039062 39.378906 27.480469 38.820312 27.480469 38.128906 L 27.480469 35.625 C 27.480469 34.933594 28.039062 34.375 28.730469 34.375 C 29.421875 34.375 29.980469 34.933594 29.980469 35.625 L 29.980469 38.128906 C 29.980469 38.820312 29.421875 39.378906 28.730469 39.378906 Z M 28.730469 39.378906 "/>
<path style=" stroke:none;fill-rule:nonzero;fill:rgb(0%,0%,0%);fill-opacity:1;" d="M 51.230469 36.875 C 50.539062 36.875 49.980469 36.316406 49.980469 35.625 C 49.980469 34.246094 48.859375 33.125 47.480469 33.125 C 46.789062 33.125 46.230469 32.566406 46.230469 31.875 C 46.230469 31.183594 46.789062 30.625 47.480469 30.625 C 50.238281 30.625 52.480469 32.867188 52.480469 35.625 C 52.480469 36.316406 51.921875 36.875 51.230469 36.875 Z M 51.230469 36.875 "/>
<path style=" stroke:none;fill-rule:nonzero;fill:rgb(0%,0%,0%);fill-opacity:1;" d="M 47.480469 33.132812 L 43.730469 33.132812 C 43.039062 33.132812 42.480469 32.574219 42.480469 31.882812 C 42.480469 31.191406 43.039062 30.632812 43.730469 30.632812 L 47.480469 30.632812 C 48.171875 30.632812 48.730469 31.191406 48.730469 31.882812 C 48.730469 32.574219 48.171875 33.132812 47.480469 33.132812 Z M 47.480469 33.132812 "/>
<path style=" stroke:none;fill-rule:nonzero;fill:rgb(0%,0%,0%);fill-opacity:1;" d="M 51.230469 39.378906 C 50.539062 39.378906 49.980469 38.820312 49.980469 38.128906 L 49.980469 35.625 C 49.980469 34.933594 50.539062 34.375 51.230469 34.375 C 51.921875 34.375 52.480469 34.933594 52.480469 35.625 L 52.480469 38.128906 C 52.480469 38.820312 51.921875 39.378906 51.230469 39.378906 Z M 51.230469 39.378906 "/>
<path style=" stroke:none;fill-rule:nonzero;fill:rgb(0%,0%,0%);fill-opacity:1;" d="M 36.230469 33.132812 C 35.539062 33.132812 34.980469 32.574219 34.980469 31.882812 L 34.980469 27.277344 C 34.980469 26.585938 35.539062 26.027344 36.230469 26.027344 C 36.921875 26.027344 37.480469 26.585938 37.480469 27.277344 L 37.480469 31.882812 C 37.480469 32.574219 36.921875 33.132812 36.230469 33.132812 Z M 36.230469 33.132812 "/>
<path style=" stroke:none;fill-rule:nonzero;fill:rgb(0%,0%,0%);fill-opacity:1;" d="M 43.730469 33.125 C 43.039062 33.125 42.480469 32.566406 42.480469 31.875 L 42.480469 27.277344 C 42.480469 26.585938 43.039062 26.027344 43.730469 26.027344 C 44.421875 26.027344 44.980469 26.585938 44.980469 27.277344 L 44.980469 31.875 C 44.980469 32.566406 44.421875 33.125 43.730469 33.125 Z M 43.730469 33.125 "/>
<path style=" stroke:none;fill-rule:nonzero;fill:rgb(0%,0%,0%);fill-opacity:1;" d="M 39.980469 29.371094 C 34.464844 29.371094 29.980469 24.886719 29.980469 19.375 C 29.980469 18.683594 30.539062 18.125 31.230469 18.125 C 31.921875 18.125 32.480469 18.683594 32.480469 19.375 C 32.480469 23.507812 35.84375 26.871094 39.980469 26.871094 C 44.117188 26.871094 47.480469 23.507812 47.480469 19.375 C 47.480469 18.683594 48.039062 18.125 48.730469 18.125 C 49.421875 18.125 49.980469 18.683594 49.980469 19.375 C 49.980469 24.886719 45.496094 29.371094 39.980469 29.371094 Z M 39.980469 29.371094 "/>
<path style=" stroke:none;fill-rule:nonzero;fill:rgb(0%,0%,0%);fill-opacity:1;" d="M 48.730469 14.375 C 48.039062 14.375 47.480469 13.816406 47.480469 13.125 C 47.480469 8.992188 44.117188 5.628906 39.980469 5.628906 C 35.84375 5.628906 32.480469 8.992188 32.480469 13.125 C 32.480469 13.816406 31.921875 14.375 31.230469 14.375 C 30.539062 14.375 29.980469 13.816406 29.980469 13.125 C 29.980469 7.613281 34.464844 3.128906 39.980469 3.128906 C 45.492188 3.128906 49.980469 7.613281 49.980469 13.125 C 49.980469 13.816406 49.421875 14.375 48.730469 14.375 Z M 48.730469 14.375 "/>
<path style=" stroke:none;fill-rule:nonzero;fill:rgb(0%,0%,0%);fill-opacity:1;" d="M 37.480469 34.375 C 37.023438 34.375 36.582031 34.121094 36.359375 33.683594 C 36.050781 33.066406 36.300781 32.316406 36.921875 32.007812 L 39.421875 30.757812 C 40.035156 30.449219 40.789062 30.699219 41.097656 31.316406 C 41.40625 31.933594 41.15625 32.683594 40.539062 32.992188 L 38.039062 34.242188 C 37.859375 34.332031 37.671875 34.375 37.480469 34.375 Z M 37.480469 34.375 "/>
<path style=" stroke:none;fill-rule:nonzero;fill:rgb(0%,0%,0%);fill-opacity:1;" d="M 42.480469 34.375 C 42.160156 34.375 41.839844 34.253906 41.597656 34.007812 C 41.109375 33.519531 41.109375 32.730469 41.597656 32.242188 L 42.847656 30.992188 C 43.335938 30.503906 44.125 30.503906 44.613281 30.992188 C 45.101562 31.480469 45.101562 32.269531 44.613281 32.757812 L 43.363281 34.007812 C 43.121094 34.253906 42.800781 34.375 42.480469 34.375 Z M 42.480469 34.375 "/>
<path style=" stroke:none;fill-rule:nonzero;fill:rgb(0%,0%,0%);fill-opacity:1;" d="M 37.480469 34.375 C 37.160156 34.375 36.839844 34.253906 36.597656 34.007812 L 35.347656 32.757812 C 34.859375 32.269531 34.859375 31.480469 35.347656 30.992188 C 35.835938 30.503906 36.625 30.503906 37.113281 30.992188 L 38.363281 32.242188 C 38.851562 32.730469 38.851562 33.519531 38.363281 34.007812 C 38.121094 34.253906 37.800781 34.375 37.480469 34.375 Z M 37.480469 34.375 "/>
<path style=" stroke:none;fill-rule:nonzero;fill:rgb(0%,0%,0%);fill-opacity:1;" d="M 42.480469 34.375 C 42.292969 34.375 42.101562 34.332031 41.921875 34.242188 L 39.421875 32.992188 C 38.804688 32.683594 38.554688 31.933594 38.863281 31.316406 C 39.171875 30.699219 39.921875 30.449219 40.539062 30.757812 L 43.039062 32.007812 C 43.65625 32.316406 43.90625 33.066406 43.597656 33.683594 C 43.378906 34.121094 42.9375 34.375 42.480469 34.375 Z M 42.480469 34.375 "/>
<path style=" stroke:none;fill-rule:nonzero;fill:rgb(0%,0%,0%);fill-opacity:1;" d="M 4.980469 20.628906 C 4.289062 20.628906 3.730469 20.070312 3.730469 19.378906 L 3.730469 9.375 C 3.730469 8.683594 4.289062 8.125 4.980469 8.125 C 5.671875 8.125 6.230469 8.683594 6.230469 9.375 L 6.230469 19.378906 C 6.230469 20.070312 5.671875 20.628906 4.980469 20.628906 Z M 4.980469 20.628906 "/>
<path style=" stroke:none;fill-rule:nonzero;fill:rgb(0%,0%,0%);fill-opacity:1;" d="M 22.480469 20.628906 C 21.789062 20.628906 21.230469 20.070312 21.230469 19.378906 L 21.230469 19.015625 C 21.230469 18.324219 21.789062 17.765625 22.480469 17.765625 C 23.171875 17.765625 23.730469 18.324219 23.730469 19.015625 L 23.730469 19.378906 C 23.730469 20.070312 23.171875 20.628906 22.480469 20.628906 Z M 22.480469 20.628906 "/>
<path style=" stroke:none;fill-rule:nonzero;fill:rgb(0%,0%,0%);fill-opacity:1;" d="M 2.480469 36.875 C 1.789062 36.875 1.230469 36.316406 1.230469 35.625 C 1.230469 32.867188 3.472656 30.625 6.230469 30.625 C 6.921875 30.625 7.480469 31.183594 7.480469 31.875 C 7.480469 32.566406 6.921875 33.125 6.230469 33.125 C 4.851562 33.125 3.730469 34.246094 3.730469 35.625 C 3.730469 36.316406 3.171875 36.875 2.480469 36.875 Z M 2.480469 36.875 "/>
<path style=" stroke:none;fill-rule:nonzero;fill:rgb(0%,0%,0%);fill-opacity:1;" d="M 9.980469 33.132812 L 6.230469 33.132812 C 5.539062 33.132812 4.980469 32.574219 4.980469 31.882812 C 4.980469 31.191406 5.539062 30.632812 6.230469 30.632812 L 9.980469 30.632812 C 10.671875 30.632812 11.230469 31.191406 11.230469 31.882812 C 11.230469 32.574219 10.671875 33.132812 9.980469 33.132812 Z M 9.980469 33.132812 "/>
<path style=" stroke:none;fill-rule:nonzero;fill:rgb(0%,0%,0%);fill-opacity:1;" d="M 2.480469 39.378906 C 1.789062 39.378906 1.230469 38.820312 1.230469 38.128906 L 1.230469 35.625 C 1.230469 34.933594 1.789062 34.375 2.480469 34.375 C 3.171875 34.375 3.730469 34.933594 3.730469 35.625 L 3.730469 38.128906 C 3.730469 38.820312 3.171875 39.378906 2.480469 39.378906 Z M 2.480469 39.378906 "/>
<path style=" stroke:none;fill-rule:nonzero;fill:rgb(0%,0%,0%);fill-opacity:1;" d="M 24.980469 36.875 C 24.289062 36.875 23.730469 36.316406 23.730469 35.625 C 23.730469 34.246094 22.609375 33.125 21.230469 33.125 C 20.539062 33.125 19.980469 32.566406 19.980469 31.875 C 19.980469 31.183594 20.539062 30.625 21.230469 30.625 C 23.988281 30.625 26.230469 32.867188 26.230469 35.625 C 26.230469 36.316406 25.671875 36.875 24.980469 36.875 Z M 24.980469 36.875 "/>
<path style=" stroke:none;fill-rule:nonzero;fill:rgb(0%,0%,0%);fill-opacity:1;" d="M 21.230469 33.132812 L 17.480469 33.132812 C 16.789062 33.132812 16.230469 32.574219 16.230469 31.882812 C 16.230469 31.191406 16.789062 30.632812 17.480469 30.632812 L 21.230469 30.632812 C 21.921875 30.632812 22.480469 31.191406 22.480469 31.882812 C 22.480469 32.574219 21.921875 33.132812 21.230469 33.132812 Z M 21.230469 33.132812 "/>
<path style=" stroke:none;fill-rule:nonzero;fill:rgb(0%,0%,0%);fill-opacity:1;" d="M 24.980469 39.378906 C 24.289062 39.378906 23.730469 38.820312 23.730469 38.128906 L 23.730469 35.625 C 23.730469 34.933594 24.289062 34.375 24.980469 34.375 C 25.671875 34.375 26.230469 34.933594 26.230469 35.625 L 26.230469 38.128906 C 26.230469 38.820312 25.671875 39.378906 24.980469 39.378906 Z M 24.980469 39.378906 "/>
<path style=" stroke:none;fill-rule:nonzero;fill:rgb(0%,0%,0%);fill-opacity:1;" d="M 9.980469 33.132812 C 9.289062 33.132812 8.730469 32.574219 8.730469 31.882812 L 8.730469 27.277344 C 8.730469 26.585938 9.289062 26.027344 9.980469 26.027344 C 10.671875 26.027344 11.230469 26.585938 11.230469 27.277344 L 11.230469 31.882812 C 11.230469 32.574219 10.671875 33.132812 9.980469 33.132812 Z M 9.980469 33.132812 "/>
<path style=" stroke:none;fill-rule:nonzero;fill:rgb(0%,0%,0%);fill-opacity:1;" d="M 17.480469 33.125 C 16.789062 33.125 16.230469 32.566406 16.230469 31.875 L 16.230469 27.277344 C 16.230469 26.585938 16.789062 26.027344 17.480469 26.027344 C 18.171875 26.027344 18.730469 26.585938 18.730469 27.277344 L 18.730469 31.875 C 18.730469 32.566406 18.171875 33.125 17.480469 33.125 Z M 17.480469 33.125 "/>
<path style=" stroke:none;fill-rule:nonzero;fill:rgb(0%,0%,0%);fill-opacity:1;" d="M 13.730469 29.371094 C 8.21875 29.371094 3.730469 24.886719 3.730469 19.375 C 3.730469 18.683594 4.289062 18.125 4.980469 18.125 C 5.671875 18.125 6.230469 18.683594 6.230469 19.375 C 6.230469 23.507812 9.59375 26.871094 13.730469 26.871094 C 17.867188 26.871094 21.230469 23.507812 21.230469 19.375 C 21.230469 18.683594 21.789062 18.125 22.480469 18.125 C 23.171875 18.125 23.730469 18.683594 23.730469 19.375 C 23.730469 24.886719 19.246094 29.371094 13.730469 29.371094 Z M 13.730469 29.371094 "/>
<path style=" stroke:none;fill-rule:nonzero;fill:rgb(0%,0%,0%);fill-opacity:1;" d="M 13.730469 35.625 C 13.492188 35.625 13.25 35.558594 13.039062 35.414062 L 9.289062 32.914062 C 8.710938 32.53125 8.558594 31.757812 8.941406 31.179688 C 9.324219 30.605469 10.097656 30.449219 10.675781 30.835938 L 14.425781 33.335938 C 15 33.71875 15.15625 34.492188 14.769531 35.070312 C 14.53125 35.429688 14.136719 35.625 13.730469 35.625 Z M 13.730469 35.625 "/>
<path style=" stroke:none;fill-rule:nonzero;fill:rgb(0%,0%,0%);fill-opacity:1;" d="M 13.730469 35.625 C 13.328125 35.625 12.929688 35.429688 12.691406 35.070312 C 12.308594 34.496094 12.460938 33.71875 13.039062 33.335938 L 16.789062 30.835938 C 17.363281 30.449219 18.136719 30.605469 18.519531 31.179688 C 18.90625 31.753906 18.75 32.53125 18.175781 32.914062 L 14.425781 35.414062 C 14.210938 35.558594 13.972656 35.625 13.730469 35.625 Z M 13.730469 35.625 "/>
<path style=" stroke:none;fill-rule:nonzero;fill:rgb(0%,0%,0%);fill-opacity:1;" d="M 24.980469 14.375 C 24.289062 14.375 23.730469 13.816406 23.730469 13.125 C 23.730469 8.300781 19.804688 4.375 14.980469 4.375 C 12.753906 4.375 10.777344 5.585938 9.511719 6.601562 C 8.976562 7.035156 8.1875 6.945312 7.757812 6.40625 C 7.324219 5.871094 7.410156 5.082031 7.949219 4.648438 C 10.210938 2.832031 12.640625 1.875 14.980469 1.875 C 21.183594 1.875 26.230469 6.921875 26.230469 13.125 C 26.230469 13.816406 25.671875 14.375 24.980469 14.375 Z M 24.980469 14.375 "/>
<path style=" stroke:none;fill-rule:nonzero;fill:rgb(0%,0%,0%);fill-opacity:1;" d="M 24.980469 26.875 C 24.289062 26.875 23.730469 26.316406 23.730469 25.625 C 23.730469 20.800781 19.804688 16.875 14.980469 16.875 C 14.289062 16.875 13.730469 16.316406 13.730469 15.625 C 13.730469 14.933594 14.289062 14.375 14.980469 14.375 C 21.183594 14.375 26.230469 19.421875 26.230469 25.625 C 26.230469 26.316406 25.671875 26.875 24.980469 26.875 Z M 24.980469 26.875 "/>
<path style=" stroke:none;fill-rule:nonzero;fill:rgb(0%,0%,0%);fill-opacity:1;" d="M 4.980469 16.875 C 4.289062 16.875 3.730469 16.316406 3.730469 15.625 C 3.730469 14.933594 4.289062 14.375 4.980469 14.375 C 6.359375 14.375 7.480469 13.253906 7.480469 11.875 C 7.480469 11.183594 8.039062 10.625 8.730469 10.625 C 9.421875 10.625 9.980469 11.183594 9.980469 11.875 C 9.980469 14.632812 7.738281 16.875 4.980469 16.875 Z M 4.980469 16.875 "/>
<path style=" stroke:none;fill-rule:nonzero;fill:rgb(0%,0%,0%);fill-opacity:1;" d="M 4.980469 10.625 C 4.289062 10.625 3.730469 10.066406 3.730469 9.375 C 3.730469 6.617188 5.972656 4.375 8.730469 4.375 C 9.421875 4.375 9.980469 4.933594 9.980469 5.625 C 9.980469 6.316406 9.421875 6.875 8.730469 6.875 C 7.351562 6.875 6.230469 7.996094 6.230469 9.375 C 6.230469 10.066406 5.671875 10.625 4.980469 10.625 Z M 4.980469 10.625 "/>
<path style=" stroke:none;fill-rule:nonzero;fill:rgb(0%,0%,0%);fill-opacity:1;" d="M 12.480469 16.875 C 9.722656 16.875 7.480469 14.632812 7.480469 11.875 C 7.480469 11.183594 8.039062 10.625 8.730469 10.625 C 9.421875 10.625 9.980469 11.183594 9.980469 11.875 C 9.980469 13.253906 11.101562 14.375 12.480469 14.375 C 13.171875 14.375 13.730469 14.933594 13.730469 15.625 C 13.730469 16.316406 13.171875 16.875 12.480469 16.875 Z M 12.480469 16.875 "/>
<path style=" stroke:none;fill-rule:nonzero;fill:rgb(0%,0%,0%);fill-opacity:1;" d="M 8.730469 13.125 C 8.039062 13.125 7.480469 12.566406 7.480469 11.875 L 7.480469 5.625 C 7.480469 4.933594 8.039062 4.375 8.730469 4.375 C 9.421875 4.375 9.980469 4.933594 9.980469 5.625 L 9.980469 11.875 C 9.980469 12.566406 9.421875 13.125 8.730469 13.125 Z M 8.730469 13.125 "/>
<path style=" stroke:none;fill-rule:nonzero;fill:rgb(0%,0%,0%);fill-opacity:1;" d="M 24.980469 26.875 C 24.289062 26.875 23.730469 26.316406 23.730469 25.625 L 23.730469 13.125 C 23.730469 12.433594 24.289062 11.875 24.980469 11.875 C 25.671875 11.875 26.230469 12.433594 26.230469 13.125 L 26.230469 25.625 C 26.230469 26.316406 25.671875 26.875 24.980469 26.875 Z M 24.980469 26.875 "/>
<path style=" stroke:none;fill-rule:nonzero;fill:rgb(0%,0%,0%);fill-opacity:1;" d="M 14.980469 16.875 L 12.480469 16.875 C 11.789062 16.875 11.230469 16.316406 11.230469 15.625 C 11.230469 14.933594 11.789062 14.375 12.480469 14.375 L 14.980469 14.375 C 15.671875 14.375 16.230469 14.933594 16.230469 15.625 C 16.230469 16.316406 15.671875 16.875 14.980469 16.875 Z M 14.980469 16.875 "/>
<path style=" stroke:none;fill-rule:nonzero;fill:rgb(0%,0%,0%);fill-opacity:1;" d="M 39.902344 15.648438 C 36.273438 15.648438 33.332031 14.308594 33.207031 14.253906 C 32.582031 13.964844 32.308594 13.222656 32.597656 12.597656 C 32.882812 11.96875 33.625 11.695312 34.253906 11.980469 C 34.277344 11.992188 36.84375 13.148438 39.902344 13.148438 C 42.984375 13.148438 45.710938 11.992188 45.738281 11.980469 C 46.371094 11.707031 47.105469 12.003906 47.378906 12.636719 C 47.652344 13.269531 47.359375 14.003906 46.726562 14.277344 C 46.597656 14.332031 43.515625 15.648438 39.902344 15.648438 Z M 39.902344 15.648438 "/>
<path style=" stroke:none;fill-rule:nonzero;fill:rgb(0%,0%,0%);fill-opacity:1;" d="M 48.730469 16.878906 C 48.414062 16.878906 48.09375 16.761719 47.851562 16.515625 L 45.351562 14.042969 C 44.859375 13.554688 44.855469 12.765625 45.339844 12.273438 C 45.828125 11.785156 46.617188 11.78125 47.109375 12.265625 L 49.609375 14.742188 C 50.101562 15.226562 50.105469 16.015625 49.617188 16.507812 C 49.375 16.757812 49.050781 16.878906 48.730469 16.878906 Z M 48.730469 16.878906 "/>
<path style=" stroke:none;fill-rule:nonzero;fill:rgb(0%,0%,0%);fill-opacity:1;" d="M 31.230469 16.90625 C 30.910156 16.90625 30.589844 16.785156 30.347656 16.542969 C 29.859375 16.054688 29.855469 15.261719 30.34375 14.773438 L 32.84375 12.261719 C 33.332031 11.769531 34.125 11.769531 34.609375 12.257812 C 35.101562 12.742188 35.105469 13.535156 34.617188 14.023438 L 32.117188 16.539062 C 31.871094 16.78125 31.550781 16.90625 31.230469 16.90625 Z M 31.230469 16.90625 "/>
<path style=" stroke:none;fill-rule:nonzero;fill:rgb(0%,0%,0%);fill-opacity:1;" d="M 78.75 39.394531 L 1.25 39.394531 C 0.558594 39.394531 0 38.832031 0 38.144531 C 0 37.453125 0.558594 36.894531 1.25 36.894531 L 78.75 36.894531 C 79.441406 36.894531 80 37.453125 80 38.144531 C 80 38.832031 79.441406 39.394531 78.75 39.394531 Z M 78.75 39.394531 "/>
<path style=" stroke:none;fill-rule:nonzero;fill:rgb(0%,0%,0%);fill-opacity:1;" d="M 24.980469 43.144531 L 1.25 43.144531 C 0.558594 43.144531 0 42.582031 0 41.894531 C 0 41.203125 0.558594 40.644531 1.25 40.644531 L 24.980469 40.644531 C 25.671875 40.644531 26.230469 41.203125 26.230469 41.894531 C 26.230469 42.582031 25.671875 43.144531 24.980469 43.144531 Z M 24.980469 43.144531 "/>
<path style=" stroke:none;fill-rule:nonzero;fill:rgb(0%,0%,0%);fill-opacity:1;" d="M 28.75 73.152344 C 28.058594 73.152344 27.5 72.59375 27.5 71.902344 L 27.5 41.894531 C 27.5 41.203125 28.058594 40.644531 28.75 40.644531 C 29.441406 40.644531 30 41.203125 30 41.894531 L 30 71.902344 C 30 72.589844 29.441406 73.152344 28.75 73.152344 Z M 28.75 73.152344 "/>
<path style=" stroke:none;fill-rule:nonzero;fill:rgb(0%,0%,0%);fill-opacity:1;" d="M 24.980469 73.152344 C 24.289062 73.152344 23.730469 72.59375 23.730469 71.902344 L 23.730469 41.894531 C 23.730469 41.203125 24.289062 40.644531 24.980469 40.644531 C 25.671875 40.644531 26.230469 41.203125 26.230469 41.894531 L 26.230469 71.902344 C 26.230469 72.589844 25.671875 73.152344 24.980469 73.152344 Z M 24.980469 73.152344 "/>
<path style=" stroke:none;fill-rule:nonzero;fill:rgb(0%,0%,0%);fill-opacity:1;" d="M 54.996094 73.152344 C 54.304688 73.152344 53.746094 72.59375 53.746094 71.902344 L 53.746094 41.894531 C 53.746094 41.203125 54.304688 40.644531 54.996094 40.644531 C 55.6875 40.644531 56.246094 41.203125 56.246094 41.894531 L 56.246094 71.902344 C 56.246094 72.589844 55.6875 73.152344 54.996094 73.152344 Z M 54.996094 73.152344 "/>
<path style=" stroke:none;fill-rule:nonzero;fill:rgb(0%,0%,0%);fill-opacity:1;" d="M 51.230469 73.152344 C 50.539062 73.152344 49.980469 72.59375 49.980469 71.902344 L 49.980469 41.894531 C 49.980469 41.203125 50.539062 40.644531 51.230469 40.644531 C 51.921875 40.644531 52.480469 41.203125 52.480469 41.894531 L 52.480469 71.902344 C 52.480469 72.589844 51.921875 73.152344 51.230469 73.152344 Z M 51.230469 73.152344 "/>
<path style=" stroke:none;fill-rule:nonzero;fill:rgb(0%,0%,0%);fill-opacity:1;" d="M 51.230469 43.144531 L 28.75 43.144531 C 28.058594 43.144531 27.5 42.582031 27.5 41.894531 C 27.5 41.203125 28.058594 40.644531 28.75 40.644531 L 51.230469 40.644531 C 51.921875 40.644531 52.480469 41.203125 52.480469 41.894531 C 52.480469 42.582031 51.921875 43.144531 51.230469 43.144531 Z M 51.230469 43.144531 "/>
<path style=" stroke:none;fill-rule:nonzero;fill:rgb(0%,0%,0%);fill-opacity:1;" d="M 78.75 43.144531 L 54.996094 43.144531 C 54.304688 43.144531 53.746094 42.582031 53.746094 41.894531 C 53.746094 41.203125 54.304688 40.644531 54.996094 40.644531 L 78.75 40.644531 C 79.441406 40.644531 80 41.203125 80 41.894531 C 80 42.582031 79.441406 43.144531 78.75 43.144531 Z M 78.75 43.144531 "/>
<path style=" stroke:none;fill-rule:nonzero;fill:rgb(0%,0%,0%);fill-opacity:1;" d="M 47.5 49.394531 C 45.429688 49.394531 43.75 47.710938 43.75 45.644531 C 43.75 44.953125 44.308594 44.394531 45 44.394531 C 45.691406 44.394531 46.25 44.953125 46.25 45.644531 C 46.25 46.332031 46.808594 46.894531 47.5 46.894531 C 48.191406 46.894531 48.75 47.453125 48.75 48.144531 C 48.75 48.835938 48.191406 49.394531 47.5 49.394531 Z M 47.5 49.394531 "/>
<path style=" stroke:none;fill-rule:nonzero;fill:rgb(0%,0%,0%);fill-opacity:1;" d="M 47.5 66.894531 C 46.808594 66.894531 46.25 66.335938 46.25 65.644531 L 46.25 48.144531 C 46.25 47.453125 46.808594 46.894531 47.5 46.894531 C 48.191406 46.894531 48.75 47.453125 48.75 48.144531 L 48.75 65.644531 C 48.75 66.335938 48.191406 66.894531 47.5 66.894531 Z M 47.5 66.894531 "/>
<path style=" stroke:none;fill-rule:nonzero;fill:rgb(0%,0%,0%);fill-opacity:1;" d="M 32.5 49.394531 C 31.808594 49.394531 31.25 48.835938 31.25 48.144531 C 31.25 47.453125 31.808594 46.894531 32.5 46.894531 C 33.191406 46.894531 33.75 46.332031 33.75 45.644531 C 33.75 44.953125 34.308594 44.394531 35 44.394531 C 35.691406 44.394531 36.25 44.953125 36.25 45.644531 C 36.25 47.710938 34.566406 49.394531 32.5 49.394531 Z M 32.5 49.394531 "/>
<path style=" stroke:none;fill-rule:nonzero;fill:rgb(0%,0%,0%);fill-opacity:1;" d="M 32.5 66.894531 C 31.808594 66.894531 31.25 66.335938 31.25 65.644531 L 31.25 48.144531 C 31.25 47.453125 31.808594 46.894531 32.5 46.894531 C 33.191406 46.894531 33.75 47.453125 33.75 48.144531 L 33.75 65.644531 C 33.75 66.335938 33.191406 66.894531 32.5 66.894531 Z M 32.5 66.894531 "/>
<path style=" stroke:none;fill-rule:nonzero;fill:rgb(0%,0%,0%);fill-opacity:1;" d="M 45 46.894531 L 35 46.894531 C 34.308594 46.894531 33.75 46.335938 33.75 45.644531 C 33.75 44.953125 34.308594 44.394531 35 44.394531 L 45 44.394531 C 45.691406 44.394531 46.25 44.953125 46.25 45.644531 C 46.25 46.335938 45.691406 46.894531 45 46.894531 Z M 45 46.894531 "/>
<path style=" stroke:none;fill-rule:nonzero;fill:rgb(0%,0%,0%);fill-opacity:1;" d="M 21.230469 49.394531 C 19.164062 49.394531 17.480469 47.710938 17.480469 45.644531 C 17.480469 44.953125 18.039062 44.394531 18.730469 44.394531 C 19.421875 44.394531 19.980469 44.953125 19.980469 45.644531 C 19.980469 46.332031 20.539062 46.894531 21.230469 46.894531 C 21.921875 46.894531 22.480469 47.453125 22.480469 48.144531 C 22.480469 48.835938 21.921875 49.394531 21.230469 49.394531 Z M 21.230469 49.394531 "/>
<path style=" stroke:none;fill-rule:nonzero;fill:rgb(0%,0%,0%);fill-opacity:1;" d="M 21.230469 66.894531 C 20.539062 66.894531 19.980469 66.335938 19.980469 65.644531 L 19.980469 48.144531 C 19.980469 47.453125 20.539062 46.894531 21.230469 46.894531 C 21.921875 46.894531 22.480469 47.453125 22.480469 48.144531 L 22.480469 65.644531 C 22.480469 66.335938 21.921875 66.894531 21.230469 66.894531 Z M 21.230469 66.894531 "/>
<path style=" stroke:none;fill-rule:nonzero;fill:rgb(0%,0%,0%);fill-opacity:1;" d="M 6.230469 49.394531 C 5.539062 49.394531 4.980469 48.835938 4.980469 48.144531 C 4.980469 47.453125 5.539062 46.894531 6.230469 46.894531 C 6.921875 46.894531 7.480469 46.332031 7.480469 45.644531 C 7.480469 44.953125 8.039062 44.394531 8.730469 44.394531 C 9.421875 44.394531 9.980469 44.953125 9.980469 45.644531 C 9.980469 47.710938 8.300781 49.394531 6.230469 49.394531 Z M 6.230469 49.394531 "/>
<path style=" stroke:none;fill-rule:nonzero;fill:rgb(0%,0%,0%);fill-opacity:1;" d="M 6.230469 66.894531 C 5.539062 66.894531 4.980469 66.335938 4.980469 65.644531 L 4.980469 48.144531 C 4.980469 47.453125 5.539062 46.894531 6.230469 46.894531 C 6.921875 46.894531 7.480469 47.453125 7.480469 48.144531 L 7.480469 65.644531 C 7.480469 66.335938 6.921875 66.894531 6.230469 66.894531 Z M 6.230469 66.894531 "/>
<path style=" stroke:none;fill-rule:nonzero;fill:rgb(0%,0%,0%);fill-opacity:1;" d="M 18.730469 46.894531 L 8.730469 46.894531 C 8.039062 46.894531 7.480469 46.335938 7.480469 45.644531 C 7.480469 44.953125 8.039062 44.394531 8.730469 44.394531 L 18.730469 44.394531 C 19.421875 44.394531 19.980469 44.953125 19.980469 45.644531 C 19.980469 46.335938 19.421875 46.894531 18.730469 46.894531 Z M 18.730469 46.894531 "/>
<path style=" stroke:none;fill-rule:nonzero;fill:rgb(0%,0%,0%);fill-opacity:1;" d="M 73.75 49.394531 C 71.683594 49.394531 70 47.710938 70 45.644531 C 70 44.953125 70.558594 44.394531 71.25 44.394531 C 71.941406 44.394531 72.5 44.953125 72.5 45.644531 C 72.5 46.332031 73.058594 46.894531 73.75 46.894531 C 74.441406 46.894531 75 47.453125 75 48.144531 C 75 48.835938 74.441406 49.394531 73.75 49.394531 Z M 73.75 49.394531 "/>
<path style=" stroke:none;fill-rule:nonzero;fill:rgb(0%,0%,0%);fill-opacity:1;" d="M 73.75 66.894531 C 73.058594 66.894531 72.5 66.335938 72.5 65.644531 L 72.5 48.144531 C 72.5 47.453125 73.058594 46.894531 73.75 46.894531 C 74.441406 46.894531 75 47.453125 75 48.144531 L 75 65.644531 C 75 66.335938 74.441406 66.894531 73.75 66.894531 Z M 73.75 66.894531 "/>
<path style=" stroke:none;fill-rule:nonzero;fill:rgb(0%,0%,0%);fill-opacity:1;" d="M 58.75 49.394531 C 58.058594 49.394531 57.5 48.835938 57.5 48.144531 C 57.5 47.453125 58.058594 46.894531 58.75 46.894531 C 59.441406 46.894531 60 46.332031 60 45.644531 C 60 44.953125 60.558594 44.394531 61.25 44.394531 C 61.941406 44.394531 62.5 44.953125 62.5 45.644531 C 62.5 47.710938 60.820312 49.394531 58.75 49.394531 Z M 58.75 49.394531 "/>
<path style=" stroke:none;fill-rule:nonzero;fill:rgb(0%,0%,0%);fill-opacity:1;" d="M 58.75 66.894531 C 58.058594 66.894531 57.5 66.335938 57.5 65.644531 L 57.5 48.144531 C 57.5 47.453125 58.058594 46.894531 58.75 46.894531 C 59.441406 46.894531 60 47.453125 60 48.144531 L 60 65.644531 C 60 66.335938 59.441406 66.894531 58.75 66.894531 Z M 58.75 66.894531 "/>
<path style=" stroke:none;fill-rule:nonzero;fill:rgb(0%,0%,0%);fill-opacity:1;" d="M 71.25 46.894531 L 61.25 46.894531 C 60.558594 46.894531 60 46.335938 60 45.644531 C 60 44.953125 60.558594 44.394531 61.25 44.394531 L 71.25 44.394531 C 71.941406 44.394531 72.5 44.953125 72.5 45.644531 C 72.5 46.335938 71.941406 46.894531 71.25 46.894531 Z M 71.25 46.894531 "/>
<path style=" stroke:none;fill-rule:nonzero;fill:rgb(0%,0%,0%);fill-opacity:1;" d="M 34.980469 69.394531 C 34.292969 69.394531 33.730469 68.835938 33.730469 68.144531 C 33.730469 67.453125 33.171875 66.894531 32.480469 66.894531 C 31.792969 66.894531 31.230469 66.335938 31.230469 65.644531 C 31.230469 64.953125 31.792969 64.394531 32.480469 64.394531 C 34.550781 64.394531 36.230469 66.078125 36.230469 68.144531 C 36.230469 68.835938 35.675781 69.394531 34.980469 69.394531 Z M 34.980469 69.394531 "/>
<path style=" stroke:none;fill-rule:nonzero;fill:rgb(0%,0%,0%);fill-opacity:1;" d="M 44.980469 69.394531 C 44.289062 69.394531 43.730469 68.835938 43.730469 68.144531 C 43.730469 66.078125 45.414062 64.394531 47.480469 64.394531 C 48.171875 64.394531 48.730469 64.953125 48.730469 65.644531 C 48.730469 66.335938 48.171875 66.894531 47.480469 66.894531 C 46.792969 66.894531 46.230469 67.453125 46.230469 68.144531 C 46.230469 68.835938 45.671875 69.394531 44.980469 69.394531 Z M 44.980469 69.394531 "/>
<path style=" stroke:none;fill-rule:nonzero;fill:rgb(0%,0%,0%);fill-opacity:1;" d="M 44.980469 69.394531 L 34.980469 69.394531 C 34.292969 69.394531 33.730469 68.835938 33.730469 68.144531 C 33.730469 67.453125 34.292969 66.894531 34.980469 66.894531 L 44.980469 66.894531 C 45.671875 66.894531 46.230469 67.453125 46.230469 68.144531 C 46.230469 68.835938 45.671875 69.394531 44.980469 69.394531 Z M 44.980469 69.394531 "/>
<path style=" stroke:none;fill-rule:nonzero;fill:rgb(0%,0%,0%);fill-opacity:1;" d="M 61.25 69.394531 C 60.558594 69.394531 60 68.835938 60 68.144531 C 60 67.453125 59.441406 66.894531 58.75 66.894531 C 58.058594 66.894531 57.5 66.335938 57.5 65.644531 C 57.5 64.953125 58.058594 64.394531 58.75 64.394531 C 60.820312 64.394531 62.5 66.078125 62.5 68.144531 C 62.5 68.835938 61.941406 69.394531 61.25 69.394531 Z M 61.25 69.394531 "/>
<path style=" stroke:none;fill-rule:nonzero;fill:rgb(0%,0%,0%);fill-opacity:1;" d="M 71.25 69.394531 C 70.558594 69.394531 70 68.835938 70 68.144531 C 70 66.078125 71.683594 64.394531 73.75 64.394531 C 74.441406 64.394531 75 64.953125 75 65.644531 C 75 66.335938 74.441406 66.894531 73.75 66.894531 C 73.058594 66.894531 72.5 67.453125 72.5 68.144531 C 72.5 68.835938 71.941406 69.394531 71.25 69.394531 Z M 71.25 69.394531 "/>
<path style=" stroke:none;fill-rule:nonzero;fill:rgb(0%,0%,0%);fill-opacity:1;" d="M 71.25 69.394531 L 61.25 69.394531 C 60.558594 69.394531 60 68.835938 60 68.144531 C 60 67.453125 60.558594 66.894531 61.25 66.894531 L 71.25 66.894531 C 71.941406 66.894531 72.5 67.453125 72.5 68.144531 C 72.5 68.835938 71.941406 69.394531 71.25 69.394531 Z M 71.25 69.394531 "/>
<path style=" stroke:none;fill-rule:nonzero;fill:rgb(0%,0%,0%);fill-opacity:1;" d="M 8.730469 69.394531 C 8.039062 69.394531 7.480469 68.835938 7.480469 68.144531 C 7.480469 67.453125 6.921875 66.894531 6.230469 66.894531 C 5.539062 66.894531 4.980469 66.335938 4.980469 65.644531 C 4.980469 64.953125 5.539062 64.394531 6.230469 64.394531 C 8.300781 64.394531 9.980469 66.078125 9.980469 68.144531 C 9.980469 68.835938 9.421875 69.394531 8.730469 69.394531 Z M 8.730469 69.394531 "/>
<path style=" stroke:none;fill-rule:nonzero;fill:rgb(0%,0%,0%);fill-opacity:1;" d="M 18.730469 69.394531 C 18.039062 69.394531 17.480469 68.835938 17.480469 68.144531 C 17.480469 66.078125 19.164062 64.394531 21.230469 64.394531 C 21.921875 64.394531 22.480469 64.953125 22.480469 65.644531 C 22.480469 66.335938 21.921875 66.894531 21.230469 66.894531 C 20.539062 66.894531 19.980469 67.453125 19.980469 68.144531 C 19.980469 68.835938 19.421875 69.394531 18.730469 69.394531 Z M 18.730469 69.394531 "/>
<path style=" stroke:none;fill-rule:nonzero;fill:rgb(0%,0%,0%);fill-opacity:1;" d="M 18.730469 69.394531 L 8.730469 69.394531 C 8.039062 69.394531 7.480469 68.835938 7.480469 68.144531 C 7.480469 67.453125 8.039062 66.894531 8.730469 66.894531 L 18.730469 66.894531 C 19.421875 66.894531 19.980469 67.453125 19.980469 68.144531 C 19.980469 68.835938 19.421875 69.394531 18.730469 69.394531 Z M 18.730469 69.394531 "/>
<path style=" stroke:none;fill-rule:nonzero;fill:rgb(0%,0%,0%);fill-opacity:1;" d="M 77.5 73.152344 C 76.808594 73.152344 76.25 72.59375 76.25 71.902344 L 76.25 41.894531 C 76.25 41.203125 76.808594 40.644531 77.5 40.644531 C 78.191406 40.644531 78.75 41.203125 78.75 41.894531 L 78.75 71.902344 C 78.75 72.589844 78.191406 73.152344 77.5 73.152344 Z M 77.5 73.152344 "/>
<path style=" stroke:none;fill-rule:nonzero;fill:rgb(0%,0%,0%);fill-opacity:1;" d="M 2.480469 73.160156 C 1.789062 73.160156 1.230469 72.601562 1.230469 71.910156 L 1.230469 41.894531 C 1.230469 41.203125 1.789062 40.644531 2.480469 40.644531 C 3.171875 40.644531 3.730469 41.203125 3.730469 41.894531 L 3.730469 71.910156 C 3.730469 72.597656 3.171875 73.160156 2.480469 73.160156 Z M 2.480469 73.160156 "/>
<path style=" stroke:none;fill-rule:nonzero;fill:rgb(0%,0%,0%);fill-opacity:1;" d="M 1.25 43.144531 C 0.558594 43.144531 0 42.582031 0 41.894531 L 0 38.144531 C 0 37.453125 0.558594 36.894531 1.25 36.894531 C 1.941406 36.894531 2.5 37.453125 2.5 38.144531 L 2.5 41.894531 C 2.5 42.582031 1.941406 43.144531 1.25 43.144531 Z M 1.25 43.144531 "/>
<path style=" stroke:none;fill-rule:nonzero;fill:rgb(0%,0%,0%);fill-opacity:1;" d="M 78.75 43.144531 C 78.058594 43.144531 77.5 42.582031 77.5 41.894531 L 77.5 38.144531 C 77.5 37.453125 78.058594 36.894531 78.75 36.894531 C 79.441406 36.894531 80 37.453125 80 38.144531 L 80 41.894531 C 80 42.582031 79.441406 43.144531 78.75 43.144531 Z M 78.75 43.144531 "/>
<path style=" stroke:none;fill-rule:nonzero;fill:rgb(0%,0%,0%);fill-opacity:1;" d="M 78.75 78.148438 L 1.25 78.148438 C 0.558594 78.148438 0 77.589844 0 76.898438 L 0 71.898438 C 0 71.207031 0.558594 70.648438 1.25 70.648438 L 78.75 70.648438 C 79.441406 70.648438 80 71.207031 80 71.898438 L 80 76.898438 C 80 77.589844 79.441406 78.148438 78.75 78.148438 Z M 2.5 75.648438 L 77.5 75.648438 L 77.5 73.148438 L 2.5 73.148438 Z M 2.5 75.648438 "/>
</g>
</svg>
