<?xml version="1.0" encoding="UTF-8"?>
<svg xmlns="http://www.w3.org/2000/svg" xmlns:xlink="http://www.w3.org/1999/xlink" width="80pt" height="80pt" viewBox="0 0 80 80" version="1.1">
<g id="surface1">
<path style=" stroke:none;fill-rule:nonzero;fill:rgb(0%,0%,0%);fill-opacity:1;" d="M 3.75 8.75 C 3.058594 8.75 2.5 8.191406 2.5 7.5 C 2.5 3.363281 5.863281 0 10 0 C 10.691406 0 11.25 0.558594 11.25 1.25 C 11.25 1.941406 10.691406 2.5 10 2.5 C 7.242188 2.5 5 4.742188 5 7.5 C 5 8.191406 4.441406 8.75 3.75 8.75 Z M 3.75 8.75 "/>
<path style=" stroke:none;fill-rule:nonzero;fill:rgb(0%,0%,0%);fill-opacity:1;" d="M 63.75 8.75 C 63.058594 8.75 62.5 8.191406 62.5 7.5 C 62.5 4.742188 60.257812 2.5 57.5 2.5 C 54.742188 2.5 52.5 4.742188 52.5 7.5 C 52.5 8.191406 51.941406 8.75 51.25 8.75 C 50.558594 8.75 50 8.191406 50 7.5 C 50 3.363281 53.363281 0 57.5 0 C 61.636719 0 65 3.363281 65 7.5 C 65 8.191406 64.441406 8.75 63.75 8.75 Z M 63.75 8.75 "/>
<path style=" stroke:none;fill-rule:nonzero;fill:rgb(0%,0%,0%);fill-opacity:1;" d="M 57.5 2.5 L 10 2.5 C 9.308594 2.5 8.75 1.941406 8.75 1.25 C 8.75 0.558594 9.308594 0 10 0 L 57.5 0 C 58.191406 0 58.75 0.558594 58.75 1.25 C 58.75 1.941406 58.191406 2.5 57.5 2.5 Z M 57.5 2.5 "/>
<path style=" stroke:none;fill-rule:nonzero;fill:rgb(0%,0%,0%);fill-opacity:1;" d="M 51.25 8.75 L 3.75 8.75 C 3.058594 8.75 2.5 8.191406 2.5 7.5 C 2.5 6.808594 3.058594 6.25 3.75 6.25 L 51.25 6.25 C 51.941406 6.25 52.5 6.808594 52.5 7.5 C 52.5 8.191406 51.941406 8.75 51.25 8.75 Z M 51.25 8.75 "/>
<path style=" stroke:none;fill-rule:nonzero;fill:rgb(0%,0%,0%);fill-opacity:1;" d="M 22.5 75 C 18.363281 75 15 71.636719 15 67.5 C 15 66.808594 15.558594 66.25 16.25 66.25 C 16.941406 66.25 17.5 66.808594 17.5 67.5 C 17.5 70.257812 19.742188 72.5 22.5 72.5 C 23.191406 72.5 23.75 73.058594 23.75 73.75 C 23.75 74.441406 23.191406 75 22.5 75 Z M 22.5 75 "/>
<path style=" stroke:none;fill-rule:nonzero;fill:rgb(0%,0%,0%);fill-opacity:1;" d="M 70 75 C 65.863281 75 62.5 71.636719 62.5 67.5 C 62.5 66.808594 63.058594 66.25 63.75 66.25 C 64.441406 66.25 65 66.808594 65 67.5 C 65 70.257812 67.242188 72.5 70 72.5 C 72.757812 72.5 75 70.257812 75 67.5 C 75 66.808594 75.558594 66.25 76.25 66.25 C 76.941406 66.25 77.5 66.808594 77.5 67.5 C 77.5 71.636719 74.136719 75 70 75 Z M 70 75 "/>
<path style=" stroke:none;fill-rule:nonzero;fill:rgb(0%,0%,0%);fill-opacity:1;" d="M 47.5 75 L 22.5 75 C 21.808594 75 21.25 74.441406 21.25 73.75 C 21.25 73.058594 21.808594 72.5 22.5 72.5 L 47.5 72.5 C 48.191406 72.5 48.75 73.058594 48.75 73.75 C 48.75 74.441406 48.191406 75 47.5 75 Z M 47.5 75 "/>
<path style=" stroke:none;fill-rule:nonzero;fill:rgb(0%,0%,0%);fill-opacity:1;" d="M 63.75 68.75 C 63.058594 68.75 62.5 68.191406 62.5 67.5 L 62.5 7.5 C 62.5 6.808594 63.058594 6.25 63.75 6.25 C 64.441406 6.25 65 6.808594 65 7.5 L 65 67.5 C 65 68.191406 64.441406 68.75 63.75 68.75 Z M 63.75 68.75 "/>
<path style=" stroke:none;fill-rule:nonzero;fill:rgb(0%,0%,0%);fill-opacity:1;" d="M 16.25 68.75 C 15.558594 68.75 15 68.191406 15 67.5 L 15 7.5 C 15 6.808594 15.558594 6.25 16.25 6.25 C 16.941406 6.25 17.5 6.808594 17.5 7.5 L 17.5 67.5 C 17.5 68.191406 16.941406 68.75 16.25 68.75 Z M 16.25 68.75 "/>
<path style=" stroke:none;fill-rule:nonzero;fill:rgb(0%,0%,0%);fill-opacity:1;" d="M 76.25 68.75 L 63.75 68.75 C 63.058594 68.75 62.5 68.191406 62.5 67.5 C 62.5 66.808594 63.058594 66.25 63.75 66.25 L 76.25 66.25 C 76.941406 66.25 77.5 66.808594 77.5 67.5 C 77.5 68.191406 76.941406 68.75 76.25 68.75 Z M 76.25 68.75 "/>
<path style=" stroke:none;fill-rule:nonzero;fill:rgb(0%,0%,0%);fill-opacity:1;" d="M 51.25 72.5 C 50.070312 72.5 48.964844 72.015625 48.171875 71.171875 C 46.984375 71.199219 45.886719 70.757812 45.0625 69.933594 C 44.226562 69.101562 43.792969 67.980469 43.824219 66.824219 C 42.984375 66.027344 42.5 64.925781 42.5 63.75 C 42.5 62.570312 42.984375 61.46875 43.824219 60.671875 C 43.792969 59.515625 44.230469 58.398438 45.0625 57.5625 C 45.890625 56.738281 47.042969 56.28125 48.171875 56.328125 C 48.96875 55.484375 50.074219 55 51.25 55 C 52.425781 55 53.53125 55.484375 54.328125 56.328125 C 55.503906 56.289062 56.613281 56.738281 57.4375 57.5625 C 58.269531 58.394531 58.707031 59.515625 58.675781 60.671875 C 59.515625 61.46875 60 62.570312 60 63.75 C 60 64.925781 59.515625 66.03125 58.675781 66.828125 C 58.707031 67.980469 58.269531 69.101562 57.4375 69.933594 C 56.636719 70.734375 55.574219 71.175781 54.441406 71.175781 C 54.402344 71.175781 54.363281 71.175781 54.328125 71.171875 C 53.53125 72.015625 52.425781 72.5 51.25 72.5 Z M 48.722656 68.601562 C 49.140625 68.601562 49.542969 68.816406 49.777344 69.183594 C 50.425781 70.207031 52.074219 70.207031 52.726562 69.179688 C 53.011719 68.738281 53.539062 68.523438 54.050781 68.632812 C 54.179688 68.664062 54.308594 68.675781 54.441406 68.675781 C 54.90625 68.675781 55.34375 68.496094 55.671875 68.171875 C 56.09375 67.746094 56.265625 67.144531 56.132812 66.550781 C 56.019531 66.039062 56.238281 65.507812 56.679688 65.226562 C 57.195312 64.898438 57.5 64.347656 57.5 63.75 C 57.5 63.152344 57.195312 62.601562 56.683594 62.273438 C 56.242188 61.992188 56.019531 61.464844 56.132812 60.949219 C 56.265625 60.355469 56.09375 59.75 55.671875 59.328125 C 55.253906 58.910156 54.640625 58.734375 54.050781 58.867188 C 53.542969 58.980469 53.011719 58.761719 52.726562 58.320312 C 52.074219 57.292969 50.429688 57.292969 49.773438 58.320312 C 49.492188 58.761719 48.964844 58.980469 48.449219 58.867188 C 47.871094 58.730469 47.25 58.910156 46.828125 59.328125 C 46.410156 59.75 46.234375 60.355469 46.367188 60.949219 C 46.480469 61.460938 46.261719 61.992188 45.820312 62.273438 C 45.304688 62.601562 45 63.152344 45 63.75 C 45 64.347656 45.304688 64.898438 45.820312 65.226562 C 46.261719 65.507812 46.480469 66.035156 46.367188 66.550781 C 46.234375 67.140625 46.40625 67.746094 46.828125 68.167969 C 47.246094 68.585938 47.859375 68.765625 48.453125 68.632812 C 48.542969 68.613281 48.632812 68.601562 48.722656 68.601562 Z M 48.722656 68.601562 "/>
<path style=" stroke:none;fill-rule:nonzero;fill:rgb(0%,0%,0%);fill-opacity:1;" d="M 51.289062 67.421875 C 49.242188 67.421875 47.578125 65.757812 47.578125 63.710938 C 47.578125 61.664062 49.242188 60 51.289062 60 C 53.332031 60 55 61.664062 55 63.710938 C 55 65.757812 53.335938 67.421875 51.289062 67.421875 Z M 51.289062 62.5 C 50.621094 62.5 50.078125 63.042969 50.078125 63.710938 C 50.078125 64.378906 50.621094 64.921875 51.289062 64.921875 C 51.957031 64.921875 52.5 64.378906 52.5 63.710938 C 52.5 63.042969 51.957031 62.5 51.289062 62.5 Z M 51.289062 62.5 "/>
<path style=" stroke:none;fill-rule:nonzero;fill:rgb(0%,0%,0%);fill-opacity:1;" d="M 47.5 80 C 46.808594 80 46.25 79.441406 46.25 78.75 L 46.25 69.871094 C 46.25 69.179688 46.808594 68.621094 47.5 68.621094 C 48.191406 68.621094 48.75 69.179688 48.75 69.871094 L 48.75 78.75 C 48.75 79.441406 48.191406 80 47.5 80 Z M 47.5 80 "/>
<path style=" stroke:none;fill-rule:nonzero;fill:rgb(0%,0%,0%);fill-opacity:1;" d="M 55 80 C 54.308594 80 53.75 79.441406 53.75 78.75 L 53.75 69.871094 C 53.75 69.179688 54.308594 68.621094 55 68.621094 C 55.691406 68.621094 56.25 69.179688 56.25 69.871094 L 56.25 78.75 C 56.25 79.441406 55.691406 80 55 80 Z M 55 80 "/>
<path style=" stroke:none;fill-rule:nonzero;fill:rgb(0%,0%,0%);fill-opacity:1;" d="M 47.5 80 C 46.976562 80 46.488281 79.667969 46.316406 79.144531 C 46.097656 78.488281 46.449219 77.78125 47.105469 77.5625 L 50.855469 76.3125 C 51.515625 76.09375 52.21875 76.449219 52.4375 77.105469 C 52.65625 77.757812 52.300781 78.46875 51.644531 78.683594 L 47.894531 79.933594 C 47.765625 79.980469 47.628906 80 47.5 80 Z M 47.5 80 "/>
<path style=" stroke:none;fill-rule:nonzero;fill:rgb(0%,0%,0%);fill-opacity:1;" d="M 55 80 C 54.871094 80 54.734375 79.980469 54.605469 79.933594 L 50.855469 78.683594 C 50.203125 78.46875 49.847656 77.761719 50.066406 77.105469 C 50.285156 76.449219 50.984375 76.09375 51.644531 76.3125 L 55.394531 77.5625 C 56.050781 77.78125 56.40625 78.488281 56.1875 79.144531 C 56.011719 79.667969 55.523438 80 55 80 Z M 55 80 "/>
<path style=" stroke:none;fill-rule:nonzero;fill:rgb(0%,0%,0%);fill-opacity:1;" d="M 70 75 L 55 75 C 54.308594 75 53.75 74.441406 53.75 73.75 C 53.75 73.058594 54.308594 72.5 55 72.5 L 70 72.5 C 70.691406 72.5 71.25 73.058594 71.25 73.75 C 71.25 74.441406 70.691406 75 70 75 Z M 70 75 "/>
<path style=" stroke:none;fill-rule:nonzero;fill:rgb(0%,0%,0%);fill-opacity:1;" d="M 55 46.273438 L 25 46.273438 C 24.308594 46.273438 23.75 45.714844 23.75 45.023438 C 23.75 44.332031 24.308594 43.773438 25 43.773438 L 55 43.773438 C 55.691406 43.773438 56.25 44.332031 56.25 45.023438 C 56.25 45.714844 55.691406 46.273438 55 46.273438 Z M 55 46.273438 "/>
<path style=" stroke:none;fill-rule:nonzero;fill:rgb(0%,0%,0%);fill-opacity:1;" d="M 40.019531 51.277344 L 25 51.277344 C 24.308594 51.277344 23.75 50.71875 23.75 50.027344 C 23.75 49.335938 24.308594 48.777344 25 48.777344 L 40.019531 48.777344 C 40.710938 48.777344 41.269531 49.335938 41.269531 50.027344 C 41.269531 50.71875 40.710938 51.277344 40.019531 51.277344 Z M 40.019531 51.277344 "/>
<path style=" stroke:none;fill-rule:nonzero;fill:rgb(0%,0%,0%);fill-opacity:1;" d="M 55 41.269531 L 25 41.269531 C 24.308594 41.269531 23.75 40.710938 23.75 40.019531 C 23.75 39.328125 24.308594 38.769531 25 38.769531 L 55 38.769531 C 55.691406 38.769531 56.25 39.328125 56.25 40.019531 C 56.25 40.710938 55.691406 41.269531 55 41.269531 Z M 55 41.269531 "/>
<path style=" stroke:none;fill-rule:nonzero;fill:rgb(0%,0%,0%);fill-opacity:1;" d="M 55 36.269531 L 25 36.269531 C 24.308594 36.269531 23.75 35.707031 23.75 35.019531 C 23.75 34.328125 24.308594 33.769531 25 33.769531 L 55 33.769531 C 55.691406 33.769531 56.25 34.328125 56.25 35.019531 C 56.25 35.707031 55.691406 36.269531 55 36.269531 Z M 55 36.269531 "/>
<path style=" stroke:none;fill-rule:nonzero;fill:rgb(0%,0%,0%);fill-opacity:1;" d="M 35.019531 27.519531 L 25.019531 27.519531 C 24.328125 27.519531 23.769531 26.960938 23.769531 26.269531 C 23.769531 25.578125 24.328125 25.019531 25.019531 25.019531 L 35.019531 25.019531 C 35.710938 25.019531 36.269531 25.578125 36.269531 26.269531 C 36.269531 26.960938 35.710938 27.519531 35.019531 27.519531 Z M 35.019531 27.519531 "/>
<path style=" stroke:none;fill-rule:nonzero;fill:rgb(0%,0%,0%);fill-opacity:1;" d="M 30.019531 27.519531 C 29.328125 27.519531 28.769531 26.960938 28.769531 26.269531 L 28.769531 15.019531 C 28.769531 14.328125 29.328125 13.769531 30.019531 13.769531 C 30.710938 13.769531 31.269531 14.328125 31.269531 15.019531 L 31.269531 26.269531 C 31.269531 26.960938 30.710938 27.519531 30.019531 27.519531 Z M 30.019531 27.519531 "/>
<path style=" stroke:none;fill-rule:nonzero;fill:rgb(0%,0%,0%);fill-opacity:1;" d="M 35.019531 17.519531 L 25.019531 17.519531 C 24.328125 17.519531 23.769531 16.960938 23.769531 16.269531 C 23.769531 15.578125 24.328125 15.019531 25.019531 15.019531 L 35.019531 15.019531 C 35.710938 15.019531 36.269531 15.578125 36.269531 16.269531 C 36.269531 16.960938 35.710938 17.519531 35.019531 17.519531 Z M 35.019531 17.519531 "/>
<path style=" stroke:none;fill-rule:nonzero;fill:rgb(0%,0%,0%);fill-opacity:1;" d="M 36.269531 21.269531 L 33.769531 21.269531 C 33.078125 21.269531 32.519531 20.710938 32.519531 20.019531 C 32.519531 19.328125 33.078125 18.769531 33.769531 18.769531 L 36.269531 18.769531 C 36.960938 18.769531 37.519531 19.328125 37.519531 20.019531 C 37.519531 20.710938 36.960938 21.269531 36.269531 21.269531 Z M 36.269531 21.269531 "/>
<path style=" stroke:none;fill-rule:nonzero;fill:rgb(0%,0%,0%);fill-opacity:1;" d="M 26.269531 21.269531 L 23.769531 21.269531 C 23.078125 21.269531 22.519531 20.710938 22.519531 20.019531 C 22.519531 19.328125 23.078125 18.769531 23.769531 18.769531 L 26.269531 18.769531 C 26.960938 18.769531 27.519531 19.328125 27.519531 20.019531 C 27.519531 20.710938 26.960938 21.269531 26.269531 21.269531 Z M 26.269531 21.269531 "/>
</g>
</svg>
