<?xml version="1.0" encoding="UTF-8"?>
<svg xmlns="http://www.w3.org/2000/svg" xmlns:xlink="http://www.w3.org/1999/xlink" width="80pt" height="80pt" viewBox="0 0 80 80" version="1.1">
<g id="surface1">
<path style=" stroke:none;fill-rule:nonzero;fill:rgb(0%,0%,0%);fill-opacity:1;" d="M 38.722656 60.113281 C 38.628906 60.113281 38.535156 60.101562 38.4375 60.078125 L 0.964844 51.332031 C 0.398438 51.199219 0 50.695312 0 50.113281 C 0 49.53125 0.398438 49.027344 0.964844 48.898438 L 38.4375 40.144531 C 38.625 40.101562 38.820312 40.101562 39.007812 40.144531 L 76.5 48.898438 C 77.066406 49.027344 77.464844 49.53125 77.464844 50.113281 C 77.464844 50.695312 77.066406 51.199219 76.5 51.332031 L 39.007812 60.078125 C 38.914062 60.101562 38.820312 60.113281 38.722656 60.113281 Z M 6.746094 50.113281 L 38.722656 57.578125 L 70.71875 50.113281 L 38.722656 42.644531 Z M 6.746094 50.113281 "/>
<path style=" stroke:none;fill-rule:nonzero;fill:rgb(0%,0%,0%);fill-opacity:1;" d="M 73.742188 67.625 C 73.625 67.625 73.511719 67.609375 73.398438 67.578125 C 72.734375 67.386719 72.347656 66.695312 72.539062 66.03125 L 75.035156 57.28125 C 75.222656 56.617188 75.921875 56.242188 76.578125 56.421875 C 77.242188 56.613281 77.628906 57.304688 77.4375 57.96875 L 74.941406 66.71875 C 74.785156 67.265625 74.285156 67.625 73.742188 67.625 Z M 73.742188 67.625 "/>
<path style=" stroke:none;fill-rule:nonzero;fill:rgb(0%,0%,0%);fill-opacity:1;" d="M 78.71875 67.625 C 78.171875 67.625 77.671875 67.265625 77.515625 66.714844 L 75.035156 57.964844 C 74.847656 57.300781 75.230469 56.609375 75.894531 56.421875 C 76.554688 56.230469 77.25 56.617188 77.4375 57.28125 L 79.917969 66.03125 C 80.109375 66.695312 79.722656 67.386719 79.058594 67.574219 C 78.945312 67.609375 78.832031 67.625 78.71875 67.625 Z M 78.71875 67.625 "/>
<path style=" stroke:none;fill-rule:nonzero;fill:rgb(0%,0%,0%);fill-opacity:1;" d="M 78.71875 67.625 L 73.738281 67.625 C 73.046875 67.625 72.488281 67.066406 72.488281 66.375 C 72.488281 65.683594 73.046875 65.125 73.738281 65.125 L 78.71875 65.125 C 79.410156 65.125 79.96875 65.683594 79.96875 66.375 C 79.96875 67.066406 79.410156 67.625 78.71875 67.625 Z M 78.71875 67.625 "/>
<path style=" stroke:none;fill-rule:nonzero;fill:rgb(0%,0%,0%);fill-opacity:1;" d="M 36.816406 43.042969 C 36.125 43.042969 35.566406 42.484375 35.566406 41.792969 L 35.566406 13.882812 C 35.566406 13.195312 36.125 12.632812 36.816406 12.632812 C 37.507812 12.632812 38.066406 13.195312 38.066406 13.882812 L 38.066406 41.792969 C 38.066406 42.484375 37.507812 43.042969 36.816406 43.042969 Z M 36.816406 43.042969 "/>
<path style=" stroke:none;fill-rule:nonzero;fill:rgb(0%,0%,0%);fill-opacity:1;" d="M 40.566406 43.042969 C 39.875 43.042969 39.316406 42.484375 39.316406 41.792969 L 39.316406 13.882812 C 39.316406 13.195312 39.875 12.632812 40.566406 12.632812 C 41.257812 12.632812 41.816406 13.195312 41.816406 13.882812 L 41.816406 41.792969 C 41.816406 42.484375 41.257812 43.042969 40.566406 43.042969 Z M 40.566406 43.042969 "/>
<path style=" stroke:none;fill-rule:nonzero;fill:rgb(0%,0%,0%);fill-opacity:1;" d="M 40.566406 9.511719 C 39.875 9.511719 39.316406 8.949219 39.316406 8.261719 C 39.316406 7.914062 39.035156 7.636719 38.691406 7.636719 C 38.347656 7.636719 38.066406 7.914062 38.066406 8.261719 C 38.066406 8.949219 37.507812 9.511719 36.816406 9.511719 C 36.125 9.511719 35.566406 8.949219 35.566406 8.261719 C 35.566406 6.539062 36.96875 5.136719 38.691406 5.136719 C 40.414062 5.136719 41.816406 6.539062 41.816406 8.261719 C 41.816406 8.949219 41.257812 9.511719 40.566406 9.511719 Z M 40.566406 9.511719 "/>
<path style=" stroke:none;fill-rule:nonzero;fill:rgb(0%,0%,0%);fill-opacity:1;" d="M 55.582031 15.132812 C 54.890625 15.132812 54.332031 14.574219 54.332031 13.882812 C 54.332031 13.195312 54.890625 12.632812 55.582031 12.632812 C 55.925781 12.632812 56.207031 12.355469 56.207031 12.011719 C 56.207031 11.664062 55.925781 11.386719 55.582031 11.386719 C 54.890625 11.386719 54.332031 10.824219 54.332031 10.136719 C 54.332031 9.445312 54.890625 8.886719 55.582031 8.886719 C 57.304688 8.886719 58.707031 10.285156 58.707031 12.011719 C 58.707031 13.730469 57.304688 15.132812 55.582031 15.132812 Z M 55.582031 15.132812 "/>
<path style=" stroke:none;fill-rule:nonzero;fill:rgb(0%,0%,0%);fill-opacity:1;" d="M 21.835938 15.132812 C 20.113281 15.132812 18.710938 13.730469 18.710938 12.011719 C 18.710938 10.285156 20.113281 8.886719 21.835938 8.886719 C 22.527344 8.886719 23.085938 9.445312 23.085938 10.136719 C 23.085938 10.824219 22.527344 11.386719 21.835938 11.386719 C 21.492188 11.386719 21.210938 11.664062 21.210938 12.011719 C 21.210938 12.355469 21.492188 12.632812 21.835938 12.632812 C 22.527344 12.632812 23.085938 13.195312 23.085938 13.882812 C 23.085938 14.574219 22.527344 15.132812 21.835938 15.132812 Z M 21.835938 15.132812 "/>
<path style=" stroke:none;fill-rule:nonzero;fill:rgb(0%,0%,0%);fill-opacity:1;" d="M 55.582031 11.386719 L 21.917969 11.386719 C 21.226562 11.386719 20.667969 10.824219 20.667969 10.136719 C 20.667969 9.445312 21.226562 8.886719 21.917969 8.886719 L 55.582031 8.886719 C 56.273438 8.886719 56.832031 9.445312 56.832031 10.136719 C 56.832031 10.824219 56.269531 11.386719 55.582031 11.386719 Z M 55.582031 11.386719 "/>
<path style=" stroke:none;fill-rule:nonzero;fill:rgb(0%,0%,0%);fill-opacity:1;" d="M 55.582031 15.132812 L 21.917969 15.132812 C 21.226562 15.132812 20.667969 14.574219 20.667969 13.882812 C 20.667969 13.195312 21.226562 12.632812 21.917969 12.632812 L 55.582031 12.632812 C 56.273438 12.632812 56.832031 13.195312 56.832031 13.882812 C 56.832031 14.574219 56.269531 15.132812 55.582031 15.132812 Z M 55.582031 15.132812 "/>
<path style=" stroke:none;fill-rule:nonzero;fill:rgb(0%,0%,0%);fill-opacity:1;" d="M 36.816406 11.386719 C 36.125 11.386719 35.566406 10.824219 35.566406 10.136719 L 35.566406 8.261719 C 35.566406 7.570312 36.125 7.011719 36.816406 7.011719 C 37.507812 7.011719 38.066406 7.570312 38.066406 8.261719 L 38.066406 10.136719 C 38.066406 10.824219 37.507812 11.386719 36.816406 11.386719 Z M 36.816406 11.386719 "/>
<path style=" stroke:none;fill-rule:nonzero;fill:rgb(0%,0%,0%);fill-opacity:1;" d="M 40.566406 11.386719 C 39.875 11.386719 39.316406 10.824219 39.316406 10.136719 L 39.316406 8.261719 C 39.316406 7.570312 39.875 7.011719 40.566406 7.011719 C 41.257812 7.011719 41.816406 7.570312 41.816406 8.261719 L 41.816406 10.136719 C 41.816406 10.824219 41.257812 11.386719 40.566406 11.386719 Z M 40.566406 11.386719 "/>
<path style=" stroke:none;fill-rule:nonzero;fill:rgb(0%,0%,0%);fill-opacity:1;" d="M 22.460938 36.386719 C 19.015625 36.386719 16.210938 33.582031 16.210938 30.136719 C 16.210938 29.445312 16.769531 28.886719 17.460938 28.886719 C 18.152344 28.886719 18.710938 29.445312 18.710938 30.136719 C 18.710938 32.203125 20.394531 33.886719 22.460938 33.886719 C 24.527344 33.886719 26.210938 32.203125 26.210938 30.136719 C 26.210938 29.445312 26.769531 28.886719 27.460938 28.886719 C 28.152344 28.886719 28.710938 29.445312 28.710938 30.136719 C 28.710938 33.582031 25.90625 36.386719 22.460938 36.386719 Z M 22.460938 36.386719 "/>
<path style=" stroke:none;fill-rule:nonzero;fill:rgb(0%,0%,0%);fill-opacity:1;" d="M 27.460938 31.386719 L 17.460938 31.386719 C 16.769531 31.386719 16.210938 30.824219 16.210938 30.136719 C 16.210938 29.445312 16.769531 28.886719 17.460938 28.886719 L 27.460938 28.886719 C 28.152344 28.886719 28.710938 29.445312 28.710938 30.136719 C 28.710938 30.824219 28.148438 31.386719 27.460938 31.386719 Z M 27.460938 31.386719 "/>
<path style=" stroke:none;fill-rule:nonzero;fill:rgb(0%,0%,0%);fill-opacity:1;" d="M 17.460938 31.386719 C 17.339844 31.386719 17.214844 31.367188 17.09375 31.328125 C 16.433594 31.128906 16.0625 30.425781 16.265625 29.765625 L 21.269531 13.515625 C 21.472656 12.855469 22.171875 12.484375 22.832031 12.6875 C 23.492188 12.890625 23.859375 13.589844 23.65625 14.25 L 18.65625 30.503906 C 18.488281 31.039062 17.996094 31.386719 17.460938 31.386719 Z M 17.460938 31.386719 "/>
<path style=" stroke:none;fill-rule:nonzero;fill:rgb(0%,0%,0%);fill-opacity:1;" d="M 27.460938 31.386719 C 26.925781 31.386719 26.429688 31.039062 26.265625 30.503906 L 21.269531 14.25 C 21.066406 13.589844 21.4375 12.890625 22.097656 12.6875 C 22.757812 12.484375 23.453125 12.855469 23.65625 13.515625 L 28.65625 29.765625 C 28.855469 30.425781 28.488281 31.125 27.828125 31.328125 C 27.703125 31.367188 27.578125 31.386719 27.460938 31.386719 Z M 27.460938 31.386719 "/>
<path style=" stroke:none;fill-rule:nonzero;fill:rgb(0%,0%,0%);fill-opacity:1;" d="M 54.988281 36.386719 C 51.542969 36.386719 48.738281 33.582031 48.738281 30.136719 C 48.738281 29.445312 49.296875 28.886719 49.988281 28.886719 C 50.679688 28.886719 51.238281 29.445312 51.238281 30.136719 C 51.238281 32.203125 52.917969 33.886719 54.988281 33.886719 C 57.054688 33.886719 58.738281 32.203125 58.738281 30.136719 C 58.738281 29.445312 59.296875 28.886719 59.988281 28.886719 C 60.675781 28.886719 61.238281 29.445312 61.238281 30.136719 C 61.238281 33.582031 58.433594 36.386719 54.988281 36.386719 Z M 54.988281 36.386719 "/>
<path style=" stroke:none;fill-rule:nonzero;fill:rgb(0%,0%,0%);fill-opacity:1;" d="M 59.988281 31.386719 L 49.988281 31.386719 C 49.296875 31.386719 48.738281 30.824219 48.738281 30.136719 C 48.738281 29.445312 49.296875 28.886719 49.988281 28.886719 L 59.988281 28.886719 C 60.675781 28.886719 61.238281 29.445312 61.238281 30.136719 C 61.238281 30.824219 60.675781 31.386719 59.988281 31.386719 Z M 59.988281 31.386719 "/>
<path style=" stroke:none;fill-rule:nonzero;fill:rgb(0%,0%,0%);fill-opacity:1;" d="M 49.988281 31.386719 C 49.867188 31.386719 49.742188 31.367188 49.621094 31.328125 C 48.960938 31.128906 48.589844 30.425781 48.792969 29.765625 L 53.792969 13.515625 C 54 12.855469 54.695312 12.484375 55.355469 12.6875 C 56.015625 12.890625 56.386719 13.589844 56.183594 14.25 L 51.183594 30.503906 C 51.015625 31.039062 50.523438 31.386719 49.988281 31.386719 Z M 49.988281 31.386719 "/>
<path style=" stroke:none;fill-rule:nonzero;fill:rgb(0%,0%,0%);fill-opacity:1;" d="M 59.988281 31.386719 C 59.453125 31.386719 58.957031 31.039062 58.792969 30.503906 L 53.792969 14.25 C 53.59375 13.589844 53.960938 12.894531 54.621094 12.691406 C 55.28125 12.488281 55.980469 12.859375 56.183594 13.515625 L 61.179688 29.769531 C 61.382812 30.429688 61.015625 31.128906 60.355469 31.332031 C 60.230469 31.367188 60.109375 31.386719 59.988281 31.386719 Z M 59.988281 31.386719 "/>
<path style=" stroke:none;fill-rule:nonzero;fill:rgb(0%,0%,0%);fill-opacity:1;" d="M 18.742188 71.363281 C 18.050781 71.363281 17.492188 70.804688 17.492188 70.113281 L 17.492188 54.199219 C 17.492188 53.507812 18.050781 52.949219 18.742188 52.949219 C 19.433594 52.949219 19.992188 53.507812 19.992188 54.199219 L 19.992188 70.113281 C 19.992188 70.804688 19.433594 71.363281 18.742188 71.363281 Z M 18.742188 71.363281 "/>
<path style=" stroke:none;fill-rule:nonzero;fill:rgb(0%,0%,0%);fill-opacity:1;" d="M 58.722656 71.363281 C 58.03125 71.363281 57.472656 70.804688 57.472656 70.113281 L 57.472656 54.195312 C 57.472656 53.503906 58.03125 52.945312 58.722656 52.945312 C 59.414062 52.945312 59.972656 53.503906 59.972656 54.195312 L 59.972656 70.113281 C 59.972656 70.804688 59.414062 71.363281 58.722656 71.363281 Z M 58.722656 71.363281 "/>
<path style=" stroke:none;fill-rule:nonzero;fill:rgb(0%,0%,0%);fill-opacity:1;" d="M 54.988281 75.117188 C 54.296875 75.117188 53.738281 74.558594 53.738281 73.867188 C 53.738281 73.175781 54.296875 72.617188 54.988281 72.617188 C 56.378906 72.617188 57.507812 71.488281 57.507812 70.097656 C 57.507812 69.40625 58.066406 68.847656 58.757812 68.847656 C 59.449219 68.847656 60.007812 69.40625 60.007812 70.097656 C 60.007812 72.867188 57.757812 75.117188 54.988281 75.117188 Z M 54.988281 75.117188 "/>
<path style=" stroke:none;fill-rule:nonzero;fill:rgb(0%,0%,0%);fill-opacity:1;" d="M 54.960938 75.101562 L 22.488281 75.101562 C 21.796875 75.101562 21.238281 74.542969 21.238281 73.851562 C 21.238281 73.160156 21.796875 72.601562 22.488281 72.601562 L 54.960938 72.601562 C 55.652344 72.601562 56.210938 73.160156 56.210938 73.851562 C 56.210938 74.542969 55.652344 75.101562 54.960938 75.101562 Z M 54.960938 75.101562 "/>
<path style=" stroke:none;fill-rule:nonzero;fill:rgb(0%,0%,0%);fill-opacity:1;" d="M 22.488281 75.117188 C 19.71875 75.117188 17.46875 72.867188 17.46875 70.097656 C 17.46875 69.40625 18.027344 68.847656 18.71875 68.847656 C 19.410156 68.847656 19.96875 69.40625 19.96875 70.097656 C 19.96875 71.488281 21.097656 72.617188 22.488281 72.617188 C 23.179688 72.617188 23.738281 73.175781 23.738281 73.867188 C 23.738281 74.558594 23.179688 75.117188 22.488281 75.117188 Z M 22.488281 75.117188 "/>
<path style=" stroke:none;fill-rule:nonzero;fill:rgb(0%,0%,0%);fill-opacity:1;" d="M 76.238281 58.875 C 75.546875 58.875 74.988281 58.316406 74.988281 57.625 L 74.988281 50.113281 C 74.988281 49.421875 75.546875 48.863281 76.238281 48.863281 C 76.925781 48.863281 77.488281 49.421875 77.488281 50.113281 L 77.488281 57.625 C 77.488281 58.316406 76.925781 58.875 76.238281 58.875 Z M 76.238281 58.875 "/>
<path style=" stroke:none;fill-rule:nonzero;fill:rgb(0%,0%,0%);fill-opacity:1;" d="M 53.742188 70.125 L 23.746094 70.125 C 23.054688 70.125 22.496094 69.566406 22.496094 68.875 C 22.496094 68.183594 23.054688 67.625 23.746094 67.625 L 53.742188 67.625 C 54.433594 67.625 54.992188 68.183594 54.992188 68.875 C 54.992188 69.566406 54.433594 70.125 53.742188 70.125 Z M 53.742188 70.125 "/>
</g>
</svg>
