<?xml version="1.0" encoding="UTF-8" standalone="no"?>
<!-- Generator: Adobe Illustrator 22.1.0, SVG Export Plug-In . SVG Version: 6.00 Build 0)  -->

<svg
   xmlns:dc="http://purl.org/dc/elements/1.1/"
   xmlns:cc="http://creativecommons.org/ns#"
   xmlns:rdf="http://www.w3.org/1999/02/22-rdf-syntax-ns#"
   xmlns:svg="http://www.w3.org/2000/svg"
   xmlns="http://www.w3.org/2000/svg"
   xmlns:sodipodi="http://sodipodi.sourceforge.net/DTD/sodipodi-0.dtd"
   xmlns:inkscape="http://www.inkscape.org/namespaces/inkscape"
   version="1.1"
   id="Layer_1"
   x="0px"
   y="0px"
   viewBox="0 0 40 40"
   xml:space="preserve"
   sodipodi:docname="biblioteca.svg"
   width="40"
   height="40"
   inkscape:version="0.92.4 (5da689c313, 2019-01-14)"><metadata
   id="metadata15"><rdf:RDF><cc:Work
       rdf:about=""><dc:format>image/svg+xml</dc:format><dc:type
         rdf:resource="http://purl.org/dc/dcmitype/StillImage" /><dc:title></dc:title></cc:Work></rdf:RDF></metadata><defs
   id="defs13" /><sodipodi:namedview
   pagecolor="#ffffff"
   bordercolor="#666666"
   borderopacity="1"
   objecttolerance="10"
   gridtolerance="10"
   guidetolerance="10"
   inkscape:pageopacity="0"
   inkscape:pageshadow="2"
   inkscape:window-width="1366"
   inkscape:window-height="700"
   id="namedview11"
   showgrid="false"
   inkscape:zoom="4.6732673"
   inkscape:cx="-21.220064"
   inkscape:cy="36.661603"
   inkscape:window-x="0"
   inkscape:window-y="0"
   inkscape:window-maximized="1"
   inkscape:current-layer="Layer_1" />
<style
   type="text/css"
   id="style2">
	.st0{fill:#12B5E1;}
</style>
<g
   id="g828"
   style="fill:#000000"
   transform="matrix(0.9155215,0,0,0.9155215,-3.0989851,-0.78233805)"><g
     id="g8"
     style="fill:#000000">
	<path
   id="path4"
   d="m 46.7,39.2 -8.2,-29 C 38.4,10 38.3,9.8 38.1,9.7 37.9,9.6 37.6,9.6 37.4,9.6 l -7.3,2.1 V 7.4 c 0,-0.5 -0.4,-0.9 -0.9,-0.9 h -8.1 v -3 C 21.1,3 20.7,2.6 20.2,2.6 h -5.6 c -0.5,0 -0.9,0.4 -0.9,0.9 v 3 H 4.6 C 4.1,6.5 3.7,6.9 3.7,7.4 v 34.5 c 0,0.5 0.4,0.9 0.9,0.9 h 9.9 c 0,0 0,0 0,0 0,0 0,0 0,0 h 5.6 c 0,0 0,0 0,0 0,0 0,0 0,0 H 29 c 0.5,0 0.9,-0.4 0.9,-0.9 V 18.8 L 35.1,37 c 0,0 0,0 0,0 0,0 0,0 0,0 l 1.5,5.1 c 0.1,0.2 0.2,0.4 0.4,0.5 0.1,0.1 0.3,0.1 0.4,0.1 0.1,0 0.2,0 0.2,0 l 8.3,-2.4 c 0.7,-0.1 1,-0.6 0.8,-1.1 z m -14.8,-20.4 6.6,-1.9 4.8,16.8 -6.6,1.9 z m 5.1,-7.2 1,3.6 -6.6,1.9 -1,-3.6 z M 13.6,15.8 H 5.5 v -1.2 h 8.1 z m -8.1,1.8 h 8.1 V 34.8 H 5.5 Z m 10,-6.5 h 3.8 v 21.6 h -3.8 z m 5.7,3.5 h 7.1 v 20.2 h -7.1 z m 7.1,-6.3 v 4.6 H 21.2 V 8.3 Z m -9,-4 v 5 h -3.8 v -5 z m -5.7,4 v 4.6 H 5.5 V 8.3 Z M 5.5,41 v -4.3 h 8.1 V 41 Z m 10,0 v -6.5 h 3.8 V 41 Z m 5.7,0 v -4.3 h 7.1 V 41 Z m 17,-0.3 -1,-3.4 6.6,-1.9 1,3.4 z"
   class="st0"
   style="fill:#000000"
   inkscape:connector-curvature="0" />
	<path
   id="path6"
   d="m 26.4,20.8 h -3.3 c -0.5,0 -0.9,0.4 -0.9,0.9 v 5.8 c 0,0.5 0.4,0.9 0.9,0.9 h 3.3 c 0.5,0 0.9,-0.4 0.9,-0.9 v -5.8 c 0,-0.5 -0.4,-0.9 -0.9,-0.9 z m -0.9,5.8 H 24 v -4 h 1.5 z"
   class="st0"
   style="fill:#000000"
   inkscape:connector-curvature="0" />
</g></g>
</svg>