<?xml version="1.0" encoding="UTF-8" standalone="no"?>
<svg
   xmlns:dc="http://purl.org/dc/elements/1.1/"
   xmlns:cc="http://creativecommons.org/ns#"
   xmlns:rdf="http://www.w3.org/1999/02/22-rdf-syntax-ns#"
   xmlns:svg="http://www.w3.org/2000/svg"
   xmlns="http://www.w3.org/2000/svg"
   xmlns:sodipodi="http://sodipodi.sourceforge.net/DTD/sodipodi-0.dtd"
   xmlns:inkscape="http://www.inkscape.org/namespaces/inkscape"
   id="Layer_1"
   data-name="Layer 1"
   viewBox="0 0 40.000001 40.000001"
   version="1.1"
   sodipodi:docname="bolsa-dinero.svg"
   width="40"
   height="40"
   inkscape:version="0.92.4 (5da689c313, 2019-01-14)">
  <metadata
     id="metadata25">
    <rdf:RDF>
      <cc:Work
         rdf:about="">
        <dc:format>image/svg+xml</dc:format>
        <dc:type
           rdf:resource="http://purl.org/dc/dcmitype/StillImage" />
        <dc:title>bolsa_dinero</dc:title>
      </cc:Work>
    </rdf:RDF>
  </metadata>
  <sodipodi:namedview
     pagecolor="#ffffff"
     bordercolor="#666666"
     borderopacity="1"
     objecttolerance="10"
     gridtolerance="10"
     guidetolerance="10"
     inkscape:pageopacity="0"
     inkscape:pageshadow="2"
     inkscape:window-width="1366"
     inkscape:window-height="700"
     id="namedview23"
     showgrid="false"
     inkscape:zoom="4.6769719"
     inkscape:cx="25.23"
     inkscape:cy="25.23"
     inkscape:window-x="0"
     inkscape:window-y="0"
     inkscape:window-maximized="1"
     inkscape:current-layer="Layer_1" />
  <defs
     id="defs4">
    <style
       id="style2">.cls-1{fill:#12b5e1;}</style>
  </defs>
  <title
     id="title6">bolsa_dinero</title>
  <g
     id="g34"
     transform="matrix(0.95696224,0,0,0.95696224,-4.1059537,5.8656669)"
     style="fill:#000000">
    <path
       style="fill:#000000"
       inkscape:connector-curvature="0"
       id="path8"
       d="m 10.62,7.0200009 v -0.48 h 0.47 a 0.64,0.64 0 1 0 0,-1.27 h -0.47 v -0.47 a 0.64,0.64 0 1 0 -1.27,0 v 0.47 H 8.88 a 0.64,0.64 0 1 0 0,1.27 h 0.47 v 0.47 a 0.64,0.64 0 1 0 1.27,0 z"
       class="cls-1" />
    <path
       style="fill:#000000"
       inkscape:connector-curvature="0"
       id="path10"
       d="m 41.58,-4.6199991 h -0.47 v -0.47 a 0.64,0.64 0 1 0 -1.27,0 v 0.47 h -0.47 a 0.64,0.64 0 0 0 0,1.28 h 0.47 v 0.47 a 0.64,0.64 0 1 0 1.27,0 v -0.47 h 0.47 a 0.64,0.64 0 1 0 0,-1.28 z"
       class="cls-1" />
    <circle
       style="fill:#000000"
       id="circle12"
       r="0.73000002"
       cy="-5.3599992"
       cx="12.46"
       class="cls-1" />
    <circle
       style="fill:#000000"
       id="circle14"
       r="0.73000002"
       cy="15.800001"
       cx="39.740002"
       class="cls-1" />
    <path
       style="fill:#000000"
       inkscape:connector-curvature="0"
       id="path16"
       d="m 25.08,22.660001 v -3.28 a 6,6 0 0 1 1.76,0.75 1,1 0 0 0 0.51,0.15 0.94,0.94 0 0 0 1,-0.94 0.93,0.93 0 0 0 -0.55,-0.8 6.32,6.32 0 0 0 -2.65,-1 v -0.37 a 0.73,0.73 0 0 0 -0.73,-0.74 0.76,0.76 0 0 0 -0.76,0.74 v 0.37 c -2.13,0.17 -3.58,1.43 -3.58,3.26 0,1.83 1.16,2.87 3.65,3.52 v 3.36 a 6.09,6.09 0 0 1 -2.53,-1.14 0.9,0.9 0 0 0 -0.56,-0.19 0.93,0.93 0 0 0 -0.94,0.94 0.94,0.94 0 0 0 0.46,0.82 7.25,7.25 0 0 0 3.5,1.33 v 1.1 a 0.76,0.76 0 0 0 0.76,0.74 0.73,0.73 0 0 0 0.73,-0.74 v -1 c 2.17,-0.21 3.64,-1.45 3.64,-3.33 0,-1.88 -1.11,-2.9 -3.71,-3.55 z m -1.35,-0.36 c -1.31,-0.43 -1.64,-0.87 -1.64,-1.59 0,-0.72 0.55,-1.33 1.64,-1.43 z m 1.35,5.48 v -3.11 c 1.32,0.41 1.69,0.87 1.69,1.63 0,0.76 -0.6,1.36 -1.69,1.48 z"
       class="cls-1" />
    <path
       style="fill:#000000"
       inkscape:connector-curvature="0"
       id="path18"
       d="M 31.38,11.310001 A 2.39,2.39 0 0 0 30.82,7.4400009 l 2.86,-2.9 v -0.05 a 2.52,2.52 0 0 0 0.2,-3 2.3,2.3 0 0 0 -2.57,-0.99999998 L 29.14,1.1400009 a 0.85102879,0.85102879 0 0 0 0.49,1.63 l 2.13,-0.63 a 0.6,0.6 0 0 1 0.68,0.29 0.85,0.85 0 0 1 0,1 l -3.72,3.82 h -8.94 l -3.72,-3.91 a 0.83,0.83 0 0 1 0,-1 0.57,0.57 0 0 1 0.67,-0.29 l 1.94,0.5 c 1.87,0.48 3.3,-1.59999998 4.21,-3.20999998 L 23.3,-1.4099991 a 1.31,1.31 0 0 1 1.15,-0.61 0.86,0.86 0 0 1 0.77,0.38 l 0.08,0.14 a 36.14,36.14 0 0 1 1.37,5 0.85,0.85 0 0 0 1,0.66 0.84,0.84 0 0 0 0.66,-1 32.57,32.57 0 0 0 -1.55,-5.54 l -0.11,-0.08 a 2.54,2.54 0 0 0 -2.26,-1.25 3,3 0 0 0 -2.64,1.48 l -0.42,0.77 c -1.36,2.42000002 -2.1,2.45000002 -2.29,2.40000002 l -1.95,-0.5 a 2.28,2.28 0 0 0 -2.54,0.99999998 2.54,2.54 0 0 0 0.2,3 v 0.05 l 2.86,2.93 a 2.39,2.39 0 0 0 -0.56,3.8700001 l -6.42,13.33 a 8.08,8.08 0 0 0 0.55,7.63 7.06,7.06 0 0 0 5.88,3.38 h 14.35 a 7,7 0 0 0 5.86,-3.38 8.1,8.1 0 0 0 0.54,-7.66 z m 4.47,20 a 5.38,5.38 0 0 1 -4.44,2.6 H 17.1 a 5.38,5.38 0 0 1 -4.46,-2.6 6.37,6.37 0 0 1 -0.44,-6 l 6.49,-13.37 h 5.39 a 0.86,0.86 0 1 0 0,-1.71 h -5.31 a 0.7,0.7 0 0 1 -0.7,-0.7000001 0.7,0.7 0 0 1 0.7,-0.71 h 11 a 0.71,0.71 0 0 1 0.71,0.71 0.7,0.7 0 0 1 -0.71,0.7000001 h -0.93 a 0.86,0.86 0 0 0 0,1.71 h 1 l 6.48,13.34 a 6.4,6.4 0 0 1 -0.47,6.05 z"
       class="cls-1" />
    <path
       style="fill:#000000"
       inkscape:connector-curvature="0"
       id="path20"
       d="m 26.09,11.980001 h 0.1 a 0.86,0.86 0 0 0 0,-1.71 h -0.1 a 0.86,0.86 0 0 0 0,1.71 z"
       class="cls-1" />
  </g>
</svg>
