<?xml version="1.0" encoding="UTF-8" standalone="no"?>
<svg
   xmlns:dc="http://purl.org/dc/elements/1.1/"
   xmlns:cc="http://creativecommons.org/ns#"
   xmlns:rdf="http://www.w3.org/1999/02/22-rdf-syntax-ns#"
   xmlns:svg="http://www.w3.org/2000/svg"
   xmlns="http://www.w3.org/2000/svg"
   xmlns:sodipodi="http://sodipodi.sourceforge.net/DTD/sodipodi-0.dtd"
   xmlns:inkscape="http://www.inkscape.org/namespaces/inkscape"
   id="Layer_1"
   data-name="Layer 1"
   viewBox="0 0 40.000001 40.000001"
   version="1.1"
   sodipodi:docname="cochecito.svg"
   width="40"
   height="40"
   inkscape:version="0.92.4 (5da689c313, 2019-01-14)">
  <metadata
     id="metadata21">
    <rdf:RDF>
      <cc:Work
         rdf:about="">
        <dc:format>image/svg+xml</dc:format>
        <dc:type
           rdf:resource="http://purl.org/dc/dcmitype/StillImage" />
        <dc:title>tener un hijo</dc:title>
      </cc:Work>
    </rdf:RDF>
  </metadata>
  <sodipodi:namedview
     pagecolor="#ffffff"
     bordercolor="#666666"
     borderopacity="1"
     objecttolerance="10"
     gridtolerance="10"
     guidetolerance="10"
     inkscape:pageopacity="0"
     inkscape:pageshadow="2"
     inkscape:window-width="1366"
     inkscape:window-height="700"
     id="namedview19"
     showgrid="false"
     inkscape:zoom="4.6769719"
     inkscape:cx="25.23"
     inkscape:cy="25.23"
     inkscape:window-x="0"
     inkscape:window-y="0"
     inkscape:window-maximized="1"
     inkscape:current-layer="Layer_1" />
  <defs
     id="defs4">
    <style
       id="style2">.cls-1{fill:#65b4e1;}</style>
  </defs>
  <title
     id="title6">tener un hijo</title>
  <g
     id="g28"
     style="fill:#000000"
     transform="translate(-5.3080919,5.204999)">
    <path
       style="fill:#000000"
       inkscape:connector-curvature="0"
       id="path8"
       d="m 13.2,18.760001 a 4.89,4.89 0 0 0 4.88,4.88 h 17.68 a 4.89,4.89 0 0 0 4.88,-4.88 v -7.6 H 13.2 Z m 1.8,-5.8 h 23.84 v 5.81 a 3.08,3.08 0 0 1 -3.08,3.08 H 18.08 a 3.08,3.08 0 0 1 -3.08,-3.09 z"
       class="cls-1" />
    <path
       style="fill:#000000"
       inkscape:connector-curvature="0"
       id="path10"
       d="m 15.41,9.6400009 v -11 a 3.69,3.69 0 0 0 -3.68,-3.68 H 11 a 1.13,1.13 0 0 0 0,2.25 h 0.78 a 1.43,1.43 0 0 1 1.43,1.43 v 11 z"
       class="cls-1" />
    <path
       style="fill:#000000"
       inkscape:connector-curvature="0"
       id="path12"
       d="m 25.8,-5.0499991 v 14.69 h 14.84 a 14.91,14.91 0 0 0 -14.84,-14.69 z"
       class="cls-1" />
    <path
       style="fill:#000000"
       inkscape:connector-curvature="0"
       id="path14"
       d="m 20.83,24.640001 a 5,5 0 1 0 5,5 5,5 0 0 0 -5,-5 z m 0,8.15 a 3.18,3.18 0 1 1 3.17,-3.17 3.18,3.18 0 0 1 -3.17,3.17 z"
       class="cls-1" />
    <path
       style="fill:#000000"
       inkscape:connector-curvature="0"
       id="path16"
       d="m 33,24.640001 a 5,5 0 1 0 5,5 5,5 0 0 0 -5,-5 z m 0,8.15 a 3.18,3.18 0 1 1 3.18,-3.18 3.18,3.18 0 0 1 -3.18,3.18 z"
       class="cls-1" />
  </g>
</svg>
