<?xml version="1.0" encoding="UTF-8" standalone="no"?>
<svg
   xmlns:dc="http://purl.org/dc/elements/1.1/"
   xmlns:cc="http://creativecommons.org/ns#"
   xmlns:rdf="http://www.w3.org/1999/02/22-rdf-syntax-ns#"
   xmlns:svg="http://www.w3.org/2000/svg"
   xmlns="http://www.w3.org/2000/svg"
   xmlns:sodipodi="http://sodipodi.sourceforge.net/DTD/sodipodi-0.dtd"
   xmlns:inkscape="http://www.inkscape.org/namespaces/inkscape"
   id="Layer_1"
   data-name="Layer 1"
   viewBox="0 0 40 40"
   version="1.1"
   sodipodi:docname="dialogo.svg"
   width="40"
   height="40"
   inkscape:version="0.92.4 (5da689c313, 2019-01-14)">
  <metadata
     id="metadata15">
    <rdf:RDF>
      <cc:Work
         rdf:about="">
        <dc:format>image/svg+xml</dc:format>
        <dc:type
           rdf:resource="http://purl.org/dc/dcmitype/StillImage" />
        <dc:title>dialogo</dc:title>
      </cc:Work>
    </rdf:RDF>
  </metadata>
  <sodipodi:namedview
     pagecolor="#ffffff"
     bordercolor="#666666"
     borderopacity="1"
     objecttolerance="10"
     gridtolerance="10"
     guidetolerance="10"
     inkscape:pageopacity="0"
     inkscape:pageshadow="2"
     inkscape:window-width="1366"
     inkscape:window-height="700"
     id="namedview13"
     showgrid="false"
     inkscape:zoom="4.6769719"
     inkscape:cx="-4.8108048"
     inkscape:cy="25.23"
     inkscape:window-x="0"
     inkscape:window-y="0"
     inkscape:window-maximized="1"
     inkscape:current-layer="Layer_1" />
  <defs
     id="defs4">
    <style
       id="style2">.cls-1{fill:#65b4e1;}</style>
  </defs>
  <title
     id="title6">dialogo</title>
  <g
     id="g19"
     transform="matrix(1.0022203,0,0,1.0022203,-5.2659738,-5.2659738)">
    <path
       style="fill:#000000"
       id="path8"
       d="m 11,33.53 c -0.69,0 -1.42,0 -2.21,-0.11 a 1.0111874,1.0111874 0 0 1 -0.3,-2 13.46,13.46 0 0 0 3,-1.71 c -3.78,-1.94 -6,-5.07 -6,-8.52 0,-5.74 6.33,-10.41 14.11,-10.41 7.78,0 14.16,4.69 14.16,10.42 0,5.73 -6.33,10.41 -14.11,10.41 h -1 A 13.77,13.77 0 0 1 11,33.53 Z m 8.64,-20.66 c -6.64,0 -12,3.74 -12,8.34 0,2.9 2.15,5.55 5.76,7.09 a 1,1 0 0 1 0.62,0.82 2.58,2.58 0 0 1 -1.19,2.25 9.91,9.91 0 0 0 4.92,-1.63 1.06,1.06 0 0 1 0.74,-0.24 c 0.39,0 0.79,0 1.2,0 6.64,0 12,-3.74 12,-8.34 0,-4.6 -5.4,-8.3 -12.04,-8.3 z"
       class="cls-1"
       inkscape:connector-curvature="0" />
    <path
       style="fill:#000000"
       id="path10"
       d="m 42.23,38.45 a 14.32,14.32 0 0 1 -3,-1.67 0.58,0.58 0 0 1 0.11,-1 c 3.52,-1.87 5.59,-4.8 5.59,-8 0,-3.85 -3,-7.28 -7.64,-8.93 a 0.57,0.57 0 0 0 -0.75,0.62 8.92,8.92 0 0 1 0.1,1.28 c 0,6.52 -6.45,11.91 -14.89,12.89 a 0.58,0.58 0 0 0 -0.27,1 16.46,16.46 0 0 0 9.8,3 c 0.37,0 0.73,0 1.09,0 0.68,0.49 3.09,2 7.53,2 0.68,0 1.4,0 2.18,-0.11 a 0.57,0.57 0 0 0 0.16,-1.1 z"
       class="cls-1"
       inkscape:connector-curvature="0" />
  </g>
</svg>
