<?xml version="1.0" encoding="UTF-8" standalone="no"?>
<svg
   xmlns:dc="http://purl.org/dc/elements/1.1/"
   xmlns:cc="http://creativecommons.org/ns#"
   xmlns:rdf="http://www.w3.org/1999/02/22-rdf-syntax-ns#"
   xmlns:svg="http://www.w3.org/2000/svg"
   xmlns="http://www.w3.org/2000/svg"
   xmlns:sodipodi="http://sodipodi.sourceforge.net/DTD/sodipodi-0.dtd"
   xmlns:inkscape="http://www.inkscape.org/namespaces/inkscape"
   id="Layer_1"
   data-name="Layer 1"
   viewBox="0 0 80.000001 80.000001"
   version="1.1"
   sodipodi:docname="documento.svg"
   width="80"
   height="80"
   inkscape:version="0.92.4 (5da689c313, 2019-01-14)">
  <metadata
     id="metadata21">
    <rdf:RDF>
      <cc:Work
         rdf:about="">
        <dc:format>image/svg+xml</dc:format>
        <dc:type
           rdf:resource="http://purl.org/dc/dcmitype/StillImage" />
        <dc:title>documento</dc:title>
      </cc:Work>
    </rdf:RDF>
  </metadata>
  <sodipodi:namedview
     pagecolor="#ffffff"
     bordercolor="#666666"
     borderopacity="1"
     objecttolerance="10"
     gridtolerance="10"
     guidetolerance="10"
     inkscape:pageopacity="0"
     inkscape:pageshadow="2"
     inkscape:window-width="1366"
     inkscape:window-height="700"
     id="namedview19"
     showgrid="false"
     inkscape:zoom="4.6769719"
     inkscape:cx="25.23"
     inkscape:cy="25.23"
     inkscape:window-x="0"
     inkscape:window-y="0"
     inkscape:window-maximized="1"
     inkscape:current-layer="Layer_1" />
  <defs
     id="defs4">
    <style
       id="style2">.cls-1{fill:#65b4e1;}</style>
  </defs>
  <title
     id="title6">documento</title>
  <g
     id="g28"
     transform="matrix(2.25168,0,0,2.25168,-16.798628,-16.78737)">
    <path
       style="fill:#000000"
       id="path8"
       d="M 40,31.93 39.94,14.37 V 14.29 L 33.66,7.6 33.6,7.54 H 14.35 a 3.91,3.91 0 0 0 -3.9,3.9 V 39 a 3.91,3.91 0 0 0 3.9,3.9 H 36.11 A 3.91,3.91 0 0 0 40,39 Z m -3,-18 h -2.65 v -2.89 z m 1.3,17.94 v 0 7.13 a 2.18,2.18 0 0 1 -2.18,2.18 H 14.35 A 2.18,2.18 0 0 1 12.17,39 V 11.44 a 2.18,2.18 0 0 1 2.18,-2.18 h 18 v 5.65 a 1,1 0 0 0 1,1 c 0.35,0 2.75,0 4.89,0 z"
       class="cls-1"
       inkscape:connector-curvature="0" />
    <path
       style="fill:#000000"
       id="path10"
       d="M 33,20.25 H 17.51 a 0.865,0.865 0 1 0 0,1.73 H 33 a 0.865,0.865 0 0 0 0,-1.73 z"
       class="cls-1"
       inkscape:connector-curvature="0" />
    <path
       style="fill:#000000"
       id="path12"
       d="M 33,23.9 H 17.51 a 0.865,0.865 0 1 0 0,1.73 H 33 a 0.865,0.865 0 0 0 0,-1.73 z"
       class="cls-1"
       inkscape:connector-curvature="0" />
    <path
       style="fill:#000000"
       id="path14"
       d="M 33,27.55 H 17.51 a 0.865,0.865 0 0 0 0,1.73 H 33 a 0.865,0.865 0 0 0 0,-1.73 z"
       class="cls-1"
       inkscape:connector-curvature="0" />
    <path
       style="fill:#000000"
       id="path16"
       d="M 33,31.21 H 17.51 a 0.865,0.865 0 1 0 0,1.73 H 33 a 0.865,0.865 0 0 0 0,-1.73 z"
       class="cls-1"
       inkscape:connector-curvature="0" />
  </g>
</svg>
