<?xml version="1.0" encoding="UTF-8" standalone="no"?>
<!-- Generator: Adobe Illustrator 24.2.1, SVG Export Plug-In . SVG Version: 6.00 Build 0)  -->

<svg
   xmlns:dc="http://purl.org/dc/elements/1.1/"
   xmlns:cc="http://creativecommons.org/ns#"
   xmlns:rdf="http://www.w3.org/1999/02/22-rdf-syntax-ns#"
   xmlns:svg="http://www.w3.org/2000/svg"
   xmlns="http://www.w3.org/2000/svg"
   xmlns:sodipodi="http://sodipodi.sourceforge.net/DTD/sodipodi-0.dtd"
   xmlns:inkscape="http://www.inkscape.org/namespaces/inkscape"
   version="1.1"
   id="Layer_1"
   x="0px"
   y="0px"
   viewBox="0 0 40.000001 40.000001"
   xml:space="preserve"
   sodipodi:docname="escuela.svg"
   width="40"
   height="40"
   inkscape:version="0.92.4 (5da689c313, 2019-01-14)"><metadata
   id="metadata9"><rdf:RDF><cc:Work
       rdf:about=""><dc:format>image/svg+xml</dc:format><dc:type
         rdf:resource="http://purl.org/dc/dcmitype/StillImage" /><dc:title></dc:title></cc:Work></rdf:RDF></metadata><defs
   id="defs7" /><sodipodi:namedview
   pagecolor="#ffffff"
   bordercolor="#666666"
   borderopacity="1"
   objecttolerance="10"
   gridtolerance="10"
   guidetolerance="10"
   inkscape:pageopacity="0"
   inkscape:pageshadow="2"
   inkscape:window-width="1366"
   inkscape:window-height="700"
   id="namedview5"
   showgrid="false"
   inkscape:zoom="4.6769719"
   inkscape:cx="25.23"
   inkscape:cy="25.23"
   inkscape:window-x="0"
   inkscape:window-y="0"
   inkscape:window-maximized="1"
   inkscape:current-layer="Layer_1" />
<path
   d="M 39.828992,17.706819 36.43232,12.939986 C 36.297638,12.751432 36.079454,12.639197 35.847802,12.639197 H 22.412855 L 20.543474,10.47172 c -0.02604,-0.03053 -0.06375,-0.044 -0.09427,-0.06824 V 8.5834827 c 1.413261,-0.514484 2.940551,-0.485752 4.337649,0.099665 0.139171,0.058362 0.297197,0.0422 0.422003,-0.039507 0.125702,-0.083503 0.201124,-0.2235716 0.201124,-0.374415 V 7.5428423 c 0,0 0,-8.98e-4 0,-8.98e-4 V 5.5764898 c 0,0 0,-8.979e-4 0,-8.979e-4 V 4.7944382 c 0,-0.1804735 -0.108643,-0.3438872 -0.275649,-0.4139217 -1.711355,-0.7183023 -3.596899,-0.7183023 -5.307356,0 -0.167005,0.070034 -0.275648,0.2325504 -0.275648,0.4139217 v 0.2783421 3.1955472 2.1342555 c -0.03052,0.02424 -0.06823,0.03771 -0.09427,0.06824 L 17.58766,12.638301 H 4.1527144 c -0.2325504,0 -0.4498368,0.112235 -0.5845185,0.300789 l -3.39756975,4.766833 c -0.15623076,0.219082 -0.17688185,0.506404 -0.0538725,0.746137 0.12300925,0.239734 0.36992565,0.389679 0.63839116,0.389679 H 3.2997305 v 16.405126 c 0,0.0045 0.00269,0.008 0.00269,0.01347 H 0.75514561 c -0.24781431,0 -0.44893899,0.201124 -0.44893899,0.448938 0,0.247814 0.20112468,0.448939 0.44893899,0.448939 H 39.244473 c 0.247814,0 0.448939,-0.201125 0.448939,-0.448939 0,-0.247814 -0.201125,-0.448938 -0.448939,-0.448938 h -2.546381 c 0,-0.0045 0.0027,-0.008 0.0027,-0.01347 V 18.841737 h 2.543687 c 0.269364,0 0.515382,-0.149945 0.638392,-0.388781 0.123907,-0.239733 0.102358,-0.527055 -0.05387,-0.746137 z M 20.449196,6.9026554 V 5.8916449 c 1.313596,-0.4803646 2.734039,-0.4794667 4.062,0.0018 v 1.0128059 c -1.335145,-0.4166154 -2.739425,-0.4175132 -4.062,-0.00359 z M 4.52264,14.074903 h 11.825948 l -2.872311,3.330229 H 4.0180327 2.1495489 Z m 17.741168,21.18453 h -4.527101 v -7.011528 c 0,-1.425829 1.0155,-2.585888 2.263551,-2.585888 1.24805,0 2.26355,1.160059 2.26355,2.585888 z m 13.003067,0 h -12.10519 v -7.011528 c 0,-1.921458 -1.417749,-3.483765 -3.161427,-3.483765 -1.742781,0 -3.161428,1.562307 -3.161428,3.483765 v 7.011528 H 4.7336413 c 0,-0.0045 0.00269,-0.008 0.00269,-0.01347 V 18.841737 h 9.0685697 c 0.103256,0 0.200228,-0.02334 0.289118,-0.06285 0.02604,-0.01167 0.04489,-0.03232 0.06914,-0.04669 0.06016,-0.03591 0.117622,-0.07273 0.16521,-0.123907 0.0063,-0.0063 0.01437,-0.0089 0.02065,-0.01526 l 5.651244,-6.552713 5.651243,6.552713 c 0.0054,0.0063 0.01437,0.0089 0.01976,0.01526 0.04759,0.05118 0.105949,0.08889 0.166107,0.124805 0.02424,0.01437 0.0431,0.03502 0.06824,0.0458 0.08889,0.0395 0.185861,0.06285 0.289117,0.06285 h 9.069464 v 16.405126 c 0,0.0045 0.0027,0.008 0.0027,0.01257 z m 0.715608,-17.854301 h -9.458245 l -2.872311,-3.330229 h 11.825949 l 2.373092,3.330229 z M 10.514179,23.272764 H 8.4481621 c -0.2478141,0 -0.4489392,0.201125 -0.4489392,0.448939 v 3.753129 c 0,0.247815 0.2011251,0.44894 0.4489392,0.44894 h 2.0660169 c 0.247814,0 0.448938,-0.201125 0.448938,-0.44894 v -3.753129 c 0,-0.248712 -0.201124,-0.448939 -0.448938,-0.448939 z M 10.06524,27.024995 H 8.8971013 v -2.85525 H 10.06524 Z m 4.588155,-3.752231 h -2.065119 c -0.247814,0 -0.448939,0.201125 -0.448939,0.448939 v 3.753129 c 0,0.247815 0.201125,0.44894 0.448939,0.44894 h 2.065119 c 0.247814,0 0.448939,-0.201125 0.448939,-0.44894 v -3.753129 c 0,-0.248712 -0.200227,-0.448939 -0.448939,-0.448939 z m -0.448939,3.752231 h -1.167241 v -2.85525 h 1.167241 z m -3.690277,2.003166 H 8.4481621 c -0.2478141,0 -0.4489392,0.201125 -0.4489392,0.448939 v 3.753129 c 0,0.247815 0.2011251,0.448939 0.4489392,0.448939 h 2.0660169 c 0.247814,0 0.448938,-0.201124 0.448938,-0.448939 V 29.4771 c 0,-0.248712 -0.201124,-0.448939 -0.448938,-0.448939 z M 10.06524,32.780393 H 8.8971013 V 29.925142 H 10.06524 Z m 4.588155,-3.752232 h -2.065119 c -0.247814,0 -0.448939,0.201125 -0.448939,0.448939 v 3.753129 c 0,0.247815 0.201125,0.448939 0.448939,0.448939 h 2.065119 c 0.247814,0 0.448939,-0.201124 0.448939,-0.448939 V 29.4771 c 0,-0.248712 -0.200227,-0.448939 -0.448939,-0.448939 z m -0.448939,3.752232 h -1.167241 v -2.855251 h 1.167241 z m 13.207783,-9.507629 h -2.066017 c -0.247814,0 -0.448939,0.201125 -0.448939,0.448939 v 3.753129 c 0,0.247815 0.201125,0.44894 0.448939,0.44894 h 2.066017 c 0.247814,0 0.44894,-0.201125 0.44894,-0.44894 v -3.753129 c 0,-0.248712 -0.200228,-0.448939 -0.44894,-0.448939 z M 26.9633,27.024995 h -1.168139 v -2.85525 H 26.9633 Z m 4.589952,-3.752231 h -2.066018 c -0.247814,0 -0.448938,0.201125 -0.448938,0.448939 v 3.753129 c 0,0.247815 0.201124,0.44894 0.448938,0.44894 h 2.066018 c 0.247814,0 0.448939,-0.201125 0.448939,-0.44894 v -3.753129 c 0,-0.248712 -0.201125,-0.448939 -0.448939,-0.448939 z m -0.448939,3.752231 h -1.168139 v -2.85525 h 1.168139 z m -3.692074,2.003166 h -2.066017 c -0.247814,0 -0.448939,0.201125 -0.448939,0.448939 v 3.753129 c 0,0.247815 0.201125,0.448939 0.448939,0.448939 h 2.066017 c 0.247814,0 0.44894,-0.201124 0.44894,-0.448939 V 29.4771 c 0,-0.248712 -0.200228,-0.448939 -0.44894,-0.448939 z M 26.9633,32.780393 H 25.795161 V 29.925142 H 26.9633 Z m 4.589952,-3.752232 h -2.066018 c -0.247814,0 -0.448938,0.201125 -0.448938,0.448939 v 3.753129 c 0,0.247815 0.201124,0.448939 0.448938,0.448939 h 2.066018 c 0.247814,0 0.448939,-0.201124 0.448939,-0.448939 V 29.4771 c 0,-0.248712 -0.201125,-0.448939 -0.448939,-0.448939 z m -0.448939,3.752232 h -1.168139 v -2.855251 h 1.168139 z M 20.000258,17.384481 c -1.072964,0 -1.914276,1.171731 -1.914276,2.668493 0,1.495865 0.841312,2.668494 1.914276,2.668494 1.073862,0 1.914276,-1.172629 1.914276,-2.668494 0,-1.496762 -0.840414,-2.668493 -1.914276,-2.668493 z m 0,4.438211 c -0.480365,0 -1.016398,-0.727281 -1.016398,-1.770615 0,-1.043335 0.536033,-1.770616 1.016398,-1.770616 0.481262,0 1.016397,0.727281 1.016397,1.770616 0,1.043334 -0.535135,1.770615 -1.016397,1.770615 z"
   id="path2"
   inkscape:connector-curvature="0"
   style="stroke-width:0.89787781" />
</svg>