<?xml version="1.0" encoding="UTF-8" standalone="no"?>
<svg
   xmlns:dc="http://purl.org/dc/elements/1.1/"
   xmlns:cc="http://creativecommons.org/ns#"
   xmlns:rdf="http://www.w3.org/1999/02/22-rdf-syntax-ns#"
   xmlns:svg="http://www.w3.org/2000/svg"
   xmlns="http://www.w3.org/2000/svg"
   xmlns:sodipodi="http://sodipodi.sourceforge.net/DTD/sodipodi-0.dtd"
   xmlns:inkscape="http://www.inkscape.org/namespaces/inkscape"
   id="Layer_1"
   data-name="Layer 1"
   viewBox="0 0 40.000001 40.000001"
   version="1.1"
   sodipodi:docname="justicia.svg"
   width="40"
   height="40"
   inkscape:version="0.92.4 (5da689c313, 2019-01-14)">
  <metadata
     id="metadata13">
    <rdf:RDF>
      <cc:Work
         rdf:about="">
        <dc:format>image/svg+xml</dc:format>
        <dc:type
           rdf:resource="http://purl.org/dc/dcmitype/StillImage" />
        <dc:title>justicia </dc:title>
      </cc:Work>
    </rdf:RDF>
  </metadata>
  <sodipodi:namedview
     pagecolor="#ffffff"
     bordercolor="#666666"
     borderopacity="1"
     objecttolerance="10"
     gridtolerance="10"
     guidetolerance="10"
     inkscape:pageopacity="0"
     inkscape:pageshadow="2"
     inkscape:window-width="1366"
     inkscape:window-height="700"
     id="namedview11"
     showgrid="false"
     inkscape:zoom="4.6769719"
     inkscape:cx="25.23"
     inkscape:cy="25.23"
     inkscape:window-x="0"
     inkscape:window-y="0"
     inkscape:window-maximized="1"
     inkscape:current-layer="Layer_1" />
  <defs
     id="defs4">
    <style
       id="style2">.cls-1{fill:#12b5e1;}</style>
  </defs>
  <title
     id="title6">justicia </title>
  <path
     class="cls-1"
     d="m 39.514611,20.440819 a 1.480915,1.480915 0 0 0 -1.041417,-0.439498 h -0.783452 c -0.802561,-1.80576 -2.073281,-4.58606 -3.821717,-8.455548 a 13.261356,13.261356 0 0 0 2.398128,-2.8089607 2.5701042,2.5701042 0 0 0 0.353508,-1.9108581 2.5701042,2.5701042 0 0 0 -2.503224,-2.0255097 2.8662872,2.8662872 0 0 0 -0.487268,0 h -0.08599 a 2.5032242,2.5032242 0 0 0 -1.595566,1.2038407 c -0.105097,0.1528686 -0.238858,0.3439544 -0.382172,0.525486 l -0.20064,0.2101944 A 3.5064248,3.5064248 0 0 0 30.313829,6.5775426 3.286676,3.286676 0 0 0 28.402971,7.179463 C 27.342445,6.7304113 26.014399,6.1189367 24.581255,5.4214733 a 4.700711,4.700711 0 0 0 -1.75799,-2.7038642 4.4809624,4.4809624 0 0 0 -2.866286,-1.050972 4.4236366,4.4236366 0 0 0 -2.608322,0.8598862 4.7771454,4.7771454 0 0 0 -0.726126,0.592366 4.5765052,4.5765052 0 0 0 -1.261166,2.302584 C 13.947329,6.1189367 12.619283,6.7304113 11.539649,7.179463 A 3.286676,3.286676 0 0 0 9.6287904,6.5775426 3.5064248,3.5064248 0 0 0 8.5778184,6.7399656 L 8.3962869,6.558434 C 8.2434182,6.357794 8.1001039,6.1667082 7.9950067,6.0042852 A 2.5032242,2.5032242 0 0 0 6.4663202,4.8577703 h -0.057326 a 2.8089614,2.8089614 0 0 0 -0.4872688,0 2.5987671,2.5987671 0 0 0 -1.3853721,0.4012802 2.56055,2.56055 0 0 0 -0.7643432,3.5255332 13.261356,13.261356 0 0 0 2.398127,2.8089613 c -1.805761,3.89815 -3.0764816,6.688004 -3.8217164,8.455548 H 1.5363062 a 1.4522522,1.4522522 0 0 0 -1.45225221,1.490468 v 0.277076 a 9.8791364,9.8791364 0 0 0 9.67849621,9.668942 h 0.1719773 a 9.6689422,9.6689422 0 0 0 7.5096715,-3.821716 v 2.684755 a 2.5701042,2.5701042 0 0 0 -0.277074,0.152869 6.5351349,6.5351349 0 0 0 -2.646538,2.722972 h -1.08919 a 2.5414414,2.5414414 0 0 0 -0.429942,5.05422 1.4235894,1.4235894 0 0 0 0.343954,0.04778 h 13.376008 a 0.95542908,0.95542908 0 0 0 0.229302,0 2.5414414,2.5414414 0 0 0 -0.372618,-5.063774 h -1.060526 a 6.6880036,6.6880036 0 0 0 -2.656092,-2.732532 l -0.26752,-0.143314 v -2.713418 a 9.6689422,9.6689422 0 0 0 7.500118,3.821716 h 0.20064 a 9.8791364,9.8791364 0 0 0 9.62117,-9.726268 v -0.277074 a 1.4713608,1.4713608 0 0 0 -0.40128,-1.050972 z M 28.746925,8.8705723 A 1.9108582,1.9108582 0 0 1 31.613213,8.5266179 L 31.899841,8.2686521 32.683293,7.4852002 C 32.855271,7.2558973 33.027249,7.0074858 33.180117,6.787737 a 1.0414176,1.0414176 0 0 1 0.687908,-0.4777144 h 0.21975 a 1.1082978,1.1082978 0 0 1 0.60192,0.1719772 1.0700806,1.0700806 0 0 1 0.46816,0.6879089 1.0891892,1.0891892 0 0 1 -0.143314,0.8216689 10.44284,10.44284 0 0 1 -3.000048,3.1146994 c 1.910858,4.051018 3.219796,6.984186 4.089236,8.942816 h -2.436344 c -0.40128,-0.898104 -0.859886,-1.910858 -1.328046,-2.952276 -0.611474,-1.366264 -1.261166,-2.808962 -1.910858,-4.18478 l -3.468208,7.137056 h -2.398126 l 4.270768,-8.809056 A 49.443454,49.443454 0 0 1 23.434741,8.9852239 4.4427452,4.4427452 0 0 0 24.390169,6.95016 c 1.710218,0.7834517 3.238904,1.4618064 4.356756,1.9204123 z m 3.324894,11.1594107 h -3.468208 l 1.796208,-3.707064 0.611474,1.347156 c 0.363062,0.754788 0.726126,1.595566 1.060526,2.331246 z M 17.444199,10.31327 v 9.688051 h -0.391725 l -3.879043,-7.987388 c 1.49047,-0.58281 3.076482,-1.318492 4.108346,-1.80576 z M 16.985594,6.1093824 a 2.990493,2.990493 0 0 1 1.222949,-2.4076813 3.1815788,3.1815788 0 0 1 1.767544,-0.5637032 h 0.06688 a 3.2771218,3.2771218 0 0 1 2.111498,0.821669 3.0191558,3.0191558 0 1 1 -5.168871,2.1114983 z m 5.732575,4.0987906 c 1.031862,0.487268 2.617876,1.22295 4.108344,1.80576 l -3.879042,7.987388 H 22.555745 V 10.31327 Z M 7.9950067,11.058505 A 10.567046,10.567046 0 0 1 5.0045137,7.9151433 1.0891892,1.0891892 0 0 1 5.3389138,6.4055654 1.0700806,1.0700806 0 0 1 5.9312799,6.2335882 h 0.2197487 a 1.0414176,1.0414176 0 0 1 0.687909,0.4777146 C 6.9918062,6.9310514 7.1637834,7.179463 7.3644235,7.4374287 l 0.754789,0.754789 0.2866287,0.2579658 A 1.9108582,1.9108582 0 0 1 11.272129,8.7941381 C 12.389981,8.3737493 13.918667,7.6858403 15.619331,6.88328 a 4.4427452,4.4427452 0 0 0 0.955428,2.0350638 49.443454,49.443454 0 0 1 -5.38862,2.2739212 l 4.270768,8.809056 h -2.42679 L 9.5619104,12.864265 c -0.6305832,1.375818 -1.280275,2.818516 -1.9108582,4.18478 -0.4681602,1.050972 -0.955429,2.054172 -1.3280464,2.952276 H 3.9153246 C 4.784765,18.042691 6.13192,15.109525 8.004561,11.058505 Z m 3.4013263,8.942816 H 7.937681 c 0.3344002,-0.73568 0.6974632,-1.53824 1.0605262,-2.35991 L 9.6096818,16.294257 Z M 9.9058646,30.023772 H 9.7625502 A 8.4842102,8.4842102 0 0 1 1.5458604,21.730647 V 21.453573 H 17.969685 v 0.26752 a 8.2262444,8.2262444 0 0 1 -8.0638204,8.302679 z m 14.5894024,4.643385 h 2.082834 a 1.0902363,1.0902363 0 0 1 0.09554,2.178378 H 13.297637 a 1.0902363,1.0902363 0 0 1 0.09554,-2.178378 h 2.082835 a 4.930014,4.930014 0 0 1 2.398127,-2.866286 5.0446656,5.0446656 0 0 1 1.02231,-0.429944 V 10.437476 a 4.0223564,4.0223564 0 0 0 2.197486,0 v 20.904789 a 5.2835228,5.2835228 0 0 1 1.0032,0.429942 4.9395684,4.9395684 0 0 1 2.398128,2.89495 z m 13.968372,-12.93651 a 8.4842102,8.4842102 0 0 1 -8.168918,8.293125 h -0.152868 a 8.2262444,8.2262444 0 0 1 -8.054268,-8.302679 v -0.26752 h 16.376054 z"
     id="path8"
     inkscape:connector-curvature="0"
     style="fill:#000000;stroke-width:0.95542908" />
</svg>
