<?xml version="1.0" encoding="UTF-8" standalone="no"?>
<!-- Generator: Adobe Illustrator 22.1.0, SVG Export Plug-In . SVG Version: 6.00 Build 0)  -->

<svg
   version="1.1"
   id="Layer_1"
   x="0px"
   y="0px"
   viewBox="0 0 80 80"
   xml:space="preserve"
   sodipodi:docname="legislacion-orig.svg"
   width="80"
   height="80"
   inkscape:version="1.1 (ce6663b3b7, 2021-05-25)"
   xmlns:inkscape="http://www.inkscape.org/namespaces/inkscape"
   xmlns:sodipodi="http://sodipodi.sourceforge.net/DTD/sodipodi-0.dtd"
   xmlns="http://www.w3.org/2000/svg"
   xmlns:svg="http://www.w3.org/2000/svg"
   xmlns:rdf="http://www.w3.org/1999/02/22-rdf-syntax-ns#"
   xmlns:cc="http://creativecommons.org/ns#"
   xmlns:dc="http://purl.org/dc/elements/1.1/"><metadata
   id="metadata17"><rdf:RDF><cc:Work
       rdf:about=""><dc:format>image/svg+xml</dc:format><dc:type
         rdf:resource="http://purl.org/dc/dcmitype/StillImage" /></cc:Work></rdf:RDF></metadata><defs
   id="defs15" /><sodipodi:namedview
   pagecolor="#ffffff"
   bordercolor="#666666"
   borderopacity="1"
   objecttolerance="10"
   gridtolerance="10"
   guidetolerance="10"
   inkscape:pageopacity="0"
   inkscape:pageshadow="2"
   inkscape:window-width="1304"
   inkscape:window-height="744"
   id="namedview13"
   showgrid="false"
   inkscape:zoom="4.6732673"
   inkscape:cx="23.217161"
   inkscape:cy="37.554026"
   inkscape:window-x="62"
   inkscape:window-y="0"
   inkscape:window-maximized="1"
   inkscape:current-layer="Layer_1"
   inkscape:pagecheckerboard="0"
   width="80px" />
<style
   type="text/css"
   id="style2">
	.st0{fill:#12B5E1;}
</style>
<g
   id="g10"
   transform="matrix(1.9146153,0,0,2.1642842,-8.5231282,-13.140182)"
   style="fill:#000000">
	<path
   class="st0"
   d="M 46,8.7 C 45.8,8.4 45.4,8.2 45,8.3 v 0 c -9,1.1 -14.8,4.4 -19.7,11.3 0,0 -0.6,0.8 -0.6,0.9 -2.1,3 -2.1,6.4 0,8.5 L 23,31.3 c -0.3,0.4 -0.2,1 0.2,1.3 0.2,0.1 0.3,0.2 0.5,0.2 0.3,0 0.6,-0.1 0.7,-0.4 l 1.7,-2.3 c 0.7,0.4 1.5,0.5 2.3,0.5 2.1,0 4.3,-1.2 5.9,-3.4 L 34.4,27 v 0 0 c 0,0 0,0 0,0 0.1,-0.1 0.1,-0.1 0.2,-0.2 l 0.2,-0.3 c 0,0 0,0 0,0 l 0.1,-0.2 v 0 c 2.8,-4 3,-5.1 2.8,-7 0.6,0.2 1,0.3 1.3,0.3 0.3,0 0.5,-0.1 0.7,-0.3 0.2,-0.2 0.3,-0.4 0.2,-0.7 C 39.7,15 42,13.1 45.4,10.1 L 45.7,9.8 C 46.2,9.6 46.3,9.1 46,8.7 Z m -7.8,8.8 C 38,17.4 37.8,17.3 37.6,17.3 37.3,17.2 37,17 36.8,17 c -0.4,-0.1 -0.7,0 -1,0.3 -0.2,0.3 -0.3,0.7 -0.1,1 0,0 0,0.1 0.1,0.3 l 0.1,0.6 c 0.3,1.8 0.4,2.2 -2.8,6.7 -0.1,0 -0.1,0.1 -0.2,0.3 -1.6,2.2 -3.8,3.2 -5.6,2.5 l 4.5,-6.4 c 0.3,-0.4 0.2,-1 -0.2,-1.3 -0.4,-0.3 -1,-0.2 -1.3,0.2 l -4.5,6.4 c -1.3,-1.5 -1.1,-3.8 0.4,-6 0.1,-0.1 0.6,-0.9 0.6,-0.9 4.1,-5.8 8.6,-8.8 15.5,-10.1 -2.2,2 -3.8,4 -4.1,6.9 z"
   id="path4"
   inkscape:connector-curvature="0"
   style="fill:#000000" />
	<path
   class="st0"
   d="m 32.6,20.5 c 0.3,0 0.6,-0.1 0.7,-0.4 L 33.4,20 c 0.3,-0.4 0.2,-1 -0.2,-1.3 -0.4,-0.3 -1,-0.2 -1.3,0.2 L 31.8,19 c -0.3,0.4 -0.2,1 0.2,1.3 0.2,0.2 0.4,0.2 0.6,0.2 z"
   id="path6"
   inkscape:connector-curvature="0"
   style="fill:#000000" />
	<path
   class="st0"
   d="m 41.6,36.3 c 0,-0.1 0,-0.1 0,-0.2 0,-0.1 -0.1,-0.1 -0.1,-0.2 0,0 -0.1,-0.1 -0.1,-0.1 -0.1,0 -0.1,-0.1 -0.2,-0.1 0,0 -0.1,-0.1 -0.1,-0.1 -0.1,0 -0.2,-0.1 -0.3,-0.1 H 39 l -1,-8.9 c -0.1,-0.5 -0.5,-0.9 -1,-0.8 -0.5,0.1 -0.8,0.5 -0.8,1 l 1,8.7 H 36.8 19.1 c -0.2,0 -0.5,0.1 -0.7,0.3 -0.2,0.2 -0.3,0.4 -0.2,0.7 l 0.1,2.1 c 0,0.7 -0.2,1.4 -0.6,1.8 -0.4,0.4 -0.8,0.6 -1.3,0.6 -1.2,0 -2.2,-1.1 -2.2,-2.5 l -2,-24.7 C 12.1,11.7 11.7,10.3 11.1,9.4 h 20.6 c 0.6,0 1.3,0.3 1.7,0.9 0.2,0.2 0.4,0.3 0.7,0.3 0.2,0 0.4,-0.1 0.6,-0.2 0.4,-0.3 0.5,-0.9 0.2,-1.3 C 34.1,8.1 33,7.5 31.8,7.5 H 8.1 c -1,0 -1.9,0.4 -2.6,1.1 -0.8,0.8 -1.2,2 -1.1,3.1 0.1,1.7 1.4,3 2.9,3 H 8.1 C 8.6,14.7 9,14.3 9,13.8 9,13.3 8.6,12.9 8.1,12.9 H 7.3 c -0.6,0 -1.1,-0.6 -1.1,-1.3 0,-0.7 0.2,-1.4 0.6,-1.8 0.4,-0.4 0.8,-0.6 1.3,-0.6 1.8,0 2.2,2.8 2.2,4.5 l 2,24.7 c 0.1,2.3 1.9,4.2 4,4.2 0.1,0 0.2,0 0.3,0 0,0 0.1,0 0.1,0 H 38 c 1,0 1.9,-0.4 2.6,-1.1 0.8,-0.8 1.2,-2 1.1,-3.1 l -0.1,-2.1 c 0,0.1 0,0.1 0,0 z m -2.3,4.2 c -0.2,0.3 -0.7,0.6 -1.3,0.6 H 19.4 c 0.4,-0.7 0.7,-1.6 0.6,-2.5 v -1.2 h 16.8 3 l 0.1,1.3 c 0,0.7 -0.2,1.4 -0.6,1.8 z"
   id="path8"
   inkscape:connector-curvature="0"
   style="fill:#000000" />
</g>
</svg>
