<?xml version="1.0" encoding="UTF-8" standalone="no"?>
<svg
   xmlns:dc="http://purl.org/dc/elements/1.1/"
   xmlns:cc="http://creativecommons.org/ns#"
   xmlns:rdf="http://www.w3.org/1999/02/22-rdf-syntax-ns#"
   xmlns:svg="http://www.w3.org/2000/svg"
   xmlns="http://www.w3.org/2000/svg"
   xmlns:sodipodi="http://sodipodi.sourceforge.net/DTD/sodipodi-0.dtd"
   xmlns:inkscape="http://www.inkscape.org/namespaces/inkscape"
   id="Layer_1"
   data-name="Layer 1"
   viewBox="0 0 40.000001 40.000001"
   version="1.1"
   sodipodi:docname="firma-contrato.svg"
   width="40"
   height="40"
   inkscape:version="0.92.4 (5da689c313, 2019-01-14)">
  <metadata
     id="metadata23">
    <rdf:RDF>
      <cc:Work
         rdf:about="">
        <dc:format>image/svg+xml</dc:format>
        <dc:type
           rdf:resource="http://purl.org/dc/dcmitype/StillImage" />
        <dc:title>firma contrato</dc:title>
      </cc:Work>
    </rdf:RDF>
  </metadata>
  <sodipodi:namedview
     pagecolor="#ffffff"
     bordercolor="#666666"
     borderopacity="1"
     objecttolerance="10"
     gridtolerance="10"
     guidetolerance="10"
     inkscape:pageopacity="0"
     inkscape:pageshadow="2"
     inkscape:window-width="1366"
     inkscape:window-height="700"
     id="namedview21"
     showgrid="false"
     inkscape:zoom="4.6769719"
     inkscape:cx="-2.9933898"
     inkscape:cy="25.23"
     inkscape:window-x="0"
     inkscape:window-y="0"
     inkscape:window-maximized="1"
     inkscape:current-layer="Layer_1" />
  <defs
     id="defs4">
    <style
       id="style2">.cls-1{fill:#12b5e1;}</style>
  </defs>
  <title
     id="title6">firma contrato</title>
  <g
     id="g31"
     style="fill:#000000"
     transform="matrix(0.97413337,0,0,0.97413337,-6.5012983,5.6266612)">
    <path
       style="fill:#000000"
       inkscape:connector-curvature="0"
       id="path8"
       d="m 30.24,5.6700009 a 0.81,0.81 0 1 0 0,-1.62 H 19.43 a 0.81,0.81 0 0 0 0,1.62 z"
       class="cls-1" />
    <path
       style="fill:#000000"
       inkscape:connector-curvature="0"
       id="path10"
       d="m 13.43,9.4100009 a 0.81,0.81 0 0 0 0.81,0.8100001 h 16 a 0.81,0.81 0 1 0 0,-1.6100001 h -16 a 0.8,0.8 0 0 0 -0.81,0.8 z"
       class="cls-1" />
    <path
       style="fill:#000000"
       inkscape:connector-curvature="0"
       id="path12"
       d="m 14.24,14.770001 h 16 a 0.81,0.81 0 1 0 0,-1.61 h -16 a 0.81,0.81 0 1 0 0,1.61 z"
       class="cls-1" />
    <path
       style="fill:#000000"
       inkscape:connector-curvature="0"
       id="path14"
       d="m 36.29,29.540001 a 2.42,2.42 0 0 1 -2.42,2.41 H 10.61 a 2.42,2.42 0 0 1 -2.42,-2.41 V 4.6900009 c 2.31,0 4.93,0 5.31,0 h 0.05 a 1,1 0 0 0 0.93,-0.94 v -6.12 h 19.39 a 2.42,2.42 0 0 1 2.42,2.41000002 V 10.040001 l 1.56,-1.1700001 h 0.09 V 0.04000092 A 4.08,4.08 0 0 0 33.87,-4.0299991 H 13.35 v 0 l -6.72,7.16 v 0.05 L 6.54,29.540001 a 4.07,4.07 0 0 0 4.07,4 h 23.26 a 4.08,4.08 0 0 0 4.07,-4 v -7.23 c -0.55,0.34 -1.11,0.68 -1.65,1 z M 12.62,-0.61999908 V 2.8100009 H 9.48 Z"
       class="cls-1" />
    <path
       style="fill:#000000"
       inkscape:connector-curvature="0"
       id="path16"
       d="m 44.65,5.6700009 -1.44,1.87 c -0.58,0.72 -0.9,1.65 -0.18,2.22 l 0.17,0.14 a 3.34,3.34 0 0 1 -4.21,0.2700001 c 0,0 -3.72,2 -3,5.77 a 7.33,7.33 0 0 1 -1.22,4.91 l 4,-5.09 a 1.15,1.15 0 0 1 0,-1.71 1.42,1.42 0 0 1 2.22,1.76 1.34,1.34 0 0 1 -1.67,0.4 l -4.1,5 c 1.18,-0.91 3.19,-2.22 4.54,-2.27 3.82,-0.14 5,-4.19 5,-4.19 a 3.34,3.34 0 0 1 -0.7,-4.16 l 0.17,0.13 c 0.72,0.57 1.62,0.11 2.2,-0.62 l 1.44,-1.8200001 z"
       class="cls-1" />
    <path
       style="fill:#000000"
       inkscape:connector-curvature="0"
       id="path18"
       d="m 16.44,27.420001 c 0,0.95 0.32,1.6 0.91,1.78 a 1.08,1.08 0 0 0 0.27,0.05 c 0.37,0 0.84,-0.19 1.3,-1 a 25.55,25.55 0 0 0 1.25,-2.44 l 0.3,-0.64 0.05,0.34 c 0,0.29 0.17,1.18 0.87,1.43 q 0.75,0.27 1.5,-0.69 l 1.37,-1.71 a 1,1 0 0 1 0.12,-0.14 l 0.05,0.09 a 8.22,8.22 0 0 0 1.87,2.46 3.3,3.3 0 0 0 2.28,0.92 c 2,-0.09 3.7,-2.37 5,-4 0.16,-0.21 0.3,-0.41 0.44,-0.58 a 0.8,0.8 0 0 0 0,-1 0.59,0.59 0 0 0 -0.9,0.07 l -0.46,0.6 c -1,1.38 -2.6,3.46 -4,3.52 a 2.17,2.17 0 0 1 -1.46,-0.62 6.9,6.9 0 0 1 -1.54,-2 1.5,1.5 0 0 0 -0.95,-0.87 c -0.65,-0.12 -1.11,0.47 -1.28,0.69 l -1.38,1.76 a 0.94,0.94 0 0 1 -0.12,0.14 c 0,0 0,-0.1 0,-0.17 l -0.34,-2.29 a 0.69,0.69 0 0 0 -0.49,-0.58 0.6,0.6 0 0 0 -0.67,0.3 23.33,23.33 0 0 0 -1.43,2.33 22.29,22.29 0 0 1 -1.17,2.29 1.08,1.08 0 0 1 -0.14,0.21 1.57,1.57 0 0 1 0,-0.25 25.24,25.24 0 0 1 0.7,-4.88 c 0.18,-0.89 0.37,-1.8 0.51,-2.71 a 1.39,1.39 0 0 0 -0.07,-0.75 1,1 0 0 0 -1.33,-0.44 c -2.85,1.21 -4.85,5.23 -5.4,6.43 a 0.8,0.8 0 0 0 0.27,1 0.62,0.62 0 0 0 0.87,-0.32 c 0.94,-2.08 2.53,-4.54 4.29,-5.53 -0.11,0.67 -0.25,1.35 -0.38,2 a 25.55,25.55 0 0 0 -0.71,5.2 z"
       class="cls-1" />
  </g>
</svg>
