<?xml version="1.0" encoding="UTF-8" standalone="no"?>
<svg
   xmlns:dc="http://purl.org/dc/elements/1.1/"
   xmlns:cc="http://creativecommons.org/ns#"
   xmlns:rdf="http://www.w3.org/1999/02/22-rdf-syntax-ns#"
   xmlns:svg="http://www.w3.org/2000/svg"
   xmlns="http://www.w3.org/2000/svg"
   xmlns:sodipodi="http://sodipodi.sourceforge.net/DTD/sodipodi-0.dtd"
   xmlns:inkscape="http://www.inkscape.org/namespaces/inkscape"
   id="Layer_1"
   data-name="Layer 1"
   viewBox="0 0 40.000001 40.000001"
   version="1.1"
   sodipodi:docname="mujer.svg"
   width="40"
   height="40"
   inkscape:version="0.92.4 (5da689c313, 2019-01-14)">
  <metadata
     id="metadata15">
    <rdf:RDF>
      <cc:Work
         rdf:about="">
        <dc:format>image/svg+xml</dc:format>
        <dc:type
           rdf:resource="http://purl.org/dc/dcmitype/StillImage" />
        <dc:title>mujer</dc:title>
      </cc:Work>
    </rdf:RDF>
  </metadata>
  <sodipodi:namedview
     pagecolor="#ffffff"
     bordercolor="#666666"
     borderopacity="1"
     objecttolerance="10"
     gridtolerance="10"
     guidetolerance="10"
     inkscape:pageopacity="0"
     inkscape:pageshadow="2"
     inkscape:window-width="1366"
     inkscape:window-height="700"
     id="namedview13"
     showgrid="false"
     inkscape:zoom="4.6769719"
     inkscape:cx="25.23"
     inkscape:cy="25.23"
     inkscape:window-x="0"
     inkscape:window-y="0"
     inkscape:window-maximized="1"
     inkscape:current-layer="Layer_1" />
  <defs
     id="defs4">
    <style
       id="style2">.cls-1{fill:#12b5e1;}</style>
  </defs>
  <title
     id="title6">mujer</title>
  <g
     id="g19"
     transform="matrix(0.83729047,0,0,0.83729047,-1.1333115,7.6374054)">
    <path
       style="fill:#000000"
       inkscape:connector-curvature="0"
       id="path8"
       d="m 30.75,3.6100009 a 7.35,7.35 0 0 0 -5.5,-2.31 v 0 a 7.36,7.36 0 0 0 -5.5,2.31 c -3.87,4 -3.73,11.7400001 -3.7,12.6100001 a 1.87,1.87 0 0 0 1.88,1.82 H 18 a 1.87,1.87 0 0 0 1.82,-1.94 21.54,21.54 0 0 1 1.1,-7.2100001 l 0.27,4.4700001 -2.91,10.46 a 1.17,1.17 0 0 0 0.92,1.5 l 1.51,0.27 v 11.05 a 1.89,1.89 0 0 0 3.77,0 v -10.62 c 0.51,0 1,0 1.54,0 v 10.62 a 1.88,1.88 0 1 0 3.76,0 v -10.89 l 1.44,-0.2 a 1.19,1.19 0 0 0 1,-1.51 l -2.72,-10.68 0.16,-4.2800001 a 22,22 0 0 1 1,7.0000001 1.88,1.88 0 0 0 1.82,1.94 h 0.06 a 1.87,1.87 0 0 0 1.88,-1.82 c 0.06,-0.85 0.2,-8.6000001 -3.67,-12.5900001 z"
       class="cls-1" />
    <path
       style="fill:#000000"
       inkscape:connector-curvature="0"
       id="path10"
       d="M 25.23,0.19000092 A 4.59,4.59 0 1 0 20.64,-4.3999991 4.59,4.59 0 0 0 25.23,0.19000092 Z"
       class="cls-1" />
  </g>
</svg>
