<?xml version="1.0" encoding="UTF-8" standalone="no"?>
<svg
   xmlns:dc="http://purl.org/dc/elements/1.1/"
   xmlns:cc="http://creativecommons.org/ns#"
   xmlns:rdf="http://www.w3.org/1999/02/22-rdf-syntax-ns#"
   xmlns:svg="http://www.w3.org/2000/svg"
   xmlns="http://www.w3.org/2000/svg"
   xmlns:sodipodi="http://sodipodi.sourceforge.net/DTD/sodipodi-0.dtd"
   xmlns:inkscape="http://www.inkscape.org/namespaces/inkscape"
   id="Layer_1"
   data-name="Layer 1"
   viewBox="0 0 80.000001 80.000001"
   version="1.1"
   sodipodi:docname="social.svg"
   width="80"
   height="80"
   inkscape:version="0.92.4 (5da689c313, 2019-01-14)">
  <metadata
     id="metadata27">
    <rdf:RDF>
      <cc:Work
         rdf:about="">
        <dc:format>image/svg+xml</dc:format>
        <dc:type
           rdf:resource="http://purl.org/dc/dcmitype/StillImage" />
        <dc:title>social</dc:title>
      </cc:Work>
    </rdf:RDF>
  </metadata>
  <sodipodi:namedview
     pagecolor="#ffffff"
     bordercolor="#666666"
     borderopacity="1"
     objecttolerance="10"
     gridtolerance="10"
     guidetolerance="10"
     inkscape:pageopacity="0"
     inkscape:pageshadow="2"
     inkscape:window-width="1366"
     inkscape:window-height="700"
     id="namedview25"
     showgrid="false"
     inkscape:zoom="4.6769719"
     inkscape:cx="-4.810805"
     inkscape:cy="42.335084"
     inkscape:window-x="0"
     inkscape:window-y="0"
     inkscape:window-maximized="1"
     inkscape:current-layer="Layer_1" />
  <defs
     id="defs4">
    <style
       id="style2">.cls-1{fill:#65b4e1;}</style>
  </defs>
  <title
     id="title6">social</title>
  <g
     id="g37"
     style="fill:#000000"
     transform="matrix(1.830358,0,0,1.830358,-6.1845251,-5.9073297)">
    <path
       id="path8"
       d="m 22.11,7.63 a 3.23,3.23 0 0 0 0.41,0.93 3.29,3.29 0 0 0 0.42,0.51 3.25,3.25 0 0 0 0.46,0.37 l 0.15,0.1 0.36,0.19 0.17,0.08 a 3.25,3.25 0 0 0 0.47,0.14 h 0.3 0.2 0.2 0.16 v 0 A 3.1,3.1 0 0 0 25.82,9.9 3.33,3.33 0 0 0 26.27,9.78 3.23,3.23 0 0 0 27.02,9.43 3.3,3.3 0 0 0 27.53,9.01 3.25,3.25 0 0 0 28.36,7.55 3.24,3.24 0 0 0 27.53,4.37 C 27.46,4.3 27.38,4.23 27.3,4.17 A 3.16,3.16 0 0 0 27,4 L 26.64,3.81 A 3.41,3.41 0 0 0 26,3.57 3.27,3.27 0 0 0 22,7.37 c 0.06,0.09 0.09,0.18 0.11,0.26 z"
       class="cls-1"
       style="fill:#000000"
       inkscape:connector-curvature="0" />
    <path
       id="path10"
       d="m 15.55,13.77 a 1.56,1.56 0 0 0 1,-0.32 14.35,14.35 0 0 1 4,-2.14 l 2.11,4.43 a 1.57,1.57 0 0 0 1.37,0.89 l 2.86,0.08 v 0 a 1.57,1.57 0 0 0 1.46,-1 L 30,11.26 a 14.33,14.33 0 0 1 4,2.07 1.57,1.57 0 1 0 1.87,-2.51 17.47,17.47 0 0 0 -6.12,-2.92 4.6,4.6 0 0 1 -8.92,0 h -0.07 a 17.49,17.49 0 0 0 -6.14,3 1.57,1.57 0 0 0 1,2.81 z"
       class="cls-1"
       style="fill:#000000"
       inkscape:connector-curvature="0" />
    <path
       id="path12"
       d="m 40.44,22 a 4.58,4.58 0 0 1 2.1,-1.19 v 0 a 17.49,17.49 0 0 0 -3,-6.19 1.5830114,1.5830114 0 0 0 -2.54,1.89 14.35,14.35 0 0 1 2.14,4 l -4.43,2.11 a 1.57,1.57 0 0 0 -0.89,1.37 l -0.08,2.86 a 1.57,1.57 0 0 0 1,1.5 L 39.2,30 a 14.33,14.33 0 0 1 -2.07,4 1.57,1.57 0 0 0 2.51,1.88 17.47,17.47 0 0 0 2.92,-6.12 4.58,4.58 0 0 1 -2.13,-1.2 4.63,4.63 0 0 1 0.01,-6.56 z"
       class="cls-1"
       style="fill:#000000"
       inkscape:connector-curvature="0" />
    <path
       id="path14"
       d="M 46.93,24.63 A 3.28,3.28 0 0 0 43.71,22 v 0 a 3.3,3.3 0 0 0 -0.63,0.06 l -0.25,0.07 a 3.23,3.23 0 0 0 -0.93,0.41 3.25,3.25 0 0 0 -1.28,3.83 3.24,3.24 0 0 0 0.34,0.71 3.31,3.31 0 0 0 0.94,0.93 3.24,3.24 0 0 0 0.95,0.41 3.27,3.27 0 0 0 4.08,-3.78 z"
       class="cls-1"
       style="fill:#000000"
       inkscape:connector-curvature="0" />
    <path
       id="path16"
       d="m 34,37 a 14.35,14.35 0 0 1 -4,2.14 l -2.11,-4.43 a 1.57,1.57 0 0 0 -1.37,-0.89 l -2.86,-0.08 a 1.61,1.61 0 0 0 -1.5,1 l -1.74,4.46 a 14.34,14.34 0 0 1 -3.93,-2.06 1.57,1.57 0 1 0 -1.87,2.51 17.47,17.47 0 0 0 6.12,2.91 4.6,4.6 0 0 1 8.92,0 v 0 a 17.48,17.48 0 0 0 6.16,-3 A 1.5705095,1.5705095 0 1 0 34,37 Z"
       class="cls-1"
       style="fill:#000000"
       inkscape:connector-curvature="0" />
    <path
       id="path18"
       d="M 28.24,42.47 A 3.26,3.26 0 0 0 27.94,41.9 3.3,3.3 0 0 0 27.52,41.39 3.24,3.24 0 0 0 26.25,40.6 3.33,3.33 0 0 0 25.78,40.48 3.29,3.29 0 0 0 25.21,40.43 H 25.07 24.9 a 3.25,3.25 0 0 0 -0.54,0.1 l -0.21,0.06 a 3.24,3.24 0 0 0 -0.48,0.21 l -0.19,0.1 a 3.17,3.17 0 1 0 4.77,1.55 z"
       class="cls-1"
       style="fill:#000000"
       inkscape:connector-curvature="0" />
    <path
       id="path20"
       d="m 11.31,30 4.43,-2.11 a 1.57,1.57 0 0 0 0.89,-1.37 l 0.08,-2.86 a 1.57,1.57 0 0 0 -1,-1.5 l -4.45,-1.74 a 14.33,14.33 0 0 1 2.06,-3.93 1.57,1.57 0 0 0 -2.51,-1.88 17.47,17.47 0 0 0 -2.92,6.12 4.6,4.6 0 0 1 0,8.92 v 0 a 17.48,17.48 0 0 0 3,6.2 1.5751984,1.5751984 0 0 0 2.55,-1.85 14.35,14.35 0 0 1 -2.13,-4 z"
       class="cls-1"
       style="fill:#000000"
       inkscape:connector-curvature="0" />
    <path
       id="path22"
       d="m 9.49,27 a 3.28,3.28 0 1 0 -4.54,0.93 3.23,3.23 0 0 0 0.58,0.29 h 0.12 a 3.28,3.28 0 0 0 1.11,0.2 3.28,3.28 0 0 0 0.88,-0.13 v 0 A 3.25,3.25 0 0 0 9.08,27.46 3.3,3.3 0 0 0 9.49,27 Z"
       class="cls-1"
       style="fill:#000000"
       inkscape:connector-curvature="0" />
  </g>
</svg>
