<?xml version="1.0" encoding="UTF-8" standalone="no"?>
<svg
   xmlns:dc="http://purl.org/dc/elements/1.1/"
   xmlns:cc="http://creativecommons.org/ns#"
   xmlns:rdf="http://www.w3.org/1999/02/22-rdf-syntax-ns#"
   xmlns:svg="http://www.w3.org/2000/svg"
   xmlns="http://www.w3.org/2000/svg"
   xmlns:sodipodi="http://sodipodi.sourceforge.net/DTD/sodipodi-0.dtd"
   xmlns:inkscape="http://www.inkscape.org/namespaces/inkscape"
   id="Layer_1"
   data-name="Layer 1"
   viewBox="0 0 80.000001 80.000001"
   version="1.1"
   sodipodi:docname="solidaridad.svg"
   width="80"
   height="80"
   inkscape:version="0.92.4 (5da689c313, 2019-01-14)">
  <metadata
     id="metadata29">
    <rdf:RDF>
      <cc:Work
         rdf:about="">
        <dc:format>image/svg+xml</dc:format>
        <dc:type
           rdf:resource="http://purl.org/dc/dcmitype/StillImage" />
        <dc:title>solidaridad</dc:title>
      </cc:Work>
    </rdf:RDF>
  </metadata>
  <sodipodi:namedview
     pagecolor="#ffffff"
     bordercolor="#666666"
     borderopacity="1"
     objecttolerance="10"
     gridtolerance="10"
     guidetolerance="10"
     inkscape:pageopacity="0"
     inkscape:pageshadow="2"
     inkscape:window-width="1366"
     inkscape:window-height="700"
     id="namedview27"
     showgrid="false"
     inkscape:zoom="4.6769719"
     inkscape:cx="25.23"
     inkscape:cy="50.887626"
     inkscape:window-x="0"
     inkscape:window-y="0"
     inkscape:window-maximized="1"
     inkscape:current-layer="Layer_1" />
  <defs
     id="defs4">
    <style
       id="style2">.cls-1{fill:#65b4e1;}</style>
  </defs>
  <title
     id="title6">solidaridad</title>
  <g
     id="g40"
     transform="matrix(1.8283621,0,0,1.8283621,-6.1256533,-60.13963)">
    <path
       style="fill:#000000"
       inkscape:connector-curvature="0"
       id="path8"
       d="m 24.59,63.730001 -1.15,1.24 a 1.66,1.66 0 0 0 0.09,2.34 v 0 a 1.64,1.64 0 0 0 1.13,0.44 h 0.06 a 1.64,1.64 0 0 0 1.15,-0.53 l 1.13,-1.24 a 1.66,1.66 0 1 0 -2.43,-2.26 z"
       class="cls-1" />
    <path
       style="fill:#000000"
       inkscape:connector-curvature="0"
       id="path10"
       d="m 25.46,61.460001 a 1.66,1.66 0 0 0 -2.86,-1.07 l -2.6,2.74 a 1.65,1.65 0 0 0 1.21,2.78 h 0.06 a 1.64,1.64 0 0 0 1.15,-0.52 l 2.58,-2.74 a 1.64,1.64 0 0 0 0.46,-1.19 z"
       class="cls-1" />
    <path
       style="fill:#000000"
       inkscape:connector-curvature="0"
       id="path12"
       d="m 22.07,59.700001 a 1.66,1.66 0 0 0 -2.86,-1.07 l -2.28,2.37 a 1.65,1.65 0 0 0 1.21,2.78 h 0.06 a 1.64,1.64 0 0 0 1.15,-0.52 l 2.28,-2.37 a 1.64,1.64 0 0 0 0.44,-1.19 z"
       class="cls-1" />
    <path
       style="fill:#000000"
       inkscape:connector-curvature="0"
       id="path14"
       d="m 17.17,60.290001 a 1.66,1.66 0 0 0 -2.43,-2.26 l -0.43,0.47 a 1.65,1.65 0 0 0 1.21,2.78 h 0.06 a 1.64,1.64 0 0 0 1.15,-0.53 z"
       class="cls-1" />
    <path
       style="fill:#000000"
       inkscape:connector-curvature="0"
       id="path16"
       d="m 35.75,45.540001 a 0.28,0.28 0 0 0 -0.35,-0.13 8.21,8.21 0 0 1 -1.36,0.42 3.45,3.45 0 0 1 -2,-0.86 10.27,10.27 0 0 0 -1.93,-1.08 3.84,3.84 0 0 0 -2.91,-0.35 c -1.39,0.27 -5.35,3 -5.63,3.19 l -3.38,2.49 a 1.81,1.81 0 0 0 2.16,2.9 l 4.65,-2.58 v 0 c 0.65,-0.42 1.38,-0.74 2.58,0.41 a 1.23,1.23 0 0 0 0.13,0.18 l 0.8,0.89 c 2.39,2.65 7.58,8.31 7.64,8.37 a 0.28,0.28 0 0 0 0.21,0.09 v 0 a 0.28,0.28 0 0 0 0.21,-0.09 l 4.13,-4.15 a 0.28,0.28 0 0 0 0,-0.32 z"
       class="cls-1" />
    <path
       style="fill:#000000"
       inkscape:connector-curvature="0"
       id="path18"
       d="m 46.74,53.060001 -5.74,-11 a 0.35,0.35 0 0 0 -0.49,-0.14 l -3.55,2 a 0.35,0.35 0 0 0 -0.14,0.47 l 5.69,10.71 a 0.35,0.35 0 0 0 0.47,0.15 l 3.6,-1.71 a 0.35,0.35 0 0 0 0.16,-0.48 z"
       class="cls-1" />
    <path
       style="fill:#000000"
       inkscape:connector-curvature="0"
       id="path20"
       d="m 12.4,43.430001 -3.74,-1.61 a 0.35,0.35 0 0 0 -0.47,0.2 l -4.49,11.52 a 0.35,0.35 0 0 0 0.21,0.46 l 3.74,1.32 a 0.35,0.35 0 0 0 0.45,-0.2 l 4.49,-11.27 a 0.35,0.35 0 0 0 -0.19,-0.42 z"
       class="cls-1" />
    <path
       style="fill:#000000"
       inkscape:connector-curvature="0"
       id="path22"
       d="m 36.94,59.780001 a 0.58,0.58 0 0 0 -0.37,0.39 v 0.06 a 1.25,1.25 0 0 1 -2.14,1.08 l -4,-4.09 a 0.62,0.62 0 0 0 -0.65,0.06 0.75,0.75 0 0 0 -0.18,0.68 l 3.6,3.78 a 1.25,1.25 0 0 1 -1.83,1.7 l -3.85,-4 a 0.67,0.67 0 0 0 -0.75,0.14 0.8,0.8 0 0 0 -0.09,0.73 c 0.07,0.08 1.66,1.84 2,2.15 l 1.06,1.08 a 1.25,1.25 0 0 1 -0.06,1.77 1.28,1.28 0 0 1 -1.44,0.19 v 0 0 a 0.75,0.75 0 0 0 -0.51,0.7 v 0.07 h 0.06 a 2.2,2.2 0 0 0 3.21,-1.87 2.2,2.2 0 0 0 3.46,-1.73 c 0,-0.06 0,-0.12 0,-0.18 a 2.2,2.2 0 0 0 3,-2.37 0.47,0.47 0 0 0 -0.52,-0.34 z"
       class="cls-1" />
    <path
       style="fill:#000000"
       inkscape:connector-curvature="0"
       id="path24"
       d="m 14.2,57.940001 a 0.47,0.47 0 0 0 -0.16,-0.33 l -3.23,-2.9 3.65,-9.08 a 7.46,7.46 0 0 0 2.15,0.52 6.06,6.06 0 0 0 4,-1.28 l 0.32,-0.2 a 3,3 0 0 1 2.89,-0.18 0.48,0.48 0 1 0 0.51,-0.81 4,4 0 0 0 -3.9,0.18 l -0.32,0.2 a 5.18,5.18 0 0 1 -3.48,1.13 7.53,7.53 0 0 1 -2.23,-0.65 0.48,0.48 0 0 0 -0.64,0.25 l -4,9.83 a 0.48,0.48 0 0 0 0.12,0.53 l 3.48,3.12 a 0.48,0.48 0 0 0 0.8,-0.38 z"
       class="cls-1" />
  </g>
</svg>
