<?xml version="1.0" encoding="UTF-8" standalone="no"?>
<svg
   xmlns:dc="http://purl.org/dc/elements/1.1/"
   xmlns:cc="http://creativecommons.org/ns#"
   xmlns:rdf="http://www.w3.org/1999/02/22-rdf-syntax-ns#"
   xmlns:svg="http://www.w3.org/2000/svg"
   xmlns="http://www.w3.org/2000/svg"
   xmlns:sodipodi="http://sodipodi.sourceforge.net/DTD/sodipodi-0.dtd"
   xmlns:inkscape="http://www.inkscape.org/namespaces/inkscape"
   id="Layer_1"
   data-name="Layer 1"
   viewBox="0 0 40.000001 40.000001"
   version="1.1"
   sodipodi:docname="uavt.svg"
   width="40"
   height="40"
   inkscape:version="0.92.4 (5da689c313, 2019-01-14)">
  <metadata
     id="metadata21">
    <rdf:RDF>
      <cc:Work
         rdf:about="">
        <dc:format>image/svg+xml</dc:format>
        <dc:type
           rdf:resource="http://purl.org/dc/dcmitype/StillImage" />
        <dc:title>conexion</dc:title>
      </cc:Work>
    </rdf:RDF>
  </metadata>
  <sodipodi:namedview
     pagecolor="#ffffff"
     bordercolor="#666666"
     borderopacity="1"
     objecttolerance="10"
     gridtolerance="10"
     guidetolerance="10"
     inkscape:pageopacity="0"
     inkscape:pageshadow="2"
     inkscape:window-width="1366"
     inkscape:window-height="700"
     id="namedview19"
     showgrid="false"
     inkscape:zoom="4.6769719"
     inkscape:cx="10.797584"
     inkscape:cy="25.23"
     inkscape:window-x="0"
     inkscape:window-y="0"
     inkscape:window-maximized="1"
     inkscape:current-layer="Layer_1" />
  <defs
     id="defs4">
    <style
       id="style2">.cls-1{fill:#65b4e1;}</style>
  </defs>
  <title
     id="title6">conexion</title>
  <g
     id="g28"
     transform="matrix(0.83330718,0,0,0.83330718,-1.0336024,-1.0003201)">
    <path
       style="fill:#000000"
       id="path8"
       d="m 44.49,13.29 a 4.76,4.76 0 1 0 -4.59,-3.47 0.85,0.85 0 0 0 1.63,-0.46 3.07,3.07 0 1 1 3,2.24 3,3 0 0 1 -1.89,-0.65 H 42.56 A 0.82,0.82 0 0 0 42.39,10.86 H 42.25 42 41.85 L 41.69,10.91 41.55,11 41.46,11.06 37,15.44 a 14.27,14.27 0 0 0 -24.25,6.42 v 0 l -0.07,0.31 a 0.85,0.85 0 0 0 0.65,1 h 0.18 a 0.85,0.85 0 0 0 0.83,-0.67 l 0.06,-0.27 v 0 a 12.61,12.61 0 1 1 -0.35,3.54 0.82,0.82 0 0 0 -0.52,-0.74 v 0 a 0.93,0.93 0 0 0 -0.2,0 H 13.2 L 9.86,25 v 0 H 9.75 9.59 L 9.44,25.07 9.32,25.15 A 0.82,0.82 0 0 0 9.2,25.28 l -0.08,0.11 a 0.82,0.82 0 0 0 -0.07,0.19 0.8,0.8 0 0 0 0,0.08 3,3 0 0 1 -0.91,1.78 3,3 0 0 1 -2.19,0.86 3.07,3.07 0 1 1 2.76,-4.52 0.85,0.85 0 1 0 1.49,-0.8 4.76,4.76 0 1 0 -4.28,7 H 6 a 4.76,4.76 0 0 0 4.55,-3.36 h 1.91 a 14.26,14.26 0 0 0 23.43,9.47 l 2.77,3.22 a 4.71,4.71 0 0 0 -0.74,2.26 4.77,4.77 0 0 0 4.45,5.06 h 0.31 a 4.7623629,4.7623629 0 0 0 0.3,-9.52 4.83,4.83 0 0 0 -1.3,0.1 0.87475711,0.87475711 0 0 0 0.32,1.72 3.11,3.11 0 0 1 0.84,-0.06 3.07,3.07 0 1 1 -3.26,2.87 3,3 0 0 1 0.77,-1.84 0.79,0.79 0 0 0 0,-0.08 0.82,0.82 0 0 0 0.1,-0.17 0.8,0.8 0 0 0 0,-0.13 0.66,0.66 0 0 0 0,-0.32 0.81,0.81 0 0 0 0,-0.17 0.82,0.82 0 0 0 -0.08,-0.14 0.79,0.79 0 0 0 -0.05,-0.1 L 37.09,35 a 14.2,14.2 0 0 0 1,-18.23 l 4.1,-4 a 4.72,4.72 0 0 0 2.3,0.52 z"
       class="cls-1"
       inkscape:connector-curvature="0" />
    <circle
       style="fill:#000000"
       id="circle10"
       r="1.64"
       cy="8.5299997"
       cx="44.490002"
       class="cls-1" />
    <circle
       style="fill:#000000"
       id="circle12"
       transform="rotate(-86.35,42.653165,41.932861)"
       r="1.64"
       cy="41.93"
       cx="42.650002"
       class="cls-1" />
    <circle
       style="fill:#000000"
       id="circle14"
       transform="rotate(-44,5.9749881,25.259814)"
       r="1.64"
       cy="25.26"
       cx="5.9699998"
       class="cls-1" />
    <path
       style="fill:#000000"
       id="path16"
       d="m 18.84,32.38 c 0,2.3 5.76,2.54 8.24,2.54 a 23.43,23.43 0 0 0 4.82,-0.43 c 0.68,-0.15 2.74,-0.61 2.74,-2.11 a 8.19,8.19 0 0 0 -3.87,-6.63 5.48,5.48 0 1 0 -8,0 8.17,8.17 0 0 0 -3.93,6.63 z m 7.9,-14.14 A 3.79,3.79 0 1 1 23,22 3.8,3.8 0 0 1 26.74,18.25 Z M 24,27 a 0.81,0.81 0 0 0 0.17,-0.11 5.45,5.45 0 0 0 5.08,0 6.38,6.38 0 0 1 3.7,5.4 c -0.23,0.23 -1.44,0.78 -4.64,0.91 -3.92,0.16 -7.17,-0.46 -7.77,-1 A 6.28,6.28 0 0 1 24,27 Z"
       class="cls-1"
       inkscape:connector-curvature="0" />
  </g>
</svg>
