<?xml version="1.0" encoding="UTF-8" standalone="no"?>
<svg
   xmlns:dc="http://purl.org/dc/elements/1.1/"
   xmlns:cc="http://creativecommons.org/ns#"
   xmlns:rdf="http://www.w3.org/1999/02/22-rdf-syntax-ns#"
   xmlns:svg="http://www.w3.org/2000/svg"
   xmlns="http://www.w3.org/2000/svg"
   xmlns:sodipodi="http://sodipodi.sourceforge.net/DTD/sodipodi-0.dtd"
   xmlns:inkscape="http://www.inkscape.org/namespaces/inkscape"
   id="Layer_1"
   data-name="Layer 1"
   viewBox="0 0 80.000001 80.000001"
   version="1.1"
   sodipodi:docname="facilitadores.svg"
   width="80"
   height="80"
   inkscape:version="0.92.4 (5da689c313, 2019-01-14)">
  <metadata
     id="metadata27">
    <rdf:RDF>
      <cc:Work
         rdf:about="">
        <dc:format>image/svg+xml</dc:format>
        <dc:type
           rdf:resource="http://purl.org/dc/dcmitype/StillImage" />
        <dc:title>empleo 2</dc:title>
      </cc:Work>
    </rdf:RDF>
  </metadata>
  <sodipodi:namedview
     pagecolor="#ffffff"
     bordercolor="#666666"
     borderopacity="1"
     objecttolerance="10"
     gridtolerance="10"
     guidetolerance="10"
     inkscape:pageopacity="0"
     inkscape:pageshadow="2"
     inkscape:window-width="1366"
     inkscape:window-height="700"
     id="namedview25"
     showgrid="false"
     inkscape:zoom="4.6769719"
     inkscape:cx="-4.810805"
     inkscape:cy="25.23"
     inkscape:window-x="0"
     inkscape:window-y="0"
     inkscape:window-maximized="1"
     inkscape:current-layer="Layer_1" />
  <defs
     id="defs4">
    <style
       id="style2">.cls-1{fill:#65b4e1;}</style>
  </defs>
  <title
     id="title6">empleo 2</title>
  <g
     id="g35"
     transform="matrix(1.7985975,0,0,1.7985975,-5.326687,-18.59382)"
     style="fill:#000000">
    <path
       id="path8"
       d="M 38.68,30.23 A 5.31,5.31 0 0 0 44,25 c 0.45,-1 1.07,-2.92 0.17,-4.25 a 2.55,2.55 0 0 0 -3,-0.72 4.89,4.89 0 0 0 -2.94,-2.23 4.4,4.4 0 0 0 -3.61,1.12 c -2.43,1.92 -1.54,5.16 -1.2,6.14 a 5.32,5.32 0 0 0 5.26,5.17 z m -4.19,-5 a 11.31,11.31 0 0 0 6.31,-3.9 v 0 a 10,10 0 0 0 2.06,3.43 v 0.07 a 0.81,0.81 0 0 1 0,0.12 4.21,4.21 0 0 1 -8.41,0.28 z"
       class="cls-1"
       inkscape:connector-curvature="0"
       style="fill:#000000" />
    <path
       id="path10"
       d="M 11.78,30.23 A 5.31,5.31 0 0 0 17.07,25 c 0.45,-1 1.07,-2.92 0.17,-4.25 a 2.55,2.55 0 0 0 -3,-0.72 4.89,4.89 0 0 0 -2.94,-2.23 4.4,4.4 0 0 0 -3.61,1.12 c -2.43,1.92 -1.54,5.16 -1.2,6.14 a 5.32,5.32 0 0 0 5.29,5.17 z m -4.19,-5 a 11.31,11.31 0 0 0 6.31,-3.9 v 0 a 10,10 0 0 0 2.1,3.42 v 0.07 a 0.81,0.81 0 0 1 0,0.11 4.21,4.21 0 0 1 -8.41,0.28 z"
       class="cls-1"
       inkscape:connector-curvature="0"
       style="fill:#000000" />
    <path
       id="path12"
       d="m 16.31,33.09 5.47,0.11 a 6.35,6.35 0 0 0 7.08,0 l 5.49,-0.11 A 14.5,14.5 0 0 1 32.49,25.38 C 32.6,19.23 27.67,17.55 25,18 a 5.89,5.89 0 0 0 -2.77,1.15 c -2,-0.07 -4.12,1.49 -4,6.21 a 14.5,14.5 0 0 1 -1.92,7.73 z m 6.86,-10 a 12.16,12.16 0 0 0 7.44,4.69 c 0,0 0,0.09 0,0.14 a 5.3,5.3 0 1 1 -7.45,-4.83 z"
       class="cls-1"
       inkscape:connector-curvature="0"
       style="fill:#000000" />
    <path
       id="path14"
       d="m 42,30.13 h -0.06 -0.05 a 6,6 0 0 1 -3.23,1 6.16,6.16 0 0 1 -3.23,-1 h -0.05 -0.06 a 7.64,7.64 0 0 0 -1.28,0.81 L 34,31 l 0.08,0.15 c 0.13,0.23 0.26,0.47 0.4,0.69 l 0.06,0.1 0.09,-0.07 a 7,7 0 0 1 0.74,-0.52 7.18,7.18 0 0 0 3.31,0.89 6.91,6.91 0 0 0 3.32,-0.89 10.63,10.63 0 0 1 4.23,6.25 14.4,14.4 0 0 1 -7.54,2.25 12.62,12.62 0 0 1 -2.44,-0.28 h -0.21 l 0.09,0.19 c 0.15,0.31 0.28,0.64 0.41,1 v 0.06 h 0.06 a 12.8,12.8 0 0 0 2.06,0.19 15.37,15.37 0 0 0 8.59,-2.75 v 0 0 C 47.56,37.39 45.95,32.07 42,30.13 Z"
       class="cls-1"
       inkscape:connector-curvature="0"
       style="fill:#000000" />
    <path
       id="path16"
       d="M 11.78,39.84 A 15.81,15.81 0 0 1 4.24,37.59 10.64,10.64 0 0 1 8.47,31.34 7.18,7.18 0 0 0 11.78,32.23 6.91,6.91 0 0 0 15.1,31.35 5.29,5.29 0 0 1 16,32 l 0.1,0.09 0.06,-0.11 a 7.2,7.2 0 0 0 0.41,-0.81 V 31.1 L 16.54,31 A 6.49,6.49 0 0 0 15.11,30.1 H 15.05 15 a 6,6 0 0 1 -3.23,1 6.16,6.16 0 0 1 -3.23,-1 H 8.49 8.43 c -3.93,1.94 -5.54,7.26 -5.29,8 v 0 0 a 16.4,16.4 0 0 0 8.59,2.75 13.93,13.93 0 0 0 2.12,-0.17 H 14 v -0.06 c 0.12,-0.31 0.26,-0.63 0.4,-0.94 l 0.09,-0.19 h -0.2 a 13.23,13.23 0 0 1 -2.51,0.35 z"
       class="cls-1"
       inkscape:connector-curvature="0"
       style="fill:#000000" />
    <path
       id="path18"
       d="m 29.39,34.11 h -0.06 -0.05 a 7.46,7.46 0 0 1 -4,1.27 7.67,7.67 0 0 1 -4,-1.27 h -0.05 -0.06 c -4.86,2.41 -6.86,9 -6.55,9.89 v 0 0 A 20.31,20.31 0 0 0 25.26,47.4 19,19 0 0 0 35.9,44 v 0 0 c 0.35,-0.91 -1.65,-7.48 -6.51,-9.89 z m 5.26,9.26 a 17.88,17.88 0 0 1 -9.39,2.8 19.63,19.63 0 0 1 -9.39,-2.8 c 0.26,-1.46 1.93,-5.79 5.28,-7.79 a 8.88,8.88 0 0 0 4.11,1.1 8.55,8.55 0 0 0 4.11,-1.1 c 3.35,2 5.02,6.33 5.28,7.79 z"
       class="cls-1"
       inkscape:connector-curvature="0"
       style="fill:#000000" />
  </g>
</svg>
