<?xml version="1.0" encoding="UTF-8" standalone="no"?>
<svg
   xmlns:dc="http://purl.org/dc/elements/1.1/"
   xmlns:cc="http://creativecommons.org/ns#"
   xmlns:rdf="http://www.w3.org/1999/02/22-rdf-syntax-ns#"
   xmlns:svg="http://www.w3.org/2000/svg"
   xmlns="http://www.w3.org/2000/svg"
   xmlns:sodipodi="http://sodipodi.sourceforge.net/DTD/sodipodi-0.dtd"
   xmlns:inkscape="http://www.inkscape.org/namespaces/inkscape"
   id="Layer_1"
   enable-background="new 0 0 512 512"
   height="512"
   viewBox="0 0 512 512"
   width="512"
   version="1.1"
   sodipodi:docname="icon-luto.svg"
   inkscape:version="0.92.4 (5da689c313, 2019-01-14)">
  <metadata
     id="metadata17">
    <rdf:RDF>
      <cc:Work
         rdf:about="">
        <dc:format>image/svg+xml</dc:format>
        <dc:type
           rdf:resource="http://purl.org/dc/dcmitype/StillImage" />
      </cc:Work>
    </rdf:RDF>
  </metadata>
  <defs
     id="defs15" />
  <sodipodi:namedview
     pagecolor="#ffffff"
     bordercolor="#666666"
     borderopacity="1"
     objecttolerance="10"
     gridtolerance="10"
     guidetolerance="10"
     inkscape:pageopacity="0"
     inkscape:pageshadow="2"
     inkscape:window-width="1366"
     inkscape:window-height="699"
     id="namedview13"
     showgrid="false"
     inkscape:zoom="0.4609375"
     inkscape:cx="256"
     inkscape:cy="256"
     inkscape:window-x="0"
     inkscape:window-y="0"
     inkscape:window-maximized="1"
     inkscape:current-layer="Layer_1" />
  <g
     id="g10"
     transform="matrix(0.73305085,0,0,0.73305085,71.593224,66.754233)">
    <path
       d="m 184.485,416 -70,-70 H 54 V 330 H 0 v 140 h 54 v -16 h 23.515 l 48,48 H 246 V 442 H 158.485 Z M 42,458 H 12 V 342 h 30 z m 192,-4 v 36 H 130.485 l -48,-48 H 54 v -84 h 55.515 l 58,58 -23.514,23.515 -35.758,-35.757 -8.484,8.484 41.756,41.758 z"
       id="path2"
       inkscape:connector-curvature="0" />
    <path
       d="m 458,330 v 16 h -60.485 l -70,70 26.001,26 H 266 v 60 h 120.485 l 48,-48 H 458 v 16 h 54 V 330 Z m 0,112 h -28.485 l -48,48 H 278 v -36 h 92.485 l 41.757,-41.758 -8.484,-8.484 L 368,439.515 344.485,416 l 58,-58 H 458 Z m 42,16 H 470 V 342 h 30 z"
       id="path4"
       inkscape:connector-curvature="0" />
    <path
       d="M 390,10 H 122 v 332 h 268 z m -20.484,12 -20,20 H 162.484 l -20,-20 z M 178,66 v 220 h 87.516 l -12,12 H 166 V 54 h 180 v 151.516 l -12,12 V 66 Z M 322,78 V 229.516 L 277.516,274 H 190 V 78 Z m -188,-47.516 20,20 v 251.031 l -20,20 z m 8.484,299.516 20,-20 h 79.031 l -20,20 z m 160,0 20,-20 h 27.031 l 20,20 z m 32,-32 L 346,286.484 V 298 Z m 43.516,23.516 -20,-20 v -27.031 l 20,-20 z m 0,-84 L 285.516,330 H 238.485 L 378,190.484 Z m 0,-64 -20,20 V 50.484 l 20,-20 z"
       id="path6"
       inkscape:connector-curvature="0" />
    <path
       d="m 238,238 h 36 v -56 h 32 v -36 h -32 v -32 h -36 v 32 h -32 v 36 h 32 z m -20,-68 v -12 h 32 v -32 h 12 v 32 h 32 v 12 h -32 v 56 h -12 v -56 z"
       id="path8"
       inkscape:connector-curvature="0" />
  </g>
</svg>
